<svg width="20" height="16" viewBox="0 0 20 16" fill="none" xmlns="http://www.w3.org/2000/svg">
<path d="M9.99869 10.6477C9.43064 10.6477 8.86259 10.5338 8.31559 10.3345L3.60291 8.42706V12.7829C3.60291 13.5801 3.9816 14.2634 4.54965 14.4911L6.61145 15.3167C8.88363 16.2278 11.2821 16.2278 13.5542 15.3167L15.616 14.4911C16.1841 14.2634 16.5628 13.5801 16.5628 12.7829V8.37012L11.6818 10.3345C11.1348 10.5623 10.5667 10.6477 9.99869 10.6477Z" fill="#0057FF"/>
<path d="M19.5713 3.58719L11.261 0.256228C10.4405 -0.0854093 9.55685 -0.0854093 8.7153 0.256228L0.426035 3.58719C-0.142012 3.81495 -0.142012 4.92527 0.426035 5.15303L8.73634 8.48399C9.55685 8.82562 10.4405 8.82562 11.282 8.48399L18.3931 5.63701V8.17082C18.2459 8.2847 18.1407 8.48399 18.1407 8.71174V9.39502C18.1407 9.65125 18.2459 9.87901 18.4142 9.96441L17.9724 11.3594C17.9092 11.5587 17.9934 11.758 18.1617 11.7865L18.6246 11.8434C18.7087 11.8434 18.8139 11.8434 18.8981 11.8434L19.3609 11.7865C19.5082 11.758 19.5923 11.5587 19.5503 11.3594L19.1084 9.96441C19.2768 9.85054 19.382 9.65125 19.382 9.39502V8.71174C19.382 8.48399 19.2768 8.2847 19.1295 8.17082V5.35231L19.5923 5.15303C20.1393 4.8968 20.1393 3.81495 19.5713 3.58719Z" fill="#0057FF"/>
</svg>
