<svg width="80" height="80" viewBox="0 0 80 80" fill="none" xmlns="http://www.w3.org/2000/svg">
<rect x="1" y="1" width="78" height="78" rx="19" stroke="#0057FF" stroke-width="2"/>
<path d="M27.231 40.4725V43.0586C27.231 43.357 27.3764 43.6554 27.5703 43.8543C27.7641 44.0533 28.0064 44.1527 28.2972 44.1527C28.588 44.1527 28.8303 44.0533 29.0726 43.8543L32.2711 40.5719H41.9637C43.5145 40.5719 44.7745 39.2789 44.7745 37.6874V28.8845C44.7745 27.2931 43.5145 26 41.9637 26H27.8126C26.2618 26 25.0017 27.2931 25.0017 28.8845V37.6377C24.9533 39.0302 25.9225 40.2238 27.231 40.4725Z" fill="#0057FF"/>
<path d="M52.141 35.8972H46.7616V37.6379C46.7616 40.3732 44.5808 42.6112 41.9154 42.6112H35.2275V47.5349C35.2275 49.1263 36.4876 50.4194 38.0384 50.4194H47.7309L50.9294 53.7018C51.1233 53.9008 51.4141 54.0002 51.7048 54.0002C51.9956 54.0002 52.2379 53.9008 52.4318 53.7018C52.6256 53.5029 52.771 53.2045 52.771 52.9061V50.3199C54.031 50.121 55.0003 48.9771 55.0003 47.5846V38.7818C55.0003 37.1903 53.7403 35.8972 52.141 35.8972Z" fill="#0057FF"/>
</svg>
