<svg width="80" height="80" viewBox="0 0 80 80" fill="none" xmlns="http://www.w3.org/2000/svg">
<rect x="1" y="1" width="78" height="78" rx="19" stroke="#0057FF" stroke-width="2"/>
<path d="M39.9978 44.9679C39.0321 44.9679 38.0665 44.7758 37.1366 44.4395L29.125 41.2206V48.5711C29.125 49.9163 29.7688 51.0694 30.7345 51.4537L34.2395 52.8469C38.1022 54.3843 42.1795 54.3843 46.0423 52.8469L49.5473 51.4537C50.513 51.0694 51.1568 49.9163 51.1568 48.5711V41.1245L42.8591 44.4395C41.9292 44.8238 40.9635 44.9679 39.9978 44.9679Z" fill="#0057FF"/>
<path d="M56.2712 33.0534L42.1437 27.4324C40.7488 26.8559 39.2467 26.8559 37.816 27.4324L23.7243 33.0534C22.7586 33.4377 22.7586 35.3114 23.7243 35.6957L37.8518 41.3167C39.2467 41.8932 40.7488 41.8932 42.1795 41.3167L54.2683 36.5125V40.7883C54.018 40.9804 53.8391 41.3167 53.8391 41.7011V42.8541C53.8391 43.2865 54.018 43.6708 54.3041 43.8149L53.553 46.169C53.4457 46.5053 53.5888 46.8416 53.8749 46.8897L54.6617 46.9858C54.8048 46.9858 54.9836 46.9858 55.1267 46.9858L55.9135 46.8897C56.1639 46.8416 56.307 46.5053 56.2354 46.169L55.4844 43.8149C55.7705 43.6228 55.9493 43.2865 55.9493 42.8541V41.7011C55.9493 41.3167 55.7705 40.9804 55.5201 40.7883V36.032L56.307 35.6957C57.2369 35.2633 57.2369 33.4377 56.2712 33.0534Z" fill="#0057FF"/>
</svg>
