<svg width="80" height="80" viewBox="0 0 80 80" fill="none" xmlns="http://www.w3.org/2000/svg">
<rect x="1" y="1" width="78" height="78" rx="19" stroke="#0057FF" stroke-width="2"/>
<path d="M44.5373 35.0588H43.3284C42.699 35.0588 42.3124 34.3546 42.6406 33.8059L47.0735 26.3941C47.3877 25.8686 48.1346 25.8686 48.4489 26.3941L52.8818 33.8059C53.21 34.3546 52.8234 35.0588 52.194 35.0588H50.9851V53.1765C50.9851 53.6313 50.6242 54 50.1791 54H45.3433C44.8982 54 44.5373 53.6313 44.5373 53.1765V35.0588ZM41.3134 40V53.1765C41.3134 53.6313 40.9526 54 40.5075 54H35.6716C35.2265 54 34.8657 53.6313 34.8657 53.1765V40C34.8657 39.5452 35.2265 39.1765 35.6716 39.1765H40.5075C40.9526 39.1765 41.3134 39.5452 41.3134 40ZM32.4478 46.5882V53.1765C32.4478 53.6313 32.0869 54 31.6418 54H26.806C26.3608 54 26 53.6313 26 53.1765V46.5882C26 46.1334 26.3608 45.7647 26.806 45.7647H31.6418C32.0869 45.7647 32.4478 46.1334 32.4478 46.5882Z" fill="#0057FF"/>
</svg>
