<svg width="80" height="80" viewBox="0 0 80 80" fill="none" xmlns="http://www.w3.org/2000/svg">
<rect x="1" y="1" width="78" height="78" rx="19" stroke="#0057FF" stroke-width="2"/>
<path d="M43.1727 47.5C43.1727 42.75 45.4227 40.75 45.4227 40.75C48.5477 37.625 48.7027 32.4675 45.5802 29.3425C44.0799 27.8426 42.0454 27 39.9239 27C37.8025 27 35.7679 27.8426 34.2677 29.3425C31.1427 32.4675 31.2977 37.625 34.4227 40.75C34.4227 40.75 36.6727 42.75 36.6727 47.5H43.1727Z" fill="#0057FF"/>
<path d="M43.1727 47.5C43.1727 42.75 45.4227 40.75 45.4227 40.75C48.5477 37.625 48.7027 32.4675 45.5802 29.3425C44.0799 27.8426 42.0454 27 39.9239 27C37.8025 27 35.7679 27.8426 34.2677 29.3425C31.1427 32.4675 31.2977 37.625 34.4227 40.75C34.4227 40.75 36.6727 42.75 36.6727 47.5H43.1727Z" fill="#0057FF"/>
<path d="M43.1727 47.5C43.1727 42.75 45.4227 40.75 45.4227 40.75C48.5477 37.625 48.7027 32.4675 45.5802 29.3425C44.0799 27.8426 42.0454 27 39.9239 27C37.8025 27 35.7679 27.8426 34.2677 29.3425C31.1427 32.4675 31.2977 37.625 34.4227 40.75C34.4227 40.75 36.6727 42.75 36.6727 47.5H43.1727Z" stroke="#0057FF" stroke-width="4" stroke-linecap="round" stroke-linejoin="round"/>
<path d="M43.1727 47.5C43.1727 42.75 45.4227 40.75 45.4227 40.75C48.5477 37.625 48.7027 32.4675 45.5802 29.3425C44.0799 27.8426 42.0454 27 39.9239 27C37.8025 27 35.7679 27.8426 34.2677 29.3425C31.1427 32.4675 31.2977 37.625 34.4227 40.75C34.4227 40.75 36.6727 42.75 36.6727 47.5H43.1727Z" stroke="#0057FF" stroke-width="4" stroke-linecap="round" stroke-linejoin="round"/>
<path d="M42.4229 53H37.4229" stroke="#0057FF" stroke-width="4" stroke-linecap="round" stroke-linejoin="round"/>
</svg>
