<svg width="80" height="80" viewBox="0 0 80 80" fill="none" xmlns="http://www.w3.org/2000/svg">
<rect x="1" y="1" width="78" height="78" rx="19" stroke="#0057FF" stroke-width="2"/>
<path fill-rule="evenodd" clip-rule="evenodd" d="M30.6677 37.1689C32.7579 31.8898 38.8583 29.256 44.2926 31.2864C49.7265 33.3169 52.4379 39.2425 50.3477 44.522C48.2575 49.8007 42.1576 52.4345 36.7232 50.4041C31.2889 48.3737 28.578 42.448 30.6677 37.1689ZM55.8889 46.5922C56.4005 45.2999 54.427 44.4632 53.8135 45.7642L53.7942 45.8095C50.9195 52.966 42.7922 56.475 35.3979 53.7526C28.0304 50.9596 24.4183 43.0649 27.2212 35.8814C29.8136 29.4286 36.6752 25.9419 43.421 27.3145L39.9718 28.1594L44.8142 29.9688L50.8652 28.7262L47.2293 23.8688L42.3869 22.0598L44.653 25.3564C36.6079 23.3286 28.2181 27.3877 25.1266 35.0988C21.8793 43.405 26.0695 52.5627 34.5922 55.7869C43.1423 58.9414 52.5698 54.8713 55.8889 46.5922ZM39.8847 42.1733C39.44 42.0072 39.1671 41.5956 39.1653 41.1592L38.5131 34.6048C38.4543 34.0088 38.9045 33.4778 39.5181 33.4202C40.132 33.3626 40.6787 33.8 40.738 34.3964L41.3326 40.3787L45.1387 41.8005C45.7167 42.0168 46.0053 42.6477 45.7832 43.2092C45.5606 43.7708 44.9111 44.0516 44.333 43.8353L39.8847 42.1733Z" fill="#0057FF"/>
</svg>
