<svg width="100" height="32" viewBox="0 0 100 32" fill="none" xmlns="http://www.w3.org/2000/svg">
<g clip-path="url(#clip0)">
<path d="M92.0366 -0.000140141H7.96787C7.66143 -0.000140141 7.35867 -0.000140141 7.05304 0.00145986C6.79719 0.00305986 6.54339 0.00770786 6.28509 0.0116199C5.72395 0.0179413 5.16413 0.0652009 4.61049 0.152988C4.05763 0.242686 3.52209 0.411792 3.02198 0.654588C2.52248 0.899437 2.06607 1.21759 1.66931 1.59752C1.27048 1.97637 0.938012 2.41427 0.684708 2.89439C0.430706 3.37355 0.25458 3.88701 0.162413 4.41704C0.06937 4.94641 0.0193027 5.48188 0.0126604 6.01864C0.0049054 6.26392 0.00408644 6.51002 0 6.75533V25.2467C0.00408644 25.4951 0.0049054 25.7358 0.0126604 25.9843C0.0193047 26.521 0.069372 27.0564 0.162413 27.5858C0.254325 28.1161 0.430462 28.6299 0.684708 29.1092C0.937897 29.5878 1.27041 30.0239 1.66931 30.4007C2.06457 30.7823 2.52127 31.1006 3.02198 31.3436C3.52208 31.5871 4.05757 31.7572 4.61049 31.8483C5.16422 31.9353 5.72399 31.9826 6.28509 31.9897C6.54339 31.9951 6.79719 31.9983 7.05304 31.9983C7.35866 31.9999 7.66145 31.9999 7.96787 31.9999H92.0366C92.337 31.9999 92.6422 31.9999 92.9425 31.9983C93.1971 31.9983 93.4583 31.9951 93.7129 31.9897C94.2729 31.983 94.8317 31.9357 95.3842 31.8483C95.9389 31.7565 96.4764 31.5865 96.9789 31.3436C97.4791 31.1005 97.9354 30.7821 98.3303 30.4007C98.7282 30.0224 99.0614 29.5866 99.3178 29.1092C99.5701 28.6295 99.7446 28.1158 99.8351 27.5858C99.9283 27.0564 99.9802 26.521 99.9902 25.9843C99.9935 25.7358 99.9935 25.4951 99.9935 25.2467C100 24.9561 100 24.6671 100 24.3717V7.62876C100 7.33579 100 7.04517 99.9935 6.75533C99.9935 6.51002 99.9935 6.26392 99.9902 6.01861C99.9802 5.4818 99.9283 4.94645 99.8351 4.41701C99.7443 3.88728 99.5699 3.37386 99.3178 2.89436C98.8019 1.93202 97.9839 1.14868 96.9789 0.654516C96.4763 0.412314 95.9389 0.243252 95.3842 0.152916C94.8318 0.0647421 94.273 0.0174661 93.7129 0.0115079C93.4583 0.00760386 93.1971 0.00291586 92.9425 0.00135586C92.6422 -0.000244141 92.337 -0.000244141 92.0366 -0.000244141V-0.000140141Z" fill="currentColor"/>
<path d="M7.05705 31.3C6.80244 31.3 6.55398 31.2968 6.30136 31.2914C5.77805 31.2849 5.25596 31.2413 4.73938 31.1609C4.25769 31.0815 3.79106 30.9338 3.35488 30.7226C2.92271 30.5132 2.52853 30.2386 2.18745 29.9093C1.84143 29.5839 1.55335 29.2065 1.33464 28.7921C1.11351 28.375 0.960475 27.9279 0.880866 27.4664C0.794896 26.9704 0.748382 26.469 0.741726 25.9664C0.736428 25.7976 0.729492 25.2359 0.729492 25.2359V6.75542C0.729492 6.75542 0.73688 6.2023 0.741768 6.03979C0.748141 5.53794 0.794384 5.03727 0.880097 4.54214C0.959853 4.07935 1.113 3.63095 1.33425 3.21246C1.55217 2.79831 1.83864 2.42064 2.18258 2.0941C2.52612 1.76445 2.92156 1.48843 3.35447 1.27612C3.78965 1.06563 4.25539 0.918937 4.73611 0.840967C5.25439 0.75982 5.77829 0.715948 6.30342 0.709719L7.05746 0.699951H92.9383L93.7014 0.710111C94.2217 0.716031 94.7409 0.759511 95.2544 0.840183C95.74 0.919131 96.2106 1.06684 96.6507 1.27846C97.518 1.70634 98.2237 2.38328 98.6689 3.21441C98.8866 3.63001 99.0374 4.07476 99.1161 4.53354C99.2029 5.03274 99.2514 5.53734 99.2614 6.04331C99.2638 6.26987 99.2638 6.51323 99.2638 6.75542C99.2704 7.05542 99.2704 7.34097 99.2704 7.62886V24.3718C99.2704 24.6624 99.2704 24.946 99.2638 25.232C99.2638 25.4921 99.2638 25.7304 99.2605 25.9757C99.2508 26.4727 99.203 26.9682 99.1177 27.4585C99.0397 27.9234 98.8875 28.374 98.6665 28.7945C98.4462 29.2044 98.1598 29.5786 97.8177 29.9031C97.4764 30.2341 97.0815 30.5103 96.6483 30.7211C96.2094 30.9339 95.7395 31.0821 95.2544 31.1609C94.7379 31.2417 94.2157 31.2853 93.6924 31.2914C93.4476 31.2968 93.1913 31.3 92.9424 31.3L92.0366 31.3015L7.05705 31.3Z" fill="white"/>
<path d="M20.8891 15.9116C20.8984 15.2172 21.0911 14.5364 21.4491 13.9324C21.8072 13.3285 22.319 12.8211 22.937 12.4574C22.5444 11.9207 22.0265 11.479 21.4244 11.1674C20.8224 10.8558 20.1527 10.6829 19.4686 10.6624C18.0093 10.5157 16.5946 11.4983 15.851 11.4983C15.0929 11.4983 13.948 10.6769 12.7151 10.7012C11.9177 10.7259 11.1405 10.9479 10.4593 11.3456C9.77806 11.7433 9.21609 12.3031 8.8281 12.9706C7.14747 15.7562 8.40107 19.8501 10.011 22.1018C10.8165 23.2044 11.7579 24.436 12.9897 24.3923C14.195 24.3444 14.6452 23.6565 16.1002 23.6565C17.5417 23.6565 17.964 24.3923 19.2208 24.3645C20.5143 24.3444 21.3292 23.2571 22.1064 22.144C22.6852 21.3584 23.1305 20.4901 23.4259 19.5713C22.6745 19.2671 22.0332 18.7578 21.5821 18.107C21.131 17.4562 20.89 16.6926 20.8891 15.9116Z" fill="currentColor"/>
<path d="M18.5151 9.1815C19.2204 8.37104 19.5678 7.32933 19.4837 6.27759C18.4063 6.38592 17.411 6.87888 16.6963 7.65824C16.3468 8.03898 16.0791 8.48193 15.9086 8.96175C15.7381 9.44158 15.668 9.94887 15.7024 10.4546C16.2413 10.46 16.7744 10.3481 17.2616 10.1276C17.7488 9.90707 18.1774 9.58359 18.5151 9.1815Z" fill="currentColor"/>
<path d="M35.3505 21.7126H31.3949L30.445 24.3978H28.7695L32.5162 14.4634H34.2569L38.0035 24.3978H36.2996L35.3505 21.7126ZM31.8046 20.4736H34.94L33.3943 16.1157H33.351L31.8046 20.4736Z" fill="currentColor"/>
<path d="M46.0952 20.7759C46.0952 23.0267 44.8368 24.4728 42.9377 24.4728C42.4567 24.4969 41.9782 24.3908 41.5572 24.1667C41.1362 23.9426 40.7897 23.6095 40.5572 23.2056H40.5213V26.7931H38.9683V17.154H40.4715V18.3587H40.5001C40.7432 17.9567 41.0956 17.6254 41.5198 17.3999C41.9441 17.1744 42.4242 17.0633 42.9091 17.0782C44.8294 17.0782 46.0952 18.5314 46.0952 20.7759ZM44.4989 20.7759C44.4989 19.3095 43.7073 18.3454 42.4995 18.3454C41.3129 18.3454 40.5148 19.3298 40.5148 20.7759C40.5148 22.2353 41.3129 23.2126 42.4995 23.2126C43.7073 23.2126 44.4989 22.2556 44.4989 20.7759H44.4989Z" fill="currentColor"/>
<path d="M54.4227 20.7759C54.4227 23.0267 53.1639 24.4728 51.2649 24.4728C50.7838 24.4969 50.3054 24.3908 49.8844 24.1667C49.4634 23.9426 49.1168 23.6095 48.8844 23.2056H48.8484V26.7931H47.2954V17.154H48.7986V18.3587H48.8272C49.0703 17.9567 49.4228 17.6254 49.847 17.3999C50.2712 17.1744 50.7513 17.0633 51.2363 17.0782C53.1566 17.0782 54.4227 18.5314 54.4227 20.7759ZM52.8261 20.7759C52.8261 19.3095 52.0344 18.3454 50.8266 18.3454C49.6401 18.3454 48.8419 19.3298 48.8419 20.7759C48.8419 22.2353 49.6401 23.2126 50.8266 23.2126C52.0344 23.2126 52.8261 22.2556 52.8261 20.7759Z" fill="currentColor"/>
<path d="M59.9257 21.6289C60.0408 22.6141 61.0405 23.2609 62.4066 23.2609C63.7156 23.2609 64.6574 22.6141 64.6574 21.7258C64.6574 20.9547 64.0894 20.493 62.7445 20.1766L61.3996 19.8664C59.494 19.4258 58.6094 18.5727 58.6094 17.1883C58.6094 15.4742 60.1697 14.2969 62.3846 14.2969C64.5782 14.2969 66.0815 15.4742 66.1321 17.1883H64.5643C64.4705 16.1969 63.6144 15.5984 62.3634 15.5984C61.1123 15.5984 60.2562 16.2039 60.2562 17.0852C60.2562 17.7875 60.803 18.2008 62.1406 18.5172L63.2839 18.7859C65.4131 19.2679 66.2969 20.0867 66.2969 21.5398C66.2969 23.3984 64.7512 24.5625 62.2915 24.5625C59.9901 24.5625 58.4363 23.4258 58.3359 21.6289L59.9257 21.6289Z" fill="currentColor"/>
<path d="M69.6502 15.4399V17.154H71.0889V18.3313H69.6502V22.3243C69.6502 22.9446 69.9383 23.2337 70.5707 23.2337C70.7415 23.2308 70.9121 23.2194 71.0816 23.1993V24.3696C70.7972 24.4205 70.5082 24.4435 70.219 24.4384C68.6872 24.4384 68.0898 23.8876 68.0898 22.4829V18.3313H66.9897V17.154H68.0898V15.4399H69.6502Z" fill="currentColor"/>
<path d="M71.9214 20.7759C71.9214 18.497 73.3234 17.0649 75.5097 17.0649C77.7034 17.0649 79.0989 18.4969 79.0989 20.7759C79.0989 23.061 77.7107 24.4868 75.5097 24.4868C73.3095 24.4868 71.9214 23.061 71.9214 20.7759ZM77.5165 20.7759C77.5165 19.2126 76.7681 18.2899 75.5097 18.2899C74.2513 18.2899 73.503 19.2196 73.503 20.7759C73.503 22.3454 74.2513 23.261 75.5097 23.261C76.7681 23.261 77.5165 22.3454 77.5165 20.7759H77.5165Z" fill="currentColor"/>
<path d="M80.3792 17.154H81.8604V18.3868H81.8963C81.9965 18.0017 82.2321 17.6615 82.5635 17.4232C82.895 17.1848 83.302 17.063 83.7162 17.0782C83.8951 17.0776 84.0736 17.0962 84.2483 17.1336V18.5243C84.0223 18.4582 83.7866 18.4278 83.5505 18.4344C83.3249 18.4257 83.0999 18.4637 82.8911 18.546C82.6824 18.6284 82.4947 18.7529 82.3409 18.9113C82.1872 19.0696 82.071 19.2579 82.0005 19.4632C81.9299 19.6685 81.9066 19.886 81.9322 20.1008V24.3969H80.3792L80.3792 17.154Z" fill="currentColor"/>
<path d="M91.4087 22.2696C91.1998 23.5845 89.8622 24.4868 88.1509 24.4868C85.9499 24.4868 84.5837 23.0751 84.5837 20.8103C84.5837 18.5384 85.9572 17.0649 88.0856 17.0649C90.1788 17.0649 91.4952 18.4415 91.4952 20.6376V21.147H86.1514V21.2368C86.1268 21.5034 86.1616 21.7719 86.2537 22.0246C86.3458 22.2772 86.493 22.5083 86.6855 22.7023C86.878 22.8964 87.1114 23.049 87.3702 23.15C87.6291 23.251 87.9074 23.2982 88.1868 23.2884C88.5538 23.3213 88.9221 23.2399 89.2369 23.0564C89.5517 22.8728 89.7962 22.5969 89.934 22.2696L91.4087 22.2696ZM86.1588 20.1079H89.9414C89.9553 19.8682 89.9173 19.6284 89.8299 19.4034C89.7424 19.1784 89.6073 18.9732 89.433 18.8006C89.2588 18.628 89.0491 18.4917 88.8173 18.4004C88.5854 18.309 88.3363 18.2645 88.0856 18.2696C87.8327 18.2682 87.582 18.3147 87.348 18.4065C87.1139 18.4983 86.9012 18.6335 86.7221 18.8044C86.5429 18.9754 86.4009 19.1785 86.3043 19.4023C86.2076 19.626 86.1581 19.8658 86.1588 20.1079V20.1079Z" fill="currentColor"/>
<path d="M31.6102 6.98442C31.9358 6.96205 32.2625 7.00914 32.5668 7.12229C32.871 7.23543 33.1453 7.41182 33.3697 7.63872C33.5942 7.86562 33.7632 8.13738 33.8647 8.43439C33.9662 8.73141 33.9975 9.04628 33.9564 9.35629C33.9564 10.8813 33.0955 11.7579 31.6102 11.7579H29.8091V6.98442H31.6102ZM30.5835 11.0828H31.5237C31.7563 11.0961 31.9892 11.0596 32.2052 10.9759C32.4213 10.8922 32.6151 10.7635 32.7726 10.599C32.9301 10.4346 33.0474 10.2386 33.1158 10.0253C33.1842 9.81197 33.2021 9.58676 33.1681 9.36602C33.1996 9.14615 33.1799 8.92234 33.1105 8.71061C33.041 8.49887 32.9235 8.30447 32.7663 8.14133C32.6092 7.97818 32.4162 7.85034 32.2014 7.76695C31.9866 7.68356 31.7551 7.64669 31.5237 7.65899H30.5835V11.0828Z" fill="currentColor"/>
<path d="M34.8311 9.95504C34.8075 9.71831 34.8358 9.47945 34.9142 9.2538C34.9926 9.02814 35.1194 8.82067 35.2865 8.64468C35.4536 8.4687 35.6573 8.32808 35.8845 8.23186C36.1116 8.13564 36.3573 8.08594 36.6057 8.08594C36.8541 8.08594 37.0998 8.13564 37.327 8.23186C37.5542 8.32808 37.7578 8.4687 37.9249 8.64468C38.092 8.82067 38.2188 9.02814 38.2973 9.2538C38.3757 9.47945 38.404 9.71831 38.3803 9.95504C38.4044 10.192 38.3765 10.4312 38.2982 10.6572C38.22 10.8832 38.0933 11.0911 37.9262 11.2674C37.759 11.4438 37.5552 11.5847 37.3278 11.6811C37.1004 11.7775 36.8544 11.8273 36.6057 11.8273C36.357 11.8273 36.111 11.7775 35.8836 11.6811C35.6562 11.5847 35.4524 11.4438 35.2853 11.2674C35.1182 11.0911 34.9914 10.8832 34.9132 10.6572C34.835 10.4312 34.807 10.192 34.8311 9.95504ZM37.6164 9.95504C37.6164 9.17418 37.25 8.71754 36.607 8.71754C35.9614 8.71754 35.5983 9.17418 35.5983 9.95505C35.5983 10.7422 35.9615 11.1953 36.607 11.1953C37.25 11.1953 37.6165 10.739 37.6165 9.95504H37.6164Z" fill="currentColor"/>
<path d="M43.0981 11.7579H42.3277L41.55 9.10473H41.4913L40.7168 11.7579H39.9537L38.9165 8.15552H39.6698L40.3438 10.9043H40.3993L41.173 8.15552H41.8854L42.6591 10.9043H42.7178L43.3887 8.15552H44.1313L43.0981 11.7579Z" fill="currentColor"/>
<path d="M45.0039 8.1556H45.7188V8.72787H45.7743C45.8684 8.52233 46.0272 8.35003 46.2285 8.23499C46.4298 8.11994 46.6636 8.06788 46.8972 8.08607C47.0803 8.07289 47.2642 8.09932 47.4351 8.16339C47.6061 8.22747 47.7598 8.32755 47.8849 8.45623C48.01 8.5849 48.1033 8.73887 48.1577 8.90673C48.2122 9.07458 48.2266 9.25202 48.1997 9.42591V11.7579H47.4571V9.60443C47.4571 9.02553 47.1943 8.73763 46.6451 8.73763C46.5207 8.73209 46.3966 8.75235 46.2813 8.79701C46.1659 8.84167 46.062 8.90969 45.9766 8.9964C45.8913 9.08311 45.8266 9.18645 45.7868 9.29936C45.7471 9.41226 45.7334 9.53206 45.7465 9.65052V11.7579H45.0039L45.0039 8.1556Z" fill="currentColor"/>
<path d="M49.3828 6.74927H50.1255V11.7579H49.3828V6.74927Z" fill="currentColor"/>
<path d="M51.1578 9.95511C51.1341 9.71836 51.1625 9.47949 51.2409 9.25383C51.3193 9.02816 51.4462 8.82068 51.6133 8.64469C51.7804 8.4687 51.9841 8.32809 52.2113 8.23186C52.4384 8.13564 52.6841 8.08594 52.9326 8.08594C53.181 8.08594 53.4267 8.13564 53.6539 8.23186C53.8811 8.32809 54.0848 8.4687 54.2519 8.64469C54.419 8.82068 54.5458 9.02816 54.6242 9.25383C54.7027 9.47949 54.731 9.71836 54.7074 9.95511C54.7314 10.1921 54.7035 10.4313 54.6252 10.6573C54.547 10.8833 54.4202 11.0912 54.2531 11.2675C54.0859 11.4438 53.8821 11.5847 53.6547 11.6811C53.4273 11.7776 53.1813 11.8274 52.9326 11.8274C52.6839 11.8274 52.4379 11.7776 52.2105 11.6811C51.983 11.5847 51.7792 11.4438 51.6121 11.2675C51.4449 11.0912 51.3182 10.8833 51.2399 10.6573C51.1617 10.4313 51.1337 10.1921 51.1578 9.95511ZM53.9431 9.95511C53.9431 9.17425 53.5767 8.71761 52.9336 8.71761C52.2881 8.71761 51.9249 9.17425 51.9249 9.95512C51.9249 10.7422 52.2881 11.1953 52.9336 11.1953C53.5767 11.1953 53.9431 10.7391 53.9431 9.95511H53.9431Z" fill="currentColor"/>
<path d="M55.4893 10.7391C55.4893 10.0906 55.9936 9.71679 56.8888 9.66367L57.9081 9.60742V9.29648C57.9081 8.91601 57.6454 8.70117 57.1377 8.70117C56.7232 8.70117 56.4359 8.84687 56.3535 9.10156H55.6345C55.7104 8.48281 56.3184 8.08594 57.172 8.08594C58.1154 8.08594 58.6475 8.53554 58.6475 9.29648V11.7578H57.9326V11.2516H57.8739C57.7546 11.4332 57.5871 11.5812 57.3885 11.6806C57.19 11.7799 56.9674 11.8271 56.7436 11.8172C56.5856 11.8329 56.4259 11.8168 56.2749 11.7698C56.1238 11.7228 55.9847 11.6461 55.8666 11.5445C55.7484 11.4429 55.6537 11.3188 55.5888 11.1801C55.5238 11.0413 55.4899 10.8911 55.4893 10.7391ZM57.9081 10.4312V10.1301L56.9892 10.1863C56.471 10.2195 56.236 10.3883 56.236 10.7058C56.236 11.0301 56.5298 11.2187 56.9338 11.2187C57.0521 11.2302 57.1717 11.2188 57.2853 11.1851C57.399 11.1514 57.5044 11.0962 57.5953 11.0227C57.6862 10.9493 57.7608 10.859 57.8145 10.7574C57.8683 10.6558 57.9001 10.5449 57.9081 10.4312Z" fill="currentColor"/>
<path d="M59.6235 9.95514C59.6235 8.81686 60.2348 8.09576 61.1855 8.09576C61.4207 8.08539 61.6541 8.13931 61.8584 8.25123C62.0628 8.36314 62.2296 8.52843 62.3395 8.72776H62.395V6.74927H63.1376V11.7579H62.426V11.1887H62.3672C62.2489 11.3867 62.0762 11.5499 61.8679 11.6607C61.6596 11.7715 61.4237 11.8256 61.1855 11.8172C60.2283 11.8173 59.6235 11.0962 59.6235 9.95514ZM60.3907 9.95514C60.3907 10.7192 60.7669 11.179 61.3961 11.179C62.022 11.179 62.4089 10.7126 62.4089 9.95827C62.4089 9.20748 62.018 8.73443 61.3961 8.73443C60.771 8.73443 60.3907 9.19732 60.3907 9.95514H60.3907Z" fill="currentColor"/>
<path d="M66.2103 9.95504C66.1866 9.71831 66.2149 9.47945 66.2933 9.2538C66.3718 9.02814 66.4986 8.82067 66.6657 8.64468C66.8328 8.4687 67.0364 8.32808 67.2636 8.23186C67.4908 8.13564 67.7365 8.08594 67.9849 8.08594C68.2333 8.08594 68.479 8.13564 68.7061 8.23186C68.9333 8.32808 69.137 8.4687 69.3041 8.64468C69.4712 8.82067 69.598 9.02814 69.6764 9.2538C69.7548 9.47945 69.7831 9.71831 69.7595 9.95504C69.7836 10.192 69.7556 10.4312 69.6774 10.6572C69.5992 10.8832 69.4724 11.0911 69.3053 11.2674C69.1382 11.4438 68.9344 11.5847 68.707 11.6811C68.4796 11.7775 68.2336 11.8273 67.9849 11.8273C67.7362 11.8273 67.4902 11.7775 67.2628 11.6811C67.0354 11.5847 66.8316 11.4438 66.6644 11.2674C66.4973 11.0911 66.3706 10.8832 66.2924 10.6572C66.2141 10.4312 66.1862 10.192 66.2103 9.95504ZM68.9956 9.95504C68.9956 9.17418 68.6292 8.71754 67.9861 8.71754C67.3406 8.71754 66.9774 9.17418 66.9774 9.95505C66.9774 10.7422 67.3406 11.1953 67.9861 11.1953C68.6292 11.1953 68.9956 10.739 68.9956 9.95504Z" fill="currentColor"/>
<path d="M70.7559 8.1556H71.4708V8.72787H71.5263C71.6204 8.52233 71.7792 8.35003 71.9805 8.23499C72.1818 8.11994 72.4155 8.06788 72.6492 8.08607C72.8323 8.07289 73.0161 8.09932 73.1871 8.16339C73.3581 8.22747 73.5118 8.32755 73.6369 8.45623C73.762 8.5849 73.8552 8.73887 73.9097 8.90673C73.9642 9.07458 73.9785 9.25202 73.9517 9.42591V11.7579H73.209V9.60443C73.209 9.02553 72.9463 8.73763 72.397 8.73763C72.2727 8.73209 72.1486 8.75235 72.0332 8.79701C71.9179 8.84167 71.814 8.90969 71.7286 8.9964C71.6433 9.08311 71.5785 9.18645 71.5388 9.29936C71.4991 9.41226 71.4853 9.53206 71.4985 9.65052V11.7579H70.7559V8.1556Z" fill="currentColor"/>
<path d="M78.148 7.25854V8.17182H78.9632V8.77066H78.148V10.623C78.148 11.0003 78.3104 11.1656 78.6801 11.1656C78.7747 11.1653 78.8693 11.1598 78.9632 11.1492V11.7414C78.8299 11.7642 78.6947 11.7763 78.5593 11.7777C77.7334 11.7777 77.4045 11.4996 77.4045 10.805V8.77062H76.8071V8.17179H77.4045V7.25854H78.148Z" fill="currentColor"/>
<path d="M79.9775 6.74927H80.7136V8.73443H80.7724C80.8711 8.52697 81.0343 8.3537 81.2396 8.23822C81.4449 8.12274 81.6824 8.07068 81.9198 8.08912C82.1019 8.07963 82.284 8.10874 82.453 8.17437C82.6221 8.24001 82.7739 8.34054 82.8977 8.46881C83.0215 8.59708 83.1141 8.74993 83.1691 8.91643C83.2241 9.08294 83.24 9.25901 83.2157 9.43208V11.7579H82.4723V9.60747C82.4723 9.03208 82.1924 8.74067 81.6677 8.74067C81.54 8.73065 81.4117 8.74744 81.2915 8.78989C81.1714 8.83233 81.0623 8.89939 80.9721 8.98638C80.8818 9.07337 80.8125 9.17819 80.769 9.2935C80.7255 9.40881 80.7089 9.53183 80.7202 9.65395V11.7579H79.9776L79.9775 6.74927Z" fill="currentColor"/>
<path d="M87.546 10.7852C87.4451 11.1144 87.2265 11.3992 86.9284 11.5898C86.6303 11.7803 86.2718 11.8644 85.9154 11.8274C85.6675 11.8337 85.4212 11.7882 85.1934 11.6942C84.9657 11.6002 84.7621 11.4598 84.5967 11.2829C84.4313 11.106 84.3081 10.8968 84.2357 10.6697C84.1632 10.4426 84.1433 10.2032 84.1772 9.96803C84.1442 9.73212 84.1645 9.49218 84.2368 9.26444C84.309 9.0367 84.4316 8.82649 84.5961 8.64803C84.7606 8.46957 84.9633 8.32703 85.1903 8.23007C85.4174 8.1331 85.6635 8.08397 85.9122 8.086C86.9592 8.086 87.5908 8.7708 87.5908 9.902V10.1501H84.9337V10.1899C84.9221 10.3221 84.9394 10.4552 84.9846 10.5806C85.0299 10.706 85.102 10.8209 85.1963 10.9181C85.2907 11.0153 85.4052 11.0925 85.5326 11.1448C85.6599 11.1971 85.7973 11.2234 85.9358 11.2219C86.1135 11.2423 86.2934 11.2117 86.4529 11.1339C86.6123 11.0562 86.7439 10.9348 86.8311 10.7852L87.546 10.7852ZM84.9337 9.62428H86.8343C86.8437 9.50338 86.8265 9.38194 86.7839 9.26776C86.7413 9.15359 86.6743 9.0492 86.5871 8.96132C86.4998 8.87343 86.3944 8.80399 86.2774 8.75745C86.1605 8.71091 86.0347 8.6883 85.9081 8.69108C85.7796 8.68953 85.6522 8.71262 85.5332 8.75897C85.4142 8.80533 85.3061 8.87402 85.2153 8.96099C85.1245 9.04796 85.0528 9.15145 85.0044 9.26537C84.9561 9.37929 84.932 9.50132 84.9337 9.62428H84.9337Z" fill="currentColor"/>
</g>
<defs>
<clipPath id="clip0">
<rect width="100" height="32" fill="white"/>
</clipPath>
</defs>
</svg>
