<svg width="121" height="39" viewBox="0 0 121 39" fill="none" xmlns="http://www.w3.org/2000/svg">
<g clip-path="url(#clip0)">
<path d="M111.364 0.00012584H9.64112C9.27033 0.00012584 8.90399 0.00012584 8.53417 0.00206184C8.22461 0.00399784 7.9175 0.00962192 7.60496 0.0143554C6.92598 0.0220044 6.2486 0.0791885 5.57869 0.185411C4.90973 0.293945 4.26172 0.498564 3.65659 0.792347C3.0522 1.08861 2.49995 1.47358 2.01987 1.93329C1.53728 2.3917 1.13499 2.92157 0.828497 3.5025C0.521154 4.08229 0.308041 4.70358 0.19652 5.34492C0.0839377 5.98545 0.0233562 6.63337 0.0153191 7.28286C0.00593553 7.57964 0.00494459 7.87742 0 8.17425V30.5489C0.00494459 30.8494 0.00593553 31.1406 0.0153191 31.4412C0.0233587 32.0907 0.0839401 32.7386 0.19652 33.3791C0.307734 34.0208 0.520859 34.6425 0.828497 35.2225C1.13486 35.8015 1.53719 36.3292 2.01987 36.7851C2.49813 37.2468 3.05073 37.6321 3.65659 37.9261C4.26172 38.2206 4.90966 38.4265 5.57869 38.5367C6.24871 38.6421 6.92603 38.6993 7.60496 38.7078C7.9175 38.7144 8.22461 38.7182 8.53417 38.7182C8.90398 38.7201 9.27035 38.7201 9.64112 38.7201H111.364C111.728 38.7201 112.097 38.7201 112.46 38.7182C112.769 38.7182 113.085 38.7144 113.393 38.7078C114.07 38.6997 114.746 38.6425 115.415 38.5367C116.086 38.4257 116.736 38.2199 117.344 37.9261C117.95 37.6319 118.502 37.2467 118.98 36.7851C119.461 36.3274 119.864 35.8001 120.174 35.2225C120.48 34.642 120.691 34.0204 120.8 33.3791C120.913 32.7385 120.976 32.0908 120.988 31.4412C120.992 31.1406 120.992 30.8494 120.992 30.5489C121 30.1972 121 29.8474 121 29.4901V9.2311C121 8.87661 121 8.52495 120.992 8.17425C120.992 7.87742 120.992 7.57964 120.988 7.28282C120.976 6.63327 120.913 5.9855 120.8 5.34488C120.691 4.70391 120.48 4.08267 120.174 3.50247C119.55 2.33804 118.561 1.3902 117.344 0.79226C116.736 0.499195 116.086 0.294631 115.415 0.185324C114.746 0.0786333 114.07 0.0214294 113.393 0.0142199C113.085 0.00949608 112.769 0.0038236 112.46 0.001936C112.097 0 111.728 0 111.364 0V0.00012584Z" fill="#2C3953"/>
<path d="M8.53916 37.8727C8.23108 37.8727 7.93044 37.8689 7.62478 37.8623C6.99157 37.8544 6.35984 37.8017 5.73477 37.7044C5.15193 37.6083 4.58731 37.4296 4.05954 37.1741C3.5366 36.9207 3.05965 36.5884 2.64694 36.19C2.22826 35.7963 1.87969 35.3397 1.61504 34.8382C1.34747 34.3335 1.1623 33.7925 1.06597 33.234C0.961951 32.634 0.905669 32.0272 0.897616 31.419C0.891205 31.2149 0.882812 30.5351 0.882812 30.5351V8.1738C0.882812 8.1738 0.891751 7.50452 0.897667 7.30789C0.905378 6.70064 0.961332 6.09484 1.06504 5.49572C1.16155 4.93575 1.34686 4.39319 1.61457 3.88681C1.87825 3.38569 2.22488 2.92871 2.64104 2.53359C3.05674 2.13472 3.53522 1.80074 4.05904 1.54384C4.5856 1.28915 5.14915 1.11165 5.73082 1.01731C6.35794 0.919121 6.99186 0.866036 7.62727 0.858499L8.53966 0.84668H112.456L113.379 0.858973C114.008 0.866136 114.637 0.918747 115.258 1.01636C115.846 1.11189 116.415 1.29062 116.948 1.54668C117.997 2.06441 118.851 2.88351 119.389 3.88917C119.653 4.39206 119.835 4.93019 119.931 5.48533C120.036 6.08936 120.094 6.69992 120.106 7.31215C120.109 7.58628 120.109 7.88075 120.109 8.1738C120.117 8.5368 120.117 8.88231 120.117 9.23065V29.4896C120.117 29.8413 120.117 30.1844 120.109 30.5304C120.109 30.8452 120.109 31.1336 120.105 31.4304C120.094 32.0317 120.036 32.6313 119.933 33.2245C119.838 33.787 119.654 34.3322 119.387 34.8411C119.12 35.3371 118.773 35.7898 118.36 36.1825C117.947 36.583 117.469 36.9172 116.945 37.1722C116.413 37.4297 115.845 37.6091 115.258 37.7044C114.633 37.8022 114.001 37.8549 113.368 37.8623C113.072 37.8689 112.762 37.8727 112.46 37.8727L111.364 37.8746L8.53916 37.8727Z" fill="white"/>
<path d="M25.2762 19.2533C25.2876 18.4132 25.5207 17.5894 25.9539 16.8586C26.3872 16.1278 27.0065 15.5139 27.7542 15.0738C27.2792 14.4244 26.6525 13.8899 25.924 13.5129C25.1955 13.1359 24.3852 12.9266 23.5575 12.9018C21.7917 12.7244 20.0799 13.9133 19.1801 13.9133C18.2629 13.9133 16.8776 12.9195 15.3858 12.9488C14.4208 12.9787 13.4804 13.2473 12.6562 13.7285C11.8319 14.2097 11.1519 14.8872 10.6825 15.6948C8.6489 19.0653 10.1658 24.019 12.1138 26.7435C13.0884 28.0776 14.2275 29.5679 15.718 29.515C17.1765 29.4571 17.7212 28.6247 19.4817 28.6247C21.2259 28.6247 21.737 29.515 23.2577 29.4814C24.8227 29.4571 25.8088 28.1414 26.7492 26.7946C27.4495 25.844 27.9884 24.7934 28.3458 23.6817C27.4366 23.3135 26.6607 22.6973 26.1148 21.9098C25.5689 21.1223 25.2773 20.1984 25.2762 19.2533Z" fill="#2C3953"/>
<path d="M22.404 11.1094C23.2573 10.1288 23.6777 8.86831 23.5759 7.5957C22.2722 7.72678 21.068 8.32327 20.2031 9.2663C19.7803 9.72699 19.4564 10.263 19.2501 10.8435C19.0437 11.4241 18.9589 12.038 19.0005 12.6499C19.6526 12.6564 20.2977 12.5211 20.8872 12.2542C21.4768 11.9874 21.9954 11.596 22.404 11.1094Z" fill="#2C3953"/>
<path d="M42.7754 26.2716H37.9892L36.8398 29.5206H34.8125L39.346 17.5H41.4522L45.9857 29.5206H43.9238L42.7754 26.2716ZM38.4849 24.7723H42.2788L40.4085 19.4994H40.3561L38.4849 24.7723Z" fill="#2C3953"/>
<path d="M55.7759 25.1389C55.7759 27.8623 54.2532 29.6121 51.9554 29.6121C51.3733 29.6412 50.7944 29.5129 50.285 29.2417C49.7756 28.9705 49.3562 28.5675 49.075 28.0788H49.0315V32.4197H47.1523V20.7564H48.9713V22.2141H49.0058C49.3 21.7277 49.7265 21.3267 50.2398 21.0539C50.753 20.7811 51.334 20.6466 51.9208 20.6647C54.2443 20.6647 55.7759 22.423 55.7759 25.1389ZM53.8444 25.1389C53.8444 23.3645 52.8866 22.198 51.4251 22.198C49.9894 22.198 49.0236 23.3891 49.0236 25.1389C49.0236 26.9047 49.9894 28.0873 51.4251 28.0873C52.8866 28.0873 53.8444 26.9293 53.8444 25.1389H53.8444Z" fill="#2C3953"/>
<path d="M65.8526 25.1389C65.8526 27.8623 64.3294 29.6121 62.0316 29.6121C61.4495 29.6412 60.8706 29.5129 60.3612 29.2417C59.8518 28.9705 59.4324 28.5675 59.1511 28.0788H59.1077V32.4197H57.2285V20.7564H59.0474V22.2141H59.082C59.3762 21.7277 59.8026 21.3267 60.3159 21.0539C60.8292 20.7811 61.4102 20.6466 61.997 20.6647C64.3205 20.6647 65.8526 22.423 65.8526 25.1389ZM63.9206 25.1389C63.9206 23.3645 62.9628 22.198 61.5013 22.198C60.0655 22.198 59.0998 23.3891 59.0998 25.1389C59.0998 26.9047 60.0655 28.0873 61.5013 28.0873C62.9628 28.0873 63.9206 26.9293 63.9206 25.1389Z" fill="#2C3953"/>
<path d="M72.5115 26.1706C72.6508 27.3627 73.8604 28.1454 75.5134 28.1454C77.0973 28.1454 78.2368 27.3626 78.2368 26.2878C78.2368 25.3548 77.5496 24.7961 75.9222 24.4133L74.2949 24.038C71.9892 23.5048 70.9187 22.4725 70.9187 20.7974C70.9187 18.7234 72.8068 17.2988 75.4868 17.2988C78.1411 17.2988 79.96 18.7234 80.0212 20.7974H78.1243C78.0107 19.5978 76.9749 18.8737 75.4611 18.8737C73.9473 18.8737 72.9114 19.6063 72.9114 20.6727C72.9114 21.5225 73.573 22.0226 75.1915 22.4054L76.5749 22.7306C79.1512 23.3138 80.2207 24.3045 80.2207 26.0628C80.2207 28.3117 78.3504 29.7202 75.3741 29.7202C72.5895 29.7202 70.7094 28.3448 70.5879 26.1706L72.5115 26.1706Z" fill="#2C3953"/>
<path d="M84.2777 18.6816V20.7557H86.0186V22.1802H84.2777V27.0117C84.2777 27.7623 84.6263 28.1121 85.3916 28.1121C85.5983 28.1086 85.8046 28.0947 86.0097 28.0705V29.4865C85.6657 29.5481 85.316 29.576 84.966 29.5697C83.1125 29.5697 82.3897 28.9033 82.3897 27.2036V22.1802H81.0586V20.7557H82.3897V18.6816H84.2777Z" fill="#2C3953"/>
<path d="M87.0254 25.1387C87.0254 22.3812 88.7218 20.6484 91.3673 20.6484C94.0216 20.6484 95.7102 22.3812 95.7102 25.1387C95.7102 27.9037 94.0305 29.6289 91.3673 29.6289C88.7051 29.6289 87.0254 27.9037 87.0254 25.1387ZM93.7954 25.1387C93.7954 23.2471 92.8899 22.1307 91.3673 22.1307C89.8446 22.1307 88.9391 23.2556 88.9391 25.1387C88.9391 27.0378 89.8446 28.1457 91.3673 28.1457C92.8899 28.1457 93.7954 27.0378 93.7954 25.1387H93.7954Z" fill="#2C3953"/>
<path d="M97.2598 20.7563H99.052V22.248H99.0955C99.2168 21.7821 99.5019 21.3704 99.9029 21.082C100.304 20.7937 100.796 20.6463 101.298 20.6646C101.514 20.6639 101.73 20.6864 101.941 20.7317V22.4144C101.668 22.3344 101.383 22.2977 101.097 22.3057C100.824 22.2951 100.552 22.3412 100.299 22.4408C100.047 22.5403 99.8195 22.6911 99.6335 22.8827C99.4475 23.0742 99.3069 23.302 99.2216 23.5505C99.1362 23.799 99.108 24.0622 99.1389 24.322V29.5203H97.2598L97.2598 20.7563Z" fill="#2C3953"/>
<path d="M110.606 26.9461C110.353 28.5371 108.735 29.6289 106.664 29.6289C104.001 29.6289 102.348 27.9207 102.348 25.1803C102.348 22.4313 104.01 20.6484 106.585 20.6484C109.118 20.6484 110.711 22.3141 110.711 24.9713V25.5877H104.245V25.6964C104.215 26.0189 104.257 26.3439 104.368 26.6496C104.48 26.9553 104.658 27.2349 104.891 27.4697C105.124 27.7044 105.406 27.8891 105.719 28.0114C106.033 28.1336 106.369 28.1907 106.707 28.1788C107.151 28.2186 107.597 28.1202 107.978 27.8981C108.359 27.676 108.655 27.3421 108.821 26.9461L110.606 26.9461ZM104.253 24.3304H108.83C108.847 24.0404 108.801 23.7502 108.695 23.478C108.59 23.2058 108.426 22.9575 108.215 22.7486C108.004 22.5397 107.751 22.3748 107.47 22.2643C107.19 22.1537 106.888 22.0999 106.585 22.1061C106.279 22.1044 105.976 22.1606 105.692 22.2717C105.409 22.3828 105.152 22.5464 104.935 22.7532C104.718 22.96 104.546 23.2059 104.429 23.4766C104.312 23.7473 104.253 24.0375 104.253 24.3304V24.3304Z" fill="#2C3953"/>
<path d="M38.2477 8.45187C38.6417 8.4248 39.037 8.48178 39.4052 8.61869C39.7733 8.75559 40.1052 8.96902 40.3768 9.24357C40.6483 9.51812 40.8529 9.84694 40.9757 10.2063C41.0984 10.5657 41.1363 10.9467 41.0866 11.3218C41.0866 13.1671 40.0449 14.2278 38.2477 14.2278H36.0684V8.45187H38.2477ZM37.0055 13.4109H38.143C38.4245 13.427 38.7062 13.3829 38.9677 13.2816C39.2291 13.1803 39.4636 13.0245 39.6542 12.8255C39.8448 12.6265 39.9867 12.3894 40.0695 12.1313C40.1522 11.8732 40.1739 11.6007 40.1327 11.3336C40.1709 11.0676 40.1471 10.7967 40.063 10.5406C39.979 10.2844 39.8368 10.0491 39.6466 9.85172C39.4564 9.65432 39.223 9.49963 38.9631 9.39872C38.7031 9.29782 38.4231 9.25321 38.143 9.26809H37.0055V13.4109Z" fill="#2C3953"/>
<path d="M42.1449 12.0458C42.1163 11.7593 42.1505 11.4703 42.2454 11.1973C42.3403 10.9242 42.4938 10.6732 42.6959 10.4603C42.8981 10.2473 43.1445 10.0772 43.4194 9.96075C43.6943 9.84432 43.9916 9.78418 44.2922 9.78418C44.5928 9.78418 44.89 9.84432 45.1649 9.96075C45.4398 10.0772 45.6862 10.2473 45.8884 10.4603C46.0906 10.6732 46.244 10.9242 46.3389 11.1973C46.4338 11.4703 46.468 11.7593 46.4394 12.0458C46.4686 12.3325 46.4348 12.622 46.3401 12.8954C46.2455 13.1689 46.0921 13.4204 45.8899 13.6338C45.6877 13.8471 45.4411 14.0176 45.1659 14.1343C44.8907 14.251 44.5931 14.3113 44.2922 14.3113C43.9912 14.3113 43.6936 14.251 43.4184 14.1343C43.1433 14.0176 42.8967 13.8471 42.6944 13.6338C42.4922 13.4204 42.3389 13.1689 42.2442 12.8954C42.1496 12.622 42.1158 12.3325 42.1449 12.0458ZM45.5151 12.0458C45.5151 11.101 45.0718 10.5484 44.2936 10.5484C43.5126 10.5484 43.0732 11.101 43.0732 12.0458C43.0732 12.9982 43.5126 13.5465 44.2936 13.5465C45.0718 13.5465 45.5151 12.9944 45.5151 12.0458H45.5151Z" fill="#2C3953"/>
<path d="M52.1477 14.227H51.2155L50.2744 11.0167H50.2033L49.2662 14.227H48.343L47.0879 9.86816H47.9993L48.815 13.1942H48.8821L49.8182 9.86816H50.6803L51.6164 13.1942H51.6875L52.4992 9.86816H53.3978L52.1477 14.227Z" fill="#2C3953"/>
<path d="M54.4531 9.8687H55.3181V10.5611H55.3853C55.4992 10.3124 55.6913 10.104 55.9349 9.96476C56.1785 9.82555 56.4613 9.76256 56.744 9.78456C56.9656 9.76862 57.188 9.8006 57.3949 9.87813C57.6018 9.95566 57.7878 10.0768 57.9392 10.2325C58.0905 10.3882 58.2033 10.5745 58.2693 10.7776C58.3352 10.9807 58.3526 11.1954 58.32 11.4058V14.2275H57.4214V11.6218C57.4214 10.9213 57.1035 10.573 56.4389 10.573C56.2885 10.5663 56.1383 10.5908 55.9987 10.6448C55.8591 10.6989 55.7334 10.7812 55.6301 10.8861C55.5269 10.991 55.4485 11.116 55.4005 11.2526C55.3524 11.3893 55.3358 11.5342 55.3517 11.6776V14.2275H54.4531L54.4531 9.8687Z" fill="#2C3953"/>
<path d="M59.752 8.16699H60.6506V14.2274H59.752V8.16699Z" fill="#2C3953"/>
<path d="M61.9008 12.0459C61.8722 11.7594 61.9064 11.4704 62.0013 11.1973C62.0962 10.9243 62.2497 10.6732 62.4519 10.4603C62.6541 10.2473 62.9005 10.0772 63.1755 9.96075C63.4504 9.84432 63.7476 9.78418 64.0482 9.78418C64.3489 9.78418 64.6461 9.84432 64.921 9.96075C65.196 10.0772 65.4424 10.2473 65.6446 10.4603C65.8468 10.6732 66.0003 10.9243 66.0952 11.1973C66.1901 11.4704 66.2243 11.7594 66.1957 12.0459C66.2249 12.3326 66.191 12.622 66.0963 12.8955C66.0017 13.169 65.8483 13.4205 65.646 13.6339C65.4438 13.8472 65.1972 14.0177 64.922 14.1344C64.6468 14.2511 64.3492 14.3113 64.0482 14.3113C63.7473 14.3113 63.4497 14.2511 63.1745 14.1344C62.8993 14.0177 62.6527 13.8472 62.4504 13.6339C62.2482 13.4205 62.0948 13.169 62.0001 12.8955C61.9055 12.622 61.8716 12.3326 61.9008 12.0459ZM65.271 12.0459C65.271 11.101 64.8276 10.5485 64.0495 10.5485C63.2684 10.5485 62.829 11.101 62.829 12.0459C62.829 12.9983 63.2684 13.5466 64.0495 13.5466C64.8276 13.5466 65.271 12.9945 65.271 12.0459H65.271Z" fill="#2C3953"/>
<path d="M67.1406 12.9945C67.1406 12.2098 67.7509 11.7575 68.8341 11.6932L70.0675 11.6252V11.2489C70.0675 10.7886 69.7495 10.5286 69.1353 10.5286C68.6337 10.5286 68.2861 10.7049 68.1863 11.0131H67.3164C67.4082 10.2644 68.1439 9.78418 69.1768 9.78418C70.3183 9.78418 70.9621 10.3282 70.9621 11.2489V14.2271H70.0971V13.6146H70.026C69.8817 13.8343 69.679 14.0134 69.4388 14.1337C69.1985 14.2539 68.9292 14.3109 68.6584 14.299C68.4672 14.318 68.274 14.2985 68.0912 14.2417C67.9085 14.1848 67.7402 14.092 67.5972 13.9691C67.4542 13.8462 67.3397 13.6959 67.261 13.5281C67.1824 13.3602 67.1414 13.1784 67.1406 12.9945ZM70.0675 12.622V12.2576L68.9556 12.3256C68.3285 12.3658 68.0441 12.57 68.0441 12.9543C68.0441 13.3466 68.3996 13.5749 68.8885 13.5749C69.0317 13.5887 69.1764 13.5749 69.3139 13.5342C69.4514 13.4934 69.579 13.4266 69.689 13.3377C69.799 13.2488 69.8892 13.1396 69.9542 13.0167C70.0192 12.8937 70.0577 12.7595 70.0675 12.622Z" fill="#2C3953"/>
<path d="M72.1445 12.0461C72.1445 10.6688 72.8841 9.79625 74.0345 9.79625C74.3191 9.7837 74.6015 9.84895 74.8488 9.98436C75.096 10.1198 75.2979 10.3198 75.4308 10.561H75.498V8.16699H76.3966V14.2274H75.5355V13.5387H75.4644C75.3212 13.7783 75.1123 13.9758 74.8603 14.1099C74.6082 14.2439 74.3227 14.3094 74.0345 14.2992C72.8762 14.2993 72.1445 13.4267 72.1445 12.0461ZM73.0728 12.0461C73.0728 12.9706 73.528 13.5269 74.2893 13.5269C75.0467 13.5269 75.5148 12.9626 75.5148 12.0499C75.5148 11.1414 75.0418 10.569 74.2893 10.569C73.5329 10.569 73.0727 11.1291 73.0727 12.0461H73.0728Z" fill="#2C3953"/>
<path d="M80.1137 12.0458C80.085 11.7593 80.1193 11.4703 80.2142 11.1973C80.3091 10.9242 80.4625 10.6732 80.6647 10.4603C80.8669 10.2473 81.1133 10.0772 81.3882 9.96075C81.663 9.84432 81.9603 9.78418 82.2609 9.78418C82.5615 9.78418 82.8588 9.84432 83.1336 9.96075C83.4085 10.0772 83.655 10.2473 83.8571 10.4603C84.0593 10.6732 84.2128 10.9242 84.3077 11.1973C84.4025 11.4703 84.4368 11.7593 84.4081 12.0458C84.4373 12.3325 84.4035 12.622 84.3089 12.8954C84.2142 13.1689 84.0609 13.4204 83.8586 13.6338C83.6564 13.8471 83.4098 14.0176 83.1346 14.1343C82.8595 14.251 82.5619 14.3113 82.2609 14.3113C81.96 14.3113 81.6623 14.251 81.3872 14.1343C81.112 14.0176 80.8654 13.8471 80.6632 13.6338C80.461 13.4204 80.3076 13.1689 80.213 12.8954C80.1183 12.622 80.0845 12.3325 80.1137 12.0458ZM83.4839 12.0458C83.4839 11.101 83.0405 10.5484 82.2624 10.5484C81.4813 10.5484 81.0419 11.101 81.0419 12.0458C81.0419 12.9982 81.4813 13.5465 82.2624 13.5465C83.0405 13.5465 83.4839 12.9944 83.4839 12.0458Z" fill="#2C3953"/>
<path d="M85.6133 9.8687H86.4783V10.5611H86.5455C86.6594 10.3124 86.8515 10.104 87.0951 9.96476C87.3386 9.82555 87.6215 9.76256 87.9042 9.78456C88.1258 9.76862 88.3482 9.8006 88.5551 9.87813C88.762 9.95566 88.948 10.0768 89.0993 10.2325C89.2507 10.3882 89.3635 10.5745 89.4295 10.7776C89.4954 10.9807 89.5127 11.1954 89.4802 11.4058V14.2275H88.5816V11.6218C88.5816 10.9213 88.2637 10.573 87.5991 10.573C87.4487 10.5663 87.2985 10.5908 87.1589 10.6448C87.0193 10.6989 86.8936 10.7812 86.7903 10.8861C86.687 10.991 86.6087 11.116 86.5606 11.2526C86.5126 11.3893 86.4959 11.5342 86.5119 11.6776V14.2275H85.6133V9.8687Z" fill="#2C3953"/>
<path d="M94.558 8.7832V9.88827H95.5444V10.6129H94.558V12.8542C94.558 13.3108 94.7545 13.5107 95.2018 13.5107C95.3163 13.5104 95.4307 13.5037 95.5444 13.4909V14.2074C95.3831 14.235 95.2196 14.2497 95.0556 14.2514C94.0563 14.2514 93.6584 13.9148 93.6584 13.0744V10.6128H92.9355V9.88823H93.6584V8.7832H94.558Z" fill="#2C3953"/>
<path d="M96.7715 8.16699H97.6622V10.569H97.7333C97.8527 10.318 98.0501 10.1084 98.2986 9.96863C98.547 9.8289 98.8344 9.7659 99.1216 9.78821C99.342 9.77673 99.5623 9.81195 99.7668 9.89137C99.9714 9.97079 100.155 10.0924 100.305 10.2476C100.455 10.4029 100.567 10.5878 100.633 10.7893C100.7 10.9907 100.719 11.2038 100.69 11.4132V14.2274H99.7902V11.6254C99.7902 10.9292 99.4515 10.5766 98.8166 10.5766C98.6621 10.5645 98.5068 10.5848 98.3614 10.6361C98.216 10.6875 98.0841 10.7686 97.9749 10.8739C97.8657 10.9792 97.7818 11.106 97.7292 11.2455C97.6766 11.385 97.6564 11.5339 97.6701 11.6817V14.2274H96.7715L96.7715 8.16699Z" fill="#2C3953"/>
<path d="M105.93 13.0503C105.808 13.4487 105.543 13.7933 105.182 14.0238C104.822 14.2543 104.388 14.3561 103.957 14.3113C103.657 14.3189 103.359 14.2639 103.083 14.1502C102.808 14.0364 102.561 13.8666 102.361 13.6525C102.161 13.4385 102.012 13.1853 101.924 12.9105C101.837 12.6358 101.812 12.3461 101.853 12.0615C101.813 11.7761 101.838 11.4857 101.925 11.2102C102.013 10.9346 102.161 10.6802 102.36 10.4643C102.559 10.2484 102.805 10.0759 103.079 9.95857C103.354 9.84125 103.652 9.7818 103.953 9.78425C105.22 9.78425 105.984 10.6129 105.984 11.9816V12.2818H102.769V12.33C102.755 12.4899 102.776 12.651 102.83 12.8027C102.885 12.9544 102.972 13.0935 103.087 13.2111C103.201 13.3287 103.339 13.4221 103.493 13.4854C103.647 13.5487 103.814 13.5805 103.981 13.5787C104.196 13.6034 104.414 13.5664 104.607 13.4723C104.8 13.3782 104.959 13.2313 105.065 13.0503L105.93 13.0503ZM102.769 11.6456H105.069C105.08 11.4993 105.059 11.3523 105.008 11.2142C104.956 11.076 104.875 10.9497 104.769 10.8434C104.664 10.737 104.536 10.653 104.395 10.5967C104.253 10.5404 104.101 10.513 103.948 10.5164C103.792 10.5145 103.638 10.5425 103.494 10.5986C103.35 10.6546 103.219 10.7378 103.11 10.843C103 10.9482 102.913 11.0735 102.854 11.2113C102.796 11.3491 102.767 11.4968 102.769 11.6456H102.769Z" fill="#2C3953"/>
</g>
<defs>
<clipPath id="clip0">
<rect width="121" height="38.72" fill="white"/>
</clipPath>
</defs>
</svg>
