<svg width="10" height="13" viewBox="0 0 10 13" fill="none" xmlns="http://www.w3.org/2000/svg">
<mask id="path-1-inside-1" fill="white">
<path fill-rule="evenodd" clip-rule="evenodd" d="M0.000744637 6.46444C-0.0148099 5.98595 0.213753 5.51166 0.645901 5.23226L7.80581 0.60306C8.46329 0.177973 9.34303 0.364966 9.77076 1.02072C10.1985 1.67647 10.0123 2.55267 9.35479 2.97775L3.96198 6.46444L9.35479 9.95113C10.0123 10.3762 10.1985 11.2524 9.77076 11.9082C9.34303 12.5639 8.46329 12.7509 7.80581 12.3258L0.645901 7.69662C0.213753 7.41722 -0.0148099 6.94293 0.000744637 6.46444Z"/>
</mask>
<path d="M0.645901 5.23226L4.44653 11.1106L4.44653 11.1106L0.645901 5.23226ZM0.000744637 6.46444L6.99705 6.23701L7.00444 6.46444L6.99705 6.69188L0.000744637 6.46444ZM7.80581 0.60306L4.00519 -5.27531L4.00519 -5.27531L7.80581 0.60306ZM9.77076 1.02072L15.6337 -2.80361V-2.80361L9.77076 1.02072ZM9.35479 2.97775L13.1554 8.85612L13.1554 8.85612L9.35479 2.97775ZM3.96198 6.46444L0.161354 12.3428L-8.93063 6.46444L0.161355 0.58607L3.96198 6.46444ZM9.35479 9.95113L5.55416 15.8295L5.55416 15.8295L9.35479 9.95113ZM7.80581 12.3258L11.6064 6.44745L11.6064 6.44745L7.80581 12.3258ZM0.645901 7.69662L4.44653 1.81825L4.44653 1.81825L0.645901 7.69662ZM4.44653 11.1106C6.15725 10.0046 7.05815 8.11656 6.99705 6.23701L-6.99556 6.69188C-7.08777 3.85535 -5.72975 1.01875 -3.15472 -0.646111L4.44653 11.1106ZM11.6064 6.48143L4.44653 11.1106L-3.15473 -0.64611L4.00519 -5.27531L11.6064 6.48143ZM3.90778 4.84505C5.58614 7.41809 9.02664 8.14938 11.6064 6.48143L4.00519 -5.27531C7.89993 -7.79344 13.0999 -6.68816 15.6337 -2.80361L3.90778 4.84505ZM5.55416 -2.90062C2.95583 -1.22068 2.21738 2.25352 3.90778 4.84504L15.6337 -2.80361C18.1796 1.09942 17.0687 6.32601 13.1554 8.85612L5.55416 -2.90062ZM0.161355 0.58607L5.55416 -2.90062L13.1554 8.85612L7.76261 12.3428L0.161355 0.58607ZM7.76261 0.586071L13.1554 4.07276L5.55416 15.8295L0.161354 12.3428L7.76261 0.586071ZM13.1554 4.07276C17.0687 6.60287 18.1796 11.8295 15.6337 15.7325L3.90779 8.08384C2.21738 10.6754 2.95582 14.1496 5.55416 15.8295L13.1554 4.07276ZM15.6337 15.7325C13.0999 19.617 7.89993 20.7223 4.00519 18.2042L11.6064 6.44745C9.02664 4.7795 5.58614 5.5108 3.90779 8.08384L15.6337 15.7325ZM4.00519 18.2042L-3.15473 13.575L4.44653 1.81825L11.6064 6.44745L4.00519 18.2042ZM-3.15472 13.575C-5.72975 11.9101 -7.08777 9.07353 -6.99556 6.23701L6.99705 6.69188C7.05815 4.81232 6.15725 2.92431 4.44653 1.81825L-3.15472 13.575Z" fill="#0057FF" mask="url(#path-1-inside-1)"/>
</svg>
