<svg width="50" height="50" viewBox="0 0 50 50" fill="none" xmlns="http://www.w3.org/2000/svg">
<circle cx="25" cy="25" r="25" fill="white" fill-opacity="0.2"/>
<path d="M33.54 22L23.88 16.46C23.3573 16.1582 22.764 16.0001 22.1604 16.0017C21.5568 16.0034 20.9643 16.1648 20.4433 16.4695C19.9222 16.7742 19.4911 17.2114 19.1937 17.7366C18.8963 18.2619 18.7432 18.8565 18.75 19.46V30.58C18.75 31.4871 19.1103 32.357 19.7517 32.9983C20.393 33.6397 21.2629 34 22.17 34C22.7704 33.999 23.3601 33.8404 23.88 33.54L33.54 28C34.059 27.6996 34.49 27.268 34.7896 26.7485C35.0891 26.2289 35.2468 25.6397 35.2468 25.04C35.2468 24.4403 35.0891 23.8511 34.7896 23.3316C34.49 22.8121 34.059 22.3804 33.54 22.08V22ZM32.54 26.19L22.88 31.81C22.6635 31.9327 22.4188 31.9972 22.17 31.9972C21.9211 31.9972 21.6765 31.9327 21.46 31.81C21.2441 31.6854 21.0648 31.5061 20.9402 31.2902C20.8155 31.0743 20.7499 30.8293 20.75 30.58V19.42C20.7499 19.1707 20.8155 18.9258 20.9402 18.7099C21.0648 18.494 21.2441 18.3147 21.46 18.19C21.6774 18.0692 21.9213 18.0039 22.17 18C22.4185 18.0051 22.6621 18.0703 22.88 18.19L32.54 23.77C32.756 23.8946 32.9353 24.0739 33.06 24.2898C33.1847 24.5057 33.2504 24.7507 33.2504 25C33.2504 25.2494 33.1847 25.4943 33.06 25.7102C32.9353 25.9262 32.756 26.1054 32.54 26.23V26.19Z" fill="white"/>
</svg>
