<svg width="80" height="80" viewBox="0 0 80 80" fill="none" xmlns="http://www.w3.org/2000/svg">
<rect x="1" y="1" width="78" height="78" rx="19" stroke="#0057FF" stroke-width="2"/>
<path d="M53.2225 37.0132C52.7243 33.9847 51.1979 32.5099 50.0667 31.8161L49.897 31.79C49.897 31.79 47.5536 30.937 45.6059 35.3033C47.158 36.6066 47.4254 39.4824 46.822 41.8579C46.0337 44.9559 42.4891 46.7377 42.4891 46.7377L41.4565 45.6723L38.3599 53.3011H47.0302L45.9977 51.8579C45.9977 51.8579 49.4382 49.5217 50.9522 47.597C52.4657 45.6723 54.0484 42.0304 53.2225 37.0132Z" fill="#0057FF"/>
<path d="M33.681 44.6073C27.2815 36.4975 36.8463 32.2022 36.8463 32.2022L37.6716 33.4395L40.6997 25.7417H32.0289L33.1986 27.185C31.616 27.8379 29.3802 30.037 29.3802 30.037C29.3802 30.037 24.9076 34.5733 25.6294 41.0683C26.3521 47.5633 30.3086 48.0097 30.3086 48.0097L38.0841 47.8038C36.123 47.6663 33.681 44.6073 33.681 44.6073Z" fill="#0057FF"/>
<path d="M41.0431 31.2404C38.8418 31.4464 37.8093 34.6769 37.8093 34.6769C36.2227 39.8015 34.9978 42.522 34.3866 43.7238L34.2834 43.9382C35.6732 45.8988 37.1793 46.8622 38.8108 47.4007C39.9208 47.483 41.5596 43.199 41.5596 43.199C42.9474 39.5793 43.6361 37.9758 44.863 34.8488C45.0618 34.3482 46.0297 31.4148 48.1994 31.2222C46.7515 31.1758 42.8216 31.0738 41.0431 31.2404Z" fill="#0057FF"/>
</svg>
