<svg width="80" height="80" viewBox="0 0 80 80" fill="none" xmlns="http://www.w3.org/2000/svg">
<rect x="1" y="1" width="78" height="78" rx="19" fill="white" stroke="#0057FF" stroke-width="2"/>
<path d="M41.2581 53.5842C41.2581 53.8666 41.4961 54.0862 41.8021 54.0862H46.9021C47.2081 54.0862 47.4461 53.8666 47.4461 53.5842V51.043H41.2581V53.5842Z" fill="#0057FF"/>
<path d="M55.946 36.3608C55.776 36.1098 55.47 35.9216 55.13 35.8588C54.688 35.7961 54.246 35.9529 53.974 36.298L51.73 39.2157C51.798 39.2784 51.832 39.3412 51.866 39.4039C52.478 40.2196 52.41 41.3176 51.696 42.0706L51.56 42.2274C50.642 43.2 49.622 44.1098 48.568 44.9255L47.684 45.5843C47.378 45.8039 46.97 45.7725 46.732 45.4902C46.494 45.2078 46.528 44.8314 46.834 44.6118L47.718 43.9529C48.738 43.2 49.69 42.3216 50.574 41.4118L50.744 41.2549C51.05 40.9412 51.084 40.4706 50.812 40.1255C50.642 39.9059 50.438 39.7804 50.166 39.7176C49.894 39.6863 49.622 39.7176 49.418 39.8745L44.454 43.0431C43.91 43.3882 43.502 43.8902 43.332 44.4863L41.53 49.851H47.922L52.206 47.4353C52.954 47.0274 53.498 46.3372 53.702 45.5843L56.116 37.2706C56.184 36.9255 56.15 36.6118 55.946 36.3608Z" fill="#0057FF"/>
<path d="M36.668 44.4549C36.464 43.8902 36.09 43.3569 35.546 43.0118L30.65 39.8745C30.412 39.7176 30.174 39.6863 29.902 39.7176C29.63 39.749 29.392 39.9059 29.256 40.1255C28.984 40.4706 29.018 40.9412 29.324 41.2549L29.494 41.4118C30.344 42.3216 31.296 43.1686 32.35 43.9529L33.234 44.6118C33.37 44.7059 33.472 44.8627 33.472 45.0196C33.506 45.1765 33.438 45.3333 33.336 45.4902C33.234 45.6157 33.064 45.7098 32.894 45.7098C32.724 45.7412 32.554 45.6784 32.384 45.5843L31.5 44.9255C30.412 44.1098 29.392 43.2 28.508 42.2274L28.338 42.0706C27.624 41.3176 27.556 40.2196 28.168 39.4039C28.202 39.3412 28.27 39.2784 28.304 39.2157L26.06 36.298C25.788 35.9529 25.346 35.7961 24.904 35.8588C24.564 35.9216 24.292 36.0784 24.088 36.3608C23.918 36.6118 23.85 36.9255 23.952 37.2392L26.366 45.5529C26.604 46.3372 27.114 46.9961 27.862 47.4039L32.146 49.8196H38.538L36.668 44.4549Z" fill="#0057FF"/>
<path d="M32.52 53.5842C32.52 53.8666 32.758 54.0862 33.064 54.0862H38.164C38.47 54.0862 38.742 53.8666 38.742 53.5842V51.043H32.52V53.5842Z" fill="#0057FF"/>
<path d="M47.684 33.5686V29.3333C47.684 28.8627 47.31 28.4862 46.834 28.4235C43.502 27.9215 41.632 26.5098 40.748 25.5686C40.34 25.1607 39.66 25.1607 39.252 25.5686C38.334 26.5411 36.498 27.9215 33.166 28.4235C32.69 28.4862 32.316 28.8627 32.316 29.3333V33.6C32.316 38.3372 37.79 41.6627 39.524 42.5725C39.83 42.7294 40.204 42.7294 40.51 42.5725C42.21 41.6313 47.684 38.3058 47.684 33.5686ZM40 29.2392C40.68 29.2392 41.224 29.7725 41.19 30.4L40.952 34.698C40.918 35.1686 40.51 35.5451 40 35.5451C39.49 35.5451 39.048 35.1686 39.048 34.698L38.81 30.4C38.776 29.7725 39.32 29.2392 40 29.2392ZM40 38.8078C39.286 38.8078 38.742 38.2745 38.742 37.647C38.742 36.9882 39.32 36.4862 40 36.4862C40.714 36.4862 41.258 37.0196 41.258 37.647C41.258 38.2745 40.714 38.8078 40 38.8078Z" fill="#0057FF"/>
<path d="M40 29.2392C40.68 29.2392 41.224 29.7725 41.19 30.4L40.952 34.698C40.918 35.1686 40.51 35.5451 40 35.5451C39.49 35.5451 39.048 35.1686 39.048 34.698L38.81 30.4C38.776 29.7725 39.32 29.2392 40 29.2392Z" fill="#0057FF"/>
<path d="M40 38.8078C39.286 38.8078 38.742 38.2745 38.742 37.647C38.742 36.9882 39.32 36.4862 40 36.4862C40.714 36.4862 41.258 37.0196 41.258 37.647C41.258 38.2745 40.714 38.8078 40 38.8078Z" fill="#0057FF"/>
</svg>
