<svg width="80" height="80" viewBox="0 0 80 80" fill="none" xmlns="http://www.w3.org/2000/svg">
<rect x="1" y="1" width="78" height="78" rx="19" stroke="#0057FF" stroke-width="2"/>
<path d="M39.998 43.9715C39.146 43.9715 38.2939 43.8007 37.4734 43.5018L30.4044 40.6406V47.1744C30.4044 48.3701 30.9724 49.395 31.8245 49.7367L34.9172 50.9751C38.3254 52.3417 41.9231 52.3417 45.3314 50.9751L48.424 49.7367C49.2761 49.395 49.8442 48.3701 49.8442 47.1744V40.5552L42.5227 43.5018C41.7022 43.8434 40.8501 43.9715 39.998 43.9715Z" fill="#0057FF"/>
<path d="M54.3569 33.3808L41.8915 28.3843C40.6607 27.8719 39.3353 27.8719 38.073 28.3843L25.6391 33.3808C24.787 33.7224 24.787 35.3879 25.6391 35.7295L38.1045 40.726C39.3353 41.2384 40.6607 41.2384 41.923 40.726L52.5897 36.4555V40.2562C52.3688 40.427 52.211 40.726 52.211 41.0676V42.0925C52.211 42.4769 52.3688 42.8185 52.6213 42.9466L51.9585 45.0392C51.8639 45.3381 51.9901 45.637 52.2426 45.6797L52.9368 45.7651C53.0631 45.7651 53.2209 45.7651 53.3471 45.7651L54.0414 45.6797C54.2623 45.637 54.3885 45.3381 54.3254 45.0392L53.6627 42.9466C53.9151 42.7758 54.0729 42.4769 54.0729 42.0925V41.0676C54.0729 40.726 53.9151 40.427 53.6942 40.2562V36.0285L54.3885 35.7295C55.209 35.3452 55.209 33.7224 54.3569 33.3808Z" fill="#0057FF"/>
</svg>
