<svg width="80" height="80" viewBox="0 0 80 80" fill="none" xmlns="http://www.w3.org/2000/svg">
<rect x="1" y="1" width="78" height="78" rx="19" fill="white" stroke="#0057FF" stroke-width="2"/>
<path fill-rule="evenodd" clip-rule="evenodd" d="M31.8077 55.3333V24.6667C31.8077 24.2985 32.1176 24 32.5 24H37.6923C38.0747 24 38.3846 24.2985 38.3846 24.6667V55.3333C38.3846 55.7015 38.0747 56 37.6923 56H32.5C32.1176 56 31.8077 55.7015 31.8077 55.3333ZM22 55.3333V46C22 45.6318 22.31 45.3333 22.6923 45.3333H27.8846C28.267 45.3333 28.5769 45.6318 28.5769 46V55.3333C28.5769 55.7015 28.267 56 27.8846 56H22.6923C22.31 56 22 55.7015 22 55.3333ZM41.6154 55.3333V40.6667C41.6154 40.2985 41.9253 40 42.3077 40H47.5C47.8824 40 48.1923 40.2985 48.1923 40.6667V55.3333C48.1923 55.7015 47.8824 56 47.5 56H42.3077C41.9253 56 41.6154 55.7015 41.6154 55.3333ZM51.4231 55.3333V35.3333C51.4231 34.9651 51.733 34.6667 52.1154 34.6667H57.3077C57.69 34.6667 58 34.9651 58 35.3333V55.3333C58 55.7015 57.69 56 57.3077 56H52.1154C51.733 56 51.4231 55.7015 51.4231 55.3333Z" fill="#0057FF"/>
</svg>
