<svg width="24" height="32" viewBox="0 0 24 32" fill="none" xmlns="http://www.w3.org/2000/svg">
<path d="M19.8785 32C22.171 32 24 30.1992 24 27.9857V8.35274C24 7.69655 23.7535 7.07936 23.2728 6.61517L17.1756 0.719816C16.6949 0.255632 16.0648 0 15.3851 0H4.50324C2.01333 0 0 1.95568 0 4.35972V27.8131C0 30.1219 1.93333 32 4.32457 32H19.8785ZM21.5223 6.98851H17.749C17.2046 6.98851 16.7619 6.5611 16.7619 6.03549V2.39228L21.5223 6.98851ZM1.52381 27.8131V4.35972C1.52381 2.76671 2.85371 1.47126 4.50324 1.47126H15.2381V6.03549C15.2381 7.37214 16.3646 8.45977 17.749 8.45977H22.4762V27.9857C22.4762 29.3878 21.331 30.5287 19.8785 30.5287H4.32419C2.77333 30.5287 1.52381 29.3105 1.52381 27.8131Z" fill="#8C92B0"/>
</svg>
