<svg width="25" height="20" viewBox="0 0 25 20" fill="#0057FF" xmlns="http://www.w3.org/2000/svg">
<path fill-rule="evenodd" clip-rule="evenodd" d="M4.92232 19.4693V2.13083C4.92232 1.92266 5.07362 1.75391 5.26026 1.75391H7.79484C7.98149 1.75391 8.13279 1.92266 8.13279 2.13083V19.4693C8.13279 19.6775 7.98149 19.8463 7.79484 19.8463H5.26026C5.07362 19.8463 4.92232 19.6775 4.92232 19.4693ZM0.134766 19.4693V14.1924C0.134766 13.9842 0.286069 13.8155 0.47271 13.8155H3.0073C3.19394 13.8155 3.34524 13.9842 3.34524 14.1924V19.4693C3.34524 19.6775 3.19394 19.8463 3.0073 19.8463H0.47271C0.286069 19.8463 0.134766 19.6775 0.134766 19.4693ZM9.70986 19.4693V11.177C9.70986 10.9688 9.86117 10.8001 10.0478 10.8001H12.5824C12.769 10.8001 12.9203 10.9688 12.9203 11.177V19.4693C12.9203 19.6775 12.769 19.8463 12.5824 19.8463H10.0478C9.86117 19.8463 9.70986 19.6775 9.70986 19.4693ZM14.4974 19.4693V8.16161C14.4974 7.95344 14.6487 7.78469 14.8354 7.78469H17.3699C17.5566 7.78469 17.7079 7.95344 17.7079 8.16161V19.4693C17.7079 19.6775 17.5566 19.8463 17.3699 19.8463H14.8354C14.6487 19.8463 14.4974 19.6775 14.4974 19.4693Z" fill="#0057FF"/>
<path fill-rule="evenodd" clip-rule="evenodd" d="M4.92232 19.4693V2.13083C4.92232 1.92266 5.07362 1.75391 5.26026 1.75391H7.79484C7.98149 1.75391 8.13279 1.92266 8.13279 2.13083V19.4693C8.13279 19.6775 7.98149 19.8463 7.79484 19.8463H5.26026C5.07362 19.8463 4.92232 19.6775 4.92232 19.4693ZM0.134766 19.4693V14.1924C0.134766 13.9842 0.286069 13.8155 0.47271 13.8155H3.0073C3.19394 13.8155 3.34524 13.9842 3.34524 14.1924V19.4693C3.34524 19.6775 3.19394 19.8463 3.0073 19.8463H0.47271C0.286069 19.8463 0.134766 19.6775 0.134766 19.4693ZM9.70986 19.4693V11.177C9.70986 10.9688 9.86117 10.8001 10.0478 10.8001H12.5824C12.769 10.8001 12.9203 10.9688 12.9203 11.177V19.4693C12.9203 19.6775 12.769 19.8463 12.5824 19.8463H10.0478C9.86117 19.8463 9.70986 19.6775 9.70986 19.4693ZM14.4974 19.4693V8.16161C14.4974 7.95344 14.6487 7.78469 14.8354 7.78469H17.3699C17.5566 7.78469 17.7079 7.95344 17.7079 8.16161V19.4693C17.7079 19.6775 17.5566 19.8463 17.3699 19.8463H14.8354C14.6487 19.8463 14.4974 19.6775 14.4974 19.4693Z" fill="#0057FF"/>
<g clip-path="url(#clip0)">
<mask id="mask0" mask-type="alpha" maskUnits="userSpaceOnUse" x="10" y="3" width="11" height="13">
<ellipse cx="15.5124" cy="9.58133" rx="5.3347" ry="5.74197" fill="#0057FF"/>
</mask>
<g mask="url(#mask0)">
<path fill-rule="evenodd" clip-rule="evenodd" d="M4.92427 18.9823V0.855727C4.92427 0.638095 5.07557 0.46167 5.26221 0.46167H7.7968C7.98344 0.46167 8.13474 0.638095 8.13474 0.855727V18.9823C8.13474 19.2 7.98344 19.3764 7.7968 19.3764H5.26221C5.07557 19.3764 4.92427 19.2 4.92427 18.9823ZM0.136719 18.9823V13.4655C0.136719 13.2479 0.288022 13.0715 0.474663 13.0715H3.00925C3.19589 13.0715 3.34719 13.2479 3.34719 13.4655V18.9823C3.34719 19.2 3.19589 19.3764 3.00925 19.3764H0.474663C0.288022 19.3764 0.136719 19.2 0.136719 18.9823ZM9.71182 18.9823V10.3131C9.71182 10.0955 9.86312 9.91903 10.0498 9.91903H12.5843C12.771 9.91903 12.9223 10.0955 12.9223 10.3131V18.9823C12.9223 19.2 12.771 19.3764 12.5843 19.3764H10.0498C9.86312 19.3764 9.71182 19.2 9.71182 18.9823ZM14.4994 18.9823V7.16064C14.4994 6.943 14.6507 6.76658 14.8373 6.76658H17.3719C17.5585 6.76658 17.7098 6.943 17.7098 7.16064V18.9823C17.7098 19.2 17.5585 19.3764 17.3719 19.3764H14.8373C14.6507 19.3764 14.4994 19.2 14.4994 18.9823Z" fill="#0057FF"/>
<path fill-rule="evenodd" clip-rule="evenodd" d="M4.92427 18.9823V0.855727C4.92427 0.638095 5.07557 0.46167 5.26221 0.46167H7.7968C7.98344 0.46167 8.13474 0.638095 8.13474 0.855727V18.9823C8.13474 19.2 7.98344 19.3764 7.7968 19.3764H5.26221C5.07557 19.3764 4.92427 19.2 4.92427 18.9823ZM0.136719 18.9823V13.4655C0.136719 13.2479 0.288022 13.0715 0.474663 13.0715H3.00925C3.19589 13.0715 3.34719 13.2479 3.34719 13.4655V18.9823C3.34719 19.2 3.19589 19.3764 3.00925 19.3764H0.474663C0.288022 19.3764 0.136719 19.2 0.136719 18.9823ZM9.71182 18.9823V10.3131C9.71182 10.0955 9.86312 9.91903 10.0498 9.91903H12.5843C12.771 9.91903 12.9223 10.0955 12.9223 10.3131V18.9823C12.9223 19.2 12.771 19.3764 12.5843 19.3764H10.0498C9.86312 19.3764 9.71182 19.2 9.71182 18.9823ZM14.4994 18.9823V7.16064C14.4994 6.943 14.6507 6.76658 14.8373 6.76658H17.3719C17.5585 6.76658 17.7098 6.943 17.7098 7.16064V18.9823C17.7098 19.2 17.5585 19.3764 17.3719 19.3764H14.8373C14.6507 19.3764 14.4994 19.2 14.4994 18.9823Z" fill="#0057FF"/>
</g>
</g>
<path d="M23.9989 15.6012L23.991 15.5922L23.9826 15.5837L21.4981 13.0523C23.4813 10.166 23.1866 6.13478 20.7056 3.58412C19.3472 2.1876 17.5548 1.41553 15.628 1.41553C13.7033 1.41553 11.8855 2.18613 10.5256 3.58412C9.16696 4.98092 8.42188 6.81728 8.42188 8.80982C8.42188 10.8024 9.16696 12.6387 10.5256 14.0355L10.5256 14.0355L10.5291 14.0391C11.8837 15.4043 13.6732 16.2041 15.628 16.2041C17.1049 16.2041 18.5588 15.7314 19.7539 14.8665L22.1993 17.3805C22.4346 17.6224 22.7347 17.7617 23.0793 17.7617C23.3893 17.7617 23.7365 17.6454 23.9743 17.3648C24.444 16.8658 24.4385 16.0941 23.9989 15.6012ZM20.3439 8.80982C20.3439 10.1117 19.847 11.3367 18.95 12.2358C18.0406 13.1473 16.873 13.6721 15.628 13.6721C14.3742 13.6721 13.189 13.1666 12.3149 12.2448C11.428 11.3097 10.9121 10.1029 10.9121 8.80982C10.9121 7.50793 11.4091 6.28293 12.306 5.38387C13.2164 4.47132 14.3595 3.94759 15.628 3.94759C16.8818 3.94759 18.067 4.45305 18.9412 5.3748C19.829 6.31087 20.3439 7.49248 20.3439 8.80982Z" fill="#0057FF" stroke="#0057FF"/>
<defs>
<clipPath id="clip0">
<rect width="11.297" height="14.8616" fill="#0057FF" transform="translate(10.1777 0.46167)"/>
</clipPath>
</defs>
</svg>
