<svg width="27" height="18" viewBox="0 0 27 18" fill="none" xmlns="http://www.w3.org/2000/svg">
<path d="M7.76109 3.34308C7.76109 3.93069 7.28246 4.41146 6.69747 4.41146H2.0441C1.4591 4.41146 0.980469 3.93069 0.980469 3.34308C0.980469 2.75547 1.4591 2.27469 2.0441 2.27469H6.72406C7.30905 2.3014 7.76109 2.75547 7.76109 3.34308ZM7.76109 7.58989C7.76109 7.00228 7.28246 6.52151 6.69747 6.52151H2.0441C1.4591 6.52151 0.980469 7.00228 0.980469 7.58989C0.980469 8.1775 1.4591 8.65827 2.0441 8.65827H6.72406C7.30905 8.65827 7.76109 8.1775 7.76109 7.58989ZM6.72406 10.7683H2.0441C1.4591 10.7683 0.980469 11.2491 0.980469 11.8367C0.980469 12.4243 1.4591 12.9051 2.0441 12.9051H6.72406C7.30905 12.9051 7.78769 12.4243 7.78769 11.8367C7.76109 11.2491 7.30905 10.7683 6.72406 10.7683ZM26.8266 2.8623V12.3175C26.8266 13.5995 25.7896 14.6412 24.5132 14.6412H18.1581C18.1581 14.6412 18.1581 14.6679 18.1315 14.6679L15.1799 17.6327C14.8874 17.9265 14.3822 17.7128 14.3822 17.3122V14.6412H12.0422C10.7658 14.6412 9.72881 13.5995 9.72881 12.3175V2.8623C9.72881 1.58025 10.7658 0.538574 12.0422 0.538574H24.5398C25.7896 0.538574 26.8266 1.58025 26.8266 2.8623ZM17.4135 4.01081L17.5465 9.03221C17.5465 9.16575 17.6528 9.24588 17.7592 9.24588H18.7696C18.9026 9.24588 18.9824 9.13904 18.9824 9.03221L19.1153 4.01081C19.1153 3.87727 19.009 3.74372 18.8494 3.74372H17.6262C17.5199 3.77043 17.4135 3.87727 17.4135 4.01081ZM19.1419 10.3944C19.1419 10.1807 18.9824 10.0205 18.7696 10.0205H17.7858C17.5731 10.0205 17.4135 10.1807 17.4135 10.3944V11.0354C17.4135 11.2491 17.5731 11.4094 17.7858 11.4094H18.7696C18.9824 11.4094 19.1419 11.2491 19.1419 11.0354V10.3944Z" fill="#0057FF"/>
</svg>
