<svg width="24" height="20" viewBox="0 0 24 20" fill="none" xmlns="http://www.w3.org/2000/svg">
<path d="M21.8465 1.59009H1.63486C1.28809 1.59009 1.01562 1.86 1.01562 2.20353V18.3492C1.01562 18.6927 1.28809 18.9626 1.63486 18.9626H21.8713C22.2181 18.9626 22.4905 18.6927 22.4905 18.3492V2.20353C22.4658 1.86 22.1933 1.59009 21.8465 1.59009ZM19.3201 2.71881C19.8155 2.47344 20.4347 2.69427 20.6824 3.18502C20.9301 3.67577 20.7072 4.28921 20.2118 4.53459C19.7164 4.77996 19.0972 4.55912 18.8495 4.06837C18.6265 3.55309 18.8247 2.93965 19.3201 2.71881ZM16.001 2.71881C16.4964 2.47344 17.1156 2.69427 17.3633 3.18502C17.611 3.67577 17.3881 4.28921 16.8927 4.53459C16.3973 4.77996 15.7781 4.55912 15.5304 4.06837C15.2827 3.55309 15.4809 2.93965 16.001 2.71881ZM12.6572 2.71881C13.1525 2.47344 13.7718 2.69427 14.0195 3.18502C14.2672 3.67577 14.0442 4.28921 13.5489 4.53459C13.0535 4.77996 12.4342 4.55912 12.1865 4.06837C11.9389 3.55309 12.1618 2.93965 12.6572 2.71881ZM21.2273 17.7358H2.25409V5.88415H21.2521V17.7358H21.2273Z" fill="#0057FF"/>
<path d="M8.42197 10.9143H5.62305V16.9996H8.42197V10.9143Z" fill="#0057FF"/>
<path d="M13.129 8.97583H10.3301V16.9751H13.129V8.97583Z" fill="#0057FF"/>
<path d="M17.8595 6.71851H15.0605V16.9752H17.8595V6.71851Z" fill="#0057FF"/>
</svg>
