<svg width="21" height="20" viewBox="0 0 21 20" fill="none" xmlns="http://www.w3.org/2000/svg">
<path d="M8.88296 5.30784V4.50015H12.1137V5.30784H13.7291V4.50015C13.7287 4.07185 13.5584 3.66122 13.2555 3.35837C12.9527 3.05552 12.542 2.88519 12.1137 2.88477H8.88296C8.45467 2.88519 8.04404 3.05552 7.74119 3.35837C7.43834 3.66122 7.26801 4.07185 7.26758 4.50015V5.30784H8.88296Z" fill="#0057FF"/>
<path d="M8.07527 12.577C7.86106 12.577 7.65562 12.4919 7.50415 12.3404C7.35267 12.1889 7.26758 11.9835 7.26758 11.7693V10.1539C7.26758 9.93967 7.35267 9.73423 7.50415 9.58276C7.65562 9.43129 7.86106 9.34619 8.07527 9.34619C8.28948 9.34619 8.49492 9.43129 8.64639 9.58276C8.79787 9.73423 8.88296 9.93967 8.88296 10.1539V11.7693C8.88296 11.9835 8.79787 12.1889 8.64639 12.3404C8.49492 12.4919 8.28948 12.577 8.07527 12.577ZM12.9214 12.577C12.7072 12.577 12.5018 12.4919 12.3503 12.3404C12.1988 12.1889 12.1137 11.9835 12.1137 11.7693V10.1539C12.1137 9.93967 12.1988 9.73423 12.3503 9.58276C12.5018 9.43129 12.7072 9.34619 12.9214 9.34619C13.1356 9.34619 13.3411 9.43129 13.4925 9.58276C13.644 9.73423 13.7291 9.93967 13.7291 10.1539V11.7693C13.7291 11.9835 13.644 12.1889 13.4925 12.3404C13.3411 12.4919 13.1356 12.577 12.9214 12.577Z" fill="#0057FF"/>
<path d="M16.9603 5.30786H4.03726C3.60883 5.30786 3.19795 5.47805 2.89501 5.781C2.59207 6.08394 2.42188 6.49482 2.42188 6.92325V9.34632C2.42188 9.77475 2.59207 10.1856 2.89501 10.4886C3.19795 10.7915 3.60883 10.9617 4.03726 10.9617H7.26803V10.154C7.26803 9.9398 7.35312 9.73436 7.5046 9.58289C7.65607 9.43142 7.86151 9.34632 8.07572 9.34632C8.28993 9.34632 8.49537 9.43142 8.64685 9.58289C8.79832 9.73436 8.88341 9.9398 8.88341 10.154V10.9617H12.1142V10.154C12.1142 9.9398 12.1993 9.73436 12.3507 9.58289C12.5022 9.43142 12.7077 9.34632 12.9219 9.34632C13.1361 9.34632 13.3415 9.43142 13.493 9.58289C13.6445 9.73436 13.7296 9.9398 13.7296 10.154V10.9617H16.9603C17.3888 10.9617 17.7996 10.7915 18.1026 10.4886C18.4055 10.1856 18.5757 9.77475 18.5757 9.34632V6.92325C18.5757 6.49482 18.4055 6.08394 18.1026 5.781C17.7996 5.47805 17.3888 5.30786 16.9603 5.30786Z" fill="#0057FF"/>
<path d="M16.9603 10.9616H13.7296V11.7693C13.7296 11.9835 13.6445 12.1889 13.493 12.3404C13.3415 12.4919 13.1361 12.577 12.9219 12.577C12.7077 12.577 12.5022 12.4919 12.3507 12.3404C12.1993 12.1889 12.1142 11.9835 12.1142 11.7693V10.9616H8.88341V11.7693C8.88341 11.9835 8.79832 12.1889 8.64685 12.3404C8.49537 12.4919 8.28993 12.577 8.07572 12.577C7.86151 12.577 7.65607 12.4919 7.5046 12.3404C7.35312 12.1889 7.26803 11.9835 7.26803 11.7693V10.9616H4.03726C3.60883 10.9616 3.19795 10.7914 2.89501 10.4884C2.59207 10.1855 2.42188 9.77462 2.42188 9.34619V15.8077C2.42188 16.2362 2.59207 16.647 2.89501 16.95C3.19795 17.2529 3.60883 17.4231 4.03726 17.4231H16.9603C17.3888 17.4231 17.7996 17.2529 18.1026 16.95C18.4055 16.647 18.5757 16.2362 18.5757 15.8077V9.34619C18.5757 9.77462 18.4055 10.1855 18.1026 10.4884C17.7996 10.7914 17.3888 10.9616 16.9603 10.9616Z" fill="#0057FF"/>
</svg>
