<svg width="20" height="21" viewBox="0 0 20 21" fill="none" xmlns="http://www.w3.org/2000/svg">
<path d="M4.44201 15.0845H1.71605C1.45859 15.0845 1.26172 15.2945 1.26172 15.5691V20.4152C1.26172 20.6899 1.45859 20.8999 1.71605 20.8999H4.44201C4.69946 20.8999 4.89633 20.6899 4.89633 20.4152V15.5691C4.89633 15.2945 4.69946 15.0845 4.44201 15.0845ZM3.98768 19.9306H2.17037V16.0537H3.98768V19.9306Z" fill="#0057FF"/>
<path d="M3.98768 19.9306H2.17037V16.0537H3.98768V19.9306Z" fill="#0057FF"/>
<path d="M9.28771 10.2385H6.56175C6.3043 10.2385 6.10742 10.4485 6.10742 10.7231V20.4154C6.10742 20.6901 6.3043 20.9001 6.56175 20.9001H9.28771C9.54516 20.9001 9.74204 20.6901 9.74204 20.4154V10.7231C9.74204 10.4485 9.54516 10.2385 9.28771 10.2385ZM8.83338 19.9308H7.01608V11.2078H8.83338V19.9308Z" fill="#0057FF"/>
<path d="M8.83338 19.9308H7.01608V11.2078H8.83338V19.9308Z" fill="#0057FF"/>
<path d="M14.1334 13.4692H11.4075C11.15 13.4692 10.9531 13.6792 10.9531 13.9539V20.4154C10.9531 20.69 11.15 20.9 11.4075 20.9H14.1334C14.3909 20.9 14.5877 20.69 14.5877 20.4154V13.9539C14.5877 13.6792 14.3909 13.4692 14.1334 13.4692ZM13.6791 19.9308H11.8618V14.4385H13.6791V19.9308Z" fill="#0057FF"/>
<path d="M13.6791 19.9308H11.8618V14.4385H13.6791V19.9308Z" fill="#0057FF"/>
<path d="M18.9791 8.62305H16.2532C15.9957 8.62305 15.7988 8.83305 15.7988 9.10766V20.4154C15.7988 20.69 15.9957 20.9 16.2532 20.9H18.9791C19.2366 20.9 19.4334 20.69 19.4334 20.4154V9.10766C19.4334 8.83305 19.2366 8.62305 18.9791 8.62305Z" fill="#0057FF"/>
<path d="M18.8038 0.416196C18.7547 0.400359 18.6893 0.384521 18.6239 0.384521H18.6076H16.973C16.6951 0.384521 16.4826 0.590404 16.4826 0.859635C16.4826 1.12887 16.6951 1.33475 16.973 1.33475H17.4307L11.922 6.68769L7.03452 1.95239C6.83837 1.76235 6.52779 1.76235 6.34799 1.95239L0.953756 7.11529C0.757602 7.30534 0.757602 7.60624 0.953756 7.78045C1.05183 7.87547 1.1826 7.92298 1.29703 7.92298C1.42779 7.92298 1.54222 7.87547 1.64029 7.78045L6.69126 2.95013L11.5788 7.68543C11.7749 7.87547 12.0855 7.87547 12.2653 7.68543L18.1336 1.99991V2.44334C18.1336 2.71258 18.3461 2.91846 18.6239 2.91846C18.9018 2.91846 19.1143 2.71258 19.1143 2.44334V0.859635C19.1143 0.669589 18.9999 0.495381 18.8038 0.416196Z" fill="#0057FF"/>
</svg>
