<svg width="18" height="18" viewBox="0 0 18 18" fill="none" xmlns="http://www.w3.org/2000/svg">
<path opacity="0.5" d="M15.75 6H9.75C9.55109 6 9.36032 5.92098 9.21967 5.78033C9.07902 5.63968 9 5.44891 9 5.25C9 5.05109 9.07902 4.86032 9.21967 4.71967C9.36032 4.57902 9.55109 4.5 9.75 4.5H15.75C15.9489 4.5 16.1397 4.57902 16.2803 4.71967C16.421 4.86032 16.5 5.05109 16.5 5.25C16.5 5.44891 16.421 5.63968 16.2803 5.78033C16.1397 5.92098 15.9489 6 15.75 6ZM15.75 9H9.75C9.55109 9 9.36032 8.92098 9.21967 8.78033C9.07902 8.63968 9 8.44891 9 8.25C9 8.05109 9.07902 7.86032 9.21967 7.71967C9.36032 7.57902 9.55109 7.5 9.75 7.5H15.75C15.9489 7.5 16.1397 7.57902 16.2803 7.71967C16.421 7.86032 16.5 8.05109 16.5 8.25C16.5 8.44891 16.421 8.63968 16.2803 8.78033C16.1397 8.92098 15.9489 9 15.75 9Z" fill="white"/>
<path d="M6.75 3H2.25C1.83579 3 1.5 3.33579 1.5 3.75V8.25C1.5 8.66421 1.83579 9 2.25 9H6.75C7.16421 9 7.5 8.66421 7.5 8.25V3.75C7.5 3.33579 7.16421 3 6.75 3Z" fill="white"/>
<path opacity="0.5" d="M15.75 12H2.25C2.05109 12 1.86032 11.921 1.71967 11.7803C1.57902 11.6397 1.5 11.4489 1.5 11.25C1.5 11.0511 1.57902 10.8603 1.71967 10.7197C1.86032 10.579 2.05109 10.5 2.25 10.5H15.75C15.9489 10.5 16.1397 10.579 16.2803 10.7197C16.421 10.8603 16.5 11.0511 16.5 11.25C16.5 11.4489 16.421 11.6397 16.2803 11.7803C16.1397 11.921 15.9489 12 15.75 12ZM9.75 15H2.25C2.05109 15 1.86032 14.921 1.71967 14.7803C1.57902 14.6397 1.5 14.4489 1.5 14.25C1.5 14.0511 1.57902 13.8603 1.71967 13.7197C1.86032 13.579 2.05109 13.5 2.25 13.5H9.75C9.94891 13.5 10.1397 13.579 10.2803 13.7197C10.421 13.8603 10.5 14.0511 10.5 14.25C10.5 14.4489 10.421 14.6397 10.2803 14.7803C10.1397 14.921 9.94891 15 9.75 15Z" fill="white"/>
</svg>
