<svg width="14" height="14" viewBox="0 0 14 14" fill="none" xmlns="http://www.w3.org/2000/svg">
<path d="M7 0C3.13413 0 0 3.13413 0 7C0 10.8659 3.13413 14 7 14C10.8659 14 14 10.8659 14 7C14 3.13413 10.8659 0 7 0ZM6.19111 10.0215V6.81707C6.19111 6.60254 6.27633 6.39679 6.42803 6.2451C6.57973 6.0934 6.78547 6.00818 7 6.00818C7.21453 6.00818 7.42028 6.0934 7.57197 6.2451C7.72367 6.39679 7.80889 6.60254 7.80889 6.81707V10.0215C7.80889 10.236 7.72367 10.4418 7.57197 10.5935C7.42028 10.7452 7.21453 10.8304 7 10.8304C6.78547 10.8304 6.57973 10.7452 6.42803 10.5935C6.27633 10.4418 6.19111 10.236 6.19111 10.0215ZM7 5.12556C6.80771 5.12556 6.61974 5.06854 6.45986 4.96171C6.29998 4.85488 6.17537 4.70304 6.10178 4.52539C6.0282 4.34774 6.00895 4.15226 6.04646 3.96366C6.08397 3.77507 6.17657 3.60184 6.31254 3.46587C6.4485 3.3299 6.62174 3.23731 6.81033 3.19979C6.99892 3.16228 7.1944 3.18153 7.37205 3.25512C7.5497 3.3287 7.70154 3.45331 7.80837 3.6132C7.9152 3.77308 7.97222 3.96105 7.97222 4.15333C7.97222 4.41118 7.86979 4.65847 7.68747 4.8408C7.50514 5.02313 7.25785 5.12556 7 5.12556Z" fill="#A0C7FF"/>
<path d="M6.19117 10.0215V6.81706C6.19117 6.60253 6.27639 6.39679 6.42808 6.24509C6.57978 6.0934 6.78552 6.00817 7.00005 6.00817C7.21458 6.00817 7.42033 6.0934 7.57203 6.24509C7.72372 6.39679 7.80894 6.60253 7.80894 6.81706V10.0215C7.80894 10.236 7.72372 10.4418 7.57203 10.5935C7.42033 10.7452 7.21458 10.8304 7.00005 10.8304C6.78552 10.8304 6.57978 10.7452 6.42808 10.5935C6.27639 10.4418 6.19117 10.236 6.19117 10.0215ZM7.00005 5.12555C6.80777 5.12555 6.6198 5.06853 6.45992 4.9617C6.30004 4.85487 6.17542 4.70303 6.10184 4.52538C6.02825 4.34773 6.009 4.15225 6.04651 3.96366C6.08403 3.77507 6.17662 3.60183 6.31259 3.46586C6.44856 3.3299 6.62179 3.2373 6.81038 3.19979C6.99898 3.16227 7.19446 3.18153 7.37211 3.25511C7.54976 3.3287 7.7016 3.45331 7.80843 3.61319C7.91526 3.77307 7.97228 3.96104 7.97228 4.15333C7.97228 4.41118 7.86985 4.65847 7.68752 4.84079C7.50519 5.02312 7.2579 5.12555 7.00005 5.12555Z" fill="white"/>
<path d="M7.00005 5.12555C6.80777 5.12555 6.6198 5.06853 6.45992 4.9617C6.30004 4.85487 6.17542 4.70303 6.10184 4.52538C6.02825 4.34773 6.009 4.15225 6.04651 3.96366C6.08403 3.77507 6.17662 3.60183 6.31259 3.46586C6.44856 3.3299 6.62179 3.2373 6.81038 3.19979C6.99898 3.16227 7.19446 3.18153 7.37211 3.25511C7.54976 3.3287 7.7016 3.45331 7.80843 3.61319C7.91526 3.77307 7.97228 3.96104 7.97228 4.15333C7.97228 4.41118 7.86985 4.65847 7.68752 4.84079C7.50519 5.02312 7.2579 5.12555 7.00005 5.12555Z" fill="white"/>
<path d="M6.19117 10.0215V6.81706C6.19117 6.60253 6.27639 6.39679 6.42808 6.24509C6.57978 6.0934 6.78552 6.00817 7.00005 6.00817C7.21458 6.00817 7.42033 6.0934 7.57203 6.24509C7.72372 6.39679 7.80894 6.60253 7.80894 6.81706V10.0215C7.80894 10.236 7.72372 10.4418 7.57203 10.5935C7.42033 10.7452 7.21458 10.8304 7.00005 10.8304C6.78552 10.8304 6.57978 10.7452 6.42808 10.5935C6.27639 10.4418 6.19117 10.236 6.19117 10.0215Z" fill="white"/>
</svg>
