<svg width="77" height="74" viewBox="0 0 77 74" fill="none" xmlns="http://www.w3.org/2000/svg">
<ellipse opacity="0.2" cx="38.6253" cy="36.6359" rx="37.7808" ry="36.6359" fill="#FF4F4F"/>
<ellipse cx="38.6272" cy="36.6359" rx="26.9863" ry="26.1685" fill="#FF4F4F"/>
<path d="M46.7659 33.4958L36.3384 27.6969C35.7741 27.381 35.1337 27.2154 34.4821 27.2172C33.8306 27.2189 33.1911 27.3878 32.6286 27.7068C32.0662 28.0257 31.6008 28.4833 31.2798 29.0331C30.9587 29.5829 30.7935 30.2053 30.8008 30.8371V42.4769C30.8008 43.4263 31.1897 44.3369 31.882 45.0082C32.5744 45.6796 33.5134 46.0567 34.4925 46.0567C35.1406 46.0557 35.7771 45.8896 36.3384 45.5752L46.7659 39.7763C47.3262 39.4618 47.7913 39.01 48.1147 38.4662C48.4381 37.9224 48.6083 37.3057 48.6083 36.6779C48.6083 36.0502 48.4381 35.4335 48.1147 34.8897C47.7913 34.3458 47.3262 33.894 46.7659 33.5796V33.4958ZM45.6864 37.8817L35.2589 43.7644C35.0252 43.8928 34.7611 43.9603 34.4925 43.9603C34.2239 43.9603 33.9598 43.8928 33.7261 43.7644C33.493 43.6339 33.2995 43.4462 33.165 43.2202C33.0304 42.9942 32.9596 42.7378 32.9597 42.4769V30.7953C32.9596 30.5343 33.0304 30.2779 33.165 30.0519C33.2995 29.8259 33.493 29.6382 33.7261 29.5078C33.9608 29.3813 34.224 29.313 34.4925 29.3089C34.7608 29.3142 35.0237 29.3825 35.2589 29.5078L45.6864 35.3486C45.9195 35.479 46.1132 35.6667 46.2478 35.8927C46.3824 36.1187 46.4533 36.3751 46.4533 36.6361C46.4533 36.8971 46.3824 37.1535 46.2478 37.3795C46.1132 37.6055 45.9195 37.7931 45.6864 37.9236V37.8817Z" fill="white"/>
</svg>
