<svg width="18" height="18" viewBox="0 0 18 18" fill="none" xmlns="http://www.w3.org/2000/svg">
<path d="M15.54 6.00003L5.87997 0.460026C5.35725 0.158186 4.76397 6.39946e-05 4.16036 0.00172189C3.55676 0.00337978 2.96435 0.164758 2.4433 0.469465C1.92225 0.774173 1.49112 1.21135 1.19372 1.7366C0.896306 2.26185 0.743208 2.85646 0.749971 3.46003V14.58C0.749971 15.4871 1.11029 16.357 1.75167 16.9983C2.39304 17.6397 3.26293 18 4.16997 18C4.77041 17.999 5.36006 17.8404 5.87997 17.54L15.54 12C16.059 11.6996 16.49 11.268 16.7896 10.7485C17.0891 10.2289 17.2468 9.63975 17.2468 9.04003C17.2468 8.4403 17.0891 7.85112 16.7896 7.33159C16.49 6.81206 16.059 6.38044 15.54 6.08003V6.00003ZM14.54 10.19L4.87997 15.81C4.66346 15.9327 4.41884 15.9972 4.16997 15.9972C3.9211 15.9972 3.67648 15.9327 3.45997 15.81C3.24407 15.6854 3.06479 15.5061 2.94015 15.2902C2.81552 15.0743 2.74993 14.8293 2.74997 14.58V3.42003C2.74993 3.17072 2.81552 2.9258 2.94015 2.70989C3.06479 2.49397 3.24407 2.31468 3.45997 2.19003C3.67738 2.06918 3.92127 2.00392 4.16997 2.00003C4.4185 2.00513 4.66211 2.07032 4.87997 2.19003L14.54 7.77003C14.756 7.89462 14.9353 8.0739 15.06 8.28981C15.1847 8.50573 15.2504 8.75068 15.2504 9.00003C15.2504 9.24937 15.1847 9.49432 15.06 9.71024C14.9353 9.92616 14.756 10.1054 14.54 10.23V10.19Z" fill="white"/>
</svg>
