<svg width="100" height="100" viewBox="0 0 100 100" fill="none" xmlns="http://www.w3.org/2000/svg">
<circle opacity="0.2" cx="50" cy="50" r="50" fill="#FF4F4F"/>
<circle cx="50.0004" cy="50.0001" r="35.7143" fill="#FF4F4F"/>
<path d="M60.7715 45.7147L46.9715 37.8004C46.2247 37.3692 45.3772 37.1433 44.5149 37.1456C43.6526 37.148 42.8063 37.3786 42.0619 37.8139C41.3176 38.2491 40.7017 38.8737 40.2768 39.6241C39.8519 40.3744 39.6332 41.2238 39.6429 42.0861V57.9718C39.6429 59.2676 40.1576 60.5103 41.0739 61.4265C41.9901 62.3428 43.2328 62.8575 44.5286 62.8575C45.3864 62.8561 46.2287 62.6295 46.9715 62.2004L60.7715 54.2861C61.513 53.8569 62.1286 53.2403 62.5566 52.4981C62.9846 51.7559 63.2098 50.9143 63.2098 50.0575C63.2098 49.2008 62.9846 48.3591 62.5566 47.6169C62.1286 46.8747 61.513 46.2581 60.7715 45.8289V45.7147ZM59.3429 51.7004L45.5429 59.7289C45.2336 59.9042 44.8841 59.9964 44.5286 59.9964C44.1731 59.9964 43.8236 59.9042 43.5143 59.7289C43.2059 59.5509 42.9498 59.2947 42.7717 58.9863C42.5937 58.6778 42.5 58.3279 42.5 57.9718V42.0289C42.5 41.6728 42.5937 41.3229 42.7717 41.0145C42.9498 40.706 43.2059 40.4499 43.5143 40.2718C43.8249 40.0992 44.1733 40.0059 44.5286 40.0004C44.8836 40.0077 45.2316 40.1008 45.5429 40.2718L59.3429 48.2432C59.6514 48.4212 59.9077 48.6773 60.0858 48.9858C60.264 49.2942 60.3578 49.6442 60.3578 50.0004C60.3578 50.3566 60.264 50.7065 60.0858 51.015C59.9077 51.3234 59.6514 51.5795 59.3429 51.7575V51.7004Z" fill="white"/>
</svg>
