<svg width="20" height="20" viewBox="0 0 20 20" fill="none" xmlns="http://www.w3.org/2000/svg">
<path d="M8.33329 5V4.16667H11.6666V5H13.3333V4.16667C13.3329 3.72477 13.1571 3.30111 12.8447 2.98864C12.5322 2.67618 12.1085 2.50044 11.6666 2.5H8.33329C7.8914 2.50044 7.46773 2.67618 7.15527 2.98864C6.8428 3.30111 6.66707 3.72477 6.66663 4.16667V5H8.33329Z" fill="#0057FF"/>
<path d="M7.49996 12.5C7.27895 12.5 7.06698 12.4122 6.9107 12.2559C6.75442 12.0996 6.66663 11.8876 6.66663 11.6666V9.99996C6.66663 9.77895 6.75442 9.56698 6.9107 9.4107C7.06698 9.25442 7.27895 9.16663 7.49996 9.16663C7.72097 9.16663 7.93293 9.25442 8.08921 9.4107C8.2455 9.56698 8.33329 9.77895 8.33329 9.99996V11.6666C8.33329 11.8876 8.2455 12.0996 8.08921 12.2559C7.93293 12.4122 7.72097 12.5 7.49996 12.5ZM12.5 12.5C12.2789 12.5 12.067 12.4122 11.9107 12.2559C11.7544 12.0996 11.6666 11.8876 11.6666 11.6666V9.99996C11.6666 9.77895 11.7544 9.56698 11.9107 9.4107C12.067 9.25442 12.2789 9.16663 12.5 9.16663C12.721 9.16663 12.9329 9.25442 13.0892 9.4107C13.2455 9.56698 13.3333 9.77895 13.3333 9.99996V11.6666C13.3333 11.8876 13.2455 12.0996 13.0892 12.2559C12.9329 12.4122 12.721 12.5 12.5 12.5Z" fill="#0057FF"/>
<path d="M16.6666 5H3.33329C2.89127 5 2.46734 5.17559 2.15478 5.48816C1.84222 5.80072 1.66663 6.22464 1.66663 6.66667V9.16667C1.66663 9.60869 1.84222 10.0326 2.15478 10.3452C2.46734 10.6577 2.89127 10.8333 3.33329 10.8333H6.66663V10C6.66663 9.77899 6.75442 9.56703 6.9107 9.41075C7.06698 9.25446 7.27895 9.16667 7.49996 9.16667C7.72097 9.16667 7.93293 9.25446 8.08922 9.41075C8.2455 9.56703 8.33329 9.77899 8.33329 10V10.8333H11.6666V10C11.6666 9.77899 11.7544 9.56703 11.9107 9.41075C12.067 9.25446 12.2789 9.16667 12.5 9.16667C12.721 9.16667 12.9329 9.25446 13.0892 9.41075C13.2455 9.56703 13.3333 9.77899 13.3333 10V10.8333H16.6666C17.1087 10.8333 17.5326 10.6577 17.8451 10.3452C18.1577 10.0326 18.3333 9.60869 18.3333 9.16667V6.66667C18.3333 6.22464 18.1577 5.80072 17.8451 5.48816C17.5326 5.17559 17.1087 5 16.6666 5Z" fill="#0057FF"/>
<path d="M16.6666 10.8333H13.3333V11.6666C13.3333 11.8876 13.2455 12.0996 13.0892 12.2559C12.9329 12.4122 12.721 12.5 12.5 12.5C12.2789 12.5 12.067 12.4122 11.9107 12.2559C11.7544 12.0996 11.6666 11.8876 11.6666 11.6666V10.8333H8.33329V11.6666C8.33329 11.8876 8.2455 12.0996 8.08922 12.2559C7.93293 12.4122 7.72097 12.5 7.49996 12.5C7.27895 12.5 7.06698 12.4122 6.9107 12.2559C6.75442 12.0996 6.66663 11.8876 6.66663 11.6666V10.8333H3.33329C2.89127 10.8333 2.46734 10.6577 2.15478 10.3451C1.84222 10.0326 1.66663 9.60865 1.66663 9.16663V15.8333C1.66663 16.2753 1.84222 16.6992 2.15478 17.0118C2.46734 17.3244 2.89127 17.5 3.33329 17.5H16.6666C17.1087 17.5 17.5326 17.3244 17.8451 17.0118C18.1577 16.6992 18.3333 16.2753 18.3333 15.8333V9.16663C18.3333 9.60865 18.1577 10.0326 17.8451 10.3451C17.5326 10.6577 17.1087 10.8333 16.6666 10.8333Z" fill="#0057FF"/>
</svg>
