<svg width="31" height="29" viewBox="0 0 31 29" fill="none" xmlns="http://www.w3.org/2000/svg">
<path d="M21.4831 11.1063C21.4831 12.9882 17.5771 13.2658 17.5771 17.8935C17.5771 21.2871 20.0261 23.8169 23.4361 23.8169C27.0631 23.786 29.4501 20.5467 29.4501 17.1222C29.4501 11.1988 23.8701 3.36264 20.3981 3.36264C19.5301 3.36264 17.9491 3.97966 17.9491 5.0286C17.9801 6.07753 21.4831 7.89774 21.4831 11.1063Z" fill="#0057FF"/>
<path d="M5.4558 11.1063C5.4558 12.9574 1.5498 13.2659 1.5498 17.8627C1.5498 21.2563 3.9988 23.7861 7.4088 23.7861C11.0668 23.7861 13.4538 20.5468 13.4538 17.1223C13.4538 11.1989 7.8738 3.36273 4.4018 3.36273C3.5338 3.36273 1.9528 3.97975 1.9528 5.02869C1.9528 6.07762 5.4558 7.89784 5.4558 11.1063Z" fill="#0057FF"/>
</svg>
