<svg width="31" height="29" viewBox="0 0 31 29" fill="none" xmlns="http://www.w3.org/2000/svg">
<path d="M9.51685 17.8937C9.51685 16.0118 13.4229 15.7342 13.4229 11.1065C13.4229 7.71289 10.9739 5.18311 7.56386 5.18311C3.93686 5.21396 1.54986 8.45332 1.54986 11.8778C1.54986 17.8012 7.12985 25.6374 10.6019 25.6374C11.4699 25.6374 13.0509 25.0203 13.0509 23.9714C13.0199 22.9225 9.51685 21.1023 9.51685 17.8937Z" fill="#0057FF"/>
<path d="M25.5442 17.8937C25.5442 16.0426 29.4502 15.7341 29.4502 11.1373C29.4502 7.74365 27.0012 5.21387 23.5912 5.21387C19.9332 5.21387 17.5462 8.45323 17.5462 11.8777C17.5462 17.8011 23.1262 25.6373 26.5982 25.6373C27.4662 25.6373 29.0472 25.0202 29.0472 23.9713C29.0472 22.9224 25.5442 21.1022 25.5442 17.8937Z" fill="#0057FF"/>
</svg>
