<svg width="80" height="80" viewBox="0 0 80 80" fill="none" xmlns="http://www.w3.org/2000/svg">
<rect x="1" y="1" width="78" height="78" rx="19" stroke="#0057FF" stroke-width="2"/>
<path d="M51.9746 33.1947C51.9454 32.4516 51.9454 31.7372 51.9454 31.0513C51.9454 30.5083 51.508 30.0796 50.954 30.0796C46.6674 30.051 43.4015 28.8507 40.6896 26.2786C40.3105 25.9071 39.6689 25.9071 39.2899 26.2786C36.578 28.8507 33.312 30.051 29.0546 30.051C28.5006 30.051 28.0632 30.4797 28.0632 31.0227C28.0632 31.7086 28.0632 32.4231 28.034 33.1947C27.8882 40.2536 27.6841 49.8847 39.6689 53.9428C39.7856 53.9714 39.8731 54 39.9897 54C40.1063 54 40.223 53.9714 40.3105 53.9428C52.2953 49.8847 52.0912 40.2536 51.9746 33.1947ZM39.9897 51.9709C29.7253 48.3128 29.8711 40.3108 30.0169 33.2519C30.0169 32.8232 30.0461 32.4231 30.0461 32.023C34.041 31.8229 37.2486 30.6512 39.9897 28.3077C42.7308 30.6512 45.9384 31.8515 49.9334 31.9944C49.9334 32.3945 49.9334 32.7946 49.9625 33.2233C50.1083 40.3108 50.2541 48.3128 39.9897 51.9709Z" fill="#0057FF"/>
<path d="M39.9897 51.9709C29.7253 48.3128 29.8711 40.3108 30.0169 33.2519C30.0169 32.8232 30.0461 32.4231 30.0461 32.023C34.041 31.8229 37.2486 30.6512 39.9897 28.3077C42.7308 30.6512 45.9384 31.8515 49.9334 31.9944C49.9334 32.3945 49.9334 32.7946 49.9625 33.2233C50.1083 40.3108 50.2541 48.3128 39.9897 51.9709Z" fill="#0057FF"/>
</svg>
