<svg width="80" height="80" viewBox="0 0 80 80" fill="none" xmlns="http://www.w3.org/2000/svg">
<rect x="1" y="1" width="78" height="78" rx="19" stroke="#0057FF" stroke-width="2"/>
<path d="M53.222 37.0132C52.7238 33.9847 51.1974 32.5099 50.0662 31.8161L49.8965 31.79C49.8965 31.79 47.5531 30.937 45.6055 35.3033C47.1575 36.6066 47.4249 39.4824 46.8215 41.8579C46.0332 44.9559 42.4886 46.7377 42.4886 46.7377L41.456 45.6723L38.3594 53.3011H47.0297L45.9972 51.8579C45.9972 51.8579 49.4377 49.5217 50.9517 47.597C52.4653 45.6723 54.0479 42.0304 53.222 37.0132Z" fill="#0057FF"/>
<path d="M33.6813 44.6073C27.2818 36.4975 36.8465 32.2022 36.8465 32.2022L37.6719 33.4395L40.6999 25.7417H32.0291L33.1988 27.185C31.6162 27.8379 29.3804 30.037 29.3804 30.037C29.3804 30.037 24.9079 34.5733 25.6296 41.0683C26.3523 47.5633 30.3089 48.0097 30.3089 48.0097L38.0843 47.8038C36.1233 47.6663 33.6813 44.6073 33.6813 44.6073Z" fill="#0057FF"/>
<path d="M41.0438 31.2402C38.8426 31.4462 37.81 34.6767 37.81 34.6767C36.2235 39.8013 34.9985 42.5218 34.3873 43.7236L34.2842 43.938C35.6739 45.8987 37.18 46.862 38.8115 47.4006C39.9215 47.4829 41.5604 43.1989 41.5604 43.1989C42.9481 39.5791 43.6368 37.9757 44.8637 34.8486C45.0625 34.348 46.0304 31.4146 48.2001 31.222C46.7522 31.1757 42.8223 31.0737 41.0438 31.2402Z" fill="#0057FF"/>
</svg>
