<svg width="80" height="80" viewBox="0 0 80 80" fill="none" xmlns="http://www.w3.org/2000/svg">
<rect x="1" y="1" width="78" height="78" rx="19" stroke="#0057FF" stroke-width="2"/>
<path d="M31.6221 31.2312L34.8233 34.3481C36.0184 33.4338 37.5123 32.852 39.1343 32.852C40.3721 32.852 41.5245 33.1844 42.5489 33.7247L45.1952 30.1507C43.4452 29.0702 41.3538 28.4468 39.1343 28.4468C36.2745 28.4468 33.6282 29.5273 31.6221 31.2312Z" fill="#0057FF"/>
<path d="M43.1033 44.9453C42.1643 45.6102 41.0545 46.0258 39.8594 46.1505V50.5557C42.2069 50.431 44.3411 49.5583 46.0911 48.2284L43.1033 44.9453Z" fill="#0057FF"/>
<path d="M38.4086 54.2545V46.1506C34.9512 45.8181 32.3049 42.9506 32.3049 39.5428C32.3049 37.9636 32.8598 36.5091 33.8415 35.3454L27.9512 29.6104C25.3903 32.3117 24.0244 35.8026 24.0244 39.5013C24.0244 47.3974 30.4269 53.8805 38.4086 54.2545Z" fill="#0057FF"/>
<path d="M56.7624 43.9894L45.6221 41.6206C45.3233 42.5349 44.8111 43.3245 44.1709 44.031L52.4514 53.1323C55.0977 50.6803 56.9331 47.605 57.8294 44.1972L56.7624 43.9894Z" fill="#0057FF"/>
<path d="M43.7012 34.5974C45.067 35.8026 45.9634 37.5897 45.9634 39.5429C45.9634 39.7922 45.9634 40.0416 45.9207 40.2494L56.3353 42.452C56.506 41.4961 56.5914 40.4987 56.5914 39.5429C56.5914 34.3481 54.1158 29.4026 49.9329 26.2026L43.7012 34.5974Z" fill="#0057FF"/>
</svg>
