<svg width="18" height="17" viewBox="0 0 18 17" fill="none" xmlns="http://www.w3.org/2000/svg">
<path fill-rule="evenodd" clip-rule="evenodd" d="M4.90385 15.8592V0.425242C4.90385 0.239939 5.05882 0.0897217 5.25 0.0897217H7.84615C8.03733 0.0897217 8.19231 0.239939 8.19231 0.425242V15.8592C8.19231 16.0445 8.03733 16.1947 7.84615 16.1947H5.25C5.05882 16.1947 4.90385 16.0445 4.90385 15.8592ZM0 15.8592V11.1619C0 10.9766 0.154978 10.8264 0.346154 10.8264H2.94231C3.13348 10.8264 3.28846 10.9766 3.28846 11.1619V15.8592C3.28846 16.0445 3.13348 16.1947 2.94231 16.1947H0.346154C0.154978 16.1947 0 16.0445 0 15.8592ZM9.80769 15.8592V8.47774C9.80769 8.29244 9.96267 8.14222 10.1538 8.14222H12.75C12.9412 8.14222 13.0962 8.29244 13.0962 8.47774V15.8592C13.0962 16.0445 12.9412 16.1947 12.75 16.1947H10.1538C9.96267 16.1947 9.80769 16.0445 9.80769 15.8592ZM14.7115 15.8592V5.79357C14.7115 5.60827 14.8665 5.45805 15.0577 5.45805H17.6538C17.845 5.45805 18 5.60827 18 5.79357V15.8592C18 16.0445 17.845 16.1947 17.6538 16.1947H15.0577C14.8665 16.1947 14.7115 16.0445 14.7115 15.8592Z" fill="white"/>
<path fill-rule="evenodd" clip-rule="evenodd" d="M4.90385 15.8592V0.425242C4.90385 0.239939 5.05882 0.0897217 5.25 0.0897217H7.84615C8.03733 0.0897217 8.19231 0.239939 8.19231 0.425242V15.8592C8.19231 16.0445 8.03733 16.1947 7.84615 16.1947H5.25C5.05882 16.1947 4.90385 16.0445 4.90385 15.8592ZM0 15.8592V11.1619C0 10.9766 0.154978 10.8264 0.346154 10.8264H2.94231C3.13348 10.8264 3.28846 10.9766 3.28846 11.1619V15.8592C3.28846 16.0445 3.13348 16.1947 2.94231 16.1947H0.346154C0.154978 16.1947 0 16.0445 0 15.8592ZM9.80769 15.8592V8.47774C9.80769 8.29244 9.96267 8.14222 10.1538 8.14222H12.75C12.9412 8.14222 13.0962 8.29244 13.0962 8.47774V15.8592C13.0962 16.0445 12.9412 16.1947 12.75 16.1947H10.1538C9.96267 16.1947 9.80769 16.0445 9.80769 15.8592ZM14.7115 15.8592V5.79357C14.7115 5.60827 14.8665 5.45805 15.0577 5.45805H17.6538C17.845 5.45805 18 5.60827 18 5.79357V15.8592C18 16.0445 17.845 16.1947 17.6538 16.1947H15.0577C14.8665 16.1947 14.7115 16.0445 14.7115 15.8592Z" fill="#0057FF"/>
</svg>
