<svg width="18" height="18" viewBox="0 0 18 18" fill="none" xmlns="http://www.w3.org/2000/svg">
<path d="M17.6902 10.8162C17.16 9.7436 16.0429 9.04083 14.831 9.04083C14.5091 9.04083 14.1683 9.09631 13.8654 9.18878L11.1577 5.34204C12.4263 4.17693 12.5021 2.21657 11.3092 0.977475C10.1163 -0.261619 8.1092 -0.335595 6.84057 0.829523C5.57194 1.99464 5.4962 3.955 6.68909 5.19409C6.76483 5.26807 6.84057 5.34204 6.93524 5.41602L4.01929 11.9444C2.3341 11.482 0.592102 12.4437 0.118733 14.0897C-0.354636 15.7356 0.629971 17.4186 2.31516 17.8809C3.96249 18.3433 5.68555 17.4186 6.19679 15.8096L11.9908 13.4609C12.7293 14.9959 14.6228 15.6617 16.1943 14.9404C17.7659 14.2006 18.4476 12.3697 17.6902 10.8162ZM11.6689 12.1478C11.6689 12.1663 11.6689 12.1848 11.6689 12.1848L6.27253 14.3856C6.13998 13.6643 5.76129 13.017 5.19325 12.5547L8.09026 6.04481C8.71511 6.22975 9.39676 6.21126 10.0216 6.00783L12.7293 9.85456C12.0476 10.4464 11.6689 11.2786 11.6689 12.1478Z" fill="#0057FF"/>
</svg>
