<svg width="102" height="34" viewBox="0 0 102 34" fill="none" xmlns="http://www.w3.org/2000/svg">
<path d="M97.875 33H4.125C2.40625 33 1 31.56 1 29.8V4.2C1 2.44 2.40625 1 4.125 1H97.875C99.5938 1 101 2.44 101 4.2V29.8C101 31.56 99.5938 33 97.875 33Z" fill="white" stroke="currentColor" stroke-width="0.75"/>
<path d="M15.2188 24.4401L8.1875 23.4001V17.3201H15.2188V24.4401ZM15.2188 16.7601H8.1875V11.0001L15.2188 9.9601V16.7601ZM24.8281 25.8001L15.7656 24.4401V17.3201H24.8281V25.8001ZM24.8281 16.7601H15.7656V9.9601L24.8281 8.6001V16.7601Z" fill="currentColor"/>
<path d="M36.9382 13.1598C36.6257 13.3198 35.9226 13.4798 35.1413 13.4798C34.282 13.4798 33.5007 13.2398 32.9539 12.6798C32.4851 12.1998 32.1726 11.3998 32.1726 10.4398C32.1726 8.67982 33.3445 7.31982 35.2976 7.31982C36.0007 7.31982 36.4695 7.47983 36.782 7.55983L36.6257 8.19982C36.3132 8.03982 35.9226 7.95983 35.3757 7.95983C33.9695 7.95983 33.032 8.83983 33.032 10.3598C33.032 11.8798 33.8914 12.7598 35.2976 12.7598C35.7664 12.7598 36.157 12.6798 36.3132 12.5998V10.8398H35.1413V10.1998H37.0163V13.1598H36.9382Z" fill="currentColor"/>
<path d="M38.5 11.3998C38.5 12.4398 39.2031 12.9198 39.9063 12.9198C40.4531 12.9198 40.7656 12.8398 41.0781 12.6798L41.2344 13.2398C41 13.3998 40.5313 13.4798 39.8281 13.4798C38.5781 13.4798 37.7969 12.5998 37.7969 11.3198C37.7969 10.0398 38.5 8.99976 39.75 8.99976C41.0781 8.99976 41.4688 10.1998 41.4688 10.9998C41.4688 11.1598 41.4688 11.3198 41.4688 11.3998H38.5ZM40.7656 10.8398C40.7656 10.3598 40.5313 9.55976 39.75 9.55976C38.9688 9.55976 38.6563 10.2798 38.5781 10.8398H40.7656Z" fill="currentColor"/>
<path d="M43.3437 7.87988V9.07988H44.4375V9.63988H43.3437V11.9599C43.3437 12.5199 43.5 12.7599 43.8906 12.7599C44.125 12.7599 44.2031 12.7599 44.3594 12.6799V13.2399C44.2031 13.3199 43.9687 13.3199 43.6562 13.3199C43.2656 13.3199 43.0312 13.2399 42.875 12.9999C42.6406 12.7599 42.5625 12.3599 42.5625 11.8799V9.55988H41.9375V8.99988H42.5625V7.95988L43.3437 7.87988Z" fill="currentColor"/>
<path d="M47.9531 7.8799C47.9531 8.1199 47.7969 8.3599 47.4844 8.3599C47.25 8.3599 47.0156 8.1199 47.0156 7.8799C47.0156 7.6399 47.25 7.3999 47.4844 7.3999C47.7187 7.3999 47.9531 7.6399 47.9531 7.8799ZM47.0937 13.3999V9.0799H47.875V13.3999H47.0937Z" fill="currentColor"/>
<path d="M49.9844 7.87988V9.07988H51.0781V9.63988H49.9844V11.9599C49.9844 12.5199 50.1406 12.7599 50.5312 12.7599C50.7656 12.7599 50.8437 12.7599 51 12.6799V13.2399C50.8437 13.3199 50.6094 13.3199 50.2969 13.3199C49.9062 13.3199 49.6719 13.2399 49.5156 12.9999C49.2812 12.7599 49.2031 12.3599 49.2031 11.8799V9.55988H48.5781V8.99988H49.2031V7.95988L49.9844 7.87988Z" fill="currentColor"/>
<path d="M57.4844 11.2398C57.4844 12.8398 56.3906 13.5598 55.375 13.5598C54.2813 13.5598 53.3438 12.6798 53.3438 11.3198C53.3438 9.87976 54.2813 8.99976 55.375 8.99976C56.7031 8.99976 57.4844 9.87976 57.4844 11.2398ZM54.2031 11.2398C54.2031 12.1998 54.75 12.9198 55.4531 12.9198C56.1563 12.9198 56.7031 12.1998 56.7031 11.2398C56.7031 10.5198 56.3125 9.55976 55.4531 9.55976C54.5938 9.55976 54.2031 10.4398 54.2031 11.2398Z" fill="currentColor"/>
<path d="M58.4219 10.2798C58.4219 9.79976 58.4219 9.47976 58.4219 9.07976H59.125L59.2031 9.79976C59.4375 9.39976 59.9063 8.99976 60.6094 8.99976C61.1563 8.99976 62.0938 9.31976 62.0938 10.8398V13.3998H61.3125V10.9198C61.3125 10.1998 61.0781 9.63976 60.375 9.63976C59.9062 9.63976 59.5156 10.0398 59.3594 10.4398C59.3594 10.5198 59.2813 10.6798 59.2813 10.8398V13.3998H58.5V10.2798H58.4219Z" fill="currentColor"/>
<path d="M34.2031 26.3598L32.0938 17.6398H33.2656L34.2812 22.0398C34.5156 23.1598 34.75 24.1998 34.9063 25.0798C35.0625 24.1998 35.2969 23.1598 35.6094 22.0398L36.7031 17.6398H37.875L38.8906 22.0398C39.125 23.0798 39.3594 24.1198 39.5156 24.9998C39.6719 24.0398 39.9062 23.0798 40.2187 21.9598L41.3125 17.5598H42.4062L39.9844 26.2798H38.8125L37.7187 21.7198C37.4844 20.5998 37.25 19.7198 37.1719 18.8398C37.0156 19.7198 36.8594 20.5198 36.5469 21.7198L35.375 26.2798H34.2031V26.3598Z" fill="currentColor"/>
<path d="M44.3594 18.2798C44.3594 18.6798 44.125 18.9998 43.6562 18.9998C43.2656 18.9998 42.9531 18.6798 42.9531 18.2798C42.9531 17.8798 43.2656 17.5598 43.6562 17.5598C44.125 17.6398 44.3594 17.8798 44.3594 18.2798ZM43.1094 26.3598V20.1198H44.2031V26.3598H43.1094Z" fill="currentColor"/>
<path d="M45.6094 21.8C45.6094 21.16 45.6094 20.6 45.5312 20.12H46.5469L46.625 21.16C46.9375 20.6 47.6406 19.96 48.6562 19.96C49.5156 19.96 50.7656 20.44 50.7656 22.6V26.36H49.6719V22.76C49.6719 21.72 49.2812 20.92 48.2656 20.92C47.5625 20.92 46.9375 21.48 46.7813 22.12C46.7031 22.28 46.7031 22.44 46.7031 22.68V26.44H45.6094V21.8Z" fill="currentColor"/>
<path d="M57.7187 17.1598V24.7598C57.7187 25.3198 57.7187 25.9598 57.7969 26.3598H56.7812L56.7031 25.2398C56.3906 25.9598 55.6094 26.4398 54.6719 26.4398C53.1875 26.4398 52.0938 25.1598 52.0938 23.2398C52.0938 21.1598 53.3437 19.8798 54.8281 19.8798C55.7656 19.8798 56.3906 20.3598 56.625 20.8398V17.0798H57.7187V17.1598ZM56.625 22.5998C56.625 22.4398 56.625 22.2798 56.5469 22.1198C56.3906 21.3998 55.7656 20.8398 54.9844 20.8398C53.8125 20.8398 53.1875 21.8798 53.1875 23.2398C53.1875 24.5198 53.8125 25.5598 54.9844 25.5598C55.6875 25.5598 56.3906 25.0798 56.625 24.1998C56.625 24.0398 56.7031 23.8798 56.7031 23.7198V22.5998H56.625Z" fill="currentColor"/>
<path d="M64.6719 23.16C64.6719 25.48 63.1094 26.52 61.625 26.52C59.9844 26.52 58.7344 25.24 58.7344 23.32C58.7344 21.24 60.0625 19.96 61.7812 19.96C63.5 19.96 64.6719 21.24 64.6719 23.16ZM59.9062 23.24C59.9062 24.6 60.6875 25.64 61.7812 25.64C62.7969 25.64 63.6562 24.6 63.6562 23.24C63.6562 22.2 63.1094 20.84 61.8594 20.84C60.4531 20.76 59.9062 22.04 59.9062 23.24Z" fill="currentColor"/>
<path d="M66.0781 20.0398L66.8594 23.2398C67.0156 23.9598 67.1719 24.5998 67.3281 25.2398C67.4844 24.5998 67.6406 23.9598 67.875 23.2398L68.8906 20.0398H69.8281L70.7656 23.1598C71 23.8798 71.1562 24.5998 71.3125 25.2398C71.3906 24.5998 71.5469 23.9598 71.7812 23.2398L72.6406 20.1198H73.7344L71.7812 26.3598H70.7656L69.8281 23.3998C69.5937 22.6798 69.4375 22.1198 69.2812 21.3198C69.125 22.0398 68.9687 22.6798 68.7344 23.3998L67.7187 26.3598H66.7812L64.9844 20.1198H66.0781V20.0398Z" fill="currentColor"/>
<path d="M74.5937 25.16C74.9062 25.4 75.5312 25.64 76.0781 25.64C76.8594 25.64 77.25 25.24 77.25 24.68C77.25 24.12 76.9375 23.8 76.1562 23.56C75.0625 23.16 74.5156 22.52 74.5156 21.8C74.5156 20.76 75.2969 19.96 76.625 19.96C77.25 19.96 77.7969 20.12 78.1094 20.36L77.7969 21.16C77.5625 21 77.0937 20.76 76.5469 20.76C75.9219 20.76 75.5313 21.16 75.5313 21.64C75.5313 22.12 75.9219 22.36 76.7031 22.68C77.7188 23.08 78.2656 23.64 78.2656 24.6C78.2656 25.72 77.4062 26.44 76 26.44C75.2969 26.44 74.75 26.28 74.2812 26.04L74.5937 25.16Z" fill="currentColor"/>
<path d="M83.4219 19L82.0156 19.8L81.7812 18.92L83.5781 17.96H84.5156V26.36H83.4219V19Z" fill="currentColor"/>
<path d="M92.1719 22.0397C92.1719 24.9197 91.1562 26.4397 89.3594 26.4397C87.7969 26.4397 86.7031 24.9197 86.625 22.1197C86.625 19.3197 87.7969 17.7197 89.4375 17.7197C91.2344 17.7997 92.1719 19.3997 92.1719 22.0397ZM87.7187 22.1997C87.7187 24.3597 88.3437 25.6397 89.3594 25.6397C90.4531 25.6397 91 24.2797 91 22.1197C91 20.0397 90.4531 18.6797 89.3594 18.6797C88.4219 18.6797 87.7187 19.8797 87.7187 22.1997Z" fill="currentColor"/>
</svg>
