<svg width="383" height="383" viewBox="0 0 383 383" fill="none" xmlns="http://www.w3.org/2000/svg">
<path d="M191.501 327.511C273.527 327.511 340.021 323.628 340.021 318.84C340.021 314.051 273.527 310.168 191.501 310.168C109.476 310.168 42.9817 314.051 42.9817 318.84C42.9817 323.628 109.476 327.511 191.501 327.511Z" fill="#F5F5F5"/>
<path d="M88.0917 76.1172C88.6892 71.1382 96.5177 67.224 103.312 69.5756C111.11 72.2796 109.877 79.4264 115.032 79.7098C120.187 79.9932 122.769 89.1239 118.257 93.3522C113.745 97.5806 122.033 99.4802 122.309 105.409C122.585 111.338 122.608 115.942 127.464 120.331C133.592 125.854 124.147 143.671 108.636 135.528C94.7329 128.228 77.3294 138.73 74.2194 128.596C71.5308 119.848 84.7213 110.357 81.9637 106.121C79.2061 101.885 81.0368 97.9023 84.1698 92.7777C88.0228 86.4965 78.5627 77.1284 88.0917 76.1172Z" fill="#263238"/>
<path d="M119.021 117.397C120.913 121.227 122.851 125.157 124.881 128.948C125.907 130.833 126.949 132.709 128.014 134.525C129.012 136.258 130.131 137.919 131.361 139.496L131.614 139.795C131.659 139.853 131.713 139.902 131.775 139.94C131.974 140.077 132.194 140.18 132.426 140.247C133.173 140.457 133.949 140.547 134.724 140.515C136.689 140.433 138.639 140.135 140.538 139.626C142.553 139.136 144.575 138.493 146.597 137.788C148.619 137.083 150.649 136.302 152.595 135.49L154.372 138.715C150.56 141.243 146.481 143.342 142.208 144.973C139.928 145.85 137.548 146.442 135.122 146.735C133.703 146.9 132.266 146.843 130.863 146.566C130.021 146.384 129.208 146.082 128.451 145.67C128.035 145.451 127.64 145.194 127.271 144.904C127.081 144.751 126.899 144.587 126.727 144.414L126.39 144.008C124.774 142.231 123.313 140.32 122.024 138.293C120.745 136.386 119.588 134.463 118.477 132.495C116.241 128.581 114.203 124.651 112.349 120.553L119.021 117.397Z" fill="#E3A392"/>
<path d="M114.526 110.304C117.59 110.197 123.097 121.457 123.097 121.457L115.039 131.239C115.039 131.239 105.632 119.45 106.927 115.666C108.267 111.66 110.014 110.465 114.526 110.304Z" fill="#407BFF"/>
<path opacity="0.2" d="M115.039 113.031L119.229 126.168L115.453 130.741L115.039 113.031Z" fill="black"/>
<path d="M157.889 132.947L150.482 136.493L150.344 139.106C152.481 141.243 156.962 139.872 156.962 139.872L162.446 139.159L163.151 136.095C163.244 135.712 163.251 135.313 163.172 134.926C163.094 134.54 162.931 134.175 162.695 133.859C162.46 133.542 162.158 133.281 161.81 133.095C161.463 132.908 161.078 132.8 160.685 132.778L159.153 132.702C158.718 132.681 158.284 132.765 157.889 132.947Z" fill="#E3A392"/>
<path d="M99.5585 312.658H106.835L107.502 295.798H100.217L99.5585 312.658Z" fill="#E3A392"/>
<path d="M107.517 311.815H99.3364C99.2683 311.812 99.2004 311.823 99.1364 311.846C99.0725 311.87 99.0139 311.906 98.964 311.952C98.9141 311.998 98.8739 312.054 98.8458 312.116C98.8176 312.178 98.8021 312.245 98.8002 312.313L98.5244 318.786C98.5304 319.129 98.6697 319.456 98.9129 319.698C99.156 319.939 99.4838 320.077 99.8266 320.081C102.668 320.035 104.024 319.866 107.625 319.866C109.838 319.866 114.932 320.096 117.988 320.096C121.045 320.096 120.899 317.07 119.605 316.802C113.775 315.569 110.865 313.876 108.774 312.267C108.416 311.982 107.974 311.823 107.517 311.815Z" fill="#263238"/>
<g opacity="0.2">
<path opacity="0.2" d="M107.503 295.806L107.158 304.493H99.8735L100.218 295.806H107.503Z" fill="black"/>
</g>
<path d="M117.445 113.92C117.606 118.516 116.81 129.278 111.968 154.311L82.4085 153.43C83.2664 141.411 83.4962 133.996 78.4866 109.132C82.6501 108.4 86.8615 107.972 91.0873 107.853C95.5645 107.666 100.049 107.799 104.508 108.251C107.932 108.665 111.616 109.377 114.037 109.883C114.974 110.077 115.82 110.581 116.438 111.313C117.056 112.045 117.41 112.962 117.445 113.92Z" fill="#407BFF"/>
<path d="M92.8617 92.7778C93.5818 97.121 94.1869 105.034 91.0846 107.853C91.0846 107.853 93.9571 113.215 101.334 115.168C108.143 111.713 104.505 108.274 104.505 108.274C99.7251 106.979 99.9549 103.41 100.889 100.085L92.8617 92.7778Z" fill="#E3A392"/>
<path d="M101.337 115.168L100.456 113.444L95.7218 114.517L101.337 115.168Z" fill="#E0E0E0"/>
<path d="M100.454 113.444C98.922 112.755 91.8977 108.166 91.622 106.742C90.4214 106.857 89.2387 107.115 88.0984 107.508C88.0984 107.508 88.9946 112.686 94.5175 118.645C95.9422 115.413 97.8342 113.996 100.454 113.444Z" fill="white"/>
<path d="M101.336 115.168L101.734 113.444L104.637 113.651L101.336 115.168Z" fill="#E0E0E0"/>
<path d="M101.735 113.445C104.079 111.913 103.504 108.626 103.267 107.202C104.461 107.368 105.642 107.624 106.798 107.968C107.911 109.511 108.54 111.35 108.604 113.252C108.668 115.154 108.165 117.031 107.158 118.646C106.024 115.582 104.086 114.479 101.735 113.445Z" fill="white"/>
<path opacity="0.2" d="M96.1327 95.75L100.89 100.055C100.66 100.831 100.498 101.625 100.407 102.43C98.5686 102.108 96.1021 100.009 95.9642 98.0786C95.8794 97.2986 95.9365 96.5097 96.1327 95.75Z" fill="black"/>
<path d="M90.5715 83.5553C90.8855 90.771 90.8702 93.835 94.4475 97.6037C99.8095 103.264 108.626 101.288 110.472 94.1261C112.134 87.6687 111.33 76.9447 104.344 73.9573C102.801 73.2842 101.111 73.0178 99.4355 73.1837C97.76 73.3495 96.155 73.942 94.7737 74.9046C93.3924 75.8673 92.2808 77.1679 91.5452 78.6823C90.8095 80.1967 90.4743 81.8744 90.5715 83.5553Z" fill="#E3A392"/>
<path d="M89.5682 75.6958C92.2416 77.0363 95.926 76.8065 96.6154 78.4151C97.3048 80.0237 95.3668 89.6217 91.3607 89.6983C87.6762 84.7269 87.1247 78.0015 89.5682 75.6958Z" fill="#263238"/>
<path d="M89.9357 76.8983C95.8339 80.6287 115.275 84.114 108.925 75.6957C104.099 69.3072 91.4064 72.5244 89.9357 76.8983Z" fill="#263238"/>
<path d="M112.037 154.31C112.037 154.31 114.894 208.107 115.04 230.213C115.193 253.193 108.72 302.807 108.72 302.807H98.8693C98.8693 302.807 100.746 252.673 99.2294 229.984C97.5748 205.249 91.8221 153.667 91.8221 153.667L112.037 154.31Z" fill="#263238"/>
<path d="M98.0487 303.167H109.608L110.083 299.475L97.0989 299.031L98.0487 303.167Z" fill="#407BFF"/>
<path opacity="0.2" d="M93.9037 172.986C94.9684 171.66 96.3625 172.342 98.1856 176.126C104.406 189.026 101.25 209.608 98.5839 221.466C97.389 206.705 95.4127 187.256 93.9037 172.986Z" fill="black"/>
<path d="M102.53 86.2898C102.53 86.8796 102.821 87.3622 103.204 87.3698C103.587 87.3775 103.909 86.9026 103.916 86.3204C103.924 85.7382 103.625 85.248 103.242 85.2403C102.859 85.2327 102.538 85.7076 102.53 86.2898Z" fill="#263238"/>
<path d="M109.163 86.236C109.163 86.8259 109.454 87.3084 109.837 87.3161C110.22 87.3238 110.542 86.8488 110.55 86.2667C110.557 85.6845 110.259 85.1943 109.876 85.1866C109.493 85.179 109.171 85.6539 109.163 86.236Z" fill="#263238"/>
<path d="M109.701 85.2175L111.118 84.8345C111.118 84.8345 110.383 85.9222 109.701 85.2175Z" fill="#263238"/>
<path d="M106.612 86.8027C107.111 88.1517 107.794 89.4251 108.642 90.5868C108.338 90.7965 107.992 90.9374 107.629 90.9996C107.265 91.0618 106.892 91.0437 106.536 90.9468L106.612 86.8027Z" fill="#E39E8A"/>
<path d="M103.297 93.1917C103.583 93.2379 103.872 93.2635 104.162 93.2683C104.188 93.2737 104.215 93.2733 104.24 93.2672C104.266 93.2611 104.289 93.2493 104.31 93.2328C104.33 93.2163 104.347 93.1954 104.358 93.1717C104.369 93.1481 104.375 93.1222 104.375 93.0959C104.375 93.0697 104.369 93.0438 104.358 93.0201C104.347 92.9964 104.33 92.9755 104.31 92.959C104.289 92.9425 104.266 92.9308 104.24 92.9246C104.215 92.9185 104.188 92.9181 104.162 92.9236C103.431 92.9315 102.708 92.7647 102.054 92.4369C101.399 92.1092 100.833 91.63 100.401 91.0392C100.376 91.0014 100.338 90.9748 100.293 90.9648C100.249 90.9548 100.203 90.9622 100.164 90.9856C100.144 90.9973 100.128 91.0129 100.114 91.0313C100.101 91.0497 100.091 91.0707 100.086 91.0929C100.081 91.115 100.081 91.138 100.085 91.1604C100.089 91.1828 100.098 91.2041 100.11 91.223C100.484 91.7464 100.958 92.19 101.505 92.528C102.053 92.866 102.662 93.0916 103.297 93.1917Z" fill="#263238"/>
<path d="M88.5057 90.1347C88.9722 91.4509 89.9419 92.5281 91.202 93.1298C92.8795 93.8958 94.0209 92.4863 93.8064 90.7399C93.6149 89.2079 92.5119 86.9099 90.7424 86.8256C90.3443 86.8146 89.9499 86.9041 89.5956 87.086C89.2413 87.2679 88.9387 87.5362 88.7156 87.8662C88.4926 88.1961 88.3565 88.577 88.3198 88.9735C88.2831 89.3701 88.347 89.7695 88.5057 90.1347Z" fill="#E3A392"/>
<path d="M99.8575 84.3517C99.9286 84.3674 100.003 84.3586 100.068 84.3266C100.134 84.2946 100.186 84.2413 100.218 84.1756C100.984 82.7661 102.998 82.4827 103.021 82.4827C103.067 82.477 103.11 82.4624 103.15 82.4396C103.19 82.4168 103.225 82.3864 103.252 82.35C103.28 82.3136 103.3 82.2721 103.312 82.2278C103.324 82.1835 103.326 82.1374 103.32 82.092C103.307 82.0017 103.258 81.9202 103.185 81.8657C103.111 81.8111 103.02 81.7878 102.929 81.801C102.83 81.801 100.516 82.1303 99.6124 83.8538C99.5911 83.894 99.578 83.9381 99.5737 83.9834C99.5695 84.0287 99.5743 84.0743 99.5879 84.1178C99.6014 84.1612 99.6234 84.2015 99.6526 84.2364C99.6818 84.2713 99.7176 84.3001 99.7579 84.3211C99.7881 84.3393 99.8223 84.3499 99.8575 84.3517Z" fill="#263238"/>
<path d="M111.178 82.8351C111.237 82.8463 111.298 82.8416 111.354 82.8214C111.411 82.8012 111.461 82.7663 111.5 82.7202C111.53 82.6857 111.552 82.6455 111.567 82.602C111.581 82.5586 111.587 82.5127 111.583 82.467C111.58 82.4214 111.567 82.3769 111.546 82.3362C111.525 82.2955 111.496 82.2594 111.461 82.23C111.05 81.8651 110.557 81.605 110.023 81.4716C109.49 81.3383 108.932 81.3356 108.397 81.464C108.315 81.4943 108.247 81.555 108.208 81.6337C108.168 81.7124 108.161 81.8031 108.186 81.8872C108.212 81.9714 108.268 82.0426 108.345 82.0864C108.421 82.1302 108.511 82.1432 108.596 82.1227C109.02 82.033 109.459 82.0452 109.877 82.1584C110.296 82.2716 110.681 82.4825 111.002 82.7738C111.054 82.81 111.115 82.8312 111.178 82.8351Z" fill="#263238"/>
<path d="M81.4575 120.538C79.3587 123.54 77.2445 126.75 75.2759 129.929C73.3177 133.085 71.5279 136.342 69.9139 139.688L69.6228 140.3L69.4773 140.615C69.4773 140.691 69.4773 140.615 69.4773 140.615C69.4773 140.615 69.4084 140.722 69.4084 140.959C69.4147 141.631 69.5152 142.299 69.7071 142.943C70.1892 144.623 70.8092 146.26 71.5608 147.838C73.1388 151.147 75.0461 154.502 76.9764 157.735L74.0656 160.033C71.3029 157.128 68.8179 153.971 66.6431 150.603C65.472 148.824 64.4864 146.93 63.7017 144.95C63.2281 143.774 62.9287 142.536 62.8131 141.273C62.7438 140.424 62.8189 139.569 63.0352 138.745C63.0352 138.631 63.1042 138.508 63.1425 138.385L63.2574 138.079L63.3953 137.719L63.671 137.007C64.437 135.092 65.249 133.253 66.1375 131.453C67.0261 129.653 67.9453 127.922 68.9411 126.152C70.9238 122.687 73.1055 119.339 75.4751 116.125L81.4575 120.538Z" fill="#E3A392"/>
<path d="M78.4847 109.132C75.4897 109.944 71.629 120.039 71.629 120.039L82.8816 128.596C82.8816 128.596 87.3244 120.208 86.1907 116.34C85.0264 112.318 81.8934 108.205 78.4847 109.132Z" fill="#407BFF"/>
<path d="M110.375 313.087C110.984 313.152 111.596 312.994 112.098 312.643C112.205 312.533 112.281 312.398 112.322 312.251C112.362 312.104 112.364 311.949 112.328 311.8C112.308 311.703 112.267 311.611 112.208 311.531C112.148 311.452 112.071 311.387 111.983 311.341C111.041 310.858 108.291 312.336 107.977 312.505C107.948 312.524 107.925 312.553 107.913 312.586C107.901 312.619 107.899 312.655 107.908 312.689C107.916 312.725 107.935 312.758 107.962 312.782C107.99 312.807 108.025 312.823 108.061 312.827C108.823 312.983 109.597 313.07 110.375 313.087ZM111.524 311.555C111.637 311.549 111.75 311.57 111.853 311.616C111.889 311.633 111.92 311.658 111.943 311.69C111.966 311.723 111.98 311.761 111.983 311.8C112.011 311.896 112.013 311.998 111.988 312.094C111.964 312.191 111.915 312.28 111.845 312.352C111.439 312.75 110.252 312.819 108.605 312.551C109.513 312.058 110.501 311.731 111.524 311.586V311.555Z" fill="#407BFF"/>
<path d="M108.091 312.834H108.16C108.987 312.444 110.549 310.874 110.327 310.046C110.281 309.847 110.113 309.61 109.63 309.556C109.465 309.538 109.297 309.555 109.138 309.606C108.98 309.658 108.834 309.742 108.711 309.855C107.868 310.621 107.899 312.582 107.899 312.666C107.902 312.697 107.912 312.726 107.928 312.753C107.944 312.779 107.965 312.802 107.991 312.819C108.023 312.831 108.057 312.836 108.091 312.834ZM109.531 309.878H109.63C109.952 309.878 109.983 310.039 109.998 310.077C110.128 310.575 109.086 311.808 108.251 312.375C108.251 311.808 108.405 310.628 108.956 310.131C109.032 310.052 109.122 309.989 109.222 309.945C109.322 309.902 109.429 309.879 109.538 309.878H109.531Z" fill="#407BFF"/>
<path d="M69.0338 312.658H76.3185L78.739 295.798H71.4544L69.0338 312.658Z" fill="#E3A392"/>
<path d="M76.6006 311.815H68.4044C68.2627 311.814 68.125 311.863 68.0167 311.955C67.9084 312.046 67.8366 312.173 67.8146 312.313L66.8034 318.786C66.7827 318.949 66.797 319.114 66.8453 319.271C66.8937 319.427 66.975 319.572 67.0839 319.694C67.1927 319.817 67.3265 319.915 67.4763 319.982C67.6262 320.048 67.7885 320.082 67.9524 320.081C70.802 320.035 72.1808 319.866 75.781 319.866C77.9947 319.866 79.8025 320.096 82.8588 320.096C85.9151 320.096 86.1143 317.07 84.8427 316.802C79.1514 315.569 79.6952 313.876 77.7955 312.267C77.4613 311.983 77.0391 311.824 76.6006 311.815Z" fill="#263238"/>
<path d="M77.7495 313.087C78.3751 313.144 79.0017 312.988 79.5266 312.643C79.6433 312.538 79.7333 312.407 79.7892 312.26C79.8452 312.114 79.8654 311.956 79.8483 311.8C79.8444 311.705 79.8155 311.612 79.7644 311.531C79.7133 311.451 79.6419 311.385 79.5573 311.34C78.6764 310.858 75.7273 312.336 75.4209 312.505C75.389 312.523 75.3632 312.55 75.3468 312.583C75.3304 312.615 75.3242 312.652 75.3289 312.689C75.3323 312.724 75.3479 312.757 75.3731 312.782C75.3983 312.808 75.4314 312.823 75.4668 312.827C76.2179 312.984 76.9822 313.071 77.7495 313.087ZM79.067 311.555C79.1778 311.547 79.2887 311.568 79.3887 311.616C79.423 311.633 79.4519 311.659 79.4722 311.692C79.4925 311.724 79.5034 311.762 79.5036 311.8C79.5162 311.902 79.504 312.005 79.468 312.101C79.4319 312.197 79.3732 312.283 79.2968 312.352C78.8525 312.75 77.6499 312.819 76.0413 312.551C76.9889 312.062 78.0116 311.736 79.067 311.586V311.555Z" fill="#407BFF"/>
<path d="M75.4976 312.834H75.5665C76.4398 312.444 78.1786 310.873 78.056 310.046C78.056 309.847 77.8875 309.609 77.4126 309.556C77.2411 309.539 77.0681 309.557 76.9037 309.609C76.7393 309.66 76.5868 309.743 76.4551 309.854C75.5282 310.62 75.3367 312.581 75.329 312.666C75.3253 312.695 75.3298 312.725 75.3419 312.752C75.3541 312.779 75.3735 312.802 75.398 312.819C75.4295 312.832 75.4636 312.837 75.4976 312.834ZM77.267 309.877H77.3666C77.6807 309.877 77.696 310.038 77.7037 310.077C77.7803 310.574 76.6006 311.808 75.7044 312.375C75.7859 311.546 76.1201 310.762 76.6619 310.13C76.8253 309.974 77.0409 309.884 77.267 309.877Z" fill="#407BFF"/>
<g opacity="0.2">
<path opacity="0.2" d="M78.7365 295.806L77.4879 304.493H70.2032L71.4518 295.806H78.7365Z" fill="black"/>
</g>
<path d="M82.4074 153.43C75.3142 164.69 77.2981 206.161 76.1798 228.268C75.0154 251.248 69.2858 302.777 69.2858 302.777H79.1289C79.1289 302.777 88.5813 250.367 92.9858 228.145C97.8499 203.633 103.771 153.399 103.771 153.399L82.4074 153.43Z" fill="#263238"/>
<path d="M68.6592 303.167H80.2105L80.6242 299.475L67.6328 299.031L68.6592 303.167Z" fill="#407BFF"/>
<path d="M103.076 85.2707L104.493 84.8877C104.493 84.8877 103.75 85.9754 103.076 85.2707Z" fill="#263238"/>
<path d="M82.018 151.668L81.1984 154.303C81.0912 154.51 81.3286 154.724 81.6657 154.732L112.091 155.636C112.359 155.636 112.581 155.521 112.604 155.352L112.949 152.717C112.949 152.533 112.75 152.372 112.459 152.365L82.5236 151.476C82.4299 151.46 82.3337 151.47 82.2449 151.504C82.1561 151.537 82.0778 151.594 82.018 151.668Z" fill="#407BFF"/>
<path d="M85.9381 155.145H85.1721C85.0189 155.145 84.8964 155.053 84.9117 154.954L85.3866 151.53C85.3866 151.43 85.5475 151.354 85.7007 151.354H86.4667C86.6275 151.354 86.7424 151.445 86.7348 151.545L86.2522 154.977C86.2369 155.076 86.099 155.153 85.9381 155.145Z" fill="#263238"/>
<path d="M109.817 155.858H109.013C108.852 155.858 108.737 155.766 108.753 155.666L109.228 152.242C109.228 152.143 109.388 152.058 109.542 152.066H110.346C110.507 152.066 110.622 152.158 110.614 152.257L110.131 155.681C110.116 155.781 109.978 155.865 109.817 155.858Z" fill="#263238"/>
<path d="M97.8727 155.498H97.1067C96.9458 155.498 96.8233 155.406 96.8386 155.306L97.3212 151.875C97.3212 151.775 97.4743 151.698 97.6352 151.706H98.4012C98.5544 151.706 98.677 151.798 98.6616 151.898L98.1867 155.322C98.1791 155.429 98.0488 155.498 97.8727 155.498Z" fill="#263238"/>
<path d="M74.5942 155.827L82.3462 157.16L76.6854 161.932C76.762 161.978 72.3882 160.285 71.9515 157.244L74.5942 155.827Z" fill="#E3A392"/>
<path d="M84.5215 163.158L82.8133 164.445C82.4325 164.728 81.9705 164.881 81.4958 164.881C81.0211 164.881 80.559 164.728 80.1782 164.445L76.6853 161.909L82.346 157.137L84.8355 159.872C85.0459 160.101 85.2057 160.372 85.3047 160.667C85.4036 160.962 85.4395 161.275 85.4098 161.585C85.3802 161.895 85.2858 162.195 85.1328 162.466C84.9798 162.737 84.7715 162.973 84.5215 163.158Z" fill="#E3A392"/>
<path d="M306.872 139.151H119.684C115.919 139.151 112.867 142.204 112.867 145.969V257.039C112.867 260.804 115.919 263.856 119.684 263.856H306.872C310.637 263.856 313.689 260.804 313.689 257.039V145.969C313.689 142.204 310.637 139.151 306.872 139.151Z" fill="white"/>
<path d="M306.872 264.27H119.676C117.767 264.268 115.937 263.509 114.587 262.159C113.237 260.809 112.478 258.979 112.476 257.07V146C112.478 144.091 113.237 142.26 114.587 140.911C115.937 139.561 117.767 138.801 119.676 138.799H306.872C308.781 138.801 310.612 139.56 311.963 140.91C313.315 142.26 314.076 144.09 314.08 146V257.07C314.076 258.979 313.315 260.81 311.963 262.159C310.612 263.509 308.781 264.268 306.872 264.27ZM119.676 139.535C117.973 139.539 116.341 140.217 115.137 141.422C113.932 142.626 113.254 144.258 113.25 145.961V257.031C113.252 258.735 113.93 260.369 115.134 261.574C116.339 262.778 117.973 263.456 119.676 263.458H306.872C308.576 263.458 310.211 262.781 311.416 261.576C312.621 260.371 313.298 258.736 313.298 257.031V145.961C313.296 144.258 312.618 142.624 311.414 141.419C310.209 140.214 308.575 139.537 306.872 139.535H119.676Z" fill="#407BFF"/>
<path d="M311.237 263.856H115.317C114.547 263.856 113.785 264.021 113.085 264.341C112.384 264.661 111.761 265.128 111.257 265.71L104.026 274.083C103.353 274.86 102.918 275.814 102.773 276.832C102.627 277.85 102.777 278.888 103.205 279.822C103.633 280.757 104.321 281.549 105.186 282.104C106.051 282.659 107.058 282.954 108.086 282.953H318.468C319.496 282.954 320.502 282.659 321.367 282.104C322.233 281.549 322.92 280.757 323.348 279.822C323.776 278.888 323.926 277.85 323.78 276.832C323.635 275.814 323.2 274.86 322.527 274.083L315.289 265.71C314.786 265.129 314.163 264.662 313.464 264.342C312.765 264.023 312.005 263.857 311.237 263.856Z" fill="white"/>
<path d="M318.47 283.336H108.088C106.986 283.335 105.907 283.019 104.98 282.423C104.053 281.827 103.317 280.978 102.858 279.976C102.4 278.974 102.239 277.861 102.395 276.77C102.551 275.679 103.016 274.656 103.737 273.822L110.968 265.457C111.508 264.833 112.176 264.332 112.927 263.988C113.678 263.645 114.493 263.467 115.319 263.466H311.231C312.058 263.466 312.875 263.643 313.627 263.987C314.379 264.331 315.049 264.832 315.59 265.457L322.821 273.822C323.541 274.656 324.007 275.679 324.163 276.77C324.318 277.861 324.158 278.974 323.699 279.976C323.241 280.978 322.504 281.827 321.577 282.423C320.65 283.019 319.572 283.335 318.47 283.336ZM115.319 264.27C114.605 264.269 113.899 264.423 113.25 264.721C112.601 265.018 112.024 265.452 111.558 265.994L104.319 274.366C103.694 275.087 103.29 275.973 103.155 276.917C103.02 277.861 103.159 278.825 103.557 279.692C103.954 280.559 104.592 281.294 105.396 281.808C106.199 282.323 107.134 282.595 108.088 282.593H318.47C319.423 282.594 320.357 282.32 321.159 281.805C321.961 281.29 322.599 280.556 322.995 279.688C323.391 278.821 323.53 277.859 323.395 276.915C323.259 275.971 322.855 275.086 322.231 274.366L315 265.994C314.533 265.452 313.954 265.018 313.304 264.72C312.653 264.423 311.946 264.269 311.231 264.27H115.319Z" fill="#407BFF"/>
<path d="M106.198 277.514C105.706 277.513 105.225 277.664 104.822 277.946C104.419 278.228 104.113 278.627 103.946 279.09C103.778 279.552 103.757 280.055 103.886 280.53C104.015 281.005 104.287 281.428 104.666 281.743C105.621 282.534 106.826 282.962 108.067 282.953H318.464C319.782 282.963 321.057 282.483 322.041 281.605C322.382 281.274 322.615 280.848 322.712 280.384C322.81 279.919 322.766 279.436 322.586 278.996C322.407 278.556 322.1 278.18 321.705 277.916C321.311 277.652 320.846 277.512 320.371 277.514H106.198Z" fill="#407BFF"/>
<path d="M309.805 257.031V145.961C309.805 144.341 308.492 143.027 306.872 143.027H119.676C118.056 143.027 116.743 144.341 116.743 145.961V257.031C116.743 258.651 118.056 259.965 119.676 259.965H306.872C308.492 259.965 309.805 258.651 309.805 257.031Z" fill="#407BFF"/>
<path opacity="0.3" d="M305.394 257.866H121.163C120.554 257.866 119.969 257.624 119.538 257.193C119.107 256.762 118.865 256.178 118.865 255.568V147.447C118.865 146.838 119.107 146.253 119.538 145.822C119.969 145.392 120.554 145.149 121.163 145.149H305.394C306.003 145.149 306.588 145.392 307.019 145.822C307.45 146.253 307.692 146.838 307.692 147.447V255.561C307.693 255.863 307.634 256.163 307.519 256.442C307.404 256.722 307.235 256.976 307.021 257.191C306.808 257.405 306.554 257.575 306.275 257.691C305.996 257.807 305.696 257.866 305.394 257.866ZM121.163 145.54C120.91 145.54 120.659 145.59 120.424 145.687C120.19 145.784 119.977 145.926 119.798 146.105C119.619 146.285 119.477 146.497 119.38 146.732C119.283 146.966 119.233 147.217 119.233 147.47V255.561C119.235 256.071 119.439 256.56 119.801 256.921C120.163 257.281 120.652 257.483 121.163 257.483H305.394C305.903 257.481 306.391 257.278 306.751 256.918C307.111 256.558 307.314 256.07 307.316 255.561V147.447C307.316 146.937 307.114 146.447 306.754 146.085C306.393 145.723 305.904 145.519 305.394 145.517L121.163 145.54Z" fill="white"/>
<path d="M243.034 186C243.034 189.83 280.108 189.83 280.108 186C280.108 164.743 243.034 164.743 243.034 186Z" fill="#407BFF"/>
<path d="M261.571 189.263C257.293 189.3 253.017 189.06 248.771 188.543C243.256 187.777 242.643 186.728 242.643 186C242.643 174.763 252.471 169.646 261.594 169.646C270.724 169.646 280.544 174.763 280.544 186C280.521 189.102 264.734 189.263 261.571 189.263ZM243.447 186C243.447 187.019 249.751 188.436 261.571 188.436C273.39 188.436 279.694 187.019 279.694 186C279.694 175.33 270.303 170.473 261.571 170.473C252.838 170.473 243.447 175.33 243.447 186Z" fill="white"/>
<path d="M283.164 137.88C286.029 143.893 289.392 157.796 289.913 168.834C289.933 169.241 289.845 169.646 289.657 170.007C289.469 170.369 289.189 170.674 288.844 170.892C288.5 171.109 288.104 171.231 287.696 171.245C287.289 171.259 286.886 171.164 286.527 170.971C285.686 170.508 284.771 170.194 283.823 170.044C282.712 169.876 281.862 168.321 281.839 166.444L281.471 138.868C281.456 137.39 282.597 136.708 283.164 137.88Z" fill="white"/>
<path d="M287.605 171.661C287.164 171.659 286.73 171.549 286.341 171.339C285.54 170.899 284.67 170.598 283.768 170.45C282.45 170.251 281.47 168.581 281.47 166.475L281.11 138.899C281.051 138.49 281.129 138.073 281.331 137.713C281.533 137.353 281.848 137.07 282.228 136.907C282.506 136.866 282.79 136.924 283.029 137.071C283.269 137.218 283.449 137.445 283.538 137.711C286.38 143.679 289.788 157.627 290.325 168.811C290.339 169.175 290.28 169.538 290.151 169.879C290.023 170.22 289.827 170.532 289.575 170.795C289.324 171.059 289.022 171.269 288.687 171.414C288.353 171.559 287.993 171.635 287.628 171.638L287.605 171.661ZM282.42 137.681H282.381C282.167 137.734 281.853 138.156 281.86 138.899L282.228 166.475C282.228 168.137 282.994 169.539 283.883 169.692C284.875 169.848 285.831 170.177 286.709 170.665C287.008 170.824 287.343 170.9 287.682 170.887C288.02 170.874 288.348 170.772 288.634 170.59C288.92 170.409 289.152 170.155 289.308 169.855C289.464 169.554 289.537 169.218 289.52 168.88C288.992 157.758 285.621 143.97 282.81 138.071C282.764 137.972 282.649 137.681 282.42 137.681Z" fill="#407BFF"/>
<path d="M283.699 174.234C283.699 179.719 239.439 179.719 239.439 174.234V113.23C239.361 100.178 242.371 87.2929 248.225 75.6272C251.902 68.4038 256.506 62.3218 261.569 62.3218C266.632 62.3218 271.236 68.4038 274.913 75.6272C280.767 87.2929 283.777 100.178 283.699 113.23V174.234Z" fill="white"/>
<path d="M261.572 178.738C256.446 178.791 251.324 178.445 246.252 177.704C241.38 176.9 239.013 175.766 239.013 174.234V113.23C238.962 100.115 242.001 87.1727 247.884 75.4511C252.48 66.4812 257.076 61.9312 261.572 61.9312C266.068 61.9312 270.695 66.4812 275.26 75.4511C281.13 87.1759 284.156 100.118 284.092 113.23V174.234C284.092 178.608 263.878 178.738 261.572 178.738ZM261.572 62.7125C257.374 62.7125 253 67.117 248.55 75.8034C242.736 87.4192 239.74 100.241 239.802 113.23V174.234C239.802 176.326 249.354 177.957 261.549 177.957C273.744 177.957 283.296 176.326 283.296 174.234V113.23C283.361 100.253 280.372 87.4426 274.571 75.8341C270.144 67.117 265.8 62.7125 261.572 62.7125Z" fill="#407BFF"/>
<path d="M261.571 91.7819C254.432 91.7819 247.867 89.8363 243.562 86.4199L244.045 85.8071C248.151 89.0473 254.708 90.9776 261.571 90.9776C268.434 90.9776 274.991 89.0473 279.097 85.8071L279.58 86.4199C275.275 89.8363 268.71 91.7819 261.571 91.7819Z" fill="#407BFF"/>
<path d="M240.896 137.88C235.948 144.054 230.172 158.562 229.513 169.715C229.487 170.113 229.564 170.512 229.739 170.871C229.913 171.23 230.178 171.538 230.507 171.764C230.836 171.99 231.219 172.126 231.617 172.159C232.015 172.192 232.415 172.12 232.777 171.952C234.974 170.917 237.336 170.274 239.755 170.052C240.657 169.967 241.496 169.553 242.112 168.889C242.728 168.225 243.078 167.357 243.095 166.452L243.7 138.876C243.7 138.55 243.599 138.231 243.411 137.965C243.223 137.698 242.957 137.496 242.65 137.387C242.343 137.278 242.009 137.266 241.695 137.355C241.381 137.443 241.102 137.627 240.896 137.88Z" fill="white"/>
<path d="M231.811 172.588C231.281 172.586 230.764 172.426 230.325 172.128C229.932 171.866 229.614 171.505 229.403 171.082C229.192 170.658 229.095 170.187 229.123 169.715C229.766 158.462 235.68 143.786 240.613 137.658C240.87 137.334 241.221 137.1 241.619 136.986C242.016 136.873 242.439 136.887 242.828 137.027C243.216 137.166 243.552 137.424 243.787 137.764C244.021 138.104 244.144 138.509 244.136 138.922L243.524 166.498C243.506 167.498 243.12 168.457 242.441 169.192C241.761 169.926 240.835 170.385 239.839 170.481C237.448 170.69 235.114 171.323 232.945 172.35C232.59 172.514 232.202 172.595 231.811 172.588ZM241.195 138.117C236.361 144.161 230.532 158.631 229.896 169.738C229.877 170.076 229.947 170.413 230.098 170.716C230.25 171.018 230.479 171.275 230.762 171.461C231.031 171.645 231.344 171.756 231.669 171.781C231.995 171.807 232.321 171.747 232.616 171.607C234.857 170.537 237.273 169.878 239.747 169.661C240.553 169.584 241.303 169.213 241.853 168.618C242.402 168.023 242.714 167.246 242.727 166.437L243.332 138.861C243.344 138.612 243.276 138.367 243.138 138.16C243 137.953 242.8 137.796 242.566 137.712C242.329 137.621 242.069 137.609 241.825 137.678C241.58 137.747 241.365 137.893 241.21 138.095L241.195 138.117Z" fill="#407BFF"/>
<path d="M268.628 139.405C275.727 139.405 281.481 131.167 281.481 121.005C281.481 110.844 275.727 102.606 268.628 102.606C261.529 102.606 255.774 110.844 255.774 121.005C255.774 131.167 261.529 139.405 268.628 139.405Z" fill="#407BFF"/>
<path d="M269.842 136.402C275.312 136.402 279.747 129.508 279.747 121.005C279.747 112.502 275.312 105.608 269.842 105.608C264.372 105.608 259.938 112.502 259.938 121.005C259.938 129.508 264.372 136.402 269.842 136.402Z" fill="white"/>
<path d="M156.262 260.386C156.152 260.386 156.046 260.343 155.967 260.265C155.888 260.188 155.843 260.083 155.841 259.972C155.841 259.574 155.841 259.076 155.841 258.517C155.71 254.204 155.442 245.242 160.965 240.133C164.328 237 169.338 235.744 175.856 236.403C196.331 238.478 207.737 232.802 216.531 216.173C220.437 208.788 228.909 207.747 236.393 206.858C242.115 206.161 247.516 205.51 249.951 202.132C251.437 200.071 251.759 197.099 250.94 193.055C250.928 193.001 250.928 192.945 250.939 192.891C250.949 192.837 250.971 192.786 251.001 192.74C251.032 192.695 251.071 192.656 251.117 192.625C251.163 192.595 251.215 192.574 251.269 192.564C251.322 192.553 251.376 192.553 251.429 192.563C251.482 192.573 251.533 192.594 251.578 192.624C251.623 192.654 251.661 192.692 251.691 192.737C251.721 192.783 251.741 192.833 251.752 192.886C252.625 197.176 252.257 200.355 250.626 202.614C247.975 206.283 242.399 206.965 236.493 207.678C228.833 208.604 220.966 209.562 217.266 216.563C208.281 233.545 196.645 239.344 175.772 237.245C169.498 236.609 164.703 237.789 161.524 240.753C156.285 245.641 156.545 254.35 156.668 258.54C156.668 259.107 156.706 259.612 156.706 260.018C156.695 260.125 156.642 260.224 156.559 260.292C156.476 260.361 156.369 260.395 156.262 260.386Z" fill="white"/>
<path d="M246.649 260.386C246.542 260.384 246.439 260.341 246.362 260.266C246.285 260.19 246.24 260.088 246.236 259.98V259.544C246.105 251.884 245.929 241.458 257.534 239.965C264.428 239.084 268.48 237.422 269.974 234.894C271.468 232.366 270.188 229.003 268.925 225.801C267.822 223.013 266.688 220.133 267.393 217.689C268.516 213.899 270.531 210.432 273.268 207.578C276.378 204.016 278.094 202.055 272.104 193.17C272.044 193.078 272.023 192.966 272.045 192.859C272.066 192.752 272.128 192.657 272.218 192.595C272.264 192.565 272.314 192.544 272.368 192.533C272.421 192.523 272.476 192.523 272.529 192.533C272.583 192.544 272.634 192.565 272.679 192.596C272.724 192.626 272.763 192.665 272.793 192.71C279.135 202.124 277.159 204.384 273.888 208.122C271.238 210.892 269.284 214.253 268.189 217.927C267.546 220.095 268.58 222.722 269.675 225.495C271.016 228.888 272.395 232.389 270.671 235.315C269.039 238.08 264.765 239.873 257.649 240.792C246.787 242.186 246.925 252.213 247.078 259.528V259.965C247.079 260.019 247.07 260.073 247.05 260.124C247.03 260.174 247 260.221 246.963 260.26C246.925 260.299 246.88 260.33 246.83 260.352C246.78 260.374 246.727 260.385 246.672 260.386H246.649Z" fill="white"/>
<path d="M160.856 177.819H160.596C160.067 176.481 159.162 175.323 157.991 174.486C156.819 173.649 155.431 173.168 153.993 173.101C153.22 173.061 152.445 173.138 151.695 173.331C151.038 171.779 149.89 170.485 148.427 169.649C146.964 168.812 145.267 168.479 143.597 168.7C141.926 168.921 140.374 169.684 139.179 170.872C137.984 172.06 137.211 173.607 136.98 175.276C135.437 175.329 133.973 175.974 132.892 177.077C131.812 178.181 131.197 179.657 131.175 181.201C131.153 182.746 131.727 184.239 132.776 185.372C133.825 186.505 135.27 187.191 136.812 187.287L160.366 188.436C161.063 188.47 161.759 188.366 162.416 188.13C163.072 187.895 163.676 187.533 164.192 187.064C164.709 186.595 165.128 186.029 165.425 185.399C165.723 184.768 165.894 184.085 165.927 183.388C165.961 182.692 165.857 181.995 165.622 181.339C165.386 180.682 165.024 180.078 164.555 179.562C164.086 179.046 163.521 178.627 162.89 178.329C162.259 178.031 161.576 177.861 160.879 177.827L160.856 177.819Z" fill="white"/>
<path d="M194.753 153.368C196.376 153.364 197.971 153.788 199.379 154.596C200.786 155.405 201.955 156.57 202.769 157.974C203.583 159.377 204.012 160.971 204.014 162.594C204.017 164.217 203.591 165.811 202.781 167.218L195.42 162.062L191.59 153.92C192.591 153.552 193.649 153.365 194.715 153.368H194.753ZM194.715 152.541C193.249 152.539 191.799 152.86 190.472 153.483L194.73 162.614L202.988 168.39C204.045 166.879 204.667 165.108 204.787 163.268C204.907 161.428 204.519 159.591 203.667 157.956C202.814 156.321 201.529 154.952 199.952 153.997C198.375 153.042 196.566 152.539 194.723 152.541H194.715Z" fill="white"/>
<path d="M194.77 162.614L202.989 168.39C202.654 168.871 202.278 169.322 201.863 169.738C200.824 170.784 199.568 171.589 198.183 172.097C196.799 172.605 195.32 172.802 193.85 172.676C192.381 172.55 190.957 172.103 189.68 171.367C188.402 170.63 187.301 169.623 186.456 168.415C185.61 167.207 185.039 165.828 184.784 164.376C184.529 162.923 184.596 161.433 184.98 160.009C185.363 158.585 186.055 157.263 187.005 156.135C187.956 155.008 189.142 154.103 190.481 153.483L194.77 162.614Z" fill="white"/>
<path d="M167.697 225.043C167.099 225.045 166.521 224.833 166.065 224.445C165.61 224.058 165.309 223.52 165.216 222.929L162.504 206.384C162.395 205.722 162.554 205.045 162.945 204.501C163.335 203.956 163.926 203.589 164.587 203.481L192.102 198.976C192.762 198.87 193.437 199.03 193.98 199.42C194.523 199.811 194.889 200.4 194.998 201.06L197.709 217.606C197.816 218.267 197.656 218.943 197.266 219.487C196.876 220.03 196.286 220.398 195.626 220.509L168.111 225.013C167.974 225.034 167.836 225.045 167.697 225.043ZM192.508 199.765H192.232L164.687 204.3C164.245 204.375 163.85 204.622 163.587 204.986C163.325 205.35 163.216 205.802 163.285 206.246L165.997 222.799C166.074 223.243 166.321 223.639 166.686 223.902C166.867 224.032 167.072 224.125 167.289 224.175C167.506 224.225 167.731 224.231 167.95 224.193L195.465 219.689C195.908 219.616 196.303 219.37 196.565 219.005C196.826 218.64 196.932 218.186 196.859 217.743L194.147 201.19C194.112 200.97 194.034 200.76 193.917 200.57C193.8 200.381 193.646 200.217 193.466 200.087C193.186 199.888 192.852 199.779 192.508 199.773V199.765Z" fill="white"/>
<path d="M185.169 211.163L175.87 207.647L177.478 217.468L185.169 211.163Z" fill="white"/>
<path d="M298.578 197.812H292.994V214.618H298.578V197.812Z" fill="white"/>
<path d="M298.578 215.79H292.994V218.954H298.578V215.79Z" fill="white"/>
<path d="M298.578 220.876H292.994V222.454H298.578V220.876Z" fill="white"/>
<path d="M298.578 225.342H292.994V226.131H298.578V225.342Z" fill="white"/>
<path d="M290.212 199.359L295.781 189.715L301.35 199.359H290.212Z" fill="white"/>
<path d="M220.607 170.772H217.083V181.381H220.607V170.772Z" fill="white"/>
<path d="M220.607 182.124H217.083V184.123H220.607V182.124Z" fill="white"/>
<path d="M220.607 185.341H217.083V186.337H220.607V185.341Z" fill="white"/>
<path d="M220.607 188.16H217.083V188.658H220.607V188.16Z" fill="white"/>
<path d="M215.327 171.753L218.842 165.655L222.366 171.753H215.327Z" fill="white"/>
<path d="M300.654 109.109H296.173V122.59H300.654V109.109Z" fill="#407BFF"/>
<path d="M300.654 123.533H296.173V126.068H300.654V123.533Z" fill="#407BFF"/>
<path d="M300.654 127.616H296.173V128.887H300.654V127.616Z" fill="#407BFF"/>
<path d="M300.654 131.2H296.173V131.836H300.654V131.2Z" fill="#407BFF"/>
<path d="M293.943 110.35L298.409 102.613L302.875 110.35H293.943Z" fill="#407BFF"/>
</svg>
