<svg width="410" height="410" viewBox="0 0 410 410" fill="none" xmlns="http://www.w3.org/2000/svg">
<path d="M82.5649 315.159C150.002 350.419 259.341 350.419 326.777 315.159C394.214 279.899 394.214 222.81 326.777 187.583C259.341 152.356 150.002 152.323 82.5649 187.583C15.1281 222.843 15.1281 279.923 82.5649 315.159Z" fill="#F5F5F5"/>
<path d="M119.82 153.102L136.072 143.721L119.82 134.341L103.42 143.721L119.82 153.102Z" stroke="#EBEBEB" stroke-width="1.08419" stroke-linecap="round" stroke-linejoin="round"/>
<path d="M107.199 143.729L119.827 107.231V151.019L107.199 143.729Z" fill="#E0E0E0"/>
<path d="M119.827 151.019L132.447 143.729L119.827 107.231V151.019Z" fill="#E6E6E6"/>
<path d="M99.9591 164.549L116.212 155.168L99.9591 145.788L83.5591 155.168L99.9591 164.549Z" stroke="#EBEBEB" stroke-width="1.08419" stroke-linecap="round" stroke-linejoin="round"/>
<path d="M87.3379 155.177L99.9577 100.975V162.466L87.3379 155.177Z" fill="#E0E0E0"/>
<path d="M99.9609 162.466L112.581 155.177L99.9609 100.975V162.466Z" fill="#E6E6E6"/>
<path d="M80.0984 175.996L96.3508 166.616L80.0984 157.235L63.6902 166.616L80.0984 175.996Z" stroke="#EBEBEB" stroke-width="1.08419" stroke-linecap="round" stroke-linejoin="round"/>
<path d="M67.4792 166.624L80.099 134.341V173.914L67.4792 166.624Z" fill="#E0E0E0"/>
<path d="M80.0974 173.914L92.7172 166.624L80.0974 134.341V173.914Z" fill="#E6E6E6"/>
<path d="M60.2378 187.444L76.4902 178.063L60.2378 168.682L43.8296 178.063L60.2378 187.444Z" stroke="#EBEBEB" stroke-width="1.08419" stroke-linecap="round" stroke-linejoin="round"/>
<path d="M47.6116 178.071L60.2396 123.262V185.361L47.6116 178.071Z" fill="#E0E0E0"/>
<path d="M60.2368 185.361L72.8566 178.071L60.2368 123.262V185.361Z" fill="#E6E6E6"/>
<path d="M276.842 140.63L363.516 190.666" stroke="#EBEBEB" stroke-width="1.08419" stroke-miterlimit="10" stroke-linecap="round"/>
<path d="M363.514 185.361C363.409 179.08 362.968 172.809 362.194 166.575C361.374 159.802 359.734 148.371 353.215 144.599C346.696 140.827 344.236 147.649 343.293 151.003C342.063 155.357 335.675 152.602 334.789 145.427C333.904 138.252 333.321 115.39 325.663 110.987C318.004 106.584 315.536 117.203 314.666 120.171C312.953 126.001 307.926 124.394 306.286 120.532C304.646 116.67 300.169 115.727 298.48 121.163C296.79 126.6 295.749 132.84 290.28 129.634C285.474 126.821 287.68 121.696 282.998 119.261C279.292 117.342 277.57 126.493 277.57 135.751L363.514 185.361Z" fill="#E0E0E0"/>
<path d="M357.216 137.645C357.216 138.645 356.314 138.932 355.215 138.301L348.655 134.496C348.116 134.191 347.655 133.764 347.308 133.251C346.961 132.737 346.737 132.15 346.655 131.536C346.655 130.544 347.557 130.249 348.655 130.888L355.215 134.693C355.754 134.997 356.216 135.422 356.563 135.934C356.91 136.446 357.134 137.032 357.216 137.645Z" fill="#E6E6E6"/>
<path d="M330.288 105.477C330.288 106.477 329.394 106.764 328.287 106.133L321.727 102.328C321.187 102.024 320.724 101.598 320.377 101.084C320.03 100.57 319.807 99.9825 319.726 99.3676C319.726 98.3754 320.62 98.0802 321.727 98.7198L328.287 102.525C328.827 102.827 329.289 103.252 329.636 103.764C329.983 104.277 330.207 104.863 330.288 105.477Z" fill="#E6E6E6"/>
<path d="M308.961 111.397C308.961 112.397 308.067 112.684 306.968 112.053L300.408 108.248C299.868 107.944 299.405 107.518 299.058 107.004C298.711 106.491 298.488 105.903 298.407 105.288C298.407 104.296 299.301 104.001 300.408 104.64L306.968 108.445C307.506 108.749 307.966 109.174 308.312 109.687C308.657 110.199 308.88 110.784 308.961 111.397Z" fill="#E6E6E6"/>
<path d="M288.738 113.357C288.738 114.357 287.845 114.644 286.738 114.004L280.178 110.208C279.64 109.902 279.18 109.475 278.834 108.962C278.488 108.448 278.266 107.861 278.185 107.248C278.185 106.255 279.079 105.96 280.178 106.6L286.738 110.396C287.277 110.702 287.739 111.128 288.086 111.641C288.433 112.155 288.656 112.742 288.738 113.357Z" fill="#E6E6E6"/>
<path d="M273.233 133.242V79.0315" stroke="#EBEBEB" stroke-width="1.08419" stroke-miterlimit="10" stroke-linecap="round"/>
<path d="M63.1406 253.15C63.1406 253.15 64.4854 241.113 60.7544 229.649C57.2448 218.809 50.1928 213.06 45.9206 211.338C37.8436 208.116 37.122 217.013 43.1736 223.171C47.6098 227.697 58.2862 237.029 60.123 252.855L63.1406 253.15Z" fill="#0057FF"/>
<path opacity="0.7" d="M63.1406 253.15C63.1406 253.15 64.4854 241.113 60.7544 229.649C57.2448 218.809 50.1928 213.06 45.9206 211.338C37.8436 208.116 37.122 217.013 43.1736 223.171C47.6098 227.697 58.2862 237.029 60.123 252.855L63.1406 253.15Z" fill="white"/>
<path d="M43.738 213.823C48.617 217.103 61.7288 226.574 62.2044 253.06" stroke="#FAFAFA" stroke-width="1.08419" stroke-miterlimit="10" stroke-linecap="round"/>
<path d="M59.7047 261.375C57.1955 249.239 52.0705 244.835 42.9111 240.145C38.9915 238.144 34.3995 235.914 32.7431 233.364C31.0867 230.813 31.9231 227.386 37.5647 227.46C47.8721 227.599 59.6145 240.022 61.1807 253.634L59.7047 261.375Z" fill="#0057FF"/>
<path opacity="0.8" d="M59.7047 261.375C57.1955 249.239 52.0705 244.835 42.9111 240.145C38.9915 238.144 34.3995 235.914 32.7431 233.364C31.0867 230.813 31.9231 227.386 37.5647 227.46C47.8721 227.599 59.6145 240.022 61.1807 253.634L59.7047 261.375Z" fill="white"/>
<path d="M36.6958 230.1C44.4776 231.158 56.7694 240.227 60.6726 256.34" stroke="#FAFAFA" stroke-width="1.08419" stroke-miterlimit="10" stroke-linecap="round"/>
<path d="M347.188 247.468C350.345 241.4 352.797 224.377 348.738 216.505C344.679 208.633 338.643 209.264 337.709 211.814C336.889 214.168 338.914 218.374 341.538 223.384C344.162 228.395 346.376 239.128 343.891 244.13L347.188 247.468Z" fill="#0057FF"/>
<path opacity="0.7" d="M347.188 247.468C350.345 241.4 352.797 224.377 348.738 216.505C344.679 208.633 338.643 209.264 337.709 211.814C336.889 214.168 338.914 218.374 341.538 223.384C344.162 228.395 346.376 239.128 343.891 244.13L347.188 247.468Z" fill="white"/>
<path d="M341.694 212.224C344.277 214.299 351.673 226.984 346.499 244.393" stroke="#FAFAFA" stroke-width="1.08419" stroke-miterlimit="10" stroke-linecap="round"/>
<path d="M346.188 253.897C344.286 250.092 340.12 243.794 342.957 239.473C345.794 235.151 348.763 238.973 351.042 236.152C353.322 233.331 350.714 228.772 352.682 226.312C356.487 221.474 359.242 227.091 362.227 226.353C364.384 225.82 366.786 221.039 372.994 221.621C379.201 222.204 378.89 227.124 376.126 229.436C373.363 231.748 370.083 234.053 372.215 237.521C374.101 240.596 375.077 246.279 368.623 248.485C362.457 250.592 365.507 253.265 364.523 256.283C363.539 259.3 357.717 262.162 351.526 259.833L346.188 253.897Z" fill="#0057FF"/>
<path opacity="0.8" d="M346.188 253.897C344.286 250.092 340.12 243.794 342.957 239.473C345.794 235.151 348.763 238.973 351.042 236.152C353.322 233.331 350.714 228.772 352.682 226.312C356.487 221.474 359.242 227.091 362.227 226.353C364.384 225.82 366.786 221.039 372.994 221.621C379.201 222.204 378.89 227.124 376.126 229.436C373.363 231.748 370.083 234.053 372.215 237.521C374.101 240.596 375.077 246.279 368.623 248.485C362.457 250.592 365.507 253.265 364.523 256.283C363.539 259.3 357.717 262.162 351.526 259.833L346.188 253.897Z" fill="white"/>
<path d="M373.847 224.41C367.123 226.214 351.018 239.301 349.657 255.725" stroke="#FAFAFA" stroke-width="1.08419" stroke-miterlimit="10" stroke-linecap="round"/>
<path d="M369.002 241.654C365.681 240.9 357.243 240.793 354.086 242.327" stroke="#FAFAFA" stroke-width="1.08419" stroke-miterlimit="10" stroke-linecap="round"/>
<path d="M355.961 227.755C355.961 227.755 358.421 232.519 358.069 236.529" stroke="#FAFAFA" stroke-width="1.08419" stroke-miterlimit="10" stroke-linecap="round"/>
<path d="M264.236 181.22C263.137 177.415 261.172 173.915 258.496 170.995C255.333 167.545 251.634 164.63 247.541 162.36C242.789 159.668 237.735 157.546 232.486 156.038C226.703 154.369 220.771 153.27 214.774 152.758C208.579 152.192 202.346 152.192 196.152 152.758C190.157 153.27 184.228 154.369 178.448 156.038C173.195 157.544 168.139 159.667 163.384 162.36C159.291 164.649 155.595 167.585 152.437 171.052C149.764 173.974 147.799 177.473 146.697 181.277C145.718 184.797 145.718 188.517 146.697 192.036C147.791 195.841 149.756 199.34 152.437 202.253C155.597 205.724 159.296 208.662 163.393 210.953C168.141 213.645 173.192 215.764 178.44 217.267C184.222 218.944 190.154 220.053 196.152 220.58C202.346 221.138 208.579 221.138 214.774 220.58C220.774 220.051 226.709 218.939 232.494 217.259C237.741 215.756 242.792 213.636 247.541 210.945C251.639 208.656 255.338 205.717 258.496 202.245C261.174 199.329 263.139 195.832 264.236 192.028C265.217 188.492 265.217 184.756 264.236 181.22Z" fill="#005986"/>
<path d="M145.96 181.236H264.967V187.304L145.96 186.968V181.236Z" fill="#005986"/>
<path d="M196.153 147.321L205.452 181.22L178.449 150.634C184.228 148.954 190.158 147.844 196.153 147.321Z" fill="#E3F6FF"/>
<path d="M214.774 147.321L205.475 181.22L196.176 147.305C202.363 146.746 208.588 146.751 214.774 147.321Z" fill="#E3F6FF"/>
<path d="M232.486 150.634L205.476 181.22L214.774 147.305C220.773 147.833 226.705 148.948 232.486 150.634Z" fill="#E3F6FF"/>
<path d="M258.488 165.64C261.163 168.565 263.127 172.067 264.228 175.874L205.483 181.22L258.488 165.64Z" fill="#E3F6FF"/>
<path d="M264.236 175.882C265.208 179.399 265.208 183.114 264.236 186.632L205.483 181.22L264.236 175.882Z" fill="#E3F6FF"/>
<path d="M264.236 186.632C263.138 190.438 261.173 193.937 258.496 196.857L205.483 181.277L264.236 186.632Z" fill="#E3F6FF"/>
<path d="M258.497 196.858C255.338 200.327 251.639 203.263 247.542 205.55L205.467 181.22L258.497 196.858Z" fill="#E3F6FF"/>
<path d="M205.475 181.261L232.494 211.872C226.709 213.541 220.774 214.64 214.774 215.152L205.467 181.236L205.475 181.261Z" fill="#E3F6FF"/>
<path d="M205.466 181.269L214.773 215.184C208.579 215.75 202.345 215.75 196.151 215.184L205.466 181.269Z" fill="#E3F6FF"/>
<path d="M205.451 181.261L196.136 215.176C190.136 214.665 184.201 213.566 178.416 211.896L205.451 181.261Z" fill="#E3F6FF"/>
<path d="M205.451 181.261L178.391 211.872C173.145 210.362 168.094 208.24 163.344 205.55L205.451 181.261Z" fill="#E3F6FF"/>
<path d="M205.443 181.22L152.43 196.8C149.75 193.883 147.785 190.382 146.69 186.575L205.443 181.22Z" fill="#E3F6FF"/>
<path d="M205.443 181.22L146.698 186.632C145.718 183.116 145.718 179.398 146.698 175.882L205.443 181.22Z" fill="#E3F6FF"/>
<path d="M205.443 181.22L146.698 175.849C147.801 172.043 149.765 168.541 152.438 165.615L205.443 181.22Z" fill="#E3F6FF"/>
<path d="M163.386 156.964L205.444 181.22L152.439 165.64C155.598 162.178 159.294 159.249 163.386 156.964Z" fill="#E3F6FF"/>
<path d="M247.542 156.964L205.476 181.22L232.486 150.618C237.738 152.13 242.792 154.261 247.542 156.964Z" fill="#E3F6FF"/>
<path d="M247.541 156.964C251.635 159.246 255.331 162.176 258.488 165.64L205.483 181.22L247.541 156.964Z" fill="#E3F6FF"/>
<path d="M205.452 181.22L163.37 205.517C159.274 203.228 155.574 200.293 152.414 196.825L205.427 181.245L205.452 181.22Z" fill="#E3F6FF"/>
<path d="M178.448 150.634L205.451 181.22L163.385 156.931C168.139 154.243 173.196 152.129 178.448 150.634Z" fill="#E3F6FF"/>
<path d="M205.476 181.261L247.542 205.55C242.791 208.24 237.741 210.362 232.495 211.872L205.476 181.261Z" fill="#E3F6FF"/>
<path d="M169.478 147.01L202.893 166.296L201.253 139.031C188.961 139.556 178.522 142.18 169.478 147.01Z" fill="#0057FF"/>
<path opacity="0.2" d="M169.478 147.01L202.893 166.296L201.253 139.031C188.961 139.556 178.522 142.18 169.478 147.01Z" fill="white"/>
<path d="M202.893 166.296V176.825L169.478 157.53V147.01L202.893 166.296Z" fill="#0057FF"/>
<path opacity="0.1" d="M202.893 166.296V176.825L169.478 157.53V147.01L202.893 166.296Z" fill="#0042C2"/>
<path d="M246.214 149.716L207.862 167.018V177.538L246.214 160.236V149.716Z" fill="#0057FF"/>
<path opacity="0.3" d="M246.214 149.716L207.862 167.018V177.538L246.214 160.236V149.716Z" fill="#0042C2"/>
<path d="M246.214 149.716C235.89 142.688 222.122 138.982 206.165 138.933L207.19 155.98L207.863 167.018L246.214 149.716Z" fill="#0057FF"/>
<path opacity="0.1" d="M246.214 149.716C235.89 142.688 222.122 138.982 206.165 138.933L207.19 155.98L207.863 167.018L246.214 149.716Z" fill="#0042C2"/>
<path d="M206.155 138.933V149.453L207.861 177.538V167.018L206.155 138.933Z" fill="#263238"/>
<path d="M215.661 187.28L235.267 206.14C236.366 205.722 237.383 205.32 238.547 204.762C252.052 198.678 259.113 189.56 259.104 180.359V169.945C257.62 165.985 253.537 165.993 249.264 162.508L209.224 180.548L208.822 180.728L215.661 187.28Z" fill="#0057FF"/>
<path opacity="0.6" d="M215.661 187.28L235.267 206.14C236.366 205.722 237.383 205.32 238.547 204.762C252.052 198.678 259.113 189.56 259.104 180.359V169.945C257.62 165.985 253.537 165.993 249.264 162.508L209.224 180.548L208.822 180.728L215.661 187.28Z" fill="white"/>
<path d="M215.66 176.759L235.266 195.619C236.365 195.201 237.382 194.799 238.546 194.233C261.153 184.024 265.68 165.328 249.28 151.954L209.239 169.994L208.837 170.174L215.66 176.759Z" fill="#0057FF"/>
<path opacity="0.8" d="M215.66 176.759L235.266 195.619C236.365 195.201 237.382 194.799 238.546 194.233C261.153 184.024 265.68 165.328 249.28 151.954L209.239 169.994L208.837 170.174L215.66 176.759Z" fill="white"/>
<path d="M235.233 206.123V195.595L208.796 170.199V180.72L235.233 206.123Z" fill="#0057FF"/>
<path opacity="0.6" d="M235.233 206.123V195.595L208.796 170.199V180.72L235.233 206.123Z" fill="white"/>
<path d="M166.001 159.539C160.367 163.09 154.111 165.328 151.831 169.641V180.17C151.831 185.656 154.381 191.216 159.67 196.3C167.05 203.376 178.735 208.378 192.618 210.371C205.466 212.267 218.573 211.313 231.01 207.575V197.054L213.749 190.986L203.614 181.22L166.001 159.539Z" fill="#0057FF"/>
<path opacity="0.6" d="M166.001 159.539C160.367 163.09 154.111 165.328 151.831 169.641V180.17C151.831 185.656 154.381 191.216 159.67 196.3C167.05 203.376 178.735 208.378 192.618 210.371C205.466 212.267 218.573 211.313 231.01 207.575V197.054L213.749 190.986L203.614 181.22L166.001 159.539Z" fill="#0042C2"/>
<path d="M166.001 149.019C149.814 159.203 147.206 173.799 159.67 185.771C167.05 192.856 178.735 197.85 192.618 199.85C205.466 201.743 218.572 200.788 231.01 197.054L213.749 180.466L203.614 170.732L166.001 149.019Z" fill="#0057FF"/>
<path opacity="0.3" d="M166.001 149.019C149.814 159.203 147.206 173.799 159.67 185.771C167.05 192.856 178.735 197.85 192.618 199.85C205.466 201.743 218.572 200.788 231.01 197.054L213.749 180.466L203.614 170.732L166.001 149.019Z" fill="#0042C2"/>
<path d="M353.823 263.753C352.724 259.948 350.759 256.448 348.083 253.528C344.927 250.059 341.23 247.123 337.136 244.836C332.384 242.144 327.33 240.022 322.081 238.513C316.298 236.844 310.366 235.746 304.369 235.233C298.174 234.668 291.941 234.668 285.747 235.233C279.752 235.747 273.823 236.845 268.043 238.513C262.793 240.022 257.74 242.144 252.988 244.836C248.891 247.123 245.191 250.058 242.032 253.528C239.359 256.45 237.394 259.949 236.292 263.753C235.313 267.272 235.313 270.992 236.292 274.511C237.386 278.317 239.351 281.815 242.032 284.729C245.192 288.199 248.891 291.137 252.988 293.429C257.738 296.117 262.788 298.237 268.035 299.743C273.821 301.408 279.756 302.507 285.755 303.023C291.95 303.581 298.182 303.581 304.377 303.023C310.376 302.507 316.311 301.409 322.097 299.743C327.346 298.24 332.397 296.118 337.144 293.421C341.244 291.134 344.947 288.199 348.108 284.729C350.783 281.811 352.748 278.314 353.848 274.511C354.816 270.99 354.807 267.271 353.823 263.753Z" fill="#005986"/>
<path d="M235.544 263.745H354.55V269.813L235.544 269.476V263.745Z" fill="#005986"/>
<path d="M285.737 229.83L295.044 263.745L268.033 233.142C273.812 231.463 279.742 230.353 285.737 229.83Z" fill="#E3F6FF"/>
<path d="M304.359 229.83L295.06 263.745L285.753 229.83C291.942 229.265 298.17 229.265 304.359 229.83Z" fill="#E3F6FF"/>
<path d="M322.071 233.142L295.06 263.745L304.359 229.83C310.357 230.353 316.289 231.462 322.071 233.142Z" fill="#E3F6FF"/>
<path d="M348.075 248.157C350.752 251.08 352.716 254.582 353.815 258.39L295.07 263.761L348.075 248.157Z" fill="#E3F6FF"/>
<path d="M353.822 258.39C354.798 261.907 354.798 265.623 353.822 269.14L295.078 263.761L353.822 258.39Z" fill="#E3F6FF"/>
<path d="M353.823 269.14C352.722 272.945 350.758 276.444 348.083 279.366L295.07 263.786L353.823 269.14Z" fill="#E3F6FF"/>
<path d="M348.09 279.366C344.924 282.832 341.223 285.766 337.126 288.058L295.052 263.761L348.09 279.366Z" fill="#E3F6FF"/>
<path d="M295.06 263.769L322.079 294.38C316.293 296.046 310.358 297.144 304.359 297.66L295.052 263.745L295.06 263.769Z" fill="#E3F6FF"/>
<path d="M295.053 263.777L304.36 297.66C298.165 298.222 291.932 298.222 285.738 297.66L295.053 263.777Z" fill="#E3F6FF"/>
<path d="M295.045 263.77L285.738 297.66C279.739 297.144 273.804 296.045 268.018 294.38L295.045 263.77Z" fill="#E3F6FF"/>
<path d="M295.044 263.77L267.984 294.38C262.738 292.867 257.688 290.746 252.937 288.058L295.044 263.77Z" fill="#E3F6FF"/>
<path d="M295.028 263.761L242.015 279.341C239.334 276.424 237.369 272.923 236.275 269.116L295.028 263.761Z" fill="#E3F6FF"/>
<path d="M295.027 263.761L236.283 269.14C235.303 265.624 235.303 261.907 236.283 258.39L295.027 263.761Z" fill="#E3F6FF"/>
<path d="M295.026 263.753L236.282 258.382C237.383 254.575 239.347 251.073 242.022 248.148L295.026 263.753Z" fill="#E3F6FF"/>
<path d="M252.978 239.44L295.028 263.72L242.023 248.14C245.181 244.667 248.881 241.729 252.978 239.44Z" fill="#E3F6FF"/>
<path d="M337.126 239.44L295.06 263.72L322.071 233.118C327.322 234.622 332.375 236.745 337.126 239.44Z" fill="#E3F6FF"/>
<path d="M337.127 239.44C341.221 241.724 344.918 244.657 348.074 248.124L295.078 263.704L337.127 239.44Z" fill="#E3F6FF"/>
<path d="M295.042 263.753L252.968 288.058C248.874 285.766 245.175 282.831 242.013 279.366L295.026 263.786L295.042 263.753Z" fill="#E3F6FF"/>
<path d="M268.035 233.143L295.046 263.745L252.98 239.44C257.732 236.753 262.786 234.639 268.035 233.143Z" fill="#E3F6FF"/>
<path d="M295.06 263.77L337.126 288.058C332.376 290.748 327.325 292.87 322.079 294.38L295.06 263.77Z" fill="#E3F6FF"/>
<path d="M242.631 250.436V267.476C242.199 265.919 241.978 264.311 241.975 262.695V250.436H242.631Z" fill="#0057FF"/>
<path opacity="0.3" d="M242.631 250.436V267.476C242.199 265.919 241.978 264.311 241.975 262.695V250.436H242.631Z" fill="#0042C2"/>
<path d="M295.027 250.453L242.629 255.242C241.759 252.105 241.759 248.792 242.629 245.656L295.027 250.453Z" fill="#0057FF"/>
<path d="M295.027 250.436L242.629 245.639C243.614 242.244 245.367 239.121 247.754 236.513L295.027 250.436Z" fill="#0057FF"/>
<path d="M257.52 228.78L295.027 250.436L247.754 236.496C250.574 233.417 253.872 230.811 257.52 228.78Z" fill="#0057FF"/>
<path d="M270.953 223.139L295.045 250.428L257.522 228.78C261.76 226.376 266.269 224.482 270.953 223.139Z" fill="#0057FF"/>
<path d="M286.745 220.187L295.044 250.428L270.952 223.139C276.107 221.639 281.397 220.65 286.745 220.187Z" fill="#0057FF"/>
<path d="M303.399 220.187L295.06 250.428L286.761 220.187C292.295 219.677 297.865 219.677 303.399 220.187Z" fill="#0057FF"/>
<path d="M319.152 223.139L295.06 250.428L303.399 220.187C308.734 220.653 314.01 221.642 319.152 223.139Z" fill="#0057FF"/>
<g opacity="0.2">
<path opacity="0.2" d="M295.027 250.453L242.629 255.242C241.759 252.105 241.759 248.792 242.629 245.656L295.027 250.453Z" fill="white"/>
<path opacity="0.2" d="M295.027 250.436L242.629 245.639C243.614 242.244 245.367 239.121 247.754 236.513L295.027 250.436Z" fill="white"/>
<path opacity="0.2" d="M257.521 228.78L295.028 250.436L247.755 236.496C250.575 233.417 253.872 230.811 257.521 228.78Z" fill="white"/>
<path opacity="0.2" d="M270.951 223.139L295.043 250.428L257.52 228.78C261.758 226.376 266.267 224.482 270.951 223.139Z" fill="white"/>
<path opacity="0.2" d="M286.743 220.187L295.041 250.428L270.949 223.139C276.104 221.639 281.394 220.65 286.743 220.187Z" fill="white"/>
<path opacity="0.2" d="M303.399 220.187L295.06 250.428L286.761 220.187C292.295 219.677 297.865 219.677 303.399 220.187Z" fill="white"/>
<path opacity="0.2" d="M319.152 223.139L295.061 250.428L303.4 220.187C308.735 220.653 314.011 221.642 319.152 223.139Z" fill="white"/>
</g>
<path d="M339.479 258.62L331.615 266L325.638 271.65L319.939 277.012L319.176 277.726V289.968C323.859 288.626 328.368 286.735 332.608 284.335C336.261 282.287 339.561 279.665 342.382 276.57C344.768 273.97 346.517 270.851 347.491 267.459C347.925 265.903 348.149 264.295 348.155 262.679V250.444L339.479 258.62Z" fill="#0057FF"/>
<path opacity="0.3" d="M339.479 258.62L331.615 266L325.638 271.65L319.939 277.012L319.176 277.726V289.968C323.859 288.626 328.368 286.735 332.608 284.335C336.261 282.287 339.561 279.665 342.382 276.57C344.768 273.97 346.517 270.851 347.491 267.459C347.925 265.903 348.149 264.295 348.155 262.679V250.444L339.479 258.62Z" fill="#0042C2"/>
<path d="M342.352 236.529C344.735 239.14 346.488 242.262 347.477 245.656L295.07 250.453L342.352 236.529Z" fill="#0057FF"/>
<path d="M348.132 250.461C348.126 252.08 347.902 253.69 347.468 255.25L331.593 253.79L295.07 250.445L339.457 246.345L347.468 245.615C347.907 247.193 348.131 248.823 348.132 250.461Z" fill="#0057FF"/>
<path d="M347.468 255.25C346.492 258.64 344.744 261.759 342.36 264.36L325.615 259.44L295.07 250.42L331.593 253.766L347.468 255.25Z" fill="#0057FF"/>
<path d="M342.359 264.36C339.538 267.455 336.237 270.077 332.584 272.125L319.915 264.795L295.078 250.461L325.623 259.481L342.359 264.36Z" fill="#0057FF"/>
<path d="M332.583 228.78L295.06 250.444L319.152 223.155C323.834 224.496 328.343 226.384 332.583 228.78Z" fill="#0057FF"/>
<path d="M332.585 228.78C336.235 230.823 339.532 233.44 342.352 236.529L295.07 250.469L332.585 228.78Z" fill="#0057FF"/>
<path d="M332.584 272.125C328.344 274.523 323.836 276.411 319.153 277.75L295.078 250.461L319.915 264.795L332.584 272.125Z" fill="#0057FF"/>
<g opacity="0.2">
<path opacity="0.2" d="M342.35 236.529C344.733 239.139 346.486 242.261 347.475 245.655L295.069 250.452L342.35 236.529Z" fill="white"/>
<path opacity="0.2" d="M348.131 250.461C348.124 252.08 347.901 253.69 347.467 255.25L331.591 253.79L295.069 250.445L339.455 246.345L347.467 245.615C347.905 247.193 348.129 248.823 348.131 250.461Z" fill="white"/>
<path opacity="0.2" d="M347.467 255.25C346.491 258.64 344.742 261.759 342.358 264.36L325.614 259.44L295.069 250.42L331.591 253.766L347.467 255.25Z" fill="white"/>
<path opacity="0.2" d="M342.357 264.36C339.536 267.455 336.235 270.077 332.582 272.125L319.913 264.794L295.076 250.461L325.621 259.481L342.357 264.36Z" fill="white"/>
<path opacity="0.2" d="M332.583 228.78L295.06 250.444L319.152 223.155C323.834 224.496 328.343 226.384 332.583 228.78Z" fill="white"/>
<path opacity="0.2" d="M332.584 228.78C336.233 230.823 339.531 233.439 342.35 236.529L295.069 250.469L332.584 228.78Z" fill="white"/>
<path opacity="0.2" d="M332.582 272.125C328.342 274.523 323.834 276.411 319.151 277.751L295.076 250.461L319.913 264.795L332.582 272.125Z" fill="white"/>
</g>
<path d="M319.161 277.759V290.001L295.044 262.679V250.428L319.161 277.759Z" fill="#263238"/>
<path d="M295.043 262.679L242.629 267.492V255.242L295.043 250.428V262.679Z" fill="#0057FF"/>
<path opacity="0.1" d="M295.043 262.679L242.629 267.492V255.242L295.043 250.428V262.679Z" fill="#0042C2"/>
<path d="M174.659 263.753C173.56 259.948 171.596 256.448 168.919 253.528C165.762 250.06 162.065 247.125 157.972 244.836C153.218 242.142 148.162 240.02 142.909 238.513C137.129 236.844 131.2 235.746 125.205 235.233C119.011 234.668 112.778 234.668 106.583 235.233C100.586 235.747 94.654 236.845 88.8711 238.513C83.6159 240.02 78.557 242.142 73.7995 244.836C69.7054 247.123 66.0086 250.059 62.8525 253.528C60.1762 256.448 58.2116 259.948 57.1125 263.753C56.1406 267.273 56.1406 270.991 57.1125 274.511C58.2098 278.315 60.1746 281.813 62.8525 284.729C66.0079 288.201 69.7048 291.139 73.7995 293.429C78.5483 296.12 83.5991 298.24 88.8465 299.743C94.6327 301.409 100.567 302.507 106.567 303.023C112.762 303.581 118.994 303.581 125.189 303.023C131.188 302.507 137.123 301.409 142.909 299.743C148.158 298.24 153.209 296.118 157.956 293.421C162.057 291.135 165.759 288.2 168.919 284.729C171.597 281.813 173.562 278.315 174.659 274.511C175.631 270.991 175.631 267.273 174.659 263.753Z" fill="#005986"/>
<path d="M56.3752 263.745H175.382V269.813L56.3752 269.476V263.745Z" fill="#005986"/>
<path d="M106.601 229.83L115.9 263.745L88.8889 233.142C94.6707 231.463 100.603 230.353 106.601 229.83Z" fill="#E3F6FF"/>
<path d="M125.189 229.83L115.891 263.745L106.6 229.83C112.784 229.266 119.006 229.266 125.189 229.83Z" fill="#E3F6FF"/>
<path d="M142.894 233.142L115.892 263.745L125.19 229.83C131.186 230.353 137.115 231.462 142.894 233.142Z" fill="#E3F6FF"/>
<path d="M168.92 248.157C171.596 251.08 173.561 254.582 174.66 258.39L115.907 263.761L168.92 248.157Z" fill="#E3F6FF"/>
<path d="M174.66 258.39C175.632 261.908 175.632 265.623 174.66 269.14L115.907 263.761L174.66 258.39Z" fill="#E3F6FF"/>
<path d="M174.66 269.14C173.561 272.946 171.596 276.446 168.92 279.366L115.907 263.786L174.66 269.14Z" fill="#E3F6FF"/>
<path d="M168.921 279.366C165.759 282.832 162.06 285.766 157.966 288.058L115.883 263.761L168.921 279.366Z" fill="#E3F6FF"/>
<path d="M115.889 263.769L142.908 294.38C137.122 296.046 131.187 297.144 125.188 297.66L115.873 263.745L115.889 263.769Z" fill="#E3F6FF"/>
<path d="M115.874 263.777L125.189 297.66C119.006 298.219 112.784 298.219 106.6 297.66L115.874 263.777Z" fill="#E3F6FF"/>
<path d="M115.865 263.77L106.599 297.66C100.6 297.145 94.6652 296.046 88.8789 294.38L115.865 263.77Z" fill="#E3F6FF"/>
<path d="M115.867 263.77L88.8065 294.38C83.5743 292.867 78.5378 290.746 73.8005 288.058L115.867 263.77Z" fill="#E3F6FF"/>
<path d="M115.856 263.761L62.843 279.341C60.1665 276.421 58.2019 272.921 57.103 269.116L115.856 263.761Z" fill="#E3F6FF"/>
<path d="M115.857 263.761L57.1042 269.14C56.1326 265.623 56.1326 261.908 57.1042 258.39L115.857 263.761Z" fill="#E3F6FF"/>
<path d="M115.856 263.753L57.103 258.382C58.2022 254.574 60.1666 251.072 62.843 248.148L115.856 263.753Z" fill="#E3F6FF"/>
<path d="M73.7995 239.44L115.857 263.72L62.8525 248.14C66.0074 244.668 69.7044 241.729 73.7995 239.44Z" fill="#E3F6FF"/>
<path d="M157.958 239.44L115.892 263.72L142.894 233.118C148.148 234.621 153.205 236.743 157.958 239.44Z" fill="#E3F6FF"/>
<path d="M157.958 239.44C162.059 241.735 165.761 244.679 168.921 248.157L115.917 263.737L157.958 239.44Z" fill="#E3F6FF"/>
<path d="M115.865 263.753L73.7992 288.058C69.7038 285.768 66.0045 282.833 62.844 279.366L115.857 263.786L115.865 263.753Z" fill="#E3F6FF"/>
<path d="M88.8557 233.143L115.867 263.745L73.8005 239.44C78.5524 236.753 83.6061 234.639 88.8557 233.143Z" fill="#E3F6FF"/>
<path d="M115.892 263.77L157.958 288.058C153.207 290.748 148.157 292.87 142.911 294.38L115.892 263.77Z" fill="#E3F6FF"/>
<path d="M131.701 242.72L138.482 235.028C138.482 226.008 127.462 225.787 122.591 225.352C117.72 224.918 109.364 222.122 109.364 232.388L111.693 240.883C118.417 240.451 125.168 241.071 131.701 242.72Z" fill="#0057FF"/>
<path opacity="0.6" d="M131.701 242.72L138.482 235.028C138.482 226.008 127.462 225.787 122.591 225.352C117.72 224.918 109.364 222.122 109.364 232.388L111.693 240.883C118.417 240.451 125.168 241.071 131.701 242.72Z" fill="white"/>
<path d="M131.701 230.642L138.482 222.958C128.987 220.487 119.149 219.595 109.364 220.318L111.693 228.78C118.419 228.356 125.169 228.984 131.701 230.642Z" fill="#0057FF"/>
<path opacity="0.8" d="M131.701 230.642L138.482 222.958C128.987 220.487 119.149 219.595 109.364 220.318L111.693 228.78C118.419 228.356 125.169 228.984 131.701 230.642Z" fill="white"/>
<path d="M111.693 228.813V240.9L109.364 232.405V220.318L111.693 228.813Z" fill="#0057FF"/>
<path d="M138.482 222.958L131.701 230.641V242.736L138.482 235.045V222.958Z" fill="#0057FF"/>
<g opacity="0.6">
<path opacity="0.6" d="M111.693 228.813V240.9L109.364 232.405V220.318L111.693 228.813Z" fill="white"/>
<path opacity="0.6" d="M138.482 222.958L131.701 230.641V242.736L138.482 235.045V222.958Z" fill="white"/>
</g>
<path d="M135.011 231.617V243.704C137.841 244.618 140.571 245.813 143.162 247.271C145.423 248.555 147.5 250.138 149.337 251.978L162.637 248.067C159.993 245.367 156.981 243.054 153.691 241.195C150.058 239.112 146.172 230.666 135.011 231.617Z" fill="#0057FF"/>
<path opacity="0.6" d="M135.011 231.617V243.704C137.841 244.618 140.571 245.813 143.162 247.271C145.423 248.555 147.5 250.138 149.337 251.978L162.637 248.067C159.993 245.367 156.981 243.054 153.691 241.195C150.058 239.112 146.172 230.666 135.011 231.617Z" fill="#0042C2"/>
<path d="M141.793 223.942L135.011 231.617C137.844 232.523 140.575 233.719 143.162 235.184C145.423 236.468 147.5 238.051 149.337 239.891L162.637 235.979C159.997 233.275 156.985 230.961 153.691 229.108C149.921 226.965 145.932 225.233 141.793 223.942Z" fill="#0057FF"/>
<path opacity="0.3" d="M141.793 223.942L135.011 231.617C137.844 232.523 140.575 233.719 143.162 235.184C145.423 236.468 147.5 238.051 149.337 239.891L162.637 235.979C159.997 233.275 156.985 230.961 153.691 229.108C149.921 226.965 145.932 225.233 141.793 223.942Z" fill="#0042C2"/>
<path d="M149.339 239.891L162.64 235.971V248.066L149.339 251.978V239.891Z" fill="#0057FF"/>
<path opacity="0.6" d="M149.339 239.891L162.64 235.971V248.066L149.339 251.978V239.891Z" fill="#0042C2"/>
<path d="M169.315 250.616H164.821C164.657 250.403 164.518 250.19 164.354 249.977L151.037 241.777V253.872C153.874 257.521 154.948 261.506 154.21 265.417L168.921 266.787C169.17 265.567 169.294 264.325 169.29 263.08L169.315 250.616Z" fill="#0057FF"/>
<path opacity="0.6" d="M169.315 250.616H164.821C164.657 250.403 164.518 250.19 164.354 249.977L151.037 241.777V253.872C153.874 257.521 154.948 261.506 154.21 265.417L168.921 266.787C169.17 265.567 169.294 264.325 169.29 263.08L169.315 250.616Z" fill="#0042C2"/>
<path d="M154.201 253.38L168.919 254.7C170.117 249.018 168.6 243.171 164.344 237.89L151.027 241.802C153.864 245.451 154.98 249.444 154.201 253.38Z" fill="#0057FF"/>
<path opacity="0.3" d="M154.201 253.38L168.919 254.7C170.117 249.018 168.6 243.171 164.344 237.89L151.027 241.802C153.864 245.451 154.98 249.444 154.201 253.38Z" fill="#0042C2"/>
<path d="M168.919 254.7V266.795L154.2 265.442V253.355L168.919 254.7Z" fill="#0057FF"/>
<path opacity="0.6" d="M168.919 254.7V266.795L154.2 265.442V253.355L168.919 254.7Z" fill="#0042C2"/>
<path d="M108.02 241.244V229.149C99.8202 225.369 84.5519 229.207 79.4351 240.465L89.9639 246.55C95.6192 243.721 101.734 241.925 108.02 241.244Z" fill="#0057FF"/>
<path opacity="0.3" d="M108.02 241.244V229.149C99.8202 225.369 84.5519 229.207 79.4351 240.465L89.9639 246.55C95.6192 243.721 101.734 241.925 108.02 241.244Z" fill="#0042C2"/>
<path d="M108.019 229.149L105.682 220.629C95.7686 221.745 86.6912 224.475 79.4424 228.378L89.9712 234.455C95.624 231.627 101.736 229.831 108.019 229.149Z" fill="#0057FF"/>
<path opacity="0.1" d="M108.019 229.149L105.682 220.629C95.7686 221.745 86.6912 224.475 79.4424 228.378L89.9712 234.455C95.624 231.627 101.736 229.831 108.019 229.149Z" fill="#0042C2"/>
<path d="M89.9639 234.455V246.55L79.4351 240.465V228.378L89.9639 234.455Z" fill="#263238"/>
<path d="M78.9493 235.979L76.7845 241.974C69.7079 246.353 65.2389 251.625 63.4021 257.144L78.1621 258.489C79.5151 254.708 82.5983 251.109 87.3707 248.075V235.979H78.9493Z" fill="#0057FF"/>
<path opacity="0.3" d="M78.9493 235.979L76.7845 241.974C69.7079 246.353 65.2389 251.625 63.4021 257.144L78.1621 258.489C79.5151 254.708 82.5983 251.109 87.3707 248.075V235.979H78.9493Z" fill="#0042C2"/>
<path d="M87.3379 235.98L76.7845 229.887C69.7079 234.258 65.2389 239.539 63.4021 245.049L78.1621 246.402C79.4823 242.622 82.5655 239.014 87.3379 235.98Z" fill="#0057FF"/>
<path opacity="0.1" d="M87.3379 235.98L76.7845 229.887C69.7079 234.258 65.2389 239.539 63.4021 245.049L78.1621 246.402C79.4823 242.622 82.5655 239.014 87.3379 235.98Z" fill="#0042C2"/>
<path d="M63.4021 245.049V257.144L78.1293 258.489V246.402L63.4021 245.049Z" fill="#263238"/>
<path d="M77.5468 260.613V248.518L73.168 248.124L62.4424 250.92V262.999C62.5111 267.798 64.2509 272.423 67.3624 276.078L80.6792 272.166C77.8994 268.517 76.817 264.524 77.5468 260.613Z" fill="#0057FF"/>
<path opacity="0.3" d="M77.5468 260.613V248.518L73.168 248.124L62.4424 250.92V262.999C62.5111 267.798 64.2509 272.423 67.3624 276.078L80.6792 272.166C77.8994 268.517 76.817 264.524 77.5468 260.613Z" fill="#0042C2"/>
<path d="M67.4124 263.991L80.7291 260.071V272.166L67.4124 276.078V263.991Z" fill="#263238"/>
<path d="M77.5567 248.518L62.7967 247.173C61.5995 252.864 63.1165 258.702 67.3723 263.991L80.6891 260.071C77.9011 256.422 76.8187 252.429 77.5567 248.518Z" fill="#0057FF"/>
<path opacity="0.1" d="M77.5567 248.518L62.7967 247.173C61.5995 252.864 63.1165 258.702 67.3723 263.991L80.6891 260.071C77.9011 256.422 76.8187 252.429 77.5567 248.518Z" fill="#0042C2"/>
<path d="M93.3081 276.061C87.0679 272.461 83.9519 267.746 83.9519 263.031V250.92H147.805V263.007C147.805 267.73 144.689 272.445 138.449 276.045C125.985 283.261 105.78 283.261 93.3081 276.061Z" fill="#005986"/>
<path d="M115.882 269.37C133.512 269.37 147.804 261.117 147.804 250.937C147.804 240.756 133.512 232.503 115.882 232.503C98.2515 232.503 83.9592 240.756 83.9592 250.937C83.9592 261.117 98.2515 269.37 115.882 269.37Z" fill="#E3F6FF"/>
<path d="M89.9629 279.522V277.98L69.1104 265.901V277.98C71.7558 280.682 74.7705 282.995 78.0647 284.852C81.8347 286.994 85.8236 288.726 89.9629 290.018L96.7361 282.342C94.4068 281.584 92.1418 280.641 89.9629 279.522Z" fill="#0057FF"/>
<path opacity="0.3" d="M89.9629 279.522V277.98L69.1104 265.901V277.98C71.7558 280.682 74.7705 282.995 78.0647 284.852C81.8347 286.994 85.8236 288.726 89.9629 290.018L96.7361 282.342C94.4068 281.584 92.1418 280.641 89.9629 279.522Z" fill="#0042C2"/>
<path d="M88.5601 266.688C86.2968 265.408 84.217 263.828 82.3773 261.99L69.0769 265.901C71.7245 268.601 74.7388 270.914 78.0313 272.773C81.8029 274.912 85.7914 276.644 89.9295 277.939L96.7027 270.255C93.8733 269.349 91.1447 268.154 88.5601 266.688Z" fill="#0057FF"/>
<path opacity="0.1" d="M88.5601 266.688C86.2968 265.408 84.217 263.828 82.3773 261.99L69.0769 265.901C71.7245 268.601 74.7388 270.914 78.0313 272.773C81.8029 274.912 85.7914 276.644 89.9295 277.939L96.7027 270.255C93.8733 269.349 91.1447 268.154 88.5601 266.688Z" fill="#0042C2"/>
<path d="M89.9604 290.026V277.939L96.7337 270.255V282.35L89.9604 290.026Z" fill="#263238"/>
<path d="M93.2747 278.915V291.01C102.77 293.481 112.608 294.373 122.393 293.65V281.564L93.2747 278.915Z" fill="#0057FF"/>
<path opacity="0.1" d="M93.2747 278.915V291.01C102.77 293.481 112.608 294.373 122.393 293.65V281.564L93.2747 278.915Z" fill="#0042C2"/>
<path d="M100.04 271.231L93.259 278.915C102.755 281.385 112.592 282.28 122.377 281.564L120.065 273.06C113.336 273.497 106.579 272.88 100.04 271.231Z" fill="#0057FF"/>
<path opacity="0.2" d="M100.04 271.231L93.259 278.915C102.755 281.385 112.592 282.28 122.377 281.564L120.065 273.06C113.336 273.497 106.579 272.88 100.04 271.231Z" fill="white"/>
<path d="M144.42 277.98L154.982 284.081C162.058 279.71 166.527 274.43 168.364 268.911V256.824L153.604 267.566C152.276 271.346 149.192 274.954 144.42 277.98Z" fill="#0057FF"/>
<path opacity="0.1" d="M144.42 277.98L154.982 284.081C162.058 279.71 166.527 274.43 168.364 268.911V256.824L153.604 267.566C152.276 271.346 149.192 274.954 144.42 277.98Z" fill="#0042C2"/>
<path d="M144.42 265.894L154.982 271.994C162.058 267.616 166.527 262.343 168.364 256.824L153.604 255.479C152.276 259.26 149.192 262.86 144.42 265.894Z" fill="#0057FF"/>
<path opacity="0.2" d="M144.42 265.894L154.982 271.994C162.058 267.616 166.527 262.343 168.364 256.824L153.604 255.479C152.276 259.26 149.192 262.86 144.42 265.894Z" fill="white"/>
<path d="M154.973 271.994V284.081L144.42 277.988V265.893L154.973 271.994Z" fill="#0057FF"/>
<path opacity="0.3" d="M154.973 271.994V284.081L144.42 277.988V265.893L154.973 271.994Z" fill="#0042C2"/>
<path d="M126.074 281.26V284.54C125.295 284.663 124.524 284.77 123.737 284.86L126.074 293.372C135.627 292.306 144.762 289.723 152.314 285.639V273.511L126.074 281.26Z" fill="#0057FF"/>
<path opacity="0.1" d="M126.074 281.26V284.54C125.295 284.663 124.524 284.77 123.737 284.86L126.074 293.372C135.627 292.306 144.762 289.723 152.314 285.639V273.511L126.074 281.26Z" fill="#0042C2"/>
<path d="M123.737 272.732L126.074 281.26C135.627 280.194 144.762 277.619 152.314 273.536L141.761 267.435C136.12 270.269 130.014 272.063 123.737 272.732Z" fill="#0057FF"/>
<path opacity="0.2" d="M123.737 272.732L126.074 281.26C135.627 280.194 144.762 277.619 152.314 273.536L141.761 267.435C136.12 270.269 130.014 272.063 123.737 272.732Z" fill="white"/>
<path d="M126.074 281.235V293.322L123.737 284.827V272.732L126.074 281.235Z" fill="#0057FF"/>
<path opacity="0.3" d="M126.074 281.235V293.322L123.737 284.827V272.732L126.074 281.235Z" fill="#0042C2"/>
<path d="M330.717 200.359C330.688 199.825 330.534 199.307 330.267 198.844C330.001 198.381 329.63 197.987 329.183 197.694L306.978 184.877C306.158 184.385 305.444 184.787 305.444 185.771V207.23C305.472 207.764 305.626 208.283 305.892 208.746C306.158 209.209 306.53 209.603 306.978 209.895L316.277 215.258L319.212 227.14C319.202 227.357 319.279 227.57 319.426 227.731C319.573 227.891 319.778 227.987 319.995 227.997C320.213 228.007 320.425 227.93 320.586 227.783C320.747 227.636 320.842 227.431 320.852 227.214L323.542 219.448L329.224 222.728C330.044 223.22 330.758 222.818 330.758 221.843L330.717 200.359Z" fill="#0057FF"/>
<path opacity="0.5" d="M330.717 200.359C330.688 199.825 330.534 199.307 330.267 198.844C330.001 198.381 329.63 197.987 329.183 197.694L306.978 184.877C306.158 184.385 305.444 184.787 305.444 185.771V207.23C305.472 207.764 305.626 208.283 305.892 208.746C306.158 209.209 306.53 209.603 306.978 209.895L316.277 215.258L319.212 227.14C319.202 227.357 319.279 227.57 319.426 227.731C319.573 227.891 319.778 227.987 319.995 227.997C320.213 228.007 320.425 227.93 320.586 227.783C320.747 227.636 320.842 227.431 320.852 227.214L323.542 219.448L329.224 222.728C330.044 223.22 330.758 222.818 330.758 221.843L330.717 200.359Z" fill="white"/>
<path d="M313.858 194.652C314.311 194.909 314.73 195.223 315.104 195.586C315.439 195.912 315.738 196.272 315.998 196.661C316.223 197.004 316.407 197.373 316.547 197.759C316.663 198.088 316.737 198.429 316.769 198.776C316.769 199.129 316.81 199.498 316.81 199.883C316.81 200.269 316.81 200.621 316.769 200.949C316.749 201.213 316.673 201.47 316.547 201.704C316.425 201.919 316.23 202.084 315.998 202.171C315.705 202.251 315.397 202.251 315.104 202.171C314.663 202.069 314.242 201.894 313.858 201.654C313.402 201.399 312.981 201.088 312.603 200.728C312.267 200.411 311.97 200.056 311.717 199.67C311.289 199.036 311.021 198.307 310.938 197.546C310.938 197.194 310.938 196.825 310.938 196.439C310.938 196.054 310.938 195.701 310.938 195.381C310.964 195.114 311.042 194.855 311.168 194.619C311.287 194.4 311.483 194.233 311.717 194.151C312.004 194.061 312.309 194.047 312.603 194.11C313.05 194.215 313.475 194.399 313.858 194.652ZM321.697 199.645C321.781 199.584 321.88 199.547 321.984 199.539C322.133 199.548 322.277 199.596 322.402 199.678L323.575 200.359C323.709 200.435 323.826 200.538 323.919 200.662C323.996 200.767 324.039 200.893 324.042 201.023C324.045 201.05 324.045 201.078 324.042 201.105C324.028 201.135 324.008 201.163 323.985 201.187L314.325 208.321C314.241 208.383 314.142 208.423 314.038 208.436C313.888 208.426 313.743 208.375 313.62 208.288L312.447 207.616C312.311 207.538 312.193 207.432 312.103 207.304C312.024 207.203 311.978 207.08 311.972 206.952C311.965 206.922 311.965 206.891 311.972 206.861C311.983 206.829 312.003 206.801 312.029 206.779L321.697 199.645ZM314.891 199.645C314.902 199.525 314.902 199.405 314.891 199.285V198.227C314.902 198.099 314.902 197.97 314.891 197.841C314.864 197.553 314.778 197.274 314.637 197.021C314.448 196.714 314.178 196.465 313.858 196.3C313.48 196.078 313.218 196.021 313.038 196.119C312.96 196.182 312.897 196.26 312.853 196.349C312.809 196.439 312.786 196.536 312.783 196.636C312.783 196.71 312.783 196.825 312.783 196.997C312.783 197.169 312.783 197.333 312.783 197.513C312.783 197.694 312.783 197.874 312.783 198.046C312.783 198.219 312.783 198.35 312.783 198.44C312.814 198.727 312.9 199.006 313.038 199.26C313.239 199.572 313.523 199.822 313.858 199.982C314.235 200.203 314.497 200.26 314.637 200.162C314.711 200.103 314.771 200.028 314.814 199.943C314.856 199.858 314.88 199.765 314.883 199.67L314.891 199.645ZM322.32 206.378C322.776 206.635 323.197 206.949 323.575 207.312C323.907 207.638 324.204 207.998 324.46 208.387C324.692 208.727 324.877 209.096 325.01 209.485C325.124 209.815 325.201 210.156 325.239 210.502C325.239 210.855 325.239 211.224 325.239 211.609C325.239 211.995 325.239 212.347 325.239 212.675C325.214 212.939 325.136 213.196 325.01 213.43C324.954 213.54 324.876 213.638 324.782 213.718C324.688 213.799 324.578 213.859 324.46 213.897C324.171 213.982 323.864 213.982 323.575 213.897C323.131 213.795 322.707 213.62 322.32 213.38C321.867 213.125 321.448 212.814 321.074 212.454C320.737 212.135 320.438 211.781 320.18 211.396C319.953 211.053 319.769 210.684 319.631 210.297C319.516 209.968 319.442 209.627 319.409 209.28C319.409 208.92 319.409 208.551 319.409 208.165C319.409 207.78 319.409 207.427 319.409 207.107C319.428 206.84 319.503 206.58 319.631 206.345C319.751 206.128 319.946 205.961 320.18 205.877C320.473 205.805 320.78 205.805 321.074 205.877C321.517 205.978 321.939 206.155 322.32 206.402V206.378ZM323.362 211.396C323.368 211.276 323.368 211.155 323.362 211.035V210.002C323.362 209.838 323.362 209.707 323.362 209.625C323.327 209.338 323.241 209.06 323.107 208.805C322.904 208.495 322.62 208.246 322.287 208.083C321.91 207.862 321.648 207.804 321.508 207.903C321.431 207.965 321.368 208.044 321.324 208.133C321.28 208.222 321.256 208.32 321.254 208.419C321.246 208.539 321.246 208.66 321.254 208.78C321.254 208.944 321.254 209.116 321.254 209.297C321.254 209.477 321.254 209.658 321.254 209.838C321.246 209.966 321.246 210.095 321.254 210.223C321.28 210.512 321.366 210.791 321.508 211.043C321.695 211.352 321.965 211.602 322.287 211.765C322.665 211.986 322.927 212.044 323.107 211.945C323.184 211.881 323.247 211.801 323.29 211.71C323.334 211.62 323.358 211.521 323.362 211.421V211.396Z" fill="#FAFAFA"/>
<path d="M234.652 118.08C234.622 117.547 234.468 117.028 234.202 116.565C233.935 116.103 233.564 115.709 233.118 115.415L210.913 102.607C210.093 102.115 209.379 102.508 209.379 103.492V124.952C209.408 125.486 209.562 126.006 209.828 126.471C210.094 126.935 210.466 127.33 210.913 127.625L220.212 132.988L223.147 144.845C223.179 145.028 223.273 145.196 223.413 145.319C223.553 145.442 223.731 145.514 223.917 145.523C224.103 145.531 224.287 145.476 224.438 145.366C224.588 145.256 224.697 145.098 224.746 144.919L227.436 137.153L233.118 140.433C233.938 140.925 234.652 140.532 234.652 139.548V118.08Z" fill="#0057FF"/>
<path opacity="0.5" d="M234.652 118.08C234.622 117.547 234.468 117.028 234.202 116.565C233.935 116.103 233.564 115.709 233.118 115.415L210.913 102.607C210.093 102.115 209.379 102.508 209.379 103.492V124.952C209.408 125.486 209.562 126.006 209.828 126.471C210.094 126.935 210.466 127.33 210.913 127.625L220.212 132.988L223.147 144.845C223.179 145.028 223.273 145.196 223.413 145.319C223.553 145.442 223.731 145.514 223.917 145.523C224.103 145.531 224.287 145.476 224.438 145.366C224.588 145.256 224.697 145.098 224.746 144.919L227.436 137.153L233.118 140.433C233.938 140.925 234.652 140.532 234.652 139.548V118.08Z" fill="white"/>
<path d="M217.793 112.406C218.247 112.663 218.665 112.978 219.04 113.34C219.373 113.668 219.672 114.028 219.934 114.415C220.162 114.756 220.347 115.126 220.483 115.513C220.599 115.842 220.673 116.183 220.704 116.53C220.704 116.883 220.745 117.252 220.745 117.637C220.745 118.023 220.745 118.375 220.704 118.703C220.686 118.97 220.61 119.23 220.483 119.466C220.364 119.682 220.168 119.846 219.934 119.925C219.645 120.019 219.336 120.033 219.04 119.966C218.597 119.864 218.176 119.686 217.793 119.441C217.336 119.189 216.914 118.877 216.539 118.515C216.203 118.198 215.906 117.843 215.653 117.457C215.422 117.117 215.237 116.747 215.104 116.358C214.99 116.029 214.913 115.688 214.874 115.341C214.874 114.98 214.874 114.611 214.874 114.234C214.874 113.857 214.874 113.488 214.874 113.168C214.9 112.901 214.978 112.642 215.104 112.406C215.223 112.187 215.418 112.02 215.653 111.938C215.944 111.866 216.248 111.866 216.539 111.938C216.981 112.02 217.405 112.179 217.793 112.406ZM225.633 117.399C225.718 117.341 225.817 117.305 225.92 117.293C226.07 117.303 226.215 117.354 226.338 117.44L227.511 118.113C227.643 118.192 227.76 118.295 227.855 118.416C227.931 118.522 227.974 118.647 227.978 118.777C227.981 118.807 227.981 118.837 227.978 118.867C227.962 118.896 227.942 118.924 227.921 118.949L218.261 126.083C218.175 126.141 218.077 126.178 217.974 126.19C217.824 126.18 217.679 126.129 217.556 126.042L216.383 125.37C216.247 125.296 216.129 125.192 216.039 125.066C215.963 124.961 215.92 124.835 215.916 124.706C215.908 124.679 215.908 124.65 215.916 124.624C215.927 124.589 215.947 124.558 215.973 124.533L225.633 117.399ZM218.827 117.399C218.839 117.279 218.839 117.159 218.827 117.039V115.981C218.838 115.855 218.838 115.729 218.827 115.604C218.803 115.315 218.716 115.035 218.572 114.784C218.386 114.472 218.116 114.219 217.793 114.054C217.416 113.841 217.154 113.775 216.973 113.882C216.898 113.945 216.836 114.024 216.792 114.113C216.748 114.202 216.723 114.299 216.719 114.398C216.719 114.464 216.719 114.587 216.719 114.751C216.719 114.915 216.719 115.087 216.719 115.276C216.719 115.464 216.719 115.636 216.719 115.809C216.719 115.981 216.719 116.112 216.719 116.194C216.751 116.481 216.838 116.759 216.973 117.014C217.175 117.326 217.459 117.576 217.793 117.736C218.171 117.957 218.433 118.014 218.572 117.916C218.648 117.858 218.71 117.783 218.754 117.698C218.798 117.613 218.823 117.52 218.827 117.424V117.399ZM226.256 124.132C226.714 124.389 227.136 124.707 227.511 125.075C227.845 125.396 228.142 125.753 228.396 126.141C228.626 126.482 228.811 126.851 228.946 127.239C229.059 127.569 229.136 127.91 229.175 128.256C229.175 128.617 229.175 128.986 229.175 129.371C229.175 129.757 229.175 130.109 229.175 130.429C229.15 130.696 229.072 130.955 228.946 131.192C228.827 131.411 228.631 131.577 228.396 131.659C228.106 131.74 227.8 131.74 227.511 131.659C227.067 131.557 226.643 131.383 226.256 131.143C225.806 130.883 225.388 130.572 225.009 130.216C224.675 129.893 224.375 129.536 224.116 129.15C223.89 128.806 223.706 128.438 223.566 128.051C223.451 127.723 223.376 127.381 223.345 127.034C223.345 126.682 223.304 126.313 223.304 125.927C223.304 125.542 223.304 125.189 223.345 124.861C223.365 124.595 223.44 124.335 223.566 124.099C223.689 123.886 223.884 123.723 224.116 123.64C224.404 123.547 224.712 123.53 225.009 123.59C225.454 123.706 225.876 123.897 226.256 124.156V124.132ZM227.297 129.15C227.304 129.03 227.304 128.909 227.297 128.789V127.756C227.297 127.592 227.297 127.461 227.297 127.379C227.269 127.091 227.183 126.812 227.043 126.559C226.842 126.244 226.559 125.992 226.223 125.829C225.846 125.616 225.583 125.55 225.444 125.657C225.365 125.718 225.301 125.796 225.257 125.886C225.213 125.975 225.19 126.074 225.19 126.173C225.181 126.291 225.181 126.409 225.19 126.526C225.19 126.69 225.19 126.862 225.19 127.051C225.19 127.239 225.19 127.412 225.19 127.584C225.182 127.712 225.182 127.841 225.19 127.969C225.214 128.258 225.301 128.538 225.444 128.789C225.63 129.101 225.9 129.354 226.223 129.519C226.6 129.732 226.874 129.79 227.043 129.691C227.121 129.629 227.184 129.55 227.228 129.461C227.271 129.372 227.295 129.274 227.297 129.175V129.15Z" fill="#FAFAFA"/>
<path d="M82.1988 199.695C82.228 199.161 82.3819 198.643 82.6482 198.18C82.9146 197.717 83.2859 197.323 83.7322 197.03L105.938 184.213C106.758 183.721 107.471 184.123 107.471 185.107V206.566C107.443 207.1 107.29 207.619 107.024 208.082C106.757 208.545 106.385 208.939 105.938 209.231L96.639 214.594L93.7034 226.46C93.7132 226.677 93.6362 226.889 93.4893 227.05C93.3425 227.211 93.1378 227.307 92.9203 227.316C92.7028 227.326 92.4904 227.249 92.3297 227.102C92.169 226.955 92.0732 226.751 92.0634 226.533L89.382 218.768L83.6994 222.048C82.8794 222.54 82.166 222.138 82.166 221.162L82.1988 199.695Z" fill="#0057FF"/>
<g opacity="0.5">
<path opacity="0.5" d="M82.1988 199.695C82.228 199.161 82.3819 198.643 82.6482 198.18C82.9146 197.717 83.2859 197.323 83.7322 197.03L105.938 184.213C106.758 183.721 107.471 184.123 107.471 185.107V206.566C107.443 207.1 107.29 207.619 107.024 208.082C106.757 208.545 106.385 208.939 105.938 209.231L96.639 214.594L93.7034 226.46C93.7132 226.677 93.6362 226.889 93.4893 227.05C93.3425 227.211 93.1378 227.307 92.9203 227.316C92.7028 227.326 92.4904 227.249 92.3297 227.102C92.169 226.955 92.0732 226.751 92.0634 226.533L89.382 218.768L83.6994 222.048C82.8794 222.54 82.166 222.138 82.166 221.162L82.1988 199.695Z" fill="white"/>
</g>
<path d="M89.9564 198.096C90.4002 197.82 90.8885 197.623 91.3996 197.513C91.7427 197.444 92.0978 197.461 92.4328 197.563C92.7023 197.66 92.9269 197.852 93.0642 198.104C93.2108 198.375 93.2975 198.674 93.3184 198.981C93.3512 199.358 93.3676 199.768 93.3676 200.211C93.3676 200.654 93.3512 201.08 93.3184 201.49C93.2825 201.893 93.1971 202.29 93.0642 202.671C92.907 203.117 92.6949 203.541 92.4328 203.934C92.1361 204.382 91.7894 204.795 91.3996 205.164C90.9638 205.579 90.4792 205.94 89.9564 206.238C89.5072 206.513 89.0173 206.715 88.505 206.837C88.1656 206.913 87.8123 206.898 87.48 206.796C87.2105 206.699 86.9859 206.506 86.8486 206.255C86.6993 205.984 86.6098 205.685 86.5862 205.377C86.5862 205 86.5862 204.557 86.5862 204.147C86.5862 203.737 86.5862 203.278 86.5862 202.868C86.6254 202.465 86.7135 202.069 86.8486 201.687C87.0023 201.24 87.2146 200.816 87.48 200.424C87.7782 199.978 88.1217 199.563 88.505 199.186C88.9426 198.765 89.43 198.399 89.9564 198.096ZM98.9764 193.413C99.0694 193.234 99.1793 193.064 99.3044 192.905C99.4424 192.748 99.6059 192.614 99.7882 192.511L101.149 191.691C101.262 191.608 101.404 191.573 101.543 191.593C101.641 191.593 101.691 191.7 101.691 191.831C101.696 191.874 101.696 191.918 101.691 191.962L101.625 192.134L90.4566 213.274C90.3636 213.451 90.2537 213.618 90.1286 213.774C89.9924 213.933 89.8285 214.067 89.6448 214.168L88.2918 214.988C88.1754 215.071 88.0316 215.106 87.89 215.086C87.7916 215.086 87.7424 214.979 87.7424 214.848C87.7366 214.805 87.7366 214.761 87.7424 214.717L87.808 214.545L98.9764 193.413ZM91.1536 202.54C91.1648 202.393 91.1648 202.245 91.1536 202.097V200.875C91.1655 200.736 91.1655 200.596 91.1536 200.457C91.1491 200.342 91.1205 200.23 91.0696 200.127C91.0188 200.023 90.9468 199.932 90.8584 199.859C90.6944 199.744 90.391 199.859 89.9564 200.064C89.621 200.233 89.3347 200.485 89.125 200.797C88.9153 201.108 88.7893 201.469 88.7592 201.843C88.7472 201.993 88.7472 202.144 88.7592 202.294C88.7592 202.491 88.7592 202.696 88.7592 202.909C88.7592 203.122 88.7592 203.319 88.7592 203.516C88.7464 203.652 88.7464 203.789 88.7592 203.926C88.7592 204.042 88.7858 204.156 88.837 204.26C88.8882 204.363 88.9626 204.454 89.0544 204.524C89.2184 204.639 89.5136 204.565 89.9564 204.319C90.3264 204.134 90.6384 203.85 90.8584 203.499C91.0217 203.203 91.1222 202.877 91.1536 202.54ZM99.739 200.408C100.187 200.132 100.677 199.932 101.19 199.818C101.531 199.748 101.883 199.765 102.215 199.867C102.485 199.964 102.709 200.157 102.847 200.408C102.996 200.678 103.086 200.978 103.109 201.285C103.109 201.663 103.15 202.105 103.15 202.515C103.15 202.925 103.15 203.385 103.109 203.795C103.071 204.198 102.982 204.594 102.847 204.975C102.692 205.424 102.479 205.852 102.215 206.246C101.587 207.195 100.744 207.981 99.7554 208.542C99.3101 208.819 98.8226 209.021 98.3122 209.141C97.9704 209.221 97.6134 209.207 97.279 209.1C97.0079 209.006 96.7824 208.812 96.6476 208.559C96.5 208.288 96.4132 207.989 96.3934 207.681C96.3934 207.312 96.3442 206.861 96.3442 206.46C96.3442 206.058 96.3442 205.582 96.3934 205.172C96.4288 204.772 96.5142 204.378 96.6476 204C96.8047 203.552 97.0167 203.125 97.279 202.729C97.5776 202.28 97.924 201.865 98.3122 201.49C98.7368 201.06 99.2165 200.688 99.739 200.383V200.408ZM100.936 204.82C100.947 204.672 100.947 204.524 100.936 204.377V203.163C100.948 203.024 100.948 202.884 100.936 202.745C100.937 202.629 100.91 202.515 100.859 202.411C100.808 202.307 100.733 202.216 100.641 202.146C100.477 202.032 100.182 202.097 99.739 202.351C99.3704 202.539 99.0589 202.822 98.837 203.171C98.6786 203.464 98.5784 203.784 98.5418 204.114C98.5339 204.262 98.5339 204.41 98.5418 204.557C98.5418 204.762 98.5418 204.967 98.5418 205.172C98.5418 205.377 98.5418 205.59 98.5418 205.779C98.5332 205.916 98.5332 206.053 98.5418 206.189C98.5463 206.304 98.5749 206.417 98.6257 206.52C98.6766 206.623 98.7486 206.714 98.837 206.788C99.001 206.902 99.3044 206.837 99.739 206.583C100.109 206.397 100.421 206.114 100.641 205.763C100.81 205.466 100.911 205.136 100.936 204.795V204.82Z" fill="#FAFAFA"/>
</svg>
