<svg width="368" height="368" viewBox="0 0 368 368" fill="none" xmlns="http://www.w3.org/2000/svg">
<path d="M368 281.446H0V281.63H368V281.446Z" fill="#EBEBEB"/>
<path d="M320.653 293.289H306.75V293.473H320.653V293.289Z" fill="#EBEBEB"/>
<path d="M237.374 292.008H215.685V292.192H237.374V292.008Z" fill="#EBEBEB"/>
<path d="M306.013 286.458H271.341V286.643H306.013V286.458Z" fill="#EBEBEB"/>
<path d="M46.6833 287.695H38.6094V287.879H46.6833V287.695Z" fill="#EBEBEB"/>
<path d="M81.6144 287.695H53.2343V287.879H81.6144V287.695Z" fill="#EBEBEB"/>
<path d="M165.711 290.801H125.856V290.985H165.711V290.801Z" fill="#EBEBEB"/>
<path d="M174.432 248.621H32.3174C31.2041 248.619 30.137 248.175 29.3505 247.387C28.5639 246.599 28.1222 245.532 28.1222 244.418V44.6457C28.1319 43.5388 28.5779 42.4804 29.3634 41.7004C30.1489 40.9204 31.2104 40.4819 32.3174 40.48H174.432C175.546 40.48 176.615 40.9227 177.403 41.7109C178.191 42.499 178.634 43.568 178.634 44.6825V244.418C178.634 245.533 178.191 246.602 177.403 247.39C176.615 248.178 175.546 248.621 174.432 248.621ZM32.3174 40.6272C31.2529 40.6291 30.2326 41.0534 29.4806 41.8068C28.7286 42.5602 28.3062 43.5812 28.3062 44.6457V244.418C28.3062 245.483 28.7286 246.504 29.4806 247.257C30.2326 248.011 31.2529 248.435 32.3174 248.437H174.432C175.497 248.435 176.518 248.011 177.271 247.258C178.024 246.504 178.448 245.483 178.45 244.418V44.6457C178.448 43.5805 178.024 42.5595 177.271 41.8063C176.518 41.0531 175.497 40.6291 174.432 40.6272H32.3174Z" fill="#EBEBEB"/>
<path d="M333.636 248.621H191.515C190.401 248.619 189.333 248.175 188.545 247.388C187.757 246.6 187.314 245.532 187.312 244.418V44.6457C187.324 43.5381 187.771 42.4797 188.558 41.7C189.345 40.9202 190.407 40.4819 191.515 40.48H333.636C334.742 40.4838 335.801 40.9232 336.585 41.703C337.369 42.4828 337.814 43.5401 337.824 44.6457V244.418C337.824 245.53 337.383 246.597 336.598 247.385C335.813 248.172 334.748 248.617 333.636 248.621ZM191.515 40.6272C190.449 40.6291 189.428 41.0531 188.675 41.8063C187.922 42.5595 187.498 43.5805 187.496 44.6457V244.418C187.498 245.483 187.922 246.504 188.675 247.258C189.428 248.011 190.449 248.435 191.515 248.437H333.636C334.701 248.435 335.722 248.011 336.476 247.258C337.229 246.504 337.653 245.483 337.655 244.418V44.6457C337.653 43.5805 337.229 42.5595 336.476 41.8063C335.722 41.0531 334.701 40.6291 333.636 40.6272H191.515Z" fill="#EBEBEB"/>
<path d="M46.2194 196.254H101.118L101.118 59.064H46.2194L46.2194 196.254Z" fill="#E6E6E6"/>
<path d="M38.2722 196.254H99.7135L99.7135 59.064H38.2722L38.2722 196.254Z" fill="#F5F5F5"/>
<path d="M93.3762 189.91L93.3762 65.3936H44.6089L44.6089 189.91H93.3762Z" fill="white"/>
<path d="M113.594 196.254H168.493L168.493 59.064H113.594L113.594 196.254Z" fill="#E6E6E6"/>
<path d="M105.646 196.254H167.087L167.087 59.064H105.646L105.646 196.254Z" fill="#F5F5F5"/>
<path d="M160.748 189.91V65.3936H111.981V189.91H160.748Z" fill="white"/>
<path d="M206.139 227.527H161.14V281.446H206.139V227.527Z" fill="#E0E0E0"/>
<path d="M206.139 227.527H161.14L151.013 217.216H196.012L206.139 227.527Z" fill="#E0E0E0"/>
<path d="M134.806 217.216H89.8143L81.3135 227.527H126.313L134.806 217.216Z" fill="#F5F5F5"/>
<path d="M81.3214 281.446H161.148V227.527H81.3214V281.446Z" fill="#F5F5F5"/>
<path d="M155.363 267.043H161.148V241.923H155.363V267.043Z" fill="#F0F0F0"/>
<path d="M108.466 236.786V258.638H130.318V236.786H108.466Z" fill="#F0F0F0"/>
<path d="M81.4097 236.786V258.638H103.262V236.786H81.4097Z" fill="#F0F0F0"/>
<path d="M108.466 259.992V261.773H130.318V259.992H108.466Z" fill="#F0F0F0"/>
<path d="M81.4097 259.992V261.773H103.262V259.992H81.4097Z" fill="#F0F0F0"/>
<path d="M108.457 265.21V266.991H130.308V265.21H108.457Z" fill="#F0F0F0"/>
<path d="M81.4097 265.21V266.991H103.262V265.21H81.4097Z" fill="#F0F0F0"/>
<path d="M108.466 270.421V272.202H130.318V270.421H108.466Z" fill="#F0F0F0"/>
<path d="M81.4097 270.428V272.209H103.262V270.428H81.4097Z" fill="#F0F0F0"/>
<path d="M174.101 241.931H161.14V267.05H174.101V241.931Z" fill="#E6E6E6"/>
<path d="M223.177 281.446H244.786L244.786 160.205H223.177V281.446Z" fill="#E6E6E6"/>
<path d="M228.94 281.447H223.17V260.493H234.99L228.94 281.447Z" fill="#F5F5F5"/>
<path d="M285.135 281.446H306.744V160.205H285.135V281.446Z" fill="#E6E6E6"/>
<path d="M223.17 274.233H290.175V160.205H223.17V274.233Z" fill="#F5F5F5"/>
<path d="M284.406 281.447H290.176V260.493H278.356L284.406 281.447Z" fill="#F5F5F5"/>
<path d="M227.653 269.501H285.701V219.71H227.653V269.501Z" fill="#F0F0F0"/>
<path d="M246.067 269.501H285.693V219.71H246.067V269.501Z" fill="#E6E6E6"/>
<path d="M227.653 215.28H285.701V165.489H227.653V215.28Z" fill="#F0F0F0"/>
<path d="M246.067 215.28H285.693V165.489H246.067V215.28Z" fill="#E6E6E6"/>
<path d="M265.887 203.592C265.887 210.018 260.418 215.28 253.735 215.28H247.707C241.025 215.28 235.563 210.018 235.563 203.592H265.887Z" fill="white"/>
<path d="M265.887 195.416C265.887 201.841 260.418 207.103 253.735 207.103H247.707C241.025 207.103 235.563 201.841 235.563 195.416H265.887Z" fill="white"/>
<path d="M259.809 235.763H277.679C277.679 235.763 274.573 243.292 274.573 247.715C274.573 252.139 288.167 269.501 268.744 269.501C249.321 269.501 262.908 252.146 262.908 247.715C262.908 243.285 259.809 235.763 259.809 235.763Z" fill="#F5F5F5"/>
<path d="M265.887 187.231C265.887 193.664 260.418 198.926 253.735 198.926H247.707C241.025 198.926 235.563 193.664 235.563 187.231H265.887Z" fill="white"/>
<path d="M260.544 151.417C259.867 132.237 259.138 97.071 260.625 87.4588L263.046 85.582C263.046 85.582 262.516 103.195 262.236 132.568C261.957 161.942 261.611 147.053 261.913 151.417H260.544Z" fill="#E6E6E6"/>
<path d="M255.003 100.435C249.387 96.3792 237.56 93.4941 225.313 93.5088C220.499 93.5088 239.628 98.2266 247.393 103.423C253.413 107.463 260.045 114.257 262.208 118.025C261.149 110.091 260.626 104.512 255.003 100.435Z" fill="#E6E6E6"/>
<path d="M266.277 110.996C271.429 106.779 282.933 103.526 295.158 103.165C299.964 103.018 281.387 108.317 274.226 113.749C268.669 117.966 262.788 124.951 261.052 128.778C261.213 120.829 261.11 115.221 266.277 110.996Z" fill="#E6E6E6"/>
<path d="M261.479 160.205C259.203 160.205 257.013 159.334 255.359 157.772C253.704 156.209 252.71 154.072 252.58 151.8L251.793 145.331H271.164L270.377 151.8C270.247 154.072 269.253 156.209 267.599 157.772C265.944 159.334 263.755 160.205 261.479 160.205Z" fill="#F0F0F0"/>
<path d="M272.416 148.429H250.542L249.916 142.754H273.049L272.416 148.429Z" fill="#F0F0F0"/>
<path d="M184 314.684C262.812 314.684 326.703 310.954 326.703 306.353C326.703 301.751 262.812 298.021 184 298.021C105.187 298.021 41.2965 301.751 41.2965 306.353C41.2965 310.954 105.187 314.684 184 314.684Z" fill="#F5F5F5"/>
<path d="M260.765 292.84L255.473 293.958L251.889 281.918L257.181 280.799L260.765 292.84Z" fill="#FDD0CD"/>
<path d="M255.142 293.384L260.92 292.17C261.025 292.149 261.134 292.164 261.23 292.212C261.325 292.26 261.403 292.338 261.45 292.435L263.481 296.917C263.531 297.025 263.556 297.143 263.554 297.262C263.552 297.381 263.523 297.498 263.469 297.605C263.415 297.711 263.338 297.804 263.243 297.876C263.148 297.948 263.038 297.997 262.922 298.021C260.824 298.426 257.77 298.933 255.171 299.493C252.11 300.14 251.683 300.795 248.04 301.259C245.832 301.539 244.948 299.39 245.832 299.051C249.916 297.579 250.836 297.012 253.928 294.054C254.26 293.72 254.682 293.487 255.142 293.384Z" fill="#263238"/>
<path opacity="0.2" d="M251.889 281.918L253.736 288.129L259.028 287.011L257.181 280.806L251.889 281.918Z" fill="black"/>
<path d="M222.434 120.586C221.352 124.17 220.167 127.659 218.879 131.162C217.591 134.666 216.208 138.118 214.574 141.614L213.933 142.931L213.234 144.278C212.999 144.727 212.719 145.146 212.461 145.588C212.204 146.03 211.946 146.449 211.652 146.861C210.544 148.521 209.314 150.095 207.972 151.572C206.661 153.035 205.246 154.403 203.74 155.664C203.004 156.297 202.224 156.893 201.421 157.46C200.619 158.026 199.846 158.556 198.904 159.101L196.299 155.634C196.807 155.046 197.425 154.361 197.97 153.699C198.514 153.036 199.051 152.33 199.589 151.645C200.641 150.262 201.635 148.841 202.533 147.406C203.447 145.979 204.285 144.505 205.042 142.99C205.425 142.254 205.778 141.518 206.102 140.73L206.588 139.59L207.059 138.39C208.303 135.129 209.466 131.692 210.607 128.255L214.051 117.951L222.434 120.586Z" fill="#FDD0CD"/>
<path d="M226.298 114.749C228.16 119.703 218.261 137.322 218.261 137.322L207.133 128.741C209.036 124.071 211.349 119.578 214.044 115.316C217.959 109.48 224.252 109.318 226.298 114.749Z" fill="#407BFF"/>
<path opacity="0.2" d="M224.119 119.644C220.601 121.116 215.824 126.798 214.33 134.29L218.261 137.323C218.261 137.323 224.149 126.901 225.967 119.835C225.71 119.628 225.399 119.499 225.071 119.465C224.743 119.431 224.412 119.493 224.119 119.644Z" fill="black"/>
<path d="M219.726 110.967C219.726 110.967 213.197 123.317 219.402 154.435H248.996C249.195 149.886 246.339 132.082 250.726 110.68C247.454 110.05 244.145 109.632 240.819 109.428C236.63 109.185 232.43 109.185 228.241 109.428C225.367 109.717 222.519 110.231 219.726 110.967Z" fill="#407BFF"/>
<path d="M186.804 159.403L189.814 162.126L194.274 160.941L191.25 155.561L186.804 159.403Z" fill="#FDD0CD"/>
<path d="M197.779 155.87L191.251 155.561L194.276 160.941C194.276 160.941 199.126 161.456 199.59 157.872L197.779 155.87Z" fill="#FDD0CD"/>
<path d="M239.569 95.2603C238.782 99.3083 237.987 106.727 240.82 109.428C240.82 109.428 239.547 112.144 232.025 112.144C225.151 112.144 228.242 109.428 228.242 109.428C232.754 108.354 232.658 105.012 231.849 101.855L239.569 95.2603Z" fill="#FDD0CD"/>
<path opacity="0.2" d="M236.424 97.9541L231.854 101.855C232.043 102.579 232.171 103.317 232.236 104.063C233.34 105.778 236.35 103.261 236.902 100.626C236.945 99.7107 236.781 98.7977 236.424 97.9541Z" fill="black"/>
<path d="M221.411 86.3693C219.902 88.9085 223.222 95.9373 227.064 95.297C230.906 94.6566 224.282 81.5632 221.411 86.3693Z" fill="#263238"/>
<path d="M237.73 88.9012C238.532 94.3328 239.276 97.4682 237.148 100.795C233.954 105.792 226.845 104.733 224.401 99.6541C222.23 95.0762 221.28 86.9655 226.079 83.7197C227.134 82.999 228.356 82.56 229.629 82.4447C230.901 82.3293 232.182 82.5413 233.35 83.0605C234.517 83.5798 235.533 84.389 236.299 85.4113C237.066 86.4336 237.558 87.6349 237.73 88.9012Z" fill="#FDD0CD"/>
<path d="M238.206 81.7402L233.518 85.1553C236.344 88.5188 233.135 95.8714 237.588 94.2007C239.626 93.4721 244.889 85.4497 238.206 81.7402Z" fill="#263238"/>
<path d="M232.576 77.5522C225.459 79.2744 224.826 77.221 225.305 74.5566C219.984 75.4325 216.002 79.6277 219.093 84.6987C222.523 90.3291 232.989 85.7586 234.836 85.7218L237.493 85.0741C243.528 83.315 241.467 75.4104 232.576 77.5522Z" fill="#263238"/>
<path d="M238.92 91.7421C237.573 91.7421 233.407 91.7421 233.363 91.7421C233.332 91.7421 233.302 91.7297 233.28 91.7076C233.258 91.6855 233.245 91.6556 233.245 91.6244C233.244 91.6086 233.246 91.5928 233.252 91.578C233.257 91.5633 233.266 91.5498 233.277 91.5387C233.288 91.5275 233.302 91.5189 233.317 91.5133C233.331 91.5078 233.347 91.5055 233.363 91.5066C233.407 91.5066 237.573 91.5066 238.92 91.5066C238.951 91.5066 238.981 91.519 239.003 91.5411C239.025 91.5632 239.037 91.5931 239.037 91.6244C239.037 91.6556 239.025 91.6855 239.003 91.7076C238.981 91.7297 238.951 91.7421 238.92 91.7421Z" fill="white"/>
<path d="M241.407 94.2962C240.931 95.5958 239.96 96.6541 238.706 97.2402C237.035 97.9762 235.924 96.5705 236.16 94.8482C236.366 93.3026 237.484 91.0431 239.273 91.0137C239.661 91.015 240.043 91.113 240.385 91.2989C240.726 91.4848 241.015 91.7526 241.227 92.0783C241.439 92.404 241.566 92.7773 241.598 93.1645C241.629 93.5517 241.564 93.9406 241.407 94.2962Z" fill="#FDD0CD"/>
<path d="M230.941 299.655H225.539L225.355 287.128H230.765L230.941 299.655Z" fill="#FDD0CD"/>
<path d="M225.319 299.029H231.207C231.314 299.027 231.418 299.063 231.502 299.13C231.585 299.198 231.642 299.292 231.663 299.397L232.73 304.203C232.757 304.319 232.757 304.439 232.731 304.555C232.704 304.67 232.652 304.778 232.577 304.87C232.503 304.963 232.408 305.037 232.301 305.087C232.193 305.137 232.076 305.162 231.957 305.16C229.823 305.123 226.746 304.998 224.067 304.998C220.939 304.998 218.238 305.175 214.566 305.175C212.358 305.175 211.732 302.93 212.659 302.724C216.891 301.797 220.343 301.701 223.994 299.449C224.386 299.185 224.846 299.039 225.319 299.029Z" fill="#263238"/>
<path opacity="0.2" d="M225.355 287.136L225.451 293.59H230.86L230.765 287.136H225.355Z" fill="black"/>
<path d="M223.089 299.854C222.722 299.942 222.335 299.903 221.993 299.743C221.883 299.675 221.792 299.581 221.726 299.469C221.661 299.358 221.624 299.232 221.617 299.103C221.605 299.027 221.615 298.948 221.645 298.877C221.675 298.805 221.724 298.744 221.787 298.698C222.331 298.294 224.274 299.096 224.495 299.191C224.518 299.203 224.537 299.221 224.551 299.243C224.564 299.265 224.57 299.291 224.569 299.317C224.569 299.342 224.561 299.367 224.547 299.388C224.532 299.409 224.512 299.425 224.488 299.434C224.038 299.625 223.569 299.765 223.089 299.854ZM222.103 298.853C222.044 298.856 221.988 298.877 221.941 298.912C221.915 298.928 221.894 298.953 221.884 298.983C221.873 299.012 221.873 299.044 221.882 299.074C221.881 299.163 221.903 299.251 221.947 299.329C221.991 299.406 222.055 299.471 222.132 299.515C222.785 299.699 223.483 299.625 224.083 299.309C223.459 299.03 222.786 298.875 222.103 298.853Z" fill="#407BFF"/>
<path d="M224.478 299.441H224.419C223.801 299.228 222.52 298.198 222.542 297.572C222.545 297.474 222.581 297.38 222.646 297.306C222.71 297.232 222.799 297.183 222.896 297.167C222.993 297.14 223.095 297.133 223.195 297.147C223.295 297.161 223.391 297.195 223.477 297.248C224.213 297.668 224.574 299.221 224.589 299.287C224.593 299.311 224.591 299.336 224.583 299.359C224.575 299.382 224.562 299.403 224.544 299.419C224.524 299.432 224.502 299.44 224.478 299.441ZM223.006 297.403H222.947C222.785 297.454 222.778 297.535 222.778 297.565C222.778 297.94 223.61 298.735 224.25 299.037C224.114 298.422 223.796 297.863 223.337 297.432C223.287 297.405 223.232 297.389 223.175 297.384C223.118 297.379 223.06 297.385 223.006 297.403Z" fill="#407BFF"/>
<path d="M219.401 154.435C219.401 154.435 215.426 205.152 214.683 222.021C213.903 239.56 223.692 292.037 223.692 292.037H232.487C232.487 292.037 229.587 243.365 231.103 226.195C232.752 207.471 238.853 154.435 238.853 154.435H219.401Z" fill="#263238"/>
<path opacity="0.2" d="M228.27 194.304C228.961 201.143 230.292 207.902 232.244 214.492C233.598 201.178 235.586 183.286 237.028 170.501C233.642 172.717 226.93 179.127 228.27 194.304Z" fill="black"/>
<path d="M229.633 154.435C229.633 154.435 231.892 204.983 235.344 220.822C239.112 238.169 250.373 287.253 250.373 287.253L260.287 285.163C260.287 285.163 253.604 238.626 251.455 221.455C249.122 202.812 248.732 154.435 248.732 154.435H229.633Z" fill="#263238"/>
<path d="M260.971 285.244L250.292 287.489L248.511 283.654L260.265 280.835L260.971 285.244Z" fill="#407BFF"/>
<path d="M234.187 292.258H223.272L222.315 288.137L234.371 288.35L234.187 292.258Z" fill="#407BFF"/>
<path d="M230.258 92.0438C230.354 92.4781 230.199 92.8829 229.912 92.9417C229.625 93.0006 229.316 92.6989 229.228 92.2646C229.139 91.8304 229.294 91.4256 229.573 91.3667C229.853 91.3078 230.17 91.6096 230.258 92.0438Z" fill="#263238"/>
<path d="M225.326 93.0891C225.415 93.5234 225.26 93.9282 224.973 93.9871C224.686 94.0459 224.384 93.7442 224.289 93.3099C224.193 92.8757 224.355 92.4635 224.642 92.4047C224.929 92.3458 225.216 92.6549 225.326 93.0891Z" fill="#263238"/>
<path d="M226.607 93.0449C226.371 94.4893 225.935 95.8937 225.311 97.218C225.655 97.3685 226.028 97.4419 226.403 97.433C226.778 97.4241 227.146 97.3331 227.483 97.1665L226.607 93.0449Z" fill="#FDD0CD"/>
<path d="M228.528 98.896C228.509 98.9023 228.49 98.9046 228.471 98.9027C228.452 98.9008 228.433 98.8948 228.417 98.885C228.4 98.8752 228.386 98.8619 228.375 98.8461C228.364 98.8303 228.357 98.8122 228.353 98.7933C228.35 98.7743 228.351 98.7549 228.356 98.7363C228.361 98.7177 228.37 98.7005 228.383 98.6857C228.395 98.671 228.41 98.6591 228.428 98.651C228.445 98.6428 228.464 98.6385 228.483 98.6384C229.033 98.5581 229.555 98.3496 230.009 98.03C230.463 97.7104 230.835 97.2885 231.096 96.7984C231.109 96.7666 231.134 96.741 231.166 96.7273C231.197 96.7136 231.233 96.7127 231.265 96.7248C231.281 96.732 231.296 96.7422 231.308 96.755C231.32 96.7678 231.329 96.7829 231.336 96.7993C231.342 96.8157 231.345 96.8332 231.344 96.8508C231.343 96.8683 231.339 96.8855 231.332 96.9015C231.059 97.435 230.662 97.8948 230.174 98.242C229.686 98.5893 229.121 98.8136 228.528 98.896Z" fill="#263238"/>
<path d="M232.575 88.2096C232.536 88.2206 232.496 88.2224 232.456 88.2147C232.416 88.207 232.379 88.1901 232.347 88.1654C232.085 87.9665 231.78 87.8321 231.457 87.7733C231.133 87.7145 230.8 87.7328 230.485 87.8269C230.421 87.8474 230.351 87.8427 230.29 87.8136C230.229 87.7845 230.182 87.7333 230.157 87.6703C230.133 87.6074 230.133 87.5376 230.159 87.475C230.184 87.4124 230.232 87.3619 230.294 87.3337C230.692 87.2088 231.114 87.181 231.525 87.2527C231.936 87.3244 232.324 87.4935 232.656 87.7459C232.684 87.7656 232.707 87.7907 232.725 87.8195C232.743 87.8483 232.755 87.8804 232.761 87.914C232.766 87.9475 232.765 87.9818 232.757 88.0148C232.749 88.0479 232.735 88.079 232.715 88.1065C232.679 88.1532 232.631 88.1889 232.575 88.2096Z" fill="#263238"/>
<path d="M222.338 89.7916C222.299 89.7895 222.261 89.7768 222.228 89.7548C222.171 89.716 222.132 89.6567 222.118 89.5894C222.104 89.5221 222.117 89.4521 222.154 89.3942C222.37 89.0381 222.669 88.7396 223.025 88.5242C223.381 88.3089 223.785 88.1831 224.2 88.1577C224.262 88.1681 224.318 88.2001 224.359 88.2479C224.399 88.2957 224.421 88.3564 224.421 88.419C224.421 88.4816 224.399 88.5423 224.359 88.5901C224.318 88.6379 224.262 88.6699 224.2 88.6803C223.872 88.7062 223.555 88.8098 223.274 88.9826C222.994 89.1553 222.759 89.3923 222.588 89.6739C222.563 89.7159 222.526 89.7495 222.481 89.7705C222.437 89.7914 222.387 89.7988 222.338 89.7916Z" fill="#263238"/>
<path d="M246.339 109.664L244.94 109.539C244.872 109.536 244.805 109.557 244.751 109.599C244.697 109.641 244.66 109.7 244.646 109.767C240.76 130.64 242.938 152.808 242.938 152.808H244.484C243.637 138.496 244.34 124.134 246.581 109.973C246.588 109.937 246.586 109.899 246.577 109.863C246.568 109.827 246.552 109.794 246.529 109.765C246.506 109.736 246.477 109.712 246.444 109.694C246.412 109.677 246.376 109.667 246.339 109.664Z" fill="#263238"/>
<path d="M244.706 152.823C244.706 152.691 244.654 152.565 244.562 152.471C244.469 152.378 244.344 152.324 244.212 152.322H243.145C243.013 152.324 242.887 152.377 242.793 152.471C242.7 152.564 242.647 152.691 242.645 152.823C242.646 152.933 242.684 153.04 242.754 153.125C242.823 153.211 242.92 153.27 243.028 153.294V154.619C243.045 154.779 243.121 154.928 243.241 155.036C243.361 155.144 243.517 155.204 243.679 155.204C243.841 155.204 243.997 155.144 244.117 155.036C244.237 154.928 244.313 154.779 244.33 154.619V153.294C244.437 153.269 244.532 153.209 244.6 153.123C244.668 153.038 244.705 152.932 244.706 152.823Z" fill="white"/>
<path d="M222.912 109.958L221.528 110.216C221.471 110.226 221.419 110.255 221.379 110.297C221.339 110.34 221.314 110.394 221.307 110.451C218.363 131.339 221.587 152.823 221.587 152.823H223.125C220.829 130.088 222.868 112.961 223.228 110.26C223.233 110.218 223.229 110.175 223.214 110.135C223.2 110.095 223.177 110.059 223.146 110.029C223.115 110 223.078 109.978 223.037 109.966C222.997 109.954 222.954 109.951 222.912 109.958Z" fill="#263238"/>
<path d="M223.353 152.823C223.344 152.689 223.285 152.564 223.188 152.471C223.092 152.379 222.964 152.326 222.83 152.322H221.763C221.699 152.322 221.635 152.335 221.576 152.361C221.516 152.386 221.463 152.424 221.419 152.47C221.375 152.517 221.341 152.573 221.319 152.633C221.297 152.694 221.288 152.758 221.292 152.823C221.297 152.934 221.339 153.04 221.411 153.125C221.483 153.211 221.581 153.27 221.689 153.294L221.756 154.619C221.765 154.792 221.84 154.956 221.966 155.076C222.092 155.197 222.259 155.265 222.433 155.266C222.517 155.267 222.601 155.251 222.679 155.219C222.756 155.186 222.827 155.138 222.885 155.078C222.944 155.017 222.99 154.945 223.019 154.866C223.049 154.787 223.062 154.703 223.058 154.619L222.992 153.294C223.098 153.27 223.192 153.21 223.258 153.123C223.323 153.037 223.357 152.931 223.353 152.823Z" fill="white"/>
<path d="M253.133 294.658C252.79 294.815 252.405 294.857 252.036 294.775C251.914 294.732 251.804 294.659 251.717 294.562C251.629 294.466 251.567 294.349 251.536 294.223C251.509 294.152 251.502 294.075 251.515 294C251.527 293.925 251.56 293.855 251.609 293.796C252.066 293.289 254.127 293.671 254.362 293.723C254.388 293.726 254.413 293.738 254.431 293.756C254.45 293.775 254.462 293.8 254.465 293.826C254.471 293.851 254.469 293.876 254.46 293.9C254.451 293.924 254.435 293.944 254.414 293.958C254.012 294.234 253.583 294.469 253.133 294.658ZM251.955 293.885C251.899 293.9 251.848 293.931 251.808 293.973C251.808 293.973 251.757 294.047 251.808 294.142C251.825 294.23 251.865 294.311 251.923 294.378C251.981 294.445 252.056 294.496 252.139 294.525C252.819 294.57 253.49 294.354 254.016 293.922C253.339 293.771 252.638 293.758 251.955 293.885Z" fill="#407BFF"/>
<path d="M254.384 293.973H254.318C253.678 293.885 252.206 293.149 252.11 292.501C252.095 292.403 252.114 292.303 252.163 292.218C252.213 292.132 252.29 292.066 252.382 292.03C252.471 291.983 252.569 291.956 252.669 291.948C252.769 291.94 252.869 291.953 252.964 291.986C253.751 292.251 254.436 293.693 254.473 293.752C254.485 293.774 254.491 293.798 254.491 293.822C254.491 293.847 254.485 293.871 254.473 293.892L254.384 293.973ZM252.544 292.273H252.485C252.338 292.354 252.353 292.435 252.353 292.464C252.419 292.832 253.405 293.436 254.09 293.642C253.869 293.222 253.354 292.42 252.861 292.251C252.756 292.221 252.644 292.229 252.544 292.273Z" fill="#407BFF"/>
<path d="M231.045 95.7313C229.301 96.0993 227.505 94.6273 227.049 92.4561C226.644 90.5204 227.542 89.225 229.58 88.776C231.619 88.3271 232.966 89.1735 233.378 91.1018C233.834 93.2951 232.789 95.3633 231.045 95.7313ZM229.632 89.0557C228.3 89.3354 226.806 90.1524 227.291 92.434C227.718 94.4801 229.389 95.8711 230.971 95.5252C232.554 95.1792 233.555 93.2436 233.12 91.1975C232.657 88.8864 230.964 88.7392 229.632 89.0557Z" fill="white"/>
<path d="M223.897 97.2402C222.425 97.5494 220.864 96.0332 220.408 93.862C219.856 91.2492 221.438 90.5132 222.432 90.2998C223.426 90.0863 225.17 90.1305 225.722 92.7359C226.178 94.9439 225.361 96.9311 223.897 97.2402ZM222.484 90.5279C221.372 90.7634 220.158 91.5215 220.636 93.8031C221.07 95.8492 222.513 97.2844 223.845 96.9974C225.177 96.7103 225.921 94.7894 225.486 92.7801C225.008 90.5279 223.587 90.2998 222.484 90.5279Z" fill="white"/>
<path d="M227.158 91.1021H227.099C226.771 90.9883 226.419 90.9659 226.079 91.0372C225.739 91.1085 225.425 91.2709 225.171 91.5069C225.161 91.518 225.148 91.5269 225.134 91.533C225.12 91.5391 225.105 91.5422 225.09 91.5422C225.075 91.5422 225.06 91.5391 225.046 91.533C225.032 91.5269 225.019 91.518 225.009 91.5069C224.998 91.4959 224.989 91.4827 224.982 91.4682C224.976 91.4537 224.973 91.438 224.973 91.4222C224.973 91.4064 224.976 91.3908 224.982 91.3763C224.989 91.3617 224.998 91.3486 225.009 91.3376C225.293 91.0751 225.643 90.8947 226.021 90.8156C226.4 90.7365 226.793 90.7618 227.158 90.8886C227.187 90.8972 227.211 90.9165 227.226 90.9425C227.241 90.9685 227.246 90.9992 227.239 91.0285C227.232 91.0458 227.221 91.0613 227.207 91.074C227.193 91.0867 227.176 91.0963 227.158 91.1021Z" fill="white"/>
<path d="M232.48 112.137L233.555 111.356L235.858 113.564L232.48 112.137Z" fill="#263238"/>
<path d="M233.554 111.357C233.554 111.357 235.453 114.014 235.821 115.935C238.096 114.992 242.379 112.637 242.953 109.311C242.126 109.047 241.336 108.676 240.605 108.207C240.605 108.207 238.316 110.15 233.554 111.357Z" fill="white"/>
<path d="M232.481 112.137L232.032 111.231L229.058 113.565L232.481 112.137Z" fill="#263238"/>
<path d="M232.03 111.239C230.844 112.365 230.067 113.854 229.822 115.471C227.555 114.529 226.664 111.46 227.253 109.413C228.118 109.026 229.021 108.73 229.947 108.53C229.913 109.156 230.104 109.774 230.486 110.271C230.868 110.768 231.416 111.111 232.03 111.239Z" fill="white"/>
<path d="M228.439 157.644L232.288 161.699L236.145 159.889L232.885 153.794L228.439 157.644Z" fill="#FDD0CD"/>
<path d="M239.414 154.104L232.886 153.794L236.146 159.889C236.146 159.889 240.761 159.69 241.225 156.113L239.414 154.104Z" fill="#FDD0CD"/>
<path d="M256.128 118.297C257.092 122.293 257.945 126.29 258.711 130.33C259.094 132.347 259.452 134.374 259.785 136.41C260.131 138.449 260.433 140.495 260.683 142.629C260.741 143.031 260.773 143.437 260.779 143.843C260.794 144.311 260.764 144.78 260.691 145.242C260.559 146.123 260.293 146.98 259.903 147.781C259.234 149.108 258.32 150.297 257.209 151.284C255.407 152.858 253.371 154.142 251.174 155.09C247.213 156.82 243.041 158.018 238.765 158.652L237.683 154.457C239.45 153.721 241.304 152.911 243.049 152.035C244.773 151.205 246.448 150.279 248.068 149.26C249.529 148.389 250.861 147.319 252.028 146.081C252.416 145.67 252.717 145.184 252.911 144.653C252.951 144.53 252.966 144.4 252.955 144.27C252.964 144.229 252.964 144.186 252.955 144.145C252.916 144.046 252.891 143.942 252.882 143.836C252.102 140.024 251.137 136.042 250.247 132.112C249.356 128.181 248.444 124.192 247.619 120.233L256.128 118.297Z" fill="#FDD0CD"/>
<path d="M250.726 110.679C258.086 111.997 261.339 130.412 261.339 130.412L249.504 137.668C249.504 137.668 245.743 126.805 245.942 119.968C246.148 113.447 245.139 109.664 250.726 110.679Z" fill="#407BFF"/>
<path d="M200.832 163.664H125.046V306.345H200.832V163.664Z" fill="#407BFF"/>
<path d="M214.896 161.927H132.015V163.672H214.896V161.927Z" fill="#407BFF"/>
<path opacity="0.3" d="M214.896 161.927H132.015V163.672H214.896V161.927Z" fill="black"/>
<path d="M200.839 306.353H221.874L221.874 163.672H200.839L200.839 306.353Z" fill="#407BFF"/>
<path opacity="0.2" d="M200.839 306.353H221.874L221.874 163.672H200.839L200.839 306.353Z" fill="black"/>
<path opacity="0.1" d="M194.717 170.472H190.477C190.099 170.472 189.793 170.779 189.793 171.157V175.425C189.793 175.803 190.099 176.11 190.477 176.11H194.717C195.095 176.11 195.401 175.803 195.401 175.425V171.157C195.401 170.779 195.095 170.472 194.717 170.472Z" fill="black"/>
<path opacity="0.3" d="M183.145 170.472H178.905C178.527 170.472 178.221 170.779 178.221 171.157V175.425C178.221 175.803 178.527 176.11 178.905 176.11H183.145C183.523 176.11 183.829 175.803 183.829 175.425V171.157C183.829 170.779 183.523 170.472 183.145 170.472Z" fill="black"/>
<path opacity="0.3" d="M171.584 170.472H167.344C166.966 170.472 166.66 170.779 166.66 171.157V175.425C166.66 175.803 166.966 176.11 167.344 176.11H171.584C171.962 176.11 172.268 175.803 172.268 175.425V171.157C172.268 170.779 171.962 170.472 171.584 170.472Z" fill="black"/>
<path opacity="0.1" d="M160.014 170.472H155.774C155.396 170.472 155.09 170.779 155.09 171.157V175.425C155.09 175.803 155.396 176.11 155.774 176.11H160.014C160.392 176.11 160.698 175.803 160.698 175.425V171.157C160.698 170.779 160.392 170.472 160.014 170.472Z" fill="black"/>
<path opacity="0.3" d="M148.452 170.472H144.212C143.834 170.472 143.528 170.779 143.528 171.157V175.425C143.528 175.803 143.834 176.11 144.212 176.11H148.452C148.83 176.11 149.136 175.803 149.136 175.425V171.157C149.136 170.779 148.83 170.472 148.452 170.472Z" fill="black"/>
<path opacity="0.3" d="M136.882 170.472H132.642C132.264 170.472 131.958 170.779 131.958 171.157V175.425C131.958 175.803 132.264 176.11 132.642 176.11H136.882C137.26 176.11 137.566 175.803 137.566 175.425V171.157C137.566 170.779 137.26 170.472 136.882 170.472Z" fill="black"/>
<g opacity="0.1">
<path opacity="0.1" d="M198.36 179.341H127.52V201.678H198.36V179.341Z" fill="black"/>
</g>
<path d="M194.348 182.535H192.353C191.825 182.535 191.396 182.964 191.396 183.492V197.535C191.396 198.063 191.825 198.492 192.353 198.492H194.348C194.876 198.492 195.305 198.063 195.305 197.535V183.492C195.305 182.964 194.876 182.535 194.348 182.535Z" fill="#407BFF"/>
<path opacity="0.1" d="M186.289 182.535H184.295C183.766 182.535 183.338 182.964 183.338 183.492V197.535C183.338 198.063 183.766 198.492 184.295 198.492H186.289C186.818 198.492 187.246 198.063 187.246 197.535V183.492C187.246 182.964 186.818 182.535 186.289 182.535Z" fill="black"/>
<path d="M178.222 182.535H176.227C175.699 182.535 175.27 182.964 175.27 183.492V197.535C175.27 198.063 175.699 198.492 176.227 198.492H178.222C178.75 198.492 179.178 198.063 179.178 197.535V183.492C179.178 182.964 178.75 182.535 178.222 182.535Z" fill="#407BFF"/>
<path d="M170.155 182.535H168.161C167.632 182.535 167.204 182.964 167.204 183.492V197.535C167.204 198.063 167.632 198.492 168.161 198.492H170.155C170.684 198.492 171.112 198.063 171.112 197.535V183.492C171.112 182.964 170.684 182.535 170.155 182.535Z" fill="#407BFF"/>
<path opacity="0.3" d="M147.811 186.944C147.811 186.434 147.962 185.936 148.245 185.513C148.528 185.089 148.93 184.759 149.401 184.564C149.872 184.369 150.39 184.318 150.889 184.417C151.389 184.517 151.848 184.762 152.208 185.122C152.569 185.482 152.814 185.941 152.913 186.441C153.013 186.941 152.962 187.459 152.767 187.929C152.572 188.4 152.242 188.803 151.818 189.086C151.394 189.369 150.896 189.52 150.387 189.52C149.704 189.518 149.05 189.246 148.568 188.763C148.085 188.28 147.813 187.626 147.811 186.944Z" fill="white"/>
<path opacity="0.1" d="M160.329 194.076C160.328 194.585 160.176 195.082 159.892 195.505C159.608 195.927 159.205 196.256 158.734 196.45C158.263 196.644 157.746 196.694 157.246 196.594C156.747 196.494 156.289 196.248 155.929 195.887C155.57 195.527 155.325 195.068 155.226 194.568C155.128 194.069 155.179 193.551 155.374 193.081C155.569 192.61 155.9 192.209 156.323 191.926C156.747 191.643 157.244 191.492 157.753 191.492C158.092 191.492 158.428 191.559 158.741 191.689C159.054 191.819 159.338 192.009 159.578 192.249C159.817 192.489 160.006 192.774 160.135 193.087C160.265 193.401 160.33 193.737 160.329 194.076Z" fill="black"/>
<path opacity="0.1" d="M155.177 186.944C155.177 186.434 155.329 185.936 155.612 185.513C155.895 185.089 156.297 184.759 156.768 184.564C157.238 184.369 157.756 184.318 158.256 184.417C158.756 184.517 159.215 184.762 159.575 185.122C159.935 185.482 160.181 185.941 160.28 186.441C160.379 186.941 160.328 187.459 160.133 187.929C159.938 188.4 159.608 188.803 159.185 189.086C158.761 189.369 158.263 189.52 157.753 189.52C157.071 189.518 156.417 189.246 155.934 188.763C155.451 188.28 155.179 187.626 155.177 186.944Z" fill="black"/>
<path opacity="0.1" d="M152.963 194.076C152.962 194.585 152.809 195.082 152.525 195.505C152.241 195.927 151.839 196.256 151.368 196.45C150.897 196.644 150.379 196.694 149.88 196.594C149.381 196.494 148.922 196.248 148.563 195.887C148.203 195.527 147.959 195.068 147.86 194.568C147.761 194.069 147.813 193.551 148.008 193.081C148.203 192.61 148.533 192.209 148.957 191.926C149.38 191.643 149.878 191.492 150.387 191.492C150.726 191.492 151.061 191.559 151.375 191.689C151.688 191.819 151.972 192.009 152.211 192.249C152.45 192.489 152.64 192.774 152.769 193.087C152.898 193.401 152.964 193.737 152.963 194.076Z" fill="black"/>
<path opacity="0.3" d="M141.493 194.464C143.674 192.282 143.674 188.745 141.493 186.564C139.311 184.382 135.774 184.382 133.592 186.564C131.411 188.745 131.411 192.282 133.592 194.464C135.774 196.645 139.311 196.645 141.493 194.464Z" fill="white"/>
<g opacity="0.1">
<path opacity="0.1" d="M198.36 204.74H127.52V227.078H198.36V204.74Z" fill="black"/>
</g>
<path d="M194.348 207.935H192.353C191.825 207.935 191.396 208.363 191.396 208.891V222.934C191.396 223.463 191.825 223.891 192.353 223.891H194.348C194.876 223.891 195.305 223.463 195.305 222.934V208.891C195.305 208.363 194.876 207.935 194.348 207.935Z" fill="#407BFF"/>
<path opacity="0.1" d="M186.289 207.935H184.295C183.766 207.935 183.338 208.363 183.338 208.891V222.934C183.338 223.463 183.766 223.891 184.295 223.891H186.289C186.818 223.891 187.246 223.463 187.246 222.934V208.891C187.246 208.363 186.818 207.935 186.289 207.935Z" fill="black"/>
<path d="M178.222 207.935H176.227C175.699 207.935 175.27 208.363 175.27 208.891V222.934C175.27 223.463 175.699 223.891 176.227 223.891H178.222C178.75 223.891 179.178 223.463 179.178 222.934V208.891C179.178 208.363 178.75 207.935 178.222 207.935Z" fill="#407BFF"/>
<path d="M170.155 207.935H168.161C167.632 207.935 167.204 208.363 167.204 208.891V222.934C167.204 223.463 167.632 223.891 168.161 223.891H170.155C170.684 223.891 171.112 223.463 171.112 222.934V208.891C171.112 208.363 170.684 207.935 170.155 207.935Z" fill="#407BFF"/>
<path opacity="0.3" d="M147.811 212.35C147.811 211.841 147.962 211.343 148.245 210.919C148.528 210.496 148.93 210.165 149.401 209.97C149.872 209.776 150.39 209.725 150.889 209.824C151.389 209.923 151.848 210.169 152.208 210.529C152.569 210.889 152.814 211.348 152.913 211.848C153.013 212.348 152.962 212.866 152.767 213.336C152.572 213.807 152.242 214.209 151.818 214.492C151.394 214.775 150.896 214.926 150.387 214.926C149.704 214.926 149.048 214.655 148.565 214.172C148.082 213.689 147.811 213.034 147.811 212.35Z" fill="white"/>
<path opacity="0.3" d="M157.754 222.051C159.176 222.051 160.33 220.898 160.33 219.475C160.33 218.052 159.176 216.899 157.754 216.899C156.331 216.899 155.177 218.052 155.177 219.475C155.177 220.898 156.331 222.051 157.754 222.051Z" fill="white"/>
<path opacity="0.1" d="M155.177 212.35C155.177 211.841 155.329 211.343 155.612 210.919C155.895 210.496 156.297 210.165 156.768 209.97C157.238 209.776 157.756 209.725 158.256 209.824C158.756 209.923 159.215 210.169 159.575 210.529C159.935 210.889 160.181 211.348 160.28 211.848C160.379 212.348 160.328 212.866 160.133 213.336C159.938 213.807 159.608 214.209 159.185 214.492C158.761 214.775 158.263 214.926 157.753 214.926C157.07 214.926 156.415 214.655 155.932 214.172C155.449 213.689 155.177 213.034 155.177 212.35Z" fill="black"/>
<path opacity="0.1" d="M150.387 222.051C151.81 222.051 152.963 220.898 152.963 219.475C152.963 218.052 151.81 216.899 150.387 216.899C148.964 216.899 147.811 218.052 147.811 219.475C147.811 220.898 148.964 222.051 150.387 222.051Z" fill="black"/>
<path opacity="0.3" d="M137.544 221.499C140.629 221.499 143.13 218.998 143.13 215.913C143.13 212.828 140.629 210.327 137.544 210.327C134.459 210.327 131.958 212.828 131.958 215.913C131.958 218.998 134.459 221.499 137.544 221.499Z" fill="white"/>
<g opacity="0.1">
<path opacity="0.1" d="M198.36 230.147H127.52V252.485H198.36V230.147Z" fill="black"/>
</g>
<path d="M194.348 233.334H192.353C191.825 233.334 191.396 233.762 191.396 234.291V248.334C191.396 248.862 191.825 249.29 192.353 249.29H194.348C194.876 249.29 195.305 248.862 195.305 248.334V234.291C195.305 233.762 194.876 233.334 194.348 233.334Z" fill="#407BFF"/>
<path opacity="0.1" d="M186.289 233.334H184.295C183.766 233.334 183.338 233.762 183.338 234.291V248.334C183.338 248.862 183.766 249.29 184.295 249.29H186.289C186.818 249.29 187.246 248.862 187.246 248.334V234.291C187.246 233.762 186.818 233.334 186.289 233.334Z" fill="black"/>
<path d="M178.222 233.334H176.227C175.699 233.334 175.27 233.762 175.27 234.291V248.334C175.27 248.862 175.699 249.29 176.227 249.29H178.222C178.75 249.29 179.178 248.862 179.178 248.334V234.291C179.178 233.762 178.75 233.334 178.222 233.334Z" fill="#407BFF"/>
<path d="M170.155 233.334H168.161C167.632 233.334 167.204 233.762 167.204 234.291V248.334C167.204 248.862 167.632 249.29 168.161 249.29H170.155C170.684 249.29 171.112 248.862 171.112 248.334V234.291C171.112 233.762 170.684 233.334 170.155 233.334Z" fill="#407BFF"/>
<path opacity="0.3" d="M147.811 237.728C147.812 237.219 147.965 236.721 148.249 236.299C148.533 235.876 148.935 235.547 149.406 235.353C149.877 235.159 150.395 235.109 150.894 235.21C151.393 235.31 151.851 235.556 152.211 235.916C152.571 236.277 152.815 236.736 152.914 237.235C153.013 237.735 152.961 238.252 152.766 238.723C152.571 239.193 152.241 239.595 151.817 239.878C151.394 240.16 150.896 240.311 150.387 240.311C150.048 240.311 149.712 240.244 149.399 240.114C149.086 239.984 148.802 239.794 148.563 239.554C148.324 239.314 148.134 239.029 148.005 238.716C147.876 238.402 147.81 238.067 147.811 237.728Z" fill="white"/>
<path opacity="0.3" d="M157.754 247.45C159.176 247.45 160.33 246.297 160.33 244.874C160.33 243.452 159.176 242.298 157.754 242.298C156.331 242.298 155.177 243.452 155.177 244.874C155.177 246.297 156.331 247.45 157.754 247.45Z" fill="white"/>
<path opacity="0.1" d="M155.178 237.728C155.179 237.219 155.331 236.721 155.615 236.299C155.899 235.876 156.302 235.547 156.773 235.353C157.244 235.159 157.761 235.109 158.261 235.21C158.76 235.31 159.218 235.556 159.578 235.916C159.937 236.277 160.182 236.736 160.281 237.235C160.379 237.735 160.328 238.252 160.133 238.723C159.938 239.193 159.607 239.595 159.184 239.878C158.76 240.16 158.263 240.311 157.754 240.311C157.415 240.311 157.079 240.244 156.766 240.114C156.453 239.984 156.169 239.794 155.929 239.554C155.69 239.314 155.5 239.029 155.371 238.716C155.242 238.402 155.177 238.067 155.178 237.728Z" fill="black"/>
<path opacity="0.1" d="M150.387 247.45C151.81 247.45 152.963 246.297 152.963 244.874C152.963 243.452 151.81 242.298 150.387 242.298C148.964 242.298 147.811 243.452 147.811 244.874C147.811 246.297 148.964 247.45 150.387 247.45Z" fill="black"/>
<path opacity="0.1" d="M137.544 246.899C140.629 246.899 143.13 244.398 143.13 241.312C143.13 238.227 140.629 235.726 137.544 235.726C134.459 235.726 131.958 238.227 131.958 241.312C131.958 244.398 134.459 246.899 137.544 246.899Z" fill="black"/>
<g opacity="0.1">
<path opacity="0.1" d="M198.36 255.546H127.52V277.884H198.36V255.546Z" fill="black"/>
</g>
<path d="M194.348 258.741H192.353C191.825 258.741 191.396 259.169 191.396 259.698V273.74C191.396 274.269 191.825 274.697 192.353 274.697H194.348C194.876 274.697 195.305 274.269 195.305 273.74V259.698C195.305 259.169 194.876 258.741 194.348 258.741Z" fill="#407BFF"/>
<path opacity="0.1" d="M186.289 258.741H184.295C183.766 258.741 183.338 259.169 183.338 259.698V273.74C183.338 274.269 183.766 274.697 184.295 274.697H186.289C186.818 274.697 187.246 274.269 187.246 273.74V259.698C187.246 259.169 186.818 258.741 186.289 258.741Z" fill="black"/>
<path d="M178.222 258.741H176.227C175.699 258.741 175.27 259.169 175.27 259.698V273.74C175.27 274.269 175.699 274.697 176.227 274.697H178.222C178.75 274.697 179.178 274.269 179.178 273.74V259.698C179.178 259.169 178.75 258.741 178.222 258.741Z" fill="#407BFF"/>
<path d="M170.155 258.741H168.161C167.632 258.741 167.204 259.169 167.204 259.698V273.74C167.204 274.269 167.632 274.697 168.161 274.697H170.155C170.684 274.697 171.112 274.269 171.112 273.74V259.698C171.112 259.169 170.684 258.741 170.155 258.741Z" fill="#407BFF"/>
<path opacity="0.3" d="M150.387 265.733C151.81 265.733 152.963 264.579 152.963 263.157C152.963 261.734 151.81 260.581 150.387 260.581C148.964 260.581 147.811 261.734 147.811 263.157C147.811 264.579 148.964 265.733 150.387 265.733Z" fill="white"/>
<path opacity="0.3" d="M157.754 272.857C159.176 272.857 160.33 271.704 160.33 270.281C160.33 268.858 159.176 267.705 157.754 267.705C156.331 267.705 155.177 268.858 155.177 270.281C155.177 271.704 156.331 272.857 157.754 272.857Z" fill="white"/>
<path opacity="0.3" d="M157.754 265.733C159.176 265.733 160.33 264.579 160.33 263.157C160.33 261.734 159.176 260.581 157.754 260.581C156.331 260.581 155.177 261.734 155.177 263.157C155.177 264.579 156.331 265.733 157.754 265.733Z" fill="white"/>
<path opacity="0.1" d="M150.387 272.857C151.81 272.857 152.963 271.704 152.963 270.281C152.963 268.858 151.81 267.705 150.387 267.705C148.964 267.705 147.811 268.858 147.811 270.281C147.811 271.704 148.964 272.857 150.387 272.857Z" fill="black"/>
<path opacity="0.3" d="M137.544 272.305C140.629 272.305 143.13 269.804 143.13 266.719C143.13 263.634 140.629 261.133 137.544 261.133C134.459 261.133 131.958 263.634 131.958 266.719C131.958 269.804 134.459 272.305 137.544 272.305Z" fill="white"/>
<g opacity="0.1">
<path opacity="0.1" d="M198.36 280.946H127.52V303.283H198.36V280.946Z" fill="black"/>
</g>
<path d="M194.348 284.14H192.353C191.825 284.14 191.396 284.569 191.396 285.097V299.14C191.396 299.668 191.825 300.097 192.353 300.097H194.348C194.876 300.097 195.305 299.668 195.305 299.14V285.097C195.305 284.569 194.876 284.14 194.348 284.14Z" fill="#407BFF"/>
<path opacity="0.1" d="M186.289 284.14H184.295C183.766 284.14 183.338 284.569 183.338 285.097V299.14C183.338 299.668 183.766 300.097 184.295 300.097H186.289C186.818 300.097 187.246 299.668 187.246 299.14V285.097C187.246 284.569 186.818 284.14 186.289 284.14Z" fill="black"/>
<path d="M178.222 284.14H176.227C175.699 284.14 175.27 284.569 175.27 285.097V299.14C175.27 299.668 175.699 300.097 176.227 300.097H178.222C178.75 300.097 179.178 299.668 179.178 299.14V285.097C179.178 284.569 178.75 284.14 178.222 284.14Z" fill="#407BFF"/>
<path d="M170.155 284.14H168.161C167.632 284.14 167.204 284.569 167.204 285.097V299.14C167.204 299.668 167.632 300.097 168.161 300.097H170.155C170.684 300.097 171.112 299.668 171.112 299.14V285.097C171.112 284.569 170.684 284.14 170.155 284.14Z" fill="#407BFF"/>
<path opacity="0.3" d="M150.387 291.132C151.81 291.132 152.963 289.979 152.963 288.556C152.963 287.133 151.81 285.98 150.387 285.98C148.964 285.98 147.811 287.133 147.811 288.556C147.811 289.979 148.964 291.132 150.387 291.132Z" fill="white"/>
<path opacity="0.3" d="M157.754 298.256C159.176 298.256 160.33 297.103 160.33 295.68C160.33 294.258 159.176 293.104 157.754 293.104C156.331 293.104 155.177 294.258 155.177 295.68C155.177 297.103 156.331 298.256 157.754 298.256Z" fill="white"/>
<path opacity="0.3" d="M157.754 291.132C159.176 291.132 160.33 289.979 160.33 288.556C160.33 287.133 159.176 285.98 157.754 285.98C156.331 285.98 155.177 287.133 155.177 288.556C155.177 289.979 156.331 291.132 157.754 291.132Z" fill="white"/>
<path opacity="0.1" d="M150.387 298.256C151.81 298.256 152.963 297.103 152.963 295.68C152.963 294.258 151.81 293.104 150.387 293.104C148.964 293.104 147.811 294.258 147.811 295.68C147.811 297.103 148.964 298.256 150.387 298.256Z" fill="black"/>
<path opacity="0.3" d="M137.544 297.705C140.629 297.705 143.13 295.204 143.13 292.118C143.13 289.033 140.629 286.532 137.544 286.532C134.459 286.532 131.958 289.033 131.958 292.118C131.958 295.204 134.459 297.705 137.544 297.705Z" fill="white"/>
<path d="M127.153 128.866H181.838L189.529 160.19H134.844L127.153 128.866Z" fill="#407BFF"/>
<path d="M150.298 160.19L150.511 161.92H208.935L208.721 160.19H150.298Z" fill="#407BFF"/>
<path d="M180.204 128.866L187.895 160.19H187.902L188.116 161.92H135.057L134.844 160.19L127.153 128.866H180.204Z" fill="#407BFF"/>
<path opacity="0.6" d="M180.204 128.866L187.895 160.19H187.902L188.116 161.92H135.057L134.844 160.19L127.153 128.866H180.204Z" fill="white"/>
<path opacity="0.3" d="M158.165 110.334L157.82 110.157C157.378 109.929 147.052 104.431 145.587 97.2107C144.71 92.5839 144.35 87.8741 144.513 83.1678V82.5201L145.16 82.4759C145.241 82.4759 152.94 81.8651 157.908 80.2679L158.136 80.1943L158.357 80.2679C163.325 81.8503 171.023 82.4759 171.104 82.4759L171.752 82.5201V83.1678C171.939 87.8714 171.603 92.5811 170.751 97.2107C169.279 104.431 158.975 109.929 158.519 110.157L158.165 110.334ZM145.963 83.9038C145.869 88.2717 146.229 92.6374 147.037 96.931C148.215 102.775 156.377 107.677 158.165 108.707C159.947 107.706 168.109 102.819 169.286 96.931C170.098 92.6379 170.458 88.2718 170.361 83.9038C166.239 83.568 162.157 82.856 158.165 81.7767C154.171 82.8555 150.086 83.5675 145.963 83.9038Z" fill="#407BFF"/>
<path d="M158.166 106.241C155.082 104.357 149.886 100.456 149.091 96.5039C148.415 92.9714 148.066 89.3843 148.046 85.7878C151.462 85.4355 154.845 84.8203 158.166 83.9478C161.484 84.8209 164.865 85.4361 168.279 85.7878C168.256 89.3841 167.906 92.971 167.233 96.5039C166.439 100.456 161.242 104.357 158.166 106.241Z" fill="#407BFF"/>
<path opacity="0.3" d="M105.918 306.353H104.446V134.364C104.452 130.13 106.136 126.071 109.13 123.077C112.124 120.083 116.183 118.399 120.417 118.393H153.242C154.351 118.389 155.413 117.946 156.197 117.162C156.98 116.377 157.421 115.314 157.423 114.205H158.895C158.895 115.705 158.3 117.143 157.24 118.205C156.18 119.266 154.742 119.863 153.242 119.865H120.417C116.573 119.869 112.887 121.398 110.169 124.116C107.45 126.834 105.922 130.52 105.918 134.364V306.353Z" fill="#407BFF"/>
</svg>
