<svg width="1024" height="928" viewBox="0 0 1024 928" fill="none" xmlns="http://www.w3.org/2000/svg">
<g clip-path="url(#clip0)">
<path d="M179.337 856.31C362.568 952.114 659.649 952.114 842.88 856.31C1026.11 760.506 1026.11 605.392 842.88 509.677C659.649 413.962 362.568 413.873 179.337 509.677C-3.89386 605.481 -3.89386 760.572 179.337 856.31Z" fill="#F5F5F5" fill-opacity="0.5"/>
<path d="M280.555 415.99L324.714 390.502L280.555 365.013L235.995 390.502L280.555 415.99Z" stroke="#EBEBEB" stroke-width="1.08419" stroke-linecap="round" stroke-linejoin="round"/>
<path d="M246.265 390.524L280.576 291.356V410.331L246.265 390.524Z" fill="#D4DCEF"/>
<path d="M280.577 410.331L314.866 390.524L280.577 291.356V410.331Z" fill="#E1EAFA"/>
<path d="M226.592 447.093L270.751 421.604L226.592 396.116L182.032 421.604L226.592 447.093Z" stroke="#EBEBEB" stroke-width="1.08419" stroke-linecap="round" stroke-linejoin="round"/>
<path d="M192.304 421.627L226.593 274.356V441.434L192.304 421.627Z" fill="#D4DCEF"/>
<path d="M226.592 441.434L260.881 421.627L226.592 274.356V441.434Z" fill="#E1EAFA"/>
<path d="M172.631 478.196L216.79 452.707L172.631 427.219L128.049 452.707L172.631 478.196Z" stroke="#EBEBEB" stroke-width="1.08419" stroke-linecap="round" stroke-linejoin="round"/>
<path d="M138.341 452.73L172.63 365.013V472.537L138.341 452.73Z" fill="#D4DCEF"/>
<path d="M172.631 472.537L206.92 452.73L172.631 365.013V472.537Z" fill="#E1EAFA"/>
<path d="M118.668 509.299L162.827 483.81L118.668 458.322L74.0859 483.81L118.668 509.299Z" stroke="#EBEBEB" stroke-width="1.08419" stroke-linecap="round" stroke-linejoin="round"/>
<path d="M84.3564 483.832L118.668 334.913V503.639L84.3564 483.832Z" fill="#D4DCEF"/>
<path d="M118.668 503.639L152.957 483.832L118.668 334.913V503.639Z" fill="#E1EAFA"/>
<path d="M707.195 382.102L942.694 518.055" stroke="#EBEBEB" stroke-width="1.08419" stroke-miterlimit="10" stroke-linecap="round"/>
<path d="M942.695 503.639C942.41 486.573 941.213 469.534 939.108 452.596C936.88 434.193 932.424 403.134 914.711 392.885C896.999 382.637 890.315 401.174 887.752 410.286C884.41 422.117 867.054 414.631 864.648 395.136C862.242 375.641 860.66 313.524 839.85 301.56C819.041 289.595 812.335 318.448 809.973 326.513C805.316 342.354 791.659 337.988 787.203 327.494C782.747 317 770.582 314.438 765.992 329.209C761.403 343.981 758.573 360.936 743.712 352.225C730.656 344.582 736.649 330.657 723.928 324.04C713.857 318.827 709.178 343.691 709.178 368.845L942.695 503.639Z" fill="#D4DCEF"/>
<path d="M925.584 373.992C925.584 376.71 923.133 377.49 920.147 375.774L902.324 365.437C900.858 364.606 899.605 363.448 898.662 362.052C897.719 360.657 897.112 359.063 896.887 357.393C896.887 354.698 899.338 353.895 902.324 355.633L920.147 365.971C921.612 366.797 922.865 367.951 923.809 369.343C924.752 370.734 925.359 372.326 925.584 373.992Z" fill="#E1EAFA"/>
<path d="M852.416 286.588C852.416 289.306 849.988 290.086 846.98 288.37L829.156 278.032C827.688 277.206 826.432 276.049 825.488 274.653C824.545 273.256 823.939 271.66 823.72 269.989C823.72 267.293 826.148 266.491 829.156 268.229L846.98 278.567C848.447 279.39 849.702 280.543 850.645 281.935C851.589 283.327 852.195 284.92 852.416 286.588Z" fill="#E1EAFA"/>
<path d="M794.466 302.674C794.466 305.392 792.038 306.172 789.052 304.456L771.228 294.118C769.76 293.292 768.504 292.135 767.56 290.739C766.617 289.343 766.011 287.746 765.792 286.075C765.792 283.379 768.221 282.577 771.228 284.315L789.052 294.653C790.514 295.48 791.764 296.635 792.703 298.026C793.642 299.418 794.246 301.009 794.466 302.674Z" fill="#E1EAFA"/>
<path d="M739.523 307.999C739.523 310.717 737.095 311.497 734.087 309.759L716.263 299.443C714.801 298.611 713.551 297.452 712.612 296.057C711.673 294.662 711.069 293.068 710.849 291.4C710.849 288.704 713.278 287.902 716.263 289.64L734.087 299.956C735.553 300.785 736.807 301.943 737.751 303.338C738.694 304.734 739.301 306.329 739.523 307.999Z" fill="#E1EAFA"/>
<path d="M697.391 362.028V214.735" stroke="#EBEBEB" stroke-width="1.08419" stroke-miterlimit="10" stroke-linecap="round"/>
<path d="M126.555 687.828C126.555 687.828 130.209 655.121 120.072 623.974C110.536 594.519 91.3753 578.901 79.7674 574.222C57.8216 565.466 55.861 589.64 72.3037 606.372C84.3571 618.671 113.366 644.026 118.356 687.026L126.555 687.828Z" fill="#407BFF"/>
<path opacity="0.7" d="M126.555 687.828C126.555 687.828 130.209 655.121 120.072 623.974C110.536 594.519 91.3753 578.901 79.7674 574.222C57.8216 565.466 55.861 589.64 72.3037 606.372C84.3571 618.671 113.366 644.026 118.356 687.026L126.555 687.828Z" fill="white"/>
<path d="M73.8413 580.973C87.0979 589.885 122.724 615.619 124.016 687.583" stroke="#D4DCEF" stroke-width="1.08419" stroke-miterlimit="10" stroke-linecap="round"/>
<path d="M117.22 710.175C110.403 677.201 96.4777 665.236 71.5909 652.492C60.9411 647.056 48.4643 640.996 43.9637 634.066C39.4632 627.137 41.7357 617.824 57.0644 618.025C85.0703 618.404 116.975 652.158 121.231 689.143L117.22 710.175Z" fill="#407BFF"/>
<path opacity="0.8" d="M117.22 710.175C110.403 677.201 96.4777 665.236 71.5909 652.492C60.9411 647.056 48.4643 640.996 43.9637 634.066C39.4632 627.137 41.7357 617.824 57.0644 618.025C85.0703 618.404 116.975 652.158 121.231 689.143L117.22 710.175Z" fill="white"/>
<path d="M54.7034 625.199C75.8471 628.073 109.245 652.715 119.85 696.495" stroke="#D4DCEF" stroke-width="1.08419" stroke-miterlimit="10" stroke-linecap="round"/>
<path d="M898.335 672.388C906.913 655.901 913.575 609.648 902.546 588.259C891.518 566.87 875.12 568.586 872.58 575.515C870.352 581.909 875.855 593.339 882.984 606.952C890.114 620.565 896.13 649.729 889.379 663.32L898.335 672.388Z" fill="#407BFF"/>
<path opacity="0.7" d="M898.335 672.388C906.913 655.901 913.575 609.648 902.546 588.259C891.518 566.87 875.12 568.586 872.58 575.515C870.352 581.909 875.855 593.339 882.984 606.952C890.114 620.565 896.13 649.729 889.379 663.32L898.335 672.388Z" fill="white"/>
<path d="M883.407 576.629C890.425 582.266 910.521 616.733 896.463 664.033" stroke="#D4DCEF" stroke-width="1.08419" stroke-miterlimit="10" stroke-linecap="round"/>
<path d="M895.617 689.856C890.448 679.518 879.13 662.407 886.839 650.665C894.548 638.924 902.613 649.306 908.807 641.642C915.001 633.977 907.916 621.59 913.263 614.906C923.601 601.761 931.087 617.022 939.197 615.017C945.057 613.569 951.585 600.58 968.451 602.162C985.317 603.744 984.47 617.112 976.962 623.394C969.454 629.677 960.542 635.938 966.334 645.363C971.459 653.718 974.11 669.158 956.576 675.151C939.821 680.877 948.109 688.14 945.436 696.339C942.762 704.538 926.943 712.314 910.122 705.986L895.617 689.856Z" fill="#407BFF"/>
<path opacity="0.8" d="M895.617 689.856C890.448 679.518 879.13 662.407 886.839 650.665C894.548 638.924 902.613 649.306 908.807 641.642C915.001 633.977 907.916 621.59 913.263 614.906C923.601 601.761 931.087 617.022 939.197 615.017C945.057 613.569 951.585 600.58 968.451 602.162C985.317 603.744 984.47 617.112 976.962 623.394C969.454 629.677 960.542 635.938 966.334 645.363C971.459 653.718 974.11 669.158 956.576 675.151C939.821 680.877 948.109 688.14 945.436 696.339C942.762 704.538 926.943 712.314 910.122 705.986L895.617 689.856Z" fill="white"/>
<path d="M970.768 609.737C952.498 614.638 908.74 650.197 905.042 694.824" stroke="#D4DCEF" stroke-width="1.08419" stroke-miterlimit="10" stroke-linecap="round"/>
<path d="M957.599 656.592C948.575 654.542 925.649 654.252 917.071 658.418" stroke="#D4DCEF" stroke-width="1.08419" stroke-miterlimit="10" stroke-linecap="round"/>
<path d="M922.175 618.827C922.175 618.827 928.859 631.772 927.901 642.667" stroke="#D4DCEF" stroke-width="1.08419" stroke-miterlimit="10" stroke-linecap="round"/>
<path d="M672.951 492.388C669.964 482.048 664.626 472.539 657.355 464.605C648.761 455.233 638.709 447.311 627.589 441.144C614.676 433.83 600.946 428.064 586.683 423.966C570.97 419.431 554.852 416.446 538.558 415.054C521.727 413.517 504.791 413.517 487.96 415.054C471.673 416.446 455.562 419.431 439.857 423.966C425.586 428.06 411.847 433.826 398.929 441.144C387.808 447.364 377.764 455.339 369.185 464.761C361.92 472.7 356.583 482.207 353.589 492.544C350.927 502.106 350.927 512.213 353.589 521.775C356.559 532.115 361.899 541.621 369.185 549.536C377.77 558.966 387.822 566.949 398.951 573.175C411.854 580.488 425.578 586.246 439.835 590.331C455.547 594.886 471.664 597.9 487.96 599.332C504.792 600.847 521.726 600.847 538.558 599.332C554.862 597.895 570.987 594.873 586.705 590.309C600.962 586.224 614.686 580.465 627.589 573.153C638.722 566.932 648.774 558.949 657.355 549.514C664.631 541.591 669.969 532.088 672.951 521.753C675.616 512.146 675.616 501.995 672.951 492.388Z" fill="#37474F"/>
<path d="M351.584 492.432H674.934V508.92L351.584 508.006V492.432Z" fill="#37474F"/>
<path d="M487.959 400.282L513.225 492.388L439.856 409.284C455.558 404.718 471.669 401.704 487.959 400.282Z" fill="#E1EAFA"/>
<path d="M538.558 400.282L513.292 492.388L488.027 400.238C504.837 398.719 521.75 398.734 538.558 400.282Z" fill="#E1EAFA"/>
<path d="M586.683 409.284L513.292 492.388L538.558 400.238C554.857 401.674 570.975 404.703 586.683 409.284Z" fill="#E1EAFA"/>
<path d="M657.332 450.056C664.6 458.002 669.937 467.517 672.928 477.861L513.314 492.388L657.332 450.056Z" fill="#E1EAFA"/>
<path d="M672.951 477.884C675.591 487.441 675.591 497.535 672.951 507.093L513.314 492.388L672.951 477.884Z" fill="#E1EAFA"/>
<path d="M672.951 507.093C669.965 517.433 664.627 526.942 657.355 534.876L513.314 492.544L672.951 507.093Z" fill="#E1EAFA"/>
<path d="M657.355 534.876C648.773 544.303 638.721 552.279 627.589 558.493L513.27 492.388L657.355 534.876Z" fill="#E1EAFA"/>
<path d="M513.293 492.499L586.705 575.671C570.986 580.208 554.86 583.193 538.558 584.583L513.27 492.432L513.293 492.499Z" fill="#E1EAFA"/>
<path d="M513.271 492.522L538.559 584.672C521.728 586.209 504.792 586.209 487.961 584.672L513.271 492.522Z" fill="#E1EAFA"/>
<path d="M513.225 492.499L487.915 584.65C471.614 583.259 455.488 580.275 439.768 575.738L513.225 492.499Z" fill="#E1EAFA"/>
<path d="M513.225 492.499L439.701 575.671C425.446 571.569 411.724 565.803 398.817 558.493L513.225 492.499Z" fill="#E1EAFA"/>
<path d="M513.204 492.388L369.164 534.72C361.881 526.793 356.542 517.282 353.568 506.937L513.204 492.388Z" fill="#E1EAFA"/>
<path d="M513.203 492.388L353.589 507.093C350.927 497.538 350.927 487.438 353.589 477.884L513.203 492.388Z" fill="#E1EAFA"/>
<path d="M513.203 492.388L353.59 477.795C356.588 467.453 361.924 457.939 369.186 449.989L513.203 492.388Z" fill="#E1EAFA"/>
<path d="M398.929 426.484L513.203 492.388L369.186 450.056C377.768 440.65 387.811 432.69 398.929 426.484Z" fill="#E1EAFA"/>
<path d="M627.589 426.484L513.292 492.388L586.683 409.239C600.952 413.349 614.684 419.137 627.589 426.484Z" fill="#E1EAFA"/>
<path d="M627.589 426.484C638.711 432.684 648.755 440.645 657.332 450.056L513.314 492.388L627.589 426.484Z" fill="#E1EAFA"/>
<path d="M513.225 492.388L398.884 558.404C387.755 552.185 377.704 544.21 369.117 534.787L513.158 492.455L513.225 492.388Z" fill="#E1EAFA"/>
<path d="M439.857 409.284L513.225 492.388L398.929 426.395C411.846 419.091 425.585 413.347 439.857 409.284Z" fill="#E1EAFA"/>
<path d="M513.292 492.499L627.589 558.493C614.682 565.803 600.96 571.569 586.705 575.671L513.292 492.499Z" fill="#E1EAFA"/>
<path d="M415.483 399.436L506.274 451.838L501.818 377.757C468.42 379.183 440.058 386.313 415.483 399.436Z" fill="#407BFF"/>
<path opacity="0.2" d="M415.483 399.436L506.274 451.838L501.818 377.757C468.42 379.183 440.058 386.313 415.483 399.436Z" fill="white"/>
<path d="M506.274 451.838V480.446L415.483 428.021V399.436L506.274 451.838Z" fill="#407BFF"/>
<path opacity="0.1" d="M506.274 451.838V480.446L415.483 428.021V399.436L506.274 451.838Z" fill="black"/>
<path d="M623.98 406.788L519.776 453.799V482.384L623.98 435.373V406.788Z" fill="#407BFF"/>
<path opacity="0.3" d="M623.98 406.788L519.776 453.799V482.384L623.98 435.373V406.788Z" fill="black"/>
<path d="M623.979 406.788C595.929 387.694 558.521 377.624 515.164 377.49L517.949 423.81L519.776 453.799L623.979 406.788Z" fill="#407BFF"/>
<path opacity="0.1" d="M623.979 406.788C595.929 387.694 558.521 377.624 515.164 377.49L517.949 423.81L519.776 453.799L623.979 406.788Z" fill="black"/>
<path d="M515.142 377.49V406.075L519.776 482.384V453.799L515.142 377.49Z" fill="#263238"/>
<path d="M540.964 508.853L594.236 560.097C597.221 558.961 599.984 557.869 603.148 556.354C639.843 539.822 659.026 515.047 659.004 490.049V461.753C654.971 450.992 643.875 451.014 632.268 441.545L523.474 490.561L522.383 491.051L540.964 508.853Z" fill="#407BFF"/>
<path opacity="0.6" d="M540.964 508.853L594.236 560.097C597.221 558.961 599.984 557.869 603.148 556.354C639.843 539.822 659.026 515.047 659.004 490.049V461.753C654.971 450.992 643.875 451.014 632.268 441.545L523.474 490.561L522.383 491.051L540.964 508.853Z" fill="white"/>
<path d="M540.964 480.268L594.235 531.512C597.221 530.375 599.983 529.284 603.147 527.746C664.573 500.008 676.872 449.209 632.312 412.871L523.518 461.887L522.427 462.377L540.964 480.268Z" fill="#407BFF"/>
<path opacity="0.8" d="M540.964 480.268L594.235 531.512C597.221 530.375 599.983 529.284 603.147 527.746C664.573 500.008 676.872 449.209 632.312 412.871L523.518 461.887L522.427 462.377L540.964 480.268Z" fill="white"/>
<path d="M594.147 560.052V531.445L522.316 462.444V491.029L594.147 560.052Z" fill="#407BFF"/>
<path opacity="0.6" d="M594.147 560.052V531.445L522.316 462.444V491.029L594.147 560.052Z" fill="white"/>
<path d="M406.036 433.48C390.73 443.127 373.73 449.209 367.537 460.929V489.536C367.537 504.441 374.466 519.547 388.836 533.361C408.888 552.589 440.637 566.179 478.357 571.593C513.265 576.747 548.879 574.153 582.672 563.996V535.411L535.773 518.923L508.235 492.388L406.036 433.48Z" fill="#407BFF"/>
<path opacity="0.6" d="M406.036 433.48C390.73 443.127 373.73 449.209 367.537 460.929V489.536C367.537 504.441 374.466 519.547 388.836 533.361C408.888 552.589 440.637 566.179 478.357 571.593C513.265 576.747 548.879 574.153 582.672 563.996V535.411L535.773 518.923L508.235 492.388L406.036 433.48Z" fill="black"/>
<path d="M406.037 404.894C362.056 432.566 354.971 472.225 388.837 504.753C408.889 524.003 440.638 537.572 478.358 543.008C513.266 548.15 548.878 545.556 582.673 535.411L535.773 490.338L508.235 463.892L406.037 404.894Z" fill="#407BFF"/>
<path opacity="0.3" d="M406.037 404.894C362.056 432.566 354.971 472.225 388.837 504.753C408.889 524.003 440.638 537.572 478.358 543.008C513.266 548.15 548.878 545.556 582.673 535.411L535.773 490.338L508.235 463.892L406.037 404.894Z" fill="black"/>
<path d="M916.359 716.636C913.373 706.296 908.035 696.788 900.763 688.853C892.188 679.428 882.144 671.452 871.02 665.236C858.107 657.922 844.377 652.156 830.114 648.058C814.401 643.523 798.283 640.539 781.989 639.146C765.158 637.609 748.222 637.609 731.391 639.146C715.104 640.541 698.993 643.525 683.288 648.058C669.025 652.156 655.295 657.922 642.382 665.236C631.25 671.45 621.198 679.426 612.616 688.853C605.351 696.792 600.014 706.3 597.02 716.636C594.358 726.198 594.358 736.306 597.02 745.868C599.99 756.208 605.33 765.713 612.616 773.629C621.201 783.059 631.253 791.041 642.382 797.268C655.289 804.572 669.012 810.33 683.266 814.423C698.988 818.947 715.113 821.932 731.413 823.335C748.245 824.85 765.179 824.85 782.011 823.335C798.311 821.934 814.436 818.95 830.158 814.423C844.42 810.341 858.144 804.574 871.042 797.245C882.182 791.033 892.241 783.058 900.83 773.629C908.1 765.701 913.438 756.2 916.426 745.868C919.056 736.298 919.033 726.194 916.359 716.636Z" fill="#2C3952"/>
<path d="M594.993 716.614H918.343V733.101L594.993 732.188V716.614Z" fill="#37474F"/>
<path d="M731.368 624.464L756.656 716.614L683.265 633.465C698.967 628.902 715.078 625.887 731.368 624.464Z" fill="#E1EAFA"/>
<path d="M781.967 624.464L756.702 716.614L731.414 624.464C748.23 622.929 765.151 622.929 781.967 624.464Z" fill="#E1EAFA"/>
<path d="M830.092 633.465L756.701 716.614L781.967 624.464C798.264 625.885 814.382 628.9 830.092 633.465Z" fill="#E1EAFA"/>
<path d="M900.742 674.26C908.014 682.202 913.351 691.719 916.338 702.065L756.724 716.659L900.742 674.26Z" fill="#E1EAFA"/>
<path d="M916.359 702.065C919.011 711.621 919.011 721.718 916.359 731.274L756.746 716.659L916.359 702.065Z" fill="#E1EAFA"/>
<path d="M916.36 731.274C913.367 741.611 908.03 751.119 900.764 759.057L756.724 716.725L916.36 731.274Z" fill="#E1EAFA"/>
<path d="M900.786 759.057C892.186 768.474 882.128 776.448 870.998 782.674L756.679 716.659L900.786 759.057Z" fill="#E1EAFA"/>
<path d="M756.701 716.681L830.114 799.852C814.392 804.378 798.267 807.363 781.967 808.764L756.679 716.614L756.701 716.681Z" fill="#E1EAFA"/>
<path d="M756.68 716.703L781.968 808.764C765.137 810.29 748.201 810.29 731.37 808.764L756.68 716.703Z" fill="#E1EAFA"/>
<path d="M756.656 716.681L731.368 808.764C715.069 807.361 698.944 804.377 683.221 799.852L756.656 716.681Z" fill="#E1EAFA"/>
<path d="M756.658 716.681L683.134 799.852C668.882 795.742 655.16 789.977 642.25 782.674L756.658 716.681Z" fill="#E1EAFA"/>
<path d="M756.613 716.659L612.573 758.99C605.29 751.064 599.951 741.552 596.977 731.207L756.613 716.659Z" fill="#E1EAFA"/>
<path d="M756.612 716.659L596.998 731.274C594.336 721.72 594.336 711.619 596.998 702.065L756.612 716.659Z" fill="#E1EAFA"/>
<path d="M756.613 716.636L596.999 702.043C599.992 691.699 605.329 682.184 612.595 674.237L756.613 716.636Z" fill="#E1EAFA"/>
<path d="M642.361 650.576L756.613 716.547L612.595 674.215C621.175 664.78 631.227 656.797 642.361 650.576Z" fill="#E1EAFA"/>
<path d="M870.998 650.576L756.701 716.547L830.092 633.398C844.358 637.487 858.09 643.253 870.998 650.576Z" fill="#E1EAFA"/>
<path d="M870.997 650.576C882.121 656.783 892.166 664.751 900.741 674.17L756.746 716.502L870.997 650.576Z" fill="#E1EAFA"/>
<path d="M756.658 716.636L642.339 782.674C631.215 776.448 621.165 768.474 612.573 759.057L756.613 716.725L756.658 716.636Z" fill="#E1EAFA"/>
<path d="M683.266 633.465L756.657 716.614L642.36 650.576C655.272 643.276 669.003 637.532 683.266 633.465Z" fill="#E1EAFA"/>
<path d="M756.701 716.681L870.998 782.674C858.091 789.985 844.369 795.75 830.114 799.852L756.701 716.681Z" fill="#E1EAFA"/>
<path d="M614.243 680.453V726.751C613.07 722.521 612.47 718.152 612.46 713.762V680.453H614.243Z" fill="#407BFF"/>
<path opacity="0.3" d="M614.243 680.453V726.751C613.07 722.521 612.47 718.152 612.46 713.762V680.453H614.243Z" fill="black"/>
<path d="M756.613 680.498L614.244 693.51C611.882 684.988 611.882 675.985 614.244 667.464L756.613 680.498Z" fill="#407BFF"/>
<path d="M756.613 680.453L614.244 667.42C616.919 658.194 621.684 649.709 628.169 642.622L756.613 680.453Z" fill="#407BFF"/>
<path d="M654.704 621.612L756.613 680.453L628.169 642.577C635.83 634.209 644.79 627.13 654.704 621.612Z" fill="#407BFF"/>
<path d="M691.199 606.283L756.658 680.431L654.704 621.612C666.221 615.079 678.471 609.933 691.199 606.283Z" fill="#407BFF"/>
<path d="M734.109 598.263L756.656 680.431L691.198 606.283C705.204 602.209 719.577 599.522 734.109 598.263Z" fill="#407BFF"/>
<path d="M779.361 598.263L756.702 680.431L734.155 598.263C749.192 596.877 764.324 596.877 779.361 598.263Z" fill="#407BFF"/>
<path d="M822.16 606.283L756.701 680.431L779.36 598.263C793.855 599.53 808.19 602.216 822.16 606.283Z" fill="#407BFF"/>
<g opacity="0.2">
<path opacity="0.2" d="M756.613 680.498L614.244 693.51C611.882 684.988 611.882 675.985 614.244 667.464L756.613 680.498Z" fill="white"/>
<path opacity="0.2" d="M756.613 680.454L614.244 667.42C616.919 658.194 621.684 649.709 628.169 642.622L756.613 680.454Z" fill="white"/>
<path opacity="0.2" d="M654.704 621.612L756.613 680.453L628.169 642.578C635.83 634.209 644.79 627.13 654.704 621.612Z" fill="white"/>
<path opacity="0.2" d="M691.199 606.283L756.658 680.431L654.704 621.612C666.221 615.079 678.471 609.933 691.199 606.283Z" fill="white"/>
<path opacity="0.2" d="M734.111 598.263L756.659 680.431L691.2 606.283C705.206 602.209 719.579 599.523 734.111 598.263Z" fill="white"/>
<path opacity="0.2" d="M779.361 598.263L756.702 680.431L734.155 598.263C749.192 596.877 764.324 596.877 779.361 598.263Z" fill="white"/>
<path opacity="0.2" d="M822.16 606.283L756.701 680.431L779.36 598.263C793.855 599.53 808.19 602.216 822.16 606.283Z" fill="white"/>
</g>
<path d="M877.392 702.689L856.026 722.741L839.784 738.092L824.299 752.663L822.227 754.601V787.865C834.952 784.219 847.202 779.081 858.722 772.559C868.647 766.993 877.614 759.87 885.279 751.46C891.762 744.396 896.513 735.922 899.16 726.707C900.34 722.477 900.947 718.109 900.964 713.718V680.476L877.392 702.689Z" fill="#407BFF"/>
<path opacity="0.3" d="M877.392 702.689L856.026 722.741L839.784 738.092L824.299 752.663L822.227 754.601V787.865C834.952 784.219 847.202 779.081 858.722 772.559C868.647 766.993 877.614 759.87 885.279 751.46C891.762 744.396 896.513 735.922 899.16 726.707C900.34 722.477 900.947 718.109 900.964 713.718V680.476L877.392 702.689Z" fill="black"/>
<path d="M885.19 642.667C891.666 649.759 896.43 658.243 899.115 667.464L756.724 680.498L885.19 642.667Z" fill="#407BFF"/>
<path d="M900.897 680.52C900.879 684.919 900.273 689.295 899.093 693.532L855.959 689.566L756.724 680.476L877.325 669.336L899.093 667.353C900.285 671.641 900.892 676.07 900.897 680.52Z" fill="#407BFF"/>
<path d="M899.093 693.532C896.441 702.745 891.69 711.217 885.212 718.285L839.717 704.917L756.724 680.409L855.959 689.499L899.093 693.532Z" fill="#407BFF"/>
<path d="M885.212 718.285C877.546 726.695 868.58 733.818 858.654 739.384L824.232 719.466L756.746 680.52L839.739 705.028L885.212 718.285Z" fill="#407BFF"/>
<path d="M858.655 621.612L756.701 680.476L822.16 606.328C834.883 609.972 847.132 615.102 858.655 621.612Z" fill="#407BFF"/>
<path d="M858.655 621.612C868.571 627.163 877.53 634.272 885.19 642.667L756.724 680.543L858.655 621.612Z" fill="#407BFF"/>
<path d="M858.654 739.384C847.134 745.898 834.884 751.029 822.16 754.668L756.746 680.52L824.232 719.466L858.654 739.384Z" fill="#407BFF"/>
<g opacity="0.2">
<path opacity="0.2" d="M885.19 642.667C891.666 649.759 896.429 658.243 899.115 667.464L756.723 680.498L885.19 642.667Z" fill="white"/>
<path opacity="0.2" d="M900.897 680.52C900.879 684.919 900.272 689.295 899.092 693.532L855.958 689.566L756.723 680.476L877.325 669.336L899.092 667.353C900.285 671.641 900.892 676.07 900.897 680.52Z" fill="white"/>
<path opacity="0.2" d="M899.092 693.532C896.441 702.745 891.689 711.217 885.212 718.285L839.716 704.917L756.723 680.409L855.958 689.499L899.092 693.532Z" fill="white"/>
<path opacity="0.2" d="M885.212 718.285C877.546 726.695 868.579 733.818 858.654 739.384L824.231 719.466L756.745 680.52L839.738 705.028L885.212 718.285Z" fill="white"/>
<path opacity="0.2" d="M858.655 621.612L756.701 680.476L822.16 606.328C834.883 609.972 847.132 615.102 858.655 621.612Z" fill="white"/>
<path opacity="0.2" d="M858.654 621.612C868.57 627.163 877.53 634.272 885.19 642.667L756.723 680.543L858.654 621.612Z" fill="white"/>
<path opacity="0.2" d="M858.654 739.384C847.133 745.898 834.884 751.029 822.159 754.668L756.745 680.52L824.231 719.466L858.654 739.384Z" fill="white"/>
</g>
<path d="M822.183 754.691V787.955L756.657 713.718V680.431L822.183 754.691Z" fill="#2E446C"/>
<path d="M756.657 713.718L614.244 726.796V693.51L756.657 680.431V713.718Z" fill="#407BFF"/>
<path opacity="0.1" d="M756.657 713.718L614.244 726.796V693.51L756.657 680.431V713.718Z" fill="black"/>
<path d="M429.565 716.636C426.578 706.296 421.24 696.788 413.969 688.853C405.39 679.432 395.346 671.457 384.225 665.236C371.307 657.918 357.568 652.152 343.297 648.058C327.592 643.523 311.481 640.538 295.194 639.146C278.363 637.609 261.427 637.609 244.596 639.146C228.302 640.54 212.184 643.525 196.471 648.058C182.193 652.153 168.447 657.919 155.521 665.236C144.397 671.452 134.352 679.428 125.777 688.853C118.505 696.788 113.168 706.296 110.181 716.636C107.54 726.201 107.54 736.303 110.181 745.868C113.162 756.203 118.501 765.706 125.777 773.629C134.351 783.062 144.395 791.045 155.521 797.268C168.424 804.58 182.147 810.339 196.405 814.423C212.126 818.95 228.251 821.934 244.552 823.335C261.384 824.85 278.318 824.85 295.15 823.335C311.45 821.934 327.575 818.95 343.297 814.423C357.558 810.341 371.283 804.574 384.18 797.245C395.322 791.036 405.382 783.06 413.969 773.629C421.245 765.706 426.583 756.203 429.565 745.868C432.205 736.303 432.205 726.201 429.565 716.636Z" fill="#2C3952"/>
<path d="M108.175 716.614H431.525V733.101L108.175 732.188V716.614Z" fill="#37474F"/>
<path d="M244.641 624.464L269.906 716.614L196.516 633.465C212.225 628.902 228.344 625.887 244.641 624.464Z" fill="#E1EAFA"/>
<path d="M295.149 624.464L269.883 716.614L244.64 624.464C261.442 622.932 278.348 622.932 295.149 624.464Z" fill="#E1EAFA"/>
<path d="M343.251 633.465L269.883 716.614L295.149 624.464C311.439 625.885 327.55 628.9 343.251 633.465Z" fill="#E1EAFA"/>
<path d="M413.968 674.26C421.24 682.202 426.577 691.719 429.564 702.065L269.927 716.659L413.968 674.26Z" fill="#E1EAFA"/>
<path d="M429.564 702.065C432.204 711.622 432.204 721.717 429.564 731.274L269.927 716.659L429.564 702.065Z" fill="#E1EAFA"/>
<path d="M429.564 731.274C426.578 741.614 421.24 751.123 413.968 759.057L269.927 716.725L429.564 731.274Z" fill="#E1EAFA"/>
<path d="M413.968 759.057C405.376 768.474 395.326 776.448 384.202 782.674L269.861 716.659L413.968 759.057Z" fill="#E1EAFA"/>
<path d="M269.884 716.681L343.297 799.852C327.575 804.378 311.45 807.363 295.149 808.764L269.839 716.614L269.884 716.681Z" fill="#E1EAFA"/>
<path d="M269.839 716.703L295.149 808.764C278.347 810.285 261.442 810.285 244.64 808.764L269.839 716.703Z" fill="#E1EAFA"/>
<path d="M269.817 716.681L244.641 808.764C228.34 807.363 212.215 804.379 196.494 799.852L269.817 716.681Z" fill="#E1EAFA"/>
<path d="M269.816 716.681L196.292 799.852C182.076 795.742 168.391 789.977 155.52 782.674L269.816 716.681Z" fill="#E1EAFA"/>
<path d="M269.795 716.659L125.754 758.99C118.482 751.057 113.144 741.548 110.158 731.207L269.795 716.659Z" fill="#E1EAFA"/>
<path d="M269.795 716.659L110.159 731.274C107.519 721.717 107.519 711.622 110.159 702.065L269.795 716.659Z" fill="#E1EAFA"/>
<path d="M269.795 716.636L110.158 702.043C113.145 691.696 118.482 682.18 125.754 674.237L269.795 716.636Z" fill="#E1EAFA"/>
<path d="M155.52 650.576L269.794 716.547L125.777 674.215C134.349 664.78 144.394 656.797 155.52 650.576Z" fill="#E1EAFA"/>
<path d="M384.18 650.576L269.883 716.547L343.251 633.398C357.526 637.483 371.266 643.249 384.18 650.576Z" fill="#E1EAFA"/>
<path d="M384.179 650.576C395.321 656.812 405.381 664.81 413.968 674.26L269.95 716.592L384.179 650.576Z" fill="#E1EAFA"/>
<path d="M269.817 716.636L155.521 782.674C144.393 776.454 134.342 768.479 125.755 759.057L269.795 716.725L269.817 716.636Z" fill="#E1EAFA"/>
<path d="M196.426 633.465L269.816 716.614L155.52 650.576C168.431 643.276 182.162 637.532 196.426 633.465Z" fill="#E1EAFA"/>
<path d="M269.883 716.681L384.18 782.674C371.273 789.985 357.551 795.75 343.296 799.852L269.883 716.681Z" fill="#E1EAFA"/>
<path d="M312.838 659.488L331.264 638.589C331.264 614.081 301.319 613.48 288.085 612.299C274.851 611.118 252.147 603.521 252.147 631.415L258.475 654.497C276.745 653.323 295.087 655.007 312.838 659.488Z" fill="#407BFF"/>
<path opacity="0.6" d="M312.838 659.488L331.264 638.589C331.264 614.081 301.319 613.48 288.085 612.299C274.851 611.118 252.147 603.521 252.147 631.415L258.475 654.497C276.745 653.323 295.087 655.007 312.838 659.488Z" fill="white"/>
<path d="M312.838 626.67L331.264 605.793C305.464 599.079 278.735 596.655 252.147 598.619L258.475 621.612C276.749 620.46 295.09 622.166 312.838 626.67Z" fill="#407BFF"/>
<path opacity="0.8" d="M312.838 626.67L331.264 605.793C305.464 599.079 278.735 596.655 252.147 598.619L258.475 621.612C276.749 620.46 295.09 622.166 312.838 626.67Z" fill="white"/>
<path d="M258.475 621.701V654.542L252.147 631.46V598.619L258.475 621.701Z" fill="#407BFF"/>
<path d="M331.264 605.793L312.839 626.67V659.533L331.264 638.634V605.793Z" fill="#407BFF"/>
<g opacity="0.6">
<path opacity="0.6" d="M258.475 621.701V654.542L252.147 631.46V598.619L258.475 621.701Z" fill="white"/>
<path opacity="0.6" d="M331.264 605.793L312.838 626.67V659.532L331.264 638.634V605.793Z" fill="white"/>
</g>
<path d="M321.841 629.321V662.162C329.528 664.643 336.947 667.89 343.987 671.853C350.13 675.341 355.773 679.643 360.764 684.642L396.902 674.015C389.717 666.68 381.534 660.395 372.594 655.344C362.724 649.685 352.164 626.736 321.841 629.321Z" fill="#407BFF"/>
<path opacity="0.6" d="M321.841 629.321V662.162C329.528 664.643 336.947 667.89 343.987 671.853C350.13 675.341 355.773 679.643 360.764 684.642L396.902 674.015C389.717 666.68 381.534 660.395 372.594 655.344C362.724 649.685 352.164 626.736 321.841 629.321Z" fill="black"/>
<path d="M340.266 608.467L321.841 629.321C329.535 631.784 336.957 635.031 343.987 639.013C350.13 642.5 355.773 646.802 360.764 651.801L396.902 641.174C389.728 633.826 381.543 627.539 372.594 622.503C362.351 616.682 351.513 611.976 340.266 608.467Z" fill="#407BFF"/>
<path opacity="0.3" d="M340.266 608.467L321.841 629.321C329.535 631.784 336.957 635.031 343.987 639.013C350.13 642.5 355.773 646.802 360.764 651.801L396.902 641.174C389.728 633.826 381.543 627.539 372.594 622.503C362.351 616.682 351.513 611.976 340.266 608.467Z" fill="black"/>
<path d="M360.763 651.801L396.901 641.151V674.014L360.763 684.642V651.801Z" fill="#407BFF"/>
<path opacity="0.6" d="M360.763 651.801L396.901 641.151V674.014L360.763 684.642V651.801Z" fill="black"/>
<path d="M415.037 680.944H402.827C402.382 680.364 402.003 679.785 401.557 679.206L365.375 656.926V689.789C373.083 699.703 376.002 710.531 373.997 721.159L413.967 724.88C414.644 721.566 414.98 718.191 414.97 714.809L415.037 680.944Z" fill="#407BFF"/>
<path opacity="0.6" d="M415.037 680.944H402.827C402.382 680.364 402.003 679.785 401.557 679.206L365.375 656.926V689.789C373.083 699.703 376.002 710.531 373.997 721.159L413.967 724.88C414.644 721.566 414.98 718.191 414.97 714.809L415.037 680.944Z" fill="black"/>
<path d="M373.975 688.452L413.968 692.039C417.221 676.599 413.099 660.713 401.536 646.365L365.353 656.993C373.062 666.907 376.092 677.758 373.975 688.452Z" fill="#407BFF"/>
<path opacity="0.3" d="M373.975 688.452L413.968 692.039C417.221 676.599 413.099 660.713 401.536 646.365L365.353 656.993C373.062 666.907 376.092 677.758 373.975 688.452Z" fill="black"/>
<path d="M413.969 692.039V724.902L373.976 721.226V688.385L413.969 692.039Z" fill="#407BFF"/>
<path opacity="0.6" d="M413.969 692.039V724.902L373.976 721.226V688.385L413.969 692.039Z" fill="black"/>
<path d="M248.493 655.478V622.615C226.213 612.343 184.728 622.77 170.825 653.361L199.433 669.893C214.799 662.208 231.413 657.326 248.493 655.478Z" fill="#407BFF"/>
<path opacity="0.3" d="M248.493 655.478V622.615C226.213 612.343 184.728 622.77 170.825 653.361L199.433 669.893C214.799 662.208 231.413 657.326 248.493 655.478Z" fill="black"/>
<path d="M248.495 622.615L242.146 599.466C215.209 602.496 190.545 609.915 170.85 620.52L199.457 637.03C214.816 629.347 231.422 624.466 248.495 622.615Z" fill="#407BFF"/>
<path opacity="0.1" d="M248.495 622.615L242.146 599.466C215.209 602.496 190.545 609.915 170.85 620.52L199.457 637.03C214.816 629.347 231.422 624.466 248.495 622.615Z" fill="black"/>
<path d="M199.433 637.03V669.893L170.825 653.361V620.52L199.433 637.03Z" fill="#263238"/>
<path d="M169.512 641.174L163.63 657.461C144.403 669.358 132.26 683.684 127.269 698.679L167.373 702.332C171.049 692.061 179.427 682.28 192.394 674.037V641.174H169.512Z" fill="#407BFF"/>
<path opacity="0.3" d="M169.512 641.174L163.63 657.461C144.403 669.358 132.26 683.684 127.269 698.679L167.373 702.332C171.049 692.061 179.427 682.28 192.394 674.037V641.174H169.512Z" fill="black"/>
<path d="M192.305 641.174L163.63 624.62C144.403 636.495 132.26 650.843 127.269 665.815L167.373 669.492C170.96 659.22 179.338 649.417 192.305 641.174Z" fill="#407BFF"/>
<path opacity="0.1" d="M192.305 641.174L163.63 624.62C144.403 636.495 132.26 650.843 127.269 665.815L167.373 669.492C170.96 659.22 179.338 649.417 192.305 641.174Z" fill="black"/>
<path d="M127.269 665.815V698.678L167.284 702.332V669.492L127.269 665.815Z" fill="#263238"/>
<path d="M165.703 708.103V675.24L153.805 674.17L124.663 681.768V714.586C124.849 727.626 129.577 740.193 138.031 750.123L174.214 739.495C166.661 729.581 163.72 718.731 165.703 708.103Z" fill="#407BFF"/>
<path opacity="0.3" d="M165.703 708.103V675.24L153.805 674.17L124.663 681.768V714.586C124.849 727.626 129.577 740.193 138.031 750.123L174.214 739.495C166.661 729.581 163.72 718.731 165.703 708.103Z" fill="black"/>
<path d="M138.165 717.282L174.348 706.632V739.495L138.165 750.123V717.282Z" fill="#263238"/>
<path d="M165.725 675.24L125.621 671.586C122.368 687.048 126.49 702.912 138.053 717.282L174.236 706.632C166.661 696.718 163.72 685.867 165.725 675.24Z" fill="#407BFF"/>
<path opacity="0.1" d="M165.725 675.24L125.621 671.586C122.368 687.048 126.49 702.912 138.053 717.282L174.236 706.632C166.661 696.718 163.72 685.867 165.725 675.24Z" fill="black"/>
<path d="M208.525 750.078C191.57 740.298 183.104 727.487 183.104 714.676V681.768H356.598V714.609C356.598 727.442 348.131 740.253 331.176 750.034C297.311 769.64 242.413 769.64 208.525 750.078Z" fill="#2E446C"/>
<path d="M269.862 731.898C317.765 731.898 356.598 709.474 356.598 681.813C356.598 654.151 317.765 631.727 269.862 631.727C221.959 631.727 183.126 654.151 183.126 681.813C183.126 709.474 221.959 731.898 269.862 731.898Z" fill="#E1EAFA"/>
<path d="M199.433 759.481V755.292L142.775 722.474V755.292C149.963 762.633 158.154 768.919 167.105 773.963C177.348 779.784 188.186 784.49 199.433 787.999L217.836 767.145C211.507 765.085 205.353 762.522 199.433 759.481Z" fill="#407BFF"/>
<path opacity="0.3" d="M199.433 759.481V755.292L142.775 722.474V755.292C149.963 762.633 158.154 768.919 167.105 773.963C177.348 779.784 188.186 784.49 199.433 787.999L217.836 767.145C211.507 765.085 205.353 762.522 199.433 759.481Z" fill="black"/>
<path d="M195.624 724.612C189.475 721.134 183.824 716.839 178.825 711.846L142.687 722.473C149.881 729.808 158.071 736.093 167.017 741.144C177.265 746.956 188.102 751.662 199.345 755.181L217.748 734.304C210.061 731.841 202.647 728.594 195.624 724.612Z" fill="#407BFF"/>
<path opacity="0.1" d="M195.624 724.612C189.475 721.134 183.824 716.839 178.825 711.846L142.687 722.473C149.881 729.808 158.071 736.093 167.017 741.144C177.265 746.956 188.102 751.662 199.345 755.181L217.748 734.304C210.061 731.841 202.647 728.594 195.624 724.612Z" fill="black"/>
<path d="M199.435 788.021V755.181L217.838 734.304V767.167L199.435 788.021Z" fill="#263238"/>
<path d="M208.435 757.832V790.695C234.235 797.41 260.964 799.833 287.551 797.869V765.028L208.435 757.832Z" fill="#407BFF"/>
<path opacity="0.1" d="M208.435 757.832V790.695C234.235 797.41 260.964 799.833 287.551 797.869V765.028L208.435 757.832Z" fill="black"/>
<path d="M226.816 736.956L208.391 757.832C234.192 764.543 260.919 766.974 287.507 765.028L281.224 741.924C262.94 743.11 244.583 741.433 226.816 736.956Z" fill="#407BFF"/>
<path opacity="0.2" d="M226.816 736.956L208.391 757.832C234.192 764.543 260.919 766.974 287.507 765.028L281.224 741.924C262.94 743.11 244.583 741.433 226.816 736.956Z" fill="white"/>
<path d="M347.395 755.292L376.091 771.868C395.319 759.993 407.461 745.645 412.452 730.65V697.809L372.348 726.996C368.739 737.267 360.361 747.071 347.395 755.292Z" fill="#407BFF"/>
<path opacity="0.1" d="M347.395 755.292L376.091 771.868C395.319 759.993 407.461 745.645 412.452 730.65V697.809L372.348 726.996C368.739 737.267 360.361 747.071 347.395 755.292Z" fill="black"/>
<path d="M347.395 722.451L376.091 739.028C395.319 727.13 407.461 712.804 412.452 697.81L372.348 694.156C368.739 704.427 360.361 714.208 347.395 722.451Z" fill="#407BFF"/>
<path opacity="0.2" d="M347.395 722.451L376.091 739.028C395.319 727.13 407.461 712.804 412.452 697.81L372.348 694.156C368.739 704.427 360.361 714.208 347.395 722.451Z" fill="white"/>
<path d="M376.069 739.028V771.868L347.395 755.314V722.451L376.069 739.028Z" fill="#407BFF"/>
<path opacity="0.3" d="M376.069 739.028V771.868L347.395 755.314V722.451L376.069 739.028Z" fill="black"/>
<path d="M297.556 764.204V773.116C295.439 773.45 293.345 773.74 291.206 773.985L297.556 797.112C323.512 794.215 348.332 787.197 368.852 776.102V743.149L297.556 764.204Z" fill="#407BFF"/>
<path opacity="0.1" d="M297.556 764.204V773.116C295.439 773.45 293.345 773.74 291.206 773.985L297.556 797.112C323.512 794.215 348.332 787.197 368.852 776.102V743.149L297.556 764.204Z" fill="black"/>
<path d="M291.206 741.033L297.556 764.204C323.512 761.308 348.332 754.312 368.852 743.216L340.177 726.64C324.85 734.339 308.261 739.215 291.206 741.033Z" fill="#407BFF"/>
<path opacity="0.2" d="M291.206 741.033L297.556 764.204C323.512 761.308 348.332 754.312 368.852 743.216L340.177 726.64C324.85 734.339 308.261 739.215 291.206 741.033Z" fill="white"/>
<path d="M297.556 764.137V796.978L291.206 773.896V741.033L297.556 764.137Z" fill="#407BFF"/>
<path opacity="0.3" d="M297.556 764.137V796.978L291.206 773.896V741.033L297.556 764.137Z" fill="black"/>
<path d="M853.573 544.389C853.494 542.941 853.075 541.531 852.352 540.273C851.628 539.015 850.619 537.945 849.406 537.148L789.072 502.325C786.844 500.988 784.906 502.08 784.906 504.753V563.06C784.981 564.51 785.398 565.921 786.122 567.179C786.846 568.438 787.857 569.507 789.072 570.301L814.338 584.872L822.314 617.156C822.287 617.747 822.497 618.324 822.896 618.761C823.295 619.197 823.851 619.458 824.442 619.484C825.032 619.511 825.61 619.302 826.046 618.903C826.483 618.504 826.743 617.947 826.77 617.356L834.078 596.257L849.518 605.169C851.746 606.506 853.684 605.414 853.684 602.763L853.573 544.389Z" fill="#407BFF"/>
<path opacity="0.5" d="M853.573 544.389C853.494 542.941 853.075 541.531 852.352 540.273C851.628 539.015 850.619 537.945 849.406 537.148L789.072 502.325C786.844 500.988 784.906 502.08 784.906 504.753V563.06C784.981 564.51 785.398 565.921 786.122 567.179C786.846 568.438 787.857 569.507 789.072 570.301L814.338 584.872L822.314 617.156C822.287 617.747 822.497 618.324 822.896 618.761C823.295 619.197 823.851 619.458 824.442 619.484C825.032 619.511 825.61 619.302 826.046 618.903C826.483 618.504 826.743 617.947 826.77 617.356L834.078 596.257L849.518 605.169C851.746 606.506 853.684 605.414 853.684 602.763L853.573 544.389Z" fill="white"/>
<path d="M807.766 528.883C808.998 529.583 810.135 530.437 811.153 531.423C812.062 532.308 812.876 533.286 813.581 534.341C814.193 535.275 814.694 536.277 815.074 537.327C815.388 538.219 815.59 539.147 815.675 540.09C815.675 541.048 815.787 542.05 815.787 543.097C815.787 544.144 815.787 545.103 815.675 545.994C815.621 546.712 815.416 547.41 815.074 548.043C814.741 548.629 814.212 549.078 813.581 549.313C812.786 549.532 811.947 549.532 811.153 549.313C809.954 549.036 808.81 548.562 807.766 547.91C806.529 547.217 805.384 546.371 804.357 545.392C803.444 544.533 802.637 543.568 801.951 542.518C800.786 540.796 800.06 538.815 799.834 536.748C799.834 535.79 799.834 534.787 799.834 533.74C799.834 532.693 799.834 531.735 799.834 530.866C799.903 530.14 800.115 529.436 800.458 528.794C800.781 528.199 801.313 527.747 801.951 527.524C802.73 527.278 803.559 527.24 804.357 527.412C805.571 527.698 806.725 528.196 807.766 528.883ZM829.066 542.451C829.294 542.284 829.564 542.183 829.846 542.162C830.251 542.188 830.642 542.319 830.982 542.54L834.168 544.39C834.533 544.597 834.852 544.878 835.104 545.214C835.312 545.499 835.429 545.841 835.438 546.194C835.446 546.268 835.446 546.343 835.438 546.417C835.399 546.5 835.346 546.575 835.282 546.64L809.036 566.023C808.807 566.193 808.539 566.3 808.256 566.335C807.848 566.309 807.455 566.17 807.12 565.934L803.934 564.107C803.564 563.897 803.244 563.608 802.998 563.261C802.784 562.986 802.659 562.651 802.642 562.303C802.624 562.222 802.624 562.138 802.642 562.058C802.673 561.971 802.727 561.894 802.798 561.835L829.066 542.451ZM810.573 542.451C810.605 542.125 810.605 541.797 810.573 541.471V538.597C810.603 538.248 810.603 537.898 810.573 537.55C810.501 536.767 810.266 536.008 809.883 535.322C809.369 534.487 808.637 533.809 807.766 533.361C806.741 532.759 806.028 532.603 805.538 532.871C805.327 533.04 805.156 533.253 805.037 533.496C804.918 533.739 804.853 534.004 804.847 534.274C804.847 534.475 804.847 534.787 804.847 535.255C804.847 535.723 804.847 536.168 804.847 536.658C804.847 537.149 804.847 537.639 804.847 538.107C804.847 538.575 804.847 538.931 804.847 539.176C804.931 539.957 805.165 540.713 805.538 541.404C806.085 542.252 806.856 542.93 807.766 543.365C808.791 543.966 809.504 544.122 809.883 543.855C810.084 543.694 810.248 543.491 810.364 543.26C810.479 543.029 810.543 542.776 810.551 542.518L810.573 542.451ZM830.759 560.743C831.997 561.444 833.142 562.297 834.168 563.283C835.071 564.168 835.878 565.146 836.574 566.202C837.203 567.126 837.705 568.13 838.067 569.187C838.377 570.082 838.586 571.009 838.691 571.95C838.691 572.908 838.691 573.911 838.691 574.958C838.691 576.005 838.691 576.963 838.691 577.854C838.622 578.572 838.41 579.269 838.067 579.904C837.915 580.204 837.704 580.471 837.448 580.689C837.192 580.907 836.895 581.072 836.574 581.174C835.788 581.404 834.953 581.404 834.168 581.174C832.962 580.896 831.811 580.422 830.759 579.77C829.528 579.077 828.391 578.231 827.372 577.253C826.459 576.387 825.644 575.424 824.944 574.378C824.328 573.447 823.826 572.445 823.451 571.393C823.14 570.5 822.938 569.572 822.85 568.63C822.85 567.65 822.85 566.647 822.85 565.6C822.85 564.553 822.85 563.595 822.85 562.726C822.901 562 823.106 561.294 823.451 560.654C823.778 560.064 824.309 559.613 824.944 559.384C825.742 559.188 826.575 559.188 827.372 559.384C828.576 559.656 829.723 560.139 830.759 560.81V560.743ZM833.589 574.378C833.607 574.052 833.607 573.725 833.589 573.398V570.591C833.589 570.145 833.589 569.789 833.589 569.566C833.495 568.788 833.261 568.033 832.898 567.338C832.345 566.496 831.575 565.819 830.67 565.377C829.645 564.776 828.932 564.62 828.553 564.887C828.343 565.056 828.172 565.27 828.052 565.512C827.933 565.755 827.868 566.021 827.863 566.291C827.84 566.617 827.84 566.945 827.863 567.271C827.863 567.717 827.863 568.185 827.863 568.675C827.863 569.165 827.863 569.655 827.863 570.145C827.842 570.494 827.842 570.844 827.863 571.192C827.932 571.976 828.167 572.735 828.553 573.42C829.06 574.26 829.794 574.94 830.67 575.381C831.695 575.983 832.408 576.139 832.898 575.871C833.107 575.696 833.277 575.478 833.396 575.232C833.515 574.986 833.58 574.718 833.589 574.445V574.378Z" fill="#D4DCEF"/>
<path d="M592.564 320.832C592.483 319.384 592.064 317.974 591.341 316.717C590.617 315.459 589.609 314.389 588.398 313.591L528.063 278.79C525.835 277.453 523.897 278.522 523.897 281.196V339.503C523.974 340.955 524.392 342.369 525.116 343.63C525.839 344.892 526.849 345.966 528.063 346.766L553.329 361.337L561.305 393.554C561.392 394.053 561.647 394.507 562.028 394.842C562.408 395.177 562.891 395.372 563.397 395.396C563.903 395.419 564.402 395.269 564.812 394.971C565.221 394.672 565.517 394.243 565.65 393.754L572.958 372.655L588.398 381.567C590.626 382.904 592.564 381.835 592.564 379.161V320.832Z" fill="#407BFF"/>
<path opacity="0.5" d="M592.564 320.832C592.483 319.384 592.064 317.974 591.341 316.717C590.617 315.459 589.609 314.389 588.398 313.591L528.063 278.79C525.835 277.453 523.897 278.522 523.897 281.196V339.503C523.974 340.955 524.392 342.369 525.116 343.63C525.839 344.892 526.849 345.966 528.063 346.766L553.329 361.337L561.305 393.554C561.392 394.053 561.647 394.507 562.028 394.842C562.408 395.177 562.891 395.372 563.397 395.396C563.903 395.419 564.402 395.269 564.812 394.971C565.221 394.672 565.517 394.243 565.65 393.754L572.958 372.655L588.398 381.567C590.626 382.904 592.564 381.835 592.564 379.161V320.832Z" fill="white"/>
<path d="M546.756 305.414C547.987 306.115 549.125 306.968 550.142 307.954C551.047 308.844 551.86 309.822 552.571 310.873C553.191 311.802 553.693 312.805 554.064 313.858C554.378 314.751 554.58 315.679 554.665 316.621C554.665 317.579 554.777 318.582 554.777 319.629C554.777 320.676 554.777 321.634 554.665 322.525C554.614 323.251 554.409 323.957 554.064 324.597C553.74 325.186 553.208 325.631 552.571 325.845C551.786 326.101 550.947 326.139 550.142 325.956C548.94 325.679 547.795 325.196 546.756 324.53C545.514 323.845 544.368 322.998 543.347 322.013C542.434 321.153 541.626 320.189 540.941 319.139C540.312 318.215 539.81 317.211 539.448 316.153C539.138 315.258 538.929 314.332 538.824 313.39C538.824 312.41 538.824 311.407 538.824 310.383C538.824 309.358 538.824 308.355 538.824 307.486C538.893 306.761 539.105 306.057 539.448 305.414C539.77 304.82 540.303 304.367 540.941 304.144C541.731 303.947 542.557 303.947 543.347 304.144C544.548 304.368 545.701 304.797 546.756 305.414ZM568.056 318.983C568.289 318.825 568.556 318.726 568.835 318.693C569.244 318.72 569.637 318.859 569.972 319.094L573.158 320.921C573.518 321.135 573.836 321.415 574.093 321.745C574.299 322.032 574.416 322.373 574.428 322.726C574.436 322.807 574.436 322.889 574.428 322.971C574.383 323.05 574.331 323.125 574.272 323.194L548.026 342.577C547.793 342.735 547.525 342.834 547.246 342.867C546.838 342.84 546.444 342.701 546.11 342.466L542.924 340.639C542.554 340.437 542.235 340.155 541.988 339.814C541.782 339.528 541.666 339.187 541.654 338.834C541.633 338.761 541.633 338.684 541.654 338.611C541.684 338.518 541.738 338.433 541.81 338.366L568.056 318.983ZM549.563 318.983C549.596 318.657 549.596 318.328 549.563 318.002V315.128C549.593 314.787 549.593 314.444 549.563 314.103C549.498 313.319 549.262 312.559 548.872 311.875C548.367 311.029 547.633 310.342 546.756 309.892C545.731 309.313 545.018 309.135 544.528 309.425C544.322 309.598 544.154 309.812 544.035 310.054C543.916 310.295 543.849 310.559 543.837 310.828C543.837 311.006 543.837 311.341 543.837 311.786C543.837 312.232 543.837 312.7 543.837 313.212C543.837 313.725 543.837 314.192 543.837 314.66C543.837 315.128 543.837 315.485 543.837 315.708C543.924 316.487 544.159 317.243 544.528 317.936C545.074 318.783 545.846 319.462 546.756 319.896C547.781 320.498 548.494 320.654 548.872 320.386C549.078 320.227 549.246 320.025 549.366 319.794C549.485 319.563 549.552 319.309 549.563 319.05V318.983ZM569.749 337.275C570.993 337.975 572.139 338.837 573.158 339.837C574.066 340.709 574.873 341.68 575.564 342.733C576.189 343.659 576.691 344.663 577.057 345.719C577.364 346.614 577.573 347.541 577.681 348.481C577.681 349.462 577.681 350.464 577.681 351.511C577.681 352.559 577.681 353.517 577.681 354.386C577.612 355.111 577.4 355.815 577.057 356.458C576.734 357.052 576.202 357.505 575.564 357.728C574.777 357.948 573.945 357.948 573.158 357.728C571.952 357.45 570.8 356.976 569.749 356.324C568.527 355.618 567.39 354.773 566.362 353.806C565.453 352.929 564.64 351.958 563.934 350.91C563.322 349.976 562.821 348.974 562.441 347.924C562.127 347.032 561.925 346.104 561.839 345.162C561.839 344.204 561.728 343.201 561.728 342.154C561.728 341.107 561.728 340.149 561.839 339.257C561.893 338.532 562.098 337.827 562.441 337.185C562.776 336.606 563.304 336.164 563.934 335.938C564.718 335.685 565.555 335.639 566.362 335.804C567.571 336.117 568.717 336.638 569.749 337.341V337.275ZM572.578 350.91C572.596 350.583 572.596 350.256 572.578 349.93V347.122C572.578 346.677 572.578 346.32 572.578 346.097C572.502 345.316 572.267 344.558 571.888 343.869C571.343 343.015 570.571 342.329 569.66 341.887C568.635 341.307 567.922 341.129 567.543 341.419C567.329 341.585 567.155 341.797 567.036 342.041C566.916 342.284 566.853 342.551 566.852 342.822C566.828 343.141 566.828 343.461 566.852 343.78C566.852 344.226 566.852 344.694 566.852 345.206C566.852 345.719 566.852 346.187 566.852 346.654C566.83 347.003 566.83 347.353 566.852 347.702C566.918 348.486 567.154 349.246 567.543 349.93C568.049 350.776 568.782 351.463 569.66 351.913C570.685 352.492 571.427 352.648 571.888 352.38C572.098 352.211 572.269 351.998 572.389 351.755C572.508 351.513 572.573 351.247 572.578 350.977V350.91Z" fill="#D4DCEF"/>
<path d="M178.334 542.585C178.413 541.136 178.831 539.726 179.555 538.468C180.279 537.211 181.287 536.14 182.5 535.344L242.834 500.52C245.062 499.183 247.001 500.275 247.001 502.949V561.255C246.925 562.705 246.508 564.116 245.784 565.375C245.06 566.633 244.05 567.702 242.834 568.496L217.569 583.068L209.593 615.307C209.619 615.898 209.41 616.475 209.011 616.912C208.612 617.348 208.056 617.608 207.465 617.635C206.874 617.662 206.297 617.452 205.86 617.053C205.423 616.654 205.163 616.098 205.137 615.507L197.851 594.408L182.411 603.32C180.183 604.657 178.245 603.565 178.245 600.914L178.334 542.585Z" fill="#407BFF"/>
<g opacity="0.5">
<path opacity="0.5" d="M178.334 542.585C178.413 541.136 178.831 539.726 179.555 538.468C180.279 537.211 181.287 536.14 182.5 535.344L242.834 500.52C245.062 499.183 247.001 500.275 247.001 502.949V561.255C246.925 562.705 246.508 564.116 245.784 565.375C245.06 566.633 244.05 567.702 242.834 568.496L217.569 583.068L209.593 615.307C209.619 615.898 209.41 616.475 209.011 616.912C208.612 617.348 208.056 617.608 207.465 617.635C206.874 617.662 206.297 617.452 205.86 617.053C205.423 616.654 205.163 616.098 205.137 615.507L197.851 594.408L182.411 603.32C180.183 604.657 178.245 603.565 178.245 600.914L178.334 542.585Z" fill="white"/>
</g>
<path d="M199.411 538.24C200.617 537.491 201.944 536.955 203.333 536.658C204.265 536.47 205.23 536.516 206.14 536.792C206.872 537.056 207.482 537.579 207.855 538.263C208.254 538.998 208.489 539.812 208.546 540.646C208.635 541.671 208.68 542.785 208.68 543.988C208.68 545.192 208.635 546.35 208.546 547.464C208.448 548.558 208.216 549.635 207.855 550.672C207.428 551.883 206.852 553.036 206.14 554.104C205.334 555.32 204.392 556.442 203.333 557.446C202.148 558.574 200.832 559.554 199.411 560.364C198.191 561.111 196.86 561.66 195.468 561.991C194.545 562.196 193.586 562.158 192.683 561.879C191.95 561.615 191.34 561.092 190.967 560.409C190.562 559.674 190.318 558.861 190.254 558.025C190.254 557 190.254 555.797 190.254 554.683C190.254 553.569 190.254 552.321 190.254 551.207C190.361 550.113 190.6 549.035 190.967 547.999C191.385 546.784 191.962 545.631 192.683 544.568C193.493 543.354 194.426 542.226 195.468 541.203C196.657 540.059 197.981 539.064 199.411 538.24ZM223.919 525.518C224.172 525.031 224.471 524.568 224.81 524.137C225.185 523.709 225.63 523.348 226.125 523.068L229.823 520.84C230.131 520.613 230.515 520.517 230.893 520.572C231.16 520.572 231.294 520.862 231.294 521.218C231.31 521.337 231.31 521.456 231.294 521.575L231.116 522.043L200.77 579.481C200.518 579.961 200.219 580.416 199.879 580.84C199.509 581.272 199.064 581.635 198.565 581.909L194.888 584.137C194.572 584.363 194.181 584.459 193.797 584.404C193.529 584.404 193.396 584.115 193.396 583.758C193.38 583.64 193.38 583.52 193.396 583.402L193.574 582.934L223.919 525.518ZM202.664 550.316C202.695 549.916 202.695 549.513 202.664 549.113V545.793C202.696 545.415 202.696 545.035 202.664 544.657C202.652 544.345 202.574 544.039 202.436 543.758C202.298 543.478 202.102 543.23 201.862 543.03C201.416 542.719 200.592 543.03 199.411 543.587C198.5 544.047 197.722 544.733 197.152 545.579C196.583 546.426 196.24 547.405 196.158 548.422C196.126 548.83 196.126 549.24 196.158 549.648C196.158 550.182 196.158 550.739 196.158 551.319C196.158 551.898 196.158 552.433 196.158 552.967C196.124 553.338 196.124 553.711 196.158 554.081C196.158 554.396 196.231 554.706 196.37 554.988C196.509 555.27 196.711 555.516 196.96 555.708C197.406 556.02 198.208 555.819 199.411 555.151C200.417 554.646 201.264 553.876 201.862 552.923C202.306 552.118 202.579 551.231 202.664 550.316ZM225.991 544.523C227.207 543.773 228.54 543.23 229.935 542.919C230.86 542.731 231.817 542.777 232.72 543.053C233.452 543.317 234.062 543.84 234.435 544.523C234.841 545.258 235.084 546.071 235.148 546.907C235.148 547.932 235.26 549.135 235.26 550.249C235.26 551.363 235.26 552.611 235.148 553.725C235.044 554.82 234.804 555.897 234.435 556.933C234.014 558.153 233.437 559.314 232.72 560.387C231.013 562.963 228.723 565.1 226.036 566.625C224.826 567.377 223.501 567.926 222.115 568.251C221.186 568.468 220.216 568.43 219.307 568.14C218.571 567.883 217.958 567.358 217.592 566.67C217.191 565.935 216.955 565.121 216.901 564.286C216.901 563.283 216.767 562.058 216.767 560.966C216.767 559.874 216.767 558.582 216.901 557.468C216.997 556.381 217.229 555.311 217.592 554.282C218.019 553.064 218.595 551.904 219.307 550.828C220.119 549.609 221.06 548.481 222.115 547.464C223.268 546.295 224.572 545.283 225.991 544.456V544.523ZM229.244 556.51C229.275 556.109 229.275 555.707 229.244 555.307V552.009C229.276 551.631 229.276 551.251 229.244 550.873C229.246 550.558 229.174 550.247 229.035 549.965C228.896 549.683 228.693 549.437 228.442 549.247C227.997 548.935 227.194 549.113 225.991 549.804C224.99 550.314 224.143 551.083 223.54 552.032C223.11 552.826 222.838 553.696 222.738 554.594C222.717 554.995 222.717 555.396 222.738 555.797C222.738 556.354 222.738 556.911 222.738 557.468C222.738 558.025 222.738 558.604 222.738 559.117C222.715 559.488 222.715 559.86 222.738 560.231C222.751 560.543 222.828 560.849 222.966 561.129C223.105 561.409 223.3 561.657 223.54 561.857C223.986 562.169 224.81 561.991 225.991 561.3C226.997 560.796 227.845 560.026 228.442 559.072C228.902 558.266 229.176 557.368 229.244 556.443V556.51Z" fill="#D4DCEF"/>
</g>
<defs>
<clipPath id="clip0">
<rect width="1024" height="928" fill="white"/>
</clipPath>
</defs>
</svg>
