<svg width="121" height="40" viewBox="0 0 121 40" fill="none" xmlns="http://www.w3.org/2000/svg">
<path d="M111.364 0.820011H9.64112C9.27033 0.820011 8.90399 0.820011 8.53417 0.821947C8.22461 0.823883 7.9175 0.829507 7.60496 0.834241C6.92598 0.84189 6.2486 0.899074 5.57869 1.0053C4.90973 1.11383 4.26172 1.31845 3.65659 1.61223C3.0522 1.9085 2.49995 2.29347 2.01987 2.75318C1.53728 3.21159 1.13499 3.74145 0.828497 4.32239C0.521154 4.90217 0.308041 5.52346 0.19652 6.1648C0.0839377 6.80533 0.0233562 7.45325 0.0153191 8.10274C0.00593553 8.39953 0.00494459 8.6973 0 8.99413V31.3687C0.00494459 31.6693 0.00593553 31.9605 0.0153191 32.2611C0.0233587 32.9106 0.0839401 33.5585 0.19652 34.199C0.307734 34.8407 0.520859 35.4623 0.828497 36.0423C1.13486 36.6214 1.53719 37.1491 2.01987 37.605C2.49813 38.0667 3.05073 38.452 3.65659 38.746C4.26172 39.0405 4.90966 39.2464 5.57869 39.3566C6.24871 39.4619 6.92603 39.5192 7.60496 39.5277C7.9175 39.5343 8.22461 39.5381 8.53417 39.5381C8.90398 39.54 9.27035 39.54 9.64112 39.54H111.364C111.728 39.54 112.097 39.54 112.46 39.5381C112.769 39.5381 113.085 39.5343 113.393 39.5277C114.07 39.5196 114.746 39.4624 115.415 39.3566C116.086 39.2456 116.736 39.0398 117.344 38.746C117.95 38.4518 118.502 38.0666 118.98 37.605C119.461 37.1473 119.864 36.62 120.174 36.0423C120.48 35.4619 120.691 34.8403 120.8 34.199C120.913 33.5584 120.976 32.9106 120.988 32.2611C120.992 31.9605 120.992 31.6693 120.992 31.3687C121 31.0171 121 30.6673 121 30.3099V10.051C121 9.69649 121 9.34484 120.992 8.99413C120.992 8.6973 120.992 8.39953 120.988 8.1027C120.976 7.45316 120.913 6.80538 120.8 6.16477C120.691 5.5238 120.48 4.90255 120.174 4.32235C119.55 3.15792 118.561 2.21008 117.344 1.61214C116.736 1.31908 116.086 1.11452 115.415 1.00521C114.746 0.898519 114.07 0.841315 113.393 0.834105C113.085 0.829381 112.769 0.823709 112.46 0.821821C112.097 0.819885 111.728 0.819885 111.364 0.819885V0.820011Z" fill="#2C3952"/>
<path d="M8.53904 38.693C8.23096 38.693 7.93032 38.6892 7.62466 38.6826C6.99145 38.6747 6.35972 38.622 5.73465 38.5248C5.1518 38.4287 4.58718 38.2499 4.05941 37.9944C3.53648 37.741 3.05953 37.4087 2.64682 37.0103C2.22814 36.6166 1.87956 36.16 1.61491 35.6585C1.34735 35.1538 1.16218 34.6128 1.06585 34.0543C0.961829 33.4543 0.905547 32.8475 0.897494 32.2393C0.891083 32.0352 0.88269 31.3555 0.88269 31.3555V8.99411C0.88269 8.99411 0.891629 8.32483 0.897544 8.1282C0.905255 7.52096 0.96121 6.91515 1.06492 6.31604C1.16143 5.75607 1.34674 5.2135 1.61445 4.70712C1.87813 4.206 2.22476 3.74903 2.64092 3.35391C3.05661 2.95503 3.5351 2.62106 4.05892 2.36416C4.58548 2.10946 5.14903 1.93197 5.7307 1.83762C6.35782 1.73943 6.99174 1.68635 7.62714 1.67881L8.53954 1.66699H112.455L113.379 1.67929C114.008 1.68645 114.636 1.73906 115.258 1.83667C115.845 1.9322 116.415 2.11093 116.947 2.36699C117.997 2.88472 118.851 3.70382 119.389 4.70948C119.653 5.21237 119.835 5.75051 119.931 6.30564C120.035 6.90967 120.094 7.52024 120.106 8.13246C120.109 8.4066 120.109 8.70106 120.109 8.99411C120.117 9.35711 120.117 9.70262 120.117 10.051V30.3099C120.117 30.6616 120.117 31.0048 120.109 31.3507C120.109 31.6655 120.109 31.9539 120.105 32.2507C120.093 32.852 120.036 33.4516 119.932 34.0449C119.838 34.6073 119.654 35.1525 119.386 35.6614C119.12 36.1574 118.773 36.6101 118.359 37.0028C117.946 37.4033 117.469 37.7375 116.944 37.9926C116.413 38.25 115.845 38.4294 115.258 38.5248C114.633 38.6225 114.001 38.6753 113.368 38.6826C113.072 38.6892 112.761 38.693 112.46 38.693L111.364 38.6949L8.53904 38.693Z" fill="white"/>
<path d="M25.2758 20.0731C25.2871 19.2329 25.5202 18.4091 25.9534 17.6784C26.3867 16.9476 27.006 16.3336 27.7537 15.8936C27.2787 15.2441 26.652 14.7097 25.9235 14.3326C25.195 13.9556 24.3847 13.7464 23.557 13.7216C21.7912 13.5442 20.0794 14.7331 19.1796 14.7331C18.2624 14.7331 16.8771 13.7392 15.3853 13.7686C14.4203 13.7984 13.4799 14.0671 12.6557 14.5483C11.8314 15.0295 11.1514 15.7069 10.682 16.5145C8.64842 19.8851 10.1653 24.8387 12.1133 27.5633C13.0879 28.8974 14.227 30.3877 15.7175 30.3348C17.176 30.2769 17.7207 29.4445 19.4812 29.4445C21.2254 29.4445 21.7365 30.3348 23.2572 30.3012C24.8222 30.2769 25.8083 28.9612 26.7487 27.6144C27.449 26.6638 27.9879 25.6132 28.3454 24.5014C27.4361 24.1333 26.6602 23.517 26.1143 22.7296C25.5685 21.9421 25.2768 21.0182 25.2758 20.0731Z" fill="#2C3952"/>
<path d="M22.4034 11.9296C23.2567 10.949 23.6771 9.6885 23.5753 8.41589C22.2716 8.54698 21.0674 9.14346 20.2025 10.0865C19.7797 10.5472 19.4558 11.0831 19.2495 11.6637C19.0431 12.2443 18.9583 12.8582 18.9999 13.4701C19.652 13.4766 20.2971 13.3413 20.8866 13.0744C21.4762 12.8076 21.9948 12.4162 22.4034 11.9296Z" fill="#2C3952"/>
<path d="M42.774 27.0924H37.9877L36.8383 30.3414H34.811L39.3445 18.3208H41.4507L45.9842 30.3414H43.9224L42.774 27.0924ZM38.4834 25.5931H42.2773L40.407 20.3202H40.3547L38.4834 25.5931Z" fill="#2C3952"/>
<path d="M55.7749 25.9588C55.7749 28.6823 54.2523 30.432 51.9544 30.432C51.3723 30.4612 50.7935 30.3328 50.284 30.0616C49.7746 29.7905 49.3553 29.3875 49.074 28.8987H49.0305V33.2396H47.1514V21.5763H48.9703V23.034H49.0048C49.299 22.5476 49.7255 22.1467 50.2388 21.8739C50.7521 21.601 51.333 21.4665 51.9198 21.4846C54.2434 21.4847 55.7749 23.2429 55.7749 25.9588ZM53.8434 25.9588C53.8434 24.1845 52.8856 23.018 51.4241 23.018C49.9884 23.018 49.0226 24.209 49.0226 25.9588C49.0226 27.7247 49.9884 28.9073 51.4241 28.9073C52.8856 28.9073 53.8434 27.7492 53.8434 25.9588H53.8434Z" fill="#2C3952"/>
<path d="M65.8515 25.9588C65.8515 28.6823 64.3283 30.432 62.0305 30.432C61.4484 30.4612 60.8695 30.3328 60.3601 30.0616C59.8507 29.7905 59.4313 29.3875 59.15 28.8987H59.1066V33.2396H57.2274V21.5763H59.0463V23.034H59.0809C59.3751 22.5476 59.8015 22.1467 60.3148 21.8739C60.8281 21.601 61.4091 21.4665 61.9959 21.4846C64.3194 21.4847 65.8515 23.2429 65.8515 25.9588ZM63.9195 25.9588C63.9195 24.1845 62.9617 23.018 61.5002 23.018C60.0644 23.018 59.0987 24.209 59.0987 25.9588C59.0987 27.7247 60.0644 28.9073 61.5002 28.9073C62.9617 28.9073 63.9195 27.7492 63.9195 25.9588Z" fill="#2C3952"/>
<path d="M72.5099 26.991C72.6492 28.1831 73.8588 28.9657 75.5118 28.9657C77.0957 28.9657 78.2353 28.183 78.2353 27.1082C78.2353 26.1752 77.548 25.6165 75.9206 25.2336L74.2933 24.8583C71.9876 24.3252 70.9172 23.2929 70.9172 21.6178C70.9172 19.5438 72.8052 18.1192 75.4852 18.1192C78.1395 18.1192 79.9584 19.5438 80.0196 21.6178H78.1227C78.0091 20.4182 76.9733 19.6941 75.4595 19.6941C73.9457 19.6941 72.9098 20.4267 72.9098 21.493C72.9098 22.3429 73.5715 22.8429 75.1899 23.2258L76.5733 23.5509C79.1496 24.1342 80.2191 25.1249 80.2191 26.8832C80.2191 29.1321 78.3488 30.5406 75.3726 30.5406C72.5879 30.5406 70.7078 29.1651 70.5863 26.9909L72.5099 26.991Z" fill="#2C3952"/>
<path d="M84.2766 19.5023V21.5763H86.0175V23.0009H84.2766V27.8324C84.2766 28.5829 84.6252 28.9327 85.3905 28.9327C85.5972 28.9292 85.8035 28.9154 86.0086 28.8911V30.3072C85.6646 30.3687 85.3149 30.3966 84.9649 30.3903C83.1114 30.3903 82.3886 29.7239 82.3886 28.0242V23.0009H81.0575V21.5763H82.3886V19.5023H84.2766Z" fill="#2C3952"/>
<path d="M87.0247 25.9587C87.0247 23.2013 88.7211 21.4685 91.3665 21.4685C94.0209 21.4685 95.7094 23.2012 95.7094 25.9587C95.7094 28.7238 94.0297 30.449 91.3665 30.449C88.7043 30.449 87.0247 28.7238 87.0247 25.9587ZM93.7947 25.9587C93.7947 24.0672 92.8892 22.9508 91.3665 22.9508C89.8439 22.9508 88.9384 24.0757 88.9384 25.9587C88.9384 27.8579 89.8439 28.9658 91.3665 28.9658C92.8892 28.9658 93.7947 27.8579 93.7947 25.9587H93.7947Z" fill="#2C3952"/>
<path d="M97.2588 21.5764H99.0511V23.0681H99.0945C99.2158 22.6022 99.5009 22.1905 99.9019 21.9021C100.303 21.6138 100.795 21.4664 101.297 21.4847C101.513 21.484 101.729 21.5065 101.94 21.5518V23.2345C101.667 23.1545 101.382 23.1178 101.096 23.1257C100.823 23.1151 100.551 23.1612 100.298 23.2608C100.046 23.3604 99.8186 23.5112 99.6325 23.7027C99.4465 23.8943 99.306 24.1221 99.2206 24.3706C99.1352 24.619 99.107 24.8822 99.1379 25.1421V30.3404H97.2588L97.2588 21.5764Z" fill="#2C3952"/>
<path d="M110.604 27.7662C110.352 29.3571 108.733 30.449 106.662 30.449C103.999 30.449 102.346 28.7408 102.346 26.0003C102.346 23.2514 104.008 21.4685 106.583 21.4685C109.116 21.4685 110.709 23.1341 110.709 25.7914V26.4078H104.243V26.5165C104.213 26.839 104.255 27.1639 104.367 27.4697C104.478 27.7754 104.656 28.0549 104.889 28.2897C105.122 28.5245 105.405 28.7092 105.718 28.8314C106.031 28.9537 106.368 29.0108 106.706 28.9989C107.15 29.0387 107.596 28.9402 107.976 28.7181C108.357 28.496 108.653 28.1622 108.82 27.7662L110.604 27.7662ZM104.252 25.1505H108.829C108.846 24.8605 108.8 24.5703 108.694 24.2981C108.588 24.0258 108.425 23.7775 108.214 23.5687C108.003 23.3598 107.749 23.1949 107.469 23.0844C107.188 22.9738 106.887 22.9199 106.583 22.9262C106.277 22.9244 105.974 22.9807 105.691 23.0918C105.408 23.2029 105.15 23.3665 104.934 23.5733C104.717 23.7801 104.545 24.0259 104.428 24.2967C104.311 24.5674 104.251 24.8576 104.252 25.1505V25.1505Z" fill="#2C3952"/>
<path d="M38.2484 9.27157C38.6424 9.2445 39.0377 9.30148 39.4059 9.43839C39.7741 9.57529 40.1059 9.78872 40.3775 10.0633C40.6491 10.3378 40.8536 10.6666 40.9764 11.026C41.0991 11.3854 41.1371 11.7664 41.0874 12.1415C41.0874 13.9868 40.0456 15.0475 38.2484 15.0475H36.0691V9.27157H38.2484ZM37.0062 14.2306H38.1437C38.4253 14.2467 38.707 14.2026 38.9684 14.1013C39.2298 14 39.4644 13.8442 39.655 13.6452C39.8456 13.4462 39.9874 13.2091 40.0702 12.951C40.153 12.6929 40.1746 12.4204 40.1335 12.1533C40.1716 11.8873 40.1478 11.6164 40.0638 11.3603C39.9797 11.1041 39.8375 10.8688 39.6473 10.6714C39.4572 10.474 39.2238 10.3193 38.9638 10.2184C38.7039 10.1175 38.4238 10.0729 38.1437 10.0878H37.0062V14.2306Z" fill="#2C3952"/>
<path d="M42.1459 12.866C42.1173 12.5796 42.1515 12.2906 42.2464 12.0175C42.3413 11.7445 42.4947 11.4935 42.6969 11.2805C42.8991 11.0676 43.1455 10.8974 43.4204 10.781C43.6953 10.6646 43.9926 10.6044 44.2931 10.6044C44.5937 10.6044 44.891 10.6646 45.1659 10.781C45.4408 10.8974 45.6872 11.0676 45.8894 11.2805C46.0916 11.4935 46.245 11.7445 46.3399 12.0175C46.4348 12.2906 46.469 12.5796 46.4404 12.866C46.4696 13.1528 46.4357 13.4422 46.3411 13.7157C46.2465 13.9892 46.0931 14.2407 45.8909 14.454C45.6886 14.6674 45.442 14.8379 45.1669 14.9546C44.8917 15.0712 44.5941 15.1315 44.2931 15.1315C43.9922 15.1315 43.6946 15.0712 43.4194 14.9546C43.1443 14.8379 42.8976 14.6674 42.6954 14.454C42.4932 14.2407 42.3398 13.9892 42.2452 13.7157C42.1506 13.4422 42.1167 13.1528 42.1459 12.866ZM45.5161 12.866C45.5161 11.9212 45.0727 11.3687 44.2946 11.3687C43.5135 11.3687 43.0741 11.9212 43.0741 12.8661C43.0741 13.8185 43.5136 14.3667 44.2946 14.3667C45.0728 14.3667 45.5161 13.8147 45.5161 12.866H45.5161Z" fill="#2C3952"/>
<path d="M52.149 15.0474H51.2168L50.2758 11.8371H50.2047L49.2676 15.0474H48.3443L47.0892 10.6885H48.0007L48.8163 14.0146H48.8835L49.8196 10.6885H50.6816L51.6177 14.0146H51.6888L52.5005 10.6885H53.3991L52.149 15.0474Z" fill="#2C3952"/>
<path d="M54.4547 10.6886H55.3197V11.3811H55.3869C55.5008 11.1324 55.6929 10.9239 55.9365 10.7847C56.18 10.6455 56.4629 10.5825 56.7456 10.6045C56.9672 10.5886 57.1896 10.6205 57.3965 10.6981C57.6034 10.7756 57.7894 10.8967 57.9408 11.0524C58.0921 11.2081 58.2049 11.3944 58.2709 11.5975C58.3368 11.8006 58.3541 12.0153 58.3216 12.2257V15.0474H57.423V12.4417C57.423 11.7413 57.1051 11.3929 56.4405 11.3929C56.2901 11.3862 56.1399 11.4107 56.0003 11.4648C55.8607 11.5188 55.735 11.6011 55.6317 11.706C55.5285 11.8109 55.4501 11.936 55.4021 12.0726C55.354 12.2092 55.3374 12.3542 55.3533 12.4975V15.0475H54.4547L54.4547 10.6886Z" fill="#2C3952"/>
<path d="M59.7534 8.98694H60.652V15.0473H59.7534V8.98694Z" fill="#2C3952"/>
<path d="M61.9011 12.8661C61.8725 12.5796 61.9068 12.2906 62.0017 12.0175C62.0966 11.7445 62.2501 11.4934 62.4523 11.2805C62.6545 11.0675 62.9009 10.8974 63.1758 10.7809C63.4507 10.6645 63.748 10.6044 64.0486 10.6044C64.3492 10.6044 64.6465 10.6645 64.9214 10.7809C65.1963 10.8974 65.4428 11.0675 65.645 11.2805C65.8472 11.4934 66.0006 11.7445 66.0955 12.0175C66.1905 12.2906 66.2247 12.5796 66.1961 12.8661C66.2252 13.1528 66.1914 13.4422 66.0967 13.7157C66.002 13.9892 65.8487 14.2407 65.6464 14.4541C65.4442 14.6674 65.1975 14.8379 64.9224 14.9546C64.6472 15.0712 64.3496 15.1315 64.0486 15.1315C63.7477 15.1315 63.45 15.0712 63.1749 14.9546C62.8997 14.8379 62.6531 14.6674 62.4508 14.4541C62.2486 14.2407 62.0952 13.9892 62.0005 13.7157C61.9058 13.4422 61.872 13.1528 61.9011 12.8661ZM65.2713 12.8661C65.2713 11.9212 64.828 11.3687 64.0498 11.3687C63.2688 11.3687 62.8294 11.9212 62.8294 12.8661C62.8294 13.8185 63.2688 14.3668 64.0498 14.3668C64.828 14.3667 65.2713 13.8147 65.2713 12.8661H65.2713Z" fill="#2C3952"/>
<path d="M67.1421 13.8147C67.1421 13.0301 67.7523 12.5778 68.8356 12.5135L70.0689 12.4454V12.0692C70.0689 11.6088 69.751 11.3489 69.1368 11.3489C68.6351 11.3489 68.2876 11.5252 68.1878 11.8333H67.3179C67.4097 11.0846 68.1454 10.6044 69.1782 10.6044C70.3198 10.6044 70.9636 11.1484 70.9636 12.0692V15.0474H70.0986V14.4348H70.0275C69.8832 14.6546 69.6805 14.8337 69.4402 14.9539C69.2 15.0742 68.9307 15.1312 68.6598 15.1192C68.4687 15.1382 68.2755 15.1187 68.0927 15.0619C67.9099 15.0051 67.7416 14.9122 67.5986 14.7893C67.4556 14.6664 67.3411 14.5162 67.2625 14.3483C67.1839 14.1805 67.1428 13.9987 67.1421 13.8147ZM70.0689 13.4422V13.0778L68.957 13.1459C68.33 13.1861 68.0456 13.3903 68.0456 13.7745C68.0456 14.1668 68.4011 14.3951 68.8899 14.3951C69.0332 14.409 69.1778 14.3952 69.3154 14.3544C69.4529 14.3137 69.5804 14.2469 69.6904 14.158C69.8004 14.0691 69.8906 13.9599 69.9557 13.8369C70.0207 13.714 70.0592 13.5797 70.0689 13.4422Z" fill="#2C3952"/>
<path d="M72.1447 12.866C72.1447 11.4887 72.8843 10.6162 74.0347 10.6162C74.3192 10.6036 74.6016 10.6689 74.8489 10.8043C75.0961 10.9397 75.298 11.1397 75.4309 11.3809H75.4981V8.98694H76.3967V15.0473H75.5356V14.3587H75.4645C75.3213 14.5982 75.1124 14.7957 74.8604 14.9298C74.6083 15.0638 74.3228 15.1293 74.0347 15.1192C72.8764 15.1192 72.1447 14.2467 72.1447 12.866ZM73.0729 12.866C73.0729 13.7906 73.5281 14.3469 74.2895 14.3469C75.0468 14.3469 75.5149 13.7825 75.5149 12.8698C75.5149 11.9614 75.0419 11.389 74.2895 11.389C73.533 11.389 73.0729 11.9491 73.0729 12.866H73.0729Z" fill="#2C3952"/>
<path d="M80.1145 12.866C80.0859 12.5796 80.1201 12.2906 80.215 12.0175C80.3099 11.7445 80.4634 11.4935 80.6655 11.2805C80.8677 11.0676 81.1141 10.8974 81.389 10.781C81.6639 10.6646 81.9612 10.6044 82.2618 10.6044C82.5624 10.6044 82.8596 10.6646 83.1345 10.781C83.4094 10.8974 83.6558 11.0676 83.858 11.2805C84.0602 11.4935 84.2136 11.7445 84.3085 12.0175C84.4034 12.2906 84.4376 12.5796 84.409 12.866C84.4382 13.1528 84.4043 13.4422 84.3097 13.7157C84.2151 13.9892 84.0617 14.2407 83.8595 14.454C83.6573 14.6674 83.4106 14.8379 83.1355 14.9546C82.8603 15.0712 82.5627 15.1315 82.2618 15.1315C81.9608 15.1315 81.6632 15.0712 81.388 14.9546C81.1129 14.8379 80.8663 14.6674 80.664 14.454C80.4618 14.2407 80.3085 13.9892 80.2138 13.7157C80.1192 13.4422 80.0854 13.1528 80.1145 12.866ZM83.4847 12.866C83.4847 11.9212 83.0414 11.3687 82.2632 11.3687C81.4822 11.3687 81.0428 11.9212 81.0428 12.8661C81.0428 13.8185 81.4822 14.3667 82.2632 14.3667C83.0414 14.3667 83.4847 13.8147 83.4847 12.866Z" fill="#2C3952"/>
<path d="M85.6146 10.6886H86.4796V11.3811H86.5468C86.6607 11.1324 86.8528 10.9239 87.0964 10.7847C87.34 10.6455 87.6228 10.5825 87.9056 10.6045C88.1271 10.5886 88.3496 10.6205 88.5564 10.6981C88.7633 10.7756 88.9493 10.8967 89.1007 11.0524C89.252 11.2081 89.3649 11.3944 89.4308 11.5975C89.4967 11.8006 89.5141 12.0153 89.4815 12.2257V15.0474H88.583V12.4417C88.583 11.7413 88.265 11.3929 87.6004 11.3929C87.45 11.3862 87.2998 11.4107 87.1603 11.4648C87.0207 11.5188 86.8949 11.6011 86.7916 11.706C86.6884 11.8109 86.61 11.936 86.562 12.0726C86.5139 12.2092 86.4973 12.3542 86.5132 12.4975V15.0475H85.6146V10.6886Z" fill="#2C3952"/>
<path d="M94.5592 9.60327V10.7083H95.5457V11.4329H94.5592V13.6743C94.5592 14.1308 94.7557 14.3308 95.203 14.3308C95.3175 14.3304 95.4319 14.3238 95.5457 14.3109V15.0275C95.3843 15.0551 95.2208 15.0698 95.0569 15.0714C94.0575 15.0714 93.6596 14.7349 93.6596 13.8945V11.4329H92.9368V10.7083H93.6596V9.60327H94.5592Z" fill="#2C3952"/>
<path d="M96.7729 8.98694H97.6636V11.389H97.7347C97.8542 11.138 98.0516 10.9283 98.3 10.7886C98.5485 10.6488 98.8359 10.5858 99.1231 10.6082C99.3435 10.5967 99.5638 10.6319 99.7683 10.7113C99.9728 10.7907 100.157 10.9124 100.306 11.0676C100.456 11.2228 100.568 11.4077 100.635 11.6092C100.701 11.8107 100.721 12.0237 100.691 12.2331V15.0473H99.7917V12.4454C99.7917 11.7491 99.4529 11.3965 98.818 11.3965C98.6636 11.3844 98.5082 11.4047 98.3628 11.4561C98.2175 11.5074 98.0856 11.5886 97.9764 11.6938C97.8672 11.7991 97.7833 11.9259 97.7307 12.0655C97.678 12.205 97.6579 12.3538 97.6716 12.5016V15.0473H96.773L96.7729 8.98694Z" fill="#2C3952"/>
<path d="M105.931 13.8704C105.809 14.2688 105.544 14.6134 105.183 14.8439C104.823 15.0745 104.389 15.1762 103.958 15.1315C103.658 15.1391 103.36 15.0841 103.084 14.9703C102.809 14.8565 102.562 14.6867 102.362 14.4727C102.162 14.2586 102.013 14.0054 101.925 13.7307C101.838 13.4559 101.813 13.1662 101.855 12.8816C101.815 12.5962 101.839 12.3059 101.927 12.0303C102.014 11.7547 102.162 11.5004 102.361 11.2844C102.56 11.0685 102.806 10.896 103.08 10.7787C103.355 10.6614 103.653 10.6019 103.954 10.6044C105.221 10.6044 105.985 11.433 105.985 12.8017V13.1019H102.77V13.1501C102.756 13.3101 102.777 13.4711 102.832 13.6228C102.886 13.7745 102.973 13.9137 103.088 14.0312C103.202 14.1488 103.34 14.2422 103.494 14.3055C103.649 14.3688 103.815 14.4006 103.982 14.3988C104.197 14.4235 104.415 14.3865 104.608 14.2924C104.801 14.1983 104.96 14.0514 105.066 13.8704L105.931 13.8704ZM102.77 12.4657H105.07C105.081 12.3194 105.06 12.1725 105.009 12.0343C104.957 11.8962 104.876 11.7699 104.77 11.6635C104.665 11.5572 104.537 11.4731 104.396 11.4168C104.254 11.3605 104.102 11.3332 103.949 11.3365C103.793 11.3347 103.639 11.3626 103.495 11.4187C103.351 11.4748 103.221 11.5579 103.111 11.6631C103.001 11.7684 102.914 11.8936 102.855 12.0314C102.797 12.1693 102.768 12.3169 102.77 12.4657H102.77Z" fill="#2C3952"/>
</svg>
