<?xml version="1.0" encoding="UTF-8"?>
<svg version="1.1" baseProfile="tiny" xmlns="http://www.w3.org/2000/svg" width="1024" height="1024">
<rect shape-rendering="optimizeSpeed"  x="0" y="0" width="1024" height="1024" fill="white" />
<rect shape-rendering="optimizeSpeed"  x="33" y="33" width="33" height="33" fill="black" />
<rect shape-rendering="optimizeSpeed"  x="66" y="33" width="33" height="33" fill="black" />
<rect shape-rendering="optimizeSpeed"  x="99" y="33" width="33" height="33" fill="black" />
<rect shape-rendering="optimizeSpeed"  x="132" y="33" width="33" height="33" fill="black" />
<rect shape-rendering="optimizeSpeed"  x="165" y="33" width="33" height="33" fill="black" />
<rect shape-rendering="optimizeSpeed"  x="198" y="33" width="33" height="33" fill="black" />
<rect shape-rendering="optimizeSpeed"  x="231" y="33" width="33" height="33" fill="black" />
<rect shape-rendering="optimizeSpeed"  x="297" y="33" width="33" height="33" fill="black" />
<rect shape-rendering="optimizeSpeed"  x="396" y="33" width="33" height="33" fill="black" />
<rect shape-rendering="optimizeSpeed"  x="429" y="33" width="33" height="33" fill="black" />
<rect shape-rendering="optimizeSpeed"  x="495" y="33" width="33" height="33" fill="black" />
<rect shape-rendering="optimizeSpeed"  x="528" y="33" width="33" height="33" fill="black" />
<rect shape-rendering="optimizeSpeed"  x="561" y="33" width="33" height="33" fill="black" />
<rect shape-rendering="optimizeSpeed"  x="627" y="33" width="33" height="33" fill="black" />
<rect shape-rendering="optimizeSpeed"  x="759" y="33" width="33" height="33" fill="black" />
<rect shape-rendering="optimizeSpeed"  x="792" y="33" width="33" height="33" fill="black" />
<rect shape-rendering="optimizeSpeed"  x="825" y="33" width="33" height="33" fill="black" />
<rect shape-rendering="optimizeSpeed"  x="858" y="33" width="33" height="33" fill="black" />
<rect shape-rendering="optimizeSpeed"  x="891" y="33" width="33" height="33" fill="black" />
<rect shape-rendering="optimizeSpeed"  x="924" y="33" width="33" height="33" fill="black" />
<rect shape-rendering="optimizeSpeed"  x="957" y="33" width="33" height="33" fill="black" />
<rect shape-rendering="optimizeSpeed"  x="33" y="66" width="33" height="33" fill="black" />
<rect shape-rendering="optimizeSpeed"  x="231" y="66" width="33" height="33" fill="black" />
<rect shape-rendering="optimizeSpeed"  x="330" y="66" width="33" height="33" fill="black" />
<rect shape-rendering="optimizeSpeed"  x="363" y="66" width="33" height="33" fill="black" />
<rect shape-rendering="optimizeSpeed"  x="594" y="66" width="33" height="33" fill="black" />
<rect shape-rendering="optimizeSpeed"  x="660" y="66" width="33" height="33" fill="black" />
<rect shape-rendering="optimizeSpeed"  x="693" y="66" width="33" height="33" fill="black" />
<rect shape-rendering="optimizeSpeed"  x="759" y="66" width="33" height="33" fill="black" />
<rect shape-rendering="optimizeSpeed"  x="957" y="66" width="33" height="33" fill="black" />
<rect shape-rendering="optimizeSpeed"  x="33" y="99" width="33" height="33" fill="black" />
<rect shape-rendering="optimizeSpeed"  x="99" y="99" width="33" height="33" fill="black" />
<rect shape-rendering="optimizeSpeed"  x="132" y="99" width="33" height="33" fill="black" />
<rect shape-rendering="optimizeSpeed"  x="165" y="99" width="33" height="33" fill="black" />
<rect shape-rendering="optimizeSpeed"  x="231" y="99" width="33" height="33" fill="black" />
<rect shape-rendering="optimizeSpeed"  x="363" y="99" width="33" height="33" fill="black" />
<rect shape-rendering="optimizeSpeed"  x="429" y="99" width="33" height="33" fill="black" />
<rect shape-rendering="optimizeSpeed"  x="528" y="99" width="33" height="33" fill="black" />
<rect shape-rendering="optimizeSpeed"  x="561" y="99" width="33" height="33" fill="black" />
<rect shape-rendering="optimizeSpeed"  x="660" y="99" width="33" height="33" fill="black" />
<rect shape-rendering="optimizeSpeed"  x="693" y="99" width="33" height="33" fill="black" />
<rect shape-rendering="optimizeSpeed"  x="759" y="99" width="33" height="33" fill="black" />
<rect shape-rendering="optimizeSpeed"  x="825" y="99" width="33" height="33" fill="black" />
<rect shape-rendering="optimizeSpeed"  x="858" y="99" width="33" height="33" fill="black" />
<rect shape-rendering="optimizeSpeed"  x="891" y="99" width="33" height="33" fill="black" />
<rect shape-rendering="optimizeSpeed"  x="957" y="99" width="33" height="33" fill="black" />
<rect shape-rendering="optimizeSpeed"  x="33" y="132" width="33" height="33" fill="black" />
<rect shape-rendering="optimizeSpeed"  x="99" y="132" width="33" height="33" fill="black" />
<rect shape-rendering="optimizeSpeed"  x="132" y="132" width="33" height="33" fill="black" />
<rect shape-rendering="optimizeSpeed"  x="165" y="132" width="33" height="33" fill="black" />
<rect shape-rendering="optimizeSpeed"  x="231" y="132" width="33" height="33" fill="black" />
<rect shape-rendering="optimizeSpeed"  x="429" y="132" width="33" height="33" fill="black" />
<rect shape-rendering="optimizeSpeed"  x="594" y="132" width="33" height="33" fill="black" />
<rect shape-rendering="optimizeSpeed"  x="660" y="132" width="33" height="33" fill="black" />
<rect shape-rendering="optimizeSpeed"  x="693" y="132" width="33" height="33" fill="black" />
<rect shape-rendering="optimizeSpeed"  x="759" y="132" width="33" height="33" fill="black" />
<rect shape-rendering="optimizeSpeed"  x="825" y="132" width="33" height="33" fill="black" />
<rect shape-rendering="optimizeSpeed"  x="858" y="132" width="33" height="33" fill="black" />
<rect shape-rendering="optimizeSpeed"  x="891" y="132" width="33" height="33" fill="black" />
<rect shape-rendering="optimizeSpeed"  x="957" y="132" width="33" height="33" fill="black" />
<rect shape-rendering="optimizeSpeed"  x="33" y="165" width="33" height="33" fill="black" />
<rect shape-rendering="optimizeSpeed"  x="99" y="165" width="33" height="33" fill="black" />
<rect shape-rendering="optimizeSpeed"  x="132" y="165" width="33" height="33" fill="black" />
<rect shape-rendering="optimizeSpeed"  x="165" y="165" width="33" height="33" fill="black" />
<rect shape-rendering="optimizeSpeed"  x="231" y="165" width="33" height="33" fill="black" />
<rect shape-rendering="optimizeSpeed"  x="330" y="165" width="33" height="33" fill="black" />
<rect shape-rendering="optimizeSpeed"  x="396" y="165" width="33" height="33" fill="black" />
<rect shape-rendering="optimizeSpeed"  x="495" y="165" width="33" height="33" fill="black" />
<rect shape-rendering="optimizeSpeed"  x="561" y="165" width="33" height="33" fill="black" />
<rect shape-rendering="optimizeSpeed"  x="594" y="165" width="33" height="33" fill="black" />
<rect shape-rendering="optimizeSpeed"  x="627" y="165" width="33" height="33" fill="black" />
<rect shape-rendering="optimizeSpeed"  x="660" y="165" width="33" height="33" fill="black" />
<rect shape-rendering="optimizeSpeed"  x="759" y="165" width="33" height="33" fill="black" />
<rect shape-rendering="optimizeSpeed"  x="825" y="165" width="33" height="33" fill="black" />
<rect shape-rendering="optimizeSpeed"  x="858" y="165" width="33" height="33" fill="black" />
<rect shape-rendering="optimizeSpeed"  x="891" y="165" width="33" height="33" fill="black" />
<rect shape-rendering="optimizeSpeed"  x="957" y="165" width="33" height="33" fill="black" />
<rect shape-rendering="optimizeSpeed"  x="33" y="198" width="33" height="33" fill="black" />
<rect shape-rendering="optimizeSpeed"  x="231" y="198" width="33" height="33" fill="black" />
<rect shape-rendering="optimizeSpeed"  x="363" y="198" width="33" height="33" fill="black" />
<rect shape-rendering="optimizeSpeed"  x="429" y="198" width="33" height="33" fill="black" />
<rect shape-rendering="optimizeSpeed"  x="561" y="198" width="33" height="33" fill="black" />
<rect shape-rendering="optimizeSpeed"  x="594" y="198" width="33" height="33" fill="black" />
<rect shape-rendering="optimizeSpeed"  x="627" y="198" width="33" height="33" fill="black" />
<rect shape-rendering="optimizeSpeed"  x="693" y="198" width="33" height="33" fill="black" />
<rect shape-rendering="optimizeSpeed"  x="759" y="198" width="33" height="33" fill="black" />
<rect shape-rendering="optimizeSpeed"  x="957" y="198" width="33" height="33" fill="black" />
<rect shape-rendering="optimizeSpeed"  x="33" y="231" width="33" height="33" fill="black" />
<rect shape-rendering="optimizeSpeed"  x="66" y="231" width="33" height="33" fill="black" />
<rect shape-rendering="optimizeSpeed"  x="99" y="231" width="33" height="33" fill="black" />
<rect shape-rendering="optimizeSpeed"  x="132" y="231" width="33" height="33" fill="black" />
<rect shape-rendering="optimizeSpeed"  x="165" y="231" width="33" height="33" fill="black" />
<rect shape-rendering="optimizeSpeed"  x="198" y="231" width="33" height="33" fill="black" />
<rect shape-rendering="optimizeSpeed"  x="231" y="231" width="33" height="33" fill="black" />
<rect shape-rendering="optimizeSpeed"  x="297" y="231" width="33" height="33" fill="black" />
<rect shape-rendering="optimizeSpeed"  x="363" y="231" width="33" height="33" fill="black" />
<rect shape-rendering="optimizeSpeed"  x="429" y="231" width="33" height="33" fill="black" />
<rect shape-rendering="optimizeSpeed"  x="495" y="231" width="33" height="33" fill="black" />
<rect shape-rendering="optimizeSpeed"  x="561" y="231" width="33" height="33" fill="black" />
<rect shape-rendering="optimizeSpeed"  x="627" y="231" width="33" height="33" fill="black" />
<rect shape-rendering="optimizeSpeed"  x="693" y="231" width="33" height="33" fill="black" />
<rect shape-rendering="optimizeSpeed"  x="759" y="231" width="33" height="33" fill="black" />
<rect shape-rendering="optimizeSpeed"  x="792" y="231" width="33" height="33" fill="black" />
<rect shape-rendering="optimizeSpeed"  x="825" y="231" width="33" height="33" fill="black" />
<rect shape-rendering="optimizeSpeed"  x="858" y="231" width="33" height="33" fill="black" />
<rect shape-rendering="optimizeSpeed"  x="891" y="231" width="33" height="33" fill="black" />
<rect shape-rendering="optimizeSpeed"  x="924" y="231" width="33" height="33" fill="black" />
<rect shape-rendering="optimizeSpeed"  x="957" y="231" width="33" height="33" fill="black" />
<rect shape-rendering="optimizeSpeed"  x="297" y="264" width="33" height="33" fill="black" />
<rect shape-rendering="optimizeSpeed"  x="363" y="264" width="33" height="33" fill="black" />
<rect shape-rendering="optimizeSpeed"  x="396" y="264" width="33" height="33" fill="black" />
<rect shape-rendering="optimizeSpeed"  x="462" y="264" width="33" height="33" fill="black" />
<rect shape-rendering="optimizeSpeed"  x="33" y="297" width="33" height="33" fill="black" />
<rect shape-rendering="optimizeSpeed"  x="66" y="297" width="33" height="33" fill="black" />
<rect shape-rendering="optimizeSpeed"  x="132" y="297" width="33" height="33" fill="black" />
<rect shape-rendering="optimizeSpeed"  x="165" y="297" width="33" height="33" fill="black" />
<rect shape-rendering="optimizeSpeed"  x="231" y="297" width="33" height="33" fill="black" />
<rect shape-rendering="optimizeSpeed"  x="330" y="297" width="33" height="33" fill="black" />
<rect shape-rendering="optimizeSpeed"  x="363" y="297" width="33" height="33" fill="black" />
<rect shape-rendering="optimizeSpeed"  x="396" y="297" width="33" height="33" fill="black" />
<rect shape-rendering="optimizeSpeed"  x="462" y="297" width="33" height="33" fill="black" />
<rect shape-rendering="optimizeSpeed"  x="528" y="297" width="33" height="33" fill="black" />
<rect shape-rendering="optimizeSpeed"  x="594" y="297" width="33" height="33" fill="black" />
<rect shape-rendering="optimizeSpeed"  x="759" y="297" width="33" height="33" fill="black" />
<rect shape-rendering="optimizeSpeed"  x="957" y="297" width="33" height="33" fill="black" />
<rect shape-rendering="optimizeSpeed"  x="99" y="330" width="33" height="33" fill="black" />
<rect shape-rendering="optimizeSpeed"  x="165" y="330" width="33" height="33" fill="black" />
<rect shape-rendering="optimizeSpeed"  x="198" y="330" width="33" height="33" fill="black" />
<rect shape-rendering="optimizeSpeed"  x="330" y="330" width="33" height="33" fill="black" />
<rect shape-rendering="optimizeSpeed"  x="429" y="330" width="33" height="33" fill="black" />
<rect shape-rendering="optimizeSpeed"  x="462" y="330" width="33" height="33" fill="black" />
<rect shape-rendering="optimizeSpeed"  x="528" y="330" width="33" height="33" fill="black" />
<rect shape-rendering="optimizeSpeed"  x="627" y="330" width="33" height="33" fill="black" />
<rect shape-rendering="optimizeSpeed"  x="660" y="330" width="33" height="33" fill="black" />
<rect shape-rendering="optimizeSpeed"  x="693" y="330" width="33" height="33" fill="black" />
<rect shape-rendering="optimizeSpeed"  x="792" y="330" width="33" height="33" fill="black" />
<rect shape-rendering="optimizeSpeed"  x="825" y="330" width="33" height="33" fill="black" />
<rect shape-rendering="optimizeSpeed"  x="891" y="330" width="33" height="33" fill="black" />
<rect shape-rendering="optimizeSpeed"  x="924" y="330" width="33" height="33" fill="black" />
<rect shape-rendering="optimizeSpeed"  x="66" y="363" width="33" height="33" fill="black" />
<rect shape-rendering="optimizeSpeed"  x="99" y="363" width="33" height="33" fill="black" />
<rect shape-rendering="optimizeSpeed"  x="198" y="363" width="33" height="33" fill="black" />
<rect shape-rendering="optimizeSpeed"  x="231" y="363" width="33" height="33" fill="black" />
<rect shape-rendering="optimizeSpeed"  x="264" y="363" width="33" height="33" fill="black" />
<rect shape-rendering="optimizeSpeed"  x="297" y="363" width="33" height="33" fill="black" />
<rect shape-rendering="optimizeSpeed"  x="363" y="363" width="33" height="33" fill="black" />
<rect shape-rendering="optimizeSpeed"  x="396" y="363" width="33" height="33" fill="black" />
<rect shape-rendering="optimizeSpeed"  x="462" y="363" width="33" height="33" fill="black" />
<rect shape-rendering="optimizeSpeed"  x="528" y="363" width="33" height="33" fill="black" />
<rect shape-rendering="optimizeSpeed"  x="561" y="363" width="33" height="33" fill="black" />
<rect shape-rendering="optimizeSpeed"  x="594" y="363" width="33" height="33" fill="black" />
<rect shape-rendering="optimizeSpeed"  x="759" y="363" width="33" height="33" fill="black" />
<rect shape-rendering="optimizeSpeed"  x="825" y="363" width="33" height="33" fill="black" />
<rect shape-rendering="optimizeSpeed"  x="891" y="363" width="33" height="33" fill="black" />
<rect shape-rendering="optimizeSpeed"  x="33" y="396" width="33" height="33" fill="black" />
<rect shape-rendering="optimizeSpeed"  x="66" y="396" width="33" height="33" fill="black" />
<rect shape-rendering="optimizeSpeed"  x="99" y="396" width="33" height="33" fill="black" />
<rect shape-rendering="optimizeSpeed"  x="132" y="396" width="33" height="33" fill="black" />
<rect shape-rendering="optimizeSpeed"  x="297" y="396" width="33" height="33" fill="black" />
<rect shape-rendering="optimizeSpeed"  x="330" y="396" width="33" height="33" fill="black" />
<rect shape-rendering="optimizeSpeed"  x="363" y="396" width="33" height="33" fill="black" />
<rect shape-rendering="optimizeSpeed"  x="396" y="396" width="33" height="33" fill="black" />
<rect shape-rendering="optimizeSpeed"  x="429" y="396" width="33" height="33" fill="black" />
<rect shape-rendering="optimizeSpeed"  x="462" y="396" width="33" height="33" fill="black" />
<rect shape-rendering="optimizeSpeed"  x="561" y="396" width="33" height="33" fill="black" />
<rect shape-rendering="optimizeSpeed"  x="594" y="396" width="33" height="33" fill="black" />
<rect shape-rendering="optimizeSpeed"  x="627" y="396" width="33" height="33" fill="black" />
<rect shape-rendering="optimizeSpeed"  x="693" y="396" width="33" height="33" fill="black" />
<rect shape-rendering="optimizeSpeed"  x="759" y="396" width="33" height="33" fill="black" />
<rect shape-rendering="optimizeSpeed"  x="825" y="396" width="33" height="33" fill="black" />
<rect shape-rendering="optimizeSpeed"  x="957" y="396" width="33" height="33" fill="black" />
<rect shape-rendering="optimizeSpeed"  x="33" y="429" width="33" height="33" fill="black" />
<rect shape-rendering="optimizeSpeed"  x="66" y="429" width="33" height="33" fill="black" />
<rect shape-rendering="optimizeSpeed"  x="132" y="429" width="33" height="33" fill="black" />
<rect shape-rendering="optimizeSpeed"  x="165" y="429" width="33" height="33" fill="black" />
<rect shape-rendering="optimizeSpeed"  x="198" y="429" width="33" height="33" fill="black" />
<rect shape-rendering="optimizeSpeed"  x="231" y="429" width="33" height="33" fill="black" />
<rect shape-rendering="optimizeSpeed"  x="330" y="429" width="33" height="33" fill="black" />
<rect shape-rendering="optimizeSpeed"  x="396" y="429" width="33" height="33" fill="black" />
<rect shape-rendering="optimizeSpeed"  x="429" y="429" width="33" height="33" fill="black" />
<rect shape-rendering="optimizeSpeed"  x="462" y="429" width="33" height="33" fill="black" />
<rect shape-rendering="optimizeSpeed"  x="528" y="429" width="33" height="33" fill="black" />
<rect shape-rendering="optimizeSpeed"  x="561" y="429" width="33" height="33" fill="black" />
<rect shape-rendering="optimizeSpeed"  x="627" y="429" width="33" height="33" fill="black" />
<rect shape-rendering="optimizeSpeed"  x="693" y="429" width="33" height="33" fill="black" />
<rect shape-rendering="optimizeSpeed"  x="759" y="429" width="33" height="33" fill="black" />
<rect shape-rendering="optimizeSpeed"  x="792" y="429" width="33" height="33" fill="black" />
<rect shape-rendering="optimizeSpeed"  x="957" y="429" width="33" height="33" fill="black" />
<rect shape-rendering="optimizeSpeed"  x="33" y="462" width="33" height="33" fill="black" />
<rect shape-rendering="optimizeSpeed"  x="66" y="462" width="33" height="33" fill="black" />
<rect shape-rendering="optimizeSpeed"  x="99" y="462" width="33" height="33" fill="black" />
<rect shape-rendering="optimizeSpeed"  x="132" y="462" width="33" height="33" fill="black" />
<rect shape-rendering="optimizeSpeed"  x="198" y="462" width="33" height="33" fill="black" />
<rect shape-rendering="optimizeSpeed"  x="264" y="462" width="33" height="33" fill="black" />
<rect shape-rendering="optimizeSpeed"  x="330" y="462" width="33" height="33" fill="black" />
<rect shape-rendering="optimizeSpeed"  x="462" y="462" width="33" height="33" fill="black" />
<rect shape-rendering="optimizeSpeed"  x="495" y="462" width="33" height="33" fill="black" />
<rect shape-rendering="optimizeSpeed"  x="528" y="462" width="33" height="33" fill="black" />
<rect shape-rendering="optimizeSpeed"  x="561" y="462" width="33" height="33" fill="black" />
<rect shape-rendering="optimizeSpeed"  x="594" y="462" width="33" height="33" fill="black" />
<rect shape-rendering="optimizeSpeed"  x="627" y="462" width="33" height="33" fill="black" />
<rect shape-rendering="optimizeSpeed"  x="759" y="462" width="33" height="33" fill="black" />
<rect shape-rendering="optimizeSpeed"  x="792" y="462" width="33" height="33" fill="black" />
<rect shape-rendering="optimizeSpeed"  x="825" y="462" width="33" height="33" fill="black" />
<rect shape-rendering="optimizeSpeed"  x="858" y="462" width="33" height="33" fill="black" />
<rect shape-rendering="optimizeSpeed"  x="924" y="462" width="33" height="33" fill="black" />
<rect shape-rendering="optimizeSpeed"  x="957" y="462" width="33" height="33" fill="black" />
<rect shape-rendering="optimizeSpeed"  x="33" y="495" width="33" height="33" fill="black" />
<rect shape-rendering="optimizeSpeed"  x="99" y="495" width="33" height="33" fill="black" />
<rect shape-rendering="optimizeSpeed"  x="165" y="495" width="33" height="33" fill="black" />
<rect shape-rendering="optimizeSpeed"  x="231" y="495" width="33" height="33" fill="black" />
<rect shape-rendering="optimizeSpeed"  x="264" y="495" width="33" height="33" fill="black" />
<rect shape-rendering="optimizeSpeed"  x="396" y="495" width="33" height="33" fill="black" />
<rect shape-rendering="optimizeSpeed"  x="429" y="495" width="33" height="33" fill="black" />
<rect shape-rendering="optimizeSpeed"  x="462" y="495" width="33" height="33" fill="black" />
<rect shape-rendering="optimizeSpeed"  x="528" y="495" width="33" height="33" fill="black" />
<rect shape-rendering="optimizeSpeed"  x="660" y="495" width="33" height="33" fill="black" />
<rect shape-rendering="optimizeSpeed"  x="693" y="495" width="33" height="33" fill="black" />
<rect shape-rendering="optimizeSpeed"  x="726" y="495" width="33" height="33" fill="black" />
<rect shape-rendering="optimizeSpeed"  x="825" y="495" width="33" height="33" fill="black" />
<rect shape-rendering="optimizeSpeed"  x="858" y="495" width="33" height="33" fill="black" />
<rect shape-rendering="optimizeSpeed"  x="891" y="495" width="33" height="33" fill="black" />
<rect shape-rendering="optimizeSpeed"  x="957" y="495" width="33" height="33" fill="black" />
<rect shape-rendering="optimizeSpeed"  x="33" y="528" width="33" height="33" fill="black" />
<rect shape-rendering="optimizeSpeed"  x="66" y="528" width="33" height="33" fill="black" />
<rect shape-rendering="optimizeSpeed"  x="99" y="528" width="33" height="33" fill="black" />
<rect shape-rendering="optimizeSpeed"  x="132" y="528" width="33" height="33" fill="black" />
<rect shape-rendering="optimizeSpeed"  x="165" y="528" width="33" height="33" fill="black" />
<rect shape-rendering="optimizeSpeed"  x="297" y="528" width="33" height="33" fill="black" />
<rect shape-rendering="optimizeSpeed"  x="330" y="528" width="33" height="33" fill="black" />
<rect shape-rendering="optimizeSpeed"  x="363" y="528" width="33" height="33" fill="black" />
<rect shape-rendering="optimizeSpeed"  x="396" y="528" width="33" height="33" fill="black" />
<rect shape-rendering="optimizeSpeed"  x="660" y="528" width="33" height="33" fill="black" />
<rect shape-rendering="optimizeSpeed"  x="726" y="528" width="33" height="33" fill="black" />
<rect shape-rendering="optimizeSpeed"  x="759" y="528" width="33" height="33" fill="black" />
<rect shape-rendering="optimizeSpeed"  x="792" y="528" width="33" height="33" fill="black" />
<rect shape-rendering="optimizeSpeed"  x="825" y="528" width="33" height="33" fill="black" />
<rect shape-rendering="optimizeSpeed"  x="891" y="528" width="33" height="33" fill="black" />
<rect shape-rendering="optimizeSpeed"  x="957" y="528" width="33" height="33" fill="black" />
<rect shape-rendering="optimizeSpeed"  x="33" y="561" width="33" height="33" fill="black" />
<rect shape-rendering="optimizeSpeed"  x="132" y="561" width="33" height="33" fill="black" />
<rect shape-rendering="optimizeSpeed"  x="165" y="561" width="33" height="33" fill="black" />
<rect shape-rendering="optimizeSpeed"  x="198" y="561" width="33" height="33" fill="black" />
<rect shape-rendering="optimizeSpeed"  x="231" y="561" width="33" height="33" fill="black" />
<rect shape-rendering="optimizeSpeed"  x="297" y="561" width="33" height="33" fill="black" />
<rect shape-rendering="optimizeSpeed"  x="330" y="561" width="33" height="33" fill="black" />
<rect shape-rendering="optimizeSpeed"  x="363" y="561" width="33" height="33" fill="black" />
<rect shape-rendering="optimizeSpeed"  x="495" y="561" width="33" height="33" fill="black" />
<rect shape-rendering="optimizeSpeed"  x="660" y="561" width="33" height="33" fill="black" />
<rect shape-rendering="optimizeSpeed"  x="693" y="561" width="33" height="33" fill="black" />
<rect shape-rendering="optimizeSpeed"  x="792" y="561" width="33" height="33" fill="black" />
<rect shape-rendering="optimizeSpeed"  x="33" y="594" width="33" height="33" fill="black" />
<rect shape-rendering="optimizeSpeed"  x="66" y="594" width="33" height="33" fill="black" />
<rect shape-rendering="optimizeSpeed"  x="99" y="594" width="33" height="33" fill="black" />
<rect shape-rendering="optimizeSpeed"  x="165" y="594" width="33" height="33" fill="black" />
<rect shape-rendering="optimizeSpeed"  x="198" y="594" width="33" height="33" fill="black" />
<rect shape-rendering="optimizeSpeed"  x="396" y="594" width="33" height="33" fill="black" />
<rect shape-rendering="optimizeSpeed"  x="429" y="594" width="33" height="33" fill="black" />
<rect shape-rendering="optimizeSpeed"  x="462" y="594" width="33" height="33" fill="black" />
<rect shape-rendering="optimizeSpeed"  x="495" y="594" width="33" height="33" fill="black" />
<rect shape-rendering="optimizeSpeed"  x="528" y="594" width="33" height="33" fill="black" />
<rect shape-rendering="optimizeSpeed"  x="561" y="594" width="33" height="33" fill="black" />
<rect shape-rendering="optimizeSpeed"  x="627" y="594" width="33" height="33" fill="black" />
<rect shape-rendering="optimizeSpeed"  x="660" y="594" width="33" height="33" fill="black" />
<rect shape-rendering="optimizeSpeed"  x="693" y="594" width="33" height="33" fill="black" />
<rect shape-rendering="optimizeSpeed"  x="726" y="594" width="33" height="33" fill="black" />
<rect shape-rendering="optimizeSpeed"  x="825" y="594" width="33" height="33" fill="black" />
<rect shape-rendering="optimizeSpeed"  x="858" y="594" width="33" height="33" fill="black" />
<rect shape-rendering="optimizeSpeed"  x="891" y="594" width="33" height="33" fill="black" />
<rect shape-rendering="optimizeSpeed"  x="924" y="594" width="33" height="33" fill="black" />
<rect shape-rendering="optimizeSpeed"  x="33" y="627" width="33" height="33" fill="black" />
<rect shape-rendering="optimizeSpeed"  x="66" y="627" width="33" height="33" fill="black" />
<rect shape-rendering="optimizeSpeed"  x="99" y="627" width="33" height="33" fill="black" />
<rect shape-rendering="optimizeSpeed"  x="198" y="627" width="33" height="33" fill="black" />
<rect shape-rendering="optimizeSpeed"  x="231" y="627" width="33" height="33" fill="black" />
<rect shape-rendering="optimizeSpeed"  x="330" y="627" width="33" height="33" fill="black" />
<rect shape-rendering="optimizeSpeed"  x="363" y="627" width="33" height="33" fill="black" />
<rect shape-rendering="optimizeSpeed"  x="396" y="627" width="33" height="33" fill="black" />
<rect shape-rendering="optimizeSpeed"  x="528" y="627" width="33" height="33" fill="black" />
<rect shape-rendering="optimizeSpeed"  x="594" y="627" width="33" height="33" fill="black" />
<rect shape-rendering="optimizeSpeed"  x="660" y="627" width="33" height="33" fill="black" />
<rect shape-rendering="optimizeSpeed"  x="726" y="627" width="33" height="33" fill="black" />
<rect shape-rendering="optimizeSpeed"  x="825" y="627" width="33" height="33" fill="black" />
<rect shape-rendering="optimizeSpeed"  x="957" y="627" width="33" height="33" fill="black" />
<rect shape-rendering="optimizeSpeed"  x="33" y="660" width="33" height="33" fill="black" />
<rect shape-rendering="optimizeSpeed"  x="66" y="660" width="33" height="33" fill="black" />
<rect shape-rendering="optimizeSpeed"  x="165" y="660" width="33" height="33" fill="black" />
<rect shape-rendering="optimizeSpeed"  x="198" y="660" width="33" height="33" fill="black" />
<rect shape-rendering="optimizeSpeed"  x="264" y="660" width="33" height="33" fill="black" />
<rect shape-rendering="optimizeSpeed"  x="330" y="660" width="33" height="33" fill="black" />
<rect shape-rendering="optimizeSpeed"  x="429" y="660" width="33" height="33" fill="black" />
<rect shape-rendering="optimizeSpeed"  x="495" y="660" width="33" height="33" fill="black" />
<rect shape-rendering="optimizeSpeed"  x="561" y="660" width="33" height="33" fill="black" />
<rect shape-rendering="optimizeSpeed"  x="693" y="660" width="33" height="33" fill="black" />
<rect shape-rendering="optimizeSpeed"  x="759" y="660" width="33" height="33" fill="black" />
<rect shape-rendering="optimizeSpeed"  x="825" y="660" width="33" height="33" fill="black" />
<rect shape-rendering="optimizeSpeed"  x="858" y="660" width="33" height="33" fill="black" />
<rect shape-rendering="optimizeSpeed"  x="891" y="660" width="33" height="33" fill="black" />
<rect shape-rendering="optimizeSpeed"  x="33" y="693" width="33" height="33" fill="black" />
<rect shape-rendering="optimizeSpeed"  x="66" y="693" width="33" height="33" fill="black" />
<rect shape-rendering="optimizeSpeed"  x="132" y="693" width="33" height="33" fill="black" />
<rect shape-rendering="optimizeSpeed"  x="165" y="693" width="33" height="33" fill="black" />
<rect shape-rendering="optimizeSpeed"  x="231" y="693" width="33" height="33" fill="black" />
<rect shape-rendering="optimizeSpeed"  x="330" y="693" width="33" height="33" fill="black" />
<rect shape-rendering="optimizeSpeed"  x="429" y="693" width="33" height="33" fill="black" />
<rect shape-rendering="optimizeSpeed"  x="462" y="693" width="33" height="33" fill="black" />
<rect shape-rendering="optimizeSpeed"  x="495" y="693" width="33" height="33" fill="black" />
<rect shape-rendering="optimizeSpeed"  x="528" y="693" width="33" height="33" fill="black" />
<rect shape-rendering="optimizeSpeed"  x="561" y="693" width="33" height="33" fill="black" />
<rect shape-rendering="optimizeSpeed"  x="594" y="693" width="33" height="33" fill="black" />
<rect shape-rendering="optimizeSpeed"  x="660" y="693" width="33" height="33" fill="black" />
<rect shape-rendering="optimizeSpeed"  x="693" y="693" width="33" height="33" fill="black" />
<rect shape-rendering="optimizeSpeed"  x="726" y="693" width="33" height="33" fill="black" />
<rect shape-rendering="optimizeSpeed"  x="759" y="693" width="33" height="33" fill="black" />
<rect shape-rendering="optimizeSpeed"  x="792" y="693" width="33" height="33" fill="black" />
<rect shape-rendering="optimizeSpeed"  x="825" y="693" width="33" height="33" fill="black" />
<rect shape-rendering="optimizeSpeed"  x="858" y="693" width="33" height="33" fill="black" />
<rect shape-rendering="optimizeSpeed"  x="891" y="693" width="33" height="33" fill="black" />
<rect shape-rendering="optimizeSpeed"  x="924" y="693" width="33" height="33" fill="black" />
<rect shape-rendering="optimizeSpeed"  x="297" y="726" width="33" height="33" fill="black" />
<rect shape-rendering="optimizeSpeed"  x="330" y="726" width="33" height="33" fill="black" />
<rect shape-rendering="optimizeSpeed"  x="363" y="726" width="33" height="33" fill="black" />
<rect shape-rendering="optimizeSpeed"  x="495" y="726" width="33" height="33" fill="black" />
<rect shape-rendering="optimizeSpeed"  x="528" y="726" width="33" height="33" fill="black" />
<rect shape-rendering="optimizeSpeed"  x="594" y="726" width="33" height="33" fill="black" />
<rect shape-rendering="optimizeSpeed"  x="627" y="726" width="33" height="33" fill="black" />
<rect shape-rendering="optimizeSpeed"  x="693" y="726" width="33" height="33" fill="black" />
<rect shape-rendering="optimizeSpeed"  x="825" y="726" width="33" height="33" fill="black" />
<rect shape-rendering="optimizeSpeed"  x="858" y="726" width="33" height="33" fill="black" />
<rect shape-rendering="optimizeSpeed"  x="33" y="759" width="33" height="33" fill="black" />
<rect shape-rendering="optimizeSpeed"  x="66" y="759" width="33" height="33" fill="black" />
<rect shape-rendering="optimizeSpeed"  x="99" y="759" width="33" height="33" fill="black" />
<rect shape-rendering="optimizeSpeed"  x="132" y="759" width="33" height="33" fill="black" />
<rect shape-rendering="optimizeSpeed"  x="165" y="759" width="33" height="33" fill="black" />
<rect shape-rendering="optimizeSpeed"  x="198" y="759" width="33" height="33" fill="black" />
<rect shape-rendering="optimizeSpeed"  x="231" y="759" width="33" height="33" fill="black" />
<rect shape-rendering="optimizeSpeed"  x="330" y="759" width="33" height="33" fill="black" />
<rect shape-rendering="optimizeSpeed"  x="363" y="759" width="33" height="33" fill="black" />
<rect shape-rendering="optimizeSpeed"  x="429" y="759" width="33" height="33" fill="black" />
<rect shape-rendering="optimizeSpeed"  x="495" y="759" width="33" height="33" fill="black" />
<rect shape-rendering="optimizeSpeed"  x="528" y="759" width="33" height="33" fill="black" />
<rect shape-rendering="optimizeSpeed"  x="660" y="759" width="33" height="33" fill="black" />
<rect shape-rendering="optimizeSpeed"  x="693" y="759" width="33" height="33" fill="black" />
<rect shape-rendering="optimizeSpeed"  x="759" y="759" width="33" height="33" fill="black" />
<rect shape-rendering="optimizeSpeed"  x="825" y="759" width="33" height="33" fill="black" />
<rect shape-rendering="optimizeSpeed"  x="858" y="759" width="33" height="33" fill="black" />
<rect shape-rendering="optimizeSpeed"  x="33" y="792" width="33" height="33" fill="black" />
<rect shape-rendering="optimizeSpeed"  x="231" y="792" width="33" height="33" fill="black" />
<rect shape-rendering="optimizeSpeed"  x="495" y="792" width="33" height="33" fill="black" />
<rect shape-rendering="optimizeSpeed"  x="594" y="792" width="33" height="33" fill="black" />
<rect shape-rendering="optimizeSpeed"  x="660" y="792" width="33" height="33" fill="black" />
<rect shape-rendering="optimizeSpeed"  x="693" y="792" width="33" height="33" fill="black" />
<rect shape-rendering="optimizeSpeed"  x="825" y="792" width="33" height="33" fill="black" />
<rect shape-rendering="optimizeSpeed"  x="858" y="792" width="33" height="33" fill="black" />
<rect shape-rendering="optimizeSpeed"  x="957" y="792" width="33" height="33" fill="black" />
<rect shape-rendering="optimizeSpeed"  x="33" y="825" width="33" height="33" fill="black" />
<rect shape-rendering="optimizeSpeed"  x="99" y="825" width="33" height="33" fill="black" />
<rect shape-rendering="optimizeSpeed"  x="132" y="825" width="33" height="33" fill="black" />
<rect shape-rendering="optimizeSpeed"  x="165" y="825" width="33" height="33" fill="black" />
<rect shape-rendering="optimizeSpeed"  x="231" y="825" width="33" height="33" fill="black" />
<rect shape-rendering="optimizeSpeed"  x="297" y="825" width="33" height="33" fill="black" />
<rect shape-rendering="optimizeSpeed"  x="462" y="825" width="33" height="33" fill="black" />
<rect shape-rendering="optimizeSpeed"  x="495" y="825" width="33" height="33" fill="black" />
<rect shape-rendering="optimizeSpeed"  x="561" y="825" width="33" height="33" fill="black" />
<rect shape-rendering="optimizeSpeed"  x="660" y="825" width="33" height="33" fill="black" />
<rect shape-rendering="optimizeSpeed"  x="693" y="825" width="33" height="33" fill="black" />
<rect shape-rendering="optimizeSpeed"  x="726" y="825" width="33" height="33" fill="black" />
<rect shape-rendering="optimizeSpeed"  x="759" y="825" width="33" height="33" fill="black" />
<rect shape-rendering="optimizeSpeed"  x="792" y="825" width="33" height="33" fill="black" />
<rect shape-rendering="optimizeSpeed"  x="825" y="825" width="33" height="33" fill="black" />
<rect shape-rendering="optimizeSpeed"  x="957" y="825" width="33" height="33" fill="black" />
<rect shape-rendering="optimizeSpeed"  x="33" y="858" width="33" height="33" fill="black" />
<rect shape-rendering="optimizeSpeed"  x="99" y="858" width="33" height="33" fill="black" />
<rect shape-rendering="optimizeSpeed"  x="132" y="858" width="33" height="33" fill="black" />
<rect shape-rendering="optimizeSpeed"  x="165" y="858" width="33" height="33" fill="black" />
<rect shape-rendering="optimizeSpeed"  x="231" y="858" width="33" height="33" fill="black" />
<rect shape-rendering="optimizeSpeed"  x="297" y="858" width="33" height="33" fill="black" />
<rect shape-rendering="optimizeSpeed"  x="330" y="858" width="33" height="33" fill="black" />
<rect shape-rendering="optimizeSpeed"  x="429" y="858" width="33" height="33" fill="black" />
<rect shape-rendering="optimizeSpeed"  x="528" y="858" width="33" height="33" fill="black" />
<rect shape-rendering="optimizeSpeed"  x="561" y="858" width="33" height="33" fill="black" />
<rect shape-rendering="optimizeSpeed"  x="627" y="858" width="33" height="33" fill="black" />
<rect shape-rendering="optimizeSpeed"  x="660" y="858" width="33" height="33" fill="black" />
<rect shape-rendering="optimizeSpeed"  x="726" y="858" width="33" height="33" fill="black" />
<rect shape-rendering="optimizeSpeed"  x="891" y="858" width="33" height="33" fill="black" />
<rect shape-rendering="optimizeSpeed"  x="957" y="858" width="33" height="33" fill="black" />
<rect shape-rendering="optimizeSpeed"  x="33" y="891" width="33" height="33" fill="black" />
<rect shape-rendering="optimizeSpeed"  x="99" y="891" width="33" height="33" fill="black" />
<rect shape-rendering="optimizeSpeed"  x="132" y="891" width="33" height="33" fill="black" />
<rect shape-rendering="optimizeSpeed"  x="165" y="891" width="33" height="33" fill="black" />
<rect shape-rendering="optimizeSpeed"  x="231" y="891" width="33" height="33" fill="black" />
<rect shape-rendering="optimizeSpeed"  x="330" y="891" width="33" height="33" fill="black" />
<rect shape-rendering="optimizeSpeed"  x="495" y="891" width="33" height="33" fill="black" />
<rect shape-rendering="optimizeSpeed"  x="528" y="891" width="33" height="33" fill="black" />
<rect shape-rendering="optimizeSpeed"  x="594" y="891" width="33" height="33" fill="black" />
<rect shape-rendering="optimizeSpeed"  x="627" y="891" width="33" height="33" fill="black" />
<rect shape-rendering="optimizeSpeed"  x="693" y="891" width="33" height="33" fill="black" />
<rect shape-rendering="optimizeSpeed"  x="726" y="891" width="33" height="33" fill="black" />
<rect shape-rendering="optimizeSpeed"  x="792" y="891" width="33" height="33" fill="black" />
<rect shape-rendering="optimizeSpeed"  x="825" y="891" width="33" height="33" fill="black" />
<rect shape-rendering="optimizeSpeed"  x="858" y="891" width="33" height="33" fill="black" />
<rect shape-rendering="optimizeSpeed"  x="924" y="891" width="33" height="33" fill="black" />
<rect shape-rendering="optimizeSpeed"  x="957" y="891" width="33" height="33" fill="black" />
<rect shape-rendering="optimizeSpeed"  x="33" y="924" width="33" height="33" fill="black" />
<rect shape-rendering="optimizeSpeed"  x="231" y="924" width="33" height="33" fill="black" />
<rect shape-rendering="optimizeSpeed"  x="297" y="924" width="33" height="33" fill="black" />
<rect shape-rendering="optimizeSpeed"  x="363" y="924" width="33" height="33" fill="black" />
<rect shape-rendering="optimizeSpeed"  x="429" y="924" width="33" height="33" fill="black" />
<rect shape-rendering="optimizeSpeed"  x="462" y="924" width="33" height="33" fill="black" />
<rect shape-rendering="optimizeSpeed"  x="495" y="924" width="33" height="33" fill="black" />
<rect shape-rendering="optimizeSpeed"  x="561" y="924" width="33" height="33" fill="black" />
<rect shape-rendering="optimizeSpeed"  x="627" y="924" width="33" height="33" fill="black" />
<rect shape-rendering="optimizeSpeed"  x="726" y="924" width="33" height="33" fill="black" />
<rect shape-rendering="optimizeSpeed"  x="759" y="924" width="33" height="33" fill="black" />
<rect shape-rendering="optimizeSpeed"  x="858" y="924" width="33" height="33" fill="black" />
<rect shape-rendering="optimizeSpeed"  x="891" y="924" width="33" height="33" fill="black" />
<rect shape-rendering="optimizeSpeed"  x="957" y="924" width="33" height="33" fill="black" />
<rect shape-rendering="optimizeSpeed"  x="33" y="957" width="33" height="33" fill="black" />
<rect shape-rendering="optimizeSpeed"  x="66" y="957" width="33" height="33" fill="black" />
<rect shape-rendering="optimizeSpeed"  x="99" y="957" width="33" height="33" fill="black" />
<rect shape-rendering="optimizeSpeed"  x="132" y="957" width="33" height="33" fill="black" />
<rect shape-rendering="optimizeSpeed"  x="165" y="957" width="33" height="33" fill="black" />
<rect shape-rendering="optimizeSpeed"  x="198" y="957" width="33" height="33" fill="black" />
<rect shape-rendering="optimizeSpeed"  x="231" y="957" width="33" height="33" fill="black" />
<rect shape-rendering="optimizeSpeed"  x="297" y="957" width="33" height="33" fill="black" />
<rect shape-rendering="optimizeSpeed"  x="330" y="957" width="33" height="33" fill="black" />
<rect shape-rendering="optimizeSpeed"  x="396" y="957" width="33" height="33" fill="black" />
<rect shape-rendering="optimizeSpeed"  x="429" y="957" width="33" height="33" fill="black" />
<rect shape-rendering="optimizeSpeed"  x="693" y="957" width="33" height="33" fill="black" />
<rect shape-rendering="optimizeSpeed"  x="792" y="957" width="33" height="33" fill="black" />
<rect shape-rendering="optimizeSpeed"  x="825" y="957" width="33" height="33" fill="black" />
<rect shape-rendering="optimizeSpeed"  x="858" y="957" width="33" height="33" fill="black" /></svg>