<svg width="61" height="79" viewBox="0 0 61 79" fill="none" xmlns="http://www.w3.org/2000/svg">
<g opacity="0.15">
<path d="M0 0.655273H9.60999V4.92016H4.80999V9.17617H0V0.655273Z" fill="#0057FF"/>
<path d="M25.3599 0.655273H34.9699V4.92016H30.1599V9.17617H25.3599V0.655273Z" fill="#0057FF"/>
<path d="M50.71 0.655273H60.32V4.92016H55.52V9.17617H50.71V0.655273Z" fill="#0057FF"/>
<path d="M0 23.8462H9.60999V28.1023H4.80999V32.3672H0V23.8462Z" fill="#0057FF"/>
<path d="M25.3599 23.8462H34.9699V28.1023H30.1599V32.3672H25.3599V23.8462Z" fill="#0057FF"/>
<path d="M50.71 23.8462H60.32V28.1023H55.52V32.3672H50.71V23.8462Z" fill="#0057FF"/>
<path d="M0 47.0283H9.60999V51.2933H4.80999V55.5493H0V47.0283Z" fill="#0057FF"/>
<path d="M25.3599 47.0283H34.9699V51.2933H30.1599V55.5493H25.3599V47.0283Z" fill="#0057FF"/>
<path d="M50.71 47.0283H60.32V51.2933H55.52V55.5493H50.71V47.0283Z" fill="#0057FF"/>
<path d="M0 70.2188H9.60999V74.4748H4.80999V78.7398H0V70.2188Z" fill="#0057FF"/>
<path d="M25.3599 70.2188H34.9699V74.4748H30.1599V78.7398H25.3599V70.2188Z" fill="#0057FF"/>
<path d="M50.71 70.2188H60.32V74.4748H55.52V78.7398H50.71V70.2188Z" fill="#0057FF"/>
</g>
</svg>
