<svg width="48" height="62" viewBox="0 0 48 62" fill="none" xmlns="http://www.w3.org/2000/svg">
<g opacity="0.15">
<path d="M0 0.000976562H7.55122V3.35219H3.77954V6.69643H0V0.000976562Z" fill="#0057FF"/>
<path d="M19.9268 0H27.478V3.35121H23.6985V6.69545H19.9268V0Z" fill="#0057FF"/>
<path d="M39.8467 0H47.3979V3.35121H43.6262V6.69545H39.8467V0Z" fill="#0057FF"/>
<path d="M0 18.2227H7.55122V21.5669H3.77954V24.9182H0V18.2227Z" fill="#0057FF"/>
<path d="M19.9268 18.2227H27.478V21.5669H23.6985V24.9182H19.9268V18.2227Z" fill="#0057FF"/>
<path d="M39.8467 18.2227H47.3979V21.5669H43.6262V24.9182H39.8467V18.2227Z" fill="#0057FF"/>
<path d="M0 36.4385H7.55122V39.7897H3.77954V43.134H0V36.4385Z" fill="#0057FF"/>
<path d="M19.9268 36.4385H27.478V39.7897H23.6985V43.134H19.9268V36.4385Z" fill="#0057FF"/>
<path d="M39.8467 36.4385H47.3979V39.7897H43.6262V43.134H39.8467V36.4385Z" fill="#0057FF"/>
<path d="M0 54.6606H7.55122V58.0049H3.77954V61.3562H0V54.6606Z" fill="#0057FF"/>
<path d="M19.9268 54.6606H27.478V58.0049H23.6985V61.3562H19.9268V54.6606Z" fill="#0057FF"/>
<path d="M39.8467 54.6606H47.3979V58.0049H43.6262V61.3562H39.8467V54.6606Z" fill="#0057FF"/>
</g>
</svg>
