<svg width="134" height="16" viewBox="0 0 134 16" fill="none" xmlns="http://www.w3.org/2000/svg">
<mask id="path-1-inside-1" fill="white">
<path fill-rule="evenodd" clip-rule="evenodd" d="M9.74281 0.000706147C8.9772 -0.0242136 8.21829 0.34149 7.77122 1.03296L0.364505 12.4888C-0.315634 13.5408 -0.0164455 14.9484 1.03276 15.6327C2.08196 16.3171 3.48388 16.0191 4.16401 14.9672L9.74281 6.33853L15.3216 14.9672C16.0017 16.0191 17.4037 16.3171 18.4529 15.6327C19.5021 14.9484 19.8013 13.5408 19.1211 12.4888L11.7144 1.03296C11.2673 0.34149 10.5084 -0.0242136 9.74281 0.000706147Z"/>
</mask>
<path d="M7.77122 1.03296L1.89286 -2.76767L1.89285 -2.76767L7.77122 1.03296ZM9.74281 0.000706147L9.51509 6.997L9.74281 7.00441L9.97053 6.997L9.74281 0.000706147ZM0.364505 12.4888L6.24287 16.2894L6.24288 16.2894L0.364505 12.4888ZM1.03276 15.6327L-2.79157 21.4957L1.03276 15.6327ZM4.16401 14.9672L10.0424 18.7678L10.0424 18.7678L4.16401 14.9672ZM9.74281 6.33853L15.6212 2.53791L9.74281 -6.55408L3.86444 2.53791L9.74281 6.33853ZM15.3216 14.9672L9.44323 18.7678L9.44324 18.7678L15.3216 14.9672ZM18.4529 15.6327L14.6285 9.76975L14.6285 9.76976L18.4529 15.6327ZM19.1211 12.4888L13.2427 16.2894L13.2427 16.2894L19.1211 12.4888ZM11.7144 1.03296L17.5928 -2.76767L17.5928 -2.76767L11.7144 1.03296ZM13.6496 4.83358C12.7111 6.28507 11.1076 7.04884 9.51509 6.997L9.97053 -6.99559C6.84678 -7.09726 3.72544 -5.60209 1.89286 -2.76767L13.6496 4.83358ZM6.24288 16.2894L13.6496 4.83358L1.89285 -2.76767L-5.51387 8.68819L6.24288 16.2894ZM4.85709 9.76975C7.03667 11.1915 7.65578 14.1041 6.24287 16.2894L-5.51386 8.68819C-8.28704 12.9774 -7.06956 18.7052 -2.79157 21.4957L4.85709 9.76975ZM-1.71435 11.1665C-0.289477 8.96271 2.659 8.33598 4.85709 9.76975L-2.79157 21.4957C1.50493 24.2982 7.25723 23.0756 10.0424 18.7678L-1.71435 11.1665ZM3.86444 2.53791L-1.71436 11.1665L10.0424 18.7678L15.6212 10.1392L3.86444 2.53791ZM3.86444 10.1392L9.44323 18.7678L21.2 11.1665L15.6212 2.53791L3.86444 10.1392ZM9.44324 18.7678C12.2284 23.0755 17.9807 24.2983 22.2772 21.4957L14.6285 9.76976C16.8266 8.33598 19.7751 8.96271 21.2 11.1665L9.44324 18.7678ZM22.2772 21.4957C26.5552 18.7052 27.7727 12.9774 24.9995 8.68818L13.2427 16.2894C11.8298 14.1041 12.4489 11.1915 14.6285 9.76975L22.2772 21.4957ZM24.9995 8.68819L17.5928 -2.76767L5.83602 4.83358L13.2427 16.2894L24.9995 8.68819ZM17.5928 -2.76767C15.7602 -5.60209 12.6388 -7.09726 9.51509 -6.99559L9.97053 6.997C8.378 7.04884 6.77448 6.28507 5.83603 4.83358L17.5928 -2.76767Z" fill="white" mask="url(#path-1-inside-1)"/>
<path d="M29.4404 2.28571V0H36.8874V2.28571H34.3686V16H31.9593V2.28571H29.4404Z" fill="white"/>
<path d="M49.82 16H47.3668C47.2208 15.5429 47.1478 14.8876 47.1478 14.0343V11.52C47.1478 10.7886 47.0237 10.2705 46.7755 9.96571C46.5272 9.64571 46.1257 9.48571 45.5708 9.48571H44.7385V16H42.3291V0H45.965C47.2062 0 48.1115 0.304762 48.681 0.914286C49.2505 1.50857 49.5352 2.43048 49.5352 3.68V4.93714C49.5352 6.58286 49.0096 7.66476 47.9582 8.18286C49.0242 8.65524 49.5571 9.79048 49.5571 11.5886V14.0571C49.5571 14.9257 49.6447 15.5733 49.82 16ZM45.8993 2.28571H44.7385V7.2H45.6803C46.1622 7.2 46.5199 7.07048 46.7535 6.81143C47.0018 6.55238 47.1259 6.11809 47.1259 5.50857V3.93143C47.1259 2.83429 46.717 2.28571 45.8993 2.28571Z" fill="white"/>
<path d="M60.8666 0L63.3197 16H60.8885L60.4724 13.0971H57.5155L57.0993 16H54.8871L57.3402 0H60.8666ZM58.983 2.83429L57.8221 10.9257H60.1438L58.983 2.83429Z" fill="white"/>
<path d="M68.8224 16V0H72.6335C75.0282 0 76.2256 1.3181 76.2256 3.95429V12.0457C76.2256 14.6819 75.0282 16 72.6335 16H68.8224ZM72.5897 2.28571H71.2317V13.7143H72.5897C73.4074 13.7143 73.8162 13.1962 73.8162 12.16V3.84C73.8162 2.80381 73.4074 2.28571 72.5897 2.28571Z" fill="white"/>
<path d="M84.5532 2.28571V6.74286H87.8605V9.02857H84.5532V13.7143H88.7147V16H82.1438V0H88.7147V2.28571H84.5532Z" fill="white"/>
<path d="M94.5883 16V0H96.9977V13.7143H100.962V16H94.5883Z" fill="white"/>
<path d="M106.391 16V0H108.8V16H106.391Z" fill="white"/>
<path d="M114.789 0H121.623V2.24L117.045 13.7143H121.623V16H114.57V13.76L119.148 2.28571H114.789V0Z" fill="white"/>
<path d="M129.839 2.28571V6.74286H133.147V9.02857H129.839V13.7143H134.001V16H127.43V0H134.001V2.28571H129.839Z" fill="white"/>
</svg>
