<svg width="182" height="135" viewBox="0 0 182 135" fill="none" xmlns="http://www.w3.org/2000/svg">
<g clip-path="url(#clip0)">
<path d="M125.68 79.3499V134.44H138.89V79.3499H125.68Z" fill="#37CC96"/>
<path d="M67.6504 57.49C67.6504 88.92 93.1204 114.39 124.54 114.39C155.96 114.39 181.44 88.92 181.44 57.49C181.44 26.07 155.96 0.59996 124.54 0.59996C93.1204 0.59996 67.6504 26.07 67.6504 57.49ZM168.01 57.49C168.01 81.46 148.51 100.96 124.54 100.96C100.57 100.96 81.0704 81.46 81.0704 57.49C81.0704 33.53 100.57 14.02 124.54 14.02C148.51 14.02 168.01 33.53 168.01 57.49Z" fill="white" fill-opacity="0.1"/>
<path d="M97.7104 79.3499V134.44H110.92V79.3499H97.7104Z" fill="#37CC96"/>
<path d="M29.9303 117.53V134.44C25.2603 134.44 21.4803 130.65 21.4803 125.98C21.4803 121.31 25.2703 117.53 29.9303 117.53Z" fill="#37CC96"/>
<path d="M8.85039 117.53L8.85039 134.44C4.19039 134.44 0.400391 130.65 0.400391 125.98C0.400391 121.31 4.19039 117.53 8.85039 117.53Z" fill="#37CC96"/>
<path d="M52.7903 117.53V134.44C48.1203 134.44 44.3403 130.65 44.3403 125.98C44.3403 121.31 48.1203 117.53 52.7903 117.53Z" fill="#37CC96"/>
<path d="M75.6503 117.53V134.44C70.9803 134.44 67.2003 130.65 67.2003 125.98C67.1903 121.31 70.9803 117.53 75.6503 117.53Z" fill="#37CC96"/>
</g>
<defs>
<clipPath id="clip0">
<rect width="133.84" height="181.04" fill="white" transform="translate(0.400391 134.44) rotate(-90)"/>
</clipPath>
</defs>
</svg>
