<svg width="233" height="233" viewBox="0 0 233 233" fill="none" xmlns="http://www.w3.org/2000/svg">
<path d="M116.5 199.243C166.4 199.243 206.853 196.881 206.853 193.968C206.853 191.054 166.4 188.693 116.5 188.693C66.5994 188.693 26.1471 191.054 26.1471 193.968C26.1471 196.881 66.5994 199.243 116.5 199.243Z" fill="#EFF7FF"/>
<path d="M171.064 67.9521C170.449 69.0332 168.78 67.6352 168.175 69.4806C167.685 70.9578 166.604 70.9205 166.25 72.6354C165.896 74.3503 166.581 74.094 165.714 75.5945C165.08 76.6896 166.213 77.2115 165.765 78.4837C165.504 79.2246 164.703 79.453 164.577 80.3477C164.451 81.2424 165.742 82.8268 167.839 82.4727C169.74 82.1511 170.505 83.5724 172.07 83.0924C173.636 82.6125 174.228 84.7654 176.87 83.8427C178.958 83.1157 178.809 83.9033 179.983 83.5305C181.157 83.1577 181.609 81.4894 180.99 79.9097C180.649 79.0476 180.37 77.7847 181.12 76.7781C181.87 75.7716 182.485 74.8303 181.609 73.6513C180.645 72.3605 180.808 71.5077 180.789 70.1609C180.77 68.8142 180.207 67.4069 178.58 67.6119C177.136 67.7983 175.533 67.3649 174.102 66.7824C172.886 66.2885 171.781 66.6892 171.064 67.9521Z" fill="#263238"/>
<path d="M175.593 176.488L172.714 178.967L167.779 171.898L170.654 169.419L175.593 176.488Z" fill="#FF8B7B"/>
<path d="M171.735 178.287L175.365 175.715C175.427 175.667 175.503 175.642 175.582 175.642C175.66 175.642 175.736 175.667 175.798 175.715L178.548 178.082C178.614 178.139 178.665 178.211 178.699 178.292C178.733 178.372 178.748 178.459 178.743 178.546C178.738 178.634 178.714 178.719 178.671 178.795C178.628 178.871 178.568 178.936 178.496 178.986C177.224 179.918 176.544 180.23 174.95 181.363C173.967 182.062 171.497 183.958 170.141 184.923C168.785 185.887 167.625 184.694 168.091 184.177C170.178 181.88 171.087 180.104 171.353 178.837C171.407 178.613 171.544 178.417 171.735 178.287Z" fill="#263238"/>
<path opacity="0.2" d="M167.779 171.898L170.323 175.542L173.403 173.357L170.658 169.419L167.779 171.898Z" fill="black"/>
<path d="M159.731 106.966C159.731 106.966 153.966 128.989 151.296 143.411C149.171 154.88 168.743 174.526 168.743 174.526L172.886 170.929C172.886 170.929 163.011 156.017 158.827 145.713C165.132 130.191 174.037 115.964 171.875 108.788L159.731 106.966Z" fill="#407BFF"/>
<path d="M172.578 169.531L166.837 173.874L168.58 175.649L174.009 171.67L172.578 169.531Z" fill="#263238"/>
<path d="M170.556 180.044C170.323 180.236 170.036 180.35 169.735 180.37C169.652 180.369 169.57 180.348 169.497 180.309C169.423 180.27 169.359 180.214 169.311 180.146C169.281 180.11 169.262 180.066 169.254 180.019C169.247 179.972 169.252 179.925 169.269 179.881C169.447 179.415 171.064 179.116 171.385 179.06C171.403 179.056 171.422 179.058 171.439 179.066C171.456 179.073 171.47 179.086 171.478 179.102C171.489 179.118 171.494 179.137 171.494 179.156C171.494 179.175 171.489 179.194 171.478 179.21C171.199 179.518 170.89 179.797 170.556 180.044ZM169.554 179.815C169.5 179.845 169.458 179.89 169.433 179.946C169.433 179.946 169.433 179.992 169.433 180.034C169.465 180.082 169.508 180.121 169.558 180.148C169.608 180.176 169.664 180.191 169.721 180.193C170.048 180.193 170.56 179.871 171.12 179.289C170.565 179.378 170.028 179.555 169.53 179.815H169.554Z" fill="#407BFF"/>
<path d="M171.427 179.224H171.395C170.873 179.34 169.596 179.251 169.409 178.869C169.367 178.785 169.353 178.655 169.526 178.501C170.188 177.9 171.39 179.018 171.436 179.065C171.448 179.077 171.456 179.092 171.46 179.109C171.464 179.125 171.464 179.142 171.46 179.158C171.456 179.183 171.444 179.206 171.427 179.224ZM169.689 178.608L169.642 178.646C169.572 178.711 169.545 178.762 169.563 178.804C169.675 179.023 170.598 179.154 171.175 179.088C170.863 178.837 170.122 178.301 169.689 178.608Z" fill="#407BFF"/>
<path d="M160.36 86.0935C159.6 87.0535 158.734 88.0926 157.862 89.0433C156.991 89.9939 156.091 90.9585 155.15 91.8393C154.209 92.72 153.244 93.5775 152.242 94.3604C151.744 94.7518 151.231 95.1106 150.709 95.4554C150.448 95.6279 150.182 95.791 149.917 95.9494C149.786 96.0286 149.651 96.0985 149.516 96.1731H149.493C149.447 96.137 149.403 96.0981 149.362 96.0566C148.999 95.6699 148.686 95.2394 148.43 94.7751C147.84 93.6777 147.334 92.5374 146.916 91.364C146.45 90.171 146.044 88.9361 145.667 87.6919C145.289 86.4477 144.907 85.1848 144.558 83.9359L142.67 84.3134C142.969 87.0041 143.466 89.669 144.157 92.2866C144.515 93.6427 144.982 94.9674 145.555 96.2476C145.88 96.9733 146.297 97.6545 146.795 98.2748C147.133 98.6931 147.551 99.04 148.025 99.2953C148.351 99.4682 148.707 99.5803 149.073 99.6262C149.482 99.6751 149.896 99.6386 150.29 99.519C150.466 99.4685 150.637 99.4031 150.802 99.3233L151.054 99.1974C151.222 99.1136 151.394 99.0343 151.552 98.9458C151.883 98.7734 152.205 98.5963 152.522 98.4052C153.143 98.0324 153.757 97.6379 154.362 97.2216C155.535 96.3996 156.651 95.4998 157.704 94.5281C158.752 93.5728 159.759 92.5802 160.705 91.5457C161.651 90.5112 162.569 89.4627 163.431 88.2837L160.36 86.0935Z" fill="#FF8B7B"/>
<path d="M165.728 89.7516C164.992 90.7256 163.049 92.2913 161.534 93.433C160.444 94.2532 159.596 94.8543 159.596 94.8543L159.13 94.2765L155.271 89.472C157.112 86.923 159.321 84.2528 163.035 84.4346C165.369 84.5557 167.047 88.0134 165.728 89.7516Z" fill="#263238"/>
<path opacity="0.3" d="M161.548 93.433C160.458 94.2531 159.61 94.8543 159.61 94.8543L159.144 94.2764C159.801 93.2326 160.924 91.6342 161.916 91.1589C161.958 91.9345 161.833 92.7101 161.548 93.433Z" fill="black"/>
<path d="M144.572 84.8446L145.42 81.5267L142.186 80.9955C142.186 80.9955 142.223 83.6936 142.89 85.0776L144.572 84.8446Z" fill="#FF8B7B"/>
<path d="M144.549 78.8379L142.34 78.7214L142.191 80.9955L145.42 81.5267L144.549 78.8379Z" fill="#FF8B7B"/>
<path d="M170.248 189.196L166.483 189.08L165.775 180.403L169.54 180.524L170.248 189.196Z" fill="#FF8B7B"/>
<path d="M166.124 187.607L170.36 187.528C170.432 187.525 170.503 187.549 170.558 187.596C170.614 187.642 170.649 187.708 170.659 187.779L171.125 191.088C171.132 191.173 171.122 191.258 171.096 191.338C171.069 191.419 171.025 191.493 170.969 191.556C170.912 191.619 170.842 191.67 170.765 191.705C170.687 191.74 170.604 191.758 170.519 191.759C169.042 191.759 168.329 191.689 166.465 191.722C165.318 191.745 162.783 191.955 161.199 191.987C159.614 192.02 159.544 190.468 160.206 190.314C163.165 189.634 164.503 188.693 165.505 187.849C165.678 187.7 165.896 187.615 166.124 187.607Z" fill="#263238"/>
<path opacity="0.2" d="M169.54 180.524L165.775 180.407L166.143 184.876L169.908 184.997L169.54 180.524Z" fill="black"/>
<path d="M174.787 109.328L159.73 106.966C160.196 84.7887 161.977 84.4858 161.977 84.4858C161.977 84.4858 164.661 84.3366 167.326 84.4252C167.727 84.4252 168.132 84.4578 168.529 84.4858C170.83 84.6793 173.114 85.0359 175.365 85.5529C175.7 85.6228 176.031 85.6974 176.362 85.7766C178.142 86.2117 179.894 86.7532 181.609 87.3983C180.5 89.9426 179.591 92.1142 178.846 94.0248C177.867 96.5132 177.164 98.5403 176.628 100.33C175.777 103.276 175.161 106.285 174.787 109.328Z" fill="#263238"/>
<path d="M168.529 84.4858C168.529 84.4858 164.759 85.1242 167.681 92.0769C175.085 90.0172 175.369 85.5529 175.369 85.5529L168.529 84.4858Z" fill="white"/>
<path opacity="0.3" d="M176.614 100.33C176.311 97.9485 177.289 93.2792 178.408 91.8998L178.832 94.0248C177.867 96.5132 177.164 98.5403 176.614 100.33Z" fill="black"/>
<path d="M175.174 80.7298C174.736 82.5519 174.578 84.4904 175.37 85.5576C175.37 85.5576 174.182 88.8196 168.226 90.4832C165.528 85.4783 168.529 84.4858 168.529 84.4858C171.092 84.2854 171.441 82.6777 171.278 79.8724L173.371 79.4343C173.572 79.3069 173.808 79.2426 174.046 79.2497C174.285 79.2568 174.515 79.3349 174.709 79.4741C174.903 79.6133 175.051 79.8072 175.134 80.0309C175.216 80.2546 175.231 80.498 175.174 80.7298Z" fill="#FF8B7B"/>
<path opacity="0.2" d="M173.352 79.4343C173.542 79.3147 173.761 79.2507 173.985 79.2494C174.209 79.2482 174.429 79.3098 174.619 79.4272C174.81 79.5447 174.964 79.7133 175.064 79.9139C175.164 80.1145 175.205 80.339 175.184 80.562C174.071 81.7281 172.626 82.5223 171.045 82.8361C171.302 81.8704 171.376 80.8653 171.264 79.8723L173.352 79.4343Z" fill="black"/>
<path d="M178.869 74.779C177.532 78.2926 177.038 79.8025 174.675 81.1212C171.115 83.1064 167.145 80.8137 167.415 77.0018C167.662 73.572 169.81 68.4088 173.72 67.9847C174.576 67.8826 175.443 68.0061 176.237 68.3432C177.03 68.6802 177.721 69.219 178.242 69.9059C178.763 70.5928 179.094 71.404 179.204 72.2589C179.314 73.1138 179.199 73.9826 178.869 74.779Z" fill="#FF8B7B"/>
<path d="M178.501 78.6794C177.97 79.1776 177.268 79.4528 176.539 79.4483C175.579 79.4483 175.398 78.5163 175.91 77.7661C176.376 77.0904 177.434 76.2842 178.278 76.6617C179.121 77.0391 179.144 78.0597 178.501 78.6794Z" fill="#FF8B7B"/>
<path d="M171.586 68.1338C170.77 68.6791 170.966 70.4219 172.83 70.366C174.55 70.3147 175.421 71.3725 175.37 72.5981C175.318 73.8237 175.747 74.0567 176.33 74.9281C176.912 75.7995 175.696 77.3234 177.043 77.8686C178.73 78.5489 180.053 75.492 179.913 73.1433C179.773 70.7947 179.554 69.4153 177.7 68.4228C175.971 67.4908 174.014 66.5028 171.586 68.1338Z" fill="#263238"/>
<path d="M171.353 69.4806C171.291 69.5028 171.226 69.5127 171.161 69.5097C171.096 69.5067 171.033 69.4909 170.974 69.4632C170.915 69.4355 170.862 69.3964 170.818 69.3482C170.774 69.3 170.741 69.2436 170.719 69.1823L170.472 68.4833C170.446 68.4225 170.434 68.3569 170.436 68.2909C170.437 68.2249 170.453 68.16 170.482 68.1005C170.51 68.0411 170.551 67.9883 170.602 67.9459C170.652 67.9034 170.711 67.8722 170.775 67.8542C170.836 67.8321 170.9 67.8223 170.965 67.8253C171.03 67.8283 171.093 67.8442 171.152 67.8719C171.21 67.8997 171.263 67.9388 171.306 67.9869C171.349 68.0351 171.382 68.0914 171.404 68.1525L171.651 68.8468C171.673 68.908 171.683 68.973 171.68 69.038C171.677 69.103 171.661 69.1668 171.633 69.2257C171.606 69.2846 171.567 69.3374 171.518 69.3812C171.47 69.4249 171.414 69.4587 171.353 69.4806Z" fill="#407BFF"/>
<path opacity="0.5" d="M174.47 74.4668C174.47 74.8124 174.368 75.1503 174.176 75.4377C173.984 75.725 173.711 75.949 173.391 76.0813C173.072 76.2135 172.721 76.2482 172.382 76.1807C172.043 76.1133 171.731 75.9469 171.487 75.7025C171.243 75.4581 171.076 75.1467 171.009 74.8077C170.941 74.4687 170.976 74.1174 171.108 73.7981C171.24 73.4788 171.464 73.2058 171.752 73.0138C172.039 72.8218 172.377 72.7193 172.723 72.7193C172.952 72.7187 173.18 72.7635 173.392 72.8511C173.604 72.9387 173.797 73.0674 173.96 73.2298C174.122 73.3922 174.251 73.585 174.338 73.7973C174.426 74.0096 174.471 74.2371 174.47 74.4668Z" fill="white"/>
<path opacity="0.5" d="M170.295 73.162C170.296 73.5078 170.194 73.8461 170.003 74.1341C169.811 74.4221 169.538 74.6468 169.219 74.7798C168.9 74.9128 168.549 74.948 168.209 74.8811C167.87 74.8142 167.558 74.6482 167.313 74.404C167.068 74.1598 166.902 73.8484 166.834 73.5093C166.766 73.1702 166.8 72.8186 166.932 72.499C167.065 72.1794 167.288 71.9062 167.576 71.714C167.863 71.5217 168.201 71.4191 168.547 71.4191C168.777 71.4185 169.004 71.4631 169.216 71.5505C169.428 71.6378 169.62 71.7661 169.783 71.928C169.945 72.0899 170.074 72.2822 170.162 72.4939C170.25 72.7057 170.295 72.9327 170.295 73.162Z" fill="white"/>
<path d="M178.25 76.6943C178.234 76.6987 178.218 76.6987 178.203 76.6943L174.387 74.9235C174.359 74.9103 174.338 74.8868 174.327 74.858C174.317 74.8293 174.318 74.7975 174.331 74.7697C174.337 74.7555 174.345 74.7428 174.357 74.7322C174.368 74.7217 174.381 74.7135 174.395 74.7083C174.41 74.703 174.425 74.7008 174.44 74.7017C174.456 74.7027 174.471 74.7068 174.484 74.7138L178.301 76.4846C178.324 76.4967 178.341 76.5159 178.352 76.5393C178.362 76.5626 178.365 76.5888 178.359 76.6137C178.353 76.6386 178.339 76.6609 178.32 76.6772C178.3 76.6934 178.275 76.7027 178.25 76.7036V76.6943Z" fill="#263238"/>
<path d="M171.246 73.6513C171.229 73.6512 171.212 73.6473 171.197 73.6401C171.182 73.6329 171.168 73.6224 171.157 73.6094C170.742 73.0828 170.36 73.2552 170.346 73.2599C170.333 73.267 170.318 73.2713 170.303 73.2726C170.288 73.2738 170.273 73.272 170.258 73.2672C170.244 73.2624 170.231 73.2548 170.219 73.2447C170.208 73.2346 170.199 73.2223 170.193 73.2086C170.179 73.1813 170.177 73.15 170.187 73.1213C170.197 73.0926 170.217 73.0688 170.244 73.0548C170.267 73.0548 170.803 72.7799 171.339 73.4649C171.35 73.4754 171.359 73.488 171.365 73.502C171.371 73.5161 171.374 73.5312 171.374 73.5465C171.374 73.5617 171.371 73.5769 171.365 73.5909C171.359 73.6049 171.35 73.6176 171.339 73.628C171.326 73.6386 171.311 73.6461 171.295 73.6502C171.279 73.6542 171.262 73.6546 171.246 73.6513Z" fill="#263238"/>
<path opacity="0.3" d="M166.674 116.808L164.549 118.443C161.94 123.131 161.753 130.284 162.578 137.106C166.134 129.362 169.685 122.264 171.292 116.64L171.4 116.132L166.674 116.808Z" fill="black"/>
<path d="M163.007 107.529C163.007 107.529 163.874 133.159 163.473 147.755C164.913 159.871 165.281 182.788 165.281 182.788L170.454 182.518C170.454 182.518 173.026 155.905 171.749 147.205C174.582 131.035 178.385 116.77 174.801 109.333L163.007 107.529Z" fill="#407BFF"/>
<path d="M164.624 183.874L171.143 183.781L171.534 181.213L164.218 181.53L164.624 183.874Z" fill="#263238"/>
<path d="M175.179 108.489L175.608 109.934C175.64 110.046 175.496 110.134 175.323 110.106L159.53 107.646C159.395 107.646 159.293 107.543 159.302 107.455L159.414 106.094C159.414 106.001 159.554 105.94 159.703 105.964L174.95 108.354C174.997 108.356 175.042 108.369 175.082 108.393C175.122 108.417 175.155 108.45 175.179 108.489Z" fill="white"/>
<path d="M172.811 109.859L173.221 109.925C173.305 109.925 173.375 109.925 173.375 109.855L173.51 108.084C173.51 108.033 173.45 107.977 173.366 107.968L172.96 107.902C172.876 107.902 172.806 107.902 172.806 107.972L172.671 109.743C172.667 109.794 172.732 109.85 172.811 109.859Z" fill="#407BFF"/>
<path d="M160.649 107.954L161.059 108.019C161.138 108.019 161.208 108.019 161.213 107.949L161.343 106.178C161.343 106.122 161.287 106.071 161.203 106.057L160.798 105.996C160.714 105.996 160.644 105.996 160.64 106.066L160.509 107.837C160.504 107.888 160.57 107.94 160.649 107.954Z" fill="#407BFF"/>
<path d="M166.73 108.909L167.14 108.974C167.224 108.974 167.289 108.974 167.294 108.9L167.429 107.129C167.429 107.078 167.369 107.026 167.285 107.012L166.879 106.947C166.795 106.947 166.726 106.947 166.721 107.022L166.59 108.792C166.586 108.844 166.651 108.895 166.73 108.909Z" fill="#407BFF"/>
<path d="M173.352 74.2943C173.263 74.5833 173.035 74.7604 172.844 74.7231C172.653 74.6858 172.578 74.3875 172.672 74.0986C172.765 73.8097 172.989 73.6326 173.175 73.6699C173.361 73.7072 173.427 74.0008 173.352 74.2943Z" fill="#263238"/>
<path d="M170.09 73.353C169.997 73.6466 169.768 73.819 169.582 73.7818C169.395 73.7445 169.312 73.4509 169.405 73.1573C169.498 72.8637 169.722 72.6913 169.913 72.7286C170.104 72.7659 170.164 73.0641 170.09 73.353Z" fill="#263238"/>
<path d="M169.973 72.7705L169.344 72.3698C169.344 72.3698 169.531 73.0175 169.973 72.7705Z" fill="#263238"/>
<path d="M170.421 74.1266C169.885 74.6512 169.281 75.1025 168.627 75.4687C168.721 75.6306 168.85 75.7695 169.005 75.8751C169.16 75.9807 169.336 76.0504 169.521 76.0791L170.421 74.1266Z" fill="#FF5652"/>
<path d="M170.607 77.5144C170.594 77.5033 170.584 77.4885 170.579 77.472C170.574 77.4554 170.574 77.4378 170.579 77.4212C170.587 77.3988 170.602 77.3801 170.623 77.3689C170.644 77.3576 170.668 77.3547 170.691 77.3606C171.053 77.4702 171.436 77.494 171.809 77.4301C172.182 77.3662 172.534 77.2164 172.839 76.9925C172.856 76.978 172.878 76.9701 172.9 76.9701C172.922 76.9701 172.944 76.978 172.961 76.9925C172.969 77.0007 172.975 77.0105 172.98 77.0213C172.984 77.0321 172.987 77.0437 172.987 77.0554C172.987 77.0671 172.984 77.0787 172.98 77.0895C172.975 77.1003 172.969 77.1101 172.961 77.1183C172.632 77.3662 172.25 77.5319 171.844 77.6016C171.439 77.6714 171.023 77.643 170.631 77.5191C170.623 77.5188 170.615 77.5173 170.607 77.5144Z" fill="#263238"/>
<path d="M174.773 73.2319C174.749 73.2121 174.729 73.1865 174.717 73.1573C174.649 72.9489 174.532 72.76 174.376 72.6067C174.219 72.4533 174.028 72.3401 173.818 72.2766C173.795 72.2711 173.774 72.2612 173.755 72.2475C173.736 72.2337 173.72 72.2164 173.708 72.1965C173.696 72.1766 173.688 72.1545 173.685 72.1314C173.681 72.1084 173.682 72.0848 173.688 72.0622C173.7 72.0168 173.728 71.9777 173.768 71.9526C173.808 71.9276 173.856 71.9184 173.902 71.9271C174.171 72.0012 174.417 72.141 174.619 72.3337C174.821 72.5264 174.971 72.7662 175.058 73.0315C175.073 73.076 175.07 73.1247 175.05 73.1673C175.03 73.2099 174.994 73.243 174.95 73.2598C174.921 73.2713 174.889 73.2748 174.858 73.2699C174.827 73.265 174.798 73.2519 174.773 73.2319Z" fill="#263238"/>
<path d="M168.487 70.7201C168.487 70.7201 168.487 70.7201 168.487 70.6921C168.48 70.6454 168.491 70.5977 168.518 70.5588C168.545 70.5199 168.585 70.4926 168.631 70.4824C168.905 70.416 169.19 70.4182 169.463 70.489C169.735 70.5597 169.986 70.6967 170.192 70.8879C170.217 70.9236 170.228 70.967 170.224 71.0102C170.219 71.0534 170.2 71.0935 170.168 71.1234C170.136 71.1533 170.095 71.1708 170.052 71.1729C170.008 71.175 169.966 71.1615 169.931 71.1348C169.764 70.9896 169.564 70.8864 169.348 70.8337C169.133 70.7811 168.908 70.7804 168.692 70.8319C168.65 70.8424 168.606 70.8368 168.568 70.816C168.53 70.7953 168.501 70.7611 168.487 70.7201Z" fill="#263238"/>
<path d="M164.157 188.138L164.111 188.101C164.049 188.042 164.002 187.969 163.977 187.887C163.952 187.805 163.948 187.718 163.966 187.635C163.973 187.581 163.993 187.529 164.024 187.485C164.056 187.441 164.099 187.406 164.148 187.383C164.586 187.178 165.728 187.886 165.854 187.97C165.869 187.979 165.881 187.992 165.889 188.008C165.897 188.024 165.899 188.042 165.896 188.059C165.891 188.076 165.883 188.091 165.87 188.103C165.858 188.116 165.843 188.124 165.826 188.129C165.36 188.264 164.535 188.399 164.157 188.138ZM165.556 188.008C165.09 187.737 164.432 187.434 164.199 187.542C164.178 187.552 164.16 187.568 164.147 187.588C164.134 187.607 164.126 187.63 164.125 187.653C164.112 187.709 164.113 187.767 164.128 187.821C164.144 187.876 164.173 187.926 164.213 187.966C164.423 188.138 164.917 188.147 165.574 188.008H165.556Z" fill="#407BFF"/>
<path d="M165.677 188.068C165.309 187.812 164.745 187.104 164.815 186.712C164.829 186.642 164.867 186.578 164.922 186.533C164.977 186.487 165.046 186.461 165.118 186.461C165.184 186.451 165.252 186.456 165.317 186.476C165.381 186.495 165.44 186.528 165.491 186.572C165.901 186.922 165.896 187.998 165.896 188.04C165.896 188.056 165.892 188.072 165.884 188.086C165.876 188.1 165.864 188.112 165.85 188.119C165.837 188.128 165.821 188.133 165.805 188.133C165.79 188.133 165.774 188.128 165.761 188.119L165.677 188.068ZM165.346 186.67C165.316 186.648 165.283 186.632 165.247 186.624C165.211 186.615 165.173 186.613 165.137 186.619C165.02 186.619 164.997 186.689 164.987 186.731C164.936 186.987 165.356 187.584 165.714 187.859C165.727 187.444 165.608 187.036 165.374 186.694L165.346 186.67Z" fill="#407BFF"/>
<path d="M173.235 73.7072L172.606 73.3065C172.606 73.3065 172.793 73.9542 173.235 73.7072Z" fill="#263238"/>
<path d="M181.74 89.8914C181.987 90.5717 182.178 91.1729 182.364 91.8206C182.551 92.4683 182.714 93.0928 182.868 93.7359C183.166 95.022 183.403 96.3222 183.581 97.6456C183.759 98.9727 183.856 100.31 183.869 101.649C183.869 101.984 183.869 102.324 183.869 102.664C183.869 103.005 183.869 103.34 183.828 103.685C183.786 104.03 183.786 104.347 183.744 104.724L183.664 105.321L183.534 105.898C183.141 107.323 182.511 108.672 181.67 109.887C180.89 111.027 180.014 112.098 179.051 113.089C178.112 114.056 177.124 114.975 176.092 115.843C175.059 116.7 173.983 117.502 172.867 118.247L171.735 116.756C172.667 115.917 173.599 115.023 174.438 114.105C175.276 113.187 176.148 112.241 176.917 111.281C177.676 110.337 178.363 109.337 178.972 108.289C179.256 107.792 179.511 107.278 179.736 106.751C179.934 106.259 180.09 105.751 180.202 105.232L180.267 104.869L180.295 104.514C180.295 104.253 180.295 103.932 180.295 103.643C180.295 103.354 180.295 103.051 180.295 102.753C180.295 102.455 180.295 102.156 180.258 101.858C180.188 100.665 180.016 99.4677 179.834 98.2747C179.652 97.0817 179.368 95.8888 179.093 94.7145C178.953 94.1226 178.799 93.5355 178.627 92.953C178.455 92.3705 178.277 91.7693 178.105 91.2567L181.74 89.8914Z" fill="#FF8B7B"/>
<path d="M181.61 87.3983C183.324 88.1578 184.406 93.9223 184.406 93.9223L178.417 97.0584C178.417 97.0584 176.199 92.0769 177.019 89.7842C177.77 87.8503 179.41 86.4243 181.61 87.3983Z" fill="#263238"/>
<path d="M166.958 118.536L168.855 120.759L171.348 119.659L169.437 116.3L166.958 118.536Z" fill="#FF8B7B"/>
<path d="M172.806 116.034L169.437 116.29L171.348 119.65C171.348 119.65 173.212 118.653 173.785 117.19L172.806 116.034Z" fill="#FF8B7B"/>
<path d="M137.507 68.1106H97.394C95.9109 68.1106 94.4886 68.6998 93.4399 69.7485C92.3912 70.7972 91.802 72.2195 91.802 73.7026V161.269C91.802 162.752 92.3912 164.174 93.4399 165.223C94.4886 166.272 95.9109 166.861 97.394 166.861H137.521C139.004 166.861 140.427 166.272 141.475 165.223C142.524 164.174 143.113 162.752 143.113 161.269V73.7026C143.113 72.9671 142.968 72.2388 142.686 71.5594C142.404 70.88 141.991 70.263 141.47 69.7435C140.95 69.2241 140.332 68.8125 139.652 68.5323C138.971 68.2521 138.243 68.1088 137.507 68.1106Z" fill="#407BFF"/>
<path d="M136.813 68.1106H96.686C95.2029 68.1106 93.7806 68.6997 92.7319 69.7485C91.6832 70.7972 91.094 72.2195 91.094 73.7026V161.269C91.094 162.752 91.6832 164.174 92.7319 165.223C93.7806 166.271 95.2029 166.861 96.686 166.861H136.813C138.296 166.861 139.719 166.271 140.767 165.223C141.816 164.174 142.405 162.752 142.405 161.269V73.7026C142.405 72.2195 141.816 70.7972 140.767 69.7485C139.719 68.6997 138.296 68.1106 136.813 68.1106Z" fill="#407BFF"/>
<path opacity="0.6" d="M136.813 68.1106H96.686C95.2029 68.1106 93.7806 68.6997 92.7319 69.7485C91.6832 70.7972 91.094 72.2195 91.094 73.7026V161.269C91.094 162.752 91.6832 164.174 92.7319 165.223C93.7806 166.271 95.2029 166.861 96.686 166.861H136.813C138.296 166.861 139.719 166.271 140.767 165.223C141.816 164.174 142.405 162.752 142.405 161.269V73.7026C142.405 72.2195 141.816 70.7972 140.767 69.7485C139.719 68.6997 138.296 68.1106 136.813 68.1106Z" fill="white"/>
<path opacity="0.4" d="M92.026 161.269V73.7026C92.026 72.2195 92.6152 70.7972 93.6639 69.7485C94.7126 68.6997 96.1349 68.1106 97.618 68.1106H96.686C95.2029 68.1106 93.7806 68.6997 92.7319 69.7485C91.6832 70.7972 91.094 72.2195 91.094 73.7026V161.269C91.094 162.752 91.6832 164.174 92.7319 165.223C93.7806 166.271 95.2029 166.861 96.686 166.861H97.618C96.1349 166.861 94.7126 166.271 93.6639 165.223C92.6152 164.174 92.026 162.752 92.026 161.269Z" fill="black"/>
<path opacity="0.4" d="M131.473 151.655H125.541C125.199 151.654 124.872 151.517 124.631 151.275C124.39 151.033 124.255 150.706 124.255 150.364V144.772C124.255 144.462 124.131 144.165 123.912 143.945C123.693 143.726 123.395 143.603 123.085 143.603H110.265C109.924 143.601 109.597 143.465 109.356 143.223C109.114 142.981 108.979 142.653 108.979 142.312V76.8574C108.979 76.5159 109.114 76.1882 109.356 75.9463C109.597 75.7044 109.924 75.5678 110.265 75.5666H135.769C136.111 75.5678 136.438 75.7044 136.679 75.9463C136.92 76.1882 137.056 76.5159 137.056 76.8574V142.326C137.056 142.667 136.92 142.995 136.679 143.237C136.438 143.479 136.111 143.615 135.769 143.617H133.905C133.595 143.617 133.298 143.74 133.078 143.959C132.859 144.179 132.736 144.476 132.736 144.786V150.378C132.732 150.713 132.598 151.034 132.363 151.272C132.127 151.511 131.808 151.648 131.473 151.655ZM110.265 75.6971C109.955 75.6983 109.657 75.8226 109.438 76.0427C109.219 76.2628 109.096 76.5607 109.096 76.8714V142.326C109.096 142.636 109.219 142.934 109.438 143.154C109.657 143.375 109.955 143.499 110.265 143.5H123.085C123.426 143.501 123.752 143.637 123.993 143.878C124.234 144.119 124.37 144.446 124.371 144.786V150.378C124.37 150.532 124.4 150.685 124.459 150.827C124.517 150.97 124.603 151.099 124.712 151.208C124.821 151.317 124.95 151.404 125.092 151.463C125.234 151.522 125.387 151.553 125.541 151.553H131.473C131.784 151.551 132.081 151.427 132.3 151.207C132.519 150.987 132.643 150.689 132.643 150.378V144.786C132.644 144.446 132.78 144.119 133.021 143.878C133.262 143.637 133.588 143.501 133.929 143.5H135.793C136.103 143.499 136.401 143.375 136.62 143.154C136.839 142.934 136.962 142.636 136.962 142.326V76.8574C136.962 76.5468 136.839 76.2488 136.62 76.0287C136.401 75.8086 136.103 75.6843 135.793 75.6831L110.265 75.6971Z" fill="white"/>
<path opacity="0.4" d="M104.85 139.031H104.049C103.708 139.031 103.381 138.896 103.139 138.654C102.898 138.413 102.763 138.086 102.763 137.745V76.8574C102.763 76.5159 102.898 76.1882 103.139 75.9463C103.38 75.7044 103.707 75.5678 104.049 75.5666H104.85C105.193 75.5666 105.521 75.7026 105.763 75.9447C106.005 76.1867 106.141 76.5151 106.141 76.8574V137.745C106.141 137.914 106.108 138.082 106.043 138.238C105.978 138.395 105.883 138.537 105.763 138.656C105.643 138.776 105.5 138.87 105.344 138.935C105.187 138.999 105.02 139.032 104.85 139.031ZM104.049 75.6831C103.895 75.6831 103.742 75.7135 103.6 75.7726C103.458 75.8316 103.329 75.9182 103.22 76.0273C103.111 76.1364 103.025 76.2659 102.967 76.4084C102.908 76.5508 102.878 76.7034 102.879 76.8574V137.745C102.879 138.055 103.002 138.353 103.222 138.572C103.441 138.791 103.739 138.915 104.049 138.915H104.85C105.004 138.915 105.157 138.885 105.299 138.827C105.442 138.768 105.571 138.682 105.68 138.574C105.789 138.465 105.876 138.336 105.935 138.194C105.994 138.051 106.025 137.899 106.025 137.745V76.8574C106.025 76.546 105.901 76.2473 105.681 76.027C105.46 75.8068 105.162 75.6831 104.85 75.6831H104.049Z" fill="white"/>
<path opacity="0.4" d="M97.4642 164.703C97.0762 164.703 96.6969 164.588 96.3743 164.372C96.0516 164.157 95.8002 163.85 95.6517 163.492C95.5032 163.133 95.4643 162.739 95.54 162.358C95.6157 161.978 95.8026 161.628 96.077 161.354C96.3513 161.08 96.7009 160.893 97.0815 160.817C97.462 160.741 97.8565 160.78 98.215 160.929C98.5735 161.077 98.8799 161.329 99.0954 161.651C99.311 161.974 99.4261 162.353 99.4261 162.741C99.4248 163.261 99.2177 163.759 98.8501 164.127C98.4824 164.495 97.9841 164.702 97.4642 164.703ZM97.4642 160.896C97.0955 160.896 96.7352 161.005 96.4286 161.21C96.1221 161.415 95.8832 161.706 95.7421 162.046C95.601 162.387 95.5641 162.762 95.636 163.123C95.7079 163.485 95.8855 163.817 96.1462 164.078C96.4069 164.339 96.739 164.516 97.1006 164.588C97.4621 164.66 97.8369 164.623 98.1775 164.482C98.5181 164.341 98.8092 164.102 99.0141 163.795C99.2189 163.489 99.3282 163.128 99.3282 162.76C99.3282 162.265 99.1318 161.791 98.7823 161.442C98.4327 161.092 97.9586 160.896 97.4642 160.896Z" fill="white"/>
<path opacity="0.4" d="M136.725 164.703C136.337 164.703 135.957 164.588 135.635 164.372C135.312 164.157 135.061 163.85 134.912 163.492C134.764 163.133 134.725 162.739 134.801 162.358C134.876 161.978 135.063 161.628 135.337 161.354C135.612 161.08 135.961 160.893 136.342 160.817C136.723 160.741 137.117 160.78 137.475 160.929C137.834 161.077 138.14 161.329 138.356 161.651C138.572 161.974 138.687 162.353 138.687 162.741C138.685 163.261 138.478 163.759 138.111 164.127C137.743 164.495 137.245 164.702 136.725 164.703ZM136.725 160.896C136.356 160.896 135.996 161.005 135.689 161.21C135.383 161.415 135.144 161.706 135.003 162.046C134.862 162.387 134.825 162.762 134.897 163.123C134.968 163.485 135.146 163.817 135.407 164.078C135.667 164.339 135.999 164.516 136.361 164.588C136.723 164.66 137.097 164.623 137.438 164.482C137.779 164.341 138.07 164.102 138.275 163.795C138.479 163.489 138.589 163.128 138.589 162.76C138.589 162.265 138.392 161.791 138.043 161.442C137.693 161.092 137.219 160.896 136.725 160.896Z" fill="white"/>
<path d="M139.404 84.6862H136.063V88.568H139.404V84.6862Z" fill="#407BFF"/>
<path d="M103.681 92.762H100.34V96.6438H103.681V92.762Z" fill="#407BFF"/>
<path d="M139.404 124.841H136.063V128.723H139.404V124.841Z" fill="#407BFF"/>
<path d="M129.72 81.4242H99.7426V148.132H129.72V81.4242Z" fill="#407BFF"/>
<path opacity="0.2" d="M124.543 81.4242H102.641V135.14H124.543V81.4242Z" fill="white"/>
<path d="M129.725 148.132H131.277V81.4242H129.725V148.132Z" fill="#407BFF"/>
<path opacity="0.2" d="M129.725 148.132H131.277V81.4242H129.725V148.132Z" fill="black"/>
<path d="M133.528 141.301H131.16C130.967 141.301 130.811 141.457 130.811 141.65V144.796C130.811 144.989 130.967 145.145 131.16 145.145H133.528C133.721 145.145 133.877 144.989 133.877 144.796V141.65C133.877 141.457 133.721 141.301 133.528 141.301Z" fill="#263238"/>
<path opacity="0.1" d="M133.528 141.301H131.16C130.967 141.301 130.811 141.457 130.811 141.65V144.796C130.811 144.989 130.967 145.145 131.16 145.145H133.528C133.721 145.145 133.877 144.989 133.877 144.796V141.65C133.877 141.457 133.721 141.301 133.528 141.301Z" fill="white"/>
<path d="M135.145 134.814H131.785V143.22H135.145V134.814Z" fill="#263238"/>
<path opacity="0.2" d="M135.145 134.814H131.785V143.22H135.145V134.814Z" fill="white"/>
<path opacity="0.5" d="M135.145 135.476H133.617V142.563H135.145V135.476Z" fill="white"/>
<path d="M108.205 58.2034H68.0781C66.595 58.2034 65.1726 58.7926 64.1239 59.8413C63.0752 60.89 62.4861 62.3123 62.4861 63.7954V151.361C62.4861 152.845 63.0752 154.267 64.1239 155.316C65.1726 156.364 66.595 156.953 68.0781 156.953H108.205C109.688 156.953 111.111 156.364 112.159 155.316C113.208 154.267 113.797 152.845 113.797 151.361V63.7954C113.797 62.3123 113.208 60.89 112.159 59.8413C111.111 58.7926 109.688 58.2034 108.205 58.2034Z" fill="#407BFF"/>
<path opacity="0.3" d="M108.205 58.2034H68.0781C66.595 58.2034 65.1726 58.7926 64.1239 59.8413C63.0752 60.89 62.4861 62.3123 62.4861 63.7954V151.361C62.4861 152.845 63.0752 154.267 64.1239 155.316C65.1726 156.364 66.595 156.953 68.0781 156.953H108.205C109.688 156.953 111.111 156.364 112.159 155.316C113.208 154.267 113.797 152.845 113.797 151.361V63.7954C113.797 62.3123 113.208 60.89 112.159 59.8413C111.111 58.7926 109.688 58.2034 108.205 58.2034Z" fill="black"/>
<path d="M105.926 58.2034H65.7992C64.3161 58.2034 62.8937 58.7926 61.845 59.8413C60.7963 60.89 60.2072 62.3123 60.2072 63.7954V151.361C60.2072 152.845 60.7963 154.267 61.845 155.316C62.8937 156.364 64.3161 156.953 65.7992 156.953H105.926C107.41 156.953 108.832 156.364 109.881 155.316C110.929 154.267 111.518 152.845 111.518 151.361V63.7954C111.518 62.3123 110.929 60.89 109.881 59.8413C108.832 58.7926 107.41 58.2034 105.926 58.2034Z" fill="#407BFF"/>
<path opacity="0.8" d="M108.993 67.1693H62.7285C61.9641 67.1693 61.3445 67.7889 61.3445 68.5533V148.528C61.3445 149.293 61.9641 149.912 62.7285 149.912H108.993C109.757 149.912 110.377 149.293 110.377 148.528V68.5533C110.377 67.7889 109.757 67.1693 108.993 67.1693Z" fill="white"/>
<path opacity="0.6" d="M88.8757 152.713H87.9437C87.8298 152.243 87.5612 151.824 87.1808 151.525C86.8005 151.226 86.3306 151.063 85.8467 151.063C85.3628 151.063 84.8929 151.226 84.5126 151.525C84.1323 151.824 83.8636 152.243 83.7497 152.713H82.8177V153.682H83.7497C83.8636 154.153 84.1323 154.571 84.5126 154.87C84.8929 155.169 85.3628 155.332 85.8467 155.332C86.3306 155.332 86.8005 155.169 87.1808 154.87C87.5612 154.571 87.8298 154.153 87.9437 153.682H88.8757V152.713Z" fill="white"/>
<path opacity="0.6" d="M86.7787 153.198C86.7787 153.382 86.724 153.562 86.6216 153.715C86.5192 153.869 86.3736 153.988 86.2033 154.059C86.033 154.129 85.8456 154.148 85.6648 154.112C85.4841 154.076 85.318 153.987 85.1877 153.857C85.0573 153.726 84.9685 153.56 84.9326 153.379C84.8966 153.199 84.9151 153.011 84.9856 152.841C85.0562 152.671 85.1756 152.525 85.3289 152.423C85.4821 152.32 85.6623 152.266 85.8467 152.266C86.0939 152.266 86.3309 152.364 86.5057 152.539C86.6805 152.713 86.7787 152.95 86.7787 153.198Z" fill="white"/>
<path opacity="0.6" d="M78.6517 151.436H76.4894V153.598H78.6517V151.436Z" fill="white"/>
<path opacity="0.4" d="M96.8768 156.953H96.6438V154.908H94.7145V156.953H94.4815V154.675H96.8768V156.953Z" fill="white"/>
<path opacity="0.4" d="M68.3481 154.218H65.9529V149.908H66.1859V153.985H68.1151V149.908H68.3481V154.218Z" fill="white"/>
<path opacity="0.3" d="M75.4314 153.337H74.2291V154.54H75.4314V153.337Z" fill="white"/>
<path opacity="0.6" d="M101.826 151.073H101.332V152.275H101.826V151.073Z" fill="white"/>
<path opacity="0.6" d="M103.177 151.073H102.683V152.275H103.177V151.073Z" fill="white"/>
<path opacity="0.6" d="M104.529 151.073H104.035V152.275H104.529V151.073Z" fill="white"/>
<path opacity="0.4" d="M112.786 132.666H110.857V146.441H112.786V132.666Z" fill="white"/>
<path opacity="0.4" d="M112.786 112.022H110.857V116.91H112.786V112.022Z" fill="white"/>
<path opacity="0.4" d="M111.519 105.148V94.7378C111.739 94.7378 111.95 94.8252 112.105 94.9807C112.261 95.1363 112.348 95.3473 112.348 95.5673V104.314C112.348 104.535 112.261 104.746 112.106 104.902C111.95 105.059 111.739 105.147 111.519 105.148Z" fill="black"/>
<path opacity="0.4" d="M111.519 87.6732V83.7868C111.739 83.7868 111.95 83.8742 112.105 84.0298C112.261 84.1853 112.348 84.3963 112.348 84.6163V86.8391C112.348 87.0595 112.261 87.271 112.106 87.4273C111.95 87.5836 111.739 87.672 111.519 87.6732Z" fill="black"/>
<path opacity="0.4" d="M104.967 60.6313V64.9558C104.967 65.0794 104.918 65.1979 104.83 65.2853C104.743 65.3727 104.624 65.4218 104.501 65.4218H96.5647C96.4411 65.4218 96.3226 65.3727 96.2352 65.2853C96.1478 65.1979 96.0987 65.0794 96.0987 64.9558V64.0238C96.0987 63.9002 96.0496 63.7816 95.9622 63.6943C95.8748 63.6069 95.7563 63.5578 95.6327 63.5578H85.5671C85.5043 63.558 85.4423 63.5709 85.3846 63.5957C85.327 63.6206 85.2749 63.6568 85.2316 63.7022L84.5 64.5131C84.4358 64.5746 84.3554 64.6164 84.2683 64.6337C84.1811 64.651 84.0908 64.643 84.008 64.6107C83.9252 64.5784 83.8534 64.523 83.8011 64.4513C83.7487 64.3795 83.7179 64.2942 83.7124 64.2055V60.6033C83.7124 60.4797 83.7615 60.3612 83.8489 60.2738C83.9363 60.1864 84.0548 60.1373 84.1784 60.1373H104.501C104.564 60.1372 104.627 60.1501 104.686 60.1753C104.744 60.2004 104.797 60.2373 104.841 60.2836C104.884 60.3298 104.918 60.3846 104.94 60.4444C104.961 60.5042 104.971 60.5678 104.967 60.6313Z" fill="white"/>
<path opacity="0.4" d="M112.786 73.0828H110.857V77.9712H112.786V73.0828Z" fill="white"/>
<path opacity="0.4" d="M103.517 60.8177H102.343C102.135 60.8177 101.966 60.9867 101.966 61.1952V63.0731C101.966 63.2816 102.135 63.4506 102.343 63.4506H103.517C103.726 63.4506 103.895 63.2816 103.895 63.0731V61.1952C103.895 60.9867 103.726 60.8177 103.517 60.8177Z" fill="white"/>
<path opacity="0.4" d="M80.1149 65.4823H68.8284V63.842H67.1694V60.7151H78.4559V62.3741H80.1149V65.4823ZM69.0614 65.24H79.8819V62.5838H78.2229V60.9249H67.4024V63.5857H69.0614V65.24Z" fill="white"/>
<path opacity="0.4" d="M100.777 62.1365H99.603C99.3946 62.1365 99.2256 62.3055 99.2256 62.5139V64.3919C99.2256 64.6004 99.3946 64.7694 99.603 64.7694H100.777C100.986 64.7694 101.155 64.6004 101.155 64.3919V62.5139C101.155 62.3055 100.986 62.1365 100.777 62.1365Z" fill="white"/>
<path opacity="0.4" d="M72.1787 64.4105H69.6436V61.717H72.1787V64.4105ZM69.8766 64.1775H71.9457V61.95H69.8999L69.8766 64.1775Z" fill="white"/>
<path opacity="0.4" d="M95.4741 153.193C94.8243 153.193 94.1891 153 93.6488 152.639C93.1086 152.278 92.6875 151.765 92.4388 151.165C92.1902 150.564 92.1251 149.904 92.2519 149.267C92.3786 148.629 92.6915 148.044 93.151 147.585C93.6104 147.125 94.1958 146.812 94.8331 146.685C95.4704 146.559 96.131 146.624 96.7313 146.872C97.3316 147.121 97.8447 147.542 98.2057 148.082C98.5667 148.623 98.7593 149.258 98.7593 149.908C98.7593 150.779 98.4132 151.615 97.7971 152.231C97.181 152.847 96.3454 153.193 95.4741 153.193ZM95.4741 146.739C94.8473 146.739 94.2347 146.925 93.7136 147.273C93.1925 147.621 92.7863 148.116 92.5465 148.695C92.3066 149.274 92.2439 149.911 92.3661 150.526C92.4884 151.14 92.7902 151.705 93.2334 152.148C93.6765 152.591 94.2412 152.893 94.8558 153.015C95.4705 153.138 96.1077 153.075 96.6867 152.835C97.2657 152.595 97.7606 152.189 98.1088 151.668C98.457 151.147 98.6428 150.534 98.6428 149.908C98.6416 149.068 98.3074 148.262 97.7134 147.668C97.1194 147.074 96.3141 146.74 95.4741 146.739Z" fill="white"/>
<path opacity="0.4" d="M66.0693 68.6744C65.7703 68.6754 65.4778 68.5875 65.2288 68.4219C64.9798 68.2564 64.7855 68.0206 64.6707 67.7446C64.5558 67.4685 64.5255 67.1645 64.5836 66.8712C64.6417 66.5779 64.7856 66.3084 64.9971 66.097C65.2085 65.8856 65.478 65.7417 65.7713 65.6836C66.0646 65.6255 66.3685 65.6558 66.6446 65.7706C66.9207 65.8855 67.1564 66.0797 67.322 66.3287C67.4875 66.5777 67.5754 66.8703 67.5745 67.1693C67.5745 67.5685 67.4159 67.9513 67.1337 68.2336C66.8514 68.5159 66.4685 68.6744 66.0693 68.6744ZM66.0693 65.7759C65.7928 65.7759 65.5225 65.8579 65.2926 66.0115C65.0628 66.1652 64.8836 66.3835 64.7778 66.6389C64.6719 66.8944 64.6443 67.1755 64.6982 67.4467C64.7521 67.7179 64.8853 67.967 65.0808 68.1625C65.2763 68.358 65.5254 68.4911 65.7966 68.5451C66.0678 68.599 66.3489 68.5713 66.6043 68.4655C66.8598 68.3597 67.0781 68.1805 67.2317 67.9506C67.3853 67.7207 67.4673 67.4504 67.4673 67.1739C67.4673 66.8032 67.32 66.4476 67.0579 66.1854C66.7957 65.9232 66.4401 65.7759 66.0693 65.7759Z" fill="white"/>
<path d="M76.0465 48.2963H35.9192C34.4361 48.2963 33.0138 48.8854 31.9651 49.9341C30.9164 50.9828 30.3272 52.4052 30.3272 53.8883V141.454C30.3272 142.937 30.9164 144.36 31.9651 145.408C33.0138 146.457 34.4361 147.046 35.9192 147.046H76.0465C77.5296 147.046 78.9519 146.457 80.0006 145.408C81.0493 144.36 81.6385 142.937 81.6385 141.454V53.8883C81.6385 52.4052 81.0493 50.9828 80.0006 49.9341C78.9519 48.8854 77.5296 48.2963 76.0465 48.2963ZM30.6348 138.616V58.6461C30.6348 58.2754 30.7821 57.9198 31.0443 57.6576C31.3064 57.3954 31.662 57.2481 32.0328 57.2481H78.288C78.6587 57.2481 79.0143 57.3954 79.2765 57.6576C79.5387 57.9198 79.686 58.2754 79.686 58.6461V138.616C79.686 138.987 79.5387 139.343 79.2765 139.605C79.0143 139.867 78.6587 140.014 78.288 140.014H32.0235C31.6543 140.012 31.3011 139.864 31.041 139.602C30.7808 139.34 30.6348 138.986 30.6348 138.616Z" fill="#263238"/>
<path d="M75.2172 48.2963H35.0899C33.6069 48.2963 32.1845 48.8854 31.1358 49.9341C30.0871 50.9828 29.4979 52.4052 29.4979 53.8883V141.454C29.4979 142.937 30.0871 144.36 31.1358 145.408C32.1845 146.457 33.6069 147.046 35.0899 147.046H75.2172C76.7003 147.046 78.1226 146.457 79.1713 145.408C80.22 144.36 80.8092 142.937 80.8092 141.454V53.8883C80.8092 52.4052 80.22 50.9828 79.1713 49.9341C78.1226 48.8854 76.7003 48.2963 75.2172 48.2963ZM78.2881 140.005H32.0237C31.6529 140.005 31.2973 139.858 31.0351 139.596C30.7729 139.333 30.6257 138.978 30.6257 138.607V58.6461C30.6257 58.2754 30.7729 57.9198 31.0351 57.6576C31.2973 57.3954 31.6529 57.2481 32.0237 57.2481H78.2881C78.6589 57.2481 79.0145 57.3954 79.2767 57.6576C79.5388 57.9198 79.6861 58.2754 79.6861 58.6461V138.616C79.6837 138.986 79.5353 139.339 79.2734 139.599C79.0115 139.859 78.6573 140.005 78.2881 140.005Z" fill="#407BFF"/>
<path opacity="0.3" d="M78.288 57.2621H32.0235C31.2592 57.2621 30.6395 57.8817 30.6395 58.6461V138.621C30.6395 139.385 31.2592 140.005 32.0235 140.005H78.288C79.0524 140.005 79.672 139.385 79.672 138.621V58.6461C79.672 57.8817 79.0524 57.2621 78.288 57.2621Z" fill="#407BFF"/>
<path opacity="0.6" d="M57.3182 143.29C57.3182 143.718 57.1914 144.136 56.9538 144.492C56.7162 144.847 56.3785 145.124 55.9834 145.288C55.5883 145.452 55.1535 145.495 54.7341 145.411C54.3147 145.328 53.9294 145.122 53.627 144.819C53.3246 144.517 53.1187 144.132 53.0352 143.712C52.9518 143.293 52.9946 142.858 53.1583 142.463C53.3219 142.068 53.5991 141.73 53.9547 141.493C54.3102 141.255 54.7283 141.128 55.1559 141.128C55.7294 141.128 56.2794 141.356 56.6849 141.761C57.0904 142.167 57.3182 142.717 57.3182 143.29Z" fill="white"/>
<path opacity="0.1" d="M60.3564 53.9489H49.9507C49.7171 53.9489 49.493 53.8561 49.3279 53.6909C49.1627 53.5257 49.0699 53.3017 49.0699 53.0681C49.0699 52.8345 49.1627 52.6105 49.3279 52.4453C49.493 52.2802 49.7171 52.1874 49.9507 52.1874H60.3564C60.59 52.1874 60.814 52.2802 60.9792 52.4453C61.1444 52.6105 61.2372 52.8345 61.2372 53.0681C61.2372 53.3017 61.1444 53.5257 60.9792 53.6909C60.814 53.8561 60.59 53.9489 60.3564 53.9489Z" fill="black"/>
<path d="M105.894 57.3786H105.861L84.3461 50.9292C84.3173 50.9196 84.2934 50.8991 84.2794 50.8721C84.2655 50.8451 84.2627 50.8138 84.2715 50.7847C84.2752 50.7697 84.282 50.7556 84.2914 50.7433C84.3009 50.731 84.3128 50.7208 84.3263 50.7134C84.3399 50.7059 84.3549 50.7014 84.3703 50.7C84.3858 50.6987 84.4013 50.7005 84.416 50.7055L105.908 57.1503C105.923 57.1546 105.936 57.1617 105.948 57.1713C105.96 57.1808 105.97 57.1927 105.977 57.2061C105.985 57.2195 105.989 57.2342 105.991 57.2494C105.993 57.2647 105.991 57.28 105.987 57.2947C105.981 57.3161 105.969 57.3354 105.953 57.3503C105.936 57.3651 105.916 57.375 105.894 57.3786Z" fill="#407BFF"/>
<path opacity="0.3" d="M83.1907 50.794C83.0925 50.7834 83.0016 50.7368 82.9356 50.6633C82.8696 50.5897 82.8331 50.4944 82.8331 50.3956C82.8331 50.2968 82.8696 50.2014 82.9356 50.1279C83.0016 50.0543 83.0925 50.0078 83.1907 49.9971C83.2467 49.9911 83.3033 49.9969 83.3568 50.0141C83.4104 50.0314 83.4597 50.0597 83.5016 50.0973C83.5435 50.1349 83.5769 50.1809 83.5999 50.2323C83.6228 50.2837 83.6346 50.3393 83.6346 50.3956C83.6346 50.4518 83.6228 50.5075 83.5999 50.5589C83.5769 50.6103 83.5435 50.6562 83.5016 50.6938C83.4597 50.7314 83.4104 50.7598 83.3568 50.777C83.3033 50.7943 83.2467 50.8001 83.1907 50.794ZM83.1907 50.2301C83.1576 50.2301 83.1251 50.24 83.0975 50.2584C83.0699 50.2768 83.0484 50.3031 83.0358 50.3337C83.0231 50.3644 83.0197 50.3981 83.0262 50.4306C83.0327 50.4632 83.0487 50.4931 83.0721 50.5165C83.0956 50.54 83.1255 50.556 83.158 50.5624C83.1906 50.5689 83.2243 50.5656 83.2549 50.5529C83.2856 50.5402 83.3118 50.5187 83.3302 50.4911C83.3487 50.4635 83.3585 50.4311 83.3585 50.3979C83.3598 50.3751 83.3564 50.3523 83.3485 50.3308C83.3406 50.3094 83.3285 50.2898 83.3128 50.2732C83.2971 50.2566 83.2782 50.2434 83.2572 50.2344C83.2362 50.2254 83.2136 50.2208 83.1907 50.2208V50.2301Z" fill="#407BFF"/>
<path d="M136.538 66.9176H136.506L116.579 60.9715C116.565 60.9673 116.551 60.9601 116.539 60.9504C116.528 60.9408 116.518 60.9288 116.511 60.9153C116.504 60.9018 116.5 60.887 116.499 60.8718C116.498 60.8566 116.5 60.8414 116.505 60.827C116.515 60.798 116.535 60.7738 116.562 60.7591C116.588 60.7444 116.62 60.7403 116.649 60.7478L136.538 66.6893C136.553 66.6936 136.567 66.7007 136.579 66.7103C136.591 66.7199 136.6 66.7317 136.608 66.7451C136.615 66.7585 136.62 66.7733 136.621 66.7885C136.623 66.8037 136.622 66.8191 136.618 66.8338C136.612 66.8532 136.602 66.8711 136.589 66.8857C136.575 66.9004 136.557 66.9113 136.538 66.9176Z" fill="#407BFF"/>
<path opacity="0.3" d="M115.26 60.7384C115.155 60.7372 115.054 60.6945 114.98 60.6194C114.906 60.5444 114.864 60.4432 114.864 60.3377C114.864 60.2326 114.906 60.1319 114.98 60.0576C115.055 59.9833 115.155 59.9416 115.26 59.9416C115.316 59.9355 115.373 59.9413 115.426 59.9586C115.48 59.9758 115.529 60.0042 115.571 60.0418C115.613 60.0794 115.647 60.1253 115.669 60.1767C115.692 60.2281 115.704 60.2838 115.704 60.34C115.704 60.3963 115.692 60.4519 115.669 60.5033C115.647 60.5547 115.613 60.6007 115.571 60.6383C115.529 60.6759 115.48 60.7042 115.426 60.7215C115.373 60.7387 115.316 60.7445 115.26 60.7384ZM115.26 60.1746C115.221 60.1812 115.186 60.2014 115.16 60.2317C115.134 60.262 115.12 60.3004 115.12 60.34C115.12 60.3797 115.134 60.4181 115.16 60.4483C115.186 60.4786 115.221 60.4989 115.26 60.5054C115.284 60.5095 115.309 60.5083 115.333 60.5018C115.356 60.4954 115.378 60.4839 115.397 60.4681C115.415 60.4524 115.43 60.4328 115.44 60.4106C115.451 60.3885 115.456 60.3644 115.456 60.34C115.456 60.3156 115.451 60.2915 115.44 60.2694C115.43 60.2473 115.415 60.2277 115.397 60.2119C115.378 60.1962 115.356 60.1847 115.333 60.1782C115.309 60.1718 115.284 60.1705 115.26 60.1746Z" fill="#407BFF"/>
<path d="M58.6603 155.877H58.6277L37.1311 149.428C37.1023 149.418 37.0784 149.397 37.0645 149.37C37.0506 149.343 37.0477 149.312 37.0566 149.283C37.0609 149.268 37.068 149.255 37.0776 149.243C37.0872 149.231 37.099 149.221 37.1124 149.214C37.1258 149.206 37.1406 149.202 37.1558 149.2C37.171 149.198 37.1864 149.2 37.201 149.204L58.7163 155.644C58.7432 155.652 58.7664 155.669 58.7816 155.693C58.7968 155.716 58.8029 155.745 58.799 155.772C58.795 155.8 58.7812 155.826 58.76 155.844C58.7388 155.862 58.7117 155.872 58.6836 155.872L58.6603 155.877Z" fill="#407BFF"/>
<path opacity="0.3" d="M35.9568 149.283C35.8517 149.283 35.751 149.241 35.6767 149.167C35.6024 149.093 35.5607 148.992 35.5607 148.887C35.5597 148.807 35.5826 148.729 35.6263 148.663C35.6699 148.596 35.7325 148.544 35.8059 148.513C35.8793 148.482 35.9603 148.474 36.0384 148.489C36.1166 148.504 36.1885 148.543 36.2448 148.599C36.3011 148.655 36.3394 148.727 36.3547 148.805C36.37 148.884 36.3617 148.965 36.3308 149.038C36.2999 149.111 36.2478 149.174 36.1812 149.218C36.1145 149.261 36.0364 149.284 35.9568 149.283ZM35.9568 148.719C35.9236 148.719 35.8912 148.729 35.8636 148.748C35.836 148.766 35.8145 148.792 35.8018 148.823C35.7891 148.854 35.7858 148.887 35.7922 148.92C35.7987 148.952 35.8147 148.982 35.8381 149.006C35.8616 149.029 35.8915 149.045 35.924 149.052C35.9566 149.058 35.9903 149.055 36.021 149.042C36.0516 149.029 36.0778 149.008 36.0963 148.98C36.1147 148.953 36.1245 148.92 36.1245 148.887C36.1245 148.865 36.1202 148.843 36.1118 148.823C36.1033 148.803 36.091 148.784 36.0754 148.768C36.0598 148.753 36.0413 148.741 36.021 148.732C36.0006 148.724 35.9788 148.719 35.9568 148.719Z" fill="#407BFF"/>
<path d="M89.2902 165.43H89.2576L69.3361 159.489C69.3211 159.485 69.307 159.478 69.2947 159.469C69.2824 159.459 69.2722 159.447 69.2648 159.434C69.2573 159.42 69.2528 159.405 69.2514 159.39C69.2501 159.374 69.2519 159.359 69.2569 159.344C69.2606 159.329 69.2674 159.315 69.2768 159.303C69.2862 159.29 69.2981 159.28 69.3117 159.273C69.3253 159.265 69.3403 159.261 69.3557 159.259C69.3711 159.258 69.3867 159.26 69.4013 159.265L89.3228 165.206C89.3498 165.214 89.373 165.232 89.3882 165.255C89.4033 165.279 89.4095 165.307 89.4056 165.335C89.4016 165.362 89.3878 165.388 89.3666 165.406C89.3454 165.425 89.3183 165.435 89.2902 165.435V165.43Z" fill="#407BFF"/>
<path opacity="0.3" d="M68.0361 159.237C67.9564 159.238 67.8783 159.215 67.8117 159.171C67.7451 159.128 67.693 159.065 67.6621 158.992C67.6312 158.918 67.6229 158.837 67.6382 158.759C67.6535 158.681 67.6918 158.609 67.7481 158.553C67.8044 158.496 67.8762 158.458 67.9544 158.443C68.0326 158.427 68.1135 158.436 68.187 158.467C68.2604 158.498 68.3229 158.55 68.3666 158.616C68.4103 158.683 68.4331 158.761 68.4322 158.841C68.4322 158.946 68.3905 159.047 68.3162 159.121C68.2419 159.195 68.1412 159.237 68.0361 159.237ZM68.0361 158.673C68.012 158.669 67.9874 158.67 67.9639 158.677C67.9404 158.683 67.9185 158.695 67.8999 158.71C67.8813 158.726 67.8663 158.746 67.8561 158.768C67.8458 158.79 67.8405 158.814 67.8405 158.838C67.8405 158.863 67.8458 158.887 67.8561 158.909C67.8663 158.931 67.8813 158.951 67.8999 158.966C67.9185 158.982 67.9404 158.994 67.9639 159C67.9874 159.007 68.012 159.008 68.0361 159.004C68.0752 158.997 68.1107 158.977 68.1363 158.947C68.1619 158.916 68.176 158.878 68.176 158.838C68.176 158.799 68.1619 158.76 68.1363 158.73C68.1107 158.7 68.0752 158.68 68.0361 158.673Z" fill="#407BFF"/>
</svg>
