<svg width="240" height="240" viewBox="0 0 240 240" fill="none" xmlns="http://www.w3.org/2000/svg">
<path d="M120 205.229C171.399 205.229 213.067 202.796 213.067 199.795C213.067 196.794 171.399 194.362 120 194.362C68.6003 194.362 26.9327 196.794 26.9327 199.795C26.9327 202.796 68.6003 205.229 120 205.229Z" fill="#F6FAFF"/>
<path d="M117.821 68.5488C118.474 76.7088 127.901 87.3072 130.915 90.5136C131.034 90.6406 131.177 90.7419 131.337 90.8112C131.496 90.8804 131.668 90.9161 131.842 90.9161C132.015 90.9161 132.187 90.8804 132.347 90.8112C132.506 90.7419 132.65 90.6406 132.768 90.5136C135.792 87.3072 145.21 76.704 145.862 68.5488C145.885 68.2984 145.834 68.0469 145.715 67.8252C145.597 67.6035 145.416 67.4213 145.195 67.3008L132.446 60.4224C132.261 60.3207 132.053 60.2674 131.842 60.2674C131.63 60.2674 131.422 60.3207 131.237 60.4224L118.488 67.3008C118.268 67.4222 118.088 67.6047 117.97 67.8261C117.852 68.0476 117.8 68.2985 117.821 68.5488Z" fill="#407BFF"/>
<path opacity="0.3" d="M130.896 87.4224C127.056 83.1024 121.488 75.84 120.158 70.0608C120.098 69.7922 120.125 69.5113 120.235 69.2591C120.346 69.007 120.534 68.7968 120.773 68.6592L131.208 62.6592C131.402 62.5485 131.621 62.4902 131.844 62.4902C132.067 62.4902 132.286 62.5485 132.48 62.6592L142.915 68.64C143.16 68.7804 143.352 68.9975 143.461 69.2577C143.57 69.5179 143.591 69.8068 143.52 70.08C142.195 75.8688 136.646 83.1024 132.787 87.4416C132.667 87.5743 132.521 87.6801 132.357 87.7519C132.193 87.8237 132.016 87.8599 131.837 87.8581C131.658 87.8562 131.482 87.8165 131.32 87.7414C131.157 87.6662 131.013 87.5575 130.896 87.4224Z" fill="#407BFF"/>
<path opacity="0.3" d="M130.896 87.4224C127.056 83.1024 121.488 75.84 120.158 70.0608C120.098 69.7922 120.125 69.5113 120.235 69.2591C120.346 69.007 120.534 68.7968 120.773 68.6592L131.208 62.6592C131.402 62.5485 131.621 62.4902 131.844 62.4902C132.067 62.4902 132.286 62.5485 132.48 62.6592L142.915 68.64C143.16 68.7804 143.352 68.9975 143.461 69.2577C143.57 69.5179 143.591 69.8068 143.52 70.08C142.195 75.8688 136.646 83.1024 132.787 87.4416C132.667 87.5743 132.521 87.6801 132.357 87.7519C132.193 87.8237 132.016 87.8599 131.837 87.8581C131.658 87.8562 131.482 87.8165 131.32 87.7414C131.157 87.6662 131.013 87.5575 130.896 87.4224Z" fill="white"/>
<path d="M130.421 78.6624C130.327 78.6625 130.233 78.644 130.146 78.6077C130.058 78.5715 129.979 78.5182 129.912 78.4512L126.356 74.8799C126.228 74.7435 126.159 74.5629 126.162 74.3764C126.166 74.1899 126.241 74.0119 126.373 73.88C126.505 73.7481 126.683 73.6725 126.87 73.6692C127.056 73.6659 127.237 73.7352 127.373 73.8623L130.421 76.9055L137.621 69.7295C137.757 69.5959 137.939 69.5209 138.13 69.5209C138.32 69.5209 138.503 69.5959 138.639 69.7295C138.706 69.7961 138.76 69.8753 138.796 69.9626C138.832 70.05 138.851 70.1437 138.851 70.2383C138.851 70.333 138.832 70.4267 138.796 70.5141C138.76 70.6014 138.706 70.6806 138.639 70.7471L130.959 78.4271C130.89 78.5012 130.807 78.5603 130.714 78.6008C130.622 78.6412 130.522 78.6622 130.421 78.6624Z" fill="white"/>
<path d="M160.642 98.0784H94.0801C90.8989 98.0784 88.3201 100.657 88.3201 103.838V191.15C88.3201 194.332 90.8989 196.91 94.0801 196.91H160.642C163.823 196.91 166.402 194.332 166.402 191.15V103.838C166.402 100.657 163.823 98.0784 160.642 98.0784Z" fill="#263238"/>
<path d="M165.125 98.0784H98.5632C95.3821 98.0784 92.8032 100.657 92.8032 103.838V191.15C92.8032 194.332 95.3821 196.91 98.5632 196.91H165.125C168.306 196.91 170.885 194.332 170.885 191.15V103.838C170.885 100.657 168.306 98.0784 165.125 98.0784Z" fill="#407BFF"/>
<path d="M106.445 196.915H99.965C99.7662 196.915 99.605 197.076 99.605 197.275V198.317C99.605 198.516 99.7662 198.677 99.965 198.677H106.445C106.644 198.677 106.805 198.516 106.805 198.317V197.275C106.805 197.076 106.644 196.915 106.445 196.915Z" fill="#263238"/>
<path d="M163.718 196.915H157.238C157.04 196.915 156.878 197.076 156.878 197.275V198.317C156.878 198.516 157.04 198.677 157.238 198.677H163.718C163.917 198.677 164.078 198.516 164.078 198.317V197.275C164.078 197.076 163.917 196.915 163.718 196.915Z" fill="#263238"/>
<path opacity="0.2" d="M165.125 98.0784H98.5632C95.3821 98.0784 92.8032 100.657 92.8032 103.838V191.15C92.8032 194.332 95.3821 196.91 98.5632 196.91H165.125C168.306 196.91 170.885 194.332 170.885 191.15V103.838C170.885 100.657 168.306 98.0784 165.125 98.0784Z" fill="black"/>
<g style="mix-blend-mode:color-dodge" opacity="0.4">
<path d="M157.282 185.515H106.402C105.819 185.514 105.261 185.282 104.849 184.87C104.437 184.458 104.205 183.899 104.203 183.317V111.682C104.203 111.098 104.435 110.538 104.847 110.125C105.259 109.712 105.818 109.48 106.402 109.478H157.282C157.865 109.48 158.424 109.712 158.837 110.125C159.249 110.538 159.48 111.098 159.48 111.682V183.317C159.479 183.899 159.247 184.458 158.835 184.87C158.423 185.282 157.864 185.514 157.282 185.515ZM106.402 109.718C105.882 109.72 105.384 109.927 105.017 110.295C104.65 110.663 104.443 111.162 104.443 111.682V183.317C104.443 183.574 104.494 183.829 104.592 184.066C104.691 184.304 104.835 184.52 105.017 184.702C105.199 184.883 105.415 185.028 105.652 185.126C105.89 185.225 106.145 185.275 106.402 185.275H157.282C157.801 185.275 158.299 185.069 158.667 184.702C159.034 184.334 159.24 183.836 159.24 183.317V111.682C159.24 111.162 159.034 110.663 158.667 110.295C158.3 109.927 157.802 109.72 157.282 109.718H106.402Z" fill="#E6E6E6"/>
</g>
<path d="M158.405 183.317V111.677C158.405 111.059 157.904 110.558 157.287 110.558H106.402C105.784 110.558 105.283 111.059 105.283 111.677V183.317C105.283 183.935 105.784 184.435 106.402 184.435H157.287C157.904 184.435 158.405 183.935 158.405 183.317Z" fill="#407BFF"/>
<path opacity="0.1" d="M158.405 183.317V111.677C158.405 111.059 157.904 110.558 157.287 110.558H106.402C105.784 110.558 105.283 111.059 105.283 111.677V183.317C105.283 183.935 105.784 184.435 106.402 184.435H157.287C157.904 184.435 158.405 183.935 158.405 183.317Z" fill="white"/>
<path d="M172.56 118.454H172.08V122.506H172.56V118.454Z" fill="#407BFF"/>
<path d="M172.56 103.838H172.08V114.187H172.56V103.838Z" fill="#407BFF"/>
<path opacity="0.1" d="M131.842 165.264C140.881 165.264 148.21 157.936 148.21 148.896C148.21 139.856 140.881 132.528 131.842 132.528C122.802 132.528 115.474 139.856 115.474 148.896C115.474 157.936 122.802 165.264 131.842 165.264Z" fill="black"/>
<path d="M131.842 124.589C134.05 124.589 135.84 122.799 135.84 120.59C135.84 118.382 134.05 116.592 131.842 116.592C129.633 116.592 127.843 118.382 127.843 120.59C127.843 122.799 129.633 124.589 131.842 124.589Z" fill="#407BFF"/>
<path opacity="0.6" d="M131.818 124.579C134.026 124.579 135.816 122.789 135.816 120.581C135.816 118.373 134.026 116.582 131.818 116.582C129.609 116.582 127.819 118.373 127.819 120.581C127.819 122.789 129.609 124.579 131.818 124.579Z" fill="white"/>
<path d="M131.842 123.749C131.217 123.749 130.606 123.564 130.087 123.217C129.568 122.869 129.163 122.376 128.924 121.799C128.685 121.222 128.622 120.587 128.744 119.974C128.866 119.362 129.167 118.799 129.608 118.357C130.05 117.915 130.613 117.615 131.225 117.493C131.838 117.371 132.473 117.433 133.05 117.672C133.627 117.911 134.121 118.316 134.468 118.836C134.815 119.355 135 119.966 135 120.59C134.999 121.428 134.666 122.23 134.074 122.822C133.482 123.414 132.679 123.748 131.842 123.749ZM131.842 117.672C131.264 117.672 130.7 117.843 130.22 118.164C129.74 118.485 129.366 118.94 129.145 119.474C128.925 120.007 128.867 120.594 128.979 121.16C129.092 121.726 129.37 122.246 129.778 122.654C130.186 123.062 130.706 123.34 131.272 123.453C131.838 123.565 132.425 123.508 132.958 123.287C133.492 123.066 133.948 122.692 134.268 122.212C134.589 121.732 134.76 121.168 134.76 120.59C134.759 119.817 134.451 119.075 133.904 118.528C133.357 117.981 132.615 117.673 131.842 117.672Z" fill="#407BFF"/>
<path d="M105.216 119.966H103.435C103.043 119.966 102.725 120.284 102.725 120.677V130.421C102.725 130.813 103.043 131.131 103.435 131.131H105.216C105.609 131.131 105.927 130.813 105.927 130.421V120.677C105.927 120.284 105.609 119.966 105.216 119.966Z" fill="#407BFF"/>
<path opacity="0.6" d="M105.216 119.966H103.435C103.043 119.966 102.725 120.284 102.725 120.677V130.421C102.725 130.813 103.043 131.131 103.435 131.131H105.216C105.609 131.131 105.927 130.813 105.927 130.421V120.677C105.927 120.284 105.609 119.966 105.216 119.966Z" fill="white"/>
<path d="M105.216 163.862H103.435C103.043 163.862 102.725 164.18 102.725 164.573V174.317C102.725 174.709 103.043 175.027 103.435 175.027H105.216C105.609 175.027 105.927 174.709 105.927 174.317V164.573C105.927 164.18 105.609 163.862 105.216 163.862Z" fill="#407BFF"/>
<path opacity="0.6" d="M105.216 163.862H103.435C103.043 163.862 102.725 164.18 102.725 164.573V174.317C102.725 174.709 103.043 175.027 103.435 175.027H105.216C105.609 175.027 105.927 174.709 105.927 174.317V164.573C105.927 164.18 105.609 163.862 105.216 163.862Z" fill="white"/>
<path d="M131.842 163.867C140.881 163.867 148.21 156.539 148.21 147.499C148.21 138.459 140.881 131.131 131.842 131.131C122.802 131.131 115.474 138.459 115.474 147.499C115.474 156.539 122.802 163.867 131.842 163.867Z" fill="#407BFF"/>
<path opacity="0.6" d="M131.842 163.867C140.881 163.867 148.21 156.539 148.21 147.499C148.21 138.459 140.881 131.131 131.842 131.131C122.802 131.131 115.474 138.459 115.474 147.499C115.474 156.539 122.802 163.867 131.842 163.867Z" fill="white"/>
<path d="M123.744 138.717L123.065 139.395L139.947 156.278L140.626 155.599L123.744 138.717Z" fill="#407BFF"/>
<path d="M139.947 138.717L123.065 155.599L123.744 156.278L140.626 139.395L139.947 138.717Z" fill="#407BFF"/>
<path opacity="0.2" d="M139.892 138.662L123.009 155.544L123.688 156.223L140.57 139.341L139.892 138.662Z" fill="black"/>
<path opacity="0.2" d="M123.692 138.665L123.013 139.344L139.895 156.226L140.574 155.548L123.692 138.665Z" fill="black"/>
<path d="M131.794 159.869C129.336 159.87 126.932 159.142 124.888 157.777C122.844 156.412 121.25 154.471 120.309 152.201C119.368 149.93 119.121 147.431 119.6 145.02C120.079 142.609 121.262 140.394 123 138.656C124.738 136.917 126.952 135.733 129.363 135.254C131.773 134.774 134.272 135.019 136.543 135.96C138.814 136.9 140.756 138.493 142.121 140.537C143.487 142.581 144.216 144.984 144.216 147.442C144.213 150.736 142.904 153.895 140.575 156.224C138.246 158.554 135.088 159.865 131.794 159.869ZM131.794 135.974C129.525 135.973 127.308 136.645 125.421 137.905C123.535 139.164 122.065 140.955 121.196 143.05C120.327 145.145 120.099 147.451 120.541 149.676C120.983 151.901 122.075 153.944 123.679 155.548C125.282 157.153 127.325 158.245 129.55 158.688C131.774 159.131 134.08 158.904 136.176 158.036C138.272 157.169 140.063 155.699 141.323 153.813C142.583 151.927 143.256 149.71 143.256 147.442C143.253 144.402 142.045 141.487 139.896 139.338C137.747 137.188 134.833 135.978 131.794 135.974Z" fill="#407BFF"/>
<path d="M135.466 151.118C137.496 149.088 137.496 145.797 135.466 143.767C133.436 141.737 130.144 141.737 128.114 143.767C126.084 145.797 126.084 149.088 128.114 151.118C130.144 153.148 133.436 153.148 135.466 151.118Z" fill="#407BFF"/>
<path opacity="0.2" d="M131.794 159.869C129.336 159.87 126.932 159.142 124.888 157.777C122.844 156.412 121.25 154.471 120.309 152.201C119.368 149.93 119.121 147.431 119.6 145.02C120.079 142.609 121.262 140.394 123 138.656C124.738 136.917 126.952 135.733 129.363 135.254C131.773 134.774 134.272 135.019 136.543 135.96C138.814 136.9 140.756 138.493 142.121 140.537C143.487 142.581 144.216 144.984 144.216 147.442C144.213 150.736 142.904 153.895 140.575 156.224C138.246 158.554 135.088 159.865 131.794 159.869ZM131.794 135.974C129.525 135.973 127.308 136.645 125.421 137.905C123.535 139.164 122.065 140.955 121.196 143.05C120.327 145.145 120.099 147.451 120.541 149.676C120.983 151.901 122.075 153.944 123.679 155.548C125.282 157.153 127.325 158.245 129.55 158.688C131.774 159.131 134.08 158.904 136.176 158.036C138.272 157.169 140.063 155.699 141.323 153.813C142.583 151.927 143.256 149.71 143.256 147.442C143.253 144.402 142.045 141.487 139.896 139.338C137.747 137.188 134.833 135.978 131.794 135.974Z" fill="black"/>
<path opacity="0.2" d="M135.466 151.118C137.496 149.088 137.496 145.797 135.466 143.767C133.436 141.737 130.144 141.737 128.114 143.767C126.084 145.797 126.084 149.088 128.114 151.118C130.144 153.148 133.436 153.148 135.466 151.118Z" fill="black"/>
<path d="M91.6795 78.1248C92.8363 80.808 94.0315 83.5248 95.2411 86.1984C96.4507 88.872 97.6891 91.5408 99.0139 94.0896C99.3547 94.7136 99.6811 95.3615 100.036 95.9519L100.296 96.4031L100.43 96.6287C100.417 96.6104 100.4 96.5942 100.382 96.5808C100.324 96.5472 100.382 96.6143 100.497 96.6959C100.938 96.9332 101.415 97.0954 101.908 97.1759C102.543 97.2943 103.184 97.3776 103.828 97.4256C105.187 97.5168 106.622 97.5168 108.062 97.4736L110.241 97.3824L112.411 97.2383L112.972 99.8496C110.008 100.84 106.931 101.456 103.814 101.683C102.973 101.737 102.129 101.729 101.289 101.659C100.298 101.592 99.325 101.362 98.4091 100.978C97.7748 100.7 97.2045 100.295 96.7339 99.7871C96.5931 99.6366 96.4631 99.4762 96.3451 99.3071L96.1771 99.0575L95.8507 98.5775C95.3947 97.9151 95.0107 97.2528 94.5979 96.5856C93.0427 93.9216 91.6507 91.224 90.3451 88.5024C89.0395 85.7808 87.8251 83.0352 86.6827 80.2176L91.6795 78.1248Z" fill="#E39E8A"/>
<path d="M85.3058 77.76C84.2162 80.9472 90.6194 90.3216 90.6194 90.3216L96.7538 86.9232C95.7122 83.9988 94.4824 81.1448 93.0722 78.3792C90.9074 74.3232 86.501 74.2608 85.3058 77.76Z" fill="#407BFF"/>
<path opacity="0.5" d="M85.3058 77.76C84.2162 80.9472 90.6194 90.3216 90.6194 90.3216L96.7538 86.9232C95.7122 83.9988 94.4824 81.1448 93.0722 78.3792C90.9074 74.3232 86.501 74.2608 85.3058 77.76Z" fill="white"/>
<path d="M85.2143 78.1583C86.5871 77.5007 88.1711 78.0527 89.8319 80.6831C91.4927 83.3136 92.9135 87.7056 93.0719 88.9584L90.6191 90.3168C90.6191 90.3168 84.7055 81.6576 85.2143 78.1583Z" fill="#407BFF"/>
<path opacity="0.4" d="M85.2143 78.1583C86.5871 77.5007 88.1711 78.0527 89.8319 80.6831C91.4927 83.3136 92.9135 87.7056 93.0719 88.9584L90.6191 90.3168C90.6191 90.3168 84.7055 81.6576 85.2143 78.1583Z" fill="white"/>
<path d="M89.4477 75.3216C89.4477 75.3216 94.0173 86.0688 90.7197 106.08H71.6925C71.4573 103.157 72.8013 88.9056 69.5037 75.1392C71.5957 74.7317 73.7123 74.4624 75.8397 74.3328C78.5335 74.1791 81.2339 74.1791 83.9277 74.3328C85.7902 74.5211 87.6356 74.8517 89.4477 75.3216Z" fill="#407BFF"/>
<path opacity="0.5" d="M89.4477 75.3216C89.4477 75.3216 94.0173 86.0688 90.7197 106.08H71.6925C71.4573 103.157 72.8013 88.9056 69.5037 75.1392C71.5957 74.7317 73.7123 74.4624 75.8397 74.3328C78.5335 74.1791 81.2339 74.1791 83.9277 74.3328C85.7902 74.5211 87.6356 74.8517 89.4477 75.3216Z" fill="white"/>
<path d="M73.7569 78.5376C74.1505 80.8032 73.6273 86.2176 71.6833 92.4864C71.5311 87.1155 70.9063 81.7685 69.8161 76.5072V76.4784C71.0641 76.3536 73.3777 76.4112 73.7569 78.5376Z" fill="#407BFF"/>
<path opacity="0.4" d="M73.7569 78.5376C74.1505 80.8032 73.6273 86.2176 71.6833 92.4864C71.5311 87.1155 70.9063 81.7685 69.8161 76.5072V76.4784C71.0641 76.3536 73.3777 76.4112 73.7569 78.5376Z" fill="white"/>
<path d="M64.9485 191.342L67.7709 193.867L73.1421 188.275L70.3197 185.75L64.9485 191.342Z" fill="#E39E8A"/>
<path d="M68.5487 192.854L65.1215 190.56C65.0655 190.516 64.9961 190.491 64.9247 190.491C64.8532 190.491 64.7839 190.516 64.7279 190.56L62.1071 193.205C62.0559 193.263 62.0182 193.332 61.9966 193.406C61.9749 193.48 61.9698 193.558 61.9817 193.635C61.9937 193.711 62.0222 193.784 62.0655 193.848C62.1087 193.913 62.1655 193.967 62.2319 194.006C64.4207 195.691 65.9999 196.963 67.2479 198.365C68.6879 200.002 69.4655 200.237 72.8255 200.237C74.3807 200.237 75.2591 198.926 74.6255 198.725C69.0287 196.954 70.5263 196.181 69.1631 193.584C69.0249 193.292 68.8132 193.04 68.5487 192.854Z" fill="#263238"/>
<path d="M73.1375 188.275L70.3727 191.16L67.5503 188.63L70.3151 185.75L73.1375 188.275Z" fill="#E3A392"/>
<path d="M75.0768 188.357H78.6336L78.3936 192.605H74.8368L75.0768 188.357Z" fill="#E3A392"/>
<path d="M90.7197 106.08C90.7197 106.08 94.4685 132.029 95.7453 146.15C96.7725 157.483 72.2685 191.27 72.2685 191.27L67.5309 186.811C67.5309 186.811 85.4253 156.518 84.0477 143.904C82.7181 131.688 78.1917 106.066 78.1917 106.066L90.7197 106.08Z" fill="#407BFF"/>
<path opacity="0.5" d="M90.7197 106.08C90.7197 106.08 94.4685 132.029 95.7453 146.15C96.7725 157.483 72.2685 191.27 72.2685 191.27L67.5309 186.811C67.5309 186.811 85.4253 156.518 84.0477 143.904C82.7181 131.688 78.1917 106.066 78.1917 106.066L90.7197 106.08Z" fill="black"/>
<path d="M74.6111 196.594H78.1727L78.6335 188.357H75.0767L74.6111 196.594Z" fill="#E39E8A"/>
<path d="M78.3601 196.186H74.3617C74.295 196.183 74.23 196.207 74.1806 196.252C74.1312 196.296 74.1014 196.359 74.0977 196.426L73.9009 199.589C73.9003 199.671 73.9159 199.753 73.9469 199.83C73.9779 199.906 74.0237 199.976 74.0817 200.035C74.1396 200.094 74.2086 200.141 74.2846 200.173C74.3607 200.205 74.4423 200.222 74.5249 200.222C75.9169 200.198 76.5841 200.117 78.3649 200.117C79.4449 200.117 84.0433 200.232 85.5409 200.232C87.0385 200.232 86.9809 198.754 86.3569 198.619C83.5201 198.019 80.0017 197.179 78.9937 196.402C78.8135 196.259 78.5898 196.183 78.3601 196.186Z" fill="#263238"/>
<path d="M111.662 97.4016L114.931 96.1056L115.728 99.4656C115.728 99.4656 111.998 100.579 111.408 99.504L111.662 97.4016Z" fill="#E39E8A"/>
<path d="M117.701 96.7824L118.661 98.6208L115.728 99.456L114.931 96.1056L117.701 96.7824Z" fill="#E39E8A"/>
<path d="M84.715 74.4L83.9374 74.3184C81.2436 74.1647 78.5432 74.1647 75.8494 74.3184L75.3694 74.3472L75.4126 74.4768C75.451 74.5776 76.3438 76.9536 81.4654 76.9536C83.6974 76.9536 84.8638 76.584 85.1326 75.7824C85.1875 75.5355 85.1779 75.2787 85.1047 75.0365C85.0316 74.7944 84.8974 74.5752 84.715 74.4Z" fill="#E6E6E6"/>
<path d="M76.32 65.2224C76.92 67.824 77.5968 72.5952 75.84 74.3424C75.84 74.3424 76.5984 76.4976 81.4368 76.4976C86.7552 76.4976 83.928 74.3424 83.928 74.3424C81 73.6512 81.0048 71.496 81.4368 69.4752L76.32 65.2224Z" fill="#E39E8A"/>
<path d="M78.4175 66.9552L81.4463 69.4608C81.3373 69.934 81.2698 70.4158 81.2447 70.9008C80.1311 70.7424 78.5663 69.5232 78.4079 68.3616C78.3232 67.8963 78.3264 67.4193 78.4175 66.9552Z" fill="#E3A392"/>
<path d="M83.9232 57.48C85.5407 58.5264 85.7711 63.5568 83.4048 64.2768C81.0384 64.9968 80.8608 55.5024 83.9232 57.48Z" fill="#263238"/>
<path d="M75.197 62.496C76.2818 65.856 76.7426 67.8864 78.9314 69.264C79.6375 69.7178 80.4542 69.9699 81.2933 69.9931C82.1323 70.0162 82.9617 69.8095 83.6918 69.3953C84.4218 68.9811 85.0247 68.3752 85.4353 67.6431C85.8458 66.9109 86.0483 66.0805 86.021 65.2416C85.9778 62.0112 84.2114 57.0384 80.4914 56.4144C79.6896 56.2596 78.8613 56.3182 78.0893 56.5843C77.3173 56.8503 76.6288 57.3145 76.0927 57.9304C75.5565 58.5462 75.1916 59.2922 75.0344 60.0934C74.8772 60.8947 74.9333 61.7232 75.197 62.496Z" fill="#E39E8A"/>
<path d="M71.3184 59.3328C72.48 61.44 75.3984 66.24 76.8 65.76C78.2016 65.28 78.2064 61.44 76.4064 59.0064C76.4064 59.0064 90.6672 60.4464 90.9552 52.344C91.248 44.0544 84.3792 52.0752 78.336 54.3936C71.76 56.9376 68.5872 54.3744 71.3184 59.3328Z" fill="#263238"/>
<path d="M71.9277 56.3952C71.9005 56.3897 71.8761 56.375 71.8586 56.3536C71.8411 56.3321 71.8315 56.3053 71.8315 56.2776C71.8315 56.2499 71.8411 56.2231 71.8586 56.2017C71.8761 56.1802 71.9005 56.1655 71.9277 56.16C72.1437 56.112 72.3789 56.0688 72.6333 56.0208C74.5456 55.7087 76.4102 55.1538 78.1821 54.3696C79.9821 53.5632 81.8684 52.1808 83.5388 50.9616C84.6 50.1515 85.7057 49.4015 86.8508 48.7152C86.8791 48.7011 86.9116 48.6982 86.9419 48.7071C86.9722 48.716 86.9979 48.7361 87.014 48.7632C87.0216 48.7771 87.0264 48.7923 87.0281 48.808C87.0298 48.8237 87.0284 48.8396 87.024 48.8548C87.0195 48.87 87.0121 48.8841 87.0021 48.8964C86.9922 48.9087 86.9799 48.9189 86.966 48.9264C85.8289 49.608 84.7312 50.3532 83.678 51.1584C82.0028 52.3824 80.102 53.7696 78.2781 54.5904C76.4911 55.3819 74.6102 55.9417 72.6813 56.256C72.4269 56.304 72.2013 56.3472 71.9757 56.3952H71.9277Z" fill="#263238"/>
<path d="M74.6016 66.6C75.2453 67.2256 76.104 67.5811 77.0016 67.5936C78.192 67.5936 78.4416 66.4704 77.8032 65.5296C77.2368 64.6848 75.9408 63.6672 74.8944 64.1232C73.848 64.5792 73.8144 65.8272 74.6016 66.6Z" fill="#E39E8A"/>
<path opacity="0.2" d="M84.0528 143.918C83.3664 137.626 81.8304 127.766 80.5104 119.693C81.2016 118.339 83.1408 115.598 83.1408 115.598C84.8784 121.603 88.656 144.24 83.2656 174.811C77.6496 183.864 72.2736 191.285 72.2736 191.285L71.52 179.611C76.728 169.848 85.008 152.64 84.0528 143.918Z" fill="black"/>
<path d="M80.6636 62.3088C80.7356 62.5872 80.9421 62.7888 81.1437 62.7408C81.3453 62.6928 81.4173 62.4384 81.3453 62.16C81.2733 61.8816 81.0669 61.68 80.8653 61.7328C80.6636 61.7856 80.5916 62.0304 80.6636 62.3088Z" fill="#263238"/>
<path d="M83.8321 61.6128C83.9041 61.8912 84.1105 62.0928 84.3121 62.0448C84.5137 61.9968 84.5857 61.7472 84.5137 61.4688C84.4417 61.1904 84.2401 60.9888 84.0337 61.0368C83.8273 61.0848 83.7601 61.3344 83.8321 61.6128Z" fill="#263238"/>
<path d="M82.8621 61.9728C83.4152 62.7514 84.0688 63.4535 84.806 64.0608C84.6457 64.2389 84.4483 64.3798 84.2278 64.4735C84.0072 64.5672 83.7688 64.6115 83.5293 64.6032L82.8621 61.9728Z" fill="#C27966"/>
<path d="M82.3198 65.616C81.7352 65.6219 81.1679 65.4174 80.7214 65.04C80.7135 65.0325 80.7072 65.0234 80.7028 65.0134C80.6984 65.0034 80.696 64.9926 80.6958 64.9817C80.6956 64.9708 80.6975 64.9599 80.7015 64.9498C80.7055 64.9396 80.7114 64.9303 80.719 64.9224C80.7265 64.9146 80.7356 64.9082 80.7456 64.9038C80.7556 64.8995 80.7664 64.8971 80.7773 64.8969C80.7882 64.8966 80.7991 64.8986 80.8092 64.9026C80.8194 64.9065 80.8287 64.9125 80.8366 64.92C81.1176 65.1484 81.4467 65.3102 81.7992 65.3933C82.1516 65.4765 82.5183 65.4787 82.8718 65.4C82.8825 65.3975 82.8936 65.3971 82.9045 65.3989C82.9153 65.4007 82.9257 65.4046 82.9351 65.4104C82.9445 65.4161 82.9526 65.4237 82.959 65.4327C82.9655 65.4416 82.9701 65.4517 82.9726 65.4624C82.9751 65.4731 82.9755 65.4843 82.9737 65.4951C82.972 65.506 82.9681 65.5164 82.9623 65.5257C82.9565 65.5351 82.9489 65.5432 82.94 65.5497C82.931 65.5561 82.9209 65.5607 82.9102 65.5632C82.716 65.6028 82.5179 65.6205 82.3198 65.616Z" fill="#263238"/>
<path d="M79.4063 61.5072C79.3841 61.5118 79.3612 61.5118 79.3391 61.5072C79.3185 61.4989 79.2998 61.4865 79.2842 61.4707C79.2686 61.4549 79.2564 61.4361 79.2483 61.4154C79.2403 61.3948 79.2365 61.3727 79.2372 61.3505C79.238 61.3283 79.2432 61.3065 79.2527 61.2864C79.3551 61.0432 79.5153 60.8287 79.7194 60.6614C79.9235 60.4941 80.1653 60.3791 80.4239 60.3264C80.4681 60.3221 80.5123 60.3344 80.5479 60.3611C80.5834 60.3877 80.6077 60.4268 80.6159 60.4704C80.6192 60.4925 80.6182 60.5151 80.6127 60.5367C80.6073 60.5584 80.5976 60.5788 80.5842 60.5967C80.5708 60.6146 80.5539 60.6296 80.5346 60.6409C80.5154 60.6522 80.494 60.6595 80.4719 60.6624C80.2688 60.7082 80.0798 60.8024 79.921 60.9369C79.7622 61.0715 79.6383 61.2424 79.5599 61.4352C79.5433 61.4602 79.5202 61.4801 79.4932 61.4928C79.4661 61.5055 79.436 61.5105 79.4063 61.5072Z" fill="#263238"/>
<path d="M84.9023 60.2352C84.8773 60.2354 84.8527 60.2299 84.8302 60.219C84.8078 60.2082 84.7881 60.1924 84.7727 60.1728C84.6376 60.0048 84.4666 59.8693 84.2722 59.7763C84.0778 59.6833 83.865 59.635 83.6495 59.6352C83.6052 59.6379 83.5615 59.6235 83.5275 59.5949C83.4936 59.5663 83.4719 59.5257 83.4671 59.4816C83.4643 59.4373 83.4788 59.3936 83.5074 59.3596C83.536 59.3257 83.5765 59.304 83.6207 59.2992C83.8905 59.2937 84.158 59.3501 84.4026 59.4641C84.6473 59.5781 84.8625 59.7467 85.0319 59.9568C85.0599 59.992 85.0732 60.0368 85.0687 60.0817C85.0642 60.1265 85.0424 60.1678 85.0079 60.1968C84.9781 60.2213 84.9408 60.2349 84.9023 60.2352Z" fill="#263238"/>
<path d="M71.9708 94.4064C71.0147 94.0844 70.0972 93.6579 69.2348 93.1344C69.047 93.0149 68.8731 92.8748 68.7164 92.7168C68.9372 91.6848 69.2252 90.648 69.5372 89.6064C69.8492 88.5648 70.2332 87.4992 70.6316 86.448C71.03 85.3968 71.4524 84.3504 71.894 83.3136C72.1148 82.7952 72.3404 82.2768 72.5708 81.7632L73.262 80.2704L68.462 77.8128C68.1452 78.4128 67.886 78.9408 67.6268 79.512C67.3676 80.0832 67.1468 80.6352 66.8876 81.2016C66.414 82.3408 65.982 83.4944 65.5916 84.6624C64.7779 87.0468 64.207 89.5073 63.8876 92.0064V92.136V92.3856C63.8755 92.5582 63.8755 92.7314 63.8876 92.904C63.9069 93.2525 63.9682 93.5974 64.07 93.9312C64.2592 94.5197 64.5662 95.0636 64.9724 95.5296C65.5697 96.1803 66.2868 96.7099 67.0844 97.0896C68.3129 97.6691 69.6119 98.0854 70.9484 98.328C73.3822 98.7904 75.8595 98.9836 78.3356 98.904L78.5564 96.24C76.3277 95.7563 74.1288 95.144 71.9708 94.4064Z" fill="#E39E8A"/>
<path d="M79.6224 196.8C79.2989 196.793 78.9771 196.751 78.6624 196.675C78.648 196.67 78.6349 196.662 78.624 196.651C78.6132 196.64 78.605 196.627 78.6 196.613C78.5978 196.597 78.5997 196.582 78.6056 196.567C78.6115 196.553 78.6212 196.541 78.6336 196.531C78.7488 196.45 79.7568 195.763 80.1888 195.936C80.2379 195.955 80.2812 195.986 80.3149 196.026C80.3485 196.067 80.3712 196.115 80.3808 196.166C80.4019 196.244 80.4033 196.325 80.3848 196.403C80.3664 196.481 80.3287 196.553 80.2752 196.613C80.0877 196.753 79.8556 196.819 79.6224 196.8ZM78.8928 196.56C79.5312 196.685 80.0064 196.666 80.1744 196.502C80.2089 196.461 80.2324 196.412 80.2424 196.359C80.2525 196.306 80.2489 196.251 80.232 196.2C80.2277 196.175 80.217 196.151 80.2011 196.131C80.1852 196.111 80.1645 196.095 80.1408 196.085C79.8864 195.984 79.2528 196.32 78.8928 196.56Z" fill="#407BFF"/>
<path d="M78.6911 196.675C78.6787 196.68 78.6651 196.68 78.6527 196.675C78.6407 196.669 78.6304 196.661 78.6229 196.65C78.6153 196.639 78.6107 196.626 78.6095 196.613C78.6095 196.57 78.5279 195.547 78.8879 195.202C78.9329 195.157 78.9874 195.124 79.0473 195.104C79.1072 195.084 79.1709 195.078 79.2335 195.086C79.3038 195.089 79.3712 195.115 79.425 195.16C79.4789 195.205 79.5162 195.267 79.5311 195.336C79.6127 195.725 79.0847 196.464 78.7295 196.675H78.6911ZM79.1711 195.235C79.1382 195.235 79.1055 195.241 79.075 195.253C79.0445 195.265 79.0167 195.284 78.9935 195.307C78.7958 195.652 78.7134 196.05 78.7583 196.445C79.0511 196.195 79.4303 195.629 79.3727 195.36C79.3727 195.307 79.3343 195.25 79.2095 195.235H79.1711Z" fill="#407BFF"/>
<path d="M70.8574 194.779C70.2226 194.682 69.6166 194.448 69.0814 194.093C69.0656 194.085 69.0531 194.073 69.046 194.057C69.0389 194.041 69.0379 194.023 69.043 194.006C69.0475 193.99 69.0568 193.976 69.0696 193.964C69.0824 193.953 69.0982 193.946 69.115 193.944C69.307 193.944 70.9918 193.819 71.3085 194.203C71.3369 194.235 71.3567 194.273 71.3659 194.314C71.3752 194.355 71.3736 194.398 71.3613 194.438C71.3466 194.504 71.3162 194.566 71.2728 194.618C71.2294 194.669 71.1741 194.71 71.1117 194.736C71.0302 194.766 70.9441 194.78 70.8574 194.779ZM69.3934 194.088C70.1662 194.515 70.7758 194.702 71.0494 194.568C71.0889 194.552 71.124 194.527 71.1516 194.494C71.1792 194.461 71.1985 194.423 71.2078 194.381C71.2162 194.366 71.2206 194.35 71.2206 194.333C71.2206 194.316 71.2162 194.299 71.2078 194.285C71.011 194.093 70.0798 194.059 69.3934 194.088Z" fill="#407BFF"/>
<path d="M69.1199 194.107C69.1064 194.107 69.0932 194.103 69.0815 194.096C69.0697 194.09 69.0599 194.08 69.0527 194.069C69.0468 194.057 69.0437 194.044 69.0437 194.03C69.0437 194.017 69.0468 194.004 69.0527 193.992C69.0815 193.934 69.7199 192.634 70.5407 193.032C70.7663 193.142 70.7855 193.272 70.7663 193.363C70.6847 193.752 69.6191 194.102 69.1295 194.117L69.1199 194.107ZM70.2287 193.114C69.7871 193.114 69.4079 193.675 69.2687 193.934C69.7823 193.872 70.5695 193.55 70.6175 193.32C70.6175 193.272 70.5791 193.219 70.4735 193.166C70.3974 193.129 70.3134 193.111 70.2287 193.114Z" fill="#407BFF"/>
<path d="M78.0047 96.2016L80.9279 95.4L81.3263 99.0912C81.3263 99.0912 78.4463 99.9552 77.7311 98.4432L78.0047 96.2016Z" fill="#E39E8A"/>
<path d="M77.9468 96.2784C78.5589 95.6146 78.9175 94.7563 78.9596 93.8544L79.7084 94.2624C79.7084 94.2624 79.8572 95.9184 79.5644 96.3936C79.2716 96.8688 77.9468 96.2784 77.9468 96.2784Z" fill="#E39E8A"/>
<path d="M82.2956 95.7648L82.118 99.0912H81.326L80.9228 95.4L82.2956 95.7648Z" fill="#E39E8A"/>
<path d="M67.2479 186.557L72.5615 191.558L74.2751 189.72L68.1935 184.181L67.2479 186.557Z" fill="#407BFF"/>
<path opacity="0.1" d="M67.2479 186.557L72.5615 191.558L74.2751 189.72L68.1935 184.181L67.2479 186.557Z" fill="black"/>
<path d="M83.9567 106.08C83.9567 106.08 84.2927 133.272 83.7167 143.462C83.0879 154.618 79.9199 191.582 79.9199 191.582H73.4015C73.4015 191.582 73.5983 155.52 73.2047 144.475C72.7775 132.475 71.6735 106.075 71.6735 106.075L83.9567 106.08Z" fill="#407BFF"/>
<path opacity="0.5" d="M83.9567 106.08C83.9567 106.08 84.2927 133.272 83.7167 143.462C83.0879 154.618 79.9199 191.582 79.9199 191.582H73.4015C73.4015 191.582 73.5983 155.52 73.2047 144.475C72.7775 132.475 71.6735 106.075 71.6735 106.075L83.9567 106.08Z" fill="black"/>
<path d="M73.1424 191.582H80.184L80.5728 189.106L72.8016 189.494L73.1424 191.582Z" fill="#407BFF"/>
<path opacity="0.1" d="M73.1424 191.582H80.184L80.5728 189.106L72.8016 189.494L73.1424 191.582Z" fill="black"/>
<path d="M69.5037 75.1392C66.1437 75.6192 62.7021 87.96 62.7021 87.96L70.7997 91.0416C70.7997 91.0416 72.8349 85.7616 74.2269 81.6192C75.6861 77.304 73.0989 74.6112 69.5037 75.1392Z" fill="#407BFF"/>
<path opacity="0.5" d="M69.5037 75.1392C66.1437 75.6192 62.7021 87.96 62.7021 87.96L70.7997 91.0416C70.7997 91.0416 72.8349 85.7616 74.2269 81.6192C75.6861 77.304 73.0989 74.6112 69.5037 75.1392Z" fill="white"/>
</svg>
