<svg width="231" height="231" viewBox="0 0 231 231" fill="none" xmlns="http://www.w3.org/2000/svg">
<path d="M231 176.669H0V176.784H231V176.669Z" fill="#E0E0E0"/>
<path d="M36.8814 183.913H24.2365V184.029H36.8814V183.913Z" fill="#E0E0E0"/>
<path d="M43.9408 183.913H39.926V184.029H43.9408V183.913Z" fill="#E0E0E0"/>
<path d="M115.5 182.319H106.556V182.435H115.5V182.319Z" fill="#E0E0E0"/>
<path d="M193.098 182.259H173.144V182.375H193.098V182.259Z" fill="#E0E0E0"/>
<path d="M200.138 182.259H197.214V182.375H200.138V182.259Z" fill="#E0E0E0"/>
<path d="M157.39 179.524H114.109V179.639H157.39V179.524Z" fill="#E0E0E0"/>
<path d="M109.494 156.064H20.2865C19.5876 156.063 18.9178 155.784 18.4241 155.29C17.9304 154.795 17.6531 154.125 17.6531 153.426V28.0251C17.6592 27.3302 17.9391 26.6659 18.4322 26.1763C18.9253 25.6866 19.5916 25.4113 20.2865 25.4102H109.494C110.194 25.4102 110.865 25.6881 111.359 26.1828C111.854 26.6775 112.132 27.3485 112.132 28.0482V153.426C112.132 154.125 111.854 154.796 111.359 155.291C110.865 155.786 110.194 156.064 109.494 156.064ZM20.2865 25.5026C19.6183 25.5038 18.9778 25.7701 18.5058 26.243C18.0337 26.7159 17.7686 27.3569 17.7686 28.0251V153.426C17.7686 154.094 18.0337 154.735 18.5058 155.208C18.9778 155.681 19.6183 155.947 20.2865 155.948H109.494C110.163 155.947 110.804 155.681 111.276 155.208C111.749 154.735 112.015 154.094 112.017 153.426V28.0251C112.015 27.3564 111.749 26.7155 111.276 26.2427C110.804 25.7699 110.163 25.5038 109.494 25.5026H20.2865Z" fill="#E0E0E0"/>
<path d="M209.429 156.064H120.217C119.518 156.063 118.847 155.784 118.353 155.29C117.859 154.795 117.58 154.125 117.579 153.426V28.0251C117.586 27.3298 117.867 26.6654 118.361 26.176C118.855 25.6865 119.522 25.4113 120.217 25.4102H209.429C210.123 25.4126 210.788 25.6884 211.28 26.1779C211.773 26.6674 212.052 27.331 212.058 28.0251V153.426C212.058 154.124 211.781 154.793 211.289 155.288C210.796 155.782 210.127 156.061 209.429 156.064ZM120.217 25.5026C119.548 25.5038 118.907 25.7699 118.435 26.2427C117.962 26.7155 117.696 27.3564 117.694 28.0251V153.426C117.696 154.094 117.962 154.735 118.435 155.208C118.907 155.681 119.548 155.947 120.217 155.948H209.429C210.098 155.947 210.739 155.681 211.212 155.208C211.684 154.735 211.951 154.094 211.952 153.426V28.0251C211.951 27.3564 211.684 26.7155 211.212 26.2427C210.739 25.7699 210.098 25.5038 209.429 25.5026H120.217Z" fill="#E0E0E0"/>
<path d="M144.246 23.5621C144.247 23.0577 144.448 22.5742 144.804 22.2175C145.161 21.8608 145.645 21.6599 146.149 21.6587H205.438C205.942 21.6599 206.425 21.8608 206.782 22.2175C207.139 22.5742 207.34 23.0577 207.341 23.5621V29.6744H144.246V23.5621Z" fill="#E0E0E0"/>
<path d="M158.193 25.6595C158.192 25.9448 158.276 26.2239 158.434 26.4616C158.592 26.6992 158.817 26.8847 159.08 26.9945C159.343 27.1043 159.633 27.1335 159.913 27.0784C160.193 27.0233 160.45 26.8864 160.652 26.685C160.854 26.4836 160.992 26.2267 161.048 25.947C161.104 25.6673 161.076 25.3772 160.967 25.1136C160.858 24.8499 160.673 24.6245 160.436 24.4659C160.199 24.3073 159.92 24.2227 159.635 24.2227C159.253 24.2227 158.887 24.3739 158.617 24.6432C158.347 24.9125 158.195 25.278 158.193 25.6595Z" fill="white"/>
<path d="M153.093 25.6595C153.092 25.9448 153.176 26.2239 153.334 26.4616C153.492 26.6992 153.716 26.8847 153.98 26.9945C154.243 27.1043 154.533 27.1335 154.813 27.0784C155.093 27.0233 155.35 26.8864 155.552 26.685C155.754 26.4836 155.892 26.2267 155.948 25.947C156.004 25.6673 155.976 25.3772 155.867 25.1136C155.758 24.8499 155.573 24.6245 155.336 24.4659C155.099 24.3073 154.82 24.2227 154.534 24.2227C154.153 24.2227 153.787 24.3739 153.517 24.6432C153.247 24.9125 153.094 25.278 153.093 25.6595Z" fill="white"/>
<path d="M147.992 25.6595C147.992 25.9448 148.075 26.2239 148.233 26.4616C148.391 26.6992 148.616 26.8847 148.879 26.9945C149.142 27.1043 149.432 27.1335 149.712 27.0784C149.992 27.0233 150.249 26.8864 150.451 26.685C150.654 26.4836 150.791 26.2267 150.847 25.947C150.903 25.6673 150.875 25.3772 150.766 25.1136C150.657 24.8499 150.472 24.6245 150.235 24.4659C149.998 24.3073 149.719 24.2227 149.434 24.2227C149.052 24.2227 148.686 24.3739 148.416 24.6432C148.146 24.9125 147.994 25.278 147.992 25.6595Z" fill="white"/>
<path d="M205.438 70.9402H146.149C145.645 70.9389 145.161 70.738 144.804 70.3813C144.448 70.0246 144.247 69.5412 144.246 69.0367V29.6743H207.341V69.0367C207.34 69.5412 207.139 70.0246 206.782 70.3813C206.425 70.738 205.942 70.9389 205.438 70.9402Z" fill="#F0F0F0"/>
<path d="M139.986 29.9191C139.987 29.4146 140.188 28.9312 140.545 28.5745C140.902 28.2178 141.385 28.0168 141.889 28.0156H201.192C201.696 28.0168 202.18 28.2178 202.536 28.5745C202.893 28.9312 203.094 29.4146 203.095 29.9191V36.0359H139.986V29.9191Z" fill="#F0F0F0"/>
<path d="M153.948 32.0306C153.947 32.3161 154.031 32.5954 154.189 32.8331C154.347 33.0709 154.572 33.2563 154.835 33.366C155.099 33.4757 155.389 33.5046 155.669 33.4492C155.949 33.3937 156.207 33.2563 156.408 33.0544C156.61 32.8526 156.748 32.5953 156.803 32.3153C156.859 32.0352 156.83 31.745 156.72 31.4814C156.61 31.2179 156.425 30.9928 156.187 30.8348C155.949 30.6767 155.67 30.5928 155.385 30.5938C155.004 30.595 154.639 30.7467 154.37 31.0159C154.101 31.2851 153.949 31.6499 153.948 32.0306Z" fill="#E0E0E0"/>
<path d="M148.847 32.0306C148.846 32.3159 148.93 32.595 149.088 32.8326C149.246 33.0703 149.47 33.2558 149.734 33.3656C149.997 33.4754 150.287 33.5046 150.567 33.4495C150.847 33.3944 151.104 33.2575 151.306 33.0561C151.508 32.8547 151.646 32.5978 151.702 32.3181C151.758 32.0384 151.73 31.7483 151.621 31.4846C151.512 31.221 151.327 30.9956 151.09 30.837C150.853 30.6784 150.574 30.5938 150.289 30.5938C149.907 30.5937 149.541 30.745 149.271 31.0143C149.001 31.2836 148.848 31.6491 148.847 32.0306Z" fill="#E0E0E0"/>
<path d="M143.747 32.0306C143.746 32.3159 143.83 32.595 143.987 32.8326C144.145 33.0703 144.37 33.2558 144.633 33.3656C144.897 33.4754 145.187 33.5046 145.467 33.4495C145.746 33.3944 146.004 33.2575 146.206 33.0561C146.408 32.8547 146.546 32.5978 146.602 32.3181C146.658 32.0384 146.629 31.7483 146.52 31.4846C146.411 31.221 146.227 30.9956 145.989 30.837C145.752 30.6784 145.473 30.5938 145.188 30.5938C144.807 30.5937 144.441 30.745 144.171 31.0143C143.9 31.2836 143.748 31.6491 143.747 32.0306Z" fill="#E0E0E0"/>
<path d="M201.192 77.3112H141.899C141.394 77.31 140.911 77.1091 140.554 76.7524C140.197 76.3957 139.996 75.9122 139.995 75.4078V36.0361H203.095V75.3985C203.096 75.6491 203.047 75.8973 202.952 76.1291C202.856 76.3608 202.716 76.5715 202.54 76.7491C202.363 76.9267 202.153 77.0678 201.922 77.1642C201.69 77.2607 201.442 77.3106 201.192 77.3112Z" fill="#FAFAFA"/>
<path d="M135.75 36.2902C135.75 36.0385 135.801 35.7894 135.898 35.5572C135.995 35.325 136.137 35.1144 136.317 34.9375C136.496 34.7605 136.708 34.6208 136.941 34.5263C137.175 34.4318 137.424 34.3844 137.676 34.3868H196.946C197.45 34.388 197.934 34.589 198.291 34.9457C198.647 35.3024 198.848 35.7858 198.849 36.2902V42.4164H135.75V36.2902Z" fill="#FAFAFA"/>
<path d="M149.688 38.4014C149.688 38.6861 149.772 38.9644 149.93 39.2013C150.088 39.4381 150.313 39.6229 150.576 39.7322C150.839 39.8416 151.128 39.8707 151.407 39.8158C151.687 39.7609 151.943 39.6246 152.145 39.4239C152.347 39.2232 152.485 38.9673 152.542 38.6883C152.599 38.4093 152.571 38.1197 152.464 37.8562C152.356 37.5926 152.173 37.3669 151.937 37.2074C151.701 37.0479 151.423 36.9618 151.139 36.96C150.949 36.9588 150.76 36.9952 150.584 37.067C150.408 37.1389 150.248 37.2449 150.113 37.3789C149.979 37.5129 149.872 37.6722 149.799 37.8477C149.726 38.0232 149.688 38.2114 149.688 38.4014Z" fill="#F0F0F0"/>
<path d="M144.606 38.4014C144.606 38.6869 144.691 38.966 144.85 39.2032C145.008 39.4404 145.234 39.6252 145.498 39.734C145.762 39.8428 146.052 39.8708 146.332 39.8145C146.612 39.7581 146.869 39.6199 147.07 39.4174C147.271 39.2149 147.408 38.9572 147.462 38.6769C147.517 38.3967 147.487 38.1066 147.376 37.8434C147.266 37.5802 147.08 37.3557 146.841 37.1984C146.603 37.0411 146.324 36.9582 146.038 36.96C145.657 36.9624 145.293 37.1154 145.025 37.3854C144.757 37.6555 144.606 38.0207 144.606 38.4014Z" fill="#F0F0F0"/>
<path d="M140.938 39.8428C141.734 39.8428 142.379 39.1975 142.379 38.4014C142.379 37.6053 141.734 36.96 140.938 36.96C140.142 36.96 139.496 37.6053 139.496 38.4014C139.496 39.1975 140.142 39.8428 140.938 39.8428Z" fill="#F0F0F0"/>
<path d="M196.946 83.6824H137.676C137.172 83.6811 136.688 83.4802 136.331 83.1235C135.975 82.7668 135.774 82.2834 135.773 81.7789V42.4165H198.849V81.7743C198.849 82.2795 198.649 82.7642 198.292 83.1219C197.935 83.4796 197.451 83.6811 196.946 83.6824Z" fill="#E0E0E0"/>
<path d="M36.5581 59.0806C36.5617 58.6071 36.7511 58.154 37.0855 57.8187C37.4199 57.4835 37.8726 57.2929 38.346 57.2881H127.711C128.188 57.2893 128.646 57.4795 128.983 57.8172C129.321 58.1548 129.511 58.6124 129.512 59.0899V64.9018H36.5581V59.0806Z" fill="#E0E0E0"/>
<path d="M51.1572 62.5686C50.8639 62.5686 50.5772 62.4816 50.3333 62.3186C50.0894 62.1557 49.8993 61.9241 49.7871 61.6531C49.6748 61.3821 49.6455 61.0839 49.7027 60.7962C49.7599 60.5086 49.9012 60.2443 50.1086 60.0369C50.316 59.8295 50.5802 59.6883 50.8679 59.631C51.1556 59.5738 51.4538 59.6032 51.7247 59.7154C51.9957 59.8277 52.2273 60.0178 52.3903 60.2616C52.5533 60.5055 52.6402 60.7922 52.6402 61.0856C52.6402 61.4789 52.484 61.8561 52.2059 62.1342C51.9277 62.4123 51.5505 62.5686 51.1572 62.5686ZM51.1572 59.8382C50.9103 59.8372 50.6687 59.9096 50.4629 60.0461C50.2572 60.1826 50.0966 60.3771 50.0015 60.605C49.9064 60.8328 49.881 61.0838 49.9286 61.3261C49.9762 61.5683 50.0946 61.791 50.2689 61.966C50.4432 62.1409 50.6654 62.2601 50.9075 62.3086C51.1496 62.3571 51.4007 62.3327 51.6289 62.2384C51.8571 62.1442 52.0522 61.9843 52.1894 61.7791C52.3267 61.5738 52.4 61.3325 52.4 61.0856C52.4 60.7555 52.2692 60.4389 52.0363 60.2051C51.8033 59.9713 51.4872 59.8394 51.1572 59.8382Z" fill="white"/>
<path d="M46.3202 62.5686C46.0269 62.5686 45.7401 62.4816 45.4963 62.3186C45.2524 62.1557 45.0623 61.9241 44.95 61.6531C44.8378 61.3821 44.8084 61.0839 44.8657 60.7962C44.9229 60.5086 45.0641 60.2443 45.2715 60.0369C45.4789 59.8295 45.7432 59.6883 46.0309 59.631C46.3185 59.5738 46.6167 59.6032 46.8877 59.7154C47.1587 59.8277 47.3903 60.0178 47.5533 60.2616C47.7162 60.5055 47.8032 60.7922 47.8032 61.0856C47.8032 61.4789 47.647 61.8561 47.3688 62.1342C47.0907 62.4123 46.7135 62.5686 46.3202 62.5686ZM46.3202 59.8382C46.0735 59.8382 45.8323 59.9113 45.6272 60.0484C45.422 60.1855 45.2621 60.3803 45.1677 60.6082C45.0733 60.8361 45.0486 61.0869 45.0967 61.3289C45.1449 61.5709 45.2637 61.7931 45.4381 61.9676C45.6126 62.1421 45.8349 62.2609 46.0768 62.309C46.3188 62.3571 46.5696 62.3324 46.7975 62.238C47.0255 62.1436 47.2203 61.9837 47.3574 61.7786C47.4944 61.5734 47.5676 61.3323 47.5676 61.0856C47.5676 60.7547 47.4362 60.4374 47.2022 60.2035C46.9683 59.9696 46.651 59.8382 46.3202 59.8382Z" fill="white"/>
<path d="M41.483 62.5686C41.1897 62.5686 40.903 62.4816 40.6591 62.3186C40.4152 62.1557 40.2251 61.9241 40.1129 61.6531C40.0006 61.3821 39.9713 61.0839 40.0285 60.7962C40.0857 60.5086 40.227 60.2443 40.4344 60.0369C40.6418 59.8295 40.906 59.6883 41.1937 59.631C41.4814 59.5738 41.7796 59.6032 42.0506 59.7154C42.3215 59.8277 42.5532 60.0178 42.7161 60.2616C42.8791 60.5055 42.966 60.7922 42.966 61.0856C42.966 61.4789 42.8098 61.8561 42.5317 62.1342C42.2536 62.4123 41.8763 62.5686 41.483 62.5686ZM41.483 59.8382C41.2363 59.8382 40.9951 59.9113 40.79 60.0484C40.5849 60.1855 40.425 60.3803 40.3306 60.6082C40.2362 60.8361 40.2115 61.0869 40.2596 61.3289C40.3077 61.5709 40.4265 61.7931 40.601 61.9676C40.7754 62.1421 40.9977 62.2609 41.2397 62.309C41.4816 62.3571 41.7324 62.3324 41.9604 62.238C42.1883 62.1436 42.3831 61.9837 42.5202 61.7786C42.6573 61.5734 42.7304 61.3323 42.7304 61.0856C42.7304 60.9217 42.6982 60.7595 42.6355 60.6082C42.5728 60.4569 42.4809 60.3193 42.3651 60.2035C42.2492 60.0877 42.1117 59.9958 41.9604 59.9331C41.809 59.8704 41.6468 59.8382 41.483 59.8382Z" fill="white"/>
<path d="M127.711 113.19H38.346C37.8673 113.189 37.4085 112.998 37.07 112.66C36.7315 112.321 36.5408 111.862 36.5396 111.384V64.8926H129.494V111.397C129.49 111.87 129.302 112.323 128.968 112.658C128.635 112.993 128.183 113.184 127.711 113.19Z" fill="#F0F0F0"/>
<path d="M32.5294 71.3377C32.5306 70.859 32.7213 70.4002 33.0599 70.0617C33.3984 69.7232 33.8571 69.5325 34.3358 69.5312H123.682C124.16 69.5325 124.619 69.7233 124.956 70.062C125.294 70.4006 125.484 70.8594 125.484 71.3377V77.1543H32.5294V71.3377Z" fill="#FAFAFA"/>
<path d="M47.124 74.844C46.8307 74.844 46.544 74.757 46.3001 74.594C46.0562 74.4311 45.8661 74.1995 45.7539 73.9285C45.6416 73.6575 45.6123 73.3593 45.6695 73.0716C45.7267 72.7839 45.868 72.5197 46.0754 72.3123C46.2828 72.1049 46.547 71.9636 46.8347 71.9064C47.1224 71.8492 47.4206 71.8786 47.6915 71.9908C47.9625 72.1031 48.1941 72.2931 48.3571 72.537C48.5201 72.7809 48.607 73.0676 48.607 73.3609C48.607 73.7543 48.4508 74.1315 48.1727 74.4096C47.8945 74.6877 47.5173 74.844 47.124 74.844ZM47.124 72.1135C46.8773 72.1135 46.6361 72.1867 46.431 72.3238C46.2259 72.4608 46.066 72.6557 45.9716 72.8836C45.8772 73.1115 45.8525 73.3623 45.9006 73.6043C45.9487 73.8463 46.0675 74.0685 46.242 74.243C46.4164 74.4174 46.6387 74.5363 46.8807 74.5844C47.1226 74.6325 47.3734 74.6078 47.6014 74.5134C47.8293 74.419 48.0241 74.2591 48.1612 74.054C48.2983 73.8488 48.3714 73.6077 48.3714 73.3609C48.377 73.1937 48.3489 73.027 48.2887 72.8708C48.2285 72.7146 48.1375 72.5722 48.0211 72.4519C47.9047 72.3316 47.7653 72.236 47.6112 72.1707C47.4571 72.1055 47.2914 72.0719 47.124 72.072V72.1135Z" fill="#E0E0E0"/>
<path d="M42.2915 74.844C41.9982 74.844 41.7115 74.757 41.4676 74.594C41.2237 74.4311 41.0336 74.1995 40.9214 73.9285C40.8091 73.6575 40.7797 73.3593 40.837 73.0716C40.8942 72.7839 41.0354 72.5197 41.2428 72.3123C41.4502 72.1049 41.7145 71.9636 42.0022 71.9064C42.2898 71.8492 42.588 71.8786 42.859 71.9908C43.13 72.1031 43.3616 72.2931 43.5246 72.537C43.6875 72.7809 43.7745 73.0676 43.7745 73.3609C43.7745 73.7543 43.6183 74.1315 43.3401 74.4096C43.062 74.6877 42.6848 74.844 42.2915 74.844ZM42.2915 72.1135C42.0448 72.1135 41.8036 72.1867 41.5985 72.3238C41.3933 72.4608 41.2335 72.6557 41.139 72.8836C41.0446 73.1115 41.0199 73.3623 41.0681 73.6043C41.1162 73.8463 41.235 74.0685 41.4094 74.243C41.5839 74.4174 41.8062 74.5363 42.0481 74.5844C42.2901 74.6325 42.5409 74.6078 42.7689 74.5134C42.9968 74.419 43.1916 74.2591 43.3287 74.054C43.4657 73.8488 43.5389 73.6077 43.5389 73.3609C43.5445 73.1937 43.5163 73.027 43.4561 72.8708C43.396 72.7146 43.305 72.5722 43.1886 72.4519C43.0722 72.3316 42.9328 72.236 42.7787 72.1707C42.6245 72.1055 42.4589 72.0719 42.2915 72.072V72.1135Z" fill="#E0E0E0"/>
<path d="M37.4543 74.844C37.161 74.844 36.8743 74.757 36.6304 74.594C36.3865 74.4311 36.1965 74.1995 36.0842 73.9285C35.972 73.6575 35.9426 73.3593 35.9998 73.0716C36.057 72.7839 36.1983 72.5197 36.4057 72.3123C36.6131 72.1049 36.8773 71.9636 37.165 71.9064C37.4527 71.8492 37.7509 71.8786 38.0219 71.9908C38.2929 72.1031 38.5245 72.2931 38.6874 72.537C38.8504 72.7809 38.9374 73.0676 38.9374 73.3609C38.9374 73.7543 38.7811 74.1315 38.503 74.4096C38.2249 74.6877 37.8477 74.844 37.4543 74.844ZM37.4543 72.1135C37.2076 72.1135 36.9665 72.1867 36.7613 72.3238C36.5562 72.4608 36.3963 72.6557 36.3019 72.8836C36.2075 73.1115 36.1828 73.3623 36.2309 73.6043C36.279 73.8463 36.3978 74.0685 36.5723 74.243C36.7467 74.4174 36.969 74.5363 37.211 74.5844C37.453 74.6325 37.7038 74.6078 37.9317 74.5134C38.1596 74.419 38.3544 74.2591 38.4915 74.054C38.6286 73.8488 38.7017 73.6077 38.7017 73.3609C38.7073 73.1937 38.6792 73.027 38.619 72.8708C38.5588 72.7146 38.4678 72.5722 38.3514 72.4519C38.235 72.3316 38.0956 72.236 37.9415 72.1707C37.7874 72.1055 37.6217 72.0719 37.4543 72.072V72.1135Z" fill="#E0E0E0"/>
<path d="M123.682 134.627H34.3358C33.8571 134.626 33.3984 134.435 33.0599 134.097C32.7213 133.758 32.5306 133.299 32.5294 132.821V77.1543H125.484V132.821C125.484 133.299 125.294 133.758 124.956 134.096C124.619 134.435 124.16 134.626 123.682 134.627Z" fill="#F0F0F0"/>
<path d="M63.0446 27.6462H30.492C29.9937 27.645 29.5161 27.4465 29.1638 27.0941C28.8114 26.7417 28.6129 26.2642 28.6117 25.7659C28.6141 25.2683 28.8132 24.792 29.1654 24.4406C29.5176 24.0892 29.9945 23.8914 30.492 23.8901H63.0538C63.5505 23.8926 64.0262 24.091 64.3774 24.4422C64.7287 24.7934 64.9271 25.2691 64.9295 25.7659C64.9283 26.265 64.7291 26.7432 64.3758 27.0957C64.0224 27.4482 63.5437 27.6462 63.0446 27.6462Z" fill="#E0E0E0"/>
<path d="M76.5673 35.5185L30.5844 35.3337C30.091 35.324 29.621 35.1212 29.2754 34.7687C28.9299 34.4163 28.7364 33.9423 28.7365 33.4487C28.7389 32.9508 28.9387 32.4742 29.2921 32.1235C29.6454 31.7727 30.1235 31.5764 30.6214 31.5776L76.5996 31.7624C77.0972 31.7661 77.5731 31.9663 77.9236 32.3194C78.2741 32.6725 78.4708 33.1499 78.4707 33.6474C78.4695 33.8955 78.4193 34.1409 78.3228 34.3695C78.2263 34.5981 78.0855 34.8053 77.9086 34.9792C77.7316 35.1532 77.522 35.2904 77.2918 35.3829C77.0616 35.4755 76.8154 35.5216 76.5673 35.5185Z" fill="#F0F0F0"/>
<path d="M52.0905 44.218H30.492C29.9937 44.2168 29.5161 44.0183 29.1638 43.6659C28.8114 43.3135 28.6129 42.836 28.6117 42.3376C28.6141 41.8401 28.8132 41.3637 29.1654 41.0124C29.5176 40.661 29.9945 40.4631 30.492 40.4619H52.0998C52.5973 40.4631 53.0742 40.661 53.4264 41.0124C53.7786 41.3637 53.9777 41.8401 53.9801 42.3376C53.9795 42.5852 53.9302 42.8302 53.8349 43.0586C53.7396 43.2871 53.6002 43.4945 53.4248 43.6692C53.2493 43.8438 53.0412 43.9821 52.8122 44.0763C52.5833 44.1704 52.3381 44.2186 52.0905 44.218Z" fill="#E6E6E6"/>
<path d="M201.358 97.3803H191.328C190.949 97.3791 190.586 97.2284 190.318 96.9611C190.05 96.6938 189.898 96.3314 189.896 95.9527C189.898 95.5736 190.05 95.2107 190.318 94.9427C190.586 94.6746 190.949 94.5229 191.328 94.5205H201.358C201.737 94.5229 202.099 94.6748 202.366 94.943C202.634 95.2112 202.784 95.574 202.786 95.9527C202.784 96.331 202.634 96.6934 202.366 96.9608C202.099 97.2283 201.736 97.3791 201.358 97.3803Z" fill="#E0E0E0"/>
<path d="M206.121 100.628H191.323C190.535 100.628 189.896 101.268 189.896 102.056V102.061C189.896 102.849 190.535 103.488 191.323 103.488H206.121C206.91 103.488 207.549 102.849 207.549 102.061V102.056C207.549 101.268 206.91 100.628 206.121 100.628Z" fill="#F0F0F0"/>
<path d="M197.468 109.997H191.328C191.139 109.999 190.952 109.963 190.778 109.892C190.603 109.821 190.444 109.716 190.309 109.583C190.175 109.451 190.068 109.293 189.995 109.119C189.922 108.945 189.883 108.759 189.882 108.57C189.885 108.191 190.036 107.828 190.304 107.56C190.572 107.292 190.935 107.14 191.314 107.138H197.454C197.834 107.139 198.197 107.29 198.466 107.559C198.734 107.827 198.885 108.19 198.886 108.57C198.885 108.947 198.736 109.308 198.47 109.575C198.205 109.842 197.845 109.994 197.468 109.997Z" fill="#E6E6E6"/>
<path d="M201.691 116.101H191.328C190.949 116.099 190.586 115.949 190.318 115.681C190.05 115.414 189.898 115.052 189.896 114.673C189.898 114.294 190.05 113.931 190.318 113.663C190.586 113.395 190.949 113.243 191.328 113.241H201.691C202.069 113.243 202.432 113.395 202.699 113.663C202.966 113.931 203.117 114.294 203.118 114.673C203.117 115.051 202.966 115.414 202.699 115.681C202.431 115.948 202.069 116.099 201.691 116.101Z" fill="#F0F0F0"/>
<path d="M200.046 122.615H191.328C190.949 122.614 190.586 122.463 190.318 122.196C190.05 121.929 189.898 121.566 189.896 121.188C189.898 120.808 190.05 120.446 190.318 120.178C190.586 119.909 190.949 119.758 191.328 119.755H200.046C200.425 119.758 200.788 119.909 201.056 120.178C201.324 120.446 201.476 120.808 201.478 121.188C201.476 121.566 201.324 121.929 201.056 122.196C200.787 122.463 200.425 122.614 200.046 122.615Z" fill="#E6E6E6"/>
<path d="M166.99 104.916H137.177C136.798 104.915 136.435 104.763 136.167 104.495C135.9 104.226 135.75 103.863 135.75 103.484C135.751 103.105 135.902 102.743 136.169 102.476C136.436 102.208 136.799 102.057 137.177 102.056H166.99C167.368 102.057 167.731 102.208 167.998 102.476C168.266 102.743 168.416 103.105 168.418 103.484C168.418 103.863 168.267 104.226 168 104.495C167.732 104.763 167.369 104.915 166.99 104.916Z" fill="#E0E0E0"/>
<path d="M179.057 111.019H137.177C136.799 111.018 136.436 110.867 136.169 110.599C135.902 110.332 135.751 109.97 135.75 109.591C135.75 109.212 135.9 108.849 136.167 108.58C136.435 108.312 136.798 108.16 137.177 108.159H179.057C179.437 108.16 179.8 108.312 180.069 108.58C180.337 108.848 180.488 109.212 180.49 109.591C180.487 109.97 180.335 110.332 180.067 110.6C179.799 110.867 179.436 111.018 179.057 111.019Z" fill="#F0F0F0"/>
<path d="M157.136 117.533H137.177C136.798 117.532 136.435 117.38 136.167 117.112C135.9 116.844 135.75 116.48 135.75 116.101C135.751 115.723 135.902 115.36 136.169 115.093C136.436 114.825 136.799 114.675 137.177 114.673H157.136C157.514 114.675 157.877 114.825 158.145 115.093C158.413 115.36 158.565 115.722 158.568 116.101C158.566 116.48 158.415 116.844 158.147 117.112C157.879 117.381 157.515 117.532 157.136 117.533Z" fill="#E6E6E6"/>
<path d="M167.831 123.636H137.177C136.798 123.635 136.435 123.483 136.167 123.215C135.9 122.947 135.75 122.583 135.75 122.204C135.751 121.826 135.902 121.463 136.169 121.196C136.436 120.928 136.799 120.778 137.177 120.776H167.831C168.21 120.776 168.573 120.927 168.842 121.194C169.11 121.462 169.262 121.825 169.263 122.204C169.263 122.392 169.226 122.578 169.154 122.752C169.082 122.926 168.977 123.084 168.844 123.217C168.711 123.35 168.553 123.455 168.379 123.527C168.205 123.599 168.019 123.636 167.831 123.636Z" fill="#F0F0F0"/>
<path d="M163.608 130.15H137.177C136.798 130.149 136.435 129.998 136.167 129.729C135.9 129.461 135.75 129.097 135.75 128.718C135.751 128.34 135.902 127.977 136.169 127.71C136.436 127.443 136.799 127.292 137.177 127.291H163.608C163.986 127.292 164.349 127.443 164.616 127.71C164.884 127.977 165.034 128.34 165.036 128.718C165.036 129.097 164.885 129.461 164.618 129.729C164.35 129.998 163.987 130.149 163.608 130.15Z" fill="#E6E6E6"/>
<path d="M115.5 197.533C164.972 197.533 205.077 195.191 205.077 192.303C205.077 189.415 164.972 187.073 115.5 187.073C66.0279 187.073 25.9229 189.415 25.9229 192.303C25.9229 195.191 66.0279 197.533 115.5 197.533Z" fill="#F5F5F5"/>
<path opacity="0.7" d="M161.871 160.674H104.934C103.043 160.686 101.17 160.308 99.4311 159.565C97.6921 158.823 96.1243 157.731 94.8247 156.357C93.5252 154.984 92.5217 153.358 91.8765 151.58C91.2313 149.803 90.9582 147.912 91.074 146.024L95.9435 53.0884C96.3454 45.0311 103.28 38.4384 111.342 38.4384H168.279C170.172 38.4241 172.047 38.7992 173.789 39.5404C175.531 40.2816 177.101 41.3731 178.403 42.747C179.705 44.121 180.711 45.748 181.358 47.5271C182.004 49.3061 182.278 51.1991 182.162 53.0884L177.288 146.024C176.867 154.082 169.928 160.674 161.871 160.674Z" fill="#407BFF"/>
<path d="M128.247 33.084H124.703V33.546H128.247V33.084Z" fill="#407BFF"/>
<path d="M121.677 33.084H109.355V33.546H121.677V33.084Z" fill="#407BFF"/>
<path d="M89.7889 64.7742L89.6035 68.2759L90.0649 68.3003L90.2502 64.7986L89.7889 64.7742Z" fill="#407BFF"/>
<path opacity="0.6" d="M158.595 157.404H101.64C99.7494 157.415 97.8768 157.038 96.1382 156.295C94.3995 155.553 92.8319 154.461 91.5324 153.088C90.2329 151.715 89.2293 150.09 88.5839 148.313C87.9384 146.536 87.6647 144.645 87.7799 142.758L92.654 49.8179C93.0744 41.7606 100.014 35.1679 108.071 35.1679H165.003C166.896 35.1535 168.772 35.5287 170.513 36.2699C172.255 37.0111 173.826 38.1026 175.128 39.4765C176.43 40.8505 177.435 42.4775 178.082 44.2566C178.728 46.0356 179.002 47.9286 178.886 49.8179L174.017 142.758C173.592 150.811 166.653 157.404 158.595 157.404Z" fill="#407BFF"/>
<path d="M112.308 144.25C98.771 144.25 86.3154 138.979 77.2325 129.411C68.1496 119.843 63.5111 107.069 64.2226 93.5043C64.7182 84.5023 67.5095 75.7771 72.3307 68.1589C77.0514 60.6917 83.497 54.4679 91.1249 50.0116C91.153 50 91.1845 50 91.2126 50.0116C91.2433 50.0203 91.2696 50.0401 91.2866 50.067L95.9481 58.9605C96.1145 58.8681 96.2808 58.7757 96.4517 58.688L96.6319 58.5863C96.6604 58.5771 96.6911 58.5771 96.7197 58.5863C96.7348 58.5908 96.7489 58.5985 96.7608 58.6088C96.7728 58.6192 96.7824 58.632 96.789 58.6464L98.0641 61.0719C98.0774 61.0984 98.0801 61.129 98.0715 61.1573C98.0629 61.1857 98.0437 61.2097 98.0179 61.2243C86.1584 67.854 78.3552 80.231 77.6622 93.532C77.1355 103.502 80.5312 112.876 87.221 119.921C90.5403 123.41 94.5418 126.179 98.9768 128.055C103.412 129.932 108.185 130.876 113.001 130.829C113.016 130.829 113.032 130.832 113.046 130.838C113.061 130.845 113.073 130.854 113.084 130.866C113.095 130.877 113.104 130.89 113.109 130.904C113.115 130.918 113.117 130.934 113.116 130.949L112.423 144.163C112.418 144.189 112.403 144.212 112.382 144.228C112.36 144.244 112.334 144.252 112.308 144.25ZM91.1341 50.2749C75.597 59.3763 65.373 75.9344 64.449 93.5135C63.7421 107.018 68.3436 119.709 77.385 129.249C86.4263 138.789 98.7525 143.992 112.187 144.033L112.867 131.056C108.041 131.085 103.26 130.127 98.818 128.239C94.3765 126.351 90.3684 123.574 87.0408 120.078C80.3094 112.982 76.8768 103.548 77.4173 93.5181C78.1149 80.1756 85.9181 67.7524 97.7915 61.0719L96.6273 58.8497L96.5441 58.8959C96.3455 59.0021 96.1422 59.1084 95.9481 59.2239C95.9185 59.2357 95.8854 59.2357 95.8557 59.2239C95.8264 59.2149 95.8016 59.1951 95.7864 59.1684L91.1341 50.2749Z" fill="#407BFF"/>
<path d="M115.597 149.069C115.564 149.069 115.532 149.056 115.509 149.032C115.499 149.02 115.491 149.006 115.487 148.991C115.482 148.976 115.48 148.96 115.482 148.944L116.221 134.812C116.223 134.783 116.236 134.756 116.258 134.736C116.279 134.716 116.307 134.705 116.336 134.705C138.351 134.705 157.2 116.794 158.355 94.7748C158.357 94.7458 158.371 94.7187 158.392 94.699C158.413 94.6793 158.442 94.6685 158.471 94.6686H161.834C161.849 94.6679 161.864 94.6703 161.878 94.6756C161.892 94.6809 161.905 94.689 161.915 94.6993C161.926 94.7097 161.935 94.7221 161.941 94.7359C161.946 94.7497 161.95 94.7645 161.95 94.7794C161.977 95.9252 161.95 97.0894 161.908 98.2213H172.298C172.314 98.221 172.33 98.2241 172.344 98.2305C172.358 98.2368 172.371 98.2464 172.381 98.2583C172.403 98.2843 172.414 98.3171 172.414 98.3507C170.776 111.652 164.549 123.964 154.807 133.167C144.167 143.271 129.877 149.069 115.597 149.069ZM116.447 134.936L115.717 148.838C129.901 148.806 144.084 143.035 154.645 132.996C164.319 123.864 170.514 111.652 172.169 98.4523H161.788C161.771 98.4524 161.753 98.4482 161.738 98.4401C161.723 98.4321 161.71 98.4204 161.7 98.4061C161.688 98.3959 161.679 98.383 161.674 98.3685C161.668 98.354 161.666 98.3384 161.668 98.323C161.728 97.1865 161.742 96.013 161.719 94.8903H158.577C157.366 116.946 138.498 134.876 116.447 134.936Z" fill="#407BFF"/>
<path d="M161.834 94.8996C161.804 94.8984 161.775 94.8859 161.754 94.8645C161.732 94.8431 161.72 94.8144 161.718 94.7841C161.132 71.4392 142.314 53.1533 118.859 53.1533C111.135 53.1715 103.536 55.105 96.7428 58.7804C96.7296 58.7884 96.7149 58.7936 96.6996 58.7955C96.6843 58.7975 96.6688 58.7963 96.654 58.792C96.6393 58.7876 96.6256 58.7802 96.6138 58.7703C96.602 58.7604 96.5924 58.7481 96.5857 58.7342C96.5721 58.7071 96.5693 58.6757 96.5779 58.6466C96.5865 58.6175 96.6058 58.5926 96.6319 58.5772C103.459 54.8835 111.096 52.9405 118.859 52.9223C130.114 52.7924 140.963 57.1215 149.036 64.9641C157.11 72.8067 161.752 83.5255 161.949 94.7795C161.95 94.7946 161.948 94.8098 161.942 94.824C161.937 94.8383 161.929 94.8514 161.919 94.8625C161.909 94.8737 161.896 94.8827 161.882 94.889C161.869 94.8954 161.854 94.899 161.839 94.8996H161.834Z" fill="#407BFF"/>
<path d="M177.778 98.4522H172.298C172.268 98.4522 172.238 98.4401 172.217 98.4184C172.195 98.3967 172.183 98.3674 172.183 98.3367C172.183 98.3061 172.195 98.2767 172.217 98.2551C172.238 98.2334 172.268 98.2212 172.298 98.2212H177.667C178.233 87.6596 175.956 77.1394 171.074 67.757C163.918 54.1418 151.707 44.195 136.687 39.7413C120.711 35.0012 103.705 36.9693 88.7871 45.2853L91.2865 50.0439C91.2997 50.0716 91.3018 50.1033 91.2924 50.1325C91.2829 50.1617 91.2626 50.1862 91.2357 50.201C91.2221 50.2081 91.2072 50.2125 91.1919 50.2138C91.1765 50.2151 91.1611 50.2133 91.1465 50.2086C91.1318 50.2038 91.1183 50.1962 91.1067 50.1862C91.095 50.1762 91.0855 50.1639 91.0786 50.1501L88.533 45.2945C88.5258 45.2815 88.5213 45.2672 88.5197 45.2524C88.5181 45.2377 88.5195 45.2227 88.5238 45.2085C88.5281 45.1943 88.5352 45.1811 88.5448 45.1697C88.5543 45.1582 88.566 45.1489 88.5792 45.1421C96.0217 40.9507 104.237 38.3118 112.728 37.3851C120.798 36.4855 128.967 37.2112 136.752 39.5195C151.832 43.9917 164.093 53.9801 171.277 67.6507C176.197 77.1017 178.482 87.7028 177.893 98.3414C177.892 98.3712 177.879 98.3994 177.858 98.4201C177.836 98.4407 177.807 98.4523 177.778 98.4522Z" fill="#407BFF"/>
<path d="M95.902 59.2236H95.8696C95.8403 59.2146 95.8155 59.1948 95.8003 59.1682L91.0787 50.1684C91.0646 50.1408 91.0621 50.1088 91.0716 50.0793C91.0811 50.0499 91.102 50.0254 91.1295 50.0113C91.1571 49.9972 91.1891 49.9947 91.2186 50.0042C91.248 50.0137 91.2725 50.0346 91.2866 50.0621L95.9482 58.9556C96.1145 58.8632 96.2808 58.7708 96.4518 58.6831L96.6319 58.5814C96.6456 58.5743 96.6605 58.5699 96.6758 58.5686C96.6911 58.5673 96.7065 58.5691 96.7212 58.5738C96.7358 58.5785 96.7493 58.5861 96.761 58.5962C96.7726 58.6062 96.7822 58.6185 96.789 58.6322C96.7962 58.6452 96.8008 58.6595 96.8024 58.6743C96.8039 58.6891 96.8025 58.704 96.7982 58.7183C96.7939 58.7325 96.7868 58.7457 96.7773 58.7571C96.7678 58.7685 96.756 58.7779 96.7428 58.7847L96.558 58.8863C96.3594 58.9926 96.1561 59.0989 95.9621 59.2144C95.943 59.2222 95.9225 59.2253 95.902 59.2236Z" fill="#407BFF"/>
<g opacity="0.3">
<path opacity="0.3" d="M112.308 144.25C98.771 144.25 86.3154 138.979 77.2325 129.411C68.1496 119.843 63.5111 107.069 64.2226 93.5043C64.7182 84.5023 67.5095 75.7771 72.3307 68.1589C77.0514 60.6917 83.497 54.4679 91.1249 50.0116C91.153 50 91.1845 50 91.2126 50.0116C91.2433 50.0203 91.2696 50.0401 91.2866 50.067L95.9481 58.9605C96.1145 58.8681 96.2808 58.7757 96.4517 58.688L96.6319 58.5863C96.6604 58.5771 96.6911 58.5771 96.7197 58.5863C96.7348 58.5908 96.7489 58.5985 96.7608 58.6088C96.7728 58.6192 96.7824 58.632 96.789 58.6464L98.0641 61.0719C98.0774 61.0984 98.0801 61.129 98.0715 61.1573C98.0629 61.1857 98.0437 61.2097 98.0179 61.2243C86.1584 67.854 78.3552 80.231 77.6622 93.532C77.1355 103.502 80.5312 112.876 87.221 119.921C90.5403 123.41 94.5418 126.179 98.9768 128.055C103.412 129.932 108.185 130.876 113.001 130.829C113.016 130.829 113.032 130.832 113.046 130.838C113.061 130.845 113.073 130.854 113.084 130.866C113.095 130.877 113.104 130.89 113.109 130.904C113.115 130.918 113.117 130.934 113.116 130.949L112.423 144.163C112.418 144.189 112.403 144.212 112.382 144.228C112.36 144.244 112.334 144.252 112.308 144.25ZM91.1341 50.2749C75.597 59.3763 65.373 75.9344 64.449 93.5135C63.7421 107.018 68.3436 119.709 77.385 129.249C86.4263 138.789 98.7525 143.992 112.187 144.033L112.867 131.056C108.041 131.085 103.26 130.127 98.818 128.239C94.3765 126.351 90.3684 123.574 87.0408 120.078C80.3094 112.982 76.8768 103.548 77.4173 93.5181C78.1149 80.1756 85.9181 67.7524 97.7915 61.0719L96.6273 58.8497L96.5441 58.8959C96.3455 59.0021 96.1422 59.1084 95.9481 59.2239C95.9185 59.2357 95.8854 59.2357 95.8557 59.2239C95.8264 59.2149 95.8016 59.1951 95.7864 59.1684L91.1341 50.2749Z" fill="white"/>
<path opacity="0.3" d="M115.597 149.069C115.564 149.069 115.532 149.056 115.509 149.032C115.499 149.02 115.491 149.006 115.487 148.991C115.482 148.976 115.48 148.96 115.482 148.944L116.221 134.812C116.223 134.783 116.236 134.756 116.258 134.736C116.279 134.716 116.307 134.705 116.336 134.705C138.351 134.705 157.2 116.794 158.355 94.7748C158.357 94.7458 158.371 94.7187 158.392 94.699C158.413 94.6793 158.442 94.6685 158.471 94.6686H161.834C161.849 94.6679 161.864 94.6703 161.878 94.6756C161.892 94.6809 161.905 94.689 161.915 94.6993C161.926 94.7097 161.935 94.7221 161.941 94.7359C161.946 94.7497 161.95 94.7645 161.95 94.7794C161.977 95.9252 161.95 97.0894 161.908 98.2213H172.298C172.314 98.221 172.33 98.2241 172.344 98.2305C172.358 98.2368 172.371 98.2464 172.381 98.2583C172.403 98.2843 172.414 98.3171 172.414 98.3507C170.776 111.652 164.549 123.964 154.807 133.167C144.167 143.271 129.877 149.069 115.597 149.069ZM116.447 134.936L115.717 148.838C129.901 148.806 144.084 143.035 154.645 132.996C164.319 123.864 170.514 111.652 172.169 98.4523H161.788C161.771 98.4524 161.753 98.4482 161.738 98.4401C161.723 98.4321 161.71 98.4204 161.7 98.4061C161.688 98.3959 161.679 98.383 161.674 98.3685C161.668 98.354 161.666 98.3384 161.668 98.323C161.728 97.1865 161.742 96.013 161.719 94.8903H158.577C157.366 116.946 138.498 134.876 116.447 134.936Z" fill="white"/>
<path opacity="0.3" d="M161.834 94.8996C161.804 94.8984 161.775 94.8859 161.754 94.8645C161.732 94.8431 161.72 94.8144 161.718 94.7841C161.132 71.4392 142.314 53.1533 118.859 53.1533C111.135 53.1715 103.536 55.105 96.7428 58.7804C96.7296 58.7884 96.7149 58.7936 96.6996 58.7955C96.6843 58.7975 96.6688 58.7963 96.654 58.792C96.6393 58.7876 96.6256 58.7802 96.6138 58.7703C96.602 58.7604 96.5924 58.7481 96.5857 58.7342C96.5721 58.7071 96.5693 58.6757 96.5779 58.6466C96.5865 58.6175 96.6058 58.5926 96.6319 58.5772C103.459 54.8835 111.096 52.9405 118.859 52.9223C130.114 52.7924 140.963 57.1215 149.036 64.9641C157.11 72.8067 161.752 83.5255 161.949 94.7795C161.95 94.7946 161.948 94.8098 161.942 94.824C161.937 94.8383 161.929 94.8514 161.919 94.8625C161.909 94.8737 161.896 94.8827 161.882 94.889C161.869 94.8954 161.854 94.899 161.839 94.8996H161.834Z" fill="white"/>
<path opacity="0.3" d="M177.778 98.4522H172.298C172.268 98.4522 172.238 98.4401 172.217 98.4184C172.195 98.3967 172.183 98.3674 172.183 98.3367C172.183 98.3061 172.195 98.2767 172.217 98.2551C172.238 98.2334 172.268 98.2212 172.298 98.2212H177.667C178.233 87.6596 175.956 77.1394 171.074 67.757C163.918 54.1418 151.707 44.195 136.687 39.7413C120.711 35.0012 103.705 36.9693 88.7871 45.2853L91.2865 50.0439C91.2997 50.0716 91.3018 50.1033 91.2924 50.1325C91.2829 50.1617 91.2626 50.1862 91.2357 50.201C91.2221 50.2081 91.2072 50.2125 91.1919 50.2138C91.1765 50.2151 91.1611 50.2133 91.1465 50.2086C91.1318 50.2038 91.1183 50.1962 91.1067 50.1862C91.095 50.1762 91.0855 50.1639 91.0786 50.1501L88.533 45.2945C88.5258 45.2815 88.5213 45.2672 88.5197 45.2524C88.5181 45.2377 88.5195 45.2227 88.5238 45.2085C88.5281 45.1943 88.5352 45.1811 88.5448 45.1697C88.5543 45.1582 88.566 45.1489 88.5792 45.1421C96.0217 40.9507 104.237 38.3118 112.728 37.3851C120.798 36.4855 128.967 37.2112 136.752 39.5195C151.832 43.9917 164.093 53.9801 171.277 67.6507C176.197 77.1017 178.482 87.7028 177.893 98.3414C177.892 98.3712 177.879 98.3994 177.858 98.4201C177.836 98.4407 177.807 98.4523 177.778 98.4522Z" fill="white"/>
<path opacity="0.3" d="M95.902 59.2236H95.8696C95.8403 59.2146 95.8155 59.1948 95.8003 59.1682L91.0787 50.1684C91.0646 50.1408 91.0621 50.1088 91.0716 50.0793C91.0811 50.0499 91.102 50.0254 91.1295 50.0113C91.1571 49.9972 91.1891 49.9947 91.2186 50.0042C91.248 50.0137 91.2725 50.0346 91.2866 50.0621L95.9482 58.9556C96.1145 58.8632 96.2808 58.7708 96.4518 58.6831L96.6319 58.5814C96.6456 58.5743 96.6605 58.5699 96.6758 58.5686C96.6911 58.5673 96.7065 58.5691 96.7212 58.5738C96.7358 58.5785 96.7493 58.5861 96.761 58.5962C96.7726 58.6062 96.7822 58.6185 96.789 58.6322C96.7962 58.6452 96.8008 58.6595 96.8024 58.6743C96.8039 58.6891 96.8025 58.704 96.7982 58.7183C96.7939 58.7325 96.7868 58.7457 96.7773 58.7571C96.7678 58.7685 96.756 58.7779 96.7428 58.7847L96.558 58.8863C96.3594 58.9926 96.1561 59.0989 95.9621 59.2144C95.943 59.2222 95.9225 59.2253 95.902 59.2236Z" fill="white"/>
</g>
<path d="M115.883 125.059L115.421 133.546C97.4542 133.546 83.645 118.974 84.5875 101.012C85.2204 88.9719 92.3168 78.4521 102.338 72.8296L106.2 80.18C102.437 82.267 99.2616 85.2699 96.9681 88.9105C94.6745 92.5512 93.3368 96.7118 93.0791 101.007C92.3999 114.289 102.606 125.059 115.883 125.059Z" fill="#407BFF"/>
<path opacity="0.6" d="M115.883 125.059L115.421 133.546C97.4542 133.546 83.645 118.974 84.5875 101.012C85.2204 88.9719 92.3168 78.4521 102.338 72.8296L106.2 80.18C102.437 82.267 99.2616 85.2699 96.9681 88.9105C94.6745 92.5512 93.3368 96.7118 93.0791 101.007C92.3999 114.289 102.606 125.059 115.883 125.059Z" fill="black"/>
<path d="M154.188 101.83C153.606 111.186 149.505 119.976 142.709 126.434C135.913 132.891 126.925 136.538 117.551 136.641L118.013 127.558C132.22 127.558 144.347 116.036 145.091 101.83H154.188Z" fill="#407BFF"/>
<path opacity="0.3" d="M154.188 101.83C153.606 111.186 149.505 119.976 142.709 126.434C135.913 132.891 126.925 136.538 117.551 136.641L118.013 127.558C132.22 127.558 144.347 116.036 145.091 101.83H154.188Z" fill="black"/>
<path d="M157.51 104.116H147.235C148.076 88.025 135.722 75.0105 119.649 75.0105C114.47 75.0087 109.379 76.3506 104.874 78.9051L100.203 70.0024C119.482 59.2009 143.419 65.7151 153.25 84.4261C156.412 90.4882 157.883 97.2896 157.51 104.116Z" fill="#FAFAFA"/>
<path d="M156.387 129.748H146.925L145.904 149.235H155.366L156.387 129.748Z" fill="#FAFAFA"/>
<path d="M169.891 123.308H160.43L159.071 149.236H168.533L169.891 123.308Z" fill="#407BFF"/>
<path opacity="0.6" d="M169.891 123.308H160.43L159.071 149.236H168.533L169.891 123.308Z" fill="black"/>
<path d="M182.716 129.748H173.255L172.234 149.235H181.695L182.716 129.748Z" fill="#407BFF"/>
<path opacity="0.3" d="M182.716 129.748H173.255L172.234 149.235H181.695L182.716 129.748Z" fill="black"/>
<path d="M181.608 150.894H145.816L145.84 150.45H181.631L181.608 150.894Z" fill="#263238"/>
<path opacity="0.8" d="M186.445 68.4456H145.188L146.408 45.1377H187.669L186.445 68.4456Z" fill="#FAFAFA"/>
<path d="M145.932 54.2205L145.188 68.4455H186.445L187.369 50.7832C180.522 50.7832 176.461 58.5771 167.992 58.5771C159.524 58.5771 157.2 54.2205 145.932 54.2205Z" fill="#407BFF"/>
<path opacity="0.1" d="M145.932 54.2205L145.188 68.4455H186.445L187.369 50.7832C180.522 50.7832 176.461 58.5771 167.992 58.5771C159.524 58.5771 157.2 54.2205 145.932 54.2205Z" fill="black"/>
<path d="M145.576 61.021C154.848 61.021 158.18 55.939 163.386 55.939C168.593 55.939 170.871 61.2843 177.357 61.2843C184.121 61.2843 187.059 57.0801 187.059 57.0801L186.463 68.4545H145.207L145.576 61.021Z" fill="#407BFF"/>
<path opacity="0.5" d="M145.576 61.021C154.848 61.021 158.18 55.939 163.386 55.939C168.593 55.939 170.871 61.2843 177.357 61.2843C184.121 61.2843 187.059 57.0801 187.059 57.0801L186.463 68.4545H145.207L145.576 61.021Z" fill="black"/>
<path d="M63.9824 78.9098C63.3725 79.7276 62.6934 80.6377 62.0789 81.5294C61.4645 82.421 60.8454 83.3312 60.2633 84.2459C59.0987 86.0262 58.079 87.8972 57.2141 89.8407L57.0616 90.1919L56.9877 90.3674C56.9546 90.44 56.9373 90.5187 56.9369 90.5984C56.925 90.9751 56.967 91.3516 57.0616 91.7165C57.3082 92.6892 57.6438 93.6373 58.0641 94.5485C58.9793 96.5446 59.9939 98.4936 61.1041 100.388L59.1036 101.968C57.4158 100.283 55.9105 98.4252 54.613 96.4242C53.9148 95.3474 53.3355 94.198 52.8851 92.9962C52.6182 92.2756 52.4518 91.5216 52.3908 90.7555C52.3566 90.2665 52.3908 89.7751 52.4924 89.2956C52.5201 89.1616 52.5617 89.0184 52.6033 88.8844L52.6772 88.658L52.8251 88.196C53.0145 87.5908 53.2455 87.0225 53.4672 86.445C53.689 85.8675 53.9292 85.3131 54.2203 84.7726C54.7285 83.6684 55.3152 82.6197 55.9112 81.5848C56.5072 80.5499 57.154 79.552 57.8285 78.5772C58.1658 78.0875 58.5123 77.607 58.8634 77.1265C59.2145 76.646 59.5656 76.2025 59.9814 75.6851L63.9824 78.9098Z" fill="#E58A7B"/>
<path d="M60.3787 99.6626L62.8597 100.088L60.6559 103.821C60.6559 103.821 58.9281 102.989 58.6139 101.377L60.3787 99.6626Z" fill="#E58A7B"/>
<path d="M65.5393 101.423L63.5758 104.426L60.656 103.821L62.8597 100.088L65.5393 101.423Z" fill="#E58A7B"/>
<path d="M76.7751 60.7995C76.7751 61.0721 76.9184 61.2939 77.0986 61.2939C77.2787 61.2939 77.422 61.0721 77.422 60.7995C77.422 60.5269 77.2787 60.3052 77.0986 60.3052C76.9184 60.3052 76.7751 60.5223 76.7751 60.7995Z" fill="#263238"/>
<path d="M76.8953 61.2935C77.2223 62.1302 77.6622 62.9183 78.2027 63.6358C78.0158 63.7695 77.802 63.8607 77.5761 63.903C77.3502 63.9453 77.1179 63.9377 76.8953 63.8807V61.2935Z" fill="#DF5753"/>
<path d="M75.8049 59.2839C75.7792 59.2846 75.7537 59.2785 75.731 59.2664C75.7084 59.2542 75.6892 59.2364 75.6756 59.2146C75.6625 59.1979 75.6531 59.1787 75.6479 59.1582C75.6427 59.1377 75.6418 59.1164 75.6453 59.0955C75.6487 59.0747 75.6565 59.0548 75.6681 59.0371C75.6797 59.0194 75.6948 59.0043 75.7125 58.9928C75.9154 58.8374 76.153 58.7334 76.4048 58.69C76.6567 58.6465 76.9154 58.6648 77.1586 58.7433C77.1974 58.7597 77.2284 58.7906 77.2448 58.8294C77.2611 58.8683 77.2617 58.912 77.2464 58.9512C77.2397 58.9711 77.2291 58.9894 77.215 59.0049C77.201 59.0205 77.1839 59.033 77.1649 59.0417C77.1458 59.0504 77.1251 59.055 77.1042 59.0553C77.0832 59.0557 77.0624 59.0517 77.0431 59.0436C76.8494 58.9844 76.6443 58.9724 76.445 59.0086C76.2457 59.0447 76.0579 59.128 75.8973 59.2515C75.8713 59.2728 75.8386 59.2843 75.8049 59.2839Z" fill="#263238"/>
<path d="M67.9371 63.9546C68.4268 66.4402 68.9119 70.9862 67.1748 72.6448C67.1748 72.6448 67.8539 75.1627 72.4693 75.1627C77.5513 75.1627 74.8902 72.6448 74.8902 72.6448C72.1182 71.9842 72.1921 69.9283 72.6772 68.0017L67.9371 63.9546Z" fill="#E58A7B"/>
<path d="M66.5279 73.509C66.163 72.7143 65.7656 71.7996 66.5926 71.5131C67.5166 71.199 72.4924 70.8802 74.211 71.4669C74.4377 71.5298 74.6497 71.637 74.8347 71.7823C75.0197 71.9276 75.174 72.1082 75.2888 72.3136C75.4035 72.519 75.4763 72.7451 75.5031 72.9789C75.5298 73.2126 75.5099 73.4493 75.4445 73.6753L66.5279 73.509Z" fill="#407BFF"/>
<path d="M55.8234 189.42C55.5252 189.418 55.2279 189.386 54.9364 189.323C54.9214 189.32 54.9076 189.313 54.8969 189.302C54.8861 189.292 54.879 189.278 54.8763 189.263C54.8733 189.247 54.8747 189.231 54.8804 189.217C54.8861 189.202 54.8959 189.189 54.9087 189.18C54.9503 189.152 55.8881 188.514 56.3825 188.625C56.4355 188.636 56.4854 188.659 56.5286 188.692C56.5717 188.725 56.607 188.767 56.6319 188.815C56.6715 188.871 56.6928 188.938 56.6928 189.006C56.6928 189.075 56.6715 189.142 56.6319 189.198C56.5186 189.287 56.3888 189.352 56.25 189.39C56.1112 189.428 55.9662 189.438 55.8234 189.42ZM55.1628 189.207C55.671 189.291 56.364 189.291 56.5072 189.096C56.5072 189.096 56.5673 189.023 56.5072 188.893C56.4922 188.865 56.4712 188.84 56.4457 188.821C56.4201 188.802 56.3906 188.789 56.3594 188.782C55.9262 188.805 55.5096 188.956 55.1628 189.217V189.207Z" fill="#407BFF"/>
<path d="M54.978 189.337C54.9645 189.342 54.9499 189.342 54.9364 189.337C54.9236 189.33 54.9132 189.319 54.9066 189.306C54.9 189.293 54.8975 189.278 54.8994 189.263C54.8994 189.222 54.9826 188.242 55.3614 187.919C55.4088 187.88 55.4635 187.851 55.5222 187.834C55.5809 187.816 55.6424 187.811 55.7033 187.817C55.7644 187.817 55.8236 187.838 55.8708 187.877C55.918 187.916 55.9502 187.97 55.962 188.03C56.0313 188.408 55.3522 189.148 55.0011 189.342L54.978 189.337ZM55.6617 187.951C55.594 187.952 55.5288 187.977 55.4769 188.02C55.2407 188.327 55.1008 188.697 55.075 189.083C55.4261 188.82 55.8604 188.261 55.8188 188.034C55.8188 188.034 55.8188 187.965 55.6987 187.951H55.6617Z" fill="#407BFF"/>
<path d="M76.2023 189.42C75.8535 189.42 75.5055 189.388 75.1628 189.323C75.1463 189.321 75.131 189.314 75.1193 189.302C75.1075 189.29 75.1001 189.275 75.0981 189.258C75.0955 189.242 75.0976 189.226 75.1042 189.211C75.1108 189.197 75.1215 189.184 75.1351 189.175C75.1859 189.147 76.3732 188.473 76.9369 188.625C76.9902 188.637 77.0404 188.66 77.0841 188.693C77.1279 188.726 77.1643 188.767 77.191 188.815C77.2278 188.866 77.2477 188.927 77.2477 188.99C77.2477 189.053 77.2278 189.115 77.191 189.166C77.057 189.369 76.6366 189.42 76.2023 189.42ZM75.4215 189.208C76.0591 189.295 76.9138 189.281 77.0709 189.069C77.0709 189.041 77.1078 188.995 77.0709 188.893C77.054 188.865 77.0312 188.84 77.0042 188.821C76.9771 188.802 76.9463 188.789 76.9138 188.783C76.5257 188.69 75.768 189.032 75.4215 189.217V189.208Z" fill="#407BFF"/>
<path d="M75.1766 189.337C75.1615 189.342 75.1454 189.342 75.1304 189.337C75.1188 189.329 75.1097 189.317 75.104 189.304C75.0983 189.291 75.0962 189.277 75.098 189.263C75.1281 188.782 75.3128 188.323 75.6247 187.956C75.6867 187.9 75.7603 187.858 75.8401 187.834C75.92 187.81 76.0043 187.804 76.0867 187.817C76.3085 187.84 76.3732 187.951 76.387 188.043C76.4471 188.427 75.6386 189.161 75.2274 189.342L75.1766 189.337ZM76.0036 187.951C75.901 187.95 75.8018 187.988 75.7264 188.057C75.466 188.348 75.3043 188.713 75.2644 189.101C75.6802 188.852 76.2346 188.274 76.1884 188.043C76.1884 188.043 76.1884 187.969 76.0313 187.951H76.0036Z" fill="#407BFF"/>
<path d="M71.4437 189.254H74.8394L75.1767 181.395H71.781L71.4437 189.254Z" fill="#E58A7B"/>
<path d="M51.0648 189.254H54.4605L56.1653 181.395H52.7742L51.0648 189.254Z" fill="#E58A7B"/>
<path d="M54.7008 188.861H50.8893C50.8213 188.861 50.7554 188.885 50.7025 188.928C50.6497 188.971 50.6129 189.03 50.5982 189.096L49.9283 192.113C49.913 192.187 49.9145 192.263 49.9326 192.336C49.9507 192.408 49.9851 192.476 50.033 192.534C50.081 192.592 50.1413 192.638 50.2096 192.669C50.2778 192.7 50.3523 192.716 50.4273 192.714C51.7579 192.691 52.4047 192.612 54.0817 192.612C55.112 192.612 57.2372 192.723 58.6648 192.723C60.0923 192.723 60.2725 191.337 59.6904 191.185C57.0755 190.612 56.0914 189.822 55.2506 189.073C55.1008 188.935 54.9044 188.86 54.7008 188.861Z" fill="#263238"/>
<path d="M74.8162 188.861H71.1202C71.0522 188.861 70.9864 188.885 70.9335 188.928C70.8806 188.971 70.8438 189.03 70.8292 189.096L70.1593 192.113C70.1432 192.186 70.1439 192.262 70.1611 192.334C70.1784 192.407 70.2118 192.474 70.2589 192.532C70.306 192.59 70.3656 192.636 70.4331 192.668C70.5007 192.699 70.5745 192.715 70.649 192.714C71.9842 192.691 73.9153 192.612 75.597 192.612C77.5605 192.612 79.2607 192.723 81.5614 192.723C82.9474 192.723 83.3447 191.337 82.7626 191.185C80.1061 190.603 77.9393 190.543 75.6432 189.129C75.3987 188.963 75.1118 188.87 74.8162 188.861Z" fill="#263238"/>
<path d="M79.3023 74.5806C81.2889 75.56 83.354 76.5625 85.3914 77.5004C87.4289 78.4383 89.4894 79.3484 91.536 80.1292L92.2983 80.4018L92.4924 80.4711H92.5386C92.5386 80.4711 92.5386 80.4711 92.5617 80.4942C92.8381 80.5228 93.1174 80.4897 93.3794 80.3972C94.2983 80.0906 95.1764 79.6733 95.9943 79.1544C97.8616 77.9815 99.6559 76.6963 101.367 75.3059L103.238 77.0338C101.813 79.0061 100.155 80.7993 98.2997 82.3745C97.2818 83.2535 96.1429 83.9817 94.9179 84.5367C94.1151 84.9001 93.2443 85.0891 92.363 85.0911C92.0838 85.0858 91.8056 85.0564 91.5314 85.0033L91.3097 84.9525L91.1572 84.9109L90.9354 84.8508L90.0484 84.606C87.7616 83.9213 85.5158 83.1068 83.3217 82.1666C81.141 81.2426 79.0436 80.2539 76.923 79.1313L79.3023 74.5806Z" fill="#E58A7B"/>
<path d="M61.0995 73.4119C57.9163 74.1419 54.2665 82.8136 54.2665 82.8136L60.6559 87.1934C62.2465 84.9143 63.6582 82.5155 64.8786 80.0185C66.7636 76.0499 64.352 72.6681 61.0995 73.4119Z" fill="#263238"/>
<path d="M63.3772 78.9419L60.3557 86.9853L60.656 87.1932C60.656 87.1932 61.9635 85.3452 63.3772 82.8828V78.9419Z" fill="#407BFF"/>
<path opacity="0.8" d="M63.3772 78.9419L60.3557 86.9853L60.656 87.1932C60.656 87.1932 61.9635 85.3452 63.3772 82.8828V78.9419Z" fill="black"/>
<path d="M80.1108 73.5871C80.1108 73.5871 83.7236 77.6666 80.3141 102.924H62.1575C62.0327 100.152 63.7837 86.5416 61.0995 73.4116C63.1059 73.0252 65.1353 72.769 67.1748 72.6447C69.7445 72.4967 72.3205 72.4967 74.8902 72.6447C76.6523 72.8222 78.3978 73.1373 80.1108 73.5871Z" fill="#263238"/>
<path d="M81.7001 81.3581L77.3342 80.4341C77.3989 80.5126 80.1062 83.9083 81.7648 86.0197C81.7971 84.2179 81.774 82.6979 81.7001 81.3581Z" fill="#407BFF"/>
<path opacity="0.8" d="M81.7001 81.3581L77.3342 80.4341C77.3989 80.5126 80.1062 83.9083 81.7648 86.0197C81.7971 84.2179 81.774 82.6979 81.7001 81.3581Z" fill="black"/>
<path d="M74.419 78.1058C75.4169 81.192 85.507 84.5738 85.507 84.5738L88.51 77.4544C85.978 75.919 83.2893 74.6583 80.4897 73.6937C76.3964 72.3909 73.3195 74.7194 74.419 78.1058Z" fill="#263238"/>
<path d="M101.081 75.7681L102.074 72.3262L106.024 74.1141C106.024 74.1141 105.151 76.7845 102.763 77.422L101.081 75.7681Z" fill="#E58A7B"/>
<path d="M104.44 69.457L107.124 72.1043L106.024 74.0955L102.074 72.3076L104.44 69.457Z" fill="#E58A7B"/>
<path d="M75.1766 181.4L75.001 185.447H71.6053L71.7809 181.4H75.1766Z" fill="#CF6F64"/>
<path d="M52.7696 181.4H56.1653L55.2875 185.447H51.8918L52.7696 181.4Z" fill="#CF6F64"/>
<path d="M67.646 60.2172C67.8493 63.5806 67.7985 65.5579 69.494 67.2858C72.0489 69.8822 76.1976 68.3392 77.0015 64.9758C77.7222 61.9543 77.2648 56.9647 73.9708 55.6249C73.2463 55.3272 72.4576 55.2197 71.6799 55.3128C70.9021 55.4058 70.1611 55.6963 69.5272 56.1565C68.8933 56.6167 68.3877 57.2314 68.0585 57.9422C67.7292 58.6529 67.5872 59.4361 67.646 60.2172Z" fill="#E58A7B"/>
<path d="M74.1787 57.981C76.7151 58.7295 78.8403 55.1305 78.4476 57.6761C78.0549 60.2217 80.8223 59.9445 80.8223 59.9445C80.8223 59.9445 78.6509 59.1222 81.2335 56.9785C84.3889 54.359 79.9075 52.7512 77.944 54.1742C75.3014 56.0961 74.784 52.705 71.379 51.7949C69.069 51.185 66.2277 52.6357 66.1769 54.3035C66.1122 56.3409 64.3612 54.7008 64.2319 57.7316C64.1441 59.7089 66.5003 66.2277 69.0413 66.4495C72.8667 66.7868 74.151 61.9358 74.1787 57.981Z" fill="#263238"/>
<path d="M72.1829 61.1966C72.3641 62.0176 72.8125 62.7553 73.458 63.294C74.3127 63.987 74.9965 63.368 74.978 62.37C74.9549 61.4691 74.4883 60.0231 73.5273 59.7182C72.5664 59.4132 71.9658 60.2125 72.1829 61.1966Z" fill="#E58A7B"/>
<path d="M66.916 56.198C66.5016 55.5693 66.2504 54.8472 66.1851 54.097C66.1198 53.3469 66.2424 52.5923 66.5418 51.9014C66.5418 51.9014 62.929 54.6226 66.916 56.198Z" fill="#263238"/>
<path d="M64.0239 55.865C64.382 55.7134 64.7726 55.6547 65.1595 55.6943C65.5463 55.7338 65.9169 55.8704 66.2369 56.0914C66.2369 56.0914 65.2113 53.9985 64.0239 55.865Z" fill="#263238"/>
<path d="M73.8738 102.924C73.8738 102.924 70.0207 128.861 67.914 138.6C65.604 149.226 56.8768 184.689 56.8768 184.689H50.649C50.649 184.689 56.4056 150.076 57.75 139.524C59.1822 128.089 62.1806 102.906 62.1806 102.906L73.8738 102.924Z" fill="#407BFF"/>
<path d="M57.8609 182.375C57.8886 182.375 57.2187 184.763 57.2187 184.763H50.224L50.3534 182.633L57.8609 182.375Z" fill="#407BFF"/>
<path opacity="0.2" d="M57.8609 182.375C57.8886 182.375 57.2187 184.763 57.2187 184.763H50.224L50.3534 182.633L57.8609 182.375Z" fill="black"/>
<path d="M71.4391 112.165C66.9854 113.038 67.4567 129.647 67.9926 138.189C69.3 132.132 71.148 120.531 72.4416 112.266C72.1287 112.119 71.7751 112.083 71.4391 112.165Z" fill="#407BFF"/>
<path opacity="0.2" d="M71.4391 112.165C66.9854 113.038 67.4567 129.647 67.9926 138.189C69.3 132.132 71.148 120.531 72.4416 112.266C72.1287 112.119 71.7751 112.083 71.4391 112.165Z" fill="black"/>
<path d="M80.3141 102.924C80.3141 102.924 80.7761 128.297 80.4111 138.651C80.0277 149.415 76.2531 184.666 76.2531 184.666H70.5197C70.5197 184.666 70.3072 150.044 70.0577 139.473C69.7805 127.946 68.3899 102.924 68.3899 102.924H80.3141Z" fill="#407BFF"/>
<path d="M75.0703 180.536C75.0548 180.534 75.0407 180.526 75.0305 180.514C75.0203 180.502 75.0147 180.487 75.0149 180.471C76.0313 170.714 78.4198 147.11 78.7109 138.646C79.0204 129.975 78.7386 110.608 78.6462 104.874C78.6462 104.867 78.6477 104.86 78.6504 104.853C78.6532 104.846 78.6573 104.84 78.6625 104.835C78.6676 104.83 78.6737 104.826 78.6804 104.823C78.6872 104.82 78.6944 104.819 78.7017 104.819C78.7168 104.819 78.7314 104.824 78.7426 104.835C78.7537 104.845 78.7606 104.859 78.7617 104.874C78.8541 110.603 79.1359 129.975 78.8264 138.651C78.5261 147.12 76.1376 170.728 75.1304 180.485C75.1298 180.493 75.1278 180.5 75.1245 180.506C75.1211 180.513 75.1165 180.518 75.1109 180.523C75.1054 180.528 75.0989 180.531 75.0919 180.534C75.085 180.536 75.0776 180.537 75.0703 180.536Z" fill="#407BFF"/>
<path opacity="0.2" d="M75.0703 180.536C75.0548 180.534 75.0407 180.526 75.0305 180.514C75.0203 180.502 75.0147 180.487 75.0149 180.471C76.0313 170.714 78.4198 147.11 78.7109 138.646C79.0204 129.975 78.7386 110.608 78.6462 104.874C78.6462 104.867 78.6477 104.86 78.6504 104.853C78.6532 104.846 78.6573 104.84 78.6625 104.835C78.6676 104.83 78.6737 104.826 78.6804 104.823C78.6872 104.82 78.6944 104.819 78.7017 104.819C78.7168 104.819 78.7314 104.824 78.7426 104.835C78.7537 104.845 78.7606 104.859 78.7617 104.874C78.8541 110.603 79.1359 129.975 78.8264 138.651C78.5261 147.12 76.1376 170.728 75.1304 180.485C75.1298 180.493 75.1278 180.5 75.1245 180.506C75.1211 180.513 75.1165 180.518 75.1109 180.523C75.1054 180.528 75.0989 180.531 75.0919 180.534C75.085 180.536 75.0776 180.537 75.0703 180.536Z" fill="black"/>
<path d="M77.3711 182.375C77.3989 182.375 77.0477 184.763 77.0477 184.763H70.0531L69.8636 182.633L77.3711 182.375Z" fill="#407BFF"/>
<path opacity="0.2" d="M77.3711 182.375C77.3989 182.375 77.0477 184.763 77.0477 184.763H70.0531L69.8636 182.633L77.3711 182.375Z" fill="black"/>
</svg>
