<svg width="239" height="239" viewBox="0 0 239 239" fill="none" xmlns="http://www.w3.org/2000/svg">
<path d="M239 182.787H0V182.907H239V182.787Z" fill="#EBEBEB"/>
<path d="M158.323 191.778H154.169V191.898H158.323V191.778Z" fill="#EBEBEB"/>
<path d="M82.7992 185.837H71.7191V185.956H82.7992V185.837Z" fill="#EBEBEB"/>
<path d="M219.292 188.399H192.204V188.518H219.292V188.399Z" fill="#EBEBEB"/>
<path d="M47.5084 188.399H20.4202V188.518H47.5084V188.399Z" fill="#EBEBEB"/>
<path d="M113.286 161.468H20.989C20.266 161.467 19.573 161.179 19.0621 160.667C18.5513 160.156 18.2644 159.462 18.2644 158.739V28.9955C18.2707 28.2766 18.5604 27.5892 19.0705 27.0827C19.5807 26.5761 20.2701 26.2913 20.989 26.29H113.286C114.01 26.29 114.704 26.5776 115.216 27.0895C115.728 27.6013 116.015 28.2955 116.015 29.0194V158.739C116.015 159.463 115.728 160.157 115.216 160.669C114.704 161.181 114.01 161.468 113.286 161.468ZM20.989 26.3856C20.2976 26.3869 19.635 26.6624 19.1466 27.1517C18.6582 27.6411 18.3839 28.3042 18.3839 28.9955V158.739C18.3839 159.43 18.6582 160.094 19.1466 160.583C19.635 161.072 20.2976 161.348 20.989 161.349H113.286C113.978 161.348 114.641 161.072 115.13 160.583C115.619 160.094 115.895 159.431 115.896 158.739V28.9955C115.895 28.3037 115.619 27.6406 115.13 27.1515C114.641 26.6623 113.978 26.3869 113.286 26.3856H20.989Z" fill="#EBEBEB"/>
<path d="M216.682 161.468H124.38C123.657 161.467 122.963 161.179 122.452 160.668C121.94 160.156 121.652 159.463 121.651 158.739V28.9955C121.659 28.2762 121.949 27.5888 122.46 27.0824C122.971 26.5759 123.661 26.2913 124.38 26.29H216.682C217.4 26.2925 218.088 26.5779 218.598 27.0843C219.107 27.5908 219.396 28.2774 219.402 28.9955V158.739C219.402 159.461 219.116 160.154 218.606 160.666C218.096 161.177 217.404 161.466 216.682 161.468ZM124.38 26.3856C123.689 26.3869 123.025 26.6623 122.536 27.1515C122.047 27.6406 121.772 28.3037 121.771 28.9955V158.739C121.772 159.431 122.047 160.094 122.536 160.583C123.025 161.072 123.689 161.348 124.38 161.349H216.682C217.374 161.348 218.037 161.072 218.526 160.583C219.015 160.094 219.291 159.431 219.292 158.739V28.9955C219.291 28.3037 219.015 27.6406 218.526 27.1515C218.037 26.6623 217.374 26.3869 216.682 26.3856H124.38Z" fill="#EBEBEB"/>
<path d="M54.1574 112.98L181.076 112.98V44.038L54.1574 44.038L54.1574 112.98Z" fill="#E6E6E6"/>
<path d="M52.7138 112.98L179.632 112.98V44.038L52.7138 44.038L52.7138 112.98Z" fill="#F5F5F5"/>
<path d="M177.046 110.074V46.9443L55.3046 46.9443V110.074H177.046Z" fill="white"/>
<path d="M56.3944 110.079L56.3944 46.9492H55.3046L55.3046 110.079H56.3944Z" fill="#E6E6E6"/>
<path d="M53.7846 99.0225L178.562 99.0225V95.122L53.7846 95.122V99.0225Z" fill="#F5F5F5"/>
<path d="M53.7846 65.8779L178.562 65.8779V61.9774L53.7846 61.9774V65.8779Z" fill="#F5F5F5"/>
<path d="M49.8985 39.2295H183.896C184.002 39.2308 184.103 39.2736 184.177 39.3488C184.251 39.4239 184.293 39.5253 184.293 39.631C184.293 39.7362 184.251 39.8371 184.177 39.9115C184.102 39.986 184.001 40.0278 183.896 40.0278H49.8985C49.7928 40.0278 49.6914 39.9861 49.6162 39.9118C49.5411 39.8376 49.4982 39.7367 49.4969 39.631C49.4982 39.5249 49.5409 39.4235 49.6159 39.3485C49.691 39.2734 49.7924 39.2307 49.8985 39.2295Z" fill="#E6E6E6"/>
<path d="M47.5084 39.631C47.5084 40.0254 47.6255 40.411 47.8447 40.7388C48.0639 41.0667 48.3755 41.3222 48.74 41.4729C49.1045 41.6237 49.5055 41.6629 49.8923 41.5856C50.2791 41.5083 50.6342 41.3179 50.9128 41.0387C51.1914 40.7595 51.3808 40.4039 51.4572 40.0169C51.5336 39.6299 51.4934 39.229 51.3418 38.8649C51.1902 38.5007 50.934 38.1897 50.6056 37.9713C50.2772 37.7529 49.8913 37.6368 49.4969 37.6377C49.2354 37.6377 48.9764 37.6893 48.7348 37.7895C48.4933 37.8898 48.2739 38.0366 48.0891 38.2218C47.9044 38.407 47.7581 38.6267 47.6584 38.8685C47.5588 39.1103 47.5078 39.3694 47.5084 39.631Z" fill="#E6E6E6"/>
<path d="M180.541 41.8585C180.683 41.8585 180.819 41.8021 180.919 41.7017C181.02 41.6013 181.076 41.4651 181.076 41.3232V40.1521C181.076 40.0101 181.02 39.8739 180.919 39.7735C180.819 39.6731 180.683 39.6167 180.541 39.6167C180.398 39.6167 180.262 39.6729 180.16 39.7732C180.059 39.8735 180.002 40.0096 180.001 40.1521V41.3088C179.999 41.3805 180.012 41.4518 180.039 41.5185C180.065 41.5851 180.105 41.6458 180.155 41.697C180.206 41.7481 180.266 41.7888 180.332 41.8165C180.398 41.8442 180.469 41.8585 180.541 41.8585Z" fill="#E6E6E6"/>
<path d="M55.926 41.8584C56.0685 41.8584 56.2051 41.8021 56.3063 41.7019C56.4075 41.6016 56.4649 41.4655 56.4662 41.323V40.1519C56.4612 40.012 56.4021 39.8795 56.3014 39.7823C56.2006 39.6851 56.066 39.6308 55.926 39.6309C55.8549 39.6277 55.7839 39.6387 55.7171 39.6633C55.6503 39.6879 55.5891 39.7255 55.537 39.774C55.485 39.8225 55.4431 39.8809 55.4139 39.9458C55.3846 40.0107 55.3686 40.0808 55.3668 40.1519V41.3087C55.3647 41.3822 55.3779 41.4554 55.4054 41.5237C55.4329 41.5919 55.4742 41.6538 55.5267 41.7054C55.5791 41.757 55.6417 41.7972 55.7104 41.8235C55.7791 41.8498 55.8525 41.8617 55.926 41.8584Z" fill="#E6E6E6"/>
<path opacity="0.5" d="M50.0274 54.105L178.566 54.105V39.6311L50.0274 39.6311V54.105Z" fill="#E0E0E0"/>
<path d="M174.131 41.6242C175.232 41.6242 176.124 40.7318 176.124 39.631C176.124 38.5301 175.232 37.6377 174.131 37.6377C173.03 37.6377 172.137 38.5301 172.137 39.631C172.137 40.7318 173.03 41.6242 174.131 41.6242Z" fill="#E6E6E6"/>
<path d="M141.435 182.787H149.59V128.276H141.435V182.787Z" fill="#E6E6E6"/>
<path d="M143.582 182.787H141.435V175.364H145.828L143.582 182.787Z" fill="#F0F0F0"/>
<path d="M207.658 182.787H215.812V128.276H207.658V182.787Z" fill="#E6E6E6"/>
<path d="M141.436 178.232H209.527V128.276H141.436V178.232Z" fill="#F0F0F0"/>
<path d="M143.099 144.184H207.863V130.485H143.099V144.184Z" fill="#E6E6E6"/>
<path d="M155.947 134.744H193.59C195.679 134.744 197.682 133.056 199.12 130.069H150.417C151.856 133.056 153.854 134.744 155.947 134.744Z" fill="#F0F0F0"/>
<path d="M207.385 182.787H209.527V175.364H205.134L207.385 182.787Z" fill="#F0F0F0"/>
<path d="M143.099 160.102H207.863V146.402H143.099V160.102Z" fill="#E6E6E6"/>
<path d="M155.947 150.661H193.59C195.679 150.661 197.682 148.969 199.12 145.986H150.417C151.856 148.969 153.854 150.661 155.947 150.661Z" fill="#F0F0F0"/>
<path d="M143.099 176.019H207.863V162.319H143.099V176.019Z" fill="#E6E6E6"/>
<path d="M155.947 166.573H193.59C195.679 166.573 197.682 164.881 199.12 161.898H150.417C151.856 164.881 153.854 166.573 155.947 166.573Z" fill="#F0F0F0"/>
<path d="M190.827 100.944C189.537 96.5992 205.612 74.8598 212.667 75.5099C219.722 76.16 207.318 102.531 203.509 104.864C199.211 107.498 192.233 105.672 190.827 100.944Z" fill="#F5F5F5"/>
<path d="M189.905 107.211C189.283 104.993 200.521 101.384 204.986 103.999C209.45 106.613 200.335 113.348 197.816 113.042C194.943 112.698 190.583 109.625 189.905 107.211Z" fill="#F5F5F5"/>
<path d="M203.556 105.222C205.11 102.306 193.666 85.2752 187.567 84.9598C181.468 84.6443 189.302 104.558 192.309 106.599C195.707 108.917 201.859 108.391 203.556 105.222Z" fill="#F5F5F5"/>
<path d="M197.691 96.1593H197.667C197.377 96.1548 197.096 96.2555 196.874 96.4427C196.653 96.6298 196.507 96.8909 196.463 97.1775C195.138 106.163 194.977 115.282 195.985 124.309C196.018 124.596 196.155 124.862 196.369 125.056C196.584 125.25 196.862 125.36 197.151 125.365H197.175C197.344 125.368 197.512 125.334 197.667 125.267C197.822 125.199 197.961 125.1 198.074 124.974C198.188 124.849 198.273 124.701 198.325 124.54C198.377 124.379 198.394 124.209 198.375 124.041C197.414 115.213 197.573 106.3 198.848 97.5121C198.872 97.3453 198.86 97.1755 198.813 97.0138C198.766 96.8521 198.685 96.7022 198.575 96.5742C198.466 96.4462 198.33 96.343 198.178 96.2715C198.025 96.1999 197.86 96.1617 197.691 96.1593Z" fill="#EBEBEB"/>
<path d="M196.816 128.271C201.042 128.271 204.603 125.786 205.468 122.416C205.68 121.516 205.983 120.64 206.372 119.801L206.439 119.663H187.194L187.261 119.801C187.65 120.64 187.953 121.516 188.165 122.416C189.03 125.786 192.596 128.271 196.816 128.271Z" fill="#FAFAFA"/>
<path d="M187.156 120.509H206.496C207.036 120.509 207.505 119.983 207.638 119.227C207.83 118.142 207.266 117.091 206.496 117.091H187.156C186.386 117.091 185.822 118.142 186.018 119.227C186.152 119.978 186.621 120.509 187.156 120.509Z" fill="#F0F0F0"/>
<path d="M127.583 148.448H103.774V182.787H127.583V148.448Z" fill="#F0F0F0"/>
<path d="M32.9676 182.787H103.779V148.448H32.9676V182.787Z" fill="#F5F5F5"/>
<path d="M39.1864 175.182H54.1573V159.939H39.1864V175.182Z" fill="#FAFAFA"/>
<path d="M59.511 175.182H74.4819V159.939H59.511V175.182Z" fill="#FAFAFA"/>
<g style="mix-blend-mode:multiply" opacity="0.7">
<path d="M127.583 152.1H32.7144V154.055H127.583V152.1Z" fill="#E6E6E6"/>
</g>
<path d="M128.897 147.262H103.774V152.926H128.897V147.262Z" fill="#F0F0F0"/>
<path d="M31.6531 152.922H103.779V147.258H31.6531V152.922Z" fill="#F5F5F5"/>
<path d="M52.0542 137.621C52.0542 137.621 52.5083 147.262 69.8836 147.262C87.2589 147.262 87.713 137.621 87.713 137.621H52.0542Z" fill="#F0F0F0"/>
<path d="M52.0542 131.235C52.0542 131.235 52.5083 140.876 69.8836 140.876C87.2589 140.876 87.713 131.235 87.713 131.235H52.0542Z" fill="#F0F0F0"/>
<path d="M119.5 204.374C170.685 204.374 212.179 201.951 212.179 198.963C212.179 195.974 170.685 193.552 119.5 193.552C68.3145 193.552 26.8206 195.974 26.8206 198.963C26.8206 201.951 68.3145 204.374 119.5 204.374Z" fill="#F5F5F5"/>
<path d="M91.4605 188.552H44.5256V197.385H91.4605V188.552Z" fill="#407BFF"/>
<path opacity="0.2" d="M91.4605 188.552H44.5256V189.556H91.4605V188.552Z" fill="black"/>
<path opacity="0.2" d="M49.8124 188.552H47.9625V197.385H49.8124V188.552Z" fill="black"/>
<path opacity="0.2" d="M54.057 188.552H52.2072V197.385H54.057V188.552Z" fill="black"/>
<path opacity="0.2" d="M58.3064 188.552H56.4565V197.385H58.3064V188.552Z" fill="black"/>
<path opacity="0.2" d="M62.551 188.552H60.7012V197.385H62.551V188.552Z" fill="black"/>
<path opacity="0.2" d="M66.7957 188.552H64.9458V197.385H66.7957V188.552Z" fill="black"/>
<path opacity="0.2" d="M71.0452 188.552H69.1953V197.385H71.0452V188.552Z" fill="black"/>
<path opacity="0.2" d="M75.2898 188.552H73.4399V197.385H75.2898V188.552Z" fill="black"/>
<path opacity="0.2" d="M79.5344 188.552H77.6846V197.385H79.5344V188.552Z" fill="black"/>
<path opacity="0.2" d="M83.7838 188.552H81.934V197.385H83.7838V188.552Z" fill="black"/>
<path opacity="0.2" d="M88.0285 188.552H86.1786V197.385H88.0285V188.552Z" fill="black"/>
<path d="M89.5534 179.719H42.6185V188.552H89.5534V179.719Z" fill="#407BFF"/>
<path opacity="0.2" d="M89.5534 179.719H42.6185V180.723H89.5534V179.719Z" fill="black"/>
<path opacity="0.2" d="M47.9004 179.719H46.0505V188.552H47.9004V179.719Z" fill="black"/>
<path opacity="0.2" d="M52.1498 179.719H50.2999V188.552H52.1498V179.719Z" fill="black"/>
<path opacity="0.2" d="M56.3944 179.719H54.5446V188.552H56.3944V179.719Z" fill="black"/>
<path opacity="0.2" d="M60.639 179.719H58.7892V188.552H60.639V179.719Z" fill="black"/>
<path opacity="0.2" d="M64.8886 179.719H63.0387V188.552H64.8886V179.719Z" fill="black"/>
<path opacity="0.2" d="M69.1331 179.719H67.2832V188.552H69.1331V179.719Z" fill="black"/>
<path opacity="0.2" d="M73.3778 179.719H71.528V188.552H73.3778V179.719Z" fill="black"/>
<path opacity="0.2" d="M77.6272 179.719H75.7773V188.552H77.6272V179.719Z" fill="black"/>
<path opacity="0.2" d="M81.8718 179.719H80.022V188.552H81.8718V179.719Z" fill="black"/>
<path opacity="0.2" d="M86.1165 179.719H84.2666V188.552H86.1165V179.719Z" fill="black"/>
<path d="M88.2006 170.885H41.2657V179.719H88.2006V170.885Z" fill="#407BFF"/>
<path opacity="0.2" d="M88.2006 170.885H41.2657V171.889H88.2006V170.885Z" fill="black"/>
<path opacity="0.2" d="M46.5524 170.885H44.7025V179.719H46.5524V170.885Z" fill="black"/>
<path opacity="0.2" d="M50.797 170.885H48.9471V179.719H50.797V170.885Z" fill="black"/>
<path opacity="0.2" d="M55.0465 170.885H53.1967V179.719H55.0465V170.885Z" fill="black"/>
<path opacity="0.2" d="M59.2911 170.885H57.4413V179.719H59.2911V170.885Z" fill="black"/>
<path opacity="0.2" d="M63.5358 170.885H61.6859V179.719H63.5358V170.885Z" fill="black"/>
<path opacity="0.2" d="M67.7852 170.885H65.9353V179.719H67.7852V170.885Z" fill="black"/>
<path opacity="0.2" d="M72.0298 170.885H70.1799V179.719H72.0298V170.885Z" fill="black"/>
<path opacity="0.2" d="M76.2744 170.885H74.4246V179.719H76.2744V170.885Z" fill="black"/>
<path opacity="0.2" d="M80.5239 170.885H78.6741V179.719H80.5239V170.885Z" fill="black"/>
<path opacity="0.2" d="M84.7686 170.885H82.9187V179.719H84.7686V170.885Z" fill="black"/>
<path d="M90.3276 162.057H43.3928V170.89H90.3276V162.057Z" fill="#407BFF"/>
<path opacity="0.2" d="M90.3276 162.057H43.3928V163.06H90.3276V162.057Z" fill="black"/>
<path opacity="0.2" d="M48.6747 162.057H46.8248V170.89H48.6747V162.057Z" fill="black"/>
<path opacity="0.2" d="M52.9242 162.057H51.0743V170.89H52.9242V162.057Z" fill="black"/>
<path opacity="0.2" d="M57.1688 162.057H55.319V170.89H57.1688V162.057Z" fill="black"/>
<path opacity="0.2" d="M61.4135 162.057H59.5636V170.89H61.4135V162.057Z" fill="black"/>
<path opacity="0.2" d="M65.6628 162.057H63.813V170.89H65.6628V162.057Z" fill="black"/>
<path opacity="0.2" d="M69.9075 162.057H68.0576V170.89H69.9075V162.057Z" fill="black"/>
<path opacity="0.2" d="M74.1521 162.057H72.3022V170.89H74.1521V162.057Z" fill="black"/>
<path opacity="0.2" d="M78.4015 162.057H76.5516V170.89H78.4015V162.057Z" fill="black"/>
<path opacity="0.2" d="M82.6462 162.057H80.7964V170.89H82.6462V162.057Z" fill="black"/>
<path opacity="0.2" d="M86.8909 162.057H85.041V170.89H86.8909V162.057Z" fill="black"/>
<path d="M41.3326 162.052H88.2675V153.218H41.3326V162.052Z" fill="#407BFF"/>
<path opacity="0.2" d="M41.3326 154.222H88.2675V153.218H41.3326V154.222Z" fill="black"/>
<path opacity="0.2" d="M82.9808 162.052H84.8307V153.218H82.9808V162.052Z" fill="black"/>
<path opacity="0.2" d="M78.7314 162.052H80.5813V153.218H78.7314V162.052Z" fill="black"/>
<path opacity="0.2" d="M74.4867 162.052H76.3365V153.218H74.4867V162.052Z" fill="black"/>
<path opacity="0.2" d="M70.2421 162.052H72.0919V153.218H70.2421V162.052Z" fill="black"/>
<path opacity="0.2" d="M65.9927 162.052H67.8425V153.218H65.9927V162.052Z" fill="black"/>
<path opacity="0.2" d="M61.748 162.052H63.5979V153.218H61.748V162.052Z" fill="black"/>
<path opacity="0.2" d="M57.5034 162.052H59.3533V153.218H57.5034V162.052Z" fill="black"/>
<path opacity="0.2" d="M53.254 162.052H55.1039V153.218H53.254V162.052Z" fill="black"/>
<path opacity="0.2" d="M49.0094 162.052H50.8593V153.218H49.0094V162.052Z" fill="black"/>
<path opacity="0.2" d="M44.7646 162.052H46.6145V153.218H44.7646V162.052Z" fill="black"/>
<path d="M43.2399 153.223H90.1747V144.39H43.2399V153.223Z" fill="#407BFF"/>
<path opacity="0.2" d="M43.2399 145.393H90.1747V144.389H43.2399V145.393Z" fill="black"/>
<path opacity="0.2" d="M84.8881 153.223H86.7379V144.39H84.8881V153.223Z" fill="black"/>
<path opacity="0.2" d="M80.6482 153.223H82.498V144.39H80.6482V153.223Z" fill="black"/>
<path opacity="0.2" d="M76.3987 153.223H78.2485V144.39H76.3987V153.223Z" fill="black"/>
<path opacity="0.2" d="M72.1493 153.223H73.9991V144.39H72.1493V153.223Z" fill="black"/>
<path opacity="0.2" d="M67.9094 153.223H69.7593V144.39H67.9094V153.223Z" fill="black"/>
<path opacity="0.2" d="M63.66 153.223H65.5099V144.39H63.66V153.223Z" fill="black"/>
<path opacity="0.2" d="M59.4106 153.223H61.2605V144.39H59.4106V153.223Z" fill="black"/>
<path opacity="0.2" d="M55.1708 153.223H57.0206V144.39H55.1708V153.223Z" fill="black"/>
<path opacity="0.2" d="M50.9214 153.223H52.7712V144.39H50.9214V153.223Z" fill="black"/>
<path opacity="0.2" d="M46.6719 153.223H48.5217V144.39H46.6719V153.223Z" fill="black"/>
<path d="M44.5926 144.39H91.5275V135.556H44.5926V144.39Z" fill="#407BFF"/>
<path opacity="0.2" d="M44.5926 136.56H91.5275V135.556H44.5926V136.56Z" fill="black"/>
<path opacity="0.2" d="M86.2407 144.39H88.0906V135.556H86.2407V144.39Z" fill="black"/>
<path opacity="0.2" d="M81.9913 144.39H83.8412V135.556H81.9913V144.39Z" fill="black"/>
<path opacity="0.2" d="M77.7467 144.39H79.5966V135.556H77.7467V144.39Z" fill="black"/>
<path opacity="0.2" d="M73.5021 144.39H75.3519V135.556H73.5021V144.39Z" fill="black"/>
<path opacity="0.2" d="M69.2527 144.39H71.1025V135.556H69.2527V144.39Z" fill="black"/>
<path opacity="0.2" d="M65.0081 144.39H66.8579V135.556H65.0081V144.39Z" fill="black"/>
<path opacity="0.2" d="M60.7634 144.39H62.6133V135.556H60.7634V144.39Z" fill="black"/>
<path opacity="0.2" d="M56.5139 144.39H58.3638V135.556H56.5139V144.39Z" fill="black"/>
<path opacity="0.2" d="M52.2693 144.39H54.1191V135.556H52.2693V144.39Z" fill="black"/>
<path opacity="0.2" d="M48.0247 144.39H49.8745V135.556H48.0247V144.39Z" fill="black"/>
<path d="M42.4656 135.556H89.4004V126.723H42.4656V135.556Z" fill="#407BFF"/>
<path opacity="0.2" d="M42.4656 127.727H89.4004V126.723H42.4656V127.727Z" fill="black"/>
<path opacity="0.2" d="M84.1136 135.556H85.9635V126.723H84.1136V135.556Z" fill="black"/>
<path opacity="0.2" d="M79.8738 135.556H81.7236V126.723H79.8738V135.556Z" fill="black"/>
<path opacity="0.2" d="M75.6244 135.556H77.4742V126.723H75.6244V135.556Z" fill="black"/>
<path opacity="0.2" d="M71.375 135.556H73.2249V126.723H71.375V135.556Z" fill="black"/>
<path opacity="0.2" d="M67.1351 135.556H68.985V126.723H67.1351V135.556Z" fill="black"/>
<path opacity="0.2" d="M62.8857 135.556H64.7356V126.723H62.8857V135.556Z" fill="black"/>
<path opacity="0.2" d="M58.6362 135.556H60.4861V126.723H58.6362V135.556Z" fill="black"/>
<path opacity="0.2" d="M54.3964 135.556H56.2462V126.723H54.3964V135.556Z" fill="black"/>
<path opacity="0.2" d="M50.147 135.556H51.9968V126.723H50.147V135.556Z" fill="black"/>
<path opacity="0.2" d="M45.8976 135.556H47.7474V126.723H45.8976V135.556Z" fill="black"/>
<path d="M191.516 91.7759L172.797 94.9833C172.437 95.0439 172.103 95.2103 171.838 95.4612C171.572 95.7122 171.388 96.0364 171.307 96.3926C171.227 96.7488 171.254 97.1209 171.386 97.4615C171.517 97.8022 171.747 98.0959 172.047 98.3054L175.498 100.748L154.337 130.661C154.199 130.856 154.024 131.021 153.823 131.148C153.621 131.275 153.396 131.361 153.162 131.401C152.927 131.441 152.686 131.434 152.454 131.381C152.222 131.328 152.002 131.229 151.808 131.091L120.705 109.103C120.311 108.826 119.823 108.716 119.348 108.798C118.873 108.879 118.45 109.146 118.171 109.538L55.4719 198.16H78.0048L122.569 135.164C122.706 134.97 122.881 134.804 123.083 134.677C123.284 134.55 123.509 134.464 123.744 134.424C123.979 134.384 124.219 134.391 124.451 134.444C124.684 134.497 124.903 134.596 125.097 134.734L156.201 156.722C156.396 156.86 156.616 156.958 156.849 157.011C157.082 157.064 157.322 157.07 157.558 157.029C157.793 156.989 158.018 156.903 158.22 156.775C158.422 156.648 158.597 156.482 158.734 156.287L190.517 111.355L193.972 113.797C194.27 114.003 194.622 114.116 194.984 114.123C195.345 114.13 195.701 114.03 196.007 113.837C196.312 113.643 196.554 113.364 196.702 113.034C196.851 112.704 196.899 112.338 196.84 111.981L193.628 93.2625C193.542 92.7869 193.272 92.3644 192.877 92.0862C192.481 91.8081 191.992 91.6966 191.516 91.7759Z" fill="#407BFF"/>
<path opacity="0.2" d="M191.516 91.7759L172.797 94.9833C172.437 95.0439 172.103 95.2103 171.838 95.4612C171.572 95.7122 171.388 96.0364 171.307 96.3926C171.227 96.7488 171.254 97.1209 171.386 97.4615C171.517 97.8022 171.747 98.0959 172.047 98.3054L175.498 100.748L154.337 130.661C154.199 130.856 154.024 131.021 153.823 131.148C153.621 131.275 153.396 131.361 153.162 131.401C152.927 131.441 152.686 131.434 152.454 131.381C152.222 131.328 152.002 131.229 151.808 131.091L120.705 109.103C120.311 108.826 119.823 108.716 119.348 108.798C118.873 108.879 118.45 109.146 118.171 109.538L55.4719 198.16H78.0048L122.569 135.164C122.706 134.97 122.881 134.804 123.083 134.677C123.284 134.55 123.509 134.464 123.744 134.424C123.979 134.384 124.219 134.391 124.451 134.444C124.684 134.497 124.903 134.596 125.097 134.734L156.201 156.722C156.396 156.86 156.616 156.958 156.849 157.011C157.082 157.064 157.322 157.07 157.558 157.029C157.793 156.989 158.018 156.903 158.22 156.775C158.422 156.648 158.597 156.482 158.734 156.287L190.517 111.355L193.972 113.797C194.27 114.003 194.622 114.116 194.984 114.123C195.345 114.13 195.701 114.03 196.007 113.837C196.312 113.643 196.554 113.364 196.702 113.034C196.851 112.704 196.899 112.338 196.84 111.981L193.628 93.2625C193.542 92.7869 193.272 92.3644 192.877 92.0862C192.481 91.8081 191.992 91.6966 191.516 91.7759Z" fill="black"/>
<path opacity="0.2" d="M76.5947 195.555H60.7346C60.7128 195.554 60.6915 195.547 60.6731 195.535C60.6546 195.524 60.6396 195.507 60.6295 195.488C60.6181 195.469 60.6121 195.448 60.6121 195.426C60.6121 195.404 60.6181 195.382 60.6295 195.363L118.716 113.243C118.862 113.034 119.047 112.856 119.262 112.718C119.477 112.581 119.716 112.488 119.967 112.443C120.218 112.399 120.475 112.404 120.724 112.46C120.973 112.515 121.208 112.619 121.417 112.765L152.515 134.753C152.698 134.886 152.906 134.98 153.125 135.032C153.345 135.083 153.573 135.09 153.796 135.052C154.018 135.014 154.231 134.932 154.422 134.811C154.612 134.69 154.777 134.532 154.905 134.347L179.145 100.084L175.321 97.3639C175.3 97.3513 175.285 97.3323 175.276 97.3098C175.267 97.2874 175.266 97.2627 175.273 97.2396C175.278 97.2168 175.29 97.196 175.307 97.1799C175.324 97.1637 175.346 97.1529 175.369 97.1488L191.143 94.4481C191.158 94.4454 191.173 94.4457 191.188 94.4491C191.203 94.4524 191.217 94.4587 191.23 94.4677C191.242 94.4766 191.253 94.4879 191.261 94.501C191.269 94.514 191.274 94.5286 191.276 94.5437L193.977 110.318C193.981 110.341 193.978 110.365 193.968 110.387C193.959 110.409 193.944 110.428 193.925 110.442C193.905 110.455 193.881 110.462 193.858 110.462C193.834 110.462 193.811 110.455 193.791 110.442L189.967 107.722L158.251 152.559C158.106 152.767 157.921 152.945 157.706 153.082C157.492 153.218 157.253 153.312 157.002 153.356C156.752 153.4 156.496 153.395 156.247 153.34C155.999 153.285 155.764 153.182 155.556 153.037L124.452 131.049C124.27 130.92 124.064 130.828 123.847 130.779C123.63 130.73 123.405 130.724 123.185 130.761C122.965 130.799 122.755 130.88 122.566 130.999C122.378 131.118 122.215 131.273 122.086 131.455L76.6951 195.502C76.6837 195.518 76.6687 195.531 76.6512 195.54C76.6338 195.55 76.6144 195.554 76.5947 195.555ZM60.9641 195.316H76.5325L121.818 131.297C122.113 130.876 122.563 130.589 123.07 130.499C123.576 130.41 124.097 130.525 124.519 130.819L155.622 152.807C155.804 152.936 156.01 153.028 156.227 153.077C156.445 153.126 156.67 153.132 156.89 153.094C157.109 153.057 157.32 152.976 157.508 152.857C157.697 152.738 157.86 152.583 157.989 152.401L189.771 107.469C189.779 107.455 189.79 107.444 189.803 107.436C189.817 107.428 189.832 107.422 189.847 107.421C189.861 107.414 189.877 107.411 189.893 107.411C189.908 107.411 189.924 107.414 189.938 107.421L193.643 110.04L191.009 94.7397L175.66 97.3687L179.365 99.9881C179.389 100.007 179.406 100.034 179.412 100.065C179.424 100.094 179.424 100.126 179.412 100.155L155.106 134.519C154.96 134.727 154.774 134.904 154.559 135.039C154.344 135.175 154.105 135.266 153.854 135.308C153.352 135.391 152.837 135.274 152.42 134.983L121.321 112.995C121.138 112.862 120.931 112.767 120.711 112.716C120.491 112.665 120.263 112.658 120.041 112.695C119.818 112.733 119.605 112.815 119.415 112.936C119.224 113.057 119.06 113.215 118.931 113.401L60.9641 195.316Z" fill="white"/>
<path d="M166.368 168.155H164.403V197.385H166.368V168.155Z" fill="#263238"/>
<path d="M183.557 152.229H181.592V197.385H183.557V152.229Z" fill="#263238"/>
<path d="M201.061 163.06H199.096V197.385H201.061V163.06Z" fill="#263238"/>
<path d="M164.408 168.155H150.632V197.385H164.408V168.155Z" fill="#407BFF"/>
<path opacity="0.2" d="M150.632 168.155V185.488L157.515 168.155H150.632Z" fill="white"/>
<path d="M181.592 152.229H167.816V197.385H181.592V152.229Z" fill="#407BFF"/>
<path opacity="0.2" d="M167.816 152.229V169.561L174.704 152.229H167.816Z" fill="white"/>
<path d="M199.101 163.06H185.325V197.385H199.101V163.06Z" fill="#407BFF"/>
<path opacity="0.2" d="M185.325 163.06V178.485L192.213 163.06H185.325Z" fill="white"/>
<path d="M118.582 194.996L114.887 194.303L115.513 185.56L119.208 186.258L118.582 194.996Z" fill="#FFC3BD"/>
<path d="M143.448 194.895H139.686L138.754 186.191H142.511L143.448 194.895Z" fill="#FFC3BD"/>
<path d="M139.38 194.46H143.959C144.034 194.46 144.106 194.486 144.165 194.533C144.223 194.58 144.263 194.645 144.279 194.718L145.025 198.064C145.042 198.145 145.041 198.23 145.021 198.31C145.002 198.391 144.964 198.467 144.911 198.531C144.858 198.595 144.792 198.647 144.716 198.682C144.641 198.717 144.559 198.734 144.475 198.733C142.998 198.709 141.923 198.619 140.068 198.619C138.926 198.619 135.479 198.738 133.902 198.738C132.325 198.738 132.119 197.18 132.764 197.036C135.661 196.405 137.841 195.531 138.768 194.699C138.935 194.546 139.153 194.461 139.38 194.46Z" fill="#263238"/>
<path d="M114.964 193.49L119.012 194.188C119.086 194.2 119.152 194.238 119.202 194.293C119.251 194.349 119.281 194.419 119.285 194.494L119.447 197.911C119.452 197.994 119.437 198.076 119.405 198.152C119.373 198.229 119.324 198.297 119.262 198.351C119.2 198.406 119.126 198.446 119.047 198.468C118.967 198.491 118.884 198.495 118.802 198.48C117.368 198.203 115.251 197.754 113.42 197.438C111.274 197.07 110.227 196.802 107.713 196.367C106.192 196.104 106.522 194.455 107.187 194.412C110.193 194.278 111.254 194.737 114.022 193.624C114.317 193.492 114.644 193.446 114.964 193.49Z" fill="#263238"/>
<path d="M127.836 79.8694C127.707 80.2518 127.607 80.529 127.487 80.8254C127.368 81.1217 127.248 81.4372 127.124 81.7384C126.876 82.3454 126.613 82.9382 126.335 83.5309C125.782 84.7203 125.161 85.8774 124.476 86.9964C123.075 89.3901 121.249 91.5087 119.089 93.2486C118.487 93.7072 117.848 94.1134 117.177 94.4627C117.005 94.5583 116.828 94.6396 116.646 94.7209C116.465 94.8021 116.302 94.8786 116.087 94.9599C115.663 95.1158 115.227 95.2342 114.782 95.3136C114.06 95.4353 113.33 95.4977 112.598 95.5C111.909 95.5 111.25 95.5 110.6 95.4379C108.064 95.2356 105.555 94.7808 103.109 94.0803L103.487 91.284C105.877 91.1932 108.3 91.1167 110.576 90.916C111.145 90.8634 111.704 90.7965 112.234 90.7152C112.72 90.6493 113.2 90.5437 113.668 90.3997C113.821 90.356 113.969 90.2951 114.108 90.2181C114.266 90.1225 114.481 90.0317 114.658 89.9074C115.047 89.6617 115.417 89.3852 115.762 89.0805C116.525 88.4041 117.212 87.6477 117.813 86.8243C118.467 85.9509 119.064 85.036 119.6 84.0854C120.16 83.1294 120.662 82.1112 121.154 81.0883C121.393 80.5768 121.632 80.0558 121.842 79.5348L122.162 78.7556L122.454 78.0195L127.836 79.8694Z" fill="#FFC3BD"/>
<path d="M126.025 75.4622C132.884 75.4622 125.346 90.2802 125.346 90.2802L116.594 86.7382C116.594 86.7382 118.984 81.5853 120.556 78.6361C121.066 77.6369 121.853 76.8059 122.823 76.2429C123.793 75.6799 124.904 75.4088 126.025 75.4622Z" fill="#407BFF"/>
<g opacity="0.3">
<path opacity="0.3" d="M126.025 75.4622C132.884 75.4622 125.346 90.2802 125.346 90.2802L116.594 86.7382C116.594 86.7382 118.984 81.5853 120.556 78.6361C121.066 77.6369 121.853 76.8059 122.823 76.2429C123.793 75.6799 124.904 75.4088 126.025 75.4622Z" fill="white"/>
</g>
<path opacity="0.2" d="M124.347 80.2515C121.837 82.0153 120.093 85.2896 119.596 87.9473L124.595 89.974C125.504 88.6165 126.388 87.0152 127.363 85.6098C127.631 84.8785 127.894 84.1089 128.123 83.3298L124.347 80.2515Z" fill="black"/>
<path d="M105.638 91.6422L102.631 89.9453L100.327 94.2473C101.658 94.4725 103.02 94.4384 104.338 94.1469L105.638 91.6422Z" fill="#FFC3BD"/>
<path d="M99.7538 89.9453L98.0808 93.7406L100.308 94.2617L102.612 89.9453H99.7538Z" fill="#FFC3BD"/>
<path opacity="0.2" d="M115.513 185.564L115.193 190.067L118.888 190.76L119.208 186.258L115.513 185.564Z" fill="black"/>
<path opacity="0.2" d="M142.511 186.195H138.749L139.237 190.684H142.994L142.511 186.195Z" fill="black"/>
<path d="M144.729 77.1018C143.626 81.1587 142.828 85.2921 142.339 89.4676C141.98 92.3786 141.77 95.1558 141.636 97.6797C141.321 103.588 141.454 108.09 141.278 109.63C138.338 109.429 127.263 108.674 121.202 108.234C118.472 86.853 123.687 75.8398 123.687 75.8398C125.267 75.5429 126.863 75.3434 128.467 75.2423C128.807 75.2423 129.155 75.2089 129.504 75.2041C132.356 75.2375 135.203 75.4354 138.032 75.7968C138.567 75.859 139.112 75.9402 139.638 76.0263C142.367 76.4469 144.729 77.1018 144.729 77.1018Z" fill="#407BFF"/>
<g opacity="0.3">
<path opacity="0.3" d="M144.729 77.1018C143.626 81.1587 142.828 85.2921 142.339 89.4676C141.98 92.3786 141.77 95.1558 141.636 97.6797C141.321 103.588 141.454 108.09 141.278 109.63C138.338 109.429 127.263 108.674 121.202 108.234C118.472 86.853 123.687 75.8398 123.687 75.8398C125.267 75.5429 126.863 75.3434 128.467 75.2423C128.807 75.2423 129.155 75.2089 129.504 75.2041C132.356 75.2375 135.203 75.4354 138.032 75.7968C138.567 75.859 139.112 75.9402 139.638 76.0263C142.367 76.4469 144.729 77.1018 144.729 77.1018Z" fill="white"/>
</g>
<path opacity="0.2" d="M139.667 82.5127C139.628 85.5893 140.491 88.61 142.148 91.2027C142.205 90.6291 142.272 90.0508 142.344 89.4676C142.611 87.2784 142.955 85.0126 143.409 82.723L139.667 82.5127Z" fill="black"/>
<path d="M137.898 66.1221C137.172 68.8323 136.283 73.8179 138.075 75.7824C137.169 76.6048 136.096 77.2228 134.93 77.5948C133.764 77.9667 132.531 78.0838 131.316 77.9382C128.96 77.7231 128.96 76.0645 129.548 75.1897C132.659 74.6735 132.736 72.3982 132.353 70.2281L137.898 66.1221Z" fill="#FFC3BD"/>
<path d="M129.591 78.8319C129.646 79.2538 129.745 79.6687 129.887 80.0699C129.928 80.1977 130.008 80.3092 130.116 80.3883C130.224 80.4674 130.355 80.5099 130.489 80.5097C130.882 80.5039 131.274 80.5376 131.66 80.6101C131.742 80.6291 131.826 80.6313 131.908 80.6165C131.99 80.6017 132.069 80.5702 132.138 80.524C132.616 80.2229 133.228 79.7783 133.07 79.2239C132.884 78.5738 131.765 77.9858 131.765 77.9858C131.765 77.9858 129.844 78.4591 129.591 78.8319Z" fill="#263238"/>
<path d="M130.599 80.0698C129.83 81.7524 128.051 92.5265 127.832 94.1565C127.612 95.7865 128.362 98.4155 129.404 100.504C130.602 98.8617 131.284 96.9 131.364 94.8687C131.503 92.6412 131.636 80.3375 131.636 80.3375L130.599 80.0698Z" fill="#263238"/>
<path d="M131.751 77.986C132.463 78.5795 133.051 79.3071 133.481 80.1275C134.691 80.0319 140.03 77.6897 139.27 75.8828C138.606 75.6964 138.022 75.314 137.836 75.51C137.583 75.8972 135.317 77.2642 131.751 77.986Z" fill="white"/>
<path d="M131.751 77.9857C131.751 77.9857 129.7 78.6788 129.222 79.8451C127.984 79.2954 127.31 76.8146 128.405 75.1846C129.089 75.1272 129.743 74.7879 129.868 75.0125C130.059 75.4379 129.538 76.5804 131.751 77.9857Z" fill="white"/>
<path opacity="0.2" d="M135.637 67.7998L132.353 70.2233C132.452 70.7289 132.505 71.2425 132.511 71.7576C133.692 71.6716 135.379 70.5005 135.599 69.2864C135.703 68.7974 135.716 68.2935 135.637 67.7998Z" fill="black"/>
<path d="M129.935 57.4176C128.501 57.9817 127.97 63.5312 130.891 62.9863C133.811 62.4414 132.822 56.2848 129.935 57.4176Z" fill="#263238"/>
<path d="M139.404 62.9669C138.233 66.5089 137.731 68.6408 135.427 70.0127C131.957 72.0728 127.946 69.2526 128.032 65.4334C128.109 61.9966 130.006 56.7769 133.912 56.275C134.771 56.1586 135.647 56.2641 136.454 56.5815C137.262 56.8989 137.975 57.4177 138.525 58.0884C139.076 58.7591 139.445 59.5594 139.599 60.4134C139.753 61.2673 139.686 62.1463 139.404 62.9669Z" fill="#FFC3BD"/>
<path d="M138.075 65.405C136.588 65.4336 135.37 60.9309 138.367 59.669C136.005 59.3965 128.754 59.7932 127.454 56.5524C126.154 53.3116 131.197 52.8097 132.913 54.0333C132.368 52.2504 134.586 49.6214 138.572 52.0114C142.559 54.4014 142.511 57.3507 142.138 58.2254C143.916 58.7034 144.265 62.6612 142.301 63.1918C143.453 64.7883 142.458 68.1439 139.351 67.4269C139.246 69.3819 137.066 68.5263 137.2 67.0254C137.334 65.5245 138.075 65.405 138.075 65.405Z" fill="#263238"/>
<path d="M131.45 66.2699C131.87 66.3928 132.314 66.4136 132.744 66.3304C133.173 66.2473 133.577 66.0627 133.921 65.7919C133.939 65.7732 133.949 65.7484 133.949 65.7226C133.949 65.6968 133.939 65.672 133.921 65.6533C133.903 65.6358 133.879 65.626 133.854 65.626C133.829 65.626 133.805 65.6358 133.787 65.6533C133.47 65.908 133.096 66.0841 132.697 66.1671C132.299 66.2502 131.886 66.2379 131.493 66.1313C131.481 66.1277 131.469 66.1266 131.456 66.1281C131.444 66.1296 131.432 66.1336 131.421 66.1398C131.41 66.1461 131.401 66.1545 131.394 66.1646C131.386 66.1746 131.381 66.1861 131.378 66.1982C131.382 66.216 131.39 66.2322 131.403 66.245C131.416 66.2578 131.432 66.2665 131.45 66.2699Z" fill="#263238"/>
<path d="M140.145 66.7242C139.458 67.3652 138.546 67.7088 137.607 67.6802C136.364 67.6276 136.125 66.423 136.789 65.4527C137.392 64.5779 138.759 63.5407 139.848 64.0713C140.086 64.1902 140.289 64.3665 140.441 64.5841C140.592 64.8017 140.687 65.0537 140.717 65.3173C140.746 65.5809 140.709 65.8476 140.609 66.0933C140.509 66.339 140.35 66.5559 140.145 66.7242Z" fill="#FFC3BD"/>
<path d="M113.946 188.609L120.16 190.077C120.16 190.077 122.358 165.866 124.246 152.563C124.748 149.036 125.523 144.074 126.703 138.787C128.19 132.129 130.049 124.925 131.589 119.285C133.199 113.343 134.428 109.142 134.428 109.142L121.245 108.219C121.245 108.219 114.108 139.337 113.353 150.761C112.545 162.683 113.946 188.609 113.946 188.609Z" fill="#263238"/>
<path opacity="0.2" d="M126.67 138.788C128.157 132.129 130.016 124.926 131.555 119.285L130.183 116.336C126.928 120.222 126.049 132.253 126.67 138.788Z" fill="black"/>
<path d="M128.338 108.717C128.338 108.717 129.772 140.896 131.35 151.794C133.085 163.744 137.497 189.814 137.497 189.814H144.385C144.385 189.814 142.473 165.02 141.177 153.333C139.7 140.021 141.278 109.62 141.278 109.62L128.338 108.717Z" fill="#263238"/>
<path d="M136.674 189.962H144.781L145.14 187.539L136.192 187.381L136.674 189.962Z" fill="#407BFF"/>
<path d="M113.549 189.025L120.609 190.354L121.407 187.892L113.358 186.368L113.549 189.025Z" fill="#407BFF"/>
<path d="M133.959 62.685C133.878 62.9765 133.663 63.163 133.481 63.1247C133.3 63.0865 133.195 62.7949 133.271 62.5033C133.348 62.2117 133.567 62.0253 133.749 62.0636C133.931 62.1018 134.036 62.3934 133.959 62.685Z" fill="#263238"/>
<path d="M130.642 61.8153C130.566 62.1069 130.346 62.2933 130.164 62.2503C129.983 62.2073 129.882 61.9253 129.959 61.6289C130.035 61.3325 130.255 61.1509 130.437 61.1891C130.618 61.2274 130.719 61.519 130.642 61.8153Z" fill="#263238"/>
<path d="M131.378 62.0874C130.792 62.8912 130.098 63.6116 129.318 64.2288C129.705 64.8455 130.704 64.7929 130.704 64.7929L131.378 62.0874Z" fill="#E48C7A"/>
<path d="M134.987 61.734C134.954 61.7319 134.922 61.7205 134.895 61.7011C134.868 61.6816 134.847 61.6549 134.834 61.6241C134.753 61.4152 134.625 61.2282 134.459 61.078C134.293 60.9277 134.094 60.8184 133.878 60.7589C133.855 60.7545 133.833 60.7456 133.814 60.7328C133.794 60.7199 133.778 60.7034 133.765 60.6841C133.752 60.6648 133.742 60.6431 133.738 60.6202C133.733 60.5974 133.733 60.5738 133.737 60.5509C133.742 60.528 133.75 60.5062 133.763 60.4867C133.776 60.4672 133.793 60.4505 133.812 60.4374C133.831 60.4243 133.853 60.4151 133.876 60.4104C133.899 60.4057 133.922 60.4055 133.945 60.4099C134.219 60.4798 134.472 60.6144 134.684 60.8024C134.895 60.9903 135.058 61.2262 135.159 61.4902C135.169 61.5118 135.174 61.5351 135.174 61.5587C135.174 61.5822 135.17 61.6056 135.161 61.6274C135.152 61.6493 135.139 61.6691 135.122 61.6857C135.105 61.7024 135.085 61.7156 135.064 61.7244C135.039 61.7335 135.013 61.7368 134.987 61.734Z" fill="#263238"/>
<path d="M129.242 60.1519C129.205 60.1476 129.17 60.1327 129.141 60.1089C129.124 60.0924 129.111 60.0727 129.102 60.051C129.092 60.0292 129.088 60.0058 129.088 59.9822C129.088 59.9586 129.092 59.9352 129.102 59.9135C129.111 59.8917 129.124 59.872 129.141 59.8556C129.32 59.6366 129.549 59.4638 129.808 59.3515C130.068 59.2392 130.351 59.1908 130.633 59.2103C130.679 59.2184 130.72 59.2436 130.748 59.2808C130.777 59.318 130.79 59.3645 130.786 59.411C130.778 59.4576 130.754 59.4995 130.716 59.5281C130.679 59.5566 130.632 59.5695 130.585 59.564C130.361 59.5539 130.139 59.5961 129.934 59.6874C129.73 59.7787 129.55 59.9165 129.409 60.0898C129.389 60.1137 129.363 60.1319 129.333 60.1428C129.304 60.1537 129.272 60.1568 129.242 60.1519Z" fill="#263238"/>
<path d="M138.142 195.12C137.885 195.139 137.629 195.072 137.415 194.928C137.348 194.87 137.296 194.796 137.264 194.713C137.232 194.629 137.222 194.539 137.234 194.45C137.232 194.399 137.246 194.348 137.273 194.303C137.301 194.259 137.34 194.224 137.387 194.202C137.803 193.987 139.012 194.732 139.151 194.819C139.165 194.827 139.177 194.84 139.183 194.855C139.19 194.871 139.192 194.888 139.189 194.905C139.187 194.923 139.18 194.94 139.168 194.954C139.156 194.967 139.14 194.977 139.122 194.981C138.801 195.064 138.473 195.11 138.142 195.12ZM137.583 194.341C137.543 194.337 137.503 194.345 137.468 194.364C137.444 194.364 137.415 194.398 137.411 194.47C137.402 194.529 137.409 194.589 137.43 194.645C137.451 194.701 137.485 194.751 137.53 194.79C137.95 194.981 138.427 195.005 138.864 194.857C138.473 194.603 138.036 194.428 137.578 194.341H137.583Z" fill="#407BFF"/>
<path d="M139.098 194.986H139.055C138.668 194.776 137.912 193.949 137.994 193.552C138.007 193.486 138.042 193.427 138.093 193.385C138.145 193.342 138.209 193.319 138.276 193.318C138.344 193.308 138.414 193.313 138.48 193.333C138.546 193.353 138.606 193.387 138.658 193.432C139.093 193.786 139.184 194.866 139.189 194.919C139.189 194.935 139.185 194.951 139.178 194.965C139.17 194.979 139.159 194.991 139.146 195C139.129 195.001 139.112 194.996 139.098 194.986ZM138.338 193.461H138.3C138.185 193.461 138.175 193.528 138.171 193.552C138.123 193.796 138.601 194.422 138.988 194.713C138.963 194.285 138.808 193.875 138.543 193.538C138.486 193.488 138.413 193.461 138.338 193.461Z" fill="#407BFF"/>
<path d="M114.514 193.939C113.898 193.939 112.813 193.915 112.469 193.49C112.414 193.424 112.377 193.346 112.361 193.263C112.345 193.179 112.351 193.093 112.378 193.012C112.388 192.965 112.41 192.922 112.442 192.886C112.474 192.85 112.514 192.822 112.559 192.806C113.037 192.639 114.414 193.643 114.567 193.762C114.582 193.773 114.593 193.788 114.598 193.805C114.603 193.823 114.602 193.841 114.596 193.858C114.594 193.879 114.584 193.898 114.57 193.913C114.555 193.928 114.535 193.937 114.514 193.939ZM112.631 192.983C112.612 192.989 112.596 193.001 112.583 193.016C112.57 193.031 112.562 193.05 112.559 193.069C112.544 193.12 112.541 193.173 112.551 193.225C112.561 193.276 112.584 193.325 112.617 193.366C112.808 193.609 113.41 193.748 114.252 193.753C113.683 193.38 112.918 192.926 112.631 192.988V192.983Z" fill="#407BFF"/>
<path d="M114.514 193.939C114.493 193.947 114.469 193.947 114.447 193.939C114.036 193.662 113.291 192.706 113.429 192.299C113.463 192.204 113.554 192.094 113.797 192.108C113.889 192.112 113.979 192.135 114.061 192.175C114.143 192.216 114.216 192.273 114.275 192.342C114.682 192.82 114.61 193.829 114.605 193.872C114.604 193.887 114.599 193.902 114.591 193.914C114.582 193.927 114.571 193.937 114.557 193.944L114.514 193.939ZM113.683 192.28C113.616 192.28 113.601 192.328 113.597 192.342C113.515 192.586 114.008 193.322 114.414 193.671C114.447 193.243 114.345 192.815 114.122 192.448C114.081 192.398 114.03 192.357 113.973 192.327C113.915 192.298 113.852 192.28 113.788 192.276C113.753 192.269 113.717 192.271 113.683 192.28Z" fill="#407BFF"/>
<path d="M127.679 93.8892L126.154 92.7993L101.154 127.794L102.679 128.884C107.325 132.031 113.018 133.239 118.542 132.248C124.066 131.256 128.984 128.146 132.246 123.579C135.509 119.012 136.857 113.352 136.004 107.805C135.15 102.258 132.163 97.264 127.679 93.8892Z" fill="#407BFF"/>
<path opacity="0.1" d="M127.679 93.8892L126.154 92.7993L101.154 127.794L102.679 128.884C107.325 132.031 113.018 133.239 118.542 132.248C124.066 131.256 128.984 128.146 132.246 123.579C135.509 119.012 136.857 113.352 136.004 107.805C135.15 102.258 132.163 97.264 127.679 93.8892Z" fill="black"/>
<path d="M90.6526 113.033C90.2967 110.076 90.5159 107.078 91.2979 104.204L91.7759 104.328C91.0077 107.144 90.7934 110.083 91.145 112.98L90.6526 113.033Z" fill="#407BFF"/>
<path d="M92.1009 118.802C91.6746 117.714 91.3311 116.596 91.0732 115.456L91.5512 115.351C91.806 116.464 92.1432 117.557 92.5598 118.621L92.1009 118.802Z" fill="#407BFF"/>
<path d="M118 131.348C129.63 128.953 137.116 117.582 134.72 105.952C132.324 94.322 120.954 86.8361 109.324 89.2319C97.6939 91.6277 90.2079 102.998 92.6037 114.628C94.9995 126.258 106.37 133.744 118 131.348Z" fill="#407BFF"/>
<path d="M108.578 115.734L111.952 111.016C110.78 109.543 110.153 108.135 110.074 106.79C110.013 105.416 110.434 104.063 111.264 102.966C112.053 101.797 113.267 100.982 114.648 100.696C116.076 100.424 117.553 100.699 118.788 101.465L119.6 100.328L121.235 101.494L120.418 102.632C121.418 103.471 122.113 104.617 122.397 105.892C122.61 107.143 122.409 108.431 121.823 109.558L118.706 107.894C118.934 107.465 119.047 106.985 119.035 106.499C119.023 106.014 118.887 105.54 118.639 105.122L115.494 109.529C116.947 111.307 117.723 112.818 117.822 114.061C117.894 115.39 117.483 116.7 116.665 117.751C115.801 119.038 114.483 119.951 112.975 120.308C111.385 120.635 109.731 120.374 108.319 119.572L107.507 120.71L105.872 119.543L106.646 118.458C105.532 117.501 104.781 116.19 104.519 114.744C104.32 113.17 104.635 111.574 105.418 110.194L108.587 111.981C108.288 112.618 108.139 113.314 108.152 114.018C108.158 114.615 108.304 115.203 108.578 115.734ZM117.029 103.903C116.507 103.733 115.944 103.733 115.423 103.903C114.918 104.064 114.481 104.384 114.175 104.816C113.893 105.216 113.742 105.694 113.745 106.183C113.75 106.754 113.916 107.312 114.223 107.794L117.029 103.903ZM110.098 117.062C110.692 117.35 111.369 117.419 112.01 117.258C112.652 117.101 113.215 116.713 113.592 116.169C113.937 115.702 114.107 115.128 114.07 114.548C113.978 113.848 113.679 113.192 113.209 112.665L110.098 117.062Z" fill="white"/>
<path opacity="0.1" d="M131.072 108.506C130.072 104.162 127.452 100.362 123.746 97.8826C120.041 95.4029 115.53 94.4296 111.132 95.161C106.734 95.8925 102.78 98.2737 100.077 101.819C97.3743 105.365 96.1251 109.808 96.5846 114.242C96.048 111.913 95.994 109.498 96.426 107.146C96.858 104.795 97.7669 102.557 99.0966 100.57C100.426 98.5833 102.149 96.8898 104.158 95.5938C106.167 94.2979 108.42 93.4269 110.778 93.0347C113.137 92.6424 115.55 92.7372 117.871 93.3131C120.191 93.889 122.369 94.9339 124.27 96.3833C126.171 97.8328 127.756 99.6561 128.925 101.741C130.095 103.826 130.826 106.128 131.072 108.506Z" fill="black"/>
<path d="M145.212 79.1572C145.69 79.7643 146.086 80.3092 146.488 80.9019C146.889 81.4946 147.281 82.0635 147.664 82.6562C148.424 83.8416 149.146 85.0462 149.815 86.3033C150.484 87.5605 151.105 88.8463 151.669 90.1751L152.08 91.1837L152.453 92.221C152.578 92.5603 152.683 92.9236 152.793 93.2774L152.95 93.8127L152.993 93.9465L153.065 94.2381C153.111 94.4365 153.143 94.6377 153.161 94.8404C153.206 95.5141 153.117 96.1901 152.898 96.8289C152.733 97.3095 152.516 97.7711 152.253 98.2055C151.816 98.9168 151.31 99.5829 150.742 100.194C149.734 101.266 148.639 102.252 147.468 103.143C145.242 104.843 142.871 106.345 140.384 107.632L138.835 105.27C140.838 103.564 142.841 101.767 144.652 99.9455C145.533 99.0736 146.351 98.1408 147.1 97.1539C147.418 96.7416 147.693 96.298 147.922 95.8299C147.992 95.6766 148.047 95.5164 148.084 95.3519C148.084 95.2467 148.084 95.2276 148.084 95.3519C148.077 95.3866 148.077 95.4223 148.084 95.457C148.083 95.4714 148.083 95.4857 148.084 95.5L148.041 95.3949L147.874 94.9743C147.759 94.6875 147.659 94.4054 147.525 94.1234L147.143 93.2774L146.736 92.4313C146.168 91.308 145.561 90.1895 144.901 89.0853C144.241 87.9811 143.558 86.8817 142.845 85.8014C142.497 85.2565 142.133 84.7164 141.77 84.1858L140.68 82.6323L145.212 79.1572Z" fill="#FFC3BD"/>
<path d="M144.729 77.1014C148.252 77.8136 151.344 86.4272 151.344 86.4272L143.993 92.4165C143.993 92.4165 141.603 88.038 139.652 83.8125C137.554 79.2094 140.46 76.241 144.729 77.1014Z" fill="#407BFF"/>
<g opacity="0.3">
<path opacity="0.3" d="M144.729 77.1014C148.252 77.8136 151.344 86.4272 151.344 86.4272L143.993 92.4165C143.993 92.4165 141.603 88.038 139.652 83.8125C137.554 79.2094 140.46 76.241 144.729 77.1014Z" fill="white"/>
</g>
<path d="M139.705 104.94L135.91 105.356L138.371 109.477C138.371 109.477 141.526 108.406 141.144 106.676L139.705 104.94Z" fill="#FFC3BD"/>
<path d="M133.649 107.531L135.843 110.843L138.371 109.476L135.91 105.356L133.649 107.531Z" fill="#FFC3BD"/>
</svg>
