<svg width="230" height="230" viewBox="0 0 230 230" fill="none" xmlns="http://www.w3.org/2000/svg">
<path d="M230 175.904H0V176.019H230V175.904Z" fill="#E6E6E6"/>
<path d="M205.091 179.883H189.267V179.998H205.091V179.883Z" fill="#E6E6E6"/>
<path d="M119.439 179.883H114.71V179.998H119.439V179.883Z" fill="#E6E6E6"/>
<path d="M184.46 182.146H175.554V182.261H184.46V182.146Z" fill="#E6E6E6"/>
<path d="M53.1898 180.154H33.3224V180.269H53.1898V180.154Z" fill="#E6E6E6"/>
<path d="M59.1881 178.517H51.1198V178.632H59.1881V178.517Z" fill="#E6E6E6"/>
<path d="M146.896 183.388H103.804V183.503H146.896V183.388Z" fill="#E6E6E6"/>
<path d="M109.02 155.388H20.1985C19.5027 155.387 18.8358 155.109 18.3442 154.617C17.8526 154.124 17.5765 153.457 17.5765 152.761V27.9034C17.5826 27.2116 17.8614 26.5501 18.3523 26.0626C18.8432 25.5751 19.5067 25.301 20.1985 25.2998H109.02C109.717 25.2998 110.385 25.5765 110.877 26.0691C111.37 26.5617 111.647 27.2298 111.647 27.9264V152.761C111.647 153.458 111.37 154.126 110.877 154.618C110.385 155.111 109.717 155.388 109.02 155.388ZM20.1985 25.3918C19.5332 25.393 18.8956 25.6582 18.4255 26.1291C17.9555 26.5999 17.6915 27.2381 17.6915 27.9034V152.761C17.6915 153.427 17.9555 154.065 18.4255 154.536C18.8956 155.006 19.5332 155.272 20.1985 155.273H109.02C109.686 155.272 110.324 155.007 110.795 154.536C111.265 154.065 111.53 153.427 111.532 152.761V27.9034C111.53 27.2377 111.265 26.5995 110.795 26.1288C110.324 25.658 109.686 25.393 109.02 25.3918H20.1985Z" fill="#E6E6E6"/>
<path d="M208.523 155.388H119.697C119 155.387 118.333 155.109 117.841 154.617C117.348 154.125 117.071 153.457 117.07 152.761V27.9034C117.077 27.2112 117.357 26.5497 117.849 26.0623C118.34 25.5749 119.004 25.301 119.697 25.2998H208.523C209.214 25.3022 209.876 25.5768 210.366 26.0642C210.856 26.5516 211.134 27.2124 211.14 27.9034V152.761C211.14 153.456 210.864 154.123 210.374 154.615C209.883 155.108 209.218 155.385 208.523 155.388ZM119.697 25.3918C119.031 25.393 118.393 25.658 117.922 26.1288C117.451 26.5995 117.186 27.2377 117.185 27.9034V152.761C117.186 153.427 117.451 154.065 117.922 154.536C118.393 155.007 119.031 155.272 119.697 155.273H208.523C209.188 155.272 209.826 155.007 210.297 154.536C210.768 154.065 211.033 153.427 211.034 152.761V27.9034C211.033 27.2377 210.768 26.5995 210.297 26.1288C209.826 25.658 209.188 25.393 208.523 25.3918H119.697Z" fill="#E6E6E6"/>
<path d="M93.9688 175.904H132.986C129.163 161.487 131.454 145.962 139.849 131.546H100.832C92.4324 145.962 90.16 161.487 93.9688 175.904Z" fill="#FAFAFA"/>
<path d="M92.6394 152.26H132.08C133.434 144.958 136.061 137.952 139.84 131.56H100.404C96.6251 137.952 93.997 144.959 92.6394 152.26Z" fill="#E6E6E6"/>
<path d="M34.4541 146.804L192.161 146.804C194.752 146.804 196.853 144.704 196.853 142.112V44.9878C196.853 42.3965 194.752 40.2958 192.161 40.2958L34.4541 40.2958C31.8628 40.2958 29.7621 42.3965 29.7621 44.9878V142.112C29.7621 144.704 31.8628 146.804 34.4541 146.804Z" fill="#E6E6E6"/>
<path d="M36.6665 146.804L194.373 146.804C196.964 146.804 199.065 144.704 199.065 142.112V44.9878C199.065 42.3965 196.964 40.2958 194.373 40.2958L36.6665 40.2958C34.0752 40.2958 31.9745 42.3965 31.9745 44.9878V142.112C31.9745 144.704 34.0752 146.804 36.6665 146.804Z" fill="#F5F5F5"/>
<path d="M31.9745 131.551L199.065 131.551V45.6918L31.9745 45.6918V131.551Z" fill="white"/>
<path d="M115.524 142.567C117.29 142.567 118.721 141.136 118.721 139.37C118.721 137.605 117.29 136.173 115.524 136.173C113.759 136.173 112.327 137.605 112.327 139.37C112.327 141.136 113.759 142.567 115.524 142.567Z" fill="#E6E6E6"/>
<path d="M101.2 172.817H145.742C146.56 172.817 147.345 173.143 147.924 173.721C148.503 174.3 148.828 175.085 148.828 175.904H98.1226C98.1226 175.087 98.4465 174.303 99.0233 173.725C99.6002 173.146 100.383 172.82 101.2 172.817Z" fill="#F5F5F5"/>
<path d="M90.62 172.817H98.5964C99.4142 172.818 100.198 173.144 100.776 173.723C101.354 174.301 101.678 175.086 101.678 175.904H87.5104C87.511 175.496 87.592 175.093 87.7487 174.718C87.9055 174.342 88.135 174.001 88.4239 173.714C88.7128 173.427 89.0556 173.2 89.4324 173.047C89.8093 172.893 90.2129 172.815 90.62 172.817Z" fill="#E6E6E6"/>
<path d="M130.87 33.4188C130.869 32.7299 130.595 32.0695 130.107 31.5824C129.62 31.0953 128.96 30.821 128.271 30.8198H47.311C46.6225 30.8222 45.9628 31.0968 45.4759 31.5837C44.9891 32.0706 44.7145 32.7303 44.712 33.4188V41.7816H130.87V33.4188Z" fill="#E6E6E6"/>
<path d="M109.862 38.2673C110.947 38.2673 111.826 37.3879 111.826 36.3031C111.826 35.2183 110.947 34.3389 109.862 34.3389C108.777 34.3389 107.898 35.2183 107.898 36.3031C107.898 37.3879 108.777 38.2673 109.862 38.2673Z" fill="white"/>
<path d="M116.822 38.2673C117.906 38.2673 118.786 37.3879 118.786 36.3031C118.786 35.2183 117.906 34.3389 116.822 34.3389C115.737 34.3389 114.857 35.2183 114.857 36.3031C114.857 37.3879 115.737 38.2673 116.822 38.2673Z" fill="white"/>
<path d="M123.786 38.2673C124.871 38.2673 125.75 37.3879 125.75 36.3031C125.75 35.2183 124.871 34.3389 123.786 34.3389C122.701 34.3389 121.822 35.2183 121.822 36.3031C121.822 37.3879 122.701 38.2673 123.786 38.2673Z" fill="white"/>
<path d="M47.334 98.1087H128.294C128.982 98.1075 129.642 97.834 130.129 97.3478C130.616 96.8616 130.891 96.2025 130.893 95.5143V41.7817H44.735V95.5143C44.7386 96.2021 45.0138 96.8606 45.5005 97.3465C45.9873 97.8324 46.6462 98.1063 47.334 98.1087Z" fill="#FAFAFA"/>
<path d="M136.666 42.113C136.664 41.4256 136.39 40.7671 135.903 40.2811C135.417 39.7951 134.759 39.521 134.072 39.5186H53.1346C52.4465 39.5198 51.7868 39.7933 51.2998 40.2795C50.8128 40.7656 50.5381 41.4248 50.5356 42.113V50.4804H136.666V42.113Z" fill="#F5F5F5"/>
<path d="M115.658 46.9611C116.743 46.9611 117.622 46.0817 117.622 44.9969C117.622 43.9121 116.743 43.0327 115.658 43.0327C114.573 43.0327 113.694 43.9121 113.694 44.9969C113.694 46.0817 114.573 46.9611 115.658 46.9611Z" fill="#E6E6E6"/>
<path d="M122.622 46.9611C123.707 46.9611 124.586 46.0817 124.586 44.9969C124.586 43.9121 123.707 43.0327 122.622 43.0327C121.537 43.0327 120.658 43.9121 120.658 44.9969C120.658 46.0817 121.537 46.9611 122.622 46.9611Z" fill="#E6E6E6"/>
<path d="M131.56 44.9969C131.56 45.3854 131.445 45.7652 131.229 46.0882C131.013 46.4112 130.706 46.6629 130.347 46.8116C129.989 46.9603 129.594 46.9992 129.213 46.9234C128.832 46.8476 128.482 46.6605 128.207 46.3858C127.932 46.1111 127.745 45.7611 127.669 45.3801C127.594 44.9991 127.632 44.6042 127.781 44.2452C127.93 43.8863 128.182 43.5796 128.505 43.3637C128.828 43.1479 129.207 43.0327 129.596 43.0327C130.117 43.0327 130.616 43.2397 130.985 43.608C131.353 43.9764 131.56 44.476 131.56 44.9969Z" fill="#E6E6E6"/>
<path d="M53.1346 106.807H134.095C134.783 106.805 135.442 106.53 135.928 106.043C136.414 105.556 136.688 104.896 136.689 104.208V50.48H50.5356V104.208C50.5369 104.897 50.8111 105.557 51.2982 106.044C51.7854 106.532 52.4457 106.806 53.1346 106.807Z" fill="white"/>
<path d="M142.467 50.8114C142.465 50.1225 142.191 49.4621 141.704 48.975C141.217 48.4878 140.556 48.2136 139.868 48.2124H58.9305C58.2416 48.2136 57.5813 48.4878 57.0941 48.975C56.607 49.4621 56.3328 50.1225 56.3315 50.8114V59.1742H142.467V50.8114Z" fill="#FAFAFA"/>
<path d="M121.458 55.6599C122.543 55.6599 123.423 54.7804 123.423 53.6956C123.423 52.6109 122.543 51.7314 121.458 51.7314C120.374 51.7314 119.494 52.6109 119.494 53.6956C119.494 54.7804 120.374 55.6599 121.458 55.6599Z" fill="#F0F0F0"/>
<path d="M128.418 55.6599C129.503 55.6599 130.382 54.7804 130.382 53.6956C130.382 52.6109 129.503 51.7314 128.418 51.7314C127.333 51.7314 126.454 52.6109 126.454 53.6956C126.454 54.7804 127.333 55.6599 128.418 55.6599Z" fill="#F0F0F0"/>
<path d="M137.347 53.6956C137.348 54.0852 137.233 54.4663 137.017 54.7907C136.801 55.1151 136.494 55.3681 136.135 55.5179C135.775 55.6676 135.379 55.7072 134.997 55.6318C134.614 55.5563 134.263 55.3692 133.987 55.094C133.712 54.8189 133.524 54.4681 133.447 54.086C133.371 53.704 133.41 53.3079 133.559 52.9479C133.707 52.5879 133.96 52.2801 134.284 52.0636C134.608 51.847 134.988 51.7314 135.378 51.7314C135.899 51.7314 136.399 51.9382 136.769 52.3065C137.138 52.6747 137.346 53.1743 137.347 53.6956Z" fill="#F0F0F0"/>
<path d="M58.9305 115.506H139.891C140.579 115.504 141.239 115.229 141.726 114.742C142.213 114.255 142.487 113.595 142.49 112.907V59.1743H56.3315V112.907C56.334 113.595 56.6086 114.255 57.0955 114.742C57.5823 115.229 58.242 115.504 58.9305 115.506Z" fill="#E6E6E6"/>
<path opacity="0.5" d="M164.22 82.064H134.555V126.362H178.857V82.064H164.22ZM149.569 82.409H163.87V96.715H149.555L149.569 82.409ZM163.87 111.366H149.555V97.06H163.857L163.87 111.366ZM134.918 82.409H149.219V96.715H134.904L134.918 82.409ZM134.918 97.06H149.219V111.366H134.904L134.918 97.06ZM149.206 126.04H134.904V111.734H149.206V126.04ZM163.857 126.04H149.555V111.734H163.857V126.04ZM178.508 126.04H164.22V111.734H178.521L178.508 126.04ZM178.508 111.389H164.22V97.06H178.521L178.508 111.389ZM164.22 96.715V82.409H178.521V96.715H164.22Z" fill="#E6E6E6"/>
<path d="M152.251 75.2422H203.959V51.727L152.251 51.727V75.2422Z" fill="#F5F5F5"/>
<path d="M203.959 60.8944V75.2464H152.26V57.4214C160.839 57.4214 165.416 65.2874 176.028 65.2874C186.64 65.2874 189.837 60.8944 203.959 60.8944Z" fill="white"/>
<path d="M203.959 67.753C192.34 67.753 188.503 62.6147 181.976 62.6147C175.449 62.6147 172.242 68.0106 164.11 68.0106C155.636 68.0106 152.251 63.7694 152.251 63.7694V75.2694H203.959V67.753Z" fill="#E6E6E6"/>
<path d="M115 196.678C164.258 196.678 204.189 194.346 204.189 191.47C204.189 188.595 164.258 186.263 115 186.263C65.742 186.263 25.8105 188.595 25.8105 191.47C25.8105 194.346 65.742 196.678 115 196.678Z" fill="#F5F5F5"/>
<path d="M92.92 97.2992C90.9936 90.4061 91.76 83.0385 95.0639 76.6895C98.3678 70.3404 103.962 65.4851 110.713 63.1074L112.447 68.5998C107.16 70.5241 102.787 74.3622 100.193 79.3553C97.5997 84.3483 96.974 90.1328 98.44 95.565L92.92 97.2992Z" fill="#407BFF"/>
<path d="M106.991 114.651C104.823 113.531 102.812 112.13 101.011 110.483C97.5944 107.351 95.0018 103.425 93.4628 99.0521L98.9552 97.3179C100.239 100.875 102.401 104.05 105.241 106.548C108.081 109.045 111.507 110.784 115.199 111.602C118.891 112.421 122.731 112.292 126.36 111.229C129.989 110.165 133.291 108.201 135.958 105.52L140.203 109.411C135.957 113.723 130.439 116.559 124.461 117.502C118.482 118.446 112.359 117.446 106.991 114.651Z" fill="#407BFF"/>
<path opacity="0.7" d="M106.991 114.651C104.823 113.531 102.812 112.13 101.011 110.483C97.5944 107.351 95.0018 103.425 93.4628 99.0521L98.9552 97.3179C100.239 100.875 102.401 104.05 105.241 106.548C108.081 109.045 111.507 110.784 115.199 111.602C118.891 112.421 122.731 112.292 126.36 111.229C129.989 110.165 133.291 108.201 135.958 105.52L140.203 109.411C135.957 113.723 130.439 116.559 124.461 117.502C118.482 118.446 112.359 117.446 106.991 114.651Z" fill="white"/>
<path d="M137.223 104.163C140.305 100.509 142.139 95.9669 142.458 91.1978C142.778 86.4288 141.565 81.6825 138.998 77.6509C136.43 73.6194 132.642 70.5134 128.185 68.786C123.728 67.0586 118.837 66.8 114.223 68.0479L112.488 62.5279C119.537 60.5538 127.077 61.3976 133.515 64.881C139.953 68.3644 144.785 74.2144 146.988 81.1947C148.421 85.7669 148.669 90.6282 147.708 95.3223C146.747 100.016 144.61 104.389 141.496 108.031L137.223 104.163Z" fill="#407BFF"/>
<path opacity="0.3" d="M137.223 104.163C140.305 100.509 142.139 95.9669 142.458 91.1978C142.778 86.4288 141.565 81.6825 138.998 77.6509C136.43 73.6194 132.642 70.5134 128.185 68.786C123.728 67.0586 118.837 66.8 114.223 68.0479L112.488 62.5279C119.537 60.5538 127.077 61.3976 133.515 64.881C139.953 68.3644 144.785 74.2144 146.988 81.1947C148.421 85.7669 148.669 90.6282 147.708 95.3223C146.747 100.016 144.61 104.389 141.496 108.031L137.223 104.163Z" fill="black"/>
<path d="M125.327 82.8921C124.677 82.2419 123.905 81.726 123.056 81.3739C122.207 81.0219 121.296 80.8405 120.377 80.8403C119.457 80.8401 118.547 81.021 117.697 81.3727C116.848 81.7243 116.076 82.2399 115.425 82.8899C114.775 83.5398 114.259 84.3115 113.907 85.1609C113.555 86.0103 113.374 86.9207 113.374 87.8401C113.373 88.7596 113.554 89.67 113.906 90.5196C114.258 91.3691 114.773 92.1411 115.423 92.7913L120.373 97.7409L125.327 92.7913C126.639 91.4784 127.377 89.6981 127.377 87.8417C127.377 85.9854 126.639 84.205 125.327 82.8921Z" fill="#407BFF"/>
<path opacity="0.3" d="M125.327 82.8921C124.677 82.2419 123.905 81.726 123.056 81.3739C122.207 81.0219 121.296 80.8405 120.377 80.8403C119.457 80.8401 118.547 81.021 117.697 81.3727C116.848 81.7243 116.076 82.2399 115.425 82.8899C114.775 83.5398 114.259 84.3115 113.907 85.1609C113.555 86.0103 113.374 86.9207 113.374 87.8401C113.373 88.7596 113.554 89.67 113.906 90.5196C114.258 91.3691 114.773 92.1411 115.423 92.7913L120.373 97.7409L125.327 92.7913C126.639 91.4784 127.377 89.6981 127.377 87.8417C127.377 85.9854 126.639 84.205 125.327 82.8921Z" fill="black"/>
<path d="M120.653 99.2085H120.101V101.417H120.653V99.2085Z" fill="#407BFF"/>
<path opacity="0.3" d="M120.653 99.2085H120.101V101.417H120.653V99.2085Z" fill="black"/>
<path d="M120.653 103.123H120.101V105.331H120.653V103.123Z" fill="#407BFF"/>
<path opacity="0.3" d="M120.653 103.123H120.101V105.331H120.653V103.123Z" fill="black"/>
<path d="M101.269 120.989H82.5332V188.83H101.269V120.989Z" fill="#407BFF"/>
<path opacity="0.7" d="M101.269 120.989H82.5332V188.83H101.269V120.989Z" fill="white"/>
<path d="M110.262 120.989H101.269V188.83H110.262V120.989Z" fill="#407BFF"/>
<path opacity="0.5" d="M110.262 120.989H101.269V188.83H110.262V120.989Z" fill="white"/>
<path d="M135.912 145.958H135.433V156.52H135.912V145.958Z" fill="#263238"/>
<path d="M135.912 139.748H135.433V143.994H135.912V139.748Z" fill="#263238"/>
<path d="M149.219 163.07H130.484V188.83H149.219V163.07Z" fill="#407BFF"/>
<path opacity="0.5" d="M149.219 163.07H130.484V188.83H149.219V163.07Z" fill="black"/>
<path d="M158.212 163.07H149.219V188.83H158.212V163.07Z" fill="#407BFF"/>
<path opacity="0.6" d="M158.212 163.07H149.219V188.83H158.212V163.07Z" fill="black"/>
<path d="M125.244 106.646H106.508V188.83H125.244V106.646Z" fill="#407BFF"/>
<path opacity="0.7" d="M125.244 106.646H106.508V188.83H125.244V106.646Z" fill="black"/>
<path d="M134.237 106.646H125.244V188.83H134.237V106.646Z" fill="#407BFF"/>
<path opacity="0.8" d="M134.237 106.646H125.244V188.83H134.237V106.646Z" fill="black"/>
<path d="M162.026 87.6897C161.382 92.7773 160.572 97.8787 159.85 102.925C159.76 103.662 159.627 104.393 159.45 105.115C159.243 105.853 158.978 106.575 158.658 107.272C158.048 108.584 157.286 109.819 156.386 110.952C155.529 112.041 154.584 113.058 153.562 113.993C153.065 114.453 152.536 114.913 152.002 115.313C151.469 115.713 150.94 116.127 150.328 116.527L148.695 114.489C149.077 114.066 149.509 113.569 149.9 113.109C150.291 112.649 150.677 112.153 151.055 111.665C151.792 110.712 152.467 109.711 153.074 108.67C153.659 107.694 154.142 106.66 154.514 105.584C154.685 105.086 154.816 104.575 154.905 104.057C154.985 103.512 155.038 102.964 155.061 102.414C155.231 99.8015 155.489 97.2163 155.774 94.6357C156.059 92.0551 156.4 89.5067 156.805 86.9399L162.026 87.6897Z" fill="#E58A7B"/>
<path d="M163.171 85.9416C164.344 89.0558 158.406 98.2236 158.406 98.2236L151.446 94.447C152.493 91.594 153.846 88.8626 155.48 86.3004C157.927 82.6296 161.888 82.5238 163.171 85.9416Z" fill="#407BFF"/>
<path opacity="0.2" d="M163.171 85.9416C164.344 89.0558 158.406 98.2236 158.406 98.2236L151.446 94.447C152.493 91.594 153.846 88.8626 155.48 86.3004C157.927 82.6296 161.888 82.5238 163.171 85.9416Z" fill="black"/>
<path d="M159.04 83.559C159.04 83.559 154.933 94.07 158.833 113.638H177.45C177.578 110.782 175.78 96.8438 178.535 83.3842C176.479 82.9854 174.398 82.7211 172.307 82.593C169.672 82.441 167.03 82.441 164.395 82.593C162.588 82.7751 160.797 83.098 159.04 83.559Z" fill="#407BFF"/>
<path opacity="0.2" d="M159.04 83.559C159.04 83.559 154.933 94.07 158.833 113.638H177.45C177.578 110.782 175.78 96.8438 178.535 83.3842C176.479 82.9854 174.398 82.7211 172.307 82.593C169.672 82.441 167.03 82.441 164.395 82.593C162.588 82.7751 160.797 83.098 159.04 83.559Z" fill="black"/>
<path d="M161.511 187.183H158.033L157.104 179.124H160.586L161.511 187.183Z" fill="#E58A7B"/>
<path d="M186.001 187.183H182.523L179.809 179.124H183.292L186.001 187.183Z" fill="#E58A7B"/>
<path d="M182.059 186.76H186.3C186.369 186.759 186.436 186.783 186.49 186.827C186.544 186.87 186.581 186.931 186.594 186.999L187.284 190.095C187.299 190.17 187.298 190.248 187.279 190.322C187.26 190.396 187.225 190.466 187.176 190.525C187.127 190.584 187.066 190.631 186.996 190.663C186.926 190.696 186.85 190.712 186.774 190.711C185.394 190.688 184.414 190.61 182.694 190.61C181.636 190.61 179.474 190.72 177.997 190.72C176.52 190.72 176.346 189.276 176.944 189.143C179.625 188.558 180.624 187.763 181.493 186.976C181.648 186.836 181.85 186.759 182.059 186.76Z" fill="#263238"/>
<path d="M158.056 186.76H161.856C161.925 186.76 161.992 186.784 162.047 186.827C162.101 186.871 162.139 186.931 162.155 186.999L162.84 190.095C162.857 190.169 162.856 190.247 162.839 190.321C162.821 190.396 162.787 190.465 162.739 190.525C162.69 190.584 162.629 190.631 162.56 190.664C162.491 190.696 162.415 190.712 162.339 190.711C160.959 190.688 158.985 190.61 157.279 190.61C155.264 190.61 153.525 190.72 151.161 190.72C149.73 190.72 149.321 189.276 149.932 189.143C152.656 188.549 154.877 188.485 157.233 187.031C157.477 186.867 157.762 186.773 158.056 186.76Z" fill="#263238"/>
<path d="M149.96 113.16L147.043 115.598L150.875 117.848C151.44 117.411 151.851 116.806 152.047 116.12C152.243 115.434 152.214 114.703 151.965 114.034L149.96 113.16Z" fill="#E58A7B"/>
<path d="M157.108 179.128L157.582 183.282H161.064L160.586 179.128H157.108Z" fill="#CF6F64"/>
<path d="M183.292 179.128H179.809L181.208 183.282H184.69L183.292 179.128Z" fill="#CF6F64"/>
<path opacity="0.2" d="M174.745 89.8149C175.352 86.7421 176.534 87.2757 177.657 88.7891C177.177 92.8619 176.956 96.9611 176.994 101.062C176.231 99.7601 173.728 94.9623 174.745 89.8149Z" fill="black"/>
<path d="M171.52 73.6875C171.023 76.2313 170.527 80.8957 172.307 82.5931C172.307 82.5931 171.612 85.1783 166.879 85.1783C161.676 85.1783 164.395 82.5977 164.395 82.5977C167.233 81.9169 167.155 79.8101 166.663 77.8321L171.52 73.6875Z" fill="#E58A7B"/>
<path d="M169.542 75.3804L166.667 77.8322C166.79 78.2917 166.872 78.7612 166.911 79.2352C167.997 79.0788 169.487 77.8874 169.602 76.7512C169.664 76.2944 169.644 75.83 169.542 75.3804Z" fill="#CF6F64"/>
<path d="M163.429 65.8538C161.717 66.5806 160.788 71.3738 162.969 72.4824C165.149 73.591 166.672 64.483 163.429 65.8538Z" fill="#263238"/>
<path d="M171.824 69.8556C171.612 73.301 171.663 75.3296 169.924 77.1006C167.306 79.7594 163.047 78.1816 162.228 74.7408C161.487 71.645 161.957 66.5252 165.333 65.1544C166.076 64.8487 166.884 64.738 167.681 64.8327C168.479 64.9274 169.239 65.2243 169.889 65.6954C170.539 66.1664 171.058 66.7959 171.397 67.524C171.736 68.2521 171.882 69.0547 171.824 69.8556Z" fill="#E58A7B"/>
<path d="M161.193 63.6916C163.277 60.5314 163.603 62.0539 163.571 63.5581C165.411 61.8193 168.811 59.6022 170.471 61.6262C170.668 61.835 170.796 62.0991 170.838 62.3828C170.88 62.6666 170.834 62.9564 170.706 63.2131C172.845 62.6427 175.002 62.4818 174.611 64.791C174.266 66.8333 172.808 67.5831 170.766 67.5969C167.104 68.1029 158.24 68.1535 161.193 63.6916Z" fill="#263238"/>
<path d="M171.58 73.2321C169.74 73.9819 166.037 67.2245 171.607 66.4287C177.178 65.6329 174.528 72.0223 171.58 73.2321Z" fill="#263238"/>
<path d="M173.383 73.6552C172.917 74.3882 172.182 74.9087 171.336 75.1042C170.214 75.3526 169.712 74.3314 170.08 73.301C170.411 72.381 171.391 71.1344 172.495 71.346C172.735 71.3974 172.959 71.5079 173.146 71.6675C173.333 71.8271 173.477 72.0308 173.565 72.2601C173.653 72.4894 173.682 72.7371 173.651 72.9807C173.619 73.2243 173.527 73.4561 173.383 73.6552Z" fill="#E58A7B"/>
<path d="M175.2 67.4728C174.944 67.1879 174.621 66.9714 174.261 66.8429C173.9 66.7143 173.513 66.6779 173.135 66.7368C173.135 66.7368 174.933 65.32 175.2 67.4728Z" fill="#263238"/>
<path d="M158.833 113.62C158.833 113.62 149.04 138.506 149.399 149.123C149.79 160.163 156.299 182.478 156.299 182.478H162.196C162.196 182.478 159.781 160.802 160.043 149.965C160.328 138.143 171.083 113.625 171.083 113.625L158.833 113.62Z" fill="#407BFF"/>
<path opacity="0.2" d="M166.653 121.858L167.219 123.142C165.155 128.46 163.362 133.88 161.846 139.38C161.685 133.105 162.983 126.187 166.653 121.858Z" fill="black"/>
<path d="M165.439 113.62C165.439 113.62 163.456 139.067 165.623 149.04C167.997 159.951 179.57 182.468 179.57 182.468H185.946C185.946 182.468 177.417 160.848 176.06 150.029C174.593 138.304 177.44 113.629 177.44 113.629L165.439 113.62Z" fill="#407BFF"/>
<path d="M166.598 70.84C166.598 71.1206 166.446 71.3506 166.262 71.3506C166.078 71.3506 165.931 71.1206 165.931 70.84C165.931 70.5594 166.078 70.334 166.262 70.334C166.446 70.334 166.598 70.5364 166.598 70.84Z" fill="#263238"/>
<path d="M163.424 70.84C163.424 71.1206 163.272 71.3506 163.093 71.3506C162.913 71.3506 162.757 71.1206 162.757 70.84C162.757 70.5594 162.909 70.334 163.093 70.334C163.277 70.334 163.424 70.5364 163.424 70.84Z" fill="#263238"/>
<path d="M164.432 70.9595C164.097 71.8157 163.647 72.6221 163.093 73.3561C163.284 73.4935 163.503 73.5874 163.734 73.6311C163.966 73.6748 164.204 73.6673 164.432 73.6091V70.9595Z" fill="#DF5753"/>
<path d="M165.25 74.3864C165.228 74.3864 165.207 74.3777 165.192 74.3622C165.176 74.3467 165.167 74.3256 165.167 74.3036C165.167 74.2817 165.176 74.2606 165.192 74.2451C165.207 74.2296 165.228 74.2208 165.25 74.2208C165.599 74.2286 165.946 74.1539 166.26 74.0028C166.575 73.8518 166.85 73.6286 167.063 73.3514C167.069 73.3424 167.076 73.3346 167.086 73.3285C167.095 73.3224 167.105 73.3182 167.115 73.3161C167.126 73.3139 167.137 73.3139 167.148 73.316C167.158 73.3182 167.169 73.3224 167.178 73.3284C167.195 73.3405 167.207 73.3586 167.211 73.3791C167.215 73.3996 167.212 73.4209 167.201 73.4388C166.976 73.7426 166.682 73.9875 166.342 74.1526C166.002 74.3176 165.628 74.3979 165.25 74.3864Z" fill="#263238"/>
<path d="M167.55 69.7958C167.525 69.7951 167.501 69.789 167.479 69.7779C167.457 69.7668 167.437 69.7509 167.422 69.7314C167.301 69.5622 167.143 69.424 166.959 69.328C166.775 69.2321 166.571 69.1811 166.364 69.1794C166.342 69.1813 166.32 69.1787 166.299 69.1717C166.278 69.1648 166.259 69.1536 166.242 69.139C166.226 69.1243 166.213 69.1065 166.204 69.0865C166.194 69.0666 166.189 69.0449 166.189 69.023C166.186 68.9798 166.201 68.9373 166.229 68.9046C166.257 68.872 166.297 68.8517 166.341 68.8482C166.602 68.8467 166.861 68.9076 167.095 69.0261C167.328 69.1445 167.53 69.3169 167.684 69.529C167.71 69.5646 167.721 69.609 167.715 69.6528C167.709 69.6966 167.686 69.7363 167.652 69.7636C167.621 69.7831 167.586 69.7942 167.55 69.7958Z" fill="#263238"/>
<path d="M162.035 69.7268C162.011 69.7312 161.986 69.7312 161.961 69.7268C161.942 69.7175 161.924 69.7043 161.91 69.688C161.895 69.6718 161.884 69.6527 161.877 69.6321C161.871 69.6115 161.868 69.5896 161.87 69.568C161.871 69.5463 161.878 69.5252 161.888 69.506C161.997 69.269 162.161 69.0616 162.366 68.9015C162.572 68.7414 162.814 68.6331 163.07 68.586C163.111 68.5853 163.15 68.5997 163.181 68.6264C163.212 68.6531 163.232 68.6902 163.237 68.7307C163.242 68.7712 163.232 68.8121 163.209 68.8457C163.186 68.8792 163.151 68.903 163.111 68.9126C162.91 68.9562 162.723 69.0464 162.563 69.1758C162.403 69.3052 162.276 69.4703 162.191 69.6578C162.174 69.6828 162.151 69.7025 162.123 69.7147C162.095 69.7269 162.065 69.7311 162.035 69.7268Z" fill="#263238"/>
<path d="M179.86 86.0889C180.159 86.7329 180.412 87.3079 180.651 87.9289C180.89 88.5499 181.111 89.1387 181.355 89.7689C181.815 90.9925 182.197 92.2345 182.546 93.4995C182.896 94.7645 183.186 96.0571 183.425 97.3727L183.59 98.3617L183.71 99.3737C183.756 99.7095 183.774 100.054 183.802 100.399L183.834 100.915V101.043V101.26C183.834 101.421 183.834 101.568 183.834 101.72C183.743 102.626 183.481 103.506 183.061 104.314C182.735 104.964 182.364 105.591 181.953 106.191C181.191 107.288 180.356 108.333 179.455 109.319C177.721 111.228 175.84 112.999 173.829 114.613L171.989 112.773C173.493 110.851 174.993 108.863 176.359 106.89C177.024 105.929 177.639 104.934 178.199 103.909C178.456 103.449 178.679 102.971 178.866 102.479C179.003 102.164 179.081 101.828 179.096 101.485C179.096 101.485 179.096 101.513 179.096 101.485V101.379L179.032 100.965C178.99 100.685 178.954 100.409 178.889 100.128L178.724 99.2863L178.526 98.4399C178.245 97.3083 177.928 96.1721 177.56 95.0405C177.192 93.9089 176.801 92.7819 176.382 91.6549C175.964 90.5279 175.504 89.3917 175.076 88.3521L179.86 86.0889Z" fill="#E58A7B"/>
<path d="M180.904 187.39C180.668 187.408 180.433 187.345 180.237 187.211C180.171 187.155 180.121 187.084 180.091 187.003C180.062 186.923 180.053 186.836 180.067 186.751C180.067 186.704 180.079 186.657 180.104 186.616C180.128 186.576 180.163 186.543 180.205 186.521C180.596 186.323 181.714 187.013 181.843 187.091C181.856 187.1 181.867 187.112 181.873 187.127C181.88 187.142 181.882 187.158 181.879 187.174C181.876 187.19 181.869 187.206 181.857 187.218C181.846 187.23 181.831 187.239 181.815 187.243C181.518 187.325 181.212 187.374 180.904 187.39ZM180.389 186.668C180.352 186.665 180.316 186.673 180.283 186.691C180.26 186.691 180.233 186.723 180.228 186.788C180.222 186.843 180.23 186.899 180.25 186.951C180.27 187.003 180.302 187.049 180.343 187.087C180.732 187.261 181.172 187.283 181.576 187.146C181.215 186.912 180.812 186.75 180.389 186.668Z" fill="#407BFF"/>
<path d="M181.797 187.266H181.76C181.396 187.068 180.702 186.309 180.775 185.918C180.788 185.858 180.821 185.804 180.869 185.764C180.916 185.725 180.976 185.703 181.038 185.702C181.1 185.695 181.163 185.701 181.223 185.719C181.284 185.737 181.339 185.767 181.387 185.808C181.792 186.139 181.875 187.142 181.879 187.188C181.88 187.202 181.877 187.217 181.87 187.229C181.864 187.242 181.854 187.253 181.843 187.262C181.828 187.268 181.812 187.269 181.797 187.266ZM181.097 185.84H181.056C180.95 185.84 180.941 185.9 180.936 185.923C180.895 186.153 181.337 186.728 181.695 186.999C181.67 186.603 181.528 186.224 181.286 185.909C181.233 185.864 181.167 185.84 181.097 185.84Z" fill="#407BFF"/>
<path d="M156.607 187.39C156.31 187.417 156.013 187.34 155.765 187.174C155.708 187.125 155.665 187.063 155.637 186.993C155.61 186.924 155.6 186.848 155.609 186.774C155.611 186.729 155.625 186.685 155.648 186.647C155.671 186.608 155.704 186.576 155.742 186.553C156.17 186.318 157.582 187.013 157.725 187.11C157.741 187.117 157.754 187.13 157.762 187.145C157.77 187.161 157.773 187.179 157.771 187.196C157.768 187.214 157.76 187.23 157.748 187.242C157.735 187.255 157.719 187.263 157.702 187.266C157.341 187.34 156.975 187.381 156.607 187.39ZM155.977 186.668C155.924 186.664 155.872 186.676 155.825 186.7C155.808 186.708 155.795 186.72 155.786 186.736C155.777 186.752 155.773 186.77 155.774 186.788C155.767 186.836 155.773 186.885 155.789 186.931C155.806 186.977 155.834 187.018 155.871 187.05C156.087 187.243 156.662 187.275 157.426 187.146C156.974 186.905 156.483 186.744 155.977 186.668Z" fill="#407BFF"/>
<path d="M157.688 187.266C157.676 187.27 157.663 187.27 157.651 187.266C157.232 187.077 156.4 186.346 156.464 185.932C156.464 185.84 156.542 185.725 156.772 185.702C156.855 185.694 156.938 185.702 157.017 185.726C157.096 185.751 157.169 185.791 157.232 185.844C157.692 186.208 157.771 187.146 157.771 187.183C157.773 187.198 157.771 187.213 157.765 187.227C157.76 187.24 157.75 187.252 157.738 187.261C157.722 187.268 157.705 187.269 157.688 187.266ZM156.86 185.84H156.809C156.662 185.84 156.653 185.913 156.648 185.932C156.611 186.166 157.177 186.76 157.605 187.017C157.566 186.621 157.405 186.247 157.145 185.946C157.066 185.877 156.965 185.839 156.86 185.84Z" fill="#407BFF"/>
<path d="M172.794 112.263L169.381 113.183L172.21 116.615C172.21 116.615 174.947 115.193 174.358 113.662L172.794 112.263Z" fill="#E58A7B"/>
<path d="M167.615 115.478L170.085 118.201L172.21 116.601L169.381 113.169L167.615 115.478Z" fill="#E58A7B"/>
<path d="M178.443 182.615H186.778V180.371L177.463 180.228L178.443 182.615Z" fill="#407BFF"/>
<path opacity="0.4" d="M178.443 182.615H186.778V180.371L177.463 180.228L178.443 182.615Z" fill="black"/>
<path d="M154.96 182.615H163.295V180.348L153.98 180.228L154.96 182.615Z" fill="#407BFF"/>
<path opacity="0.4" d="M154.96 182.615H163.295V180.348L153.98 180.228L154.96 182.615Z" fill="black"/>
<path d="M179.262 83.6093C182.367 84.8053 185.472 95.8177 185.472 95.8177L177.192 99.0745C177.192 99.0745 174.722 93.3797 173.88 89.1477C173.015 84.7087 175.743 82.2569 179.262 83.6093Z" fill="#407BFF"/>
<path opacity="0.2" d="M179.262 83.6093C182.367 84.8053 185.472 95.8177 185.472 95.8177L177.192 99.0745C177.192 99.0745 174.722 93.3797 173.88 89.1477C173.015 84.7087 175.743 82.2569 179.262 83.6093Z" fill="black"/>
<path d="M145.696 101.085C144.814 104.16 144.902 107.432 145.949 110.455C146.906 113.269 148.653 115.747 150.981 117.594C154.082 120.05 158 121.235 161.942 120.912C165.884 120.589 169.556 118.78 172.216 115.853C174.875 112.925 176.324 109.096 176.268 105.141C176.212 101.186 174.657 97.4001 171.916 94.5484C170.033 92.5877 167.665 91.1595 165.052 90.4084C162.636 89.7096 160.088 89.6027 157.622 90.0967C155.156 90.5907 152.845 91.6711 150.884 93.2466C150.527 93.5344 150.187 93.8416 149.863 94.1666C147.889 96.0655 146.451 98.4521 145.696 101.085Z" fill="#407BFF"/>
<path opacity="0.6" d="M145.696 101.085C144.814 104.16 144.902 107.432 145.949 110.455C146.906 113.269 148.653 115.747 150.981 117.594C154.082 120.05 158 121.235 161.942 120.912C165.884 120.589 169.556 118.78 172.216 115.853C174.875 112.925 176.324 109.096 176.268 105.141C176.212 101.186 174.657 97.4001 171.916 94.5484C170.033 92.5877 167.665 91.1595 165.052 90.4084C162.636 89.7096 160.088 89.6027 157.622 90.0967C155.156 90.5907 152.845 91.6711 150.884 93.2466C150.527 93.5344 150.187 93.8416 149.863 94.1666C147.889 96.0655 146.451 98.4521 145.696 101.085Z" fill="black"/>
<path d="M169.956 93.9365L158.732 104.77L154.431 119.766C157.732 120.713 161.254 120.545 164.449 119.287C167.645 118.029 170.336 115.752 172.105 112.809C173.875 109.865 174.623 106.42 174.234 103.008C173.846 99.5955 172.342 96.4069 169.956 93.9365Z" fill="#407BFF"/>
<path opacity="0.9" d="M169.956 93.9365L158.732 104.77L154.431 119.766C157.732 120.713 161.254 120.545 164.449 119.287C167.645 118.029 170.336 115.752 172.105 112.809C173.875 109.865 174.623 106.42 174.234 103.008C173.846 99.5955 172.342 96.4069 169.956 93.9365Z" fill="white"/>
<g opacity="0.7">
<path opacity="0.7" d="M158.732 104.769L169.956 93.9317C168.054 91.9609 165.666 90.5257 163.033 89.7705C160.4 89.0154 157.615 88.9669 154.957 89.6299C152.299 90.2929 149.863 91.6441 147.893 93.5475C145.924 95.4509 144.49 97.8395 143.736 100.473L158.732 104.769Z" fill="#407BFF"/>
<path opacity="0.44" d="M158.732 104.769L169.956 93.9317C168.054 91.9609 165.666 90.5257 163.033 89.7705C160.4 89.0154 157.615 88.9669 154.957 89.6299C152.299 90.2929 149.863 91.6441 147.893 93.5475C145.924 95.4509 144.49 97.8395 143.736 100.473L158.732 104.769Z" fill="white"/>
</g>
<path d="M146.804 117.668L150.185 118.735L150.861 117.861L147.03 115.612L146.804 117.668Z" fill="#E58A7B"/>
<path d="M158.732 104.77L143.741 100.473C142.602 104.45 143.089 108.716 145.095 112.333C147.1 115.951 150.46 118.624 154.436 119.766L158.732 104.77Z" fill="#407BFF"/>
<path opacity="0.6" d="M158.732 104.77L143.741 100.473C142.602 104.45 143.089 108.716 145.095 112.333C147.1 115.951 150.46 118.624 154.436 119.766L158.732 104.77Z" fill="black"/>
<path d="M72.7903 83.6558C71.9853 84.4792 71.1205 85.39 70.3247 86.3008C69.5289 87.2116 68.7285 88.1408 67.9787 89.093C67.2289 90.0452 66.5205 91.025 65.8397 92.014L65.3429 92.7638L64.8829 93.5228C64.7265 93.7758 64.5793 94.0334 64.4229 94.291L64.0411 94.9948C63.8859 95.3963 63.7973 95.8205 63.7789 96.2506C63.7421 96.8051 63.7421 97.3613 63.7789 97.9158C63.8649 99.1088 64.0185 100.296 64.2389 101.472C64.4459 102.677 64.6989 103.887 64.9979 105.087C65.2969 106.288 65.5913 107.511 65.9179 108.698L64.1469 109.361C63.0741 107.017 62.1776 104.597 61.4651 102.12C61.0979 100.848 60.8167 99.5524 60.6233 98.2424C60.5264 97.5427 60.4773 96.8373 60.4761 96.131C60.4635 95.2983 60.6038 94.4704 60.8901 93.6884C61.0005 93.4216 61.0603 93.3112 61.1339 93.1548L61.3501 92.6948C61.4927 92.3912 61.6445 92.0922 61.8101 91.8024L62.2701 90.9238L62.7761 90.0682C63.4524 88.9429 64.1879 87.8542 64.9795 86.8068C65.7615 85.7626 66.5711 84.7414 67.4267 83.7616C68.2823 82.7818 69.1517 81.8434 70.1407 80.9004L72.7903 83.6558Z" fill="#E58A7B"/>
<path d="M65.4304 107.948L68.5768 108.868L66.4838 110.993C66.4838 110.993 64.216 110.294 63.8986 108.749L65.4304 107.948Z" fill="#E58A7B"/>
<path d="M70.4858 111.306L69.9522 113.335L66.4838 111.007L68.5768 108.887L70.4858 111.306Z" fill="#E58A7B"/>
<path d="M42.3199 168.337L44.8959 171.101L51.8879 166.097L49.3073 163.332L42.3199 168.337Z" fill="#E58A7B"/>
<path d="M76.5025 178.466L75.8861 183.222L72.2015 182.606L72.7719 178.19L76.5025 178.466Z" fill="#CF6F64"/>
<path d="M49.3074 163.332L51.8834 166.101L48.99 168.171L46.322 165.466L49.3074 163.332Z" fill="#CF6F64"/>
<path d="M82.9563 102.75C82.9563 102.75 75.6699 127.153 72.1095 141.22C68.3559 156.046 50.4297 168.135 50.4297 168.135L46.6025 164.33C46.6025 164.33 58.5855 154.21 62.2425 140.378C69.6301 112.286 66.0789 106.338 71.9669 100.625L82.9563 102.75Z" fill="#407BFF"/>
<path opacity="0.6" d="M82.9563 102.75C82.9563 102.75 75.6699 127.153 72.1095 141.22C68.3559 156.046 50.4297 168.135 50.4297 168.135L46.6025 164.33C46.6025 164.33 58.5855 154.21 62.2425 140.378C69.6301 112.286 66.0789 106.338 71.9669 100.625L82.9563 102.75Z" fill="black"/>
<path d="M46.023 170.66L43.8747 166.98C43.8396 166.916 43.7823 166.867 43.7137 166.843C43.6451 166.818 43.5698 166.819 43.5021 166.846L40.4385 168.079C40.3625 168.115 40.2949 168.167 40.24 168.231C40.1851 168.295 40.1442 168.369 40.1199 168.45C40.0957 168.531 40.0886 168.615 40.0991 168.699C40.1096 168.782 40.1375 168.863 40.1809 168.935C40.9537 170.2 41.3861 170.775 42.3337 172.389C42.9179 173.383 43.6677 174.892 44.4681 176.263C45.2685 177.633 46.6348 176.934 46.4186 176.295C45.4526 173.42 45.9586 172.587 46.1472 171.308C46.1813 171.084 46.1374 170.855 46.023 170.66Z" fill="#263238"/>
<path d="M50.7564 168.677L45.9816 163.926L47.2788 162.486L53.0932 167.435L50.7564 168.677Z" fill="#F5F5F5"/>
<path opacity="0.3" d="M79.534 107.948C74.7546 111.628 74.4326 125.686 74.543 132.034C76.9764 123.161 79.8514 113.284 81.5304 107.576C81.0704 107.18 80.4126 107.268 79.534 107.948Z" fill="black"/>
<path d="M46.7958 172.665C46.7504 172.664 46.7055 172.657 46.6624 172.642C46.2024 172.504 45.885 171.672 45.7424 171.189C45.7371 171.172 45.7369 171.154 45.7418 171.136C45.7467 171.119 45.7565 171.104 45.77 171.092C45.784 171.082 45.8009 171.077 45.8183 171.077C45.8356 171.077 45.8525 171.082 45.8666 171.092C46.0046 171.161 47.2144 171.791 47.2466 172.27C47.2515 172.322 47.2431 172.374 47.2222 172.421C47.2012 172.469 47.1684 172.51 47.127 172.541C47.0337 172.619 46.917 172.663 46.7958 172.665ZM45.9724 171.345C46.1978 171.985 46.4692 172.399 46.713 172.477C46.7671 172.491 46.8239 172.49 46.8779 172.476C46.9318 172.461 46.9812 172.433 47.0212 172.394C47.0407 172.382 47.0564 172.365 47.0662 172.345C47.076 172.324 47.0795 172.301 47.0764 172.279C47.0488 172.04 46.46 171.612 45.9724 171.345Z" fill="#407BFF"/>
<path d="M46.92 171.502C46.522 171.501 46.1292 171.411 45.77 171.24C45.7576 171.231 45.7476 171.219 45.7406 171.205C45.7337 171.192 45.7301 171.177 45.7301 171.162C45.7301 171.146 45.7337 171.131 45.7406 171.118C45.7476 171.104 45.7576 171.092 45.77 171.083C45.8114 171.083 46.7176 170.536 47.2328 170.706C47.2995 170.725 47.3611 170.759 47.4129 170.805C47.4646 170.851 47.5053 170.909 47.5318 170.973C47.5672 171.035 47.5806 171.106 47.5697 171.177C47.5588 171.247 47.5244 171.311 47.472 171.359C47.3095 171.468 47.1148 171.519 46.92 171.502ZM46 171.157C46.4232 171.327 47.1546 171.396 47.3478 171.226C47.38 171.198 47.4076 171.152 47.3478 171.047C47.3306 171.005 47.3043 170.968 47.2709 170.937C47.2375 170.907 47.1977 170.885 47.1546 170.872C46.7498 170.849 46.3475 170.948 46 171.157Z" fill="#407BFF"/>
<path d="M71.668 186.751L75.3986 187.027L76.5026 178.462L72.7766 178.186L71.668 186.751Z" fill="#E58A7B"/>
<path d="M86.6823 103.5C86.6823 103.5 87.6023 133.027 85.5277 144.15C83.3565 155.719 76.7463 182.031 76.7463 182.031L71.3689 181.337C71.3689 181.337 74.7729 154.753 76.2127 143.262C77.7905 130.732 75.7251 101.379 75.7251 101.379L86.6823 103.5Z" fill="#407BFF"/>
<path opacity="0.6" d="M86.6823 103.5C86.6823 103.5 87.6023 133.027 85.5277 144.15C83.3565 155.719 76.7463 182.031 76.7463 182.031L71.3689 181.337C71.3689 181.337 74.7729 154.753 76.2127 143.262C77.7905 130.732 75.7251 101.379 75.7251 101.379L86.6823 103.5Z" fill="black"/>
<path d="M90.8223 68.3743C90.7717 68.6733 90.8913 68.9401 91.0845 68.9815C91.2777 69.0229 91.4755 68.8067 91.5445 68.5215C91.6135 68.2364 91.4755 67.9557 91.2823 67.9189C91.0891 67.8821 90.8729 68.0799 90.8223 68.3743Z" fill="#263238"/>
<path d="M91.172 67.9098L91.9218 67.8408C91.9218 67.8408 91.4618 68.3284 91.172 67.9098Z" fill="#263238"/>
<path d="M91.0247 68.71C91.1789 69.4383 91.4311 70.1424 91.7745 70.803C91.6027 70.8816 91.416 70.9222 91.2271 70.9222C91.0382 70.9222 90.8515 70.8816 90.6797 70.803L91.0247 68.71Z" fill="#DF5753"/>
<path d="M91.5399 67.1599C91.5057 67.16 91.4722 67.15 91.4435 67.1312C91.4149 67.1124 91.3924 67.0856 91.3789 67.0541C91.292 66.8455 91.1586 66.6595 90.9888 66.5104C90.8189 66.3613 90.6172 66.253 90.3991 66.1939C90.3765 66.19 90.3548 66.1817 90.3353 66.1694C90.3159 66.1571 90.2991 66.1411 90.2858 66.1223C90.2726 66.1035 90.2632 66.0822 90.2581 66.0598C90.2531 66.0373 90.2526 66.0141 90.2565 65.9915C90.2655 65.9453 90.2922 65.9045 90.3309 65.8779C90.3696 65.8512 90.4172 65.8408 90.4635 65.8489C90.7386 65.9166 90.9939 66.0481 91.2089 66.2327C91.4238 66.4173 91.5924 66.6498 91.7009 66.9115C91.7198 66.9543 91.7212 67.0027 91.7049 67.0465C91.6886 67.0904 91.6558 67.1261 91.6135 67.1461L91.5399 67.1599Z" fill="#263238"/>
<path d="M81.3831 70.8398C81.4521 73.0938 81.2221 77.1602 79.4557 78.3148C79.4557 78.3148 79.6857 80.6148 83.7475 81.4198C88.2141 82.2846 86.2499 79.6304 86.2499 79.6304C83.9039 78.577 84.2673 76.7922 84.9711 75.1868L81.3831 70.8398Z" fill="#E58A7B"/>
<path d="M92.8832 82.9014C93.8032 83.6006 94.8152 84.3412 95.8134 85.0174C96.8116 85.6936 97.8328 86.3974 98.8724 87.0092C99.912 87.621 100.965 88.2236 102.023 88.7894C103.078 89.3343 104.16 89.8225 105.266 90.2522C105.363 90.289 105.331 90.2522 105.354 90.2844H105.414C105.473 90.2929 105.533 90.2929 105.593 90.2844C105.777 90.2853 105.96 90.2668 106.14 90.2292C106.629 90.1099 107.102 89.9372 107.553 89.714C108.594 89.1852 109.59 88.5697 110.529 87.874C111.513 87.1794 112.475 86.4204 113.418 85.6292C114.361 84.838 115.299 84.0146 116.201 83.1958L117.581 84.4608C116.003 86.5165 114.242 88.4242 112.318 90.1602C111.309 91.0618 110.217 91.8658 109.057 92.5614C108.404 92.9449 107.709 93.2535 106.987 93.4814C106.561 93.6089 106.12 93.6831 105.676 93.7022C105.421 93.7162 105.165 93.7054 104.912 93.67C104.776 93.654 104.641 93.6294 104.507 93.5964C104.388 93.5642 104.199 93.5136 104.149 93.4906C101.643 92.6639 99.2315 91.5754 96.9542 90.243C95.8318 89.5898 94.7232 88.9136 93.6468 88.1868C92.5704 87.46 91.54 86.7194 90.4866 85.8592L92.8832 82.9014Z" fill="#E58A7B"/>
<path d="M115.92 83.5454L117.015 80.7256L119.315 83.0256C119.315 83.0256 118.225 85.1232 116.661 85.1278L115.92 83.5454Z" fill="#E58A7B"/>
<path d="M119.283 79.9111L121.468 80.5965L119.333 83.0207L117.024 80.7253L119.283 79.9111Z" fill="#E58A7B"/>
<path d="M75.6285 186.493H71.4379C71.3647 186.492 71.2938 186.518 71.238 186.565C71.1822 186.613 71.1454 186.679 71.1343 186.751L70.5685 190.068C70.5573 190.151 70.564 190.235 70.5883 190.315C70.6126 190.395 70.6539 190.469 70.7093 190.532C70.7647 190.595 70.833 190.645 70.9095 190.679C70.986 190.713 71.0689 190.731 71.1527 190.73C72.6155 190.707 73.3193 190.62 75.1639 190.62C76.2955 190.62 78.6415 190.739 80.2239 190.739C81.8063 190.739 81.9121 189.189 81.2635 189.046C78.3563 188.421 77.2293 187.551 76.2633 186.723C76.0871 186.571 75.8612 186.489 75.6285 186.493Z" fill="#263238"/>
<path d="M81.0151 65.642C80.6425 69.322 80.4033 70.8538 81.9351 73.0756C84.2351 76.4106 88.8351 76.2036 90.3209 72.749C91.6411 69.644 92.0367 64.1608 88.7017 62.0264C87.9926 61.5448 87.1702 61.2562 86.3156 61.189C85.4609 61.1218 84.6036 61.2784 83.8278 61.6433C83.0521 62.0081 82.3848 62.5688 81.8916 63.2699C81.3984 63.9711 81.0963 64.7886 81.0151 65.642Z" fill="#E58A7B"/>
<path d="M81.4199 73.6459C79.6719 72.9329 78.0389 70.1177 78.1033 65.7155C78.1677 61.3133 81.4475 58.7603 87.3033 60.6141C93.1591 62.4679 87.1331 75.9827 81.4199 73.6459Z" fill="#263238"/>
<path d="M86.3788 61.0191C88.1038 60.3429 91.9218 61.1801 91.9218 64.7727L88.2096 67.7857L86.3788 61.0191Z" fill="#263238"/>
<path d="M85.8958 60.9868C88.1958 60.8534 89.0882 60.8626 91.172 61.4468C89.8012 59.8 87.2344 60.3428 85.8958 60.9868Z" fill="#263238"/>
<path d="M87.8876 67.5556C87.8162 68.2388 87.9559 68.9275 88.2877 69.529C88.7477 70.3754 89.4424 70.2604 89.7 69.575C89.9346 68.9586 89.976 67.7764 89.332 67.1416C88.688 66.5068 87.998 66.7966 87.8876 67.5556Z" fill="#E58A7B"/>
<path d="M78.4667 62.4633C79.8007 63.2821 84.3363 62.6059 85.3161 60.8625C86.2959 59.1191 82.9103 56.2027 79.8421 56.3085C76.7739 56.4143 75.4951 60.6325 78.4667 62.4633Z" fill="#407BFF"/>
<path d="M77.8917 182.353L70.2235 181.364L70.3201 179.542L78.6599 179.906L77.8917 182.353Z" fill="#F5F5F5"/>
<path d="M77.0178 187.146C76.6234 187.139 76.2307 187.095 75.8448 187.013C75.8268 187.01 75.8103 187.001 75.7978 186.988C75.7853 186.975 75.7776 186.958 75.7758 186.939C75.7734 186.921 75.7765 186.903 75.7847 186.886C75.7929 186.87 75.8058 186.856 75.8218 186.847C75.992 186.76 77.5008 185.996 77.9516 186.254C77.9941 186.277 78.0297 186.311 78.0548 186.352C78.0798 186.393 78.0934 186.44 78.0942 186.489C78.1033 186.568 78.0925 186.649 78.0628 186.724C78.0331 186.798 77.9854 186.865 77.924 186.916C77.6579 187.096 77.3374 187.177 77.0178 187.146ZM76.1392 186.889C76.9626 187.027 77.5744 186.99 77.809 186.788C77.8487 186.752 77.8794 186.708 77.8986 186.658C77.9177 186.609 77.9249 186.555 77.9194 186.502C77.9196 186.483 77.9146 186.464 77.9049 186.447C77.8952 186.43 77.8811 186.416 77.8642 186.406C77.6204 186.268 76.7602 186.594 76.1392 186.889Z" fill="#407BFF"/>
<path d="M75.8631 187.013C75.8449 187.017 75.8261 187.017 75.8079 187.013C75.796 187.003 75.7868 186.99 75.7812 186.976C75.7755 186.961 75.7737 186.945 75.7757 186.93C75.7757 186.866 75.9551 185.338 76.7877 185.338H76.8613C77.1005 185.361 77.1695 185.486 77.1879 185.582C77.2569 186.005 76.3507 186.815 75.8999 187.017L75.8631 187.013ZM76.7831 185.504C76.2449 185.504 76.0333 186.387 75.9643 186.769C76.4243 186.488 77.0453 185.849 77.0039 185.601C77.0039 185.601 77.0039 185.522 76.8337 185.504H76.7831Z" fill="#407BFF"/>
<path d="M72.9974 77.8963C70.4076 78.0159 67.9374 82.3077 67.9374 82.3077L71.3552 89.2905C71.3552 89.2905 75.9874 85.4311 76.0472 81.6361C76.0978 79.1705 75.5412 77.7813 72.9974 77.8963Z" fill="#407BFF"/>
<path opacity="0.8" d="M72.9974 77.8963C70.4076 78.0159 67.9374 82.3077 67.9374 82.3077L71.3552 89.2905C71.3552 89.2905 75.9874 85.4311 76.0472 81.6361C76.0978 79.1705 75.5412 77.7813 72.9974 77.8963Z" fill="white"/>
<path d="M71.9486 100.616L86.9078 103.514C93.9734 82.7035 92.2852 82.0319 92.2852 82.0319C91.1862 81.4385 90.0526 80.9116 88.8904 80.4541L88.6834 80.3759C87.7312 80.0309 87.5288 79.9757 86.2454 79.6031C84.042 79.0833 81.9904 78.6601 79.4512 78.2921L78.9682 78.2231C78.5082 78.1679 78.0482 78.1173 77.6112 78.0759C77.3168 78.0437 77.0178 78.0253 76.7372 78.0023L75.7712 77.9517C74.1336 77.8689 72.9652 77.8965 72.9652 77.8965C73.8208 90.8823 73.1952 94.6129 71.9486 100.616Z" fill="#407BFF"/>
<path opacity="0.6" d="M71.9486 100.616L86.9078 103.514C93.9734 82.7035 92.2852 82.0319 92.2852 82.0319C91.1862 81.4385 90.0526 80.9116 88.8904 80.4541L88.6834 80.3759C87.7312 80.0309 87.5288 79.9757 86.2454 79.6031C84.042 79.0833 81.9904 78.6601 79.4512 78.2921L78.9682 78.2231C78.5082 78.1679 78.0482 78.1173 77.6112 78.0759C77.3168 78.0437 77.0178 78.0253 76.7372 78.0023L75.7712 77.9517C74.1336 77.8689 72.9652 77.8965 72.9652 77.8965C73.8208 90.8823 73.1952 94.6129 71.9486 100.616Z" fill="white"/>
<path opacity="0.2" d="M88.6373 87.0366C89.2307 88.205 89.9345 89.7552 90.8775 90.827C91.1489 89.8426 91.3743 88.987 91.5675 88.1912L88.6373 87.0366Z" fill="#407BFF"/>
<path d="M76.6451 90.16C80.3757 87.2114 81.1623 84.4698 80.6425 82.0732C80.1227 79.6766 79.5247 75.4952 79.9525 74.0968C80.3803 72.6984 81.8707 69.7958 81.5671 67.3164C81.2635 64.837 80.5551 61.3916 81.2359 59.9012C81.9167 58.4108 84.0787 57.5276 82.3261 55.4116C81.4751 54.3858 77.8687 54.2294 76.9257 57.0906C75.9827 59.9518 72.1095 61.1892 70.5869 61.4744C69.0643 61.7596 66.3825 63.4708 65.9179 66.2584C65.4533 69.046 63.5811 70.1454 61.0097 71.576C58.4383 73.0066 54.7399 78.614 56.2119 83.5912C58.1991 90.4038 71.0883 94.5668 76.6451 90.16Z" fill="#263238"/>
<path d="M87.86 80.7714C89.0192 79.8514 94.0102 82.8782 95.5374 84.1432L94.645 90.7027C94.645 90.7027 87.515 87.7495 87.0274 85.7301C86.503 83.628 86.94 81.4752 87.86 80.7714Z" fill="#407BFF"/>
<path opacity="0.6" d="M87.86 80.7714C89.0192 79.8514 94.0102 82.8782 95.5374 84.1432L94.645 90.7027C94.645 90.7027 87.515 87.7495 87.0274 85.7301C86.503 83.628 86.94 81.4752 87.86 80.7714Z" fill="white"/>
<path d="M71.8658 99.7005L70.9734 100.901C70.9044 100.993 71.0102 101.122 71.1804 101.159L86.871 104.195C87.0044 104.222 87.1286 104.195 87.1516 104.094L87.5058 102.787C87.5288 102.7 87.4276 102.599 87.2804 102.571L72.128 99.6361C72.0825 99.6226 72.0342 99.6214 71.9881 99.6327C71.9421 99.644 71.8998 99.6674 71.8658 99.7005Z" fill="#407BFF"/>
<path d="M73.6229 101.779L73.2182 101.701C73.14 101.701 73.0848 101.632 73.0986 101.582L73.5585 99.8887C73.5585 99.8381 73.6505 99.8105 73.7333 99.8243L74.1381 99.9025C74.2163 99.9025 74.2715 99.9715 74.2577 100.022L73.7977 101.715C73.7839 101.766 73.7057 101.793 73.6229 101.779Z" fill="#407BFF"/>
<path d="M83.8717 103.785L83.4623 103.707C83.3841 103.707 83.3289 103.638 83.3427 103.587L83.8027 101.894C83.8027 101.848 83.8947 101.821 83.9775 101.835L84.3823 101.913C84.4651 101.913 84.5203 101.982 84.5065 102.032L84.0465 103.725C84.0281 103.776 83.9499 103.803 83.8717 103.785Z" fill="#407BFF"/>
<path opacity="0.6" d="M73.6229 101.779L73.2182 101.701C73.14 101.701 73.0848 101.632 73.0986 101.582L73.5585 99.8887C73.5585 99.8381 73.6505 99.8105 73.7333 99.8243L74.1381 99.9025C74.2163 99.9025 74.2715 99.9715 74.2577 100.022L73.7977 101.715C73.7839 101.766 73.7057 101.793 73.6229 101.779Z" fill="black"/>
<path opacity="0.6" d="M83.8717 103.785L83.4623 103.707C83.3841 103.707 83.3289 103.638 83.3427 103.587L83.8027 101.894C83.8027 101.848 83.8947 101.821 83.9775 101.835L84.3823 101.913C84.4651 101.913 84.5203 101.982 84.5065 102.032L84.0465 103.725C84.0281 103.776 83.9499 103.803 83.8717 103.785Z" fill="black"/>
</svg>
