<svg width="681" height="420" viewBox="0 0 681 420" fill="none" xmlns="http://www.w3.org/2000/svg">
<path d="M100 87L162.5 130.5M162.5 130.5L335.5 205.5M162.5 130.5L154.5 237M335.5 205.5L331.5 22M335.5 205.5L548.5 323.5L662.5 276M335.5 205.5L377.5 197.5L512.5 121M335.5 205.5V241.5L328 312.5L268 385M335.5 205.5L154.5 237M331.5 22L247 56.5M331.5 22L512.5 121M512.5 121L499.5 22M512.5 121L638 26.5M512.5 121L622.5 197.5M154.5 237L64 205.5M154.5 237L113.5 337.5" stroke="#BCCCEA" stroke-width="3"/>
<circle cx="340" cy="198" r="57.5" fill="#387CFF" stroke="#387CFF" stroke-width="5"/>
<mask id="path-3-inside-1" fill="white">
<path fill-rule="evenodd" clip-rule="evenodd" d="M300.689 193.001C300.163 192.984 299.642 193.235 299.335 193.71L294.25 201.575C293.783 202.297 293.989 203.263 294.709 203.733C295.429 204.203 296.392 203.998 296.859 203.276L300.689 197.352L304.519 203.276C304.986 203.998 305.949 204.203 306.669 203.733C307.389 203.263 307.595 202.297 307.128 201.575L302.043 193.71C301.736 193.235 301.215 192.984 300.689 193.001Z"/>
</mask>
<path d="M299.335 193.71L305.214 197.51L305.214 197.51L299.335 193.71ZM300.689 193.001L300.461 199.997L300.689 200.005L300.917 199.997L300.689 193.001ZM294.25 201.575L288.372 197.774L288.372 197.774L294.25 201.575ZM294.709 203.733L290.885 209.596L290.885 209.596L294.709 203.733ZM296.859 203.276L290.98 199.476L290.98 199.476L296.859 203.276ZM300.689 197.352L306.567 193.551L300.689 184.459L294.811 193.551L300.689 197.352ZM304.519 203.276L310.398 199.476L310.398 199.476L304.519 203.276ZM306.669 203.733L310.493 209.596L310.493 209.596L306.669 203.733ZM307.128 201.575L313.006 197.774L313.006 197.774L307.128 201.575ZM302.043 193.71L296.164 197.51L296.164 197.51L302.043 193.71ZM305.214 197.51C304.135 199.178 302.294 200.057 300.461 199.997L300.917 186.005C298.033 185.911 295.15 187.291 293.457 189.909L305.214 197.51ZM300.129 205.375L305.214 197.51L293.457 189.909L288.372 197.774L300.129 205.375ZM298.533 197.87C301.042 199.506 301.755 202.86 300.129 205.375L288.372 197.774C285.812 201.734 286.936 207.02 290.885 209.596L298.533 197.87ZM290.98 199.476C292.619 196.942 296.006 196.222 298.533 197.87L290.885 209.596C294.852 212.184 300.165 211.055 302.737 207.077L290.98 199.476ZM294.811 193.551L290.98 199.476L302.737 207.077L306.567 201.153L294.811 193.551ZM294.811 201.153L298.641 207.077L310.398 199.476L306.567 193.551L294.811 201.153ZM298.641 207.077C301.213 211.055 306.526 212.184 310.493 209.596L302.845 197.87C305.372 196.222 308.76 196.942 310.398 199.476L298.641 207.077ZM310.493 209.596C314.443 207.02 315.566 201.734 313.006 197.774L301.25 205.375C299.623 202.86 300.336 199.506 302.845 197.87L310.493 209.596ZM313.006 197.774L307.921 189.909L296.164 197.51L301.25 205.375L313.006 197.774ZM307.921 189.909C306.229 187.291 303.345 185.911 300.461 186.005L300.917 199.997C299.084 200.057 297.243 199.178 296.164 197.51L307.921 189.909Z" fill="white" mask="url(#path-3-inside-1)"/>
<path d="M314.213 194.57V193.001H319.326V194.57H317.596V203.986H315.942V194.57H314.213Z" fill="white"/>
<path d="M328.205 203.986H326.521C326.42 203.672 326.37 203.222 326.37 202.636V200.91C326.37 200.408 326.285 200.052 326.114 199.843C325.944 199.623 325.668 199.514 325.287 199.514H324.716V203.986H323.062V193.001H325.558C326.41 193.001 327.032 193.21 327.423 193.629C327.814 194.037 328.009 194.67 328.009 195.528V196.391C328.009 197.521 327.648 198.263 326.927 198.619C327.658 198.943 328.024 199.723 328.024 200.957V202.652C328.024 203.248 328.084 203.693 328.205 203.986ZM325.513 194.57H324.716V197.944H325.363C325.693 197.944 325.939 197.855 326.099 197.677C326.27 197.5 326.355 197.201 326.355 196.783V195.7C326.355 194.947 326.074 194.57 325.513 194.57Z" fill="white"/>
<path d="M335.789 193.001L337.473 203.986H335.804L335.518 201.993H333.488L333.202 203.986H331.684L333.368 193.001H335.789ZM334.496 194.947L333.699 200.502H335.293L334.496 194.947Z" fill="white"/>
<path d="M341.251 203.986V193.001H343.868C345.512 193.001 346.334 193.906 346.334 195.716V201.271C346.334 203.081 345.512 203.986 343.868 203.986H341.251ZM343.838 194.57H342.905V202.417H343.838C344.399 202.417 344.68 202.061 344.68 201.35V195.637C344.68 194.926 344.399 194.57 343.838 194.57Z" fill="white"/>
<path d="M352.051 194.57V197.63H354.322V199.2H352.051V202.417H354.908V203.986H350.397V193.001H354.908V194.57H352.051Z" fill="white"/>
<path d="M358.941 203.986V193.001H360.595V202.417H363.317V203.986H358.941Z" fill="white"/>
<path d="M367.044 203.986V193.001H368.699V203.986H367.044Z" fill="white"/>
<path d="M372.81 193.001H377.502V194.539L374.359 202.417H377.502V203.986H372.66V202.448L375.803 194.57H372.81V193.001Z" fill="white"/>
<path d="M383.143 194.57V197.63H385.414V199.2H383.143V202.417H386V203.986H381.489V193.001H386V194.57H383.143Z" fill="white"/>
<ellipse cx="159.5" cy="128.5" rx="21.5" ry="22.5" fill="#BCCCEA"/>
<ellipse cx="159.5" cy="128.5" rx="21.5" ry="22.5" fill="#BCCCEA"/>
<ellipse cx="151.5" cy="240" rx="17.5" ry="18" fill="#BCCCEA"/>
<ellipse cx="151.5" cy="240" rx="17.5" ry="18" fill="#BCCCEA"/>
<ellipse cx="326.5" cy="318.5" rx="21.5" ry="22.5" fill="#BCCCEA"/>
<ellipse cx="326.5" cy="318.5" rx="21.5" ry="22.5" fill="#BCCCEA"/>
<ellipse cx="640.5" cy="25.5" rx="21.5" ry="22.5" fill="#BCCCEA"/>
<ellipse cx="640.5" cy="25.5" rx="21.5" ry="22.5" fill="#BCCCEA"/>
<ellipse cx="330.5" cy="21" rx="17.5" ry="18" fill="#BCCCEA"/>
<ellipse cx="330.5" cy="21" rx="17.5" ry="18" fill="#BCCCEA"/>
<ellipse cx="61.5" cy="205" rx="15.5" ry="16" fill="#BCCCEA"/>
<ellipse cx="61.5" cy="205" rx="15.5" ry="16" fill="#BCCCEA"/>
<ellipse cx="498.5" cy="23" rx="15.5" ry="16" fill="#BCCCEA"/>
<ellipse cx="498.5" cy="23" rx="15.5" ry="16" fill="#BCCCEA"/>
<ellipse cx="618.5" cy="198" rx="15.5" ry="16" fill="#BCCCEA"/>
<ellipse cx="618.5" cy="198" rx="15.5" ry="16" fill="#BCCCEA"/>
<ellipse cx="665.5" cy="274" rx="15.5" ry="16" fill="#BCCCEA"/>
<ellipse cx="665.5" cy="274" rx="15.5" ry="16" fill="#BCCCEA"/>
<ellipse cx="249.5" cy="55" rx="15.5" ry="16" fill="#BCCCEA"/>
<ellipse cx="249.5" cy="55" rx="15.5" ry="16" fill="#BCCCEA"/>
<ellipse cx="264.5" cy="386" rx="15.5" ry="16" fill="#BCCCEA"/>
<ellipse cx="264.5" cy="386" rx="15.5" ry="16" fill="#BCCCEA"/>
<mask id="mask0" mask-type="alpha" maskUnits="userSpaceOnUse" x="0" y="0" width="110" height="110">
<circle cx="55" cy="55" r="50" fill="white" stroke="white" stroke-width="10"/>
</mask>
<g mask="url(#mask0)">
<circle cx="55" cy="55" r="52.5" fill="white" stroke="#5690FF" stroke-width="5"/>
<path d="M39.4849 27.6147C40.3606 20.3177 51.8338 14.581 61.7915 18.0275C73.2199 21.9904 71.4125 32.4645 78.9677 32.8799C86.523 33.2952 90.3063 46.677 83.694 52.8739C77.0817 59.0708 89.2286 61.8549 89.6327 70.544C90.0368 79.2332 90.0705 85.9801 97.188 92.4128C106.169 100.507 92.327 126.619 69.5938 114.686C49.2181 103.987 23.712 119.378 19.1542 104.526C15.2137 91.7056 34.5454 77.7962 30.5039 71.5881C26.4625 65.3799 29.1455 59.5423 33.7371 52.0319C39.3839 42.8263 25.5195 29.0966 39.4849 27.6147Z" fill="#263238"/>
<path d="M84.8137 88.1133C87.5866 93.7264 90.4269 99.4855 93.4018 105.043C94.9061 107.804 96.4329 110.555 97.9934 113.215C99.4565 115.755 101.096 118.19 102.899 120.501L103.27 120.939C103.335 121.023 103.415 121.096 103.505 121.152C103.797 121.352 104.12 121.504 104.46 121.601C105.555 121.909 106.691 122.042 107.828 121.994C110.707 121.874 113.564 121.437 116.348 120.692C119.301 119.973 122.265 119.03 125.228 117.998C128.192 116.965 131.167 115.82 134.018 114.63L136.623 119.356C131.037 123.061 125.058 126.137 118.796 128.528C115.454 129.813 111.966 130.681 108.411 131.11C106.331 131.352 104.225 131.268 102.17 130.863C100.934 130.596 99.7433 130.154 98.6333 129.55C98.0245 129.228 97.4459 128.852 96.9044 128.427C96.6255 128.202 96.3594 127.963 96.1074 127.708L95.6134 127.113C93.2448 124.51 91.1039 121.708 89.2144 118.739C87.3396 115.943 85.6445 113.125 84.0167 110.24C80.7386 104.504 77.7524 98.7446 75.0356 92.7385L84.8137 88.1133Z" fill="#E3A392"/>
<path d="M78.2259 77.7179C82.7164 77.5607 90.7881 94.0634 90.7881 94.0634L78.978 108.399C78.978 108.399 65.1922 91.1221 67.0894 85.5763C69.054 79.705 71.6136 77.9537 78.2259 77.7179Z" fill="#6F9BFF"/>
<path opacity="0.2" d="M78.978 81.7148L85.1188 100.968L79.5843 107.67L78.978 81.7148Z" fill="black"/>
<path d="M82.5045 83.0171C82.7403 89.7528 81.5728 105.526 74.4778 142.213L31.1556 140.922C32.4129 123.308 32.7497 112.441 25.4077 76.0007C31.5096 74.9271 37.6818 74.3005 43.8749 74.1259C50.4366 73.852 57.0095 74.0471 63.5434 74.7097C68.5615 75.3159 73.9613 76.3599 77.5088 77.1008C78.8833 77.3862 80.1223 78.1241 81.028 79.1966C81.9336 80.2691 82.4535 81.6143 82.5045 83.0171Z" fill="#6F9BFF"/>
<path d="M46.4751 52.0312C47.5304 58.3965 48.4172 69.9933 43.8706 74.1245C43.8706 74.1245 48.0804 81.9829 58.8913 84.8456C68.8715 79.7826 63.539 74.742 63.539 74.742C56.5338 72.8447 56.8706 67.6133 58.2402 62.7411L46.4751 52.0312Z" fill="#E3A392"/>
<path opacity="0.2" d="M51.2691 56.3887L58.2406 62.6978C57.9039 63.8351 57.6673 64.9996 57.5333 66.178C54.839 65.7065 51.2242 62.6305 51.0221 59.8015C50.8979 58.6583 50.9815 57.5021 51.2691 56.3887Z" fill="black"/>
<path d="M43.1193 38.5147C43.5796 49.0898 43.5571 53.5803 48.7998 59.1037C56.6582 67.3999 69.5796 64.5035 72.2852 54.0069C74.7213 44.5432 73.5425 28.8264 63.3041 24.4482C61.0424 23.4617 58.5656 23.0713 56.1101 23.3144C53.6546 23.5574 51.3023 24.4258 49.2779 25.8366C47.2535 27.2474 45.6245 29.1535 44.5463 31.373C43.4681 33.5925 42.9768 36.0513 43.1193 38.5147Z" fill="#E3A392"/>
<path d="M41.6485 26.9971C45.5664 28.9617 50.9663 28.6249 51.9766 30.9824C52.987 33.3399 50.1468 47.4064 44.2754 47.5187C38.8756 40.2328 38.0673 30.3762 41.6485 26.9971Z" fill="#263238"/>
<path d="M42.1875 28.7591C50.8317 34.2263 79.3239 39.3342 70.0174 26.9966C62.9448 17.6338 44.3429 22.3489 42.1875 28.7591Z" fill="#263238"/>
<path d="M40.091 48.1577C40.7746 50.0866 42.1959 51.6653 44.0426 52.5472C46.5012 53.6698 48.1739 51.6042 47.8595 49.0446C47.5789 46.7993 45.9623 43.4315 43.369 43.308C42.7856 43.2918 42.2075 43.423 41.6883 43.6896C41.1691 43.9561 40.7255 44.3494 40.3987 44.833C40.0718 45.3165 39.8723 45.8747 39.8185 46.4559C39.7647 47.0371 39.8584 47.6224 40.091 48.1577Z" fill="#E3A392"/>
<path d="M29.7618 92.7163C26.6858 97.117 23.5873 101.821 20.7022 106.48C17.8323 111.105 15.2092 115.879 12.8438 120.782L12.4172 121.68L12.2039 122.14C12.2039 122.253 12.2039 122.14 12.2039 122.14C12.2039 122.14 12.1029 122.298 12.1029 122.646C12.1121 123.63 12.2595 124.609 12.5407 125.553C13.2472 128.015 14.1559 130.414 15.2574 132.727C17.57 137.577 20.3654 142.494 23.1944 147.231L18.9284 150.599C14.8794 146.342 11.2375 141.715 8.05017 136.779C6.33386 134.172 4.88935 131.396 3.73929 128.494C3.04525 126.771 2.60654 124.956 2.43704 123.106C2.33542 121.861 2.4455 120.609 2.7626 119.401C2.7626 119.233 2.86364 119.053 2.91977 118.874L3.08817 118.424L3.29024 117.897L3.69439 116.853C4.81701 114.046 6.00699 111.352 7.30923 108.714C8.61148 106.076 9.95864 103.538 11.4181 100.945C14.3239 95.8662 17.5213 90.9596 20.9941 86.25L29.7618 92.7163Z" fill="#E3A392"/>
<path d="M25.4049 76.0003C21.0155 77.1903 15.3574 91.9865 15.3574 91.9865L31.8488 104.526C31.8488 104.526 38.3601 92.2335 36.6986 86.5642C34.9922 80.6704 30.4006 74.6419 25.4049 76.0003Z" fill="#6F9BFF"/>
<circle cx="55" cy="55" r="52.5" stroke="#5690FF" stroke-width="5"/>
</g>
<mask id="mask1" mask-type="alpha" maskUnits="userSpaceOnUse" x="46" y="310" width="110" height="110">
<circle cx="101" cy="365" r="50" fill="white" stroke="white" stroke-width="10"/>
</mask>
<g mask="url(#mask1)">
<circle cx="101" cy="365" r="52.5" fill="white" stroke="#5690FF" stroke-width="5"/>
<path d="M117.733 419.612C119.91 426.823 122.294 433.843 124.885 440.891C127.477 447.94 130.261 454.885 133.548 461.919L134.837 464.57L136.243 467.279C136.717 468.183 137.28 469.027 137.798 469.915C138.316 470.804 138.835 471.648 139.427 472.477C141.656 475.816 144.131 478.984 146.831 481.954C149.469 484.899 152.315 487.65 155.346 490.188C156.827 491.461 158.396 492.661 160.01 493.801C161.624 494.941 163.179 496.007 165.075 497.103L170.317 490.128C169.295 488.944 168.051 487.567 166.955 486.234C165.86 484.901 164.779 483.48 163.698 482.102C161.58 479.318 159.581 476.46 157.774 473.573C155.935 470.703 154.25 467.737 152.725 464.688C151.955 463.207 151.244 461.726 150.592 460.142L149.615 457.847L148.667 455.433C146.165 448.873 143.825 441.957 141.53 435.042L134.6 414.311L117.733 419.612Z" fill="#FDD0CD"/>
<path d="M109.959 407.868C106.212 417.834 126.129 453.285 126.129 453.285L148.519 436.019C144.689 426.623 140.036 417.584 134.614 409.008C126.736 397.266 114.075 396.94 109.959 407.868Z" fill="#407BFF"/>
<path opacity="0.2" d="M114.343 417.715C121.421 420.677 131.032 432.109 134.038 447.183L126.131 453.284C126.131 453.284 114.284 432.316 110.626 418.1C111.142 417.682 111.768 417.423 112.427 417.355C113.087 417.287 113.753 417.412 114.343 417.715Z" fill="black"/>
<path d="M123.183 400.256C123.183 400.256 136.317 425.104 123.834 487.713H64.2904C63.8906 478.561 69.6361 442.74 60.8105 399.678C67.3935 398.412 74.0512 397.571 80.7423 397.161C89.1709 396.672 97.6209 396.672 106.05 397.161C111.833 397.741 117.562 398.776 123.183 400.256Z" fill="#407BFF"/>
<path d="M83.2573 368.656C84.8417 376.801 86.441 391.727 80.7399 397.162C80.7399 397.162 83.3017 402.626 98.4356 402.626C112.266 402.626 106.047 397.162 106.047 397.162C96.9696 395 97.1621 388.277 98.791 381.924L83.2573 368.656Z" fill="#FDD0CD"/>
<path opacity="0.2" d="M89.5857 374.076L98.7817 381.925C98.4001 383.381 98.1424 384.867 98.0117 386.367C95.7904 389.817 89.7338 384.753 88.6232 379.452C88.5384 377.61 88.8673 375.774 89.5857 374.076Z" fill="black"/>
<path d="M119.791 350.767C122.827 355.876 116.149 370.018 108.419 368.729C100.689 367.441 114.016 341.097 119.791 350.767Z" fill="#263238"/>
<path d="M86.9582 355.861C85.3441 366.789 83.8485 373.097 88.128 379.791C94.5548 389.845 108.859 387.713 113.776 377.495C118.144 368.285 120.054 351.966 110.399 345.436C108.277 343.985 105.818 343.102 103.258 342.87C100.697 342.638 98.12 343.065 95.7709 344.109C93.4218 345.154 91.379 346.782 89.8365 348.839C88.294 350.896 87.3032 353.313 86.9582 355.861Z" fill="#FDD0CD"/>
<path d="M86.0004 341.453L95.4331 348.324C89.7468 355.091 96.2031 369.885 87.2442 366.523C83.1424 365.057 72.5546 348.916 86.0004 341.453Z" fill="#263238"/>
<path d="M97.3266 333.027C111.646 336.492 112.92 332.361 111.957 327C122.663 328.762 130.675 337.203 124.455 347.406C117.555 358.734 96.4973 349.538 92.7805 349.464L87.4347 348.161C75.292 344.622 79.4383 328.718 97.3266 333.027Z" fill="#263238"/>
<path d="M79.5592 366.716C80.5174 369.33 82.4711 371.46 84.9938 372.639C88.3553 374.12 90.5913 371.292 90.1174 367.826C89.7028 364.717 87.4519 360.171 83.8535 360.111C83.0719 360.114 82.3033 360.311 81.617 360.685C80.9306 361.059 80.3481 361.598 79.922 362.253C79.496 362.909 79.2397 363.66 79.1763 364.439C79.113 365.218 79.2446 366 79.5592 366.716Z" fill="#FDD0CD"/>
<path d="M49.9419 415.006C48.002 423.047 46.2842 431.088 44.7442 439.217C43.9742 443.275 43.2535 447.352 42.5822 451.449C41.8862 455.551 41.2791 459.667 40.7756 463.962C40.6598 464.771 40.5955 465.587 40.5831 466.405C40.5532 467.346 40.6127 468.288 40.7608 469.219C41.0259 470.992 41.5602 472.715 42.3453 474.327C43.6909 476.998 45.5298 479.39 47.7651 481.376C51.3911 484.542 55.4877 487.125 59.9078 489.032C67.877 492.513 76.2722 494.923 84.8745 496.199L87.0513 487.758C83.4973 486.278 79.7656 484.649 76.2561 482.887C72.7877 481.216 69.416 479.353 66.1569 477.304C63.2184 475.55 60.5372 473.397 58.1901 470.907C57.4089 470.08 56.8043 469.102 56.4131 468.034C56.3339 467.785 56.3037 467.524 56.3242 467.264C56.3075 467.181 56.3075 467.095 56.3242 467.012C56.4033 466.813 56.4532 466.604 56.4723 466.39C58.042 458.72 59.9818 450.708 61.7736 442.801C63.5654 434.893 65.4017 426.867 67.0602 418.9L49.9419 415.006Z" fill="#FDD0CD"/>
<path d="M60.8111 399.679C46.0029 402.33 39.4577 439.38 39.4577 439.38L63.2692 453.981C63.2692 453.981 70.8362 432.124 70.4364 418.367C70.0217 405.247 72.0504 397.636 60.8111 399.679Z" fill="#407BFF"/>
<circle cx="101" cy="365" r="52.5" stroke="#5690FF" stroke-width="5"/>
</g>
<mask id="mask2" mask-type="alpha" maskUnits="userSpaceOnUse" x="503" y="264" width="110" height="110">
<circle cx="558" cy="319" r="50" fill="white" stroke="white" stroke-width="10"/>
</mask>
<g mask="url(#mask2)">
<circle cx="558" cy="319" r="52.5" fill="white" stroke="#5690FF" stroke-width="5"/>
<path d="M532.973 289.709C531.308 291.028 530.019 292.753 529.234 294.713C528.449 296.674 528.194 298.802 528.496 300.89C529.057 305.011 531.56 308.773 534.906 311.499C537.153 313.368 540.209 314.878 543.101 314.086C544.253 313.712 545.33 313.14 546.281 312.397C549.152 310.503 551.713 308.185 553.873 305.525C557.177 301.175 558.433 295.177 555.922 290.199C553.774 285.939 546.306 286.42 542.06 286.755C538.838 286.983 535.55 287.759 532.973 289.709Z" fill="#3E3E54"/>
<path d="M539.582 367.279C535.848 382.19 539.623 391.762 544.646 406.338C545.588 409.064 546.736 411.83 548.884 413.781C550.718 415.448 552.987 416.578 555.434 417.045C559.906 417.923 564.477 418.198 569.024 417.861C580.201 416.972 584.81 411.863 584.876 411.373C585.702 404.844 588.296 398.952 591.32 393.272C597.507 381.618 605.57 370.87 604.537 357.364C604.083 352.043 607.271 343.066 602.943 339.802C600.332 337.794 583.802 330.727 580.506 330.433C575.228 329.968 542.151 339.94 537.806 343.662C533.163 347.603 540.961 361.665 539.582 367.279Z" fill="#6F9BFF"/>
<path d="M556.269 335.574C556.366 336.765 556.288 337.963 556.038 339.132C555.603 340.611 555.073 342.061 554.452 343.474C553.568 346.084 552.994 348.788 552.742 351.529C552.482 353.118 552.482 354.738 552.742 356.327C552.865 357.123 553.164 357.883 553.616 358.552C554.069 359.222 554.664 359.786 555.36 360.204C556.366 360.675 557.486 360.853 558.59 360.718C560.757 360.52 562.793 359.609 564.373 358.131C565.08 357.434 565.721 356.674 566.29 355.862C569.44 351.585 572.015 346.922 573.947 341.989C574.712 340.237 575.194 338.379 575.377 336.48C575.419 336.068 575.377 335.651 575.253 335.256C574.912 334.597 574.405 334.035 573.782 333.624C572.269 332.169 570.958 330.523 569.883 328.727C568.805 326.939 567.379 325.38 565.687 324.141C564.833 323.531 563.834 323.15 562.787 323.036C561.741 322.921 560.682 323.077 559.714 323.488C558.103 324.304 555.129 326.907 554.84 328.76C554.501 330.824 556.104 333.428 556.269 335.574Z" fill="#D69381"/>
<path d="M540.119 318.722C540.119 322.158 540.243 325.732 541.845 328.785C542.218 329.582 542.785 330.275 543.498 330.8C544.745 331.456 546.172 331.699 547.57 331.494C551.691 331.378 555.759 330.55 559.59 329.046C563.439 327.521 566.656 324.758 568.718 321.203C569.916 318.843 570.626 316.272 570.808 313.638C571.312 308.227 570.048 302.213 565.678 298.875C563.646 297.472 561.338 296.508 558.904 296.043C552.791 294.598 546.471 296.043 542.3 301.013C540.846 302.735 540.763 304.865 540.648 307.019C540.35 310.928 540.152 314.821 540.119 318.722Z" fill="#E3A392"/>
<path d="M540.119 318.722C540.119 322.158 540.243 325.732 541.845 328.785C542.218 329.582 542.785 330.275 543.498 330.8C544.745 331.456 546.172 331.699 547.57 331.494C551.691 331.378 555.759 330.55 559.59 329.046C563.439 327.521 566.656 324.758 568.718 321.203C569.916 318.843 570.626 316.272 570.808 313.638C571.312 308.227 570.048 302.213 565.678 298.875C563.646 297.472 561.338 296.508 558.904 296.043C552.791 294.598 546.471 296.043 542.3 301.013C540.846 302.735 540.763 304.865 540.648 307.019C540.35 310.928 540.152 314.821 540.119 318.722Z" fill="#DA9582"/>
<path d="M544.406 300.188C542.101 297.463 541.259 293.831 540.714 290.314C540.374 288.652 540.343 286.943 540.623 285.27C541.039 283.434 542.127 281.815 543.679 280.724C545.538 279.427 547.859 279.019 550.106 278.643C553.411 278.08 556.946 277.533 560.127 278.643C562.811 279.59 564.934 281.63 566.884 283.679C567.925 282.34 569.874 282.095 571.576 282.25C576.731 282.707 581.431 285.874 584.298 290.126C587.075 294.487 588.419 299.589 588.148 304.734C588.024 308.684 587.198 312.895 588.974 316.396C591.741 321.774 599.44 323.17 602.315 328.499C604.141 331.877 603.554 335.974 602.91 339.744C600.076 336.831 595.524 336.374 591.452 336.733C587.379 337.092 583.274 338.088 579.251 337.378C574.873 336.47 571.019 333.926 568.495 330.278C566.01 326.608 564.494 322.383 564.084 317.987C563.877 314.966 563.342 311.976 562.489 309.067C561.721 306.782 560.911 306.472 558.483 306.048C553.444 305.175 547.843 304.269 544.406 300.188Z" fill="#3E3E54"/>
<path d="M528.017 351.08C522.647 357.389 519.83 365.403 517.352 373.278C517.015 374.095 516.917 374.988 517.071 375.857C517.385 376.683 517.94 377.399 518.665 377.914C522.114 380.877 525.836 383.514 529.784 385.789L540.804 377.106C541.701 376.514 542.423 375.697 542.894 374.739C543.131 373.9 543.196 373.024 543.084 372.16C542.949 366.995 543.721 361.845 545.364 356.94C546.356 353.757 550.676 347.188 548.941 344.013C544.869 336.586 530.974 347.587 528.017 351.08Z" fill="#6F9BFF"/>
<path d="M602.414 339.883C607.106 342.462 609.394 347.848 610.675 352.99C615.119 370.266 612.327 388.457 609.469 406.036C609.422 406.761 609.131 407.451 608.643 407.994C608.078 408.403 607.393 408.618 606.693 408.607C602.814 408.921 598.916 408.921 595.037 408.607C592.384 408.39 589.897 407.243 588.025 405.374C586.153 403.505 585.018 401.036 584.827 398.413C584.587 394.839 585.892 379.537 585.256 376.012C584.058 369.034 595.144 335.892 602.414 339.883Z" fill="#6F9BFF"/>
<circle cx="558" cy="319" r="52.5" stroke="#5690FF" stroke-width="5"/>
</g>
</svg>
