<svg width="593" height="593" viewBox="0 0 593 593" fill="none" xmlns="http://www.w3.org/2000/svg">
<path d="M116.122 198.489C67.4012 307.067 296.631 265.664 316.129 295.575C345.72 340.916 260.506 386.695 291.733 435.321C335.615 503.73 407.677 438.82 433.389 413.546C459.362 388.024 512.792 321.667 478.789 263.766C426.854 175.326 367.163 237.224 313.544 202.023C288.258 185.419 315.026 146.803 275.983 119.881C207.871 72.9034 133.533 159.695 116.122 198.489Z" fill="#407BFF"/>
<path d="M116.122 198.489C67.4012 307.067 296.631 265.664 316.129 295.575C345.72 340.916 260.506 386.695 291.733 435.321C335.615 503.73 407.677 438.82 433.389 413.546C459.362 388.024 512.792 321.667 478.789 263.766C426.854 175.326 367.163 237.224 313.544 202.023C288.258 185.419 315.026 146.803 275.983 119.881C207.871 72.9034 133.533 159.695 116.122 198.489Z" fill="#D1DFFF"/>
<path d="M116.122 198.489C67.4012 307.067 296.631 265.664 316.129 295.575C345.72 340.916 260.506 386.695 291.733 435.321C335.615 503.73 407.677 438.82 433.389 413.546C459.362 388.024 512.792 321.667 478.789 263.766C426.854 175.326 367.163 237.224 313.544 202.023C288.258 185.419 315.026 146.803 275.983 119.881C207.871 72.9034 133.533 159.695 116.122 198.489Z" fill="white"/>
<path d="M296.5 507.086C423.5 507.086 526.454 501.075 526.454 493.661C526.454 486.246 423.5 480.235 296.5 480.235C169.501 480.235 66.5469 486.246 66.5469 493.661C66.5469 501.075 169.501 507.086 296.5 507.086Z" fill="#F5F5F5"/>
<path d="M226.928 467.83H110.475V489.747H226.928V467.83Z" fill="#407BFF"/>
<path opacity="0.2" d="M226.928 467.83H110.475V470.32H226.928V467.83Z" fill="black"/>
<path opacity="0.2" d="M123.592 467.83H119.002V489.747H123.592V467.83Z" fill="black"/>
<path opacity="0.2" d="M134.125 467.83H129.535V489.747H134.125V467.83Z" fill="black"/>
<path opacity="0.2" d="M144.668 467.83H140.078V489.747H144.668V467.83Z" fill="black"/>
<path opacity="0.2" d="M155.199 467.83H150.609V489.747H155.199V467.83Z" fill="black"/>
<path opacity="0.2" d="M165.73 467.83H161.141V489.747H165.73V467.83Z" fill="black"/>
<path opacity="0.2" d="M176.275 467.83H171.686V489.747H176.275V467.83Z" fill="black"/>
<path opacity="0.2" d="M186.807 467.83H182.217V489.747H186.807V467.83Z" fill="black"/>
<path opacity="0.2" d="M197.338 467.83H192.748V489.747H197.338V467.83Z" fill="black"/>
<path opacity="0.2" d="M207.881 467.83H203.291V489.747H207.881V467.83Z" fill="black"/>
<path opacity="0.2" d="M218.414 467.83H213.824V489.747H218.414V467.83Z" fill="black"/>
<path d="M222.196 445.912H105.742V467.83H222.196V445.912Z" fill="#407BFF"/>
<path opacity="0.2" d="M222.196 445.912H105.742V448.403H222.196V445.912Z" fill="black"/>
<path opacity="0.2" d="M118.848 445.912H114.258V467.83H118.848V445.912Z" fill="black"/>
<path opacity="0.2" d="M129.393 445.912H124.803V467.83H129.393V445.912Z" fill="black"/>
<path opacity="0.2" d="M139.924 445.912H135.334V467.83H139.924V445.912Z" fill="black"/>
<path opacity="0.2" d="M150.455 445.912H145.865V467.83H150.455V445.912Z" fill="black"/>
<path opacity="0.2" d="M160.998 445.912H156.408V467.83H160.998V445.912Z" fill="black"/>
<path opacity="0.2" d="M171.531 445.912H166.941V467.83H171.531V445.912Z" fill="black"/>
<path opacity="0.2" d="M182.062 445.912H177.473V467.83H182.062V445.912Z" fill="black"/>
<path opacity="0.2" d="M192.605 445.912H188.016V467.83H192.605V445.912Z" fill="black"/>
<path opacity="0.2" d="M203.137 445.912H198.547V467.83H203.137V445.912Z" fill="black"/>
<path opacity="0.2" d="M213.67 445.912H209.08V467.83H213.67V445.912Z" fill="black"/>
<path d="M218.84 423.995H102.387V445.912H218.84V423.995Z" fill="#407BFF"/>
<path opacity="0.2" d="M218.84 423.995H102.387V426.486H218.84V423.995Z" fill="black"/>
<path opacity="0.2" d="M115.504 423.995H110.914V445.912H115.504V423.995Z" fill="black"/>
<path opacity="0.2" d="M126.035 423.995H121.445V445.912H126.035V423.995Z" fill="black"/>
<path opacity="0.2" d="M136.578 423.995H131.988V445.912H136.578V423.995Z" fill="black"/>
<path opacity="0.2" d="M147.111 423.995H142.521V445.912H147.111V423.995Z" fill="black"/>
<path opacity="0.2" d="M157.643 423.995H153.053V445.912H157.643V423.995Z" fill="black"/>
<path opacity="0.2" d="M168.186 423.995H163.596V445.912H168.186V423.995Z" fill="black"/>
<path opacity="0.2" d="M178.719 423.995H174.129V445.912H178.719V423.995Z" fill="black"/>
<path opacity="0.2" d="M189.25 423.995H184.66V445.912H189.25V423.995Z" fill="black"/>
<path opacity="0.2" d="M199.793 423.995H195.203V445.912H199.793V423.995Z" fill="black"/>
<path opacity="0.2" d="M210.324 423.995H205.734V445.912H210.324V423.995Z" fill="black"/>
<path d="M224.117 402.09H107.664V424.007H224.117V402.09Z" fill="#407BFF"/>
<path opacity="0.2" d="M224.117 402.09H107.664V404.58H224.117V402.09Z" fill="black"/>
<path opacity="0.2" d="M120.77 402.09H116.18V424.007H120.77V402.09Z" fill="black"/>
<path opacity="0.2" d="M131.312 402.09H126.723V424.007H131.312V402.09Z" fill="black"/>
<path opacity="0.2" d="M141.846 402.09H137.256V424.007H141.846V402.09Z" fill="black"/>
<path opacity="0.2" d="M152.377 402.09H147.787V424.007H152.377V402.09Z" fill="black"/>
<path opacity="0.2" d="M162.92 402.09H158.33V424.007H162.92V402.09Z" fill="black"/>
<path opacity="0.2" d="M173.451 402.09H168.861V424.007H173.451V402.09Z" fill="black"/>
<path opacity="0.2" d="M183.984 402.09H179.395V424.007H183.984V402.09Z" fill="black"/>
<path opacity="0.2" d="M194.527 402.09H189.938V424.007H194.527V402.09Z" fill="black"/>
<path opacity="0.2" d="M205.059 402.09H200.469V424.007H205.059V402.09Z" fill="black"/>
<path opacity="0.2" d="M215.59 402.09H211V424.007H215.59V402.09Z" fill="black"/>
<path d="M102.553 402.078H219.006V380.16H102.553V402.078Z" fill="#407BFF"/>
<path opacity="0.2" d="M102.553 382.651H219.006V380.16H102.553V382.651Z" fill="black"/>
<path opacity="0.2" d="M205.889 402.078H210.479V380.16H205.889V402.078Z" fill="black"/>
<path opacity="0.2" d="M195.346 402.078H199.936V380.16H195.346V402.078Z" fill="black"/>
<path opacity="0.2" d="M184.814 402.078H189.404V380.16H184.814V402.078Z" fill="black"/>
<path opacity="0.2" d="M174.281 402.078H178.871V380.16H174.281V402.078Z" fill="black"/>
<path opacity="0.2" d="M163.738 402.078H168.328V380.16H163.738V402.078Z" fill="black"/>
<path opacity="0.2" d="M153.207 402.078H157.797V380.16H153.207V402.078Z" fill="black"/>
<path opacity="0.2" d="M142.676 402.078H147.266V380.16H142.676V402.078Z" fill="black"/>
<path opacity="0.2" d="M132.131 402.078H136.721V380.16H132.131V402.078Z" fill="black"/>
<path opacity="0.2" d="M121.6 402.078H126.189V380.16H121.6V402.078Z" fill="black"/>
<path opacity="0.2" d="M111.068 402.078H115.658V380.16H111.068V402.078Z" fill="black"/>
<path d="M107.285 380.172H223.738V358.255H107.285V380.172Z" fill="#407BFF"/>
<path opacity="0.2" d="M107.285 360.746H223.738V358.255H107.285V360.746Z" fill="black"/>
<path opacity="0.2" d="M210.621 380.172H215.211V358.255H210.621V380.172Z" fill="black"/>
<path opacity="0.2" d="M200.102 380.172H204.691V358.255H200.102V380.172Z" fill="black"/>
<path opacity="0.2" d="M189.559 380.172H194.148V358.255H189.559V380.172Z" fill="black"/>
<path opacity="0.2" d="M179.014 380.172H183.604V358.255H179.014V380.172Z" fill="black"/>
<path opacity="0.2" d="M168.494 380.172H173.084V358.255H168.494V380.172Z" fill="black"/>
<path opacity="0.2" d="M157.951 380.172H162.541V358.255H157.951V380.172Z" fill="black"/>
<path opacity="0.2" d="M147.406 380.172H151.996V358.255H147.406V380.172Z" fill="black"/>
<path opacity="0.2" d="M136.887 380.172H141.477V358.255H136.887V380.172Z" fill="black"/>
<path opacity="0.2" d="M126.344 380.172H130.934V358.255H126.344V380.172Z" fill="black"/>
<path opacity="0.2" d="M115.801 380.172H120.391V358.255H115.801V380.172Z" fill="black"/>
<path d="M110.64 358.255H227.094V336.338H110.64V358.255Z" fill="#407BFF"/>
<path opacity="0.2" d="M110.64 338.828H227.094V336.338H110.64V338.828Z" fill="black"/>
<path opacity="0.2" d="M213.977 358.255H218.566V336.338H213.977V358.255Z" fill="black"/>
<path opacity="0.2" d="M203.434 358.255H208.023V336.338H203.434V358.255Z" fill="black"/>
<path opacity="0.2" d="M192.902 358.255H197.492V336.338H192.902V358.255Z" fill="black"/>
<path opacity="0.2" d="M182.371 358.255H186.961V336.338H182.371V358.255Z" fill="black"/>
<path opacity="0.2" d="M171.826 358.255H176.416V336.338H171.826V358.255Z" fill="black"/>
<path opacity="0.2" d="M161.295 358.255H165.885V336.338H161.295V358.255Z" fill="black"/>
<path opacity="0.2" d="M150.764 358.255H155.354V336.338H150.764V358.255Z" fill="black"/>
<path opacity="0.2" d="M140.221 358.255H144.811V336.338H140.221V358.255Z" fill="black"/>
<path opacity="0.2" d="M129.688 358.255H134.277V336.338H129.688V358.255Z" fill="black"/>
<path opacity="0.2" d="M119.156 358.255H123.746V336.338H119.156V358.255Z" fill="black"/>
<path d="M105.363 336.338H221.816V314.42H105.363V336.338Z" fill="#407BFF"/>
<path opacity="0.2" d="M105.363 316.911H221.816V314.42H105.363V316.911Z" fill="black"/>
<path opacity="0.2" d="M208.699 336.338H213.289V314.42H208.699V336.338Z" fill="black"/>
<path opacity="0.2" d="M198.18 336.338H202.77V314.42H198.18V336.338Z" fill="black"/>
<path opacity="0.2" d="M187.637 336.338H192.227V314.42H187.637V336.338Z" fill="black"/>
<path opacity="0.2" d="M177.094 336.338H181.684V314.42H177.094V336.338Z" fill="black"/>
<path opacity="0.2" d="M166.572 336.338H171.162V314.42H166.572V336.338Z" fill="black"/>
<path opacity="0.2" d="M156.029 336.338H160.619V314.42H156.029V336.338Z" fill="black"/>
<path opacity="0.2" d="M145.486 336.338H150.076V314.42H145.486V336.338Z" fill="black"/>
<path opacity="0.2" d="M134.967 336.338H139.557V314.42H134.967V336.338Z" fill="black"/>
<path opacity="0.2" d="M124.422 336.338H129.012V314.42H124.422V336.338Z" fill="black"/>
<path opacity="0.2" d="M113.879 336.338H118.469V314.42H113.879V336.338Z" fill="black"/>
<path d="M475.182 227.712L428.738 235.67C427.845 235.82 427.016 236.233 426.358 236.856C425.7 237.479 425.242 238.283 425.042 239.167C424.843 240.051 424.91 240.974 425.237 241.819C425.564 242.664 426.134 243.393 426.876 243.913L435.439 249.973L382.935 324.193C382.594 324.676 382.16 325.086 381.66 325.401C381.16 325.716 380.602 325.929 380.02 326.028C379.437 326.128 378.84 326.111 378.264 325.979C377.688 325.847 377.143 325.603 376.661 325.261L299.488 270.705C298.511 270.016 297.3 269.744 296.122 269.946C294.944 270.148 293.894 270.809 293.202 271.784L137.635 491.668H193.543L304.114 335.365C304.455 334.883 304.888 334.472 305.389 334.157C305.889 333.842 306.446 333.629 307.029 333.53C307.612 333.431 308.209 333.448 308.785 333.579C309.361 333.711 309.906 333.955 310.388 334.298L387.561 388.854C388.044 389.196 388.59 389.44 389.168 389.571C389.746 389.702 390.343 389.718 390.927 389.617C391.511 389.517 392.069 389.303 392.57 388.987C393.071 388.67 393.505 388.259 393.846 387.775L472.703 276.291L481.278 282.351C482.017 282.86 482.89 283.141 483.787 283.159C484.685 283.176 485.567 282.929 486.326 282.449C487.084 281.969 487.684 281.276 488.052 280.458C488.42 279.639 488.539 278.73 488.394 277.844L480.424 231.401C480.21 230.22 479.54 229.172 478.559 228.482C477.578 227.792 476.365 227.515 475.182 227.712Z" fill="#407BFF"/>
<path opacity="0.2" d="M475.182 227.712L428.738 235.67C427.845 235.82 427.016 236.233 426.358 236.856C425.7 237.479 425.242 238.283 425.042 239.167C424.843 240.051 424.91 240.974 425.237 241.819C425.564 242.664 426.134 243.393 426.876 243.913L435.439 249.973L382.935 324.193C382.594 324.676 382.16 325.086 381.66 325.401C381.16 325.716 380.602 325.929 380.02 326.028C379.437 326.128 378.84 326.111 378.264 325.979C377.688 325.847 377.143 325.603 376.661 325.261L299.488 270.705C298.511 270.016 297.3 269.744 296.122 269.946C294.944 270.148 293.894 270.809 293.202 271.784L137.635 491.668H193.543L304.114 335.365C304.455 334.883 304.888 334.472 305.389 334.157C305.889 333.842 306.446 333.629 307.029 333.53C307.612 333.431 308.209 333.448 308.785 333.579C309.361 333.711 309.906 333.955 310.388 334.298L387.561 388.854C388.044 389.196 388.59 389.44 389.168 389.571C389.746 389.702 390.343 389.718 390.927 389.617C391.511 389.517 392.069 389.303 392.57 388.987C393.071 388.67 393.505 388.259 393.846 387.775L472.703 276.291L481.278 282.351C482.017 282.86 482.89 283.141 483.787 283.159C484.685 283.176 485.567 282.929 486.326 282.449C487.084 281.969 487.684 281.276 488.052 280.458C488.42 279.639 488.539 278.73 488.394 277.844L480.424 231.401C480.21 230.22 479.54 229.172 478.559 228.482C477.578 227.792 476.365 227.515 475.182 227.712Z" fill="black"/>
<path opacity="0.2" d="M190.044 485.205H150.693C150.639 485.202 150.586 485.186 150.54 485.157C150.494 485.128 150.457 485.087 150.432 485.039C150.404 484.992 150.389 484.939 150.389 484.884C150.389 484.83 150.404 484.777 150.432 484.73L294.555 280.975C294.916 280.457 295.376 280.014 295.909 279.674C296.442 279.333 297.036 279.101 297.659 278.991C298.281 278.881 298.92 278.895 299.537 279.032C300.154 279.169 300.738 279.426 301.256 279.789L378.417 334.345C378.87 334.674 379.385 334.909 379.93 335.037C380.476 335.164 381.041 335.181 381.593 335.087C382.146 334.994 382.674 334.79 383.146 334.49C383.619 334.189 384.027 333.798 384.347 333.337L444.489 248.325L435.001 241.577C434.95 241.545 434.911 241.498 434.889 241.442C434.868 241.387 434.865 241.325 434.882 241.268C434.895 241.211 434.925 241.16 434.967 241.12C435.009 241.08 435.062 241.053 435.119 241.043L474.257 234.342C474.295 234.335 474.333 234.336 474.37 234.344C474.407 234.353 474.442 234.368 474.473 234.39C474.504 234.413 474.531 234.441 474.551 234.473C474.57 234.505 474.584 234.542 474.589 234.579L481.29 273.717C481.299 273.776 481.292 273.835 481.269 273.89C481.246 273.944 481.208 273.991 481.16 274.026C481.11 274.057 481.053 274.074 480.994 274.074C480.935 274.074 480.877 274.057 480.828 274.026L471.34 267.277L392.649 378.524C392.287 379.041 391.828 379.482 391.296 379.821C390.764 380.161 390.171 380.392 389.55 380.502C388.929 380.613 388.292 380.599 387.676 380.463C387.06 380.327 386.477 380.071 385.96 379.71L308.787 325.154C308.335 324.834 307.825 324.607 307.285 324.485C306.746 324.363 306.188 324.348 305.642 324.441C305.097 324.535 304.576 324.735 304.108 325.03C303.64 325.326 303.235 325.71 302.916 326.162L190.293 485.074C190.265 485.114 190.228 485.147 190.185 485.169C190.141 485.192 190.093 485.204 190.044 485.205ZM151.262 484.612H189.89L302.252 325.771C302.984 324.726 304.1 324.014 305.357 323.791C306.613 323.569 307.907 323.854 308.953 324.585L386.126 379.141C386.577 379.46 387.087 379.688 387.627 379.81C388.166 379.932 388.725 379.947 389.27 379.853C389.815 379.76 390.337 379.559 390.804 379.264C391.272 378.969 391.677 378.584 391.996 378.133L470.854 266.649C470.874 266.615 470.901 266.587 470.934 266.567C470.967 266.546 471.005 266.534 471.043 266.53C471.078 266.513 471.117 266.504 471.156 266.504C471.195 266.504 471.233 266.513 471.269 266.53L480.46 273.029L473.925 235.065L435.843 241.588L445.034 248.088C445.095 248.135 445.137 248.202 445.153 248.277C445.183 248.35 445.183 248.431 445.153 248.503L384.845 333.764C384.483 334.281 384.022 334.72 383.488 335.056C382.955 335.392 382.359 335.618 381.737 335.721C380.492 335.928 379.214 335.639 378.179 334.915L301.018 280.359C300.565 280.03 300.05 279.795 299.505 279.668C298.959 279.54 298.394 279.523 297.841 279.617C297.289 279.711 296.761 279.914 296.289 280.214C295.816 280.515 295.408 280.907 295.088 281.367L151.262 484.612Z" fill="white"/>
<path d="M412.787 417.223H407.912V489.747H412.787V417.223Z" fill="#263238"/>
<path d="M455.435 377.706H450.561V489.747H455.435V377.706Z" fill="#263238"/>
<path d="M498.867 404.58H493.992V489.747H498.867V404.58Z" fill="#263238"/>
<path d="M407.925 417.223H373.744V489.747H407.925V417.223Z" fill="#407BFF"/>
<path opacity="0.2" d="M373.744 417.223V460.228L390.823 417.223H373.744Z" fill="white"/>
<path d="M450.561 377.706H416.381V489.747H450.561V377.706Z" fill="#407BFF"/>
<path opacity="0.2" d="M416.381 377.706V420.71L433.471 377.706H416.381Z" fill="white"/>
<path d="M494.005 404.58H459.824V489.747H494.005V404.58Z" fill="#407BFF"/>
<path opacity="0.2" d="M459.824 404.58V442.853L476.914 404.58H459.824Z" fill="white"/>
<path d="M294.222 483.817L285.055 482.097L286.608 460.405L295.776 462.137L294.222 483.817Z" fill="#E3A392"/>
<path d="M355.918 483.568H346.584L344.271 461.971H353.593L355.918 483.568Z" fill="#E3A392"/>
<path d="M345.825 482.488H357.187C357.372 482.489 357.552 482.553 357.696 482.669C357.841 482.786 357.941 482.948 357.982 483.129L359.832 491.431C359.874 491.633 359.871 491.842 359.822 492.042C359.773 492.242 359.68 492.429 359.549 492.589C359.418 492.748 359.253 492.876 359.066 492.963C358.878 493.05 358.674 493.094 358.468 493.091C354.803 493.032 352.135 492.806 347.533 492.806C344.698 492.806 336.147 493.103 332.233 493.103C328.32 493.103 327.81 489.237 329.411 488.881C336.598 487.315 342.006 485.145 344.307 483.081C344.721 482.701 345.263 482.49 345.825 482.488Z" fill="#263238"/>
<path d="M285.245 480.081L295.29 481.812C295.472 481.844 295.638 481.936 295.761 482.074C295.883 482.212 295.956 482.387 295.967 482.571L296.37 491.051C296.38 491.256 296.344 491.461 296.264 491.65C296.185 491.839 296.063 492.007 295.909 492.143C295.756 492.279 295.573 492.378 295.376 492.433C295.178 492.488 294.971 492.499 294.769 492.463C291.211 491.775 285.957 490.66 281.414 489.877C276.089 488.964 273.492 488.3 267.253 487.22C263.482 486.568 264.3 482.476 265.949 482.37C273.409 482.038 276.042 483.176 282.909 480.413C283.641 480.087 284.45 479.972 285.245 480.081Z" fill="#263238"/>
<path d="M317.184 198.169C316.864 199.117 316.615 199.805 316.318 200.541C316.022 201.276 315.725 202.059 315.417 202.806C314.8 204.312 314.148 205.783 313.46 207.253C312.086 210.205 310.546 213.075 308.846 215.852C305.369 221.791 300.84 227.048 295.48 231.365C293.988 232.503 292.401 233.511 290.736 234.377C290.309 234.614 289.87 234.816 289.42 235.018C288.969 235.219 288.566 235.409 288.032 235.611C286.981 235.998 285.897 236.291 284.794 236.488C283.003 236.79 281.19 236.945 279.374 236.951C277.666 236.951 276.03 236.951 274.417 236.797C268.125 236.295 261.899 235.167 255.832 233.428L256.769 226.49C262.699 226.265 268.712 226.075 274.357 225.577C275.769 225.447 277.156 225.281 278.473 225.079C279.678 224.915 280.868 224.654 282.031 224.296C282.41 224.188 282.776 224.037 283.122 223.846C283.513 223.608 284.047 223.383 284.486 223.075C285.452 222.465 286.369 221.779 287.225 221.023C289.117 219.345 290.823 217.468 292.313 215.425C293.937 213.258 295.419 210.988 296.749 208.629C298.137 206.257 299.382 203.731 300.604 201.193C301.197 199.924 301.79 198.631 302.311 197.338L303.106 195.405L303.829 193.579L317.184 198.169Z" fill="#E3A392"/>
<path d="M312.689 187.234C329.708 187.234 311.005 224 311.005 224L289.289 215.211C289.289 215.211 295.219 202.426 299.121 195.109C300.385 192.63 302.337 190.568 304.744 189.171C307.151 187.774 309.909 187.101 312.689 187.234Z" fill="#407BFF"/>
<g opacity="0.3">
<path opacity="0.3" d="M312.689 187.234C329.708 187.234 311.005 224 311.005 224L289.289 215.211C289.289 215.211 295.219 202.426 299.121 195.109C300.385 192.63 302.337 190.568 304.744 189.171C307.151 187.774 309.909 187.101 312.689 187.234Z" fill="white"/>
</g>
<path opacity="0.2" d="M308.525 199.117C302.299 203.494 297.97 211.618 296.736 218.212L309.142 223.241C311.395 219.872 313.589 215.899 316.009 212.413C316.673 210.598 317.325 208.688 317.895 206.755L308.525 199.117Z" fill="black"/>
<path d="M262.106 227.38L254.646 223.169L248.93 233.843C252.232 234.402 255.61 234.318 258.88 233.594L262.106 227.38Z" fill="#E3A392"/>
<path d="M247.506 223.169L243.355 232.586L248.882 233.879L254.599 223.169H247.506Z" fill="#E3A392"/>
<path opacity="0.2" d="M286.609 460.417L285.814 471.589L294.982 473.309L295.777 462.137L286.609 460.417Z" fill="black"/>
<path opacity="0.2" d="M353.594 461.982H344.26L345.47 473.119H354.792L353.594 461.982Z" fill="black"/>
<path d="M359.096 191.302C356.361 201.368 354.379 211.623 353.166 221.984C352.276 229.206 351.755 236.097 351.423 242.359C350.64 257.018 350.972 268.19 350.533 272.009C343.239 271.511 315.759 269.637 300.721 268.546C293.949 215.496 306.888 188.171 306.888 188.171C310.807 187.434 314.768 186.939 318.748 186.688C319.59 186.688 320.456 186.605 321.322 186.593C328.397 186.676 335.461 187.167 342.48 188.064C343.808 188.218 345.16 188.42 346.465 188.633C353.237 189.677 359.096 191.302 359.096 191.302Z" fill="#407BFF"/>
<g opacity="0.3">
<path opacity="0.3" d="M359.096 191.302C356.361 201.368 354.379 211.623 353.166 221.984C352.276 229.206 351.755 236.097 351.423 242.359C350.64 257.018 350.972 268.19 350.533 272.009C343.239 271.511 315.759 269.637 300.721 268.546C293.949 215.496 306.888 188.171 306.888 188.171C310.807 187.434 314.768 186.939 318.748 186.688C319.59 186.688 320.456 186.605 321.322 186.593C328.397 186.676 335.461 187.167 342.48 188.064C343.808 188.218 345.16 188.42 346.465 188.633C353.237 189.677 359.096 191.302 359.096 191.302Z" fill="white"/>
</g>
<path opacity="0.2" d="M346.536 204.727C346.441 212.361 348.581 219.856 352.692 226.289C352.834 224.866 353 223.431 353.178 221.984C353.842 216.552 354.696 210.93 355.823 205.249L346.536 204.727Z" fill="black"/>
<path d="M342.149 164.059C340.346 170.784 338.14 183.154 342.587 188.028C340.338 190.069 337.677 191.602 334.784 192.525C331.89 193.448 328.833 193.738 325.817 193.377C319.97 192.844 319.97 188.728 321.429 186.558C329.15 185.277 329.34 179.631 328.391 174.247L342.149 164.059Z" fill="#E3A392"/>
<path d="M321.535 195.595C321.673 196.642 321.919 197.671 322.271 198.667C322.371 198.984 322.571 199.261 322.839 199.457C323.108 199.653 323.432 199.758 323.765 199.758C324.739 199.744 325.713 199.827 326.671 200.007C326.872 200.054 327.082 200.06 327.286 200.023C327.49 199.986 327.684 199.908 327.857 199.794C329.043 199.046 330.561 197.943 330.169 196.568C329.707 194.955 326.931 193.496 326.931 193.496C326.931 193.496 322.164 194.67 321.535 195.595Z" fill="#263238"/>
<path d="M324.038 198.667C322.129 202.841 317.717 229.574 317.171 233.618C316.626 237.662 318.488 244.185 321.073 249.368C324.045 245.293 325.738 240.425 325.936 235.385C326.28 229.859 326.612 199.331 326.612 199.331L324.038 198.667Z" fill="#263238"/>
<path d="M326.896 193.496C328.662 194.968 330.121 196.774 331.19 198.809C334.19 198.572 347.438 192.76 345.552 188.277C343.904 187.815 342.457 186.866 341.994 187.352C341.366 188.313 335.744 191.705 326.896 193.496Z" fill="white"/>
<path d="M326.896 193.496C326.896 193.496 321.808 195.216 320.622 198.109C317.55 196.746 315.878 190.59 318.594 186.546C320.29 186.404 321.915 185.562 322.223 186.119C322.697 187.175 321.405 190.009 326.896 193.496Z" fill="white"/>
<path opacity="0.2" d="M336.538 168.222L328.391 174.235C328.636 175.49 328.767 176.764 328.782 178.042C331.711 177.829 335.898 174.923 336.444 171.911C336.702 170.697 336.734 169.447 336.538 168.222Z" fill="black"/>
<path d="M322.389 142.462C318.831 143.862 317.515 157.631 324.761 156.279C332.008 154.927 329.553 139.651 322.389 142.462Z" fill="#263238"/>
<path d="M345.884 156.232C342.979 165.02 341.733 170.31 336.017 173.713C327.406 178.825 317.456 171.828 317.669 162.351C317.859 153.824 322.568 140.873 332.257 139.628C334.391 139.339 336.562 139.601 338.566 140.388C340.569 141.176 342.338 142.463 343.704 144.127C345.07 145.791 345.987 147.777 346.369 149.896C346.75 152.014 346.584 154.196 345.884 156.232Z" fill="#E3A392"/>
<path d="M342.587 162.28C338.899 162.351 335.874 151.179 343.311 148.048C337.452 147.372 319.46 148.357 316.234 140.316C313.008 132.274 325.521 131.029 329.778 134.065C328.426 129.642 333.929 123.119 343.821 129.049C353.712 134.979 353.593 142.296 352.668 144.467C357.08 145.653 357.946 155.473 353.071 156.789C355.93 160.75 353.463 169.076 345.754 167.297C345.493 172.148 340.085 170.025 340.417 166.301C340.749 162.577 342.587 162.28 342.587 162.28Z" fill="#263238"/>
<path d="M326.149 164.427C327.191 164.732 328.292 164.784 329.358 164.577C330.425 164.371 331.427 163.913 332.28 163.241C332.324 163.195 332.349 163.133 332.349 163.069C332.349 163.005 332.324 162.943 332.28 162.897C332.236 162.854 332.176 162.829 332.114 162.829C332.052 162.829 331.993 162.854 331.948 162.897C331.16 163.529 330.233 163.966 329.244 164.172C328.255 164.378 327.231 164.348 326.255 164.083C326.226 164.074 326.195 164.072 326.164 164.075C326.133 164.079 326.104 164.089 326.077 164.104C326.05 164.12 326.027 164.141 326.009 164.166C325.99 164.191 325.978 164.219 325.971 164.249C325.979 164.293 326.001 164.334 326.033 164.365C326.064 164.397 326.105 164.418 326.149 164.427Z" fill="#263238"/>
<path d="M347.723 165.554C346.019 167.144 343.755 167.997 341.425 167.926C338.342 167.795 337.749 164.806 339.397 162.399C340.892 160.228 344.284 157.655 346.988 158.971C347.576 159.266 348.081 159.704 348.457 160.244C348.833 160.784 349.069 161.409 349.142 162.063C349.215 162.717 349.123 163.379 348.875 163.988C348.628 164.598 348.232 165.136 347.723 165.554Z" fill="#E3A392"/>
<path d="M282.718 467.972L298.136 471.613C298.136 471.613 303.592 411.542 308.277 378.535C309.522 369.783 311.443 357.472 314.373 344.355C318.061 327.834 322.675 309.961 326.494 295.966C330.49 281.224 333.539 270.799 333.539 270.799L300.829 268.51C300.829 268.51 283.122 345.719 281.248 374.064C279.243 403.643 282.718 467.972 282.718 467.972Z" fill="#263238"/>
<path opacity="0.2" d="M314.289 344.355C317.978 327.834 322.591 309.961 326.41 295.966L323.006 288.649C314.93 298.291 312.747 328.143 314.289 344.355Z" fill="black"/>
<path d="M318.428 269.744C318.428 269.744 321.986 349.585 325.9 376.626C330.205 406.276 341.151 470.96 341.151 470.96H358.242C358.242 470.96 353.498 409.443 350.284 380.445C346.619 347.415 350.533 271.985 350.533 271.985L318.428 269.744Z" fill="#263238"/>
<path d="M339.112 471.328H359.226L360.116 465.315L337.914 464.924L339.112 471.328Z" fill="#407BFF"/>
<path d="M281.734 469.004L299.251 472.301L301.232 466.193L281.26 462.409L281.734 469.004Z" fill="#407BFF"/>
<path d="M332.376 155.532C332.174 156.255 331.641 156.718 331.19 156.623C330.739 156.528 330.478 155.805 330.668 155.081C330.858 154.358 331.403 153.895 331.854 153.99C332.305 154.085 332.566 154.808 332.376 155.532Z" fill="#263238"/>
<path d="M324.145 153.373C323.955 154.097 323.41 154.559 322.959 154.453C322.508 154.346 322.259 153.646 322.449 152.911C322.639 152.175 323.184 151.725 323.635 151.82C324.086 151.915 324.335 152.638 324.145 153.373Z" fill="#263238"/>
<path d="M325.971 154.05C324.515 156.044 322.796 157.831 320.859 159.363C321.82 160.893 324.299 160.762 324.299 160.762L325.971 154.05Z" fill="#E48C7A"/>
<path d="M334.926 153.172C334.843 153.167 334.764 153.138 334.697 153.09C334.629 153.042 334.577 152.976 334.546 152.899C334.346 152.381 334.027 151.917 333.615 151.544C333.203 151.171 332.71 150.9 332.174 150.752C332.117 150.741 332.063 150.719 332.015 150.688C331.966 150.656 331.925 150.615 331.892 150.567C331.86 150.519 331.837 150.465 331.825 150.408C331.814 150.352 331.813 150.293 331.824 150.236C331.835 150.18 331.857 150.125 331.889 150.077C331.921 150.029 331.962 149.987 332.01 149.955C332.058 149.922 332.112 149.899 332.168 149.888C332.225 149.876 332.283 149.876 332.34 149.887C333.02 150.06 333.648 150.394 334.172 150.86C334.697 151.327 335.101 151.912 335.353 152.567C335.376 152.621 335.388 152.678 335.389 152.737C335.389 152.795 335.378 152.853 335.356 152.907C335.334 152.962 335.302 153.011 335.26 153.052C335.219 153.093 335.17 153.126 335.115 153.148C335.055 153.171 334.99 153.179 334.926 153.172Z" fill="#263238"/>
<path d="M320.671 149.246C320.579 149.236 320.493 149.199 320.422 149.14C320.38 149.099 320.346 149.05 320.324 148.996C320.301 148.942 320.289 148.884 320.289 148.825C320.289 148.767 320.301 148.709 320.324 148.655C320.346 148.601 320.38 148.552 320.422 148.511C320.866 147.968 321.433 147.539 322.077 147.26C322.721 146.982 323.422 146.862 324.122 146.91C324.236 146.93 324.339 146.993 324.409 147.085C324.479 147.177 324.512 147.292 324.501 147.408C324.484 147.523 324.422 147.628 324.329 147.698C324.236 147.769 324.119 147.801 324.003 147.787C323.449 147.762 322.896 147.867 322.39 148.094C321.883 148.32 321.437 148.662 321.086 149.092C321.036 149.151 320.971 149.197 320.898 149.224C320.826 149.251 320.747 149.258 320.671 149.246Z" fill="#263238"/>
<path d="M342.754 484.125C342.117 484.174 341.482 484.007 340.951 483.651C340.783 483.506 340.654 483.322 340.575 483.115C340.496 482.908 340.471 482.684 340.5 482.465C340.497 482.336 340.531 482.21 340.599 482.1C340.666 481.991 340.764 481.903 340.88 481.848C341.912 481.314 344.912 483.164 345.256 483.378C345.292 483.399 345.321 483.431 345.338 483.47C345.355 483.508 345.359 483.55 345.351 483.591C345.347 483.637 345.329 483.679 345.299 483.713C345.269 483.747 345.229 483.771 345.185 483.781C344.39 483.986 343.574 484.101 342.754 484.125ZM341.366 482.192C341.267 482.184 341.169 482.204 341.081 482.251C341.022 482.251 340.951 482.334 340.939 482.512C340.918 482.659 340.935 482.808 340.987 482.947C341.038 483.086 341.124 483.209 341.236 483.307C342.277 483.781 343.461 483.841 344.545 483.473C343.574 482.843 342.491 482.408 341.354 482.192H341.366Z" fill="#407BFF"/>
<path d="M345.126 483.793H345.019C344.058 483.271 342.185 481.219 342.386 480.235C342.419 480.073 342.506 479.926 342.633 479.821C342.761 479.715 342.92 479.656 343.086 479.654C343.255 479.63 343.428 479.643 343.591 479.692C343.755 479.742 343.906 479.825 344.035 479.938C345.114 480.816 345.339 483.496 345.351 483.627C345.352 483.667 345.342 483.706 345.324 483.741C345.305 483.777 345.278 483.807 345.244 483.829C345.202 483.829 345.161 483.817 345.126 483.793ZM343.24 480.01H343.145C342.861 480.01 342.837 480.176 342.825 480.235C342.706 480.84 343.892 482.393 344.853 483.117C344.791 482.055 344.406 481.037 343.75 480.199C343.609 480.076 343.427 480.009 343.24 480.01Z" fill="#407BFF"/>
<path d="M284.13 481.196C282.6 481.196 279.907 481.136 279.053 480.081C278.918 479.919 278.827 479.725 278.788 479.517C278.748 479.31 278.762 479.095 278.828 478.895C278.854 478.779 278.908 478.671 278.987 478.581C279.066 478.492 279.167 478.425 279.279 478.385C280.465 477.97 283.88 480.46 284.26 480.757C284.297 480.783 284.323 480.82 284.336 480.863C284.349 480.906 284.347 480.952 284.331 480.994C284.326 481.046 284.303 481.094 284.266 481.131C284.23 481.168 284.181 481.191 284.13 481.196ZM279.457 478.824C279.41 478.839 279.368 478.867 279.337 478.905C279.306 478.943 279.285 478.989 279.279 479.037C279.24 479.162 279.233 479.294 279.258 479.423C279.283 479.551 279.339 479.671 279.421 479.773C279.896 480.377 281.39 480.721 283.477 480.733C282.066 479.808 280.168 478.681 279.457 478.836V478.824Z" fill="#407BFF"/>
<path d="M284.129 481.196C284.075 481.217 284.016 481.217 283.963 481.196C282.943 480.508 281.093 478.136 281.437 477.128C281.52 476.89 281.745 476.618 282.35 476.653C282.577 476.663 282.799 476.72 283.003 476.82C283.208 476.92 283.389 477.061 283.536 477.234C284.544 478.42 284.366 480.923 284.354 481.03C284.352 481.067 284.339 481.103 284.319 481.135C284.298 481.166 284.269 481.191 284.235 481.208L284.129 481.196ZM282.065 477.08C281.899 477.08 281.863 477.199 281.852 477.234C281.65 477.839 282.872 479.666 283.88 480.532C283.963 479.469 283.71 478.407 283.156 477.495C283.054 477.372 282.928 477.27 282.785 477.197C282.642 477.123 282.486 477.08 282.326 477.068C282.239 477.053 282.15 477.057 282.065 477.08Z" fill="#407BFF"/>
<path d="M316.792 232.954L313.008 230.25L250.98 317.077L254.764 319.781C266.292 327.591 280.416 330.587 294.122 328.128C307.828 325.669 320.031 317.951 328.125 306.62C336.219 295.289 339.565 281.244 337.447 267.481C335.33 253.718 327.917 241.328 316.792 232.954Z" fill="#407BFF"/>
<path opacity="0.1" d="M316.792 232.954L313.008 230.25L250.98 317.077L254.764 319.781C266.292 327.591 280.416 330.587 294.122 328.128C307.828 325.669 320.031 317.951 328.125 306.62C336.219 295.289 339.565 281.244 337.447 267.481C335.33 253.718 327.917 241.328 316.792 232.954Z" fill="black"/>
<path d="M224.924 280.453C224.041 273.116 224.585 265.678 226.526 258.548L227.712 258.856C225.805 265.843 225.274 273.133 226.146 280.323L224.924 280.453Z" fill="#407BFF"/>
<path d="M228.519 294.768C227.461 292.069 226.608 289.294 225.969 286.466L227.155 286.206C227.787 288.968 228.623 291.679 229.657 294.318L228.519 294.768Z" fill="#407BFF"/>
<path d="M292.778 325.897C321.634 319.952 340.208 291.741 334.264 262.884C328.319 234.028 300.108 215.454 271.251 221.398C242.395 227.343 223.821 255.554 229.765 284.411C235.71 313.267 263.921 331.841 292.778 325.897Z" fill="#407BFF"/>
<path d="M269.4 287.154L277.773 275.448C274.863 271.796 273.31 268.301 273.112 264.964C272.962 261.554 274.006 258.199 276.065 255.476C278.022 252.575 281.035 250.553 284.462 249.843C288.004 249.169 291.67 249.85 294.733 251.752L296.749 248.929L300.805 251.823L298.777 254.646C301.258 256.729 302.984 259.572 303.687 262.734C304.217 265.841 303.718 269.035 302.264 271.831L294.531 267.704C295.095 266.639 295.376 265.447 295.347 264.243C295.318 263.038 294.98 261.861 294.365 260.825L286.561 271.76C290.167 276.172 292.092 279.92 292.337 283.003C292.515 286.301 291.496 289.553 289.467 292.159C287.323 295.352 284.053 297.618 280.311 298.504C276.366 299.317 272.261 298.667 268.759 296.678L266.743 299.5L262.687 296.607L264.608 293.914C261.843 291.54 259.979 288.286 259.331 284.699C258.835 280.794 259.617 276.833 261.56 273.408L269.423 277.844C268.682 279.423 268.312 281.152 268.344 282.896C268.359 284.379 268.72 285.837 269.4 287.154ZM290.368 257.801C289.073 257.379 287.678 257.379 286.383 257.801C285.133 258.199 284.046 258.994 283.288 260.066C282.587 261.058 282.214 262.244 282.22 263.458C282.234 264.875 282.645 266.26 283.406 267.455L290.368 257.801ZM273.171 290.451C274.646 291.165 276.326 291.337 277.915 290.938C279.51 290.546 280.906 289.584 281.841 288.233C282.698 287.075 283.118 285.651 283.027 284.213C282.8 282.476 282.056 280.848 280.892 279.54L273.171 290.451Z" fill="white" fill-opacity="0.9"/>
<path opacity="0.1" d="M325.212 269.222C322.729 258.442 316.228 249.015 307.035 242.862C297.842 236.71 286.648 234.295 275.736 236.11C264.824 237.924 255.015 243.833 248.308 252.63C241.601 261.427 238.502 272.451 239.642 283.454C238.311 277.673 238.177 271.682 239.249 265.847C240.321 260.013 242.576 254.46 245.875 249.531C249.174 244.601 253.448 240.399 258.432 237.183C263.417 233.968 269.007 231.807 274.859 230.834C280.71 229.861 286.699 230.096 292.456 231.525C298.213 232.953 303.617 235.546 308.334 239.142C313.051 242.739 316.983 247.263 319.885 252.436C322.788 257.609 324.601 263.322 325.212 269.222Z" fill="black"/>
<path d="M360.294 196.402C361.48 197.908 362.464 199.26 363.461 200.731C364.457 202.201 365.429 203.612 366.378 205.083C368.264 208.024 370.055 211.013 371.715 214.132C373.376 217.251 374.917 220.442 376.317 223.739L377.337 226.241L378.262 228.815C378.57 229.657 378.831 230.558 379.104 231.436L379.495 232.764L379.602 233.096L379.78 233.82C379.893 234.312 379.972 234.811 380.017 235.314C380.13 236.986 379.908 238.663 379.365 240.248C378.955 241.441 378.418 242.586 377.764 243.664C376.681 245.428 375.426 247.081 374.016 248.597C371.514 251.257 368.797 253.704 365.892 255.915C360.369 260.132 354.487 263.859 348.315 267.052L344.473 261.193C349.442 256.959 354.411 252.499 358.906 247.981C361.091 245.818 363.12 243.503 364.979 241.055C365.768 240.031 366.452 238.931 367.019 237.769C367.194 237.389 367.329 236.992 367.422 236.583C367.422 236.322 367.422 236.275 367.422 236.583C367.404 236.669 367.404 236.758 367.422 236.844C367.419 236.88 367.419 236.915 367.422 236.951L367.315 236.69L366.9 235.646C366.615 234.935 366.366 234.235 366.034 233.535L365.085 231.436L364.077 229.337C362.666 226.55 361.16 223.774 359.523 221.035C357.886 218.295 356.19 215.567 354.423 212.887C353.557 211.535 352.656 210.195 351.755 208.878L349.051 205.024L360.294 196.402Z" fill="#E3A392"/>
<path d="M359.097 191.302C367.838 193.069 375.511 214.441 375.511 214.441L357.27 229.301C357.27 229.301 351.34 218.437 346.501 207.953C341.295 196.532 348.506 189.167 359.097 191.302Z" fill="#407BFF"/>
<g opacity="0.3">
<path opacity="0.3" d="M359.097 191.302C367.838 193.069 375.511 214.441 375.511 214.441L357.27 229.301C357.27 229.301 351.34 218.437 346.501 207.953C341.295 196.532 348.506 189.167 359.097 191.302Z" fill="white"/>
</g>
<path d="M346.632 260.374L337.215 261.406L343.323 271.629C343.323 271.629 351.15 268.973 350.202 264.679L346.632 260.374Z" fill="#E3A392"/>
<path d="M331.605 266.803L337.049 275.022L343.323 271.63L337.215 261.406L331.605 266.803Z" fill="#E3A392"/>
</svg>
