<svg width="149" height="148" viewBox="0 0 149 148" fill="none" xmlns="http://www.w3.org/2000/svg">
<path d="M149 113.191H0V113.264H149V113.191Z" fill="#EBEBEB"/>
<path d="M134.07 117.954H124.2V118.027H134.07V117.954Z" fill="#EBEBEB"/>
<path d="M98.7036 118.758H96.114V118.832H98.7036V118.758Z" fill="#EBEBEB"/>
<path d="M123.902 115.207H118.184V115.28H123.902V115.207Z" fill="#EBEBEB"/>
<path d="M28.5037 115.704H15.6331V115.777H28.5037V115.704Z" fill="#EBEBEB"/>
<path d="M33.0453 115.704H31.1589V115.777H33.0453V115.704Z" fill="#EBEBEB"/>
<path d="M67.0946 116.953H39.178V117.026H67.0946V116.953Z" fill="#EBEBEB"/>
<path d="M70.6259 99.9891H13.0851C12.6343 99.9883 12.2023 99.8099 11.8838 99.493C11.5653 99.1761 11.3865 98.7467 11.3865 98.2989V17.9556C11.3904 17.5105 11.571 17.0848 11.889 16.7711C12.2071 16.4574 12.6369 16.281 13.0851 16.2803H70.6259C71.0772 16.2803 71.51 16.4583 71.8291 16.7753C72.1482 17.0923 72.3275 17.5222 72.3275 17.9704V98.2989C72.3275 98.7472 72.1482 99.1771 71.8291 99.4941C71.51 99.811 71.0772 99.9891 70.6259 99.9891ZM13.0851 16.3395C12.6541 16.3403 12.241 16.5109 11.9365 16.8139C11.632 17.1169 11.461 17.5275 11.461 17.9556V98.2989C11.461 98.7271 11.632 99.1377 11.9365 99.4407C12.241 99.7437 12.6541 99.9143 13.0851 99.9151H70.6259C71.0572 99.9143 71.4706 99.7438 71.7755 99.4409C72.0805 99.1379 72.2522 98.7273 72.253 98.2989V17.9556C72.2522 17.5272 72.0805 17.1166 71.7755 16.8137C71.4706 16.5108 71.0572 16.3403 70.6259 16.3395H13.0851Z" fill="#EBEBEB"/>
<path d="M135.086 99.9891H77.5426C77.0916 99.9883 76.6593 99.81 76.3403 99.4932C76.0214 99.1764 75.8419 98.7469 75.8411 98.2989V17.9556C75.8458 17.5102 76.027 17.0845 76.3455 16.7709C76.6641 16.4573 77.0942 16.281 77.5426 16.2803H135.086C135.534 16.2818 135.963 16.4585 136.281 16.7721C136.598 17.0858 136.778 17.511 136.782 17.9556V98.2989C136.782 98.7462 136.604 99.1752 136.286 99.492C135.968 99.8088 135.537 99.9875 135.086 99.9891ZM77.5426 16.3395C77.1114 16.3403 76.698 16.5108 76.393 16.8137C76.088 17.1166 75.9164 17.5272 75.9156 17.9556V98.2989C75.9164 98.7273 76.088 99.1379 76.393 99.4409C76.698 99.7438 77.1114 99.9143 77.5426 99.9151H135.086C135.518 99.9143 135.931 99.7438 136.236 99.4409C136.541 99.1379 136.713 98.7273 136.714 98.2989V17.9556C136.713 17.5272 136.541 17.1166 136.236 16.8137C135.931 16.5108 135.518 16.3403 135.086 16.3395H77.5426Z" fill="#EBEBEB"/>
<path d="M115.068 81.2804C119.48 76.8982 119.48 69.7932 115.068 65.411C110.656 61.0288 103.503 61.0288 99.0916 65.411C94.6798 69.7932 94.6798 76.8982 99.0916 81.2804C103.503 85.6626 110.656 85.6626 115.068 81.2804Z" fill="#F0F0F0"/>
<path d="M21.0686 53.5761H52.004C52.004 53.5761 51.557 51.1429 45.8324 51.2821C46.9678 47.7301 43.7643 43.8525 36.5378 43.7045C29.3113 43.5565 31.8503 49.3285 31.8503 49.3285C31.8503 49.3285 19.7038 47.2565 23.3781 51.5544C17.3585 51.7823 16.1695 52.546 21.0686 53.5761Z" fill="#F0F0F0"/>
<path d="M101.371 68.7937C102.074 65.298 96.0604 61.4677 84.9808 61.3197C73.9012 61.1717 79.4589 66.8756 79.4589 66.8756C79.4589 66.8756 60.3243 64.8036 67.1813 69.069C58.0565 69.2733 56.4533 70.0281 64.24 71.0581H111.452C111.452 71.0581 110.063 68.6724 101.371 68.7937Z" fill="#FAFAFA"/>
<path d="M95.2318 42.6035H127.285C127.285 42.6035 134.437 38.5247 125.959 37.9978C127.416 34.5109 123.837 28.5968 111.324 28.4607C98.8108 28.3245 105.298 36.4852 105.298 36.4852C105.298 36.4852 86.2262 31.024 92.9163 39.7087C89.9959 39.7087 79.6047 42.6035 95.2318 42.6035Z" fill="#F5F5F5"/>
<path d="M28.1044 84.8428H42.5068C42.5068 84.8428 45.7222 83.0105 41.9108 82.7708C42.5664 81.2049 40.9572 78.5468 35.3339 78.4847C29.7106 78.4225 32.6281 82.0899 32.6281 82.0899C32.6281 82.0899 24.0576 79.6391 27.0614 83.5404C25.7532 83.5433 21.0806 84.8428 28.1044 84.8428Z" fill="#F5F5F5"/>
<path d="M27.4547 28.9847C27.4547 28.9847 23.39 26.3976 20.562 30.0769C22.8834 27.7918 27.2968 30.0947 27.2968 30.0947C27.2968 30.0947 32.3628 27.8155 34.0316 30.0947C32.2347 26.4213 27.4547 28.9847 27.4547 28.9847Z" fill="#F0F0F0"/>
<path d="M49.2446 63.0484C49.2446 63.0484 46.801 61.4915 45.0964 63.7055C46.497 62.3291 49.1522 63.7055 49.1522 63.7055C49.1522 63.7055 52.1918 62.3321 53.208 63.7055C52.1233 61.5151 49.2446 63.0484 49.2446 63.0484Z" fill="#F0F0F0"/>
<path d="M93.8013 26.9778C93.8013 26.9778 92.5795 26.1993 91.7153 27.3064C92.4156 26.6167 93.7447 27.3064 93.7447 27.3064C93.7447 27.3064 95.2645 26.6226 95.7711 27.3064C95.2407 26.2053 93.8013 26.9778 93.8013 26.9778Z" fill="#F5F5F5"/>
<path d="M123.691 53.5525C123.691 53.5525 122.466 52.774 121.605 53.8811C122.302 53.1944 123.631 53.8811 123.631 53.8811C123.631 53.8811 125.151 53.1944 125.658 53.8811C125.127 52.78 123.691 53.5525 123.691 53.5525Z" fill="#F5F5F5"/>
<path d="M74.4999 126.558C106.411 126.558 132.279 125.058 132.279 123.207C132.279 121.357 106.411 119.856 74.4999 119.856C42.5893 119.856 16.7207 121.357 16.7207 123.207C16.7207 125.058 42.5893 126.558 74.4999 126.558Z" fill="#F5F5F5"/>
<path d="M54.9393 105.604C55.9555 111.447 51.2113 114.324 46.5953 112.874C43.4514 111.882 40.3373 112.643 38.2274 113.643C38.1442 113.68 38.0509 113.688 37.9625 113.666C37.8741 113.644 37.7958 113.593 37.7404 113.521C37.6849 113.449 37.6554 113.36 37.6568 113.27C37.6581 113.179 37.6901 113.092 37.7477 113.022C38.1027 112.599 38.4818 112.197 38.883 111.817C38.9489 111.755 38.9916 111.673 39.0043 111.584C39.0169 111.495 38.9987 111.404 38.9526 111.327C38.9065 111.249 38.8353 111.19 38.7507 111.158C38.666 111.126 38.5729 111.123 38.4867 111.151C36.651 111.707 33.9452 112.228 31.3347 111.619C31.2562 111.601 31.185 111.56 31.1302 111.501C31.0754 111.442 31.0395 111.369 31.0273 111.29C31.0151 111.211 31.0271 111.13 31.0617 111.057C31.0963 110.985 31.152 110.925 31.2215 110.884C33.829 109.351 37.8073 105.323 41.5352 104.014C41.6265 103.982 41.7031 103.918 41.7508 103.835C41.7985 103.751 41.8142 103.653 41.795 103.559C41.7758 103.464 41.723 103.38 41.6463 103.321C41.5695 103.262 41.474 103.233 41.3773 103.239C40.7892 103.272 40.2039 103.343 39.6251 103.452C39.5309 103.475 39.4314 103.464 39.3449 103.42C39.2585 103.376 39.1909 103.303 39.1546 103.214C39.1183 103.124 39.1158 103.025 39.1475 102.934C39.1792 102.843 39.2429 102.766 39.3271 102.718C44.554 99.4944 53.64 98.1417 54.9393 105.604Z" fill="#407BFF"/>
<path opacity="0.7" d="M54.9393 105.604C55.9555 111.447 51.2113 114.324 46.5953 112.874C43.4514 111.882 40.3373 112.643 38.2274 113.643C38.1442 113.68 38.0509 113.688 37.9625 113.666C37.8741 113.644 37.7958 113.593 37.7404 113.521C37.6849 113.449 37.6554 113.36 37.6568 113.27C37.6581 113.179 37.6901 113.092 37.7477 113.022C38.1027 112.599 38.4818 112.197 38.883 111.817C38.9489 111.755 38.9916 111.673 39.0043 111.584C39.0169 111.495 38.9987 111.404 38.9526 111.327C38.9065 111.249 38.8353 111.19 38.7507 111.158C38.666 111.126 38.5729 111.123 38.4867 111.151C36.651 111.707 33.9452 112.228 31.3347 111.619C31.2562 111.601 31.185 111.56 31.1302 111.501C31.0754 111.442 31.0395 111.369 31.0273 111.29C31.0151 111.211 31.0271 111.13 31.0617 111.057C31.0963 110.985 31.152 110.925 31.2215 110.884C33.829 109.351 37.8073 105.323 41.5352 104.014C41.6265 103.982 41.7031 103.918 41.7508 103.835C41.7985 103.751 41.8142 103.653 41.795 103.559C41.7758 103.464 41.723 103.38 41.6463 103.321C41.5695 103.262 41.474 103.233 41.3773 103.239C40.7892 103.272 40.2039 103.343 39.6251 103.452C39.5309 103.475 39.4314 103.464 39.3449 103.42C39.2585 103.376 39.1909 103.303 39.1546 103.214C39.1183 103.124 39.1158 103.025 39.1475 102.934C39.1792 102.843 39.2429 102.766 39.3271 102.718C44.554 99.4944 53.64 98.1417 54.9393 105.604Z" fill="white"/>
<path d="M48.5262 114.131L46.5296 98.8638C46.5195 98.7817 46.5276 98.6985 46.5533 98.6199C46.5791 98.5413 46.6219 98.4692 46.6787 98.4088C46.7356 98.3484 46.805 98.3011 46.8822 98.2703C46.9595 98.2395 47.0425 98.2258 47.1256 98.2303L56.8106 98.9171C56.9409 98.9262 57.064 98.9798 57.1591 99.0689C57.2541 99.1579 57.3153 99.2768 57.3321 99.4055L58.8221 110.887C58.8357 111.014 58.8053 111.142 58.736 111.25C58.6667 111.357 58.5625 111.438 58.4407 111.479L49.2534 114.596C49.1747 114.62 49.0916 114.627 49.0101 114.616C48.9286 114.604 48.8505 114.576 48.7813 114.531C48.712 114.487 48.6534 114.428 48.6093 114.359C48.5653 114.29 48.5369 114.213 48.5262 114.131Z" fill="black"/>
<path d="M46.5982 111.266L45.4062 102.108C45.3961 102.029 45.4028 101.95 45.4257 101.874C45.4487 101.799 45.4875 101.729 45.5395 101.669C45.5915 101.609 45.6556 101.561 45.7276 101.527C45.7996 101.494 45.8779 101.476 45.9575 101.474L57.0788 101.267C57.2184 101.265 57.354 101.313 57.4596 101.404C57.5652 101.495 57.6334 101.621 57.651 101.759L58.545 108.504C58.5622 108.642 58.5279 108.781 58.4488 108.895C58.3697 109.009 58.2513 109.09 58.1159 109.123L47.3104 111.74C47.232 111.761 47.15 111.765 47.0699 111.751C46.9898 111.738 46.9135 111.708 46.846 111.663C46.7786 111.619 46.7215 111.56 46.6788 111.491C46.636 111.423 46.6086 111.346 46.5982 111.266Z" fill="#263238"/>
<path d="M95.0874 109.626L89.2771 110.577L89.3265 110.875L95.1367 109.924L95.0874 109.626Z" fill="#407BFF"/>
<path d="M87.766 110.825L86.0576 111.104L86.107 111.402L87.8154 111.123L87.766 110.825Z" fill="#407BFF"/>
<path d="M112.295 98.1504C112.295 98.1504 104.282 90.6942 92.8031 92.1712L56.6468 95.5663C55.9838 95.6284 55.3402 95.8224 54.7544 96.1369C54.1686 96.4514 53.6526 96.8798 53.2371 97.3966C52.8216 97.9135 52.5152 98.5082 52.3361 99.1452C52.157 99.7822 52.1089 100.449 52.1946 101.104L53.4224 110.517C53.5079 111.173 53.7255 111.805 54.0624 112.376C54.3992 112.947 54.8482 113.444 55.3828 113.838C55.9173 114.233 56.5263 114.516 57.1736 114.672C57.8208 114.828 58.493 114.852 59.15 114.744L94.9844 108.869C106.46 107.392 112.295 98.1504 112.295 98.1504Z" fill="#407BFF"/>
<path d="M93.1354 101.687C93.2873 98.3125 90.6567 95.455 87.2599 95.3042C83.863 95.1533 80.9862 97.7662 80.8343 101.14C80.6824 104.514 83.313 107.372 86.7099 107.523C90.1067 107.674 92.9835 105.061 93.1354 101.687Z" fill="white"/>
<path opacity="0.3" d="M91.1283 101.741C91.05 102.684 90.649 103.573 89.9919 104.258C89.3348 104.944 88.4613 105.385 87.5165 105.509C87.4569 105.509 87.3943 105.524 87.3318 105.527C87.0681 105.552 86.8027 105.552 86.5391 105.527C86.4467 105.527 86.3513 105.506 86.2619 105.491L86.0623 105.453C85.2324 105.264 84.4806 104.827 83.9079 104.201C83.3353 103.575 82.9692 102.79 82.8588 101.951C82.8346 101.755 82.8236 101.557 82.826 101.359C82.8787 100.339 83.3089 99.3744 84.0339 98.65C84.7588 97.9257 85.7276 97.4928 86.7542 97.4345C87.7808 97.3762 88.7929 97.6965 89.5964 98.3339C90.3998 98.9714 90.9379 99.8811 91.1074 100.889C91.1449 101.171 91.1519 101.457 91.1283 101.741Z" fill="#407BFF"/>
<path opacity="0.3" d="M91.1283 101.741C91.05 102.684 90.649 103.572 89.9919 104.258C89.3348 104.943 88.4613 105.385 87.5165 105.509C87.4569 105.509 87.3943 105.524 87.3318 105.527C87.0681 105.55 86.8028 105.55 86.5391 105.527C86.4467 105.527 86.3513 105.506 86.2619 105.491L86.0623 105.453C85.2324 105.263 84.4806 104.826 83.9079 104.2C83.3353 103.575 82.9692 102.79 82.8588 101.951C82.8346 101.754 82.8236 101.557 82.826 101.359C82.9215 100.449 83.332 99.5999 83.9874 98.957C84.6428 98.3141 85.5026 97.917 86.4199 97.8335C88.6996 97.5642 90.7886 99.0649 91.0925 101.184C91.1176 101.369 91.1296 101.555 91.1283 101.741Z" fill="#407BFF"/>
<path d="M78.3352 92.1687L80.1977 91.9852L80.46 87.7583L78.5974 87.9418L78.3352 92.1687Z" fill="#FFC3BD"/>
<path d="M67.6431 93.2666L69.4758 93.086L69.8662 88.7852L68.0334 88.9657L67.6431 93.2666Z" fill="#FFC3BD"/>
<path d="M69.58 92.6776L67.5178 92.8819C67.482 92.8857 67.4486 92.9016 67.4231 92.9269C67.3977 92.9522 67.3817 92.9854 67.3778 93.021L67.2198 94.6727C67.2167 94.7123 67.2223 94.7522 67.2361 94.7895C67.25 94.8269 67.2718 94.8608 67.3002 94.8889C67.3285 94.917 67.3626 94.9387 67.4002 94.9525C67.4378 94.9663 67.4779 94.9718 67.5178 94.9687C68.236 94.8858 68.5787 94.8088 69.4846 94.72C70.0419 94.6638 70.7899 94.6135 71.5706 94.5365C72.3514 94.4596 72.3484 93.6959 72.0236 93.6485C70.5723 93.4828 70.3935 93.1039 69.8899 92.7457C69.7982 92.6869 69.6882 92.6627 69.58 92.6776Z" fill="#263238"/>
<path d="M80.2514 91.6031L78.2488 91.8044C78.2126 91.8071 78.1786 91.8226 78.1529 91.8482C78.1272 91.8737 78.1115 91.9075 78.1088 91.9435L77.9508 93.5952C77.9472 93.6349 77.9524 93.675 77.9661 93.7126C77.9797 93.7502 78.0016 93.7843 78.03 93.8125C78.0585 93.8408 78.0928 93.8625 78.1306 93.876C78.1684 93.8896 78.2088 93.8948 78.2488 93.8912C78.97 93.8083 80.0071 93.6603 80.916 93.5715C81.9798 93.4649 81.9858 93.5212 83.2314 93.3968C83.9824 93.3199 84.0956 92.5444 83.7738 92.5088C82.2987 92.3401 82.0424 92.3342 80.7044 91.7008C80.5647 91.6292 80.4084 91.5955 80.2514 91.6031Z" fill="#263238"/>
<path d="M73.1084 32.8382C73.5733 32.8796 74.0978 32.9299 74.5984 32.9536C75.0991 32.9773 75.5997 32.9951 76.0884 32.9951C76.5595 32.9939 77.0301 32.9663 77.498 32.9122C77.8693 32.8739 78.2328 32.7811 78.5767 32.6369L78.0284 33.4716C78.0284 33.5693 78.0493 33.5693 78.0284 33.5101C78.0032 33.4193 77.9672 33.3319 77.9211 33.2496C77.7815 32.9971 77.6168 32.7591 77.4294 32.5392C77.0004 32.0286 76.5396 31.5452 76.0497 31.0918C75.5491 30.6152 75.0216 30.1535 74.4882 29.6947C73.9548 29.2359 73.4005 28.78 72.8641 28.339L73.5793 27.2319C74.2438 27.5694 74.8696 27.9364 75.5014 28.3183C76.1331 28.7001 76.7411 29.1145 77.343 29.5585C77.9646 30.0075 78.5513 30.5022 79.0982 31.0385C79.4018 31.3431 79.6761 31.675 79.9177 32.0301C80.0662 32.249 80.1882 32.4844 80.2813 32.7316C80.4161 33.0781 80.4632 33.4521 80.4184 33.8209L80.3528 34.3419L79.8641 34.6645C79.2756 35.0365 78.6196 35.2908 77.933 35.4134C77.3438 35.5334 76.746 35.6066 76.1451 35.6324C75.5669 35.665 74.9978 35.6591 74.4345 35.6324C73.8713 35.6058 73.326 35.5643 72.73 35.4755L73.1084 32.8382Z" fill="#FFC3BD"/>
<path d="M74.2021 27.824L73.1054 26.4595L72.283 28.416C72.283 28.416 73.2783 29.5793 74.3332 29.008L74.2021 27.824Z" fill="#FFC3BD"/>
<path d="M71.6513 25.7432L71.4666 27.9632L72.2831 28.4012L73.1026 26.4536L71.6513 25.7432Z" fill="#FFC3BD"/>
<path d="M70.3072 26.0269L71.976 25.3402C72.0031 25.3262 72.0328 25.3182 72.0633 25.3167C72.0937 25.3152 72.1241 25.3202 72.1524 25.3314C72.1807 25.3427 72.2062 25.3599 72.2272 25.3818C72.2482 25.4038 72.2642 25.43 72.274 25.4586L73.3498 28.8656C73.3627 28.9255 73.354 28.988 73.3251 29.0421C73.2962 29.0963 73.2491 29.1386 73.1919 29.1616L71.5231 29.8483C71.4961 29.8623 71.4663 29.8703 71.4359 29.8718C71.4054 29.8733 71.375 29.8683 71.3467 29.857C71.3184 29.8458 71.2929 29.8286 71.2719 29.8067C71.2509 29.7847 71.2349 29.7585 71.2251 29.7299L70.1493 26.3436C70.1307 26.2808 70.1366 26.2133 70.1659 26.1546C70.1952 26.0959 70.2456 26.0503 70.3072 26.0269Z" fill="#263238"/>
<path d="M71.2906 36.0884C72.5035 37.5447 77.4741 36.1801 77.4741 36.1801L77.0539 32.856C77.0539 32.856 75.7994 32.4831 73.3111 32.4061C70.7602 32.3144 69.9615 34.4929 71.2906 36.0884Z" fill="#407BFF"/>
<path opacity="0.2" d="M80.46 87.7607L80.3229 89.9393L78.4634 90.1228L78.5975 87.9443L80.46 87.7607Z" fill="black"/>
<path opacity="0.2" d="M68.0305 88.9687L69.8662 88.7852L69.6635 91.0022L67.8308 91.1857L68.0305 88.9687Z" fill="black"/>
<path d="M75.111 33.3204C75.8322 35.1793 77.6023 40.7204 76.9855 49.0854L67.1753 50.0651C66.919 48.5851 66.8773 40.4481 64.5291 33.5602C65.5898 33.2459 66.6698 32.9997 67.7624 32.8231C69.1437 32.6041 70.5367 32.4648 71.9344 32.4058C72.6484 32.4048 73.3618 32.4453 74.071 32.5271C74.3009 32.5522 74.5194 32.6394 74.7027 32.7793C74.8861 32.9192 75.0274 33.1063 75.111 33.3204Z" fill="#407BFF"/>
<path opacity="0.2" d="M71.3412 34.8391L70.9567 34.8894C70.9955 38.1454 71.0432 39.0334 68.084 42.0763C67.5497 42.6164 67.065 43.2029 66.6357 43.8287C66.6745 44.2135 66.7132 44.5864 66.749 44.9475C67.5148 44.2519 68.537 43.3402 69.2999 42.7068C72.7418 39.8534 71.4395 34.7977 71.3412 34.8391Z" fill="black"/>
<path opacity="0.2" d="M66.8801 35.085C67.1781 36.2246 67.1781 39.0307 66.4629 42.34C66.1329 39.598 65.5615 36.8901 64.7554 34.2473C65.3901 34.1023 66.5881 34.0164 66.8801 35.085Z" fill="black"/>
<path d="M67.8188 28.9043C68.2509 30.2067 68.5906 31.8406 67.7622 32.8233C67.7622 32.8233 68.4714 34.1168 70.9657 33.8682C73.2424 33.6403 71.9342 32.406 71.9342 32.406C70.3906 32.2017 70.2386 30.3606 70.3697 29.3009L67.8188 28.9043Z" fill="#FFC3BD"/>
<path d="M71.073 33.7442L71.6691 34.283C71.6898 34.3017 71.7053 34.3254 71.7142 34.3519C71.7231 34.3783 71.725 34.4065 71.7197 34.4339L71.5975 34.9756C71.5915 35.0055 71.5762 35.0327 71.5537 35.0534C71.5313 35.0741 71.5028 35.0873 71.4724 35.091L70.8913 35.1769C70.8644 35.181 70.8369 35.1782 70.8113 35.1689C70.7858 35.1596 70.7631 35.144 70.7452 35.1236L70.3459 34.65C70.3244 34.6225 70.3127 34.5886 70.3127 34.5538C70.3127 34.519 70.3244 34.4851 70.3459 34.4576L70.8436 33.765C70.8569 33.748 70.8735 33.734 70.8925 33.7238C70.9114 33.7135 70.9323 33.7072 70.9538 33.7052C70.9753 33.7033 70.997 33.7058 71.0175 33.7125C71.038 33.7192 71.0569 33.73 71.073 33.7442Z" fill="#263238"/>
<path d="M70.8883 33.7262C70.6382 34.3726 70.3089 34.986 69.9079 35.5525C69.9079 35.5525 67.4851 34.4573 67.3391 32.8885C67.3365 32.8599 67.3411 32.8311 67.3525 32.8047C67.364 32.7784 67.3819 32.7553 67.4047 32.7376C67.4971 32.6665 67.6639 32.5363 67.8219 32.4061C67.8402 32.3894 67.8621 32.3771 67.8858 32.3699C67.9096 32.3628 67.9347 32.361 67.9592 32.3647C67.9838 32.3683 68.0072 32.3774 68.0278 32.3912C68.0484 32.4051 68.0656 32.4233 68.0781 32.4445C68.2718 32.7849 68.8977 33.448 70.8883 33.7262Z" fill="white"/>
<path d="M70.9749 33.7083C71.4812 34.088 71.9041 34.5664 72.2175 35.1143C72.4489 34.7135 72.5881 34.2668 72.6252 33.8062C72.6623 33.3456 72.5964 32.8826 72.4321 32.4503C72.4215 32.4248 72.4053 32.402 72.3847 32.3835C72.3641 32.3651 72.3395 32.3515 72.3129 32.3438C72.2086 32.3171 72.0149 32.2698 71.8152 32.2313C71.7888 32.227 71.7617 32.2288 71.7362 32.2367C71.7106 32.2445 71.6872 32.2582 71.6678 32.2765C71.6485 32.2949 71.6337 32.3175 71.6246 32.3425C71.6155 32.3675 71.6124 32.3943 71.6156 32.4207C71.6656 32.6754 71.63 32.9394 71.5142 33.172C71.3984 33.4047 71.2089 33.5931 70.9749 33.7083Z" fill="white"/>
<path d="M71.3235 34.8182C71.4188 34.7767 72.3843 39.3055 69.0527 42.0554C67.6938 43.1772 65.5095 45.1811 65.5125 45.1782C65.7151 44.3819 66.3528 43.1535 67.9531 41.5433C70.8467 38.6336 70.8437 37.8433 70.9629 34.8833L71.3235 34.8182Z" fill="#263238"/>
<path opacity="0.2" d="M70.3697 29.304C70.2632 30.0445 70.3664 30.7999 70.6677 31.4855C70.4307 31.4747 70.1967 31.4288 69.9734 31.3493C69.0794 31.0533 68.5877 30.4613 68.0364 29.5733C67.9738 29.3395 67.9053 29.1145 67.8337 28.8955L70.3697 29.304Z" fill="black"/>
<path d="M69.3655 24.8638C69.7201 22.0784 71.7822 25.0266 71.2101 26.4119C70.8585 27.2584 69.2791 25.5357 69.3655 24.8638Z" fill="#263238"/>
<path d="M66.5285 27.3918C67.2347 29.0849 67.5625 30.112 68.7426 30.7159C70.5157 31.6305 72.3663 30.1505 72.1756 28.2916C72.0057 26.6192 70.8793 24.1299 68.9542 23.9878C68.5317 23.953 68.1074 24.0282 67.7231 24.206C67.3388 24.3839 67.0079 24.6582 66.7629 25.0019C66.518 25.3456 66.3676 25.7468 66.3264 26.1659C66.2853 26.5851 66.355 27.0076 66.5285 27.3918Z" fill="#FFC3BD"/>
<path d="M67.3242 29.0287C67.5492 28.9895 67.7581 28.8869 67.9261 28.7332C68.0941 28.5794 68.2141 28.3809 68.2718 28.1614C67.7634 27.9586 67.3225 27.6181 66.9993 27.1787C66.9993 27.1787 67.7563 26.0983 67.6758 25.4737C68.6473 25.4737 70.924 24.5413 70.4085 23.5112C69.8929 22.4811 67.8486 21.9691 66.6566 22.6972C65.9053 23.2058 65.015 23.4734 64.1058 23.4639C64.3767 23.6234 64.6714 23.7393 64.9789 23.8072C64.6432 24.1332 64.3803 24.5256 64.2073 24.9591C64.0343 25.3926 63.955 25.8573 63.9746 26.3232C64.0313 27.6463 63.3071 28.1791 63.3071 28.1791C63.3071 28.1791 64.2011 28.3123 64.4753 27.9216C64.3531 28.3538 65.0892 29.8693 66.7073 30.0795C68.5191 30.3133 67.3242 29.0287 67.3242 29.0287Z" fill="#263238"/>
<path d="M66.5823 29.8399C67.2528 30.1359 67.7743 30.2366 68.12 30.0353C68.4657 29.834 68.3673 29.1473 67.9263 28.7536C67.53 28.4073 66.7492 28.0787 66.2962 28.4576C65.8433 28.8365 65.891 29.5261 66.5823 29.8399Z" fill="#FFC3BD"/>
<path d="M76.9854 49.0854C76.9854 49.0854 81.2051 62.8672 81.5031 68.0798C81.8309 73.7837 81.0025 88.9419 81.0025 88.9419L77.6857 89.2763C77.6857 89.2763 77.0659 74.8434 76.2255 69.2608C75.3137 63.2017 70.7334 49.7248 70.7334 49.7248L76.9854 49.0854Z" fill="#263238"/>
<path opacity="0.2" d="M74.0799 55.5825L73.5583 58.6076C74.2885 61.0556 75.0186 63.6633 75.552 65.9277C75.7114 62.4185 75.2122 58.9104 74.0799 55.5825Z" fill="black"/>
<path d="M77.4116 88.4537L77.5189 89.6702L81.229 89.3002L81.3363 87.9238L77.4116 88.4537Z" fill="#407BFF"/>
<path d="M73.5046 49.4321C73.5046 49.4321 74.8784 61.7546 74.3986 67.0737C73.8652 72.896 70.471 90.3127 70.471 90.3127L67.1125 90.6472C67.1125 90.6472 68.9601 73.8521 68.9601 68.1512C68.9601 61.95 67.1721 50.0774 67.1721 50.0774L73.5046 49.4321Z" fill="#263238"/>
<path d="M66.9964 89.5815L66.9487 90.727L70.6409 90.357L71.0164 89.0605L66.9964 89.5815Z" fill="#407BFF"/>
<path d="M69.309 27.0306C69.3567 27.1727 69.4729 27.2615 69.5623 27.2319C69.6517 27.2023 69.6904 27.0631 69.6398 26.9359C69.5891 26.8086 69.4788 26.705 69.3865 26.7346C69.2941 26.7642 69.2583 26.8885 69.309 27.0306Z" fill="#263238"/>
<path d="M70.8943 26.5184C70.942 26.6605 71.0582 26.7493 71.1476 26.7197C71.237 26.6901 71.2758 26.5509 71.2251 26.4237C71.1745 26.2964 71.0642 26.1928 70.9718 26.2224C70.8794 26.252 70.8466 26.3793 70.8943 26.5184Z" fill="#263238"/>
<path d="M70.4146 26.7524C70.7315 27.1275 71.0973 27.4589 71.5023 27.7381C71.4304 27.8381 71.3369 27.9209 71.2286 27.9803C71.1203 28.0397 71 28.0743 70.8765 28.0815L70.4146 26.7524Z" fill="#FFC3BD"/>
<path d="M70.5246 28.6587C70.5351 28.6541 70.5434 28.6458 70.5478 28.6353C70.5522 28.6248 70.5525 28.6131 70.5485 28.6025C70.5439 28.592 70.5356 28.5835 70.5252 28.5786C70.5148 28.5737 70.5029 28.5727 70.4918 28.5758C70.3186 28.6407 70.1325 28.6645 69.9484 28.6455C69.7642 28.6265 69.5871 28.5651 69.431 28.4663C69.4226 28.4582 69.4114 28.4536 69.3997 28.4536C69.388 28.4536 69.3767 28.4582 69.3684 28.4663C69.3608 28.4749 69.3567 28.486 69.3567 28.4974C69.3567 28.5088 69.3608 28.5198 69.3684 28.5285C69.5361 28.6415 69.7289 28.7125 69.9303 28.7352C70.1317 28.7579 70.3357 28.7316 70.5246 28.6587Z" fill="#263238"/>
<path d="M68.6533 26.6725C68.6657 26.6682 68.677 26.6612 68.6863 26.652C68.6956 26.6428 68.7027 26.6315 68.7069 26.6192C68.7366 26.5157 68.7911 26.4209 68.8659 26.3431C68.9407 26.2652 69.0334 26.2066 69.1361 26.1722C69.1473 26.1695 69.1578 26.1646 69.167 26.1576C69.1761 26.1507 69.1838 26.1419 69.1894 26.1319C69.195 26.1219 69.1984 26.1109 69.1995 26.0995C69.2006 26.0881 69.1993 26.0766 69.1957 26.0657C69.1894 26.0435 69.1747 26.0247 69.1547 26.0131C69.1347 26.0015 69.1109 25.9981 69.0884 26.0035C68.9582 26.0448 68.8402 26.1171 68.7446 26.2141C68.649 26.3111 68.5788 26.4298 68.5401 26.56C68.5348 26.5757 68.534 26.5925 68.5378 26.6086C68.5416 26.6247 68.5498 26.6394 68.5616 26.6511C68.5734 26.6628 68.5882 26.671 68.6044 26.6748C68.6206 26.6785 68.6375 26.6777 68.6533 26.6725Z" fill="#263238"/>
<path d="M71.4099 25.7254C71.4226 25.7203 71.4339 25.7122 71.4427 25.7018C71.4582 25.6853 71.4668 25.6636 71.4668 25.6411C71.4668 25.6185 71.4582 25.5969 71.4427 25.5804C71.3413 25.4855 71.219 25.4155 71.0855 25.376C70.952 25.3364 70.811 25.3283 70.6739 25.3525C70.6629 25.3555 70.6526 25.3607 70.6437 25.3678C70.6347 25.3748 70.6273 25.3835 70.6217 25.3934C70.6162 25.4033 70.6127 25.4142 70.6114 25.4255C70.6101 25.4368 70.6111 25.4482 70.6143 25.459C70.617 25.4702 70.622 25.4807 70.629 25.4899C70.6359 25.4992 70.6446 25.5069 70.6546 25.5127C70.6647 25.5185 70.6757 25.5222 70.6872 25.5237C70.6987 25.5252 70.7104 25.5243 70.7215 25.5212C70.8286 25.5048 70.9381 25.5131 71.0414 25.5454C71.1448 25.5777 71.2393 25.6333 71.3175 25.7077C71.3298 25.7189 71.3449 25.7265 71.3612 25.7296C71.3775 25.7327 71.3944 25.7313 71.4099 25.7254Z" fill="#263238"/>
<path d="M63.3608 36.5649L65.8581 37.5684C65.8581 37.5684 63.8019 43.6423 64.2459 44.4652C64.8419 45.5841 66.4541 47.3689 67.4107 48.5559C67.323 49.0028 67.1173 49.4186 66.8147 49.7606C64.8061 48.8134 61.6414 45.8386 61.4775 44.699C61.1169 42.1001 63.3608 36.5649 63.3608 36.5649Z" fill="#FFC3BD"/>
<path d="M64.529 33.5603C62.4877 34.2174 62.2017 38.7255 62.2017 38.7255L65.3605 40.3357C66.2686 39.2619 66.9206 37.9981 67.2677 36.6387C67.819 34.3506 66.323 32.9831 64.529 33.5603Z" fill="#407BFF"/>
<path d="M70.2267 92.9439C70.3515 92.9423 70.4717 92.8972 70.5664 92.8167C70.5961 92.7856 70.6173 92.7476 70.6283 92.7062C70.6392 92.6648 70.6395 92.6214 70.629 92.5799C70.6255 92.5549 70.6154 92.5314 70.5996 92.5116C70.5839 92.4919 70.5632 92.4766 70.5396 92.4674C70.3251 92.3845 69.7767 92.8019 69.7142 92.8492C69.71 92.8564 69.7078 92.8646 69.7078 92.8729C69.7078 92.8812 69.71 92.8894 69.7142 92.8966C69.7161 92.9047 69.7206 92.912 69.7271 92.9173C69.7335 92.9226 69.7415 92.9258 69.7499 92.9262C69.9076 92.9511 70.0676 92.957 70.2267 92.9439ZM70.4502 92.5414C70.4698 92.5367 70.4902 92.5367 70.5098 92.5414C70.5191 92.5456 70.527 92.5523 70.5328 92.5606C70.5385 92.5689 70.5419 92.5787 70.5426 92.5887C70.5501 92.617 70.5505 92.6466 70.5437 92.675C70.537 92.7034 70.5233 92.7297 70.5039 92.7515C70.3085 92.8641 70.0774 92.899 69.8572 92.8492C70.0318 92.7051 70.2334 92.5964 70.4502 92.5296V92.5414Z" fill="#407BFF"/>
<path d="M69.7469 92.9171C69.7469 92.9171 69.7469 92.9171 69.7677 92.9171C69.9465 92.7958 70.2624 92.3606 70.1969 92.1623C70.1863 92.1314 70.1655 92.105 70.1379 92.0872C70.1104 92.0695 70.0776 92.0615 70.0449 92.0646C70.0115 92.0634 69.9782 92.0695 69.9473 92.0822C69.9165 92.095 69.8888 92.1142 69.8661 92.1386C69.6754 92.331 69.6992 92.8609 69.6992 92.8816C69.6986 92.8897 69.7005 92.8978 69.7048 92.9047C69.7091 92.9116 69.7155 92.917 69.723 92.9201L69.7469 92.9171ZM70.024 92.1416H70.0449C70.1015 92.1416 70.1104 92.1682 70.1134 92.1771C70.1522 92.2955 69.9555 92.6211 69.7856 92.7691C69.7717 92.5615 69.8227 92.3548 69.9316 92.1771C69.9589 92.1536 69.9939 92.1409 70.03 92.1416H70.024Z" fill="#407BFF"/>
<path d="M81.056 91.8459C81.2131 91.8454 81.3651 91.7899 81.4851 91.689C81.5124 91.6609 81.5319 91.6262 81.5418 91.5883C81.5518 91.5505 81.5517 91.5108 81.5417 91.4729C81.5372 91.4491 81.527 91.4268 81.5119 91.4077C81.4969 91.3886 81.4775 91.3735 81.4553 91.3634C81.2169 91.2628 80.5255 91.7068 80.448 91.7571C80.4411 91.7627 80.4358 91.7701 80.4327 91.7784C80.4295 91.7867 80.4287 91.7957 80.4302 91.8045C80.4325 91.8132 80.4375 91.8209 80.4444 91.8267C80.4513 91.8326 80.4599 91.8361 80.4689 91.837C80.6639 91.8581 80.8604 91.8611 81.056 91.8459ZM81.3391 91.4345C81.3665 91.4279 81.3951 91.4279 81.4225 91.4345C81.4315 91.4382 81.4393 91.4443 81.4451 91.4521C81.4509 91.46 81.4544 91.4692 81.4553 91.4789C81.4619 91.5036 81.4621 91.5296 81.4559 91.5545C81.4496 91.5794 81.4371 91.6022 81.4195 91.6209C81.3212 91.7334 81.0202 91.7778 80.606 91.7541C80.835 91.6058 81.088 91.4976 81.3539 91.4345H81.3391Z" fill="#407BFF"/>
<path d="M80.4779 91.8371H80.4958C80.7044 91.7187 81.0918 91.2806 81.0352 91.0793C81.0203 91.0319 80.9786 90.9757 80.8564 90.9757C80.8133 90.9745 80.7705 90.9827 80.7309 90.9995C80.6913 91.0164 80.6558 91.0416 80.6269 91.0734C80.4833 91.2883 80.4142 91.544 80.4303 91.8015C80.4303 91.8088 80.4323 91.8158 80.4359 91.8221C80.4396 91.8283 80.4448 91.8335 80.4511 91.8371C80.4553 91.8391 80.4599 91.8402 80.4645 91.8402C80.4692 91.8402 80.4738 91.8391 80.4779 91.8371ZM80.8326 91.0556H80.8594C80.9398 91.0556 80.9488 91.0852 80.9518 91.0941C80.9875 91.2155 80.7283 91.5559 80.5167 91.7127C80.5107 91.5023 80.5712 91.2953 80.6895 91.1207C80.7283 91.0834 80.7788 91.0604 80.8326 91.0556Z" fill="#407BFF"/>
<path d="M66.9608 48.3013L68.716 48.3605L67.6462 50.1779C67.6462 50.1779 66.1115 50.0743 65.9565 48.8844L66.9608 48.3013Z" fill="#FFC3BD"/>
<path d="M69.5383 48.9671L68.4745 50.5655L67.6311 50.1778L68.7158 48.3604L69.5383 48.9671Z" fill="#FFC3BD"/>
</svg>
