<svg width="70" height="40" viewBox="0 0 70 40" fill="none" xmlns="http://www.w3.org/2000/svg">
<g clip-path="url(#clip0)">
<path d="M64.4256 -0.000114141H5.57751C5.363 -0.000114141 5.15107 -0.000114141 4.93713 0.00188586C4.75804 0.00388586 4.58037 0.00969586 4.39957 0.0145859C4.00677 0.0224877 3.61489 0.0815621 3.22734 0.191296C2.84034 0.303418 2.46546 0.514802 2.11538 0.818296C1.76573 1.12436 1.44625 1.52205 1.16852 1.99696C0.889333 2.47052 0.656608 3.0179 0.479296 3.61805C0.301494 4.21699 0.178206 4.85882 0.113689 5.52137C0.048559 6.18307 0.0135119 6.85241 0.00886231 7.52337C0.00343378 7.82997 0.00286051 8.13759 0 8.44423V31.5585C0.00286051 31.869 0.00343378 32.1698 0.00886231 32.4804C0.0135133 33.1513 0.0485604 33.8206 0.113689 34.4823C0.178028 35.1452 0.301323 35.7874 0.479296 36.3866C0.656528 36.9848 0.889285 37.53 1.16852 38.0009C1.4452 38.4779 1.76489 38.8759 2.11538 39.1796C2.46546 39.4839 2.8403 39.6965 3.22734 39.8104C3.61496 39.9192 4.00679 39.9783 4.39957 39.9872C4.58037 39.994 4.75804 39.9979 4.93713 39.9979C5.15106 39.9999 5.36301 39.9999 5.57751 39.9999H64.4256C64.6359 39.9999 64.8495 39.9999 65.0597 39.9979C65.238 39.9979 65.4208 39.994 65.599 39.9872C65.9911 39.9788 66.3822 39.9197 66.769 39.8104C67.1573 39.6957 67.5334 39.4831 67.8852 39.1796C68.2354 38.8757 68.5548 38.4777 68.8312 38.0009C69.1097 37.5281 69.343 36.9833 69.5224 36.3866C69.6991 35.787 69.8212 35.1448 69.8846 34.4823C69.9498 33.8205 69.9861 33.1514 69.9931 32.4804C69.9954 32.1698 69.9954 31.869 69.9954 31.5585C70 31.1952 70 30.8339 70 30.4647V9.53602C70 9.16981 70 8.80653 69.9954 8.44423C69.9954 8.13759 69.9954 7.82997 69.9931 7.52333C69.9861 6.85231 69.9498 6.18312 69.8846 5.52133C69.821 4.85917 69.6989 4.21739 69.5224 3.61801C69.1613 2.41508 68.5888 1.43591 67.8852 0.818206C67.5334 0.515453 67.1572 0.304126 66.769 0.191206C66.3822 0.0809886 65.9911 0.0218936 65.599 0.0144459C65.4208 0.00956586 65.238 0.00370586 65.0597 0.00175586C64.8495 -0.000244141 64.6359 -0.000244141 64.4256 -0.000244141V-0.000114141Z" fill="white"/>
<path d="M4.94101 39.125C4.76279 39.125 4.58886 39.1211 4.41203 39.1143C4.04571 39.1061 3.68025 39.0516 3.31864 38.9512C2.98146 38.8519 2.65482 38.6673 2.34949 38.4033C2.04697 38.1415 1.77105 37.7983 1.53229 37.3867C1.29008 36.98 1.08842 36.5082 0.93532 35.9902C0.78053 35.4688 0.673406 34.9099 0.61768 34.333C0.557501 33.7131 0.524942 33.0863 0.520283 32.458C0.516574 32.2471 0.511719 31.5449 0.511719 31.5449V8.44434C0.511719 8.44434 0.51689 7.75293 0.520312 7.5498C0.524773 6.92248 0.557143 6.29665 0.617142 5.67773C0.672971 5.09925 0.780178 4.53875 0.935051 4.01563C1.08759 3.49794 1.28812 3.02586 1.52888 2.61768C1.76936 2.20562 2.04617 1.8606 2.34921 1.59521C2.65383 1.33209 2.97985 1.14873 3.31635 1.05127C3.67915 0.949836 4.04588 0.894996 4.41347 0.88721L4.9413 0.875H65.0579L65.5921 0.8877C65.9563 0.895099 66.3197 0.94945 66.6792 1.05029C67.0191 1.14898 67.3485 1.33362 67.6566 1.59814C68.2637 2.13299 68.7577 2.97916 69.0693 4.01807C69.2217 4.53758 69.3273 5.09351 69.3824 5.66699C69.4431 6.29099 69.4771 6.92174 69.4841 7.5542C69.4858 7.8374 69.4858 8.1416 69.4858 8.44434C69.4904 8.81934 69.4904 9.17627 69.4904 9.53613V30.4648C69.4904 30.8281 69.4904 31.1826 69.4858 31.54C69.4858 31.8652 69.4857 32.1631 69.4835 32.4697C69.4766 33.0909 69.4432 33.7104 69.3835 34.3232C69.3289 34.9043 69.2224 35.4675 69.0676 35.9932C68.9134 36.5056 68.7129 36.9733 68.4735 37.3789C68.2346 37.7927 67.9581 38.1379 67.6549 38.4014C67.3477 38.6674 67.0187 38.8527 66.6792 38.9512C66.3176 39.0522 65.9521 39.1067 65.5858 39.1143C65.4144 39.1211 65.235 39.125 65.0608 39.125L64.4267 39.127L4.94101 39.125Z" fill="#0057FF"/>
</g>
<path d="M28.7764 26.2197C26.8896 26.2197 25.3984 25.6338 24.3027 24.4619C23.207 23.29 22.6592 21.6904 22.6592 19.6631C22.6592 17.6475 23.207 16.0508 24.3027 14.873C25.4043 13.6895 26.8955 13.0977 28.7764 13.0977C30.6514 13.0977 32.1367 13.6895 33.2324 14.873C34.334 16.0508 34.8848 17.6475 34.8848 19.6631C34.8848 20.7764 34.7119 21.7725 34.3662 22.6514C34.0205 23.5244 33.5195 24.2305 32.8633 24.7695L34.4717 27.1953H31.8965L30.9912 25.8682C30.3232 26.1025 29.585 26.2197 28.7764 26.2197ZM28.7764 24.0225C29.0869 24.0225 29.3887 23.9814 29.6816 23.8994L28.293 21.8252H30.6924L31.2461 22.5811C31.8672 21.8662 32.1777 20.8936 32.1777 19.6631C32.1777 18.333 31.8701 17.2725 31.2549 16.4814C30.6396 15.6846 29.8135 15.2861 28.7764 15.2861C27.7334 15.2861 26.9043 15.6846 26.2891 16.4814C25.6738 17.2725 25.3662 18.333 25.3662 19.6631C25.3662 20.9932 25.6738 22.0537 26.2891 22.8447C26.9043 23.6299 27.7334 24.0225 28.7764 24.0225ZM39.2617 15.3916V19.4346H41.5469C42.2148 19.4346 42.7334 19.2559 43.1025 18.8984C43.4775 18.541 43.665 18.0459 43.665 17.4131C43.665 16.7979 43.4717 16.3086 43.085 15.9453C42.6982 15.5762 42.1768 15.3916 41.5205 15.3916H39.2617ZM39.2617 21.3594V26H36.6074V13.3174H41.8018C43.249 13.3174 44.374 13.6777 45.1768 14.3984C45.9854 15.1133 46.3896 16.1006 46.3896 17.3604C46.3896 18.1865 46.1846 18.9248 45.7744 19.5752C45.3701 20.2197 44.8076 20.6826 44.0869 20.9639L46.7588 26H43.7529L41.3887 21.3594H39.2617Z" fill="white"/>
<defs>
<clipPath id="clip0">
<rect width="70" height="40" fill="white"/>
</clipPath>
</defs>
</svg>
