<svg width="120" height="40" viewBox="0 0 120 40" fill="none" xmlns="http://www.w3.org/2000/svg">
<g clip-path="url(#clip0)">
<path d="M110.444 -0.000114141H9.56145C9.19372 -0.000114141 8.8304 -0.000114141 8.46364 0.00188586C8.15663 0.00388586 7.85207 0.00969586 7.54211 0.0145859C6.86874 0.0224877 6.19695 0.0815621 5.53259 0.191296C4.86915 0.303418 4.2265 0.514802 3.62637 0.818296C3.02697 1.12436 2.47929 1.52205 2.00318 1.99696C1.52457 2.47052 1.12561 3.0179 0.82165 3.61805C0.516847 4.21699 0.305496 4.85882 0.194896 5.52137C0.083244 6.18307 0.0231632 6.85241 0.0151925 7.52337C0.00588648 7.82997 0.00490373 8.13759 0 8.44423V31.5585C0.00490373 31.869 0.00588648 32.1698 0.0151925 32.4804C0.0231657 33.1513 0.0832464 33.8206 0.194896 34.4823C0.30519 35.1452 0.516554 35.7874 0.82165 36.3866C1.12548 36.9848 1.52449 37.53 2.00318 38.0009C2.47748 38.4779 3.02552 38.8759 3.62637 39.1796C4.2265 39.4839 4.86908 39.6965 5.53259 39.8104C6.19707 39.9192 6.86879 39.9783 7.54211 39.9872C7.85207 39.994 8.15663 39.9979 8.46364 39.9979C8.83039 39.9999 9.19374 39.9999 9.56145 39.9999H110.444C110.804 39.9999 111.171 39.9999 111.531 39.9979C111.837 39.9979 112.15 39.994 112.455 39.9872C113.128 39.9788 113.798 39.9197 114.461 39.8104C115.127 39.6957 115.772 39.4831 116.375 39.1796C116.975 38.8757 117.522 38.4777 117.996 38.0009C118.474 37.5281 118.874 36.9833 119.181 36.3866C119.484 35.787 119.693 35.1448 119.802 34.4823C119.914 33.8205 119.976 33.1514 119.988 32.4804C119.992 32.1698 119.992 31.869 119.992 31.5585C120 31.1952 120 30.8339 120 30.4647V9.53602C120 9.16981 120 8.80653 119.992 8.44423C119.992 8.13759 119.992 7.82997 119.988 7.52333C119.976 6.85231 119.914 6.18312 119.802 5.52133C119.693 4.85917 119.484 4.21739 119.181 3.61801C118.562 2.41508 117.581 1.43591 116.375 0.818206C115.772 0.515453 115.127 0.304126 114.461 0.191206C113.798 0.0809886 113.128 0.0218936 112.455 0.0144459C112.15 0.00956586 111.837 0.00370586 111.531 0.00175586C111.171 -0.000244141 110.804 -0.000244141 110.444 -0.000244141V-0.000114141Z" fill="white"/>
<path d="M8.46808 39.125C8.16254 39.125 7.86439 39.1211 7.56125 39.1143C6.93327 39.1061 6.30676 39.0516 5.68686 38.9512C5.10883 38.8519 4.54888 38.6673 4.02547 38.4033C3.50686 38.1415 3.03385 37.7983 2.62455 37.3867C2.20933 36.98 1.86363 36.5082 1.60117 35.9902C1.33582 35.4688 1.15218 34.9099 1.05665 34.333C0.953484 33.7131 0.897668 33.0863 0.889681 32.458C0.883323 32.2471 0.875 31.5449 0.875 31.5449V8.44434C0.875 8.44434 0.883865 7.75293 0.889731 7.5498C0.897379 6.92248 0.95287 6.29665 1.05573 5.67773C1.15143 5.09925 1.33522 4.53875 1.60071 4.01563C1.86221 3.49794 2.20598 3.02586 2.6187 2.61768C3.03096 2.20562 3.50549 1.8606 4.02498 1.59521C4.54718 1.33209 5.10608 1.14873 5.68294 1.05127C6.30488 0.949836 6.93356 0.894996 7.56371 0.88721L8.46857 0.875H111.526L112.441 0.8877C113.066 0.895099 113.689 0.94945 114.305 1.05029C114.888 1.14898 115.452 1.33362 115.98 1.59814C117.021 2.13299 117.868 2.97916 118.402 4.01807C118.664 4.53758 118.844 5.09351 118.939 5.66699C119.043 6.29099 119.101 6.92174 119.113 7.5542C119.116 7.8374 119.116 8.1416 119.116 8.44434C119.124 8.81934 119.124 9.17627 119.124 9.53613V30.4648C119.124 30.8281 119.124 31.1826 119.116 31.54C119.116 31.8652 119.116 32.1631 119.112 32.4697C119.101 33.0909 119.043 33.7104 118.941 34.3232C118.847 34.9043 118.665 35.4675 118.399 35.9932C118.135 36.5056 117.791 36.9733 117.381 37.3789C116.971 37.7927 116.497 38.1379 115.978 38.4014C115.451 38.6674 114.887 38.8527 114.305 38.9512C113.685 39.0522 113.058 39.1067 112.43 39.1143C112.137 39.1211 111.829 39.125 111.531 39.125L110.443 39.127L8.46808 39.125Z" fill="#0057FF"/>
<path d="M25.2188 27.4401L18.1875 26.4001V20.3201H25.2188V27.4401ZM25.2188 19.7601H18.1875V14.0001L25.2188 12.9601V19.7601ZM34.8281 28.8001L25.7656 27.4401V20.3201H34.8281V28.8001ZM34.8281 19.7601H25.7656V12.9601L34.8281 11.6001V19.7601Z" fill="white"/>
<path d="M46.9375 16.1598C46.625 16.3198 45.9219 16.4798 45.1406 16.4798C44.2812 16.4798 43.5 16.2398 42.9531 15.6798C42.4844 15.1998 42.1719 14.3998 42.1719 13.4398C42.1719 11.6798 43.3437 10.3198 45.2969 10.3198C46 10.3198 46.4687 10.4798 46.7812 10.5598L46.625 11.1998C46.3125 11.0398 45.9219 10.9598 45.375 10.9598C43.9687 10.9598 43.0312 11.8398 43.0312 13.3598C43.0312 14.8798 43.8906 15.7598 45.2969 15.7598C45.7656 15.7598 46.1562 15.6798 46.3125 15.5998V13.8398H45.1406V13.1998H47.0156V16.1598H46.9375Z" fill="white"/>
<path d="M48.5 14.3998C48.5 15.4398 49.2031 15.9198 49.9063 15.9198C50.4531 15.9198 50.7656 15.8398 51.0781 15.6798L51.2344 16.2398C51 16.3998 50.5313 16.4798 49.8281 16.4798C48.5781 16.4798 47.7969 15.5998 47.7969 14.3198C47.7969 13.0398 48.5 11.9998 49.75 11.9998C51.0781 11.9998 51.4688 13.1998 51.4688 13.9998C51.4688 14.1598 51.4688 14.3198 51.4688 14.3998H48.5ZM50.7656 13.8398C50.7656 13.3598 50.5313 12.5598 49.75 12.5598C48.9688 12.5598 48.6563 13.2798 48.5781 13.8398H50.7656Z" fill="white"/>
<path d="M53.3437 10.8799V12.0799H54.4375V12.6399H53.3437V14.9599C53.3437 15.5199 53.5 15.7599 53.8906 15.7599C54.125 15.7599 54.2031 15.7599 54.3594 15.6799V16.2399C54.2031 16.3199 53.9687 16.3199 53.6562 16.3199C53.2656 16.3199 53.0312 16.2399 52.875 15.9999C52.6406 15.7599 52.5625 15.3599 52.5625 14.8799V12.5599H51.9375V11.9999H52.5625V10.9599L53.3437 10.8799Z" fill="white"/>
<path d="M57.9531 10.8799C57.9531 11.1199 57.7969 11.3599 57.4844 11.3599C57.25 11.3599 57.0156 11.1199 57.0156 10.8799C57.0156 10.6399 57.25 10.3999 57.4844 10.3999C57.7187 10.3999 57.9531 10.6399 57.9531 10.8799ZM57.0937 16.3999V12.0799H57.875V16.3999H57.0937Z" fill="white"/>
<path d="M59.9844 10.8799V12.0799H61.0781V12.6399H59.9844V14.9599C59.9844 15.5199 60.1406 15.7599 60.5312 15.7599C60.7656 15.7599 60.8437 15.7599 61 15.6799V16.2399C60.8437 16.3199 60.6094 16.3199 60.2969 16.3199C59.9062 16.3199 59.6719 16.2399 59.5156 15.9999C59.2812 15.7599 59.2031 15.3599 59.2031 14.8799V12.5599H58.5781V11.9999H59.2031V10.9599L59.9844 10.8799Z" fill="white"/>
<path d="M67.4844 14.2398C67.4844 15.8398 66.3906 16.5598 65.375 16.5598C64.2813 16.5598 63.3438 15.6798 63.3438 14.3198C63.3438 12.8798 64.2813 11.9998 65.375 11.9998C66.7031 11.9998 67.4844 12.8798 67.4844 14.2398ZM64.2031 14.2398C64.2031 15.1998 64.75 15.9198 65.4531 15.9198C66.1563 15.9198 66.7031 15.1998 66.7031 14.2398C66.7031 13.5198 66.3125 12.5598 65.4531 12.5598C64.5938 12.5598 64.2031 13.4398 64.2031 14.2398Z" fill="white"/>
<path d="M68.4219 13.2798C68.4219 12.7998 68.4219 12.4798 68.4219 12.0798H69.125L69.2031 12.7998C69.4375 12.3998 69.9063 11.9998 70.6094 11.9998C71.1563 11.9998 72.0938 12.3198 72.0938 13.8398V16.3998H71.3125V13.9198C71.3125 13.1998 71.0781 12.6398 70.375 12.6398C69.9062 12.6398 69.5156 13.0398 69.3594 13.4398C69.3594 13.5198 69.2813 13.6798 69.2813 13.8398V16.3998H68.5V13.2798H68.4219Z" fill="white"/>
<path d="M44.2031 29.3598L42.0938 20.6398H43.2656L44.2812 25.0398C44.5156 26.1598 44.75 27.1998 44.9063 28.0798C45.0625 27.1998 45.2969 26.1598 45.6094 25.0398L46.7031 20.6398H47.875L48.8906 25.0398C49.125 26.0798 49.3594 27.1198 49.5156 27.9998C49.6719 27.0398 49.9062 26.0798 50.2187 24.9598L51.3125 20.5598H52.4062L49.9844 29.2798H48.8125L47.7187 24.7198C47.4844 23.5998 47.25 22.7198 47.1719 21.8398C47.0156 22.7198 46.8594 23.5198 46.5469 24.7198L45.375 29.2798H44.2031V29.3598Z" fill="white"/>
<path d="M54.3594 21.2798C54.3594 21.6798 54.125 21.9998 53.6562 21.9998C53.2656 21.9998 52.9531 21.6798 52.9531 21.2798C52.9531 20.8798 53.2656 20.5598 53.6562 20.5598C54.125 20.6398 54.3594 20.8798 54.3594 21.2798ZM53.1094 29.3598V23.1198H54.2031V29.3598H53.1094Z" fill="white"/>
<path d="M55.6094 24.8C55.6094 24.16 55.6094 23.6 55.5312 23.12H56.5469L56.625 24.16C56.9375 23.6 57.6406 22.96 58.6562 22.96C59.5156 22.96 60.7656 23.44 60.7656 25.6V29.36H59.6719V25.76C59.6719 24.72 59.2812 23.92 58.2656 23.92C57.5625 23.92 56.9375 24.48 56.7813 25.12C56.7031 25.28 56.7031 25.44 56.7031 25.68V29.44H55.6094V24.8Z" fill="white"/>
<path d="M67.7187 20.1598V27.7598C67.7187 28.3198 67.7187 28.9598 67.7969 29.3598H66.7812L66.7031 28.2398C66.3906 28.9598 65.6094 29.4398 64.6719 29.4398C63.1875 29.4398 62.0938 28.1598 62.0938 26.2398C62.0938 24.1598 63.3437 22.8798 64.8281 22.8798C65.7656 22.8798 66.3906 23.3598 66.625 23.8398V20.0798H67.7187V20.1598ZM66.625 25.5998C66.625 25.4398 66.625 25.2798 66.5469 25.1198C66.3906 24.3998 65.7656 23.8398 64.9844 23.8398C63.8125 23.8398 63.1875 24.8798 63.1875 26.2398C63.1875 27.5198 63.8125 28.5598 64.9844 28.5598C65.6875 28.5598 66.3906 28.0798 66.625 27.1998C66.625 27.0398 66.7031 26.8798 66.7031 26.7198V25.5998H66.625Z" fill="white"/>
<path d="M74.6719 26.16C74.6719 28.48 73.1094 29.52 71.625 29.52C69.9844 29.52 68.7344 28.24 68.7344 26.32C68.7344 24.24 70.0625 22.96 71.7812 22.96C73.5 22.96 74.6719 24.24 74.6719 26.16ZM69.9062 26.24C69.9062 27.6 70.6875 28.64 71.7812 28.64C72.7969 28.64 73.6562 27.6 73.6562 26.24C73.6562 25.2 73.1094 23.84 71.8594 23.84C70.4531 23.76 69.9062 25.04 69.9062 26.24Z" fill="white"/>
<path d="M76.0781 23.0398L76.8594 26.2398C77.0156 26.9598 77.1719 27.5998 77.3281 28.2398C77.4844 27.5998 77.6406 26.9598 77.875 26.2398L78.8906 23.0398H79.8281L80.7656 26.1598C81 26.8798 81.1562 27.5998 81.3125 28.2398C81.3906 27.5998 81.5469 26.9598 81.7812 26.2398L82.6406 23.1198H83.7344L81.7812 29.3598H80.7656L79.8281 26.3998C79.5937 25.6798 79.4375 25.1198 79.2812 24.3198C79.125 25.0398 78.9687 25.6798 78.7344 26.3998L77.7187 29.3598H76.7812L74.9844 23.1198H76.0781V23.0398Z" fill="white"/>
<path d="M84.5937 28.16C84.9062 28.4 85.5312 28.64 86.0781 28.64C86.8594 28.64 87.25 28.24 87.25 27.68C87.25 27.12 86.9375 26.8 86.1562 26.56C85.0625 26.16 84.5156 25.52 84.5156 24.8C84.5156 23.76 85.2969 22.96 86.625 22.96C87.25 22.96 87.7969 23.12 88.1094 23.36L87.7969 24.16C87.5625 24 87.0937 23.76 86.5469 23.76C85.9219 23.76 85.5313 24.16 85.5313 24.64C85.5313 25.12 85.9219 25.36 86.7031 25.68C87.7188 26.08 88.2656 26.64 88.2656 27.6C88.2656 28.72 87.4062 29.44 86 29.44C85.2969 29.44 84.75 29.28 84.2812 29.04L84.5937 28.16Z" fill="white"/>
<path d="M93.4219 22L92.0156 22.8L91.7812 21.92L93.5781 20.96H94.5156V29.36H93.4219V22Z" fill="white"/>
<path d="M102.172 25.0397C102.172 27.9197 101.156 29.4397 99.3594 29.4397C97.7969 29.4397 96.7031 27.9197 96.625 25.1197C96.625 22.3197 97.7969 20.7197 99.4375 20.7197C101.234 20.7997 102.172 22.3997 102.172 25.0397ZM97.7187 25.1997C97.7187 27.3597 98.3437 28.6397 99.3594 28.6397C100.453 28.6397 101 27.2797 101 25.1197C101 23.0397 100.453 21.6797 99.3594 21.6797C98.4219 21.6797 97.7187 22.8797 97.7187 25.1997Z" fill="white"/>
</g>
<defs>
<clipPath id="clip0">
<rect width="120" height="40" fill="white"/>
</clipPath>
</defs>
</svg>
