<svg width="120" height="40" viewBox="0 0 120 40" fill="none" xmlns="http://www.w3.org/2000/svg">
<g clip-path="url(#clip0)">
<path d="M110.444 -0.000114141H9.56145C9.19372 -0.000114141 8.8304 -0.000114141 8.46364 0.00188586C8.15663 0.00388586 7.85207 0.00969586 7.54211 0.0145859C6.86874 0.0224877 6.19695 0.0815621 5.53259 0.191296C4.86915 0.303418 4.2265 0.514802 3.62637 0.818296C3.02697 1.12436 2.47929 1.52205 2.00318 1.99696C1.52457 2.47052 1.12561 3.0179 0.82165 3.61805C0.516847 4.21699 0.305496 4.85882 0.194896 5.52137C0.083244 6.18307 0.0231632 6.85241 0.0151925 7.52337C0.00588648 7.82997 0.00490373 8.13759 0 8.44423V31.5585C0.00490373 31.869 0.00588648 32.1698 0.0151925 32.4804C0.0231657 33.1513 0.0832464 33.8206 0.194896 34.4823C0.30519 35.1452 0.516554 35.7874 0.82165 36.3866C1.12548 36.9848 1.52449 37.53 2.00318 38.0009C2.47748 38.4779 3.02552 38.8759 3.62637 39.1796C4.2265 39.4839 4.86908 39.6965 5.53259 39.8104C6.19707 39.9192 6.86879 39.9783 7.54211 39.9872C7.85207 39.994 8.15663 39.9979 8.46364 39.9979C8.83039 39.9999 9.19374 39.9999 9.56145 39.9999H110.444C110.804 39.9999 111.171 39.9999 111.531 39.9979C111.837 39.9979 112.15 39.994 112.455 39.9872C113.128 39.9788 113.798 39.9197 114.461 39.8104C115.127 39.6957 115.772 39.4831 116.375 39.1796C116.975 38.8757 117.522 38.4777 117.996 38.0009C118.474 37.5281 118.874 36.9833 119.181 36.3866C119.484 35.787 119.693 35.1448 119.802 34.4823C119.914 33.8205 119.976 33.1514 119.988 32.4804C119.992 32.1698 119.992 31.869 119.992 31.5585C120 31.1952 120 30.8339 120 30.4647V9.53602C120 9.16981 120 8.80653 119.992 8.44423C119.992 8.13759 119.992 7.82997 119.988 7.52333C119.976 6.85231 119.914 6.18312 119.802 5.52133C119.693 4.85917 119.484 4.21739 119.181 3.61801C118.562 2.41508 117.581 1.43591 116.375 0.818206C115.772 0.515453 115.127 0.304126 114.461 0.191206C113.798 0.0809886 113.128 0.0218936 112.455 0.0144459C112.15 0.00956586 111.837 0.00370586 111.531 0.00175586C111.171 -0.000244141 110.804 -0.000244141 110.444 -0.000244141V-0.000114141Z" fill="white"/>
<path d="M8.46808 39.125C8.16254 39.125 7.86439 39.1211 7.56125 39.1143C6.93327 39.1061 6.30676 39.0516 5.68686 38.9512C5.10883 38.8519 4.54888 38.6673 4.02547 38.4033C3.50686 38.1415 3.03385 37.7983 2.62455 37.3867C2.20933 36.98 1.86363 36.5082 1.60117 35.9902C1.33582 35.4688 1.15218 34.9099 1.05665 34.333C0.953484 33.7131 0.897668 33.0863 0.889681 32.458C0.883323 32.2471 0.875 31.5449 0.875 31.5449V8.44434C0.875 8.44434 0.883865 7.75293 0.889731 7.5498C0.897379 6.92248 0.95287 6.29665 1.05573 5.67773C1.15143 5.09925 1.33522 4.53875 1.60071 4.01563C1.86221 3.49794 2.20598 3.02586 2.6187 2.61768C3.03096 2.20562 3.50549 1.8606 4.02498 1.59521C4.54718 1.33209 5.10608 1.14873 5.68294 1.05127C6.30488 0.949836 6.93356 0.894996 7.56371 0.88721L8.46857 0.875H111.526L112.441 0.8877C113.066 0.895099 113.689 0.94945 114.305 1.05029C114.888 1.14898 115.452 1.33362 115.98 1.59814C117.021 2.13299 117.868 2.97916 118.402 4.01807C118.664 4.53758 118.844 5.09351 118.939 5.66699C119.043 6.29099 119.101 6.92174 119.113 7.5542C119.116 7.8374 119.116 8.1416 119.116 8.44434C119.124 8.81934 119.124 9.17627 119.124 9.53613V30.4648C119.124 30.8281 119.124 31.1826 119.116 31.54C119.116 31.8652 119.116 32.1631 119.112 32.4697C119.101 33.0909 119.043 33.7104 118.941 34.3232C118.847 34.9043 118.665 35.4675 118.399 35.9932C118.135 36.5056 117.791 36.9733 117.381 37.3789C116.971 37.7927 116.497 38.1379 115.978 38.4014C115.451 38.6674 114.887 38.8527 114.305 38.9512C113.685 39.0522 113.058 39.1067 112.43 39.1143C112.137 39.1211 111.829 39.125 111.531 39.125L110.443 39.127L8.46808 39.125Z" fill="#0057FF"/>
<g clip-path="url(#clip1)">
<path d="M40.1655 17.5007H31.8327C31.6027 17.5007 31.416 17.6874 31.416 17.9174V24.5836C31.416 25.5902 32.1326 26.431 33.0826 26.6252V28.75C33.0826 29.4392 33.6434 29.9999 34.3325 29.9999C35.0216 29.9999 35.5824 29.4392 35.5824 28.75V26.6668H36.4157V28.75C36.4157 29.4392 36.9765 29.9999 37.6656 29.9999C38.3547 29.9999 38.9155 29.4392 38.9155 28.75V26.6252C39.8655 26.4319 40.5821 25.5902 40.5821 24.5836V17.9174C40.5821 17.6866 40.3955 17.5007 40.1655 17.5007Z" fill="white"/>
<path d="M38.1797 12.2204L38.8822 10.5813C38.973 10.3696 38.8747 10.1255 38.663 10.0347C38.4538 9.94299 38.2064 10.0413 38.1164 10.2538L37.4139 11.8937C36.9681 11.7487 36.4931 11.6679 35.9998 11.6679C35.5065 11.6679 35.0316 11.7487 34.5857 11.8937L33.8817 10.2538C33.7917 10.0413 33.5442 9.94217 33.335 10.0347C33.1234 10.1255 33.0259 10.3705 33.1167 10.5813L33.8192 12.2204C32.3885 12.997 31.416 14.5127 31.416 16.2509C31.416 16.4809 31.6027 16.6676 31.8327 16.6676H40.1654C40.3954 16.6676 40.5821 16.4809 40.5821 16.2509C40.5821 14.5127 39.6096 12.997 38.1797 12.2204ZM34.3325 15.001C34.1025 15.001 33.9158 14.8144 33.9158 14.5844C33.9158 14.3544 34.1025 14.1677 34.3325 14.1677C34.5624 14.1677 34.7491 14.3544 34.7491 14.5844C34.7491 14.8144 34.5624 15.001 34.3325 15.001ZM37.6656 15.001C37.4356 15.001 37.249 14.8144 37.249 14.5844C37.249 14.3544 37.4356 14.1677 37.6656 14.1677C37.8956 14.1677 38.0823 14.3544 38.0823 14.5844C38.0823 14.8144 37.8956 15.001 37.6656 15.001Z" fill="white"/>
<path d="M42.6659 17.5007C41.9768 17.5007 41.416 18.0615 41.416 18.7506V22.9171C41.416 23.6062 41.9768 24.167 42.6659 24.167C43.3551 24.167 43.9158 23.6062 43.9158 22.9171V18.7506C43.9158 18.0616 43.3551 17.5007 42.6659 17.5007Z" fill="white"/>
<path d="M29.3339 17.5007C28.6448 17.5007 28.084 18.0615 28.084 18.7506V22.9171C28.084 23.6062 28.6448 24.167 29.3339 24.167C30.023 24.167 30.5838 23.6062 30.5838 22.9171V18.7506C30.5838 18.0616 30.023 17.5007 29.3339 17.5007Z" fill="white"/>
</g>
<path d="M52 10V30" stroke="white"/>
<path d="M69.27 26L68.514 23.732H63.492L62.736 26H60.054L64.464 13.4H67.542L71.97 26H69.27ZM64.284 21.41H67.74L66.012 16.262L64.284 21.41ZM78.4314 13.4C79.6434 13.4 80.6634 13.808 81.4914 14.624C82.3194 15.44 82.7334 16.442 82.7334 17.63C82.7334 18.818 82.3194 19.82 81.4914 20.636C80.6634 21.452 79.6434 21.86 78.4314 21.86H76.2174V26H73.7334V13.4H78.4314ZM78.4314 19.538C78.9594 19.538 79.3974 19.358 79.7454 18.998C80.0934 18.626 80.2674 18.17 80.2674 17.63C80.2674 17.078 80.0934 16.622 79.7454 16.262C79.3974 15.902 78.9594 15.722 78.4314 15.722H76.2174V19.538H78.4314ZM94.7366 26H91.8746L87.3746 20.096V26H84.8906V13.4H87.3746V18.962L91.6946 13.4H94.5566L89.8946 19.52L94.7366 26Z" fill="white"/>
</g>
<defs>
<clipPath id="clip0">
<rect width="120" height="40" fill="white"/>
</clipPath>
<clipPath id="clip1">
<rect width="20" height="20" fill="white" transform="translate(26 10)"/>
</clipPath>
</defs>
</svg>
