<svg width="120" height="40" viewBox="0 0 120 40" fill="none" xmlns="http://www.w3.org/2000/svg">
<g clip-path="url(#clip0)">
<path d="M110.444 -0.000114141H9.56145C9.19372 -0.000114141 8.8304 -0.000114141 8.46364 0.00188586C8.15663 0.00388586 7.85207 0.00969586 7.54211 0.0145859C6.86874 0.0224877 6.19695 0.0815621 5.53259 0.191296C4.86915 0.303418 4.2265 0.514802 3.62637 0.818296C3.02697 1.12436 2.47929 1.52205 2.00318 1.99696C1.52457 2.47052 1.12561 3.0179 0.82165 3.61805C0.516847 4.21699 0.305496 4.85882 0.194896 5.52137C0.083244 6.18307 0.0231632 6.85241 0.0151925 7.52337C0.00588648 7.82997 0.00490373 8.13759 0 8.44423V31.5585C0.00490373 31.869 0.00588648 32.1698 0.0151925 32.4804C0.0231657 33.1513 0.0832464 33.8206 0.194896 34.4823C0.30519 35.1452 0.516554 35.7874 0.82165 36.3866C1.12548 36.9848 1.52449 37.53 2.00318 38.0009C2.47748 38.4779 3.02552 38.8759 3.62637 39.1796C4.2265 39.4839 4.86908 39.6965 5.53259 39.8104C6.19707 39.9192 6.86879 39.9783 7.54211 39.9872C7.85207 39.994 8.15663 39.9979 8.46364 39.9979C8.83039 39.9999 9.19374 39.9999 9.56145 39.9999H110.444C110.804 39.9999 111.171 39.9999 111.531 39.9979C111.837 39.9979 112.15 39.994 112.455 39.9872C113.128 39.9788 113.798 39.9197 114.461 39.8104C115.127 39.6957 115.772 39.4831 116.375 39.1796C116.975 38.8757 117.522 38.4777 117.996 38.0009C118.474 37.5281 118.874 36.9833 119.181 36.3866C119.484 35.787 119.693 35.1448 119.802 34.4823C119.914 33.8205 119.976 33.1514 119.988 32.4804C119.992 32.1698 119.992 31.869 119.992 31.5585C120 31.1952 120 30.8339 120 30.4647V9.53602C120 9.16981 120 8.80653 119.992 8.44423C119.992 8.13759 119.992 7.82997 119.988 7.52333C119.976 6.85231 119.914 6.18312 119.802 5.52133C119.693 4.85917 119.484 4.21739 119.181 3.61801C118.562 2.41508 117.581 1.43591 116.375 0.818206C115.772 0.515453 115.127 0.304126 114.461 0.191206C113.798 0.0809886 113.128 0.0218936 112.455 0.0144459C112.15 0.00956586 111.837 0.00370586 111.531 0.00175586C111.171 -0.000244141 110.804 -0.000244141 110.444 -0.000244141V-0.000114141Z" fill="white"/>
<path d="M8.46808 39.125C8.16254 39.125 7.86439 39.1211 7.56125 39.1143C6.93327 39.1061 6.30676 39.0516 5.68686 38.9512C5.10883 38.8519 4.54888 38.6673 4.02547 38.4033C3.50686 38.1415 3.03385 37.7983 2.62455 37.3867C2.20933 36.98 1.86363 36.5082 1.60117 35.9902C1.33582 35.4688 1.15218 34.9099 1.05665 34.333C0.953484 33.7131 0.897668 33.0863 0.889681 32.458C0.883323 32.2471 0.875 31.5449 0.875 31.5449V8.44434C0.875 8.44434 0.883865 7.75293 0.889731 7.5498C0.897379 6.92248 0.95287 6.29665 1.05573 5.67773C1.15143 5.09925 1.33522 4.53875 1.60071 4.01563C1.86221 3.49794 2.20598 3.02586 2.6187 2.61768C3.03096 2.20562 3.50549 1.8606 4.02498 1.59521C4.54718 1.33209 5.10608 1.14873 5.68294 1.05127C6.30488 0.949836 6.93356 0.894996 7.56371 0.88721L8.46857 0.875H111.526L112.441 0.8877C113.066 0.895099 113.689 0.94945 114.305 1.05029C114.888 1.14898 115.452 1.33362 115.98 1.59814C117.021 2.13299 117.868 2.97916 118.402 4.01807C118.664 4.53758 118.844 5.09351 118.939 5.66699C119.043 6.29099 119.101 6.92174 119.113 7.5542C119.116 7.8374 119.116 8.1416 119.116 8.44434C119.124 8.81934 119.124 9.17627 119.124 9.53613V30.4648C119.124 30.8281 119.124 31.1826 119.116 31.54C119.116 31.8652 119.116 32.1631 119.112 32.4697C119.101 33.0909 119.043 33.7104 118.941 34.3232C118.847 34.9043 118.665 35.4675 118.399 35.9932C118.135 36.5056 117.791 36.9733 117.381 37.3789C116.971 37.7927 116.497 38.1379 115.978 38.4014C115.451 38.6674 114.887 38.8527 114.305 38.9512C113.685 39.0522 113.058 39.1067 112.43 39.1143C112.137 39.1211 111.829 39.125 111.531 39.125L110.443 39.127L8.46808 39.125Z" fill="#0057FF"/>
<path d="M30.9414 19.3314C30.9508 18.5867 31.1447 17.8566 31.5051 17.209C31.8654 16.5614 32.3805 16.0172 33.0024 15.6272C32.6074 15.0516 32.0862 14.578 31.4802 14.2438C30.8743 13.9097 30.2003 13.7243 29.5118 13.7023C28.0432 13.545 26.6194 14.5987 25.871 14.5987C25.1082 14.5987 23.9559 13.7179 22.7151 13.7439C21.9125 13.7704 21.1304 14.0084 20.4448 14.4349C19.7592 14.8614 19.1937 15.4618 18.8032 16.1775C17.1118 19.1647 18.3734 23.5549 19.9937 25.9696C20.8043 27.152 21.7517 28.4727 22.9914 28.4259C24.2045 28.3745 24.6576 27.6368 26.1219 27.6368C27.5726 27.6368 27.9977 28.4259 29.2625 28.3961C30.5642 28.3745 31.3843 27.2085 32.1666 26.0149C32.749 25.1724 33.1972 24.2413 33.4945 23.256C32.7383 22.9297 32.0929 22.3836 31.6389 21.6857C31.1849 20.9877 30.9423 20.1689 30.9414 19.3314Z" fill="white"/>
<path d="M28.5523 12.1141C29.262 11.245 29.6117 10.1279 29.527 9C28.4427 9.11617 27.4411 9.64481 26.7217 10.4806C26.37 10.8889 26.1006 11.3639 25.929 11.8784C25.7574 12.393 25.6868 12.937 25.7215 13.4794C26.2638 13.4851 26.8004 13.3651 27.2907 13.1287C27.7811 12.8922 28.2124 12.5453 28.5523 12.1141Z" fill="white"/>
<path d="M45.4961 25.5512H41.5152L40.5592 28.4307H38.873L42.6437 17.7773H44.3956L48.1662 28.4307H46.4513L45.4961 25.5512ZM41.9275 24.2225H45.0831L43.5275 19.5493H43.4839L41.9275 24.2225Z" fill="white"/>
<path d="M56.3093 24.5473C56.3093 26.961 55.0428 28.5117 53.1316 28.5117C52.6475 28.5375 52.166 28.4238 51.7423 28.1834C51.3186 27.9431 50.9698 27.5859 50.7358 27.1528H50.6997V30.9999H49.1367V20.6633H50.6496V21.9551H50.6783C50.923 21.5241 51.2777 21.1687 51.7046 20.9269C52.1316 20.6852 52.6148 20.5659 53.1028 20.582C55.0354 20.582 56.3093 22.1403 56.3093 24.5473ZM54.7028 24.5473C54.7028 22.9747 53.9061 21.9409 52.6906 21.9409C51.4964 21.9409 50.6931 22.9965 50.6931 24.5473C50.6931 26.1123 51.4964 27.1603 52.6906 27.1603C53.9061 27.1603 54.7028 26.134 54.7028 24.5473H54.7028Z" fill="white"/>
<path d="M64.6906 24.5473C64.6906 26.961 63.4237 28.5117 61.5125 28.5117C61.0283 28.5375 60.5468 28.4238 60.1231 28.1834C59.6994 27.9431 59.3506 27.5859 59.1167 27.1528H59.0805V30.9999H57.5176V20.6633H59.0304V21.9551H59.0592C59.3039 21.5241 59.6586 21.1687 60.0855 20.9269C60.5124 20.6852 60.9956 20.5659 61.4837 20.582C63.4163 20.582 64.6906 22.1403 64.6906 24.5473ZM63.0837 24.5473C63.0837 22.9747 62.287 21.9409 61.0714 21.9409C59.8772 21.9409 59.074 22.9965 59.074 24.5473C59.074 26.1123 59.8772 27.1603 61.0714 27.1603C62.287 27.1603 63.0837 26.134 63.0837 24.5473Z" fill="white"/>
<path d="M70.2289 25.4626C70.3447 26.519 71.3508 27.2127 72.7257 27.2127C74.0431 27.2127 74.9908 26.519 74.9908 25.5664C74.9908 24.7395 74.4192 24.2444 73.0657 23.9051L71.7122 23.5725C69.7944 23.1 68.9041 22.1851 68.9041 20.7005C68.9041 18.8624 70.4744 17.5999 72.7035 17.5999C74.9112 17.5999 76.4241 18.8624 76.475 20.7005H74.8972C74.8028 19.6374 73.9412 18.9956 72.6821 18.9956C71.4231 18.9956 70.5615 19.6449 70.5615 20.5899C70.5615 21.3431 71.1118 21.7863 72.4579 22.1256L73.6086 22.4138C75.7514 22.9307 76.6409 23.8087 76.6409 25.367C76.6409 27.3601 75.0853 28.6084 72.6098 28.6084C70.2937 28.6084 68.7299 27.3894 68.6289 25.4625L70.2289 25.4626Z" fill="white"/>
<path d="M80.0154 18.8252V20.6633H81.4633V21.9259H80.0154V26.2078C80.0154 26.873 80.3053 27.183 80.9418 27.183C81.1137 27.1799 81.2853 27.1676 81.456 27.1461V28.4011C81.1698 28.4557 80.8789 28.4804 80.5878 28.4749C79.0462 28.4749 78.445 27.8842 78.445 26.3779V21.9259H77.3379V20.6633H78.445V18.8252H80.0154Z" fill="white"/>
<path d="M82.3008 24.5476C82.3008 22.1038 83.7118 20.5681 85.9121 20.5681C88.1198 20.5681 89.5242 22.1038 89.5242 24.5476C89.5242 26.9982 88.1272 28.5271 85.9121 28.5271C83.6978 28.5271 82.3008 26.9982 82.3008 24.5476ZM87.9317 24.5476C87.9317 22.8712 87.1786 21.8818 85.9121 21.8818C84.6456 21.8818 83.8925 22.8787 83.8925 24.5476C83.8925 26.2307 84.6456 27.2126 85.9121 27.2126C87.1786 27.2126 87.9317 26.2307 87.9317 24.5476H87.9317Z" fill="white"/>
<path d="M90.8125 20.6634H92.3032V21.9855H92.3394C92.4402 21.5726 92.6773 21.2077 93.0109 20.9521C93.3444 20.6966 93.754 20.5659 94.1709 20.5822C94.351 20.5815 94.5306 20.6015 94.7064 20.6416V22.1329C94.479 22.062 94.2418 22.0295 94.0041 22.0366C93.7771 22.0272 93.5507 22.068 93.3406 22.1563C93.1305 22.2445 92.9416 22.3781 92.7868 22.5479C92.6321 22.7177 92.5152 22.9196 92.4442 23.1398C92.3732 23.36 92.3498 23.5933 92.3755 23.8236V28.4306H90.8125L90.8125 20.6634Z" fill="white"/>
<path d="M101.914 26.1495C101.703 27.5595 100.357 28.5271 98.6349 28.5271C96.4198 28.5271 95.0449 27.0132 95.0449 24.5845C95.0449 22.1482 96.4272 20.5681 98.5692 20.5681C100.676 20.5681 102.001 22.0443 102.001 24.3993V24.9456H96.6227V25.0419C96.5978 25.3278 96.6329 25.6157 96.7256 25.8867C96.8183 26.1577 96.9664 26.4054 97.1601 26.6135C97.3538 26.8216 97.5888 26.9852 97.8493 27.0936C98.1098 27.2019 98.3899 27.2525 98.671 27.242C99.0404 27.2773 99.411 27.19 99.7278 26.9932C100.045 26.7963 100.291 26.5004 100.429 26.1495L101.914 26.1495ZM96.6301 23.8313H100.437C100.451 23.5743 100.413 23.3171 100.325 23.0758C100.237 22.8346 100.101 22.6145 99.9253 22.4294C99.7499 22.2443 99.5389 22.0982 99.3055 22.0002C99.0722 21.9022 98.8215 21.8545 98.5692 21.86C98.3147 21.8584 98.0624 21.9083 97.8268 22.0068C97.5913 22.1052 97.3772 22.2502 97.197 22.4335C97.0167 22.6168 96.8738 22.8347 96.7765 23.0746C96.6792 23.3145 96.6294 23.5717 96.6301 23.8313V23.8313Z" fill="white"/>
<path d="M41.7306 9.75776C42.0583 9.73378 42.3871 9.78427 42.6933 9.90561C42.9995 10.0269 43.2756 10.2161 43.5014 10.4594C43.7273 10.7027 43.8975 10.9942 43.9996 11.3127C44.1017 11.6312 44.1332 11.9688 44.0919 12.3013C44.0919 13.9367 43.2254 14.8767 41.7306 14.8767H39.918V9.75776H41.7306ZM40.6974 14.1528H41.6435C41.8777 14.1671 42.112 14.1279 42.3294 14.0381C42.5469 13.9484 42.742 13.8103 42.9005 13.634C43.059 13.4576 43.177 13.2474 43.2459 13.0187C43.3147 12.79 43.3327 12.5484 43.2985 12.3117C43.3302 12.0759 43.3104 11.8359 43.2405 11.6089C43.1706 11.3818 43.0523 11.1733 42.8941 10.9984C42.736 10.8234 42.5418 10.6863 42.3256 10.5969C42.1094 10.5075 41.8765 10.468 41.6435 10.4812H40.6974V14.1528Z" fill="white"/>
<path d="M44.9733 12.9436C44.9495 12.6897 44.978 12.4336 45.0569 12.1916C45.1358 11.9496 45.2634 11.7271 45.4316 11.5384C45.5997 11.3497 45.8047 11.1989 46.0333 11.0957C46.262 10.9925 46.5092 10.9392 46.7592 10.9392C47.0093 10.9392 47.2565 10.9925 47.4851 11.0957C47.7138 11.1989 47.9187 11.3497 48.0869 11.5384C48.2551 11.7271 48.3827 11.9496 48.4616 12.1916C48.5405 12.4336 48.569 12.6897 48.5452 12.9436C48.5695 13.1977 48.5413 13.4542 48.4626 13.6966C48.3839 13.939 48.2563 14.1619 48.0881 14.351C47.9199 14.54 47.7148 14.6912 47.486 14.7946C47.2571 14.898 47.0096 14.9514 46.7592 14.9514C46.5089 14.9514 46.2614 14.898 46.0325 14.7946C45.8037 14.6912 45.5985 14.54 45.4303 14.351C45.2621 14.1619 45.1346 13.939 45.0559 13.6966C44.9772 13.4542 44.949 13.1977 44.9733 12.9436ZM47.7764 12.9436C47.7764 12.1062 47.4077 11.6165 46.7605 11.6165C46.1108 11.6165 45.7454 12.1062 45.7454 12.9436C45.7454 13.7877 46.1108 14.2736 46.7605 14.2736C47.4077 14.2736 47.7764 13.7843 47.7764 12.9436H47.7764Z" fill="white"/>
<path d="M53.2924 14.877H52.5171L51.7344 12.0318H51.6752L50.8958 14.877H50.1279L49.084 11.0139H49.8421L50.5205 13.9617H50.5763L51.3549 11.0139H52.0719L52.8505 13.9617H52.9097L53.5848 11.0139H54.3322L53.2924 14.877Z" fill="white"/>
<path d="M55.2109 11.0142H55.9304V11.6278H55.9863C56.081 11.4074 56.2408 11.2227 56.4434 11.0993C56.646 10.9759 56.8812 10.9201 57.1164 10.9396C57.3007 10.9255 57.4857 10.9538 57.6578 11.0225C57.8298 11.0912 57.9845 11.1986 58.1104 11.3365C58.2363 11.4745 58.3302 11.6396 58.385 11.8196C58.4398 11.9997 58.4543 12.1899 58.4272 12.3764V14.8772H57.6798V12.5679C57.6798 11.947 57.4154 11.6383 56.8626 11.6383C56.7375 11.6324 56.6126 11.6541 56.4965 11.702C56.3804 11.7499 56.2758 11.8228 56.1899 11.9158C56.104 12.0088 56.0389 12.1196 55.9989 12.2407C55.9589 12.3618 55.9451 12.4902 55.9583 12.6173V14.8772H55.2109L55.2109 11.0142Z" fill="white"/>
<path d="M59.6172 9.5061H60.3646V14.8772H59.6172V9.5061Z" fill="white"/>
<path d="M61.403 12.9437C61.3792 12.6898 61.4077 12.4336 61.4866 12.1916C61.5655 11.9496 61.6932 11.7271 61.8614 11.5384C62.0295 11.3497 62.2345 11.1989 62.4632 11.0957C62.6918 10.9925 62.9391 10.9392 63.1891 10.9392C63.4391 10.9392 63.6864 10.9925 63.9151 11.0957C64.1437 11.1989 64.3487 11.3497 64.5169 11.5384C64.685 11.7271 64.8127 11.9496 64.8916 12.1916C64.9706 12.4336 64.9991 12.6898 64.9753 12.9437C64.9995 13.1978 64.9713 13.4543 64.8926 13.6967C64.8139 13.939 64.6863 14.1619 64.5181 14.351C64.3499 14.5401 64.1447 14.6912 63.9158 14.7946C63.687 14.898 63.4394 14.9514 63.1891 14.9514C62.9388 14.9514 62.6912 14.898 62.4624 14.7946C62.2335 14.6912 62.0284 14.5401 61.8602 14.351C61.6919 14.1619 61.5644 13.939 61.4856 13.6967C61.4069 13.4543 61.3787 13.1978 61.403 12.9437ZM64.2061 12.9437C64.2061 12.1063 63.8373 11.6166 63.1901 11.6166C62.5405 11.6166 62.175 12.1063 62.175 12.9437C62.175 13.7877 62.5405 14.2737 63.1901 14.2737C63.8373 14.2736 64.2061 13.7844 64.2061 12.9437H64.2061Z" fill="white"/>
<path d="M65.7617 13.7843C65.7617 13.089 66.2693 12.6881 67.1703 12.6311L68.1961 12.5708V12.2374C68.1961 11.8294 67.9316 11.599 67.4208 11.599C67.0036 11.599 66.7145 11.7552 66.6315 12.0283H65.9079C65.9843 11.3648 66.5962 10.9392 67.4553 10.9392C68.4047 10.9392 68.9402 11.4213 68.9402 12.2374V14.8768H68.2207V14.3339H68.1616C68.0416 14.5287 67.873 14.6874 67.6732 14.794C67.4733 14.9005 67.2493 14.9511 67.0241 14.9405C66.8651 14.9573 66.7044 14.94 66.5524 14.8897C66.4004 14.8393 66.2604 14.757 66.1414 14.6481C66.0225 14.5392 65.9273 14.406 65.8619 14.2573C65.7965 14.1085 65.7623 13.9474 65.7617 13.7843ZM68.1961 13.4542V13.1313L67.2713 13.1916C66.7498 13.2272 66.5132 13.4082 66.5132 13.7487C66.5132 14.0964 66.8089 14.2987 67.2155 14.2987C67.3346 14.311 67.4549 14.2988 67.5693 14.2627C67.6837 14.2266 67.7898 14.1673 67.8813 14.0885C67.9728 14.0098 68.0478 13.913 68.1019 13.804C68.156 13.6951 68.188 13.5761 68.1961 13.4542Z" fill="white"/>
<path d="M69.9238 12.944C69.9238 11.7233 70.539 10.95 71.4958 10.95C71.7325 10.9389 71.9674 10.9967 72.173 11.1168C72.3787 11.2368 72.5466 11.414 72.6572 11.6278H72.713V9.5061H73.4604V14.8772H72.7442V14.2668H72.6851C72.566 14.4792 72.3922 14.6542 72.1826 14.773C71.973 14.8918 71.7355 14.9499 71.4958 14.9408C70.5324 14.9409 69.9238 14.1676 69.9238 12.944ZM70.6959 12.944C70.6959 13.7634 71.0745 14.2564 71.7078 14.2564C72.3377 14.2564 72.727 13.7562 72.727 12.9473C72.727 12.1422 72.3336 11.6349 71.7078 11.6349C71.0786 11.6349 70.6959 12.1313 70.6959 12.944H70.6959Z" fill="white"/>
<path d="M76.5534 12.9436C76.5296 12.6897 76.558 12.4336 76.637 12.1916C76.7159 11.9496 76.8435 11.7271 77.0117 11.5384C77.1798 11.3497 77.3848 11.1989 77.6134 11.0957C77.8421 10.9925 78.0893 10.9392 78.3393 10.9392C78.5893 10.9392 78.8366 10.9925 79.0652 11.0957C79.2938 11.1989 79.4988 11.3497 79.667 11.5384C79.8351 11.7271 79.9628 11.9496 80.0417 12.1916C80.1206 12.4336 80.1491 12.6897 80.1253 12.9436C80.1495 13.1977 80.1214 13.4542 80.0427 13.6966C79.964 13.939 79.8364 14.1619 79.6682 14.351C79.5 14.54 79.2949 14.6912 79.066 14.7946C78.8372 14.898 78.5896 14.9514 78.3393 14.9514C78.089 14.9514 77.8415 14.898 77.6126 14.7946C77.3837 14.6912 77.1786 14.54 77.0104 14.351C76.8422 14.1619 76.7147 13.939 76.636 13.6966C76.5572 13.4542 76.5291 13.1977 76.5534 12.9436ZM79.3565 12.9436C79.3565 12.1062 78.9877 11.6165 78.3406 11.6165C77.6909 11.6165 77.3254 12.1062 77.3254 12.9436C77.3254 13.7877 77.6909 14.2736 78.3406 14.2736C78.9877 14.2736 79.3565 13.7843 79.3565 12.9436Z" fill="white"/>
<path d="M81.127 11.0142H81.8464V11.6278H81.9023C81.997 11.4074 82.1568 11.2227 82.3594 11.0993C82.562 10.9759 82.7973 10.9201 83.0324 10.9396C83.2167 10.9255 83.4017 10.9538 83.5738 11.0225C83.7459 11.0912 83.9006 11.1986 84.0265 11.3365C84.1523 11.4745 84.2462 11.6396 84.301 11.8196C84.3559 11.9997 84.3703 12.1899 84.3432 12.3764V14.8772H83.5958V12.5679C83.5958 11.947 83.3314 11.6383 82.7786 11.6383C82.6535 11.6324 82.5286 11.6541 82.4125 11.702C82.2964 11.7499 82.1918 11.8228 82.1059 11.9158C82.02 12.0088 81.9549 12.1196 81.9149 12.2407C81.8749 12.3618 81.8611 12.4902 81.8744 12.6173V14.8772H81.127V11.0142Z" fill="white"/>
<path d="M88.5662 10.052V11.0314H89.3867V11.6735H88.5662V13.66C88.5662 14.0646 88.7297 14.2418 89.1017 14.2418C89.197 14.2415 89.2921 14.2356 89.3867 14.2242V14.8592C89.2525 14.8837 89.1165 14.8968 88.9802 14.8982C88.149 14.8982 87.818 14.5999 87.818 13.8551V11.6735H87.2168V11.0313H87.818V10.052H88.5662Z" fill="white"/>
<path d="M90.4082 9.5061H91.149V11.6349H91.2082C91.3075 11.4125 91.4717 11.2267 91.6783 11.1028C91.885 10.979 92.124 10.9231 92.3629 10.9429C92.5462 10.9327 92.7294 10.964 92.8996 11.0343C93.0697 11.1047 93.2225 11.2125 93.3471 11.3501C93.4716 11.4877 93.5649 11.6516 93.6202 11.8301C93.6756 12.0087 93.6916 12.1975 93.6671 12.3831V14.8772H92.919V12.5712C92.919 11.9541 92.6372 11.6416 92.1092 11.6416C91.9807 11.6309 91.8515 11.6489 91.7306 11.6944C91.6097 11.7399 91.5 11.8118 91.4091 11.9051C91.3183 11.9984 91.2486 12.1108 91.2048 12.2345C91.161 12.3581 91.1442 12.49 91.1556 12.621V14.8772H90.4082L90.4082 9.5061Z" fill="white"/>
<path d="M98.0257 13.8338C97.9241 14.1869 97.7041 14.4923 97.4041 14.6966C97.1041 14.9009 96.7433 14.9911 96.3847 14.9514C96.1352 14.9582 95.8872 14.9094 95.6581 14.8086C95.4289 14.7078 95.224 14.5573 95.0575 14.3676C94.8911 14.1778 94.7671 13.9535 94.6942 13.71C94.6213 13.4665 94.6012 13.2097 94.6353 12.9575C94.6021 12.7045 94.6225 12.4472 94.6952 12.203C94.768 11.9588 94.8913 11.7334 95.0569 11.542C95.2225 11.3506 95.4264 11.1978 95.6549 11.0938C95.8834 10.9898 96.1312 10.9371 96.3814 10.9393C97.4351 10.9393 98.0708 11.6736 98.0708 12.8867V13.1527H95.3966V13.1955C95.3849 13.3372 95.4024 13.4799 95.4479 13.6144C95.4934 13.7489 95.566 13.8721 95.661 13.9763C95.7559 14.0805 95.8712 14.1633 95.9994 14.2195C96.1275 14.2756 96.2658 14.3037 96.4052 14.3021C96.584 14.324 96.7651 14.2912 96.9256 14.2078C97.086 14.1244 97.2185 13.9942 97.3062 13.8338L98.0257 13.8338ZM95.3966 12.5889H97.3095C97.3189 12.4592 97.3016 12.329 97.2588 12.2066C97.2159 12.0841 97.1484 11.9722 97.0606 11.8779C96.9728 11.7837 96.8667 11.7092 96.749 11.6593C96.6313 11.6094 96.5047 11.5852 96.3773 11.5881C96.248 11.5865 96.1197 11.6112 96 11.661C95.8803 11.7107 95.7715 11.7843 95.6801 11.8776C95.5887 11.9709 95.5165 12.0818 95.4679 12.204C95.4192 12.3262 95.395 12.457 95.3966 12.5889H95.3966Z" fill="white"/>
</g>
<defs>
<clipPath id="clip0">
<rect width="120" height="40" fill="white"/>
</clipPath>
</defs>
</svg>
