<svg width="70" height="40" viewBox="0 0 70 40" fill="none" xmlns="http://www.w3.org/2000/svg">
<g clip-path="url(#clip0)">
<path d="M64.4256 7.92969e-06H5.57751C5.363 7.92969e-06 5.15107 7.92975e-06 4.93713 0.00200793C4.75804 0.00400793 4.58037 0.00981793 4.39957 0.0147079C4.00677 0.0226097 3.61489 0.0816842 3.22734 0.191418C2.84034 0.303541 2.46546 0.514924 2.11538 0.818418C1.76573 1.12448 1.44625 1.52218 1.16852 1.99708C0.889333 2.47064 0.656608 3.01802 0.479296 3.61817C0.301494 4.21712 0.178206 4.85895 0.113689 5.52149C0.048559 6.18319 0.0135119 6.85253 0.00886231 7.52349C0.00343378 7.83009 0.00286051 8.13771 0 8.44435V31.5586C0.00286051 31.8691 0.00343378 32.1699 0.00886231 32.4805C0.0135133 33.1514 0.0485604 33.8207 0.113689 34.4824C0.178028 35.1453 0.301323 35.7875 0.479296 36.3867C0.656528 36.9849 0.889285 37.5301 1.16852 38.001C1.4452 38.478 1.76489 38.876 2.11538 39.1797C2.46546 39.484 2.8403 39.6967 3.22734 39.8105C3.61496 39.9194 4.00679 39.9785 4.39957 39.9873C4.58037 39.9941 4.75804 39.998 4.93713 39.998C5.15106 40 5.36301 40 5.57751 40H64.4256C64.6359 40 64.8495 40 65.0597 39.998C65.238 39.998 65.4208 39.9941 65.599 39.9873C65.9911 39.9789 66.3822 39.9198 66.769 39.8105C67.1573 39.6959 67.5334 39.4833 67.8852 39.1797C68.2354 38.8758 68.5548 38.4779 68.8312 38.001C69.1097 37.5282 69.343 36.9835 69.5224 36.3867C69.6991 35.7871 69.8212 35.145 69.8846 34.4824C69.9498 33.8206 69.9861 33.1515 69.9931 32.4805C69.9954 32.1699 69.9954 31.8691 69.9954 31.5586C70 31.1953 70 30.834 70 30.4648V9.53614C70 9.16993 70 8.80665 69.9954 8.44435C69.9954 8.13771 69.9954 7.83009 69.9931 7.52345C69.9861 6.85243 69.9498 6.18324 69.8846 5.52145C69.821 4.85929 69.6989 4.21751 69.5224 3.61813C69.1613 2.4152 68.5888 1.43603 67.8852 0.818328C67.5334 0.515575 67.1572 0.304248 66.769 0.191328C66.3822 0.0811107 65.9911 0.0220157 65.599 0.0145679C65.4208 0.00968793 65.238 0.00382793 65.0597 0.00187793C64.8495 -0.00012207 64.6359 -0.00012207 64.4256 -0.00012207V7.92969e-06Z" fill="white"/>
<path d="M4.94053 39.125C4.7623 39.125 4.58837 39.1211 4.41154 39.1143C4.04522 39.1061 3.67976 39.0516 3.31815 38.9512C2.98097 38.8519 2.65433 38.6673 2.349 38.4033C2.04648 38.1415 1.77056 37.7983 1.5318 37.3867C1.28959 36.98 1.08793 36.5082 0.934831 35.9902C0.780042 35.4688 0.672918 34.9099 0.617192 34.333C0.557013 33.7131 0.524453 33.0863 0.519794 32.458C0.516086 32.2471 0.51123 31.5449 0.51123 31.5449V8.44434C0.51123 8.44434 0.516402 7.75293 0.519824 7.5498C0.524285 6.92248 0.556655 6.29665 0.616654 5.67773C0.672483 5.09925 0.779689 4.53875 0.934562 4.01563C1.0871 3.49794 1.28764 3.02586 1.52839 2.61768C1.76887 2.20562 2.04568 1.8606 2.34872 1.59521C2.65334 1.33209 2.97936 1.14873 3.31586 1.05127C3.67866 0.949836 4.04539 0.894996 4.41298 0.88721L4.94081 0.875H65.0574L65.5916 0.8877C65.9558 0.895099 66.3192 0.94945 66.6787 1.05029C67.0186 1.14898 67.348 1.33362 67.6561 1.59814C68.2632 2.13299 68.7572 2.97916 69.0688 4.01807C69.2212 4.53758 69.3268 5.09351 69.3819 5.66699C69.4426 6.29099 69.4766 6.92174 69.4836 7.5542C69.4853 7.8374 69.4853 8.1416 69.4853 8.44434C69.4899 8.81934 69.4899 9.17627 69.4899 9.53613V30.4648C69.4899 30.8281 69.4899 31.1826 69.4853 31.54C69.4853 31.8652 69.4853 32.1631 69.483 32.4697C69.4762 33.0909 69.4427 33.7104 69.383 34.3232C69.3284 34.9043 69.2219 35.4675 69.0671 35.9932C68.9129 36.5056 68.7124 36.9733 68.473 37.3789C68.2341 37.7927 67.9576 38.1379 67.6544 38.4014C67.3472 38.6674 67.0182 38.8527 66.6787 38.9512C66.3171 39.0522 65.9516 39.1067 65.5853 39.1143C65.4139 39.1211 65.2345 39.125 65.0603 39.125L64.4262 39.127L4.94053 39.125Z" fill="#0057FF"/>
</g>
<path d="M28.7764 26.2197C26.8896 26.2197 25.3984 25.6338 24.3027 24.4619C23.207 23.29 22.6592 21.6904 22.6592 19.6631C22.6592 17.6475 23.207 16.0508 24.3027 14.873C25.4043 13.6895 26.8955 13.0977 28.7764 13.0977C30.6514 13.0977 32.1367 13.6895 33.2324 14.873C34.334 16.0508 34.8848 17.6475 34.8848 19.6631C34.8848 20.7764 34.7119 21.7725 34.3662 22.6514C34.0205 23.5244 33.5195 24.2305 32.8633 24.7695L34.4717 27.1953H31.8965L30.9912 25.8682C30.3232 26.1025 29.585 26.2197 28.7764 26.2197ZM28.7764 24.0225C29.0869 24.0225 29.3887 23.9814 29.6816 23.8994L28.293 21.8252H30.6924L31.2461 22.5811C31.8672 21.8662 32.1777 20.8936 32.1777 19.6631C32.1777 18.333 31.8701 17.2725 31.2549 16.4814C30.6396 15.6846 29.8135 15.2861 28.7764 15.2861C27.7334 15.2861 26.9043 15.6846 26.2891 16.4814C25.6738 17.2725 25.3662 18.333 25.3662 19.6631C25.3662 20.9932 25.6738 22.0537 26.2891 22.8447C26.9043 23.6299 27.7334 24.0225 28.7764 24.0225ZM39.2617 15.3916V19.4346H41.5469C42.2148 19.4346 42.7334 19.2559 43.1025 18.8984C43.4775 18.541 43.665 18.0459 43.665 17.4131C43.665 16.7979 43.4717 16.3086 43.085 15.9453C42.6982 15.5762 42.1768 15.3916 41.5205 15.3916H39.2617ZM39.2617 21.3594V26H36.6074V13.3174H41.8018C43.249 13.3174 44.374 13.6777 45.1768 14.3984C45.9854 15.1133 46.3896 16.1006 46.3896 17.3604C46.3896 18.1865 46.1846 18.9248 45.7744 19.5752C45.3701 20.2197 44.8076 20.6826 44.0869 20.9639L46.7588 26H43.7529L41.3887 21.3594H39.2617Z" fill="white"/>
<defs>
<clipPath id="clip0">
<rect width="70" height="40" fill="white"/>
</clipPath>
</defs>
</svg>
