<svg width="61" height="89" viewBox="0 0 61 89" fill="none" xmlns="http://www.w3.org/2000/svg">
<g opacity="0.2" clip-path="url(#clip0)">
<path d="M0 0H9.61V4.81H4.81V9.61H0V0Z" fill="#0057FF"/>
<path d="M25.3604 0H34.9704V4.81H30.1604V9.61H25.3604V0Z" fill="#0057FF"/>
<path d="M50.71 0H60.32V4.81H55.52V9.61H50.71V0Z" fill="#0057FF"/>
<path d="M0 26.1602H9.61V30.9602H4.81V35.7702H0V26.1602Z" fill="#0057FF"/>
<path d="M25.3604 26.1602H34.9704V30.9602H30.1604V35.7702H25.3604V26.1602Z" fill="#0057FF"/>
<path d="M50.71 26.1602H60.32V30.9602H55.52V35.7702H50.71V26.1602Z" fill="#0057FF"/>
<path d="M0 52.3101H9.61V57.1201H4.81V61.9201H0V52.3101Z" fill="#0057FF"/>
<path d="M25.3604 52.3101H34.9704V57.1201H30.1604V61.9201H25.3604V52.3101Z" fill="#0057FF"/>
<path d="M50.71 52.3101H60.32V57.1201H55.52V61.9201H50.71V52.3101Z" fill="#0057FF"/>
<path d="M0 78.4702H9.61V83.2702H4.81V88.0802H0V78.4702Z" fill="#0057FF"/>
<path d="M25.3604 78.4702H34.9704V83.2702H30.1604V88.0802H25.3604V78.4702Z" fill="#0057FF"/>
<path d="M50.71 78.4702H60.32V83.2702H55.52V88.0802H50.71V78.4702Z" fill="#0057FF"/>
</g>
<defs>
<clipPath id="clip0">
<rect width="60.32" height="88.08" fill="white"/>
</clipPath>
</defs>
</svg>
