<svg width="463" height="423" viewBox="0 0 463 423" fill="none" xmlns="http://www.w3.org/2000/svg">
<g clip-path="url(#clip0)">
<path d="M231.501 375.507C359.357 375.507 463.005 369.455 463.005 361.991C463.005 354.526 359.357 348.475 231.501 348.475C103.644 348.475 -0.00390625 354.526 -0.00390625 361.991C-0.00390625 369.455 103.644 375.507 231.501 375.507Z" fill="#E1EAFA"/>
<path d="M130.726 35.8734C130.953 33.2346 142.32 23.5035 154.188 30.2974C166.057 37.0912 157.472 57.628 170.379 59.622C162.021 67.98 134.798 78.1887 126.428 68.6009C118.058 59.0131 116.983 32.16 130.726 35.8734Z" fill="#263238"/>
<path d="M178.533 102.093C178.844 106.51 179.309 111.191 179.93 115.656C180.486 120.057 181.38 124.408 182.605 128.671C182.748 129.184 182.927 129.674 183.094 130.152L183.548 131.417C183.642 131.692 183.779 131.95 183.954 132.181C184.229 132.587 185.817 132.957 187.679 132.719C191.935 131.994 196.064 130.663 199.942 128.766L202.975 133.22C202.01 134.068 201.002 134.865 199.954 135.608C198.927 136.348 197.876 137.065 196.766 137.71C194.462 139.12 191.981 140.216 189.387 140.969C187.886 141.389 186.337 141.614 184.778 141.638C182.844 141.652 180.937 141.189 179.226 140.289C177.377 139.275 175.86 137.749 174.856 135.895L174.533 135.262L174.33 134.808L173.913 133.877C173.626 133.268 173.351 132.683 173.136 132.038C171.352 127.28 170.044 122.356 169.232 117.34C168.399 112.467 167.876 107.545 167.668 102.606L178.533 102.093Z" fill="#FFC3BD"/>
<path d="M172.695 90.2242C182.379 97.627 181.985 111.597 181.985 111.597L164.636 115.74C164.636 115.74 159.323 101.699 161.484 96.5524C163.764 91.1914 167.251 86.0452 172.695 90.2242Z" fill="#407BFF"/>
<path d="M199 129.805L205.364 123.429L208.791 133.399C208.791 133.399 203.418 136.301 198.271 133.555L199 129.805Z" fill="#FFC3BD"/>
<path d="M214.175 122.45L215.345 130.319L208.79 133.387L205.363 123.429L214.175 122.45Z" fill="#FFC3BD"/>
<path d="M116.59 353.704L126.333 354.647L136.47 331.472L126.727 330.517L116.59 353.704Z" fill="#FFC3BD"/>
<path d="M53.8691 319.436L61.1764 326.302L76.9731 308.953L69.6538 302.076L53.8691 319.436Z" fill="#FFC3BD"/>
<path d="M64.5547 323.007L59.0623 313.108C58.9704 312.937 58.8191 312.804 58.6367 312.736C58.4542 312.668 58.2532 312.669 58.0712 312.738L49.6058 315.962C49.3963 316.051 49.2078 316.183 49.0525 316.349C48.8972 316.515 48.7786 316.712 48.7043 316.927C48.63 317.142 48.6017 317.37 48.6212 317.597C48.6408 317.823 48.7077 318.043 48.8177 318.243C50.7998 321.657 51.9221 323.21 54.346 327.568C55.8265 330.242 58.7279 336.391 60.7816 340.093C62.8353 343.794 66.5964 341.955 66.071 340.236C63.683 332.499 64.1726 328.201 64.877 324.786C64.9856 324.173 64.8712 323.542 64.5547 323.007Z" fill="#263238"/>
<path d="M127.622 351.639H115.682C115.466 351.639 115.257 351.711 115.087 351.843C114.916 351.974 114.794 352.159 114.739 352.367L112.1 361.835C112.036 362.058 112.026 362.293 112.07 362.521C112.113 362.749 112.21 362.963 112.352 363.147C112.493 363.33 112.676 363.478 112.886 363.578C113.095 363.678 113.325 363.727 113.557 363.722C117.771 363.722 119.765 363.722 125.031 363.722H141.102C145.472 363.722 146.391 359.304 144.577 358.946C136.469 357.155 131.801 354.683 129.293 352.319C128.841 351.891 128.245 351.648 127.622 351.639Z" fill="#263238"/>
<path opacity="0.2" d="M136.457 331.484L131.239 343.424H121.078L126.714 330.529L136.457 331.484Z" fill="black"/>
<path opacity="0.2" d="M69.6528 302.087L76.9601 308.953L68.817 317.896L61.5098 311.03L69.6528 302.087Z" fill="black"/>
<path d="M169.77 88.7796C169.77 88.7796 174.188 90.6661 159.466 148.814L118.679 145.292C120.804 128.743 121.7 118.51 116.721 83.7529C122.533 83.066 128.387 82.8026 134.237 82.9648C140.44 83.061 146.628 83.5957 152.756 84.5648C158.494 85.6838 164.173 87.0905 169.77 88.7796Z" fill="#407BFF"/>
<path d="M141.531 103.585C141.496 103.597 141.458 103.597 141.424 103.585C132.6 96.3256 127.096 85.1258 128.863 82.4871C128.885 82.4494 128.922 82.4219 128.964 82.4108C129.006 82.3996 129.052 82.4056 129.09 82.4274C129.128 82.452 129.156 82.4905 129.167 82.5349C129.178 82.5793 129.172 82.6263 129.149 82.6662C127.549 85.1378 133.018 96.1345 141.448 103.155C143.573 96.7435 147.191 94.1763 147.226 94.1525C147.264 94.1357 147.307 94.1325 147.347 94.1435C147.387 94.1544 147.421 94.1789 147.445 94.2126C147.469 94.2464 147.481 94.2874 147.478 94.3287C147.475 94.3699 147.458 94.4089 147.429 94.439C147.429 94.439 143.776 97.03 141.686 103.501C141.678 103.527 141.664 103.549 141.646 103.568C141.627 103.587 141.604 103.601 141.579 103.609L141.531 103.585Z" fill="white"/>
<path d="M155.645 103.979C155.616 103.973 155.589 103.958 155.568 103.937C155.547 103.916 155.532 103.889 155.526 103.86C153.675 97.1972 149.986 94.5465 149.95 94.5227C149.923 94.4888 149.908 94.4467 149.908 94.4033C149.908 94.3599 149.923 94.3177 149.95 94.2839C149.983 94.2545 150.025 94.2383 150.07 94.2383C150.114 94.2383 150.156 94.2545 150.189 94.2839C150.189 94.2839 153.902 96.9465 155.813 103.502C160.242 98.0688 157.723 87.7407 156.004 85.0901C155.981 85.0502 155.975 85.0032 155.986 84.9588C155.997 84.9144 156.025 84.8759 156.063 84.8513C156.094 84.8227 156.135 84.8069 156.177 84.8069C156.219 84.8069 156.259 84.8227 156.29 84.8513C158.069 87.6094 160.684 98.427 155.86 103.955C155.831 103.98 155.795 103.996 155.757 104.001C155.718 104.005 155.68 103.997 155.645 103.979Z" fill="white"/>
<path d="M137.878 62.2727C138.523 68.3263 138.75 79.3469 134.236 82.9647C138.622 87.0325 143.519 90.5124 148.803 93.3167C155.896 88.4213 152.755 84.5647 152.755 84.5647C146.248 82.4035 146.785 77.4962 148.409 72.959L137.878 62.2727Z" fill="#FFC3BD"/>
<path opacity="0.2" d="M142.165 66.6309L148.398 72.9591C148.021 74.0107 147.737 75.0934 147.55 76.1948C145.043 75.6097 141.413 73.0068 141.365 70.3203C141.418 69.0537 141.689 67.8057 142.165 66.6309Z" fill="black"/>
<path d="M132.541 52.8043C135.072 62.4877 135.932 66.6308 141.866 70.7143C150.797 76.8157 162.164 71.5979 162.558 61.3534C162.928 52.1357 158.737 37.8555 148.373 35.8376C146.094 35.384 143.736 35.5201 141.524 36.2331C139.311 36.9461 137.318 38.2123 135.732 39.9117C134.146 41.6111 133.021 43.6874 132.462 45.9437C131.904 48.1999 131.931 50.5615 132.541 52.8043Z" fill="#FFC3BD"/>
<path d="M135.3 60.052C138.583 64.828 147.144 36.375 136.052 37.2705C124.96 38.166 126.297 50.2134 135.3 60.052Z" fill="#263238"/>
<path d="M136.767 38.8943C143.179 42.1539 161.841 46.0583 159.286 40.8644C157.891 38.2588 155.815 36.0813 153.279 34.5649C150.742 33.0485 147.841 32.2503 144.886 32.2556C138.797 32.1601 131.107 36.0287 136.767 38.8943Z" fill="#263238"/>
<path d="M131.741 61.007C132.186 61.8579 132.795 62.6124 133.532 63.2272C134.27 63.8419 135.122 64.3047 136.039 64.589C138.499 65.3292 139.777 63.1442 139.132 60.804C138.559 58.6906 136.589 55.7653 134.105 56.028C133.562 56.0998 133.045 56.3064 132.602 56.629C132.159 56.9516 131.804 57.3798 131.569 57.8748C131.334 58.3697 131.227 58.9156 131.257 59.4627C131.287 60.0098 131.453 60.5407 131.741 61.007Z" fill="#FFC3BD"/>
<path d="M159.465 148.814C159.465 148.814 173.268 209.863 164.062 252.907C157.889 281.73 135.633 339.961 135.633 339.961L118.236 339.52C118.236 339.52 135.084 278.411 138.534 254.375C144.504 213.266 129.579 146.235 129.579 146.235L159.465 148.814Z" fill="#263238"/>
<path opacity="0.2" d="M143.55 161.112L134.857 174.843C137.479 191.113 139.141 207.523 139.836 223.988C152.063 202.102 146.272 172.742 143.55 161.112Z" fill="black"/>
<path d="M138.082 340.869L116.59 340.32L117.844 333.717L139.765 334.756L138.082 340.869Z" fill="#407BFF"/>
<path d="M150.546 148.169C150.546 148.169 142.45 212.908 124.899 248.25C110.726 276.811 72.8999 317.442 72.8999 317.442L63.2285 307.484C63.2285 307.484 88.7801 263.306 99.3112 244.346C125.149 197.851 104.087 162.366 118.678 145.244L150.546 148.169Z" fill="#263238"/>
<path d="M73.8796 318.78L61.4023 306.613L65.5455 300.977L78.775 314.195L73.8796 318.78Z" fill="#407BFF"/>
<path d="M118.273 142.844L116.124 146.33C115.957 146.605 116.267 146.915 116.733 146.963L159.514 150.664C159.884 150.664 160.206 150.533 160.242 150.306L160.923 146.724C160.923 146.474 160.672 146.235 160.278 146.199L118.966 142.617C118.84 142.593 118.711 142.601 118.59 142.641C118.469 142.681 118.36 142.75 118.273 142.844Z" fill="#407BFF"/>
<path opacity="0.3" d="M118.273 142.844L116.124 146.33C115.957 146.605 116.267 146.915 116.733 146.963L159.514 150.664C159.884 150.664 160.206 150.533 160.242 150.306L160.923 146.724C160.923 146.474 160.672 146.235 160.278 146.199L118.966 142.617C118.84 142.593 118.711 142.601 118.59 142.641C118.469 142.681 118.36 142.75 118.273 142.844Z" fill="black"/>
<path d="M123.418 147.978L122.32 147.882C122.093 147.882 121.938 147.727 121.961 147.596L122.893 142.891C122.893 142.76 123.12 142.665 123.346 142.677L124.445 142.772C124.672 142.772 124.827 142.927 124.803 143.059L123.872 147.763C123.848 147.859 123.645 147.978 123.418 147.978Z" fill="#263238"/>
<path d="M156.374 150.784L155.263 150.688C155.048 150.688 154.881 150.545 154.917 150.402L155.836 145.709C155.836 145.566 156.075 145.47 156.29 145.494L157.4 145.59C157.615 145.59 157.771 145.733 157.747 145.876L156.815 150.569C156.792 150.712 156.589 150.808 156.374 150.784Z" fill="#263238"/>
<path d="M139.897 149.363L138.786 149.267C138.571 149.267 138.416 149.124 138.44 148.981L139.371 144.288C139.371 144.145 139.598 144.05 139.813 144.073L140.923 144.169C141.15 144.169 141.306 144.312 141.282 144.444L140.35 149.148C140.308 149.228 140.241 149.292 140.159 149.331C140.078 149.37 139.985 149.381 139.897 149.363Z" fill="#263238"/>
<path d="M148.935 52.4579C149.09 53.2579 149.64 53.819 150.129 53.7116C150.619 53.6041 150.953 52.8877 150.798 52.0877C150.643 51.2878 150.093 50.7266 149.604 50.8221C149.114 50.9176 148.768 51.6698 148.935 52.4579Z" fill="#263238"/>
<path d="M157.949 50.691C158.105 51.491 158.654 52.0641 159.143 51.9566C159.633 51.8492 159.955 51.1208 159.8 50.3208C159.645 49.5209 159.096 48.9597 158.606 49.0671C158.117 49.1746 157.794 49.9029 157.949 50.691Z" fill="#263238"/>
<path d="M158.391 49.1506L160.194 48.2312C160.194 48.2312 159.501 49.9147 158.391 49.1506Z" fill="#263238"/>
<path d="M154.846 52.6848C155.907 54.3672 157.193 55.8976 158.666 57.234C158.316 57.6021 157.891 57.8899 157.419 58.0775C156.947 58.2651 156.439 58.348 155.932 58.3205L154.846 52.6848Z" fill="#ED847E"/>
<path d="M152.267 62.1176C150.585 62.1396 148.959 61.5206 147.717 60.3863C147.68 60.3482 147.658 60.2967 147.658 60.243C147.658 60.1893 147.68 60.1378 147.717 60.0997C147.735 60.0813 147.757 60.0667 147.78 60.0567C147.804 60.0467 147.829 60.0415 147.855 60.0415C147.88 60.0415 147.906 60.0467 147.929 60.0567C147.953 60.0667 147.974 60.0813 147.992 60.0997C148.757 60.77 149.669 61.252 150.654 61.507C151.638 61.762 152.669 61.783 153.664 61.5683C153.716 61.5577 153.77 61.568 153.815 61.597C153.859 61.6261 153.891 61.6715 153.902 61.7236C153.908 61.7487 153.908 61.7746 153.903 61.7997C153.897 61.8249 153.887 61.8488 153.873 61.8699C153.858 61.8911 153.84 61.9092 153.818 61.923C153.797 61.9368 153.772 61.9461 153.747 61.9504C153.26 62.0554 152.764 62.1114 152.267 62.1176Z" fill="#263238"/>
<path d="M143.515 49.3775C143.448 49.3947 143.378 49.3947 143.312 49.3775C143.266 49.3506 143.227 49.3148 143.196 49.2724C143.165 49.23 143.142 49.1818 143.13 49.1306C143.118 49.0794 143.116 49.0263 143.124 48.9743C143.133 48.9224 143.152 48.8727 143.18 48.8283C143.546 48.1821 144.063 47.634 144.687 47.2307C145.311 46.8274 146.023 46.5808 146.762 46.5119C146.814 46.5103 146.866 46.5189 146.914 46.5373C146.962 46.5556 147.007 46.5833 147.044 46.6188C147.082 46.6543 147.112 46.6969 147.134 46.7441C147.155 46.7913 147.167 46.8422 147.168 46.894C147.17 46.9457 147.161 46.9973 147.143 47.0457C147.124 47.0941 147.097 47.1384 147.061 47.1761C147.026 47.2139 146.983 47.2442 146.936 47.2654C146.889 47.2867 146.838 47.2984 146.786 47.2999C146.175 47.3658 145.588 47.5769 145.075 47.9154C144.562 48.254 144.138 48.7102 143.837 49.2461C143.797 49.2913 143.747 49.3266 143.691 49.3494C143.635 49.3721 143.575 49.3818 143.515 49.3775Z" fill="#263238"/>
<path d="M160.456 46.1775C160.389 46.1942 160.32 46.1942 160.253 46.1775C159.728 45.8622 159.136 45.677 158.525 45.6375C157.915 45.5981 157.303 45.7054 156.743 45.9506C156.649 45.9976 156.54 46.0064 156.44 45.9752C156.34 45.9441 156.256 45.8753 156.205 45.7835C156.18 45.7373 156.165 45.6867 156.16 45.6345C156.155 45.5824 156.16 45.5297 156.176 45.4797C156.192 45.4297 156.217 45.3832 156.251 45.3431C156.284 45.303 156.326 45.2701 156.372 45.2462C157.052 44.9392 157.795 44.8006 158.539 44.8422C159.283 44.8837 160.006 45.1042 160.647 45.485C160.693 45.5099 160.733 45.5436 160.765 45.5842C160.798 45.6247 160.822 45.6713 160.836 45.7213C160.851 45.7712 160.855 45.8235 160.849 45.8752C160.843 45.9268 160.827 45.9768 160.802 46.0223C160.761 46.0744 160.709 46.1158 160.648 46.1428C160.588 46.1699 160.522 46.1818 160.456 46.1775Z" fill="#263238"/>
<path d="M122.536 99.0241C120.936 101.675 119.241 104.397 117.653 107.119C116.065 109.842 114.429 112.54 112.877 115.274C111.325 118.009 109.88 120.743 108.65 123.465C108.316 124.146 108.053 124.815 107.743 125.483C107.432 126.152 107.241 126.785 106.99 127.441C106.876 127.739 106.792 128.047 106.74 128.361C106.74 128.516 106.74 128.468 106.668 128.444C106.596 128.42 106.871 128.898 107.862 129.316C109.014 129.774 110.217 130.095 111.444 130.271C114.385 130.696 117.357 130.867 120.327 130.785C126.604 130.614 132.866 130.096 139.085 129.232L140.279 134.474C133.935 136.462 127.426 137.877 120.829 138.701C117.365 139.149 113.867 139.265 110.381 139.047C108.403 138.919 106.448 138.538 104.566 137.913C103.417 137.522 102.325 136.98 101.319 136.301C100.015 135.442 98.9412 134.277 98.1918 132.908C97.4425 131.538 97.0403 130.005 97.0204 128.444C97.0054 127.148 97.1824 125.856 97.5458 124.612C97.8085 123.74 98.0592 122.833 98.3458 121.997C98.6323 121.161 98.9189 120.325 99.2413 119.513C100.507 116.289 101.904 113.257 103.42 110.296C104.937 107.334 106.501 104.433 108.125 101.579C109.748 98.7256 111.444 95.9436 113.319 93.1497L122.536 99.0241Z" fill="#FFC3BD"/>
<path d="M136.648 130.45L144.612 126.235L144.91 135.107C144.91 135.107 139.346 137.113 136.051 134.534L136.648 130.45Z" fill="#FFC3BD"/>
<path d="M149.459 126.868L148.265 134.725L144.91 135.107L144.6 126.235L149.459 126.868Z" fill="#FFC3BD"/>
<path d="M116.721 83.7528C111.718 84.6961 104.709 99.0241 104.709 99.0241L120.231 112.457C120.231 112.457 127.335 99.4897 126.81 92.9705C126.356 87.3945 123.085 82.6305 116.721 83.7528Z" fill="#407BFF"/>
<path d="M66.4886 328.331C66.3552 328.329 66.2227 328.309 66.0946 328.272C64.9006 327.866 64.1125 325.645 63.7066 324.367C63.6864 324.335 63.6758 324.298 63.6758 324.26C63.6758 324.222 63.6864 324.185 63.7066 324.152C63.741 324.133 63.7802 324.122 63.82 324.122C63.8598 324.122 63.8989 324.133 63.9334 324.152C64.2916 324.344 67.5154 326.051 67.5871 327.305C67.6024 327.442 67.5793 327.58 67.5202 327.704C67.4611 327.829 67.3685 327.934 67.2528 328.009C67.0362 328.191 66.7699 328.303 66.4886 328.331ZM64.2677 324.749C64.8289 326.529 65.5453 327.699 66.2259 327.926C66.38 327.972 66.5435 327.978 66.7004 327.942C66.8574 327.906 67.0024 327.831 67.1214 327.723C67.1825 327.686 67.2318 327.633 67.2636 327.57C67.2954 327.506 67.3082 327.435 67.3005 327.364C67.2408 326.552 65.3662 325.335 64.2677 324.69V324.749Z" fill="#407BFF"/>
<path d="M66.9779 325.215C65.8898 325.211 64.8165 324.963 63.8377 324.487C63.8083 324.467 63.7841 324.441 63.7675 324.41C63.7508 324.378 63.7421 324.343 63.7422 324.308C63.7443 324.273 63.7552 324.24 63.7741 324.21C63.7929 324.181 63.8189 324.157 63.8496 324.141C63.9571 324.081 66.4884 322.684 67.8496 323.174C68.0174 323.229 68.1708 323.321 68.2989 323.443C68.4269 323.565 68.5263 323.713 68.5898 323.878C68.675 324.038 68.7036 324.221 68.6711 324.399C68.6386 324.577 68.5468 324.738 68.4107 324.857C67.9868 325.134 67.4822 325.26 66.9779 325.215ZM64.375 324.308C65.4615 324.774 67.563 325.06 68.16 324.559C68.2555 324.475 68.351 324.332 68.16 324.033C68.1161 323.921 68.0487 323.819 67.9622 323.734C67.8757 323.65 67.7722 323.585 67.6585 323.544C66.7869 323.221 65.1033 323.962 64.3392 324.308H64.375Z" fill="#407BFF"/>
<path d="M132.935 353.573C131.833 353.549 130.737 353.413 129.663 353.167C129.623 353.155 129.586 353.132 129.559 353.1C129.531 353.068 129.514 353.029 129.508 352.987C129.506 352.946 129.516 352.904 129.537 352.868C129.559 352.832 129.59 352.803 129.627 352.784C130.117 352.558 134.403 350.552 135.597 351.292C135.698 351.359 135.777 351.453 135.828 351.562C135.878 351.672 135.898 351.793 135.884 351.913C135.875 352.131 135.816 352.344 135.713 352.537C135.61 352.729 135.464 352.895 135.287 353.023C134.582 353.453 133.757 353.645 132.935 353.573ZM130.344 352.892C131.633 353.143 134.021 353.453 135 352.713C135.133 352.62 135.24 352.496 135.315 352.353C135.39 352.21 135.429 352.051 135.43 351.889C135.43 351.722 135.43 351.662 135.323 351.626C134.714 351.208 132.147 352.152 130.344 352.892Z" fill="#407BFF"/>
<path d="M129.712 353.167C129.67 353.184 129.623 353.184 129.581 353.167C129.561 353.139 129.551 353.106 129.551 353.072C129.551 353.037 129.561 353.004 129.581 352.976C129.581 352.797 130.608 348.51 132.96 348.785C133.545 348.857 133.712 349.143 133.736 349.382C133.891 350.469 131.157 352.666 129.843 353.203L129.712 353.167ZM132.685 349.119C131.181 349.119 130.297 351.615 130.011 352.606C131.431 351.866 133.378 350.087 133.282 349.382C133.282 349.382 133.282 349.179 132.852 349.131L132.685 349.119Z" fill="#407BFF"/>
<path d="M149.365 50.9296L151.18 49.9983C151.18 49.9983 150.488 51.6937 149.365 50.9296Z" fill="#263238"/>
<path d="M358.816 89.675C358.757 90.4989 358.685 91.084 358.601 91.7645C358.518 92.4451 358.422 93.0541 358.315 93.6869C358.1 94.9645 357.849 96.2182 357.575 97.4719C357.016 99.97 356.327 102.437 355.509 104.863C353.843 109.765 351.581 114.445 348.775 118.797L347.676 120.421L347.402 120.815L347.234 121.053L346.984 121.388C346.62 121.818 346.22 122.218 345.79 122.582C344.386 123.844 342.711 124.767 340.894 125.28C338.107 126.03 335.209 126.284 332.333 126.032C327.254 125.613 322.261 124.471 317.504 122.641L318.793 117.495C323.284 117.954 327.804 118.046 332.309 117.77C334.215 117.662 336.092 117.259 337.874 116.576C338.335 116.385 338.745 116.086 339.068 115.704C338.936 115.883 339.736 114.51 340.262 113.651C342.35 109.795 344.035 105.733 345.288 101.531C345.933 99.4061 346.482 97.2569 346.96 95.1077C347.199 94.0212 347.414 92.9347 347.605 91.8601L347.855 90.2482L348.07 88.7795L358.816 89.675Z" fill="#E6A078"/>
<path d="M361.3 82.6663C361.563 89.3526 358.972 101.412 358.972 101.412L342.423 99.4061C342.423 99.4061 341.814 81.7588 345.026 77.4962C350.411 70.3681 361.061 76.3381 361.3 82.6663Z" fill="#263238"/>
<path d="M321.049 118.2L311.139 114.677L313.204 122.104C313.204 122.104 317.837 124.815 320.488 121.734L321.049 118.2Z" fill="#E6A078"/>
<path d="M307.736 116.576L306.375 121.818L313.217 122.104L311.151 114.677L307.736 116.576Z" fill="#E6A078"/>
<path d="M261.195 151.274C268.093 151.378 274.942 150.11 281.344 147.543C287.747 144.975 293.575 141.161 298.489 136.32C303.404 131.48 307.306 125.71 309.97 119.347C312.634 112.984 314.006 106.155 314.006 99.257C314.006 92.3589 312.634 85.5298 309.97 79.1669C307.306 72.804 303.404 67.0344 298.489 62.1938C293.575 57.3533 287.747 53.5384 281.344 50.9713C274.942 48.4041 268.093 47.1358 261.195 47.2403H254.449V151.274H261.195Z" fill="#407BFF"/>
<path d="M254.448 151.273C283.18 151.273 306.471 127.982 306.471 99.2509C306.471 70.5196 283.18 47.2283 254.448 47.2283C225.717 47.2283 202.426 70.5196 202.426 99.2509C202.426 127.982 225.717 151.273 254.448 151.273Z" fill="#407BFF"/>
<path opacity="0.4" d="M254.448 151.273C283.18 151.273 306.471 127.982 306.471 99.2509C306.471 70.5196 283.18 47.2283 254.448 47.2283C225.717 47.2283 202.426 70.5196 202.426 99.2509C202.426 127.982 225.717 151.273 254.448 151.273Z" fill="black"/>
<path opacity="0.2" d="M287.065 131.874C305.078 113.861 305.078 84.6572 287.065 66.6445C269.052 48.6319 239.848 48.6319 221.835 66.6445C203.823 84.6572 203.823 113.861 221.835 131.874C239.848 149.887 269.052 149.887 287.065 131.874Z" fill="#407BFF"/>
<path d="M278.16 102.224C276 99.8009 273.092 98.1701 269.898 97.5913C272.039 96.9362 273.973 95.7346 275.509 94.1048C277.426 91.9147 278.453 89.0861 278.387 86.1767C278.421 84.438 278.078 82.7126 277.381 81.1193C276.685 79.526 275.651 78.1026 274.351 76.947C271.669 74.4555 267.816 73.2098 262.793 73.2098H259.701V64.4697H253.862V73.2098H246.627V64.4697H240.788V73.2098H228.096V83.7648H232.693V114.749H228.132V125.292H240.824V134.032H246.662V125.292H253.898V134.032H259.737V125.292H260.477C262.876 125.177 265.267 124.938 267.641 124.576C269.77 124.411 271.849 123.844 273.766 122.904C275.909 121.69 277.69 119.926 278.924 117.794C280.191 115.578 280.838 113.062 280.799 110.51C280.921 107.524 279.986 104.59 278.16 102.224ZM248.895 83.7648H255.999C258.447 83.7648 260.155 84.1946 261.134 85.0423C261.634 85.4892 262.028 86.0436 262.284 86.6638C262.54 87.2841 262.653 87.9543 262.614 88.6243C262.656 89.3194 262.545 90.0151 262.289 90.6628C262.033 91.3104 261.639 91.8943 261.134 92.3735C260.155 93.2332 258.411 93.663 255.904 93.663H248.895V83.7648ZM262.972 112.636C261.778 113.615 259.88 114.104 257.11 114.104H248.895V103.561H257.074C259.892 103.561 261.862 104.027 262.984 104.958C263.534 105.405 263.973 105.972 264.267 106.616C264.561 107.261 264.702 107.964 264.68 108.672C264.711 109.418 264.574 110.162 264.278 110.848C263.982 111.534 263.536 112.145 262.972 112.636Z" fill="white"/>
<path d="M311.712 48.3747C311.712 49.1508 311.271 49.7836 310.769 49.7955C310.268 49.8075 309.85 49.1747 309.862 48.4105C309.874 47.6464 310.291 47.0016 310.805 46.9897C311.318 46.9777 311.724 47.6105 311.712 48.3747Z" fill="#263238"/>
<path d="M311.032 47.0373L309.109 46.488C309.109 46.488 310.1 47.9567 311.032 47.0373Z" fill="#263238"/>
<path d="M311.043 49.1387C310.321 50.9194 309.361 52.5942 308.189 54.1177C308.59 54.3921 309.044 54.5769 309.522 54.6593C310 54.7418 310.491 54.7199 310.959 54.5952L311.043 49.1387Z" fill="#A02724"/>
<path d="M310.734 43.2405C310.805 43.2582 310.879 43.2582 310.949 43.2405C311.499 43.0428 312.087 42.9756 312.667 43.0439C313.247 43.1123 313.804 43.3145 314.292 43.6345C314.389 43.7073 314.511 43.7388 314.63 43.722C314.69 43.7137 314.747 43.6938 314.798 43.6634C314.85 43.633 314.895 43.5928 314.931 43.5449C314.967 43.4971 314.994 43.4426 315.009 43.3847C315.024 43.3267 315.027 43.2663 315.019 43.207C315.01 43.1477 314.99 43.0906 314.96 43.039C314.93 42.9873 314.889 42.9422 314.842 42.9061C314.232 42.505 313.538 42.249 312.813 42.1579C312.089 42.0668 311.353 42.1431 310.663 42.3808C310.605 42.3983 310.552 42.4272 310.506 42.4659C310.46 42.5046 310.423 42.5522 310.396 42.6058C310.369 42.6594 310.354 42.7179 310.35 42.7778C310.347 42.8376 310.356 42.8975 310.376 42.9539C310.405 43.0292 310.453 43.0954 310.516 43.1458C310.579 43.1961 310.654 43.2288 310.734 43.2405Z" fill="#263238"/>
<path d="M334.601 56.6252C334.087 62.44 336.033 71.9562 340.427 75.1919C340.427 75.1919 337.12 81.3052 326.529 82.7261C314.876 84.2902 320.344 77.7352 320.344 77.7352C326.541 75.3472 325.884 70.7264 324.308 66.4757L334.601 56.6252Z" fill="#E6A078"/>
<path d="M313.433 89.5438C312.167 95.5961 310.573 101.575 308.657 107.454C306.784 113.375 304.543 119.173 301.946 124.815L301.457 125.889C301.254 126.307 300.991 126.797 300.752 127.238C300.284 128.065 299.765 128.862 299.2 129.626C298.164 130.988 297.035 132.276 295.821 133.483C293.549 135.728 291.132 137.822 288.586 139.751C283.653 143.489 278.435 146.834 272.98 149.757L270.055 145.316C274.58 141.542 279.105 137.602 283.284 133.567C285.345 131.608 287.298 129.54 289.135 127.37C289.974 126.37 290.748 125.317 291.451 124.218C291.752 123.739 292.027 123.245 292.275 122.737L292.562 122.056L292.956 121.041C294.006 118.343 294.938 115.573 295.881 112.803C296.824 110.033 297.648 107.215 298.472 104.445C300.084 98.8092 301.6 93.0183 302.925 87.4185L313.433 89.5438Z" fill="#E6A078"/>
<path d="M273.516 149.339L268.023 152.921L265.301 148.253C265.301 148.253 270.698 141.805 273.957 146.39L273.516 149.339Z" fill="#E6A078"/>
<path d="M272.096 144.527L268.991 144.062L265.505 144.802L264.609 145.817L266.878 146.151L267.475 147.047L268.239 147.536L272.096 144.527Z" fill="#E6A078"/>
<path d="M262.568 153.387L259.547 150.951L265.302 148.277L268.024 152.945L262.568 153.387Z" fill="#E6A078"/>
<path d="M351.808 351.448L342.172 352.164L339.307 330.039L348.942 329.323L351.808 351.448Z" fill="#E6A078"/>
<path d="M413.502 323.341L405.156 328.415L391.281 311.078L399.627 306.004L413.502 323.341Z" fill="#E6A078"/>
<path d="M402.66 326.553L410.576 318.935C410.707 318.801 410.883 318.719 411.07 318.706C411.257 318.693 411.443 318.749 411.591 318.864L418.337 324.069C418.5 324.214 418.631 324.391 418.72 324.59C418.809 324.789 418.856 325.004 418.856 325.222C418.856 325.439 418.809 325.655 418.72 325.853C418.631 326.052 418.5 326.229 418.337 326.374C415.532 328.989 414.051 330.111 410.565 333.466C408.427 335.532 405.502 338.756 402.541 341.609C399.58 344.463 396.702 341.765 397.681 340.32C402.099 333.848 401.43 331.425 401.836 328.117C401.918 327.515 402.21 326.961 402.66 326.553Z" fill="#263238"/>
<path d="M341.574 350.791H352.403C352.59 350.789 352.771 350.854 352.914 350.975C353.056 351.095 353.15 351.263 353.179 351.448L354.636 360.009C354.667 360.223 354.651 360.44 354.59 360.648C354.529 360.855 354.425 361.047 354.283 361.21C354.141 361.373 353.966 361.504 353.77 361.593C353.573 361.683 353.359 361.729 353.143 361.728C349.358 361.728 347.532 361.442 342.768 361.442C339.842 361.442 333.789 361.74 329.741 361.74C325.693 361.74 325.383 357.74 327.054 357.382C334.565 355.758 337.49 353.513 339.974 351.412C340.416 351.021 340.983 350.8 341.574 350.791Z" fill="#263238"/>
<path opacity="0.2" d="M339.318 330.039L340.906 342.337L350.423 340.737L348.954 329.334L339.318 330.039Z" fill="black"/>
<path opacity="0.2" d="M399.627 306.004L391.281 311.09L397.024 318.254L405.55 313.395L399.627 306.004Z" fill="black"/>
<path d="M356.667 133.244L317.647 138.486C302.531 83.7529 306.997 82.2723 306.997 82.2723C309.917 80.8948 312.92 79.6985 315.988 78.6903L316.525 78.5232C319.044 77.7709 319.57 77.6635 322.925 76.8993C328.692 75.8844 334.041 75.0964 340.644 74.5113L341.838 74.4158C343.032 74.3322 344.226 74.2725 345.42 74.2367C346.196 74.2367 346.96 74.2367 347.688 74.177H351.497C352.244 74.1942 352.978 74.3662 353.655 74.682C354.332 74.9978 354.935 75.4506 355.428 76.0117C355.921 76.5728 356.292 77.23 356.517 77.9419C356.743 78.6537 356.818 79.4045 356.739 80.147C353.42 109.054 354.482 118.51 356.667 133.244Z" fill="#263238"/>
<path opacity="0.2" d="M313.886 99.024C314.663 104.684 313.938 110.449 311.784 115.74C309.182 105.066 307.785 97.83 307.08 92.8152C310.017 92.6839 313.122 93.8301 313.886 99.024Z" fill="black"/>
<path d="M307.331 82.1172C300.657 85.938 296.012 95.0482 294.615 100.338L308.836 113.352C308.836 113.352 318.03 95.6571 315.63 90.8692C313.122 85.8902 309.863 80.6724 307.331 82.1172Z" fill="#263238"/>
<path d="M337.897 45.8911C337.169 55.4431 337.073 59.431 332.154 64.3742C324.763 71.8128 313.133 69.1502 310.972 59.7295C309.038 51.2283 310.531 37.0435 319.987 33.1988C322.01 32.2951 324.233 31.9341 326.438 32.1513C328.643 32.3685 330.754 33.1565 332.561 34.4375C334.369 35.7186 335.812 37.4486 336.748 39.457C337.683 41.4654 338.079 43.6829 337.897 45.8911Z" fill="#E6A078"/>
<path d="M318.208 49.7238C319.187 46.3448 311.593 42.5001 310.781 37.3181C309.73 30.5959 314.936 25.1632 319.796 28.3273C321.766 23.8259 335.139 21.9275 342.482 27.5034C350.744 33.76 340.619 40.3748 348.858 45.9149C355.425 50.3327 356.32 53.0789 352.261 58.3684C349.18 62.3921 357.144 61.5325 355.126 68.3383C353.108 75.1441 311.915 77.6395 317.384 62.3683C322.243 48.8761 316.273 56.6251 318.208 49.7238Z" fill="#263238"/>
<path d="M320.523 48.9717C320.465 50.7429 319.86 52.4527 318.792 53.8671C317.311 55.873 315.58 55.3357 315.21 53.485C314.828 51.8253 315.15 48.7806 317.025 47.3956C318.9 46.0105 320.511 46.9896 320.523 48.9717Z" fill="#E6A078"/>
<path d="M351.843 58.7267C351.807 58.7261 351.772 58.7137 351.743 58.6914C351.715 58.6691 351.694 58.638 351.684 58.603C351.675 58.5679 351.677 58.5307 351.691 58.497C351.705 58.4633 351.729 58.4349 351.76 58.4162C354.351 56.9237 355.736 54.8342 355.676 52.6611C355.605 49.8672 353.288 47.0493 349.503 45.127C344.99 42.8345 345.336 39.7301 345.682 36.769C346.029 33.8079 346.375 30.6318 341.969 28.0766C341.93 28.052 341.902 28.0144 341.889 27.9705C341.876 27.9267 341.879 27.8796 341.897 27.8379C341.922 27.7993 341.961 27.7716 342.005 27.7605C342.049 27.7494 342.096 27.7557 342.136 27.7781C346.745 30.4527 346.375 33.6765 346.017 36.8048C345.659 39.9331 345.348 42.6912 349.599 44.8762C353.503 46.8463 355.879 49.7716 355.963 52.6969C355.963 55.0849 354.578 57.2103 351.879 58.7505C351.866 58.7444 351.854 58.7364 351.843 58.7267Z" fill="#263238"/>
<path d="M327.951 137.101C327.951 137.101 343.103 201.123 350.183 237.91C357.646 276.715 393.49 317.144 393.49 317.144L405.657 310.362C405.657 310.362 383.102 273.468 375.807 237.23C360.953 163.679 371.031 148.874 356.703 133.256L327.951 137.101Z" fill="#407BFF"/>
<path d="M392.284 318.278L407.472 309.813L405.251 305.323L388.213 313.168L392.284 318.278Z" fill="#263238"/>
<path opacity="0.2" d="M335.998 151.011C347.783 161.243 346.505 197.577 345.275 213.887C340.332 190.628 334.386 164.742 330.947 149.757C332.141 148.826 333.837 149.172 335.998 151.011Z" fill="black"/>
<path d="M399.341 330.97C399.455 330.989 399.572 330.989 399.687 330.97C400.881 330.97 402.302 329.108 403.018 328.009C403.042 327.972 403.054 327.928 403.054 327.884C403.054 327.84 403.042 327.796 403.018 327.759C402.994 327.719 402.958 327.688 402.915 327.671C402.872 327.654 402.824 327.651 402.78 327.663C402.397 327.735 398.947 328.463 398.493 329.609C398.443 329.735 398.426 329.872 398.445 330.006C398.464 330.14 398.518 330.267 398.601 330.373C398.771 330.652 399.033 330.862 399.341 330.97ZM402.314 328.26C401.311 329.693 400.344 330.541 399.675 330.553C399.532 330.553 399.392 330.515 399.268 330.444C399.145 330.373 399.042 330.27 398.971 330.147C398.933 330.101 398.907 330.046 398.897 329.987C398.887 329.929 398.891 329.868 398.911 329.812C399.162 329.203 400.941 328.594 402.314 328.272V328.26Z" fill="#407BFF"/>
<path d="M318.231 138.51C318.231 138.51 311.413 214.532 315.079 243.498C318.947 273.659 338.636 339.269 338.636 339.269L352.523 337.478C352.523 337.478 341.239 272.453 339.233 242.603C337.048 210.042 346.756 134.653 346.756 134.653L318.231 138.51Z" fill="#407BFF"/>
<path d="M335.724 340.093L355.533 337.538L355.222 331.687L333.742 333.765L335.724 340.093Z" fill="#263238"/>
<path d="M399.854 327.985C400.842 328.253 401.876 328.306 402.886 328.141C402.926 328.13 402.963 328.108 402.992 328.079C403.021 328.05 403.042 328.013 403.053 327.973C403.062 327.935 403.061 327.896 403.05 327.859C403.04 327.821 403.02 327.787 402.994 327.758C402.91 327.675 401.024 325.729 399.627 325.788C399.446 325.791 399.269 325.834 399.108 325.914C398.946 325.995 398.805 326.111 398.695 326.254C398.564 326.38 398.481 326.548 398.459 326.728C398.437 326.909 398.478 327.092 398.576 327.245C398.906 327.63 399.356 327.891 399.854 327.985ZM402.349 327.77C401.155 327.902 399.316 327.556 398.958 327.006C398.898 326.911 398.851 326.779 399.042 326.541C399.115 326.449 399.207 326.374 399.312 326.323C399.418 326.271 399.533 326.243 399.651 326.242C400.687 326.459 401.63 326.993 402.349 327.77Z" fill="#407BFF"/>
<path d="M337.992 352.474C339.008 352.456 340.02 352.34 341.013 352.128C341.059 352.119 341.101 352.095 341.133 352.061C341.165 352.027 341.186 351.984 341.192 351.937C341.2 351.89 341.193 351.841 341.171 351.798C341.15 351.755 341.115 351.72 341.073 351.698C340.631 351.471 336.727 349.501 335.568 350.17C335.46 350.228 335.369 350.314 335.304 350.419C335.239 350.524 335.202 350.644 335.198 350.767C335.177 350.974 335.206 351.183 335.283 351.377C335.36 351.57 335.482 351.742 335.64 351.877C336.335 352.335 337.163 352.545 337.992 352.474ZM340.249 351.806C338.124 352.152 336.536 352.068 335.939 351.543C335.838 351.449 335.76 351.334 335.71 351.206C335.66 351.078 335.641 350.94 335.652 350.803C335.652 350.754 335.666 350.706 335.691 350.664C335.716 350.622 335.752 350.587 335.795 350.564C336.428 350.206 338.649 351.042 340.249 351.806Z" fill="#407BFF"/>
<path d="M340.966 352.152C341.013 352.163 341.062 352.163 341.109 352.152C341.14 352.126 341.164 352.093 341.178 352.055C341.193 352.018 341.198 351.977 341.192 351.937C341.192 351.77 340.739 347.83 338.578 347.83H338.387C337.766 347.889 337.587 348.2 337.551 348.462C337.372 349.549 339.7 351.638 340.882 352.164L340.966 352.152ZM338.578 348.247C339.975 348.247 340.524 350.54 340.691 351.519C339.497 350.803 337.909 349.131 338.005 348.51C338.005 348.45 338.005 348.295 338.446 348.259L338.578 348.247Z" fill="#407BFF"/>
<path d="M357 130.892L359.125 134.128C359.292 134.379 359.006 134.689 358.552 134.749L317.634 140.241C317.287 140.241 316.977 140.157 316.929 139.943L316.213 136.528C316.213 136.289 316.44 136.038 316.834 135.99L356.331 130.689C356.451 130.663 356.575 130.668 356.692 130.703C356.809 130.739 356.915 130.804 357 130.892Z" fill="#407BFF"/>
<path opacity="0.5" d="M357 130.892L359.125 134.128C359.292 134.379 359.006 134.689 358.552 134.749L317.634 140.241C317.287 140.241 316.977 140.157 316.929 139.943L316.213 136.528C316.213 136.289 316.44 136.038 316.834 135.99L356.331 130.689C356.451 130.663 356.575 130.668 356.692 130.703C356.809 130.739 356.915 130.804 357 130.892Z" fill="white"/>
<path d="M352.166 136.038L353.229 135.895C353.432 135.895 353.587 135.74 353.551 135.608L352.584 131.167C352.584 131.047 352.357 130.964 352.142 130.987L351.091 131.131C350.877 131.131 350.721 131.286 350.757 131.417L351.724 135.859C351.76 135.931 351.951 136.038 352.166 136.038Z" fill="#407BFF"/>
<path d="M325.443 139.62L326.494 139.477C326.709 139.477 326.852 139.321 326.828 139.19L325.849 134.748C325.849 134.617 325.634 134.534 325.419 134.569L324.357 134.701C324.154 134.701 323.999 134.868 324.034 134.999L325.002 139.429C325.037 139.62 325.228 139.62 325.443 139.62Z" fill="#407BFF"/>
</g>
<defs>
<clipPath id="clip0">
<rect width="463" height="423" fill="white"/>
</clipPath>
</defs>
</svg>
