<svg width="887" height="882" viewBox="0 0 887 882" fill="none" xmlns="http://www.w3.org/2000/svg">
<path opacity="0.05" fill-rule="evenodd" clip-rule="evenodd" d="M528.563 745.254C466.724 770.564 473.923 814.254 359.064 814.254C292.695 803.244 235.596 734.754 192.064 683.454C147.882 631.387 129.897 595.473 111.662 529.666C90.1855 452.156 75.9225 366.286 111.751 294.284C149.066 219.294 221.402 154.656 304.282 142.572C383.404 131.036 443.174 210.507 519.339 234.858C588.55 256.985 671.758 231.391 727.584 277.908C787.047 327.455 819.922 407.554 819.485 484.955C819.061 560.032 779.434 631.448 725.293 683.454C677.923 728.955 620.921 707.454 528.563 745.254Z" fill="#0057FF"/>
</svg>
