<svg width="844" height="829" viewBox="0 0 844 829" fill="none" xmlns="http://www.w3.org/2000/svg">
<path opacity="0.05" fill-rule="evenodd" clip-rule="evenodd" d="M497.105 700.9C438.946 724.703 445.717 765.793 337.693 765.793C275.275 755.438 221.574 691.024 180.633 642.777C139.08 593.809 122.165 560.033 105.016 498.142C84.8178 425.245 71.4036 344.486 105.1 276.769C140.194 206.242 208.224 145.451 286.172 134.087C360.585 123.237 416.798 197.978 488.43 220.88C553.521 241.69 631.778 217.62 684.281 261.368C740.205 307.967 771.123 383.298 770.712 456.092C770.313 526.701 733.044 593.867 682.126 642.777C637.575 685.57 583.966 665.349 497.105 700.9Z" fill="#0057FF"/>
</svg>
