<svg width="80" height="80" viewBox="0 0 80 80" fill="none" xmlns="http://www.w3.org/2000/svg">
<rect x="1" y="1" width="78" height="78" rx="19" stroke="#0057FF" stroke-width="2"/>
<path fill-rule="evenodd" clip-rule="evenodd" d="M40.2267 25.9517C40.1943 25.9506 40.1619 25.9512 40.1296 25.9535C39.9679 25.9638 39.8115 26.0163 39.6757 26.1061C39.54 26.1958 39.4295 26.3197 39.3551 26.4657L35.3616 34.3273L26.7593 35.4276C26.5865 35.45 26.4233 35.5207 26.2879 35.6319C26.1526 35.743 26.0505 35.8901 25.9931 36.0568C25.9357 36.2235 25.9252 36.403 25.9628 36.5754C26.0005 36.7477 26.0848 36.906 26.2063 37.0325L32.3019 43.3448L30.6631 52.0414C30.6296 52.2158 30.6451 52.3962 30.7077 52.5622C30.7704 52.7281 30.8777 52.8729 31.0175 52.9802C31.1572 53.0874 31.3239 53.1528 31.4985 53.1689C31.6731 53.185 31.8487 53.1511 32.0052 53.0712L39.7561 49.1098L47.355 53.3811C47.5077 53.4654 47.6805 53.5051 47.8542 53.4956C48.0279 53.4861 48.1955 53.4279 48.3384 53.3274C48.4813 53.2269 48.5937 53.0881 48.6632 52.9265C48.7327 52.765 48.7565 52.587 48.7319 52.4125L47.4374 43.6473L53.7692 37.5948C53.898 37.4735 53.9907 37.318 54.0365 37.146C54.0823 36.974 54.0795 36.7924 54.0283 36.6219C53.9771 36.4514 53.8797 36.299 53.7471 36.182C53.6145 36.0649 53.4521 35.988 53.2784 35.9601L44.7256 34.5165L41.0433 26.5009C40.9704 26.3419 40.8556 26.2065 40.7115 26.1096C40.5673 26.0126 40.3995 25.958 40.2267 25.9517Z" fill="#0057FF"/>
</svg>
