<svg width="80" height="80" viewBox="0 0 80 80" fill="none" xmlns="http://www.w3.org/2000/svg">
<rect x="1" y="1" width="78" height="78" rx="19" stroke="#0057FF" stroke-width="2"/>
<g clip-path="url(#clip0)">
<path d="M40.0004 33.4186C35.9604 33.4186 32.6804 36.6309 32.6804 40.5876C32.6804 44.5443 35.9604 47.7567 40.0004 47.7567C44.0404 47.7567 47.3204 44.5443 47.3204 40.5876C47.3204 36.6309 44.0404 33.4186 40.0004 33.4186ZM40.0004 44.6619C37.7204 44.6619 35.8404 42.8206 35.8404 40.5876C35.8404 38.3547 37.7204 36.5134 40.0004 36.5134C42.2804 36.5134 44.1604 38.3547 44.1604 40.5876C44.1604 42.8206 42.2804 44.6619 40.0004 44.6619Z" fill="#0057FF"/>
<path d="M57.44 39.0598H54C53.28 32.6742 48.08 27.5814 41.56 26.8763V23.5072C41.56 22.6453 40.84 21.9794 40 21.9794C39.12 21.9794 38.44 22.6845 38.44 23.5072V26.8763C31.92 27.5814 26.72 32.6742 26 39.0598H22.56C21.68 39.0598 21 39.7649 21 40.5876C21 41.4495 21.72 42.1155 22.56 42.1155H26C26.72 48.501 31.92 53.5938 38.44 54.299V57.6289C38.44 58.4907 39.16 59.1567 40 59.1567C40.88 59.1567 41.56 58.4515 41.56 57.6289V54.299C48.08 53.5938 53.28 48.501 54 42.1155H57.4C58.28 42.1155 58.96 41.4103 58.96 40.5876C59 39.7258 58.28 39.0598 57.44 39.0598ZM40 51.3216C33.96 51.3216 29.04 46.5031 29.04 40.5876C29.04 34.6722 33.96 29.8536 40 29.8536C46.04 29.8536 50.96 34.6722 50.96 40.5876C50.96 46.5031 46.04 51.3216 40 51.3216Z" fill="#0057FF"/>
</g>
<defs>
<clipPath id="clip0">
<rect width="40" height="38" fill="white" transform="translate(20 21)"/>
</clipPath>
</defs>
</svg>
