<svg width="80" height="80" viewBox="0 0 80 80" fill="none" xmlns="http://www.w3.org/2000/svg">
<rect x="1" y="1" width="78" height="78" rx="19" stroke="#0057FF" stroke-width="2"/>
<path d="M39.8122 39.955C43.8237 39.955 47.0756 36.8311 47.0756 32.9775C47.0756 29.1239 43.8237 26 39.8122 26C35.8008 26 32.5488 29.1239 32.5488 32.9775C32.5488 36.8311 35.8008 39.955 39.8122 39.955Z" fill="#0057FF"/>
<path d="M28.238 49.8136C27.3945 51.7943 28.8941 54.0001 31.1434 54.0001H48.8566C51.1059 54.0001 52.6055 51.7943 51.762 49.8136C49.5595 44.7718 45.1078 41.3506 40 41.3506C34.8922 41.3506 30.3936 44.7718 28.238 49.8136Z" fill="#0057FF"/>
</svg>
