<svg width="80" height="80" viewBox="0 0 80 80" fill="none" xmlns="http://www.w3.org/2000/svg">
<rect x="1" y="1" width="78" height="78" rx="19" stroke="#0057FF" stroke-width="2"/>
<path d="M39.9988 37.7316C43.1468 37.7316 45.6988 35.2146 45.6988 32.1097C45.6988 29.0048 43.1468 26.4878 39.9988 26.4878C36.8508 26.4878 34.2988 29.0048 34.2988 32.1097C34.2988 35.2146 36.8508 37.7316 39.9988 37.7316Z" fill="#0057FF"/>
<path d="M52.7988 37.5838C55.146 37.5838 57.0488 35.707 57.0488 33.392C57.0488 31.0769 55.146 29.2002 52.7988 29.2002C50.4516 29.2002 48.5488 31.0769 48.5488 33.392C48.5488 35.707 50.4516 37.5838 52.7988 37.5838Z" fill="#0057FF"/>
<path d="M61.2492 47.4961C60.3992 42.2194 57.5992 39.0632 52.7992 39.0632C50.9492 39.0632 49.4492 39.5071 48.1992 40.3947C48.3492 40.5427 48.4992 40.6906 48.6992 40.8386C50.7492 42.9591 52.1492 46.0167 52.7992 49.9125C52.7992 50.0605 52.8492 50.2084 52.8492 50.3071C57.4992 50.3564 61.5992 49.5673 61.2492 47.4961Z" fill="#0057FF"/>
<path d="M27.1992 37.5838C29.5464 37.5838 31.4492 35.707 31.4492 33.392C31.4492 31.0769 29.5464 29.2002 27.1992 29.2002C24.852 29.2002 22.9492 31.0769 22.9492 33.392C22.9492 35.707 24.852 37.5838 27.1992 37.5838Z" fill="#0057FF"/>
<path d="M31.3492 40.8386C31.4992 40.6906 31.6492 40.5427 31.7992 40.3947C30.5492 39.5071 28.9992 39.0632 27.1992 39.0632C22.4492 39.0632 19.6492 42.1701 18.7492 47.4961C18.3992 49.5673 22.5492 50.3564 27.1992 50.3564C27.1992 50.2084 27.1992 50.0605 27.2492 49.9619C27.8492 46.066 29.2492 43.0084 31.3492 40.8386Z" fill="#0057FF"/>
<path d="M39.9996 54.0057C33.7496 54.0057 28.2496 52.9208 28.6996 50.2084C29.8996 43.1071 33.6496 38.9646 39.9996 38.9646C46.3496 38.9646 50.0996 43.1564 51.2996 50.2084C51.7496 52.9208 46.2496 54.0057 39.9996 54.0057Z" fill="#0057FF"/>
</svg>
