<svg width="80" height="80" viewBox="0 0 80 80" fill="none" xmlns="http://www.w3.org/2000/svg">
<rect x="1" y="1" width="78" height="78" rx="19" stroke="#0057FF" stroke-width="2"/>
<path d="M54.3423 52.4784H25.6577C24.6567 52.4784 23.8428 51.6285 23.8428 50.5848V28.4847C23.8428 27.4402 24.6571 26.5903 25.6577 26.5903H40H54.3423C55.3433 26.5903 56.1572 27.4406 56.1572 28.4847V50.5844C56.1576 51.6285 55.3433 52.4784 54.3423 52.4784ZM25.6577 27.3482C25.0573 27.3482 24.5686 27.8577 24.5686 28.4847V50.5844C24.5686 51.211 25.0573 51.7205 25.6577 51.7205H54.3423C54.9424 51.7205 55.4314 51.211 55.4314 50.5844V28.4847C55.4314 27.8577 54.9424 27.3482 54.3423 27.3482H25.6577Z" fill="#0057FF"/>
<path d="M25.6577 27.3482C25.0573 27.3482 24.5686 27.8577 24.5686 28.4847V50.5844C24.5686 51.211 25.0573 51.7205 25.6577 51.7205H54.3423C54.9424 51.7205 55.4314 51.211 55.4314 50.5844V28.4847C55.4314 27.8577 54.9424 27.3482 54.3423 27.3482H25.6577Z" fill="#0057FF"/>
<path d="M52.6819 44.3237L45.62 43L38.4475 46.7674L31.8925 46.0238L27 48.7046" stroke="white"/>
<path d="M48.5504 34.954L51.8606 31.4996C51.8032 31.4024 51.7428 31.3076 51.6797 31.2148L48.2878 34.7542L48.5504 34.954Z" fill="white"/>
<path d="M47.9887 34.5265L51.4578 30.9058C51.3901 30.819 51.3206 30.7353 51.2476 30.6528L47.7273 34.327L47.9887 34.5265Z" fill="white"/>
<path d="M47.4651 33.048L50.4656 29.9172C50.3785 29.8501 50.2889 29.7851 50.1977 29.7236L47.4655 32.5749V33.048H47.4651Z" fill="white"/>
<path d="M47.4651 32.0349L49.875 29.5207C49.7762 29.4639 49.6767 29.4112 49.5745 29.3608L47.4651 31.5622V32.0349Z" fill="white"/>
<path d="M47.4651 31.0221L49.2135 29.1975C49.1033 29.1531 48.9908 29.1134 48.8768 29.0762L47.4651 30.5494V31.0221Z" fill="white"/>
<path d="M47.4651 30.0089L48.4698 28.9604C48.3444 28.9306 48.2167 28.9069 48.0883 28.8862L47.4651 29.5366V30.0089Z" fill="white"/>
<path d="M47.4651 34.0609L50.9922 30.3796C50.9147 30.3023 50.8361 30.227 50.7544 30.1548L47.4651 33.5878V34.0609Z" fill="white"/>
<path d="M49.1121 35.3813L52.1958 32.1632C52.1498 32.055 52.1008 31.9483 52.0483 31.844L48.8495 35.1823L49.1121 35.3813Z" fill="white"/>
<path d="M50.2342 36.2378L52.6172 33.7513C52.6008 33.6133 52.5811 33.4773 52.5556 33.3433L49.9731 36.0379L50.2342 36.2378Z" fill="white"/>
<path d="M49.6725 35.809L52.4529 32.9077C52.4202 32.7864 52.3845 32.6666 52.3446 32.5488L49.4106 35.6107L49.6725 35.809Z" fill="white"/>
<path d="M51.3563 37.0942L52.4602 35.9418C52.5134 35.7443 52.5559 35.5421 52.5879 35.3367L51.0948 36.8948L51.3563 37.0942Z" fill="white"/>
<path d="M50.795 36.666L52.6494 34.7312C52.6544 34.6337 52.6574 34.5353 52.6574 34.4362C52.6574 34.3751 52.6551 34.3144 52.6532 34.2542L50.5332 36.467L50.795 36.666Z" fill="white"/>
<path d="M51.8172 37.444C51.9434 37.2374 52.057 37.0229 52.1569 36.7988L51.6565 37.3211L51.8172 37.444Z" fill="white"/>
<path d="M47.2683 40.0368C44.3009 40.0368 41.8867 37.5178 41.8867 34.4206C41.8867 31.3949 44.1918 28.9207 47.0657 28.8101V34.3659H47.0688L51.5672 37.7958C51.5665 37.7958 51.5665 37.7958 51.5665 37.7958C50.5845 39.1556 49.0227 40.0368 47.2683 40.0368Z" fill="white"/>
<path d="M37.5239 35.0662H27.9376V36.6786H37.5239V35.0662Z" fill="white"/>
<path d="M35.2074 37.5686H27.9369V39.1802H35.2074V37.5686Z" fill="white"/>
<path d="M35.869 29.9529H27.9376V31.5653H35.869V29.9529Z" fill="white"/>
<path d="M35.2074 32.4548H27.9369V34.0677H35.2074V32.4548Z" fill="white"/>
</svg>
