<svg width="80" height="80" viewBox="0 0 80 80" fill="none" xmlns="http://www.w3.org/2000/svg">
<rect x="1" y="1" width="78" height="78" rx="19" stroke="#0057FF" stroke-width="2"/>
<g clip-path="url(#clip0)">
<path d="M41.2953 34.205V37.3952C41.2953 39.05 45.3668 40.9041 50.817 40.9041C56.2673 40.9041 60.3402 39.05 60.3402 37.3952V34.205C58.3992 35.6606 54.9396 36.5961 50.817 36.5961C46.6944 36.5961 43.2363 35.6614 41.2953 34.205ZM41.2953 46.1958V49.3845C41.2953 51.044 45.3668 52.8965 50.817 52.8965C56.2673 52.8965 60.3402 51.044 60.3402 49.3845V46.1958C58.3992 47.653 54.9396 48.5869 50.817 48.5869C46.6944 48.5869 43.2363 47.653 41.2953 46.1958ZM62.3187 19.4077C62.3187 21.0664 66.3901 22.9197 71.8404 22.9197C77.2906 22.9197 81.3636 21.0664 81.3636 19.4077C81.3636 17.7513 77.2906 15.8965 71.8404 15.8965C66.3901 15.8965 62.3187 17.7513 62.3187 19.4077ZM20.2727 46.1973V49.3876C20.2727 51.0424 24.3442 52.8965 29.7944 52.8965C35.2447 52.8965 39.3176 51.0424 39.3176 49.3876V46.1973C37.3766 47.653 33.917 48.5885 29.7944 48.5885C25.6718 48.5885 22.2137 47.653 20.2727 46.1973ZM29.7944 39.879C24.3442 39.879 20.2727 41.7331 20.2727 43.3894C20.2727 45.0489 24.3442 46.9014 29.7944 46.9014C35.2447 46.9014 39.3176 45.0489 39.3176 43.3894C39.3169 41.7331 35.2439 39.879 29.7944 39.879ZM41.2953 40.1992V43.3894C41.2953 45.0474 45.3668 46.9014 50.817 46.9014C56.2673 46.9014 60.3402 45.0474 60.3402 43.3894V40.1992C58.3992 41.6564 54.9396 42.5919 50.817 42.5919C46.6944 42.5919 43.2363 41.6572 41.2953 40.1992ZM62.3187 28.2091V31.3993C62.3187 33.0573 66.3901 34.9113 71.8404 34.9113C77.2906 34.9113 81.3636 33.0573 81.3636 31.3993V28.2091C79.4226 29.6663 75.963 30.6018 71.8404 30.6018C67.7178 30.6018 64.2597 29.6663 62.3187 28.2091ZM62.3187 34.205V37.3936C62.3187 39.0531 66.3901 40.9056 71.8404 40.9056C77.2906 40.9056 81.3636 39.0531 81.3636 37.3936V34.205C79.4226 35.6621 75.963 36.5961 71.8404 36.5961C67.7178 36.5961 64.2597 35.6629 62.3187 34.205ZM50.817 27.8874C45.3668 27.8874 41.2953 29.7414 41.2953 31.3978C41.2953 33.0573 45.3668 34.9098 50.817 34.9098C56.2673 34.9098 60.3402 33.0573 60.3402 31.3978C60.3402 29.7414 56.2673 27.8874 50.817 27.8874ZM62.3187 22.2141V25.4043C62.3187 27.0599 66.3901 28.914 71.8404 28.914C77.2906 28.914 81.3636 27.0607 81.3636 25.4043V22.2141C79.4226 23.6705 75.963 24.606 71.8404 24.606C67.7178 24.606 64.2597 23.6713 62.3187 22.2141ZM62.3187 40.1992V43.3894C62.3187 45.0458 66.3901 46.9014 71.8404 46.9014C77.2906 46.9014 81.3636 45.0458 81.3636 43.3894V40.1992C79.4226 41.6549 75.963 42.5904 71.8404 42.5904C67.7178 42.5904 64.2597 41.6557 62.3187 40.1992ZM62.3187 46.1943V49.386C62.3187 51.0424 66.3901 52.8965 71.8404 52.8965C77.2906 52.8965 81.3636 51.0424 81.3636 49.386V46.1943C79.4226 47.653 75.963 48.5869 71.8404 48.5869C67.7178 48.5869 64.2597 47.653 62.3187 46.1943Z" fill="#0057FF"/>
</g>
<defs>
<clipPath id="clip0">
<rect width="42" height="37" fill="white" transform="translate(19 21)"/>
</clipPath>
</defs>
</svg>
