<svg width="80" height="80" viewBox="0 0 80 80" fill="none" xmlns="http://www.w3.org/2000/svg">
<rect x="1" y="1" width="78" height="78" rx="19" stroke="#0057FF" stroke-width="2"/>
<path fill-rule="evenodd" clip-rule="evenodd" d="M33.6282 53.4167V26.5833C33.6282 26.2612 33.8693 26 34.1667 26H38.2051C38.5025 26 38.7436 26.2612 38.7436 26.5833V53.4167C38.7436 53.7388 38.5025 54 38.2051 54H34.1667C33.8693 54 33.6282 53.7388 33.6282 53.4167ZM26 53.4167V45.25C26 44.9278 26.2411 44.6667 26.5385 44.6667H30.5769C30.8743 44.6667 31.1154 44.9278 31.1154 45.25V53.4167C31.1154 53.7388 30.8743 54 30.5769 54H26.5385C26.2411 54 26 53.7388 26 53.4167ZM41.2564 53.4167V40.5833C41.2564 40.2612 41.4975 40 41.7949 40H45.8333C46.1307 40 46.3718 40.2612 46.3718 40.5833V53.4167C46.3718 53.7388 46.1307 54 45.8333 54H41.7949C41.4975 54 41.2564 53.7388 41.2564 53.4167ZM48.8846 53.4167V35.9167C48.8846 35.5945 49.1257 35.3333 49.4231 35.3333H53.4615C53.7589 35.3333 54 35.5945 54 35.9167V53.4167C54 53.7388 53.7589 54 53.4615 54H49.4231C49.1257 54 48.8846 53.7388 48.8846 53.4167Z" fill="white"/>
<path fill-rule="evenodd" clip-rule="evenodd" d="M33.6282 53.4167V26.5833C33.6282 26.2612 33.8693 26 34.1667 26H38.2051C38.5025 26 38.7436 26.2612 38.7436 26.5833V53.4167C38.7436 53.7388 38.5025 54 38.2051 54H34.1667C33.8693 54 33.6282 53.7388 33.6282 53.4167ZM26 53.4167V45.25C26 44.9278 26.2411 44.6667 26.5385 44.6667H30.5769C30.8743 44.6667 31.1154 44.9278 31.1154 45.25V53.4167C31.1154 53.7388 30.8743 54 30.5769 54H26.5385C26.2411 54 26 53.7388 26 53.4167ZM41.2564 53.4167V40.5833C41.2564 40.2612 41.4975 40 41.7949 40H45.8333C46.1307 40 46.3718 40.2612 46.3718 40.5833V53.4167C46.3718 53.7388 46.1307 54 45.8333 54H41.7949C41.4975 54 41.2564 53.7388 41.2564 53.4167ZM48.8846 53.4167V35.9167C48.8846 35.5945 49.1257 35.3333 49.4231 35.3333H53.4615C53.7589 35.3333 54 35.5945 54 35.9167V53.4167C54 53.7388 53.7589 54 53.4615 54H49.4231C49.1257 54 48.8846 53.7388 48.8846 53.4167Z" fill="#0057FF"/>
<mask id="mask0" mask-type="alpha" maskUnits="userSpaceOnUse" x="42" y="29" width="17" height="18">
<ellipse cx="50.5" cy="38.1137" rx="8.5" ry="8.88636" fill="#0057FF"/>
</mask>
<g mask="url(#mask0)">
<path fill-rule="evenodd" clip-rule="evenodd" d="M33.6282 52.6629V24.6098C33.6282 24.273 33.8693 24 34.1667 24H38.2051C38.5025 24 38.7436 24.273 38.7436 24.6098V52.6629C38.7436 52.9997 38.5025 53.2727 38.2051 53.2727H34.1667C33.8693 53.2727 33.6282 52.9997 33.6282 52.6629ZM26 52.6629V44.125C26 43.7882 26.2411 43.5152 26.5385 43.5152H30.5769C30.8743 43.5152 31.1154 43.7882 31.1154 44.125V52.6629C31.1154 52.9997 30.8743 53.2727 30.5769 53.2727H26.5385C26.2411 53.2727 26 52.9997 26 52.6629ZM41.2564 52.6629V39.2462C41.2564 38.9094 41.4975 38.6364 41.7949 38.6364H45.8333C46.1307 38.6364 46.3718 38.9094 46.3718 39.2462V52.6629C46.3718 52.9997 46.1307 53.2727 45.8333 53.2727H41.7949C41.4975 53.2727 41.2564 52.9997 41.2564 52.6629ZM48.8846 52.6629V34.3674C48.8846 34.0306 49.1257 33.7576 49.4231 33.7576H53.4615C53.7589 33.7576 54 34.0306 54 34.3674V52.6629C54 52.9997 53.7589 53.2727 53.4615 53.2727H49.4231C49.1257 53.2727 48.8846 52.9997 48.8846 52.6629Z" fill="white"/>
<path fill-rule="evenodd" clip-rule="evenodd" d="M33.6282 52.6629V24.6098C33.6282 24.273 33.8693 24 34.1667 24H38.2051C38.5025 24 38.7436 24.273 38.7436 24.6098V52.6629C38.7436 52.9997 38.5025 53.2727 38.2051 53.2727H34.1667C33.8693 53.2727 33.6282 52.9997 33.6282 52.6629ZM26 52.6629V44.125C26 43.7882 26.2411 43.5152 26.5385 43.5152H30.5769C30.8743 43.5152 31.1154 43.7882 31.1154 44.125V52.6629C31.1154 52.9997 30.8743 53.2727 30.5769 53.2727H26.5385C26.2411 53.2727 26 52.9997 26 52.6629ZM41.2564 52.6629V39.2462C41.2564 38.9094 41.4975 38.6364 41.7949 38.6364H45.8333C46.1307 38.6364 46.3718 38.9094 46.3718 39.2462V52.6629C46.3718 52.9997 46.1307 53.2727 45.8333 53.2727H41.7949C41.4975 53.2727 41.2564 52.9997 41.2564 52.6629ZM48.8846 52.6629V34.3674C48.8846 34.0306 49.1257 33.7576 49.4231 33.7576H53.4615C53.7589 33.7576 54 34.0306 54 34.3674V52.6629C54 52.9997 53.7589 53.2727 53.4615 53.2727H49.4231C49.1257 53.2727 48.8846 52.9997 48.8846 52.6629Z" fill="#0057FF"/>
</g>
<path d="M63.7966 47.607L63.7885 47.5981L63.78 47.5897L59.6614 43.5138C62.8888 39.1392 62.4694 32.9241 58.5577 29.0181C56.4465 26.9099 53.6683 25.75 50.6852 25.75C47.7041 25.75 44.8857 26.9085 42.7731 29.0181C40.6612 31.1269 39.5 33.9018 39.5 36.9197C39.5 39.9377 40.6612 42.7125 42.7731 44.8214L42.7731 44.8214L42.7766 44.8248C44.884 46.8879 47.6594 48.0894 50.6852 48.0894C53.0603 48.0894 55.3994 47.3225 57.2916 45.9224L61.3733 49.9982C61.6982 50.3226 62.1 50.5 62.5576 50.5C62.9803 50.5 63.4441 50.3453 63.7575 49.9825C64.4101 49.3146 64.4049 48.2696 63.7966 47.607ZM58.4959 36.9197C58.4959 39 57.6782 40.9645 56.1935 42.41C54.6958 43.8682 52.7603 44.7184 50.6852 44.7184C48.6013 44.7184 46.6335 43.9016 45.1859 42.419C43.7256 40.9235 42.8745 38.9911 42.8745 36.9197C42.8745 34.8395 43.6922 32.8749 45.1769 31.4294C46.6756 29.9703 48.5718 29.121 50.6852 29.121C52.7691 29.121 54.7369 29.9378 56.1845 31.4204C57.6457 32.9169 58.4959 34.8101 58.4959 36.9197Z" fill="#0057FF" stroke="white"/>
</svg>
