<svg width="80" height="80" viewBox="0 0 80 80" fill="none" xmlns="http://www.w3.org/2000/svg">
<rect x="1" y="1" width="78" height="78" rx="19" fill="white" stroke="#0057FF" stroke-width="2"/>
<path d="M25.2681 48.5344C25.2681 49.9789 26.4461 51.1271 27.9281 51.1271H54.0721C55.5541 51.1271 56.7321 49.9789 56.7321 48.5344V33.2747H25.2681V48.5344ZM38.2641 41.0897H45.9401C46.3581 41.0897 46.7001 41.4231 46.7001 41.8305C46.7001 42.2379 46.3581 42.5713 45.9401 42.5713H38.2641C37.8461 42.5713 37.5041 42.2379 37.5041 41.8305C37.5041 41.4231 37.8461 41.0897 38.2641 41.0897ZM29.1061 37.6081C28.8021 37.3118 28.8021 36.8674 29.1061 36.5711C29.4101 36.2748 29.8661 36.2748 30.1701 36.5711L35.0341 41.312C35.1861 41.4601 35.2621 41.6453 35.2621 41.8305C35.2621 42.0157 35.1861 42.2009 35.0341 42.349L30.1701 47.0899C30.0181 47.2381 29.8281 47.3122 29.6381 47.3122C29.4481 47.3122 29.2581 47.2381 29.1061 47.0899C28.8021 46.7936 28.8021 46.3492 29.1061 46.0529L33.4001 41.8305L29.1061 37.6081Z" fill="#0057FF"/>
<path d="M54.0721 27.5708H27.9281C26.4461 27.5708 25.2681 28.719 25.2681 30.1635V31.7932H56.7321V30.1635C56.7321 28.756 55.5161 27.5708 54.0721 27.5708ZM27.5861 30.9783C26.8641 30.9783 26.2941 30.4227 26.2941 29.719C26.2941 29.0153 26.8641 28.4597 27.5861 28.4597C28.3081 28.4597 28.8781 29.0153 28.8781 29.719C28.8781 30.4227 28.3081 30.9783 27.5861 30.9783ZM31.5001 30.9783C30.7781 30.9783 30.2081 30.4227 30.2081 29.719C30.2081 29.0153 30.7781 28.4597 31.5001 28.4597C32.2221 28.4597 32.7921 29.0153 32.7921 29.719C32.7921 30.4227 32.2221 30.9783 31.5001 30.9783ZM35.4521 30.9783C34.7301 30.9783 34.1601 30.4227 34.1601 29.719C34.1601 29.0153 34.7301 28.4597 35.4521 28.4597C36.1741 28.4597 36.7441 29.0153 36.7441 29.719C36.7441 30.4227 36.1741 30.9783 35.4521 30.9783Z" fill="#0057FF"/>
</svg>
