<svg width="80" height="80" viewBox="0 0 80 80" fill="none" xmlns="http://www.w3.org/2000/svg">
<rect x="1" y="1" width="78" height="78" rx="19" stroke="#0057FF" stroke-width="2"/>
<path d="M55.5723 26.1307C55.3071 25.9606 54.9788 25.9562 54.7096 26.1195C49.0084 29.5733 42.0054 31.3738 32.6701 31.7867C32.2041 31.8072 31.8369 32.225 31.8369 32.7325V42.5414C31.8369 43.0494 32.2041 43.4663 32.6701 43.4872C42.0054 43.9002 49.0084 45.7007 54.7096 49.1544C54.8411 49.2334 54.9864 49.2734 55.1313 49.2734C55.2838 49.2734 55.4363 49.23 55.5718 49.1427C55.837 48.9721 55.9998 48.662 55.9998 48.3266V26.9469C56.0003 26.6114 55.8375 26.3009 55.5723 26.1307Z" fill="#0057FF"/>
<path d="M29.3242 31.8335C26.3886 31.8335 24 34.437 24 37.6377C24 40.8379 26.3882 43.4414 29.3242 43.4414C29.804 43.4414 30.1927 43.0177 30.1927 42.4951V32.7803C30.1927 32.2572 29.804 31.8335 29.3242 31.8335Z" fill="#0057FF"/>
<path d="M36.0061 46.0286C35.8607 45.563 35.4703 45.2422 35.0195 45.2174L32.9891 45.1086C32.63 45.0911 32.2816 45.2642 32.062 45.5777C31.8424 45.8902 31.778 46.3007 31.8898 46.6746L33.7132 53.1721C33.8603 53.666 34.282 54.0004 34.7583 54.0004H36.8656C36.8665 53.9999 36.8674 53.9999 36.8683 54.0004C37.4756 54.0004 37.9676 53.4632 37.9676 52.8025C37.9676 52.6358 37.9363 52.4774 37.8804 52.3335L36.0061 46.0286Z" fill="#0057FF"/>
</svg>
