<svg width="80" height="80" viewBox="0 0 80 80" fill="none" xmlns="http://www.w3.org/2000/svg">
<rect x="1" y="1" width="78" height="78" rx="19" stroke="#0057FF" stroke-width="2"/>
<path d="M55.7914 42.7207C55.7914 40.6905 55.889 38.6308 55.5818 36.6153C55.076 33.3066 53.4319 30.1783 51.0544 27.8718C49.8656 26.7185 48.489 25.7421 47.0003 25.0383C45.396 24.283 43.7158 23.8151 41.9561 23.6345C38.6139 23.2845 35.1451 24.1319 32.3123 25.9742C29.4759 27.8202 27.3115 30.5689 26.1336 33.7782C25.541 35.392 25.2339 37.1238 25.2014 38.8445C25.1869 39.4635 25.1978 40.0789 25.1978 40.6979V47.4222C25.1978 48.0007 25.6964 48.5534 26.2817 48.5276C26.5202 48.5166 28.363 48.5497 28.8291 48.5497H30.9573C30.9645 48.5497 30.9754 48.5497 30.9826 48.5497C32.0016 48.5203 32.9446 47.7686 33.1108 46.7148C33.1578 46.4127 33.147 46.1179 33.147 45.8121V39.1651C33.147 38.8261 33.1578 38.4871 33.0675 38.1555C32.8073 37.1828 31.9185 36.5269 30.9429 36.5159C29.9673 36.5048 28.9917 36.5159 28.0197 36.5159C27.8824 36.5159 27.7451 36.5269 27.6114 36.549C27.7885 35.661 28.0486 34.7915 28.3847 33.9514C28.3666 33.9956 28.3485 34.0398 28.3269 34.084C28.363 33.9956 28.3991 33.9072 28.4352 33.8187C28.4172 33.8629 28.3991 33.9072 28.3811 33.9477C28.6484 33.3213 28.9592 32.7134 29.3097 32.1312C29.4903 31.829 29.6854 31.5306 29.8878 31.2432C29.942 31.1658 29.9998 31.0848 30.0576 31.0111C30.0648 31 30.0757 30.989 30.0829 30.9742C30.0757 30.9853 30.0685 30.9926 30.0612 31.0037C30.0395 31.0295 30.0323 31.0405 30.0323 31.0405C30.0395 31.0295 30.1407 30.8932 30.1443 30.8932C30.1443 30.8932 30.1371 30.9042 30.1154 30.93C30.1046 30.9447 30.0974 30.9558 30.0865 30.9669C30.1913 30.8342 30.2961 30.6979 30.4045 30.5689C30.8598 30.0236 31.3512 29.5114 31.8787 29.0361C32.0088 28.9182 32.1425 28.804 32.2762 28.6935C32.3304 28.6492 32.381 28.605 32.4351 28.5608C32.4207 28.5719 32.4062 28.5829 32.3918 28.594C32.4099 28.5792 32.4315 28.5645 32.4496 28.5498C32.4532 28.5461 32.4568 28.5424 32.4641 28.5387C32.493 28.5129 32.5472 28.4761 32.558 28.465H32.5616C32.8362 28.2587 33.1144 28.0597 33.4035 27.8718C34.0322 27.4628 34.6934 27.1054 35.38 26.7996C35.3402 26.818 35.3005 26.8327 35.2571 26.8512C35.3438 26.8143 35.4306 26.7775 35.5173 26.7406C35.4703 26.759 35.4269 26.7812 35.38 26.7996C36.4531 26.3501 37.5768 26.0369 38.7259 25.8674C38.6789 25.8711 38.6283 25.8784 38.5813 25.8858C38.6789 25.8711 38.7728 25.86 38.8704 25.8453C38.8234 25.8526 38.7728 25.86 38.7259 25.8674C39.8966 25.72 41.0817 25.72 42.2524 25.8674C42.2055 25.86 42.1549 25.8526 42.1079 25.8453C42.2055 25.86 42.2994 25.8711 42.397 25.8858C42.35 25.8784 42.2994 25.8711 42.2524 25.8674C43.4015 26.0369 44.5216 26.3501 45.5983 26.7996C45.555 26.7812 45.508 26.759 45.4646 26.7406C45.5514 26.7775 45.6381 26.8143 45.7248 26.8512C45.685 26.8327 45.6417 26.818 45.6019 26.7996C46.2162 27.0722 46.8088 27.3854 47.3761 27.7428C47.6724 27.9307 47.9614 28.126 48.2469 28.3324C48.3227 28.3876 48.3986 28.4466 48.4745 28.5055C48.489 28.5166 48.5034 28.5277 48.5179 28.5387C48.507 28.5277 48.4926 28.5203 48.4817 28.5092C48.46 28.4908 48.4492 28.4798 48.4456 28.4798C48.4564 28.4871 48.5793 28.5829 48.5901 28.594C48.5865 28.594 48.5757 28.5829 48.554 28.5645C48.5432 28.5571 48.5323 28.5461 48.5215 28.5387C48.6516 28.6456 48.7816 28.7487 48.9081 28.8593C49.4429 29.3235 49.9451 29.8246 50.4112 30.3626C50.5268 30.4952 50.6389 30.6316 50.7473 30.7679C50.7906 30.8232 50.834 30.8747 50.8737 30.93C50.8629 30.9153 50.852 30.9005 50.8412 30.8858C50.8557 30.9042 50.8701 30.9226 50.8846 30.9447C50.8882 30.9484 50.8918 30.9521 50.8954 30.9595C50.9135 30.9816 50.9388 31.0148 50.9532 31.0369C50.9604 31.0442 50.9641 31.0516 50.9677 31.0553C50.9677 31.0553 50.9677 31.0553 50.9713 31.059C51.1736 31.339 51.3687 31.6264 51.553 31.9175C51.9577 32.5623 52.3082 33.2402 52.6081 33.944C52.59 33.8998 52.572 33.8519 52.5539 33.8077C52.59 33.8961 52.6262 33.9845 52.6623 34.073C52.6442 34.0287 52.6262 33.9882 52.6081 33.944C52.9441 34.7804 53.2007 35.6463 53.3777 36.5306C53.2693 36.5122 53.1609 36.5048 53.0489 36.5011C52.0733 36.4901 51.0977 36.5011 50.1258 36.5011C49.3056 36.5011 48.5251 36.899 48.1204 37.6507C47.8891 38.0781 47.8458 38.5313 47.8458 39.0066V45.6279C47.8458 45.8526 47.8422 46.0774 47.8458 46.3021C47.8566 47.308 48.5323 48.2292 49.5007 48.4724C49.9596 48.5866 50.469 48.5387 50.9351 48.5387H53.0634C53.0706 48.5387 53.0814 48.5387 53.0887 48.5387C53.2187 48.535 53.3452 48.5203 53.4717 48.4945C53.4102 48.7376 53.3344 48.9808 53.244 49.213C53.1067 49.5262 52.9405 49.832 52.7526 50.1194C52.6984 50.2004 52.6442 50.2778 52.59 50.3552C52.6045 50.3368 52.6153 50.322 52.6298 50.3036C52.749 50.1562 52.4708 50.521 52.5756 50.3736C52.5792 50.3662 52.5864 50.3589 52.59 50.3515C52.572 50.3736 52.5575 50.392 52.5394 50.4141C52.4202 50.5615 52.2901 50.7052 52.1564 50.8416C52.0227 50.9779 51.8818 51.1068 51.7373 51.2321C51.7192 51.2469 51.7012 51.2616 51.6831 51.2763C51.6867 51.2726 51.6939 51.269 51.6975 51.2653C51.8565 51.1511 51.4807 51.4458 51.6289 51.3205C51.647 51.3058 51.665 51.2911 51.6831 51.2763C51.6108 51.3279 51.5386 51.3832 51.4663 51.4311C51.1808 51.6264 50.8773 51.7959 50.5666 51.9432C50.6027 51.9285 50.6389 51.9138 50.675 51.899C50.5883 51.9359 50.5016 51.9727 50.4148 52.0096C50.4654 51.9875 50.516 51.9654 50.563 51.9432C50.1474 52.1091 49.7175 52.227 49.2803 52.3006C49.3236 52.297 49.367 52.2896 49.414 52.2859C49.3164 52.3006 49.2224 52.3117 49.1249 52.3264C49.1791 52.3191 49.2297 52.3117 49.2803 52.3043C48.6082 52.378 47.9144 52.3412 47.2424 52.3412H43.9145C43.864 52.2233 43.8025 52.1091 43.7339 52.0022C43.2389 51.2211 42.397 50.7531 41.4864 50.7458C41.0564 50.7421 40.6228 50.7458 40.1929 50.7458C39.7304 50.7458 39.2715 50.7458 38.809 50.7458C37.9346 50.7494 37.1433 51.1695 36.6266 51.8843C36.0557 52.6728 36.0015 53.7413 36.3989 54.6183C36.8 55.5062 37.6889 56.0774 38.6355 56.1437C39.0402 56.1732 39.4521 56.1511 39.8568 56.1511H41.4973C41.5045 56.1511 41.5153 56.1511 41.5225 56.1511C42.4692 56.1326 43.3653 55.6057 43.8206 54.7509C43.8531 54.6883 43.8856 54.6219 43.9145 54.5556C45.4683 54.5556 47.0183 54.5556 48.5721 54.5556C49.2911 54.5556 50.0246 54.4561 50.7111 54.2387C51.6181 53.9513 52.4238 53.4908 53.1681 52.8902C54.5159 51.8032 55.4626 50.1231 55.7083 48.3876C55.8203 47.5991 55.8058 46.8217 55.8058 46.0295V42.7207H55.7914Z" fill="#0057FF"/>
</svg>
