<svg width="20" height="20" viewBox="0 0 20 20" fill="none" xmlns="http://www.w3.org/2000/svg">
<path d="M1.07163 7.95587C0.759163 9.29765 0.759163 10.6933 1.07163 12.035C1.45357 13.7206 2.30426 15.2639 3.52557 16.4869C4.74687 17.7098 6.28903 18.5625 7.97413 18.9467L9.0833 19.1667V13.6117L8.54247 13.3734C7.69194 12.997 7.01217 12.3172 6.6358 11.4667C6.4339 11.0041 6.32969 10.5048 6.32969 10C6.32969 9.49529 6.4339 8.99598 6.6358 8.53337C7.0118 7.68793 7.68785 7.01187 8.5333 6.63587L9.0833 6.38837V0.833374L7.96497 1.09004C6.28741 1.47221 4.75128 2.31879 3.53225 3.53296C2.31322 4.74713 1.46051 6.27986 1.07163 7.95587Z" fill="#0057FF"/>
<path d="M13.355 11.4667C13.3033 11.583 13.2451 11.6962 13.1808 11.8059C13.1386 11.8893 13.0895 11.969 13.0341 12.0442L12.9425 12.1817L12.8875 12.2642L12.7133 12.4567C12.4696 12.7309 12.1852 12.9658 11.87 13.1534L11.65 13.2817L11.4483 13.3734L10.9075 13.6209V19.1667L12.0258 18.9101C13.7109 18.5259 15.2531 17.6732 16.4744 16.4502C17.6957 15.2273 18.5464 13.684 18.9283 11.9984L19.1666 10.9167H13.575L13.355 11.4667Z" fill="#0057FF"/>
<path d="M11.7141 6.76421L11.8975 6.87421C12.2209 7.0726 12.5116 7.31999 12.7591 7.60754L12.86 7.71754L12.9425 7.83671L13.0708 8.02004C13.1228 8.09578 13.1687 8.17546 13.2083 8.25837C13.2628 8.35327 13.3117 8.4512 13.355 8.55171L13.5933 9.10171H19.1666L18.9191 7.98337C18.5372 6.29777 17.6865 4.75447 16.4652 3.53155C15.2439 2.30862 13.7017 1.45588 12.0166 1.07171L10.9166 0.833374V6.37921L11.4575 6.62671C11.5457 6.66741 11.6314 6.71332 11.7141 6.76421Z" fill="#0057FF"/>
</svg>
