<svg width="100" height="32" viewBox="0 0 100 32" fill="none" xmlns="http://www.w3.org/2000/svg">
<g clip-path="url(#clip0)">
<path d="M92.0366 0.000104H7.96787C7.66143 0.000104 7.35867 0.000104 7.05304 0.001704C6.79719 0.003304 6.54339 0.007952 6.28509 0.011864C5.72395 0.0181854 5.16413 0.065445 4.61049 0.153232C4.05763 0.24293 3.52209 0.412037 3.02198 0.654832C2.52248 0.899681 2.06607 1.21784 1.66931 1.59776C1.27048 1.97661 0.938012 2.41452 0.684708 2.89463C0.430706 3.37379 0.25458 3.88725 0.162413 4.41729C0.06937 4.94665 0.0193027 5.48212 0.0126604 6.01889C0.0049054 6.26417 0.00408644 6.51026 0 6.75558V25.247C0.00408644 25.4954 0.0049054 25.736 0.0126604 25.9845C0.0193047 26.5212 0.069372 27.0567 0.162413 27.586C0.254325 28.1164 0.430462 28.6301 0.684708 29.1095C0.937897 29.588 1.27041 30.0242 1.66931 30.4009C2.06457 30.7825 2.52127 31.1009 3.02198 31.3439C3.52208 31.5873 4.05757 31.7574 4.61049 31.8485C5.16422 31.9356 5.72399 31.9829 6.28509 31.9899C6.54339 31.9954 6.79719 31.9985 7.05304 31.9985C7.35866 32.0001 7.66145 32.0001 7.96787 32.0001H92.0366C92.337 32.0001 92.6422 32.0001 92.9425 31.9985C93.1971 31.9985 93.4583 31.9954 93.7129 31.9899C94.2729 31.9832 94.8317 31.936 95.3842 31.8485C95.9389 31.7568 96.4764 31.5867 96.9789 31.3439C97.4791 31.1007 97.9354 30.7824 98.3303 30.4009C98.7282 30.0227 99.0614 29.5869 99.3178 29.1095C99.5701 28.6298 99.7446 28.1161 99.8351 27.586C99.9283 27.0566 99.9802 26.5213 99.9902 25.9845C99.9935 25.736 99.9935 25.4954 99.9935 25.247C100 24.9563 100 24.6673 100 24.3719V7.62901C100 7.33604 100 7.04541 99.9935 6.75558C99.9935 6.51026 99.9935 6.26417 99.9902 6.01886C99.9802 5.48204 99.9283 4.94669 99.8351 4.41726C99.7443 3.88753 99.5699 3.37411 99.3178 2.8946C98.8019 1.93226 97.9839 1.14892 96.9789 0.65476C96.4763 0.412558 95.9389 0.243496 95.3842 0.15316C94.8318 0.0649862 94.273 0.0177102 93.7129 0.011752C93.4583 0.007848 93.1971 0.00316 92.9425 0.0016C92.6422 0 92.337 0 92.0366 0V0.000104Z" fill="currentColor"/>
<path d="M7.05705 31.3002C6.80244 31.3002 6.55398 31.2971 6.30136 31.2916C5.77805 31.2851 5.25596 31.2415 4.73938 31.1612C4.25769 31.0817 3.79106 30.934 3.35488 30.7228C2.92271 30.5134 2.52853 30.2388 2.18745 29.9096C1.84143 29.5842 1.55335 29.2068 1.33464 28.7924C1.11351 28.3752 0.960475 27.9281 0.880866 27.4666C0.794896 26.9707 0.748382 26.4692 0.741726 25.9666C0.736428 25.7979 0.729492 25.2361 0.729492 25.2361V6.75567C0.729492 6.75567 0.73688 6.20254 0.741768 6.04004C0.748141 5.53818 0.794384 5.03752 0.880097 4.54238C0.959853 4.0796 1.113 3.63119 1.33425 3.2127C1.55217 2.79855 1.83864 2.42088 2.18258 2.09434C2.52612 1.76469 2.92156 1.48868 3.35447 1.27636C3.78965 1.06587 4.25539 0.919181 4.73611 0.841211C5.25439 0.760064 5.77829 0.716192 6.30342 0.709963L7.05746 0.700195H92.9383L93.7014 0.710355C94.2217 0.716275 94.7409 0.759755 95.2544 0.840427C95.74 0.919375 96.2106 1.06709 96.6507 1.27871C97.518 1.70658 98.2237 2.38353 98.6689 3.21465C98.8866 3.63026 99.0374 4.075 99.1161 4.53379C99.2029 5.03299 99.2514 5.53759 99.2614 6.04356C99.2638 6.27012 99.2638 6.51348 99.2638 6.75567C99.2704 7.05567 99.2704 7.34121 99.2704 7.6291V24.372C99.2704 24.6627 99.2704 24.9463 99.2638 25.2322C99.2638 25.4924 99.2638 25.7307 99.2605 25.976C99.2508 26.4729 99.203 26.9685 99.1177 27.4588C99.0397 27.9236 98.8875 28.3742 98.6665 28.7948C98.4462 29.2047 98.1598 29.5788 97.8177 29.9033C97.4764 30.2343 97.0815 30.5106 96.6483 30.7213C96.2094 30.9341 95.7395 31.0824 95.2544 31.1612C94.7379 31.2419 94.2157 31.2855 93.6924 31.2916C93.4476 31.2971 93.1913 31.3002 92.9424 31.3002L92.0366 31.3018L7.05705 31.3002Z" fill="white"/>
<g clip-path="url(#clip1)">
<path d="M30.1665 13.5007H21.8336C21.6037 13.5007 21.417 13.6874 21.417 13.9174V20.5836C21.417 21.5902 22.1336 22.431 23.0836 22.6252V24.75C23.0836 25.4392 23.6443 25.9999 24.3335 25.9999C25.0226 25.9999 25.5834 25.4392 25.5834 24.75V22.6668H26.4167V24.75C26.4167 25.4392 26.9774 25.9999 27.6666 25.9999C28.3557 25.9999 28.9165 25.4392 28.9165 24.75V22.6252C29.8664 22.4319 30.5831 21.5902 30.5831 20.5836V13.9174C30.5831 13.6866 30.3964 13.5007 30.1665 13.5007Z" fill="currentColor"/>
<path d="M28.1807 8.22038L28.8831 6.58131C28.974 6.36965 28.8756 6.12552 28.664 6.03467C28.4548 5.94299 28.2073 6.04135 28.1173 6.25383L27.4149 7.89372C26.9691 7.74873 26.4941 7.66792 26.0008 7.66792C25.5075 7.66792 25.0325 7.74873 24.5867 7.89372L23.8827 6.25383C23.7927 6.04135 23.5452 5.94217 23.336 6.03467C23.1243 6.12548 23.0268 6.37047 23.1177 6.58131L23.8202 8.22038C22.3894 8.99701 21.417 10.5127 21.417 12.2509C21.417 12.4809 21.6037 12.6676 21.8336 12.6676H30.1664C30.3964 12.6676 30.5831 12.4809 30.5831 12.2509C30.583 10.5127 29.6106 8.99701 28.1807 8.22038ZM24.3334 11.001C24.1035 11.001 23.9168 10.8144 23.9168 10.5844C23.9168 10.3544 24.1035 10.1677 24.3334 10.1677C24.5634 10.1677 24.7501 10.3544 24.7501 10.5844C24.7501 10.8144 24.5634 11.001 24.3334 11.001ZM27.6666 11.001C27.4366 11.001 27.2499 10.8144 27.2499 10.5844C27.2499 10.3544 27.4366 10.1677 27.6666 10.1677C27.8966 10.1677 28.0832 10.3544 28.0832 10.5844C28.0832 10.8144 27.8966 11.001 27.6666 11.001Z" fill="currentColor"/>
<path d="M32.6662 13.5007C31.977 13.5007 31.4163 14.0615 31.4163 14.7506V18.9171C31.4163 19.6062 31.977 20.167 32.6662 20.167C33.3553 20.167 33.9161 19.6062 33.9161 18.9171V14.7506C33.9161 14.0616 33.3553 13.5007 32.6662 13.5007Z" fill="currentColor"/>
<path d="M19.3337 13.5007C18.6445 13.5007 18.0837 14.0615 18.0837 14.7506V18.9171C18.0837 19.6062 18.6445 20.167 19.3337 20.167C20.0228 20.167 20.5836 19.6062 20.5836 18.9171V14.7506C20.5836 14.0616 20.0228 13.5007 19.3337 13.5007Z" fill="currentColor"/>
</g>
<path d="M42 6V26" stroke="currentColor"/>
<path d="M61.97 21H59.27L58.514 18.732H53.492L52.736 21H50.054L54.464 8.4H57.542L61.97 21ZM56.012 11.262L54.284 16.41H57.74L56.012 11.262ZM63.7334 8.4H68.4314C69.6314 8.4 70.6514 8.808 71.4914 9.624C72.3194 10.44 72.7334 11.442 72.7334 12.63C72.7334 13.818 72.3194 14.82 71.4914 15.636C70.6514 16.452 69.6314 16.86 68.4314 16.86H66.2174V21H63.7334V8.4ZM66.2174 14.538H68.4314C68.9594 14.538 69.3974 14.358 69.7454 13.998C70.0934 13.626 70.2674 13.17 70.2674 12.63C70.2674 12.078 70.0934 11.622 69.7454 11.262C69.3974 10.902 68.9594 10.722 68.4314 10.722H66.2174V14.538ZM79.8946 14.52L84.7366 21H81.8746L77.3746 15.096V21H74.8906V8.4H77.3746V13.962L81.6946 8.4H84.5566L79.8946 14.52Z" fill="currentColor"/>
</g>
<defs>
<clipPath id="clip0">
<rect width="100" height="32" fill="white"/>
</clipPath>
<clipPath id="clip1">
<rect width="20" height="20" fill="white" transform="translate(16 6)"/>
</clipPath>
</defs>
</svg>
