<svg width="121" height="39" viewBox="0 0 121 39" fill="none" xmlns="http://www.w3.org/2000/svg">
<g clip-path="url(#clip0)">
<path d="M111.364 0.00012584H9.64112C9.27033 0.00012584 8.90399 0.00012584 8.53417 0.00206184C8.22461 0.00399784 7.9175 0.00962192 7.60496 0.0143554C6.92598 0.0220044 6.2486 0.0791885 5.57869 0.185411C4.90973 0.293945 4.26172 0.498564 3.65659 0.792347C3.0522 1.08861 2.49995 1.47358 2.01987 1.93329C1.53728 2.3917 1.13499 2.92157 0.828497 3.5025C0.521154 4.08229 0.308041 4.70358 0.19652 5.34492C0.0839377 5.98545 0.0233562 6.63337 0.0153191 7.28286C0.00593553 7.57964 0.00494459 7.87742 0 8.17425V30.5489C0.00494459 30.8494 0.00593553 31.1406 0.0153191 31.4412C0.0233587 32.0907 0.0839401 32.7386 0.19652 33.3791C0.307734 34.0208 0.520859 34.6425 0.828497 35.2225C1.13486 35.8015 1.53719 36.3292 2.01987 36.7851C2.49813 37.2468 3.05073 37.6321 3.65659 37.9261C4.26172 38.2206 4.90966 38.4265 5.57869 38.5367C6.24871 38.6421 6.92603 38.6993 7.60496 38.7078C7.9175 38.7144 8.22461 38.7182 8.53417 38.7182C8.90398 38.7201 9.27035 38.7201 9.64112 38.7201H111.364C111.728 38.7201 112.097 38.7201 112.46 38.7182C112.769 38.7182 113.085 38.7144 113.393 38.7078C114.07 38.6997 114.746 38.6425 115.415 38.5367C116.086 38.4257 116.736 38.2199 117.344 37.9261C117.95 37.6319 118.502 37.2467 118.98 36.7851C119.461 36.3274 119.864 35.8001 120.174 35.2225C120.48 34.642 120.691 34.0204 120.8 33.3791C120.913 32.7385 120.976 32.0908 120.988 31.4412C120.992 31.1406 120.992 30.8494 120.992 30.5489C121 30.1972 121 29.8474 121 29.4901V9.2311C121 8.87661 121 8.52495 120.992 8.17425C120.992 7.87742 120.992 7.57964 120.988 7.28282C120.976 6.63327 120.913 5.9855 120.8 5.34488C120.691 4.70391 120.48 4.08267 120.174 3.50247C119.55 2.33804 118.561 1.3902 117.344 0.79226C116.736 0.499195 116.086 0.294631 115.415 0.185324C114.746 0.0786333 114.07 0.0214294 113.393 0.0142199C113.085 0.00949608 112.769 0.0038236 112.46 0.001936C112.097 0 111.728 0 111.364 0V0.00012584Z" fill="#2C3953"/>
<path d="M8.53916 37.8727C8.23108 37.8727 7.93044 37.8689 7.62478 37.8623C6.99157 37.8544 6.35984 37.8017 5.73477 37.7044C5.15193 37.6083 4.58731 37.4296 4.05954 37.1741C3.5366 36.9207 3.05965 36.5884 2.64694 36.19C2.22826 35.7963 1.87969 35.3397 1.61504 34.8382C1.34747 34.3335 1.1623 33.7925 1.06597 33.234C0.961951 32.634 0.905669 32.0272 0.897616 31.419C0.891205 31.2149 0.882812 30.5351 0.882812 30.5351V8.1738C0.882812 8.1738 0.891751 7.50452 0.897667 7.30789C0.905378 6.70064 0.961332 6.09484 1.06504 5.49572C1.16155 4.93575 1.34686 4.39319 1.61457 3.88681C1.87825 3.38569 2.22488 2.92871 2.64104 2.53359C3.05674 2.13472 3.53522 1.80074 4.05904 1.54384C4.5856 1.28915 5.14915 1.11165 5.73082 1.01731C6.35794 0.919121 6.99186 0.866036 7.62727 0.858499L8.53966 0.84668H112.456L113.379 0.858973C114.008 0.866136 114.637 0.918747 115.258 1.01636C115.846 1.11189 116.415 1.29062 116.948 1.54668C117.997 2.06441 118.851 2.88351 119.389 3.88917C119.653 4.39206 119.835 4.93019 119.931 5.48533C120.036 6.08936 120.094 6.69992 120.106 7.31215C120.109 7.58628 120.109 7.88075 120.109 8.1738C120.117 8.5368 120.117 8.88231 120.117 9.23065V29.4896C120.117 29.8413 120.117 30.1844 120.109 30.5304C120.109 30.8452 120.109 31.1336 120.105 31.4304C120.094 32.0317 120.036 32.6313 119.933 33.2245C119.838 33.787 119.654 34.3322 119.387 34.8411C119.12 35.3371 118.773 35.7898 118.36 36.1825C117.947 36.583 117.469 36.9172 116.945 37.1722C116.413 37.4297 115.845 37.6091 115.258 37.7044C114.633 37.8022 114.001 37.8549 113.368 37.8623C113.072 37.8689 112.762 37.8727 112.46 37.8727L111.364 37.8746L8.53916 37.8727Z" fill="white"/>
<g clip-path="url(#clip1)">
<path d="M36.5009 16.3359H26.4182C26.1399 16.3359 25.9141 16.5618 25.9141 16.8401V24.9062C25.9141 26.1242 26.7812 27.1416 27.9306 27.3765V29.9476C27.9306 30.7814 28.6092 31.46 29.443 31.46C30.2769 31.46 30.9554 30.7814 30.9554 29.9476V27.4269H31.9637V29.9476C31.9637 30.7814 32.6422 31.46 33.4761 31.46C34.3099 31.46 34.9885 30.7814 34.9885 29.9476V27.3765C36.1379 27.1426 37.005 26.1242 37.005 24.9062V16.8401C37.005 16.5608 36.7792 16.3359 36.5009 16.3359Z" fill="#2C3953"/>
<path d="M34.0981 9.94643L34.9481 7.96315C35.058 7.70704 34.939 7.41165 34.6829 7.30171C34.4298 7.19079 34.1304 7.3098 34.0215 7.5669L33.1715 9.55117C32.6321 9.37573 32.0574 9.27795 31.4605 9.27795C30.8636 9.27795 30.2889 9.37573 29.7494 9.55117L28.8975 7.5669C28.7886 7.3098 28.4892 7.1898 28.2361 7.30171C27.98 7.4116 27.862 7.70803 27.9719 7.96315L28.8219 9.94643C27.0907 10.8861 25.9141 12.7202 25.9141 14.8234C25.9141 15.1017 26.1399 15.3275 26.4182 15.3275H36.5009C36.7791 15.3275 37.005 15.1017 37.005 14.8234C37.005 12.7202 35.8283 10.8861 34.0981 9.94643ZM29.443 13.311C29.1647 13.311 28.9388 13.0851 28.9388 12.8068C28.9388 12.5286 29.1647 12.3027 29.443 12.3027C29.7212 12.3027 29.9471 12.5286 29.9471 12.8068C29.9471 13.0851 29.7212 13.311 29.443 13.311ZM33.4761 13.311C33.1978 13.311 32.9719 13.0851 32.9719 12.8068C32.9719 12.5286 33.1978 12.3027 33.4761 12.3027C33.7543 12.3027 33.9802 12.5286 33.9802 12.8068C33.9802 13.0851 33.7543 13.311 33.4761 13.311Z" fill="#2C3953"/>
<path d="M39.5261 16.3359C38.6922 16.3359 38.0137 17.0145 38.0137 17.8483V22.8897C38.0137 23.7235 38.6922 24.4021 39.5261 24.4021C40.3599 24.4021 41.0385 23.7235 41.0385 22.8897V17.8483C41.0385 17.0145 40.3599 16.3359 39.5261 16.3359Z" fill="#2C3953"/>
<path d="M23.3933 16.3359C22.5594 16.3359 21.8809 17.0145 21.8809 17.8483V22.8897C21.8809 23.7235 22.5594 24.4021 23.3933 24.4021C24.2271 24.4021 24.9057 23.7235 24.9057 22.8897V17.8483C24.9057 17.0145 24.2271 16.3359 23.3933 16.3359Z" fill="#2C3953"/>
</g>
<path d="M72.47 24.0498H69.77L69.014 21.7818H63.992L63.236 24.0498H60.554L64.964 11.4498H68.042L72.47 24.0498ZM66.512 14.3118L64.784 19.4598H68.24L66.512 14.3118ZM74.2334 11.4498H78.9314C80.1314 11.4498 81.1514 11.8578 81.9914 12.6738C82.8194 13.4898 83.2334 14.4918 83.2334 15.6798C83.2334 16.8678 82.8194 17.8698 81.9914 18.6858C81.1514 19.5018 80.1314 19.9098 78.9314 19.9098H76.7174V24.0498H74.2334V11.4498ZM76.7174 17.5878H78.9314C79.4594 17.5878 79.8974 17.4078 80.2454 17.0478C80.5934 16.6758 80.7674 16.2198 80.7674 15.6798C80.7674 15.1278 80.5934 14.6718 80.2454 14.3118C79.8974 13.9518 79.4594 13.7718 78.9314 13.7718H76.7174V17.5878ZM90.3946 17.5698L95.2366 24.0498H92.3746L87.8746 18.1458V24.0498H85.3906V11.4498H87.8746V17.0118L92.1946 11.4498H95.0566L90.3946 17.5698Z" fill="#2C3953"/>
<path d="M51 9.36035V29.3604" stroke="#2C3953"/>
</g>
<defs>
<clipPath id="clip0">
<rect width="121" height="38.72" fill="white"/>
</clipPath>
<clipPath id="clip1">
<rect width="24.2" height="24.2" fill="white" transform="translate(19.3594 7.25977)"/>
</clipPath>
</defs>
</svg>
