<svg width="10" height="13" viewBox="0 0 10 13" fill="none" xmlns="http://www.w3.org/2000/svg">
<mask id="path-1-inside-1" fill="white">
<path fill-rule="evenodd" clip-rule="evenodd" d="M9.99926 6.46444C10.0148 5.98595 9.78625 5.51166 9.3541 5.23226L2.19419 0.60306C1.53671 0.177973 0.656973 0.364966 0.229236 1.02072C-0.198502 1.67647 -0.0122633 2.55267 0.645211 2.97775L6.03802 6.46444L0.645211 9.95113C-0.0122633 10.3762 -0.198502 11.2524 0.229236 11.9082C0.656973 12.5639 1.53671 12.7509 2.19419 12.3258L9.3541 7.69662C9.78625 7.41722 10.0148 6.94293 9.99926 6.46444Z"/>
</mask>
<path d="M9.3541 5.23226L5.55347 11.1106L5.55347 11.1106L9.3541 5.23226ZM9.99926 6.46444L3.00295 6.23701L2.99556 6.46444L3.00295 6.69188L9.99926 6.46444ZM2.19419 0.60306L5.99481 -5.27531L5.99481 -5.27531L2.19419 0.60306ZM0.229236 1.02072L-5.63374 -2.80361V-2.80361L0.229236 1.02072ZM0.645211 2.97775L-3.15542 8.85612L-3.15541 8.85612L0.645211 2.97775ZM6.03802 6.46444L9.83865 12.3428L18.9306 6.46444L9.83865 0.58607L6.03802 6.46444ZM0.645211 9.95113L4.44584 15.8295L4.44584 15.8295L0.645211 9.95113ZM2.19419 12.3258L-1.60644 6.44745L-1.60644 6.44745L2.19419 12.3258ZM9.3541 7.69662L5.55347 1.81825L5.55347 1.81825L9.3541 7.69662ZM5.55347 11.1106C3.84275 10.0046 2.94185 8.11656 3.00295 6.23701L16.9956 6.69188C17.0878 3.85535 15.7297 1.01875 13.1547 -0.646111L5.55347 11.1106ZM-1.60644 6.48143L5.55347 11.1106L13.1547 -0.64611L5.99481 -5.27531L-1.60644 6.48143ZM6.09222 4.84505C4.41386 7.41809 0.973355 8.14938 -1.60644 6.48143L5.99481 -5.27531C2.10007 -7.79344 -3.09992 -6.68816 -5.63374 -2.80361L6.09222 4.84505ZM4.44584 -2.90062C7.04417 -1.22068 7.78262 2.25352 6.09222 4.84504L-5.63374 -2.80361C-8.17963 1.09942 -7.0687 6.32601 -3.15542 8.85612L4.44584 -2.90062ZM9.83865 0.58607L4.44584 -2.90062L-3.15541 8.85612L2.23739 12.3428L9.83865 0.58607ZM2.23739 0.586071L-3.15542 4.07276L4.44584 15.8295L9.83865 12.3428L2.23739 0.586071ZM-3.15541 4.07276C-7.0687 6.60287 -8.17963 11.8295 -5.63374 15.7325L6.09221 8.08384C7.78262 10.6754 7.04418 14.1496 4.44584 15.8295L-3.15541 4.07276ZM-5.63374 15.7325C-3.09992 19.617 2.10007 20.7223 5.99481 18.2042L-1.60644 6.44745C0.973355 4.7795 4.41386 5.5108 6.09221 8.08384L-5.63374 15.7325ZM5.99481 18.2042L13.1547 13.575L5.55347 1.81825L-1.60644 6.44745L5.99481 18.2042ZM13.1547 13.575C15.7297 11.9101 17.0878 9.07353 16.9956 6.23701L3.00295 6.69188C2.94185 4.81232 3.84275 2.92431 5.55347 1.81825L13.1547 13.575Z" fill="#0057FF" mask="url(#path-1-inside-1)"/>
</svg>
