<svg width="80" height="80" viewBox="0 0 80 80" fill="none" xmlns="http://www.w3.org/2000/svg">
<rect x="1" y="1" width="78" height="78" rx="19" fill="white" stroke="#0057FF" stroke-width="2"/>
<path fill-rule="evenodd" clip-rule="evenodd" d="M29.5357 37.75H28.5714C27.9429 37.75 27.4286 37.2437 27.4286 36.625V29.875C27.4286 29.2562 27.9429 28.75 28.5714 28.75H29.5357C31.3 24.7773 35.3143 22 40 22C44.6857 22 48.7 24.7773 50.4643 28.75H51.4286C52.0572 28.75 52.5714 29.2562 52.5714 29.875V36.625C52.5714 37.2437 52.0572 37.75 51.4286 37.75H50.4643C48.7 41.7227 44.6857 44.5 40 44.5C35.3143 44.5 31.3 41.7227 29.5357 37.75ZM34.8572 28.75C32.9643 28.75 31.4286 30.0086 31.4286 31.5625V33.25C31.4286 36.9766 34.5 40 38.2857 40H41.7143C45.5 40 48.5714 36.9766 48.5714 33.25V31.5625C48.5714 30.0086 47.0357 28.75 45.1429 28.75H34.8572ZM36.5715 36.625L37.4286 34.0938L40 33.25L37.4286 32.4062L36.5715 29.875L35.7143 32.4062L33.1429 33.25L35.7143 34.0938L36.5715 36.625ZM40 46.75C42.7286 46.75 45.2643 45.9554 47.4 44.5984C52.2214 45.0976 56 49.0703 56 53.95V54.625C56 56.4882 54.4643 58 52.5714 58H46.8571V53.5C46.8571 52.2554 45.8357 51.25 44.5714 51.25H35.4286C34.1643 51.25 33.1429 52.2554 33.1429 53.5V58H27.4286C25.5357 58 24 56.4882 24 54.625V53.95C24 49.0703 27.7786 45.0976 32.6 44.5984C34.7357 45.9554 37.2714 46.75 40 46.75ZM43.4286 53.5C42.8 53.5 42.2857 54.0062 42.2857 54.625C42.2857 55.2438 42.8 55.75 43.4286 55.75C44.0571 55.75 44.5714 55.2438 44.5714 54.625C44.5714 54.0062 44.0571 53.5 43.4286 53.5ZM35.4286 54.625C35.4286 54.0062 35.9429 53.5 36.5714 53.5C37.2 53.5 37.7143 54.0062 37.7143 54.625V58H35.4286V54.625Z" fill="#0057FF"/>
</svg>
