<svg width="80" height="80" viewBox="0 0 80 80" fill="none" xmlns="http://www.w3.org/2000/svg">
<rect x="1" y="1" width="78" height="78" rx="19" fill="white" stroke="#0057FF" stroke-width="2"/>
<g clip-path="url(#clip0)">
<path fill-rule="evenodd" clip-rule="evenodd" d="M40.6074 23.4316C40.5806 23.4343 40.5539 23.4385 40.5275 23.4441C40.3762 23.4681 40.2349 23.5381 40.1209 23.6452C40.1169 23.6493 40.1129 23.6534 40.109 23.6576C40.0345 23.7137 38.6244 24.7729 36.4786 25.9021C34.277 27.0596 31.4109 28.1938 28.8771 28.1938H28.093V39.9903C28.093 46.0143 31.2191 50.1598 34.2813 52.7184C37.3435 55.2771 40.4174 56.3481 40.4174 56.3481L40.6615 56.4334L40.91 56.3481C40.91 56.3481 43.9839 55.2771 47.0461 52.7184C50.1083 50.1598 53.2344 46.0143 53.2344 39.9903V28.1938H52.4442C49.9104 28.1938 47.0488 27.0596 44.8473 25.9011C42.6868 24.7643 41.2492 23.6807 41.1939 23.639C41.077 23.5299 40.9316 23.4598 40.7765 23.4379C40.7725 23.4378 40.7686 23.4378 40.7646 23.4379C40.7412 23.4347 40.7176 23.4326 40.694 23.4316C40.69 23.4316 40.686 23.4316 40.6821 23.4316C40.6571 23.4304 40.632 23.4304 40.607 23.4316H40.6074ZM44.9636 35.788C44.6572 35.7965 44.366 35.9299 44.1518 36.1597L39.4888 41.0556L37.1749 38.6293C37.0658 38.512 36.9356 38.4185 36.7918 38.3544C36.6481 38.2902 36.4935 38.2567 36.3373 38.2557C36.181 38.2548 36.0261 38.2864 35.8816 38.3488C35.7371 38.4111 35.6059 38.5031 35.4956 38.6191C35.3852 38.7351 35.298 38.8729 35.2389 39.0246C35.1798 39.1763 35.1501 39.3388 35.1514 39.5026C35.1528 39.6665 35.1852 39.8284 35.2467 39.979C35.3083 40.1296 35.3978 40.2659 35.51 40.3799L38.654 43.6765C38.8749 43.9072 39.174 44.0367 39.4857 44.0367C39.7974 44.0367 40.0965 43.9072 40.3174 43.6765L45.8151 37.9053C45.9837 37.7318 46.0987 37.5091 46.1451 37.2663C46.1915 37.0234 46.1672 36.7715 46.0754 36.5433C45.9836 36.3151 45.8286 36.121 45.6303 35.9863C45.432 35.8516 45.1997 35.7826 44.9636 35.788Z" fill="#0057FF"/>
</g>
<defs>
<clipPath id="clip0">
<rect width="27" height="34" fill="white" transform="translate(27 23)"/>
</clipPath>
</defs>
</svg>
