<svg width="80" height="80" viewBox="0 0 80 80" fill="none" xmlns="http://www.w3.org/2000/svg">
<rect x="1" y="1" width="78" height="78" rx="19" stroke="#0057FF" stroke-width="2"/>
<path fill-rule="evenodd" clip-rule="evenodd" d="M41.62 29H46.4519C46.93 29 47.3912 29.1947 47.7231 29.5383L50.7944 32.6653V43.7473C50.6594 43.5926 50.5131 43.4437 50.35 43.3063L42.16 36.5368L43.6281 35.1681C43.9937 34.8245 44.0219 34.246 43.6844 33.8738C43.3525 33.5015 42.7787 33.4786 42.4131 33.8165L37.9187 38.0087C37.9159 38.0116 37.9117 38.013 37.9075 38.0144C37.9033 38.0159 37.8991 38.0173 37.8962 38.0202C36.9569 38.8735 35.455 38.6616 34.7406 37.8655C33.9419 36.9778 33.925 35.5518 34.8587 34.6584C34.8616 34.6555 34.8644 34.6512 34.8672 34.6469C34.87 34.6426 34.8728 34.6383 34.8756 34.6355L40.405 29.4811C40.7369 29.1718 41.17 29 41.62 29ZM52.6 45.4997V32.6768H58V47.3324H54.4C53.4044 47.3324 52.6 46.5134 52.6 45.4997ZM55.3 45.4997C54.805 45.4997 54.4 45.0873 54.4 44.5833C54.4 44.0793 54.805 43.667 55.3 43.667C55.795 43.667 56.2 44.0793 56.2 44.5833C56.2 45.0873 55.795 45.4997 55.3 45.4997ZM25.6 47.3267H22V32.6768H27.4V45.494C27.4 46.5077 26.5956 47.3267 25.6 47.3267ZM24.7 43.667C25.195 43.667 25.6 44.0793 25.6 44.5833C25.6 45.0873 25.195 45.4997 24.7 45.4997C24.205 45.4997 23.8 45.0873 23.8 44.5833C23.8 44.0736 24.205 43.667 24.7 43.667ZM40.8213 37.7911L49.2194 44.7323C49.99 45.3737 50.1081 46.5249 49.4781 47.3152L48.9438 47.9853C48.3194 48.7756 47.1831 48.8902 46.4125 48.2545L46.1088 48.0025L44.3425 50.2131C43.6169 51.1237 42.295 51.2669 41.4006 50.5224L40.3938 49.6347L40.3825 49.6462C39.1281 51.2154 36.8613 51.4559 35.32 50.1788L30.2294 45.4883H29.2V32.6653L32.2769 29.5383C32.6144 29.1947 33.07 29 33.5481 29H38.2619L33.6606 33.2896C32.0181 34.8245 31.9 37.4303 33.4131 39.114C34.9038 40.7692 37.4631 40.9181 39.1338 39.366L40.8213 37.7911Z" fill="#0057FF"/>
</svg>
