<svg width="84" height="80" viewBox="0 0 84 80" fill="none" xmlns="http://www.w3.org/2000/svg">
<rect x="1" y="1" width="81.3977" height="78" rx="19" stroke="#0057FF" stroke-width="2"/>
<path fill-rule="evenodd" clip-rule="evenodd" d="M41.9351 25.9517C41.9014 25.9506 41.8676 25.9512 41.8339 25.9535C41.6653 25.9638 41.5023 26.0163 41.3607 26.1061C41.2192 26.1958 41.1041 26.3197 41.0265 26.4657L36.8634 34.3273L27.8957 35.4276C27.7156 35.45 27.5454 35.5207 27.4044 35.6319C27.2633 35.743 27.1568 35.8901 27.097 36.0568C27.0371 36.2235 27.0262 36.403 27.0655 36.5754C27.1047 36.7477 27.1926 36.906 27.3193 37.0325L33.6737 43.3448L31.9653 52.0414C31.9305 52.2158 31.9466 52.3962 32.0119 52.5622C32.0772 52.7281 32.1891 52.8729 32.3348 52.9802C32.4805 53.0874 32.6542 53.1528 32.8362 53.1689C33.0182 53.185 33.2013 53.1511 33.3645 53.0712L41.4445 49.1098L49.3661 53.3811C49.5253 53.4654 49.7055 53.5051 49.8866 53.4956C50.0676 53.4861 50.2424 53.4279 50.3913 53.3274C50.5403 53.2269 50.6575 53.0881 50.73 52.9265C50.8024 52.765 50.8272 52.587 50.8016 52.4125L49.452 43.6473L56.0527 37.5948C56.1871 37.4735 56.2837 37.318 56.3314 37.146C56.3792 36.974 56.3762 36.7924 56.3229 36.6219C56.2696 36.4514 56.168 36.299 56.0297 36.182C55.8915 36.0649 55.7222 35.988 55.5412 35.9601L46.6251 34.5165L42.7864 26.5009C42.7105 26.3419 42.5907 26.2065 42.4405 26.1096C42.2902 26.0126 42.1153 25.958 41.9351 25.9517Z" fill="#0057FF"/>
</svg>
