<svg width="80" height="80" viewBox="0 0 80 80" fill="none" xmlns="http://www.w3.org/2000/svg">
<rect x="1" y="1" width="78" height="78" rx="19" stroke="#0057FF" stroke-width="2"/>
<path d="M41.2953 37.205V40.3952C41.2953 42.0501 45.3668 43.9041 50.817 43.9041C56.2673 43.9041 60.3403 42.0501 60.3403 40.3952V37.205C58.3993 38.6607 54.9397 39.5961 50.817 39.5961C46.6944 39.5961 43.2363 38.6614 41.2953 37.205ZM41.2953 49.1959V52.3845C41.2953 54.044 45.3668 55.8965 50.817 55.8965C56.2673 55.8965 60.3403 54.044 60.3403 52.3845V49.1959C58.3993 50.6531 54.9397 51.587 50.817 51.587C46.6944 51.587 43.2363 50.6531 41.2953 49.1959ZM20.2727 49.1974V52.3876C20.2727 54.0425 24.3442 55.8965 29.7944 55.8965C35.2447 55.8965 39.3177 54.0425 39.3177 52.3876V49.1974C37.3766 50.6531 33.9171 51.5885 29.7944 51.5885C25.6718 51.5885 22.2137 50.6531 20.2727 49.1974ZM29.7944 42.879C24.3442 42.879 20.2727 44.7331 20.2727 46.3895C20.2727 48.0489 24.3442 49.9015 29.7944 49.9015C35.2447 49.9015 39.3177 48.0489 39.3177 46.3895C39.3169 44.7331 35.2439 42.879 29.7944 42.879ZM41.2953 43.1993V46.3895C41.2953 48.0474 45.3668 49.9015 50.817 49.9015C56.2673 49.9015 60.3403 48.0474 60.3403 46.3895V43.1993C58.3993 44.6565 54.9397 45.5919 50.817 45.5919C46.6944 45.5919 43.2363 44.6572 41.2953 43.1993ZM50.817 30.8874C45.3668 30.8874 41.2953 32.7415 41.2953 34.3978C41.2953 36.0573 45.3668 37.9098 50.817 37.9098C56.2673 37.9098 60.3403 36.0573 60.3403 34.3978C60.3403 32.7415 56.2673 30.8874 50.817 30.8874Z" fill="#0057FF"/>
</svg>
