<svg width="13" height="15" viewBox="0 0 13 15" fill="none" xmlns="http://www.w3.org/2000/svg">
<path d="M11.1424 0.972569C11.25 0.927413 11.3387 0.84645 11.3934 0.743393C11.4482 0.640335 11.4656 0.52152 11.4428 0.407072C11.42 0.292624 11.3583 0.189581 11.2683 0.115395C11.1782 0.0412092 11.0652 0.000442538 10.9485 2.34996e-07H1.60494C1.48803 -0.000112387 1.3747 0.0402588 1.28419 0.114253C1.19368 0.188246 1.13159 0.291297 1.10846 0.405892C1.08533 0.520487 1.1026 0.639554 1.15732 0.742859C1.21205 0.846164 1.30086 0.927332 1.40866 0.972569C0.848687 1.27198 0.414001 1.76147 0.182862 2.3529C-0.0482781 2.94433 -0.0606875 3.59885 0.147868 4.19861C0.356423 4.79838 0.772241 5.30399 1.32046 5.62442C1.86868 5.94484 2.51328 6.05903 3.1382 5.94642C3.45293 6.5867 3.85734 7.17883 4.33923 7.70493C4.7652 8.15039 5.08607 8.68555 5.2783 9.27115C5.47053 9.85675 5.52926 10.478 5.45017 11.0892L5.42201 11.3032L3.87628 11.6567C3.78521 11.6775 3.70393 11.7286 3.6458 11.8017C3.58768 11.8748 3.55619 11.9656 3.55651 12.059V14.1775H3.14504C3.03596 14.1775 2.93136 14.2208 2.85423 14.2979C2.7771 14.375 2.73377 14.4797 2.73377 14.5887C2.73377 14.6978 2.7771 14.8024 2.85423 14.8795C2.93136 14.9567 3.03596 15 3.14504 15H9.40841C9.51749 15 9.6221 14.9567 9.69923 14.8795C9.77635 14.8024 9.81968 14.6978 9.81968 14.5887C9.81968 14.4797 9.77635 14.375 9.69923 14.2979C9.6221 14.2208 9.51749 14.1775 9.40841 14.1775H8.99734V12.0578C8.99769 11.9644 8.96625 11.8737 8.90821 11.8006C8.85017 11.7275 8.76897 11.6764 8.67798 11.6555L7.13144 11.3016L7.10369 11.0884C7.02433 10.4771 7.08296 9.85568 7.27528 9.26996C7.4676 8.68423 7.78871 8.14905 8.21503 7.70372C8.69715 7.17772 9.1017 6.58557 9.41646 5.94522C9.54931 5.96883 9.68378 5.98227 9.81868 5.98544C10.4111 5.98646 10.9871 5.79116 11.4568 5.43007C11.9264 5.06898 12.2632 4.56246 12.4145 3.98968C12.5657 3.4169 12.5229 2.81015 12.2928 2.26427C12.0626 1.71839 11.6581 1.26416 11.1424 0.972569ZM1.05752 3.29821C1.05826 3.01076 1.13313 2.72836 1.27489 2.47831C1.41665 2.22825 1.62052 2.01898 1.86678 1.87073C2.02003 2.93334 2.29828 3.97413 2.69576 4.97144C2.25832 4.96157 1.84207 4.78103 1.53596 4.46838C1.22985 4.15573 1.05814 3.73576 1.05752 3.29821ZM7.8844 12.1338C7.94435 12.1338 8.00185 12.1576 8.04424 12.2C8.08663 12.2424 8.11045 12.2999 8.11045 12.3598V13.5709C8.11024 13.6307 8.08633 13.688 8.04396 13.7302C8.00159 13.7724 7.94421 13.7962 7.8844 13.7962H4.66664C4.60669 13.7962 4.54919 13.7723 4.5068 13.7299C4.46441 13.6876 4.44059 13.6301 4.44059 13.5701V12.3594C4.4407 12.2995 4.46456 12.2421 4.50694 12.1998C4.54932 12.1575 4.60676 12.1338 4.66664 12.1338H7.8844ZM9.8589 4.97144C10.2559 3.97434 10.5338 2.93382 10.6867 1.87153C10.997 2.05823 11.2382 2.34076 11.3739 2.67651C11.5096 3.01225 11.5324 3.38302 11.439 3.7329C11.3456 4.08277 11.1409 4.39279 10.8559 4.61619C10.5709 4.8396 10.221 4.96428 9.8589 4.97144Z" fill="#406AFF"/>
</svg>
