<svg width="45" height="45" viewBox="0 0 45 45" fill="none" xmlns="http://www.w3.org/2000/svg">
<path fill-rule="evenodd" clip-rule="evenodd" d="M44.4798 15.1038C44.4817 14.397 44.3958 13.703 44.1583 13.0325C43.4664 11.0766 42.3033 9.45462 40.3542 8.40046C35.8257 5.95129 31.2934 3.50975 26.7755 1.04592C25.5471 0.375405 24.2386 0.0380949 22.8322 0.0034839C21.2818 -0.0340602 19.809 0.228162 18.4453 0.969071C13.8848 3.44639 9.2961 5.88148 4.75626 8.39224C2.04954 9.8899 0.625042 12.1918 0.5912 15.1326C0.53605 20.0497 0.578039 24.9668 0.574279 29.8839C0.573652 30.6412 0.673298 31.3816 0.941526 32.0955C1.65597 33.9961 2.80973 35.5724 4.71929 36.6019C9.21275 39.0247 13.7075 41.4463 18.1852 43.8925C19.3616 44.5355 20.6012 44.9156 21.953 44.9842C23.6043 45.0693 25.1749 44.8182 26.6288 44.0275C31.1592 41.5666 35.6903 39.1074 40.2358 36.6706C41.5036 35.9901 42.4825 35.0644 43.2264 33.9058C43.9446 32.7889 44.4503 31.5945 44.4629 30.2752C44.4861 27.6846 44.4698 25.0941 44.4698 22.5035H44.4773C44.4773 20.0368 44.4742 17.57 44.4798 15.1038ZM32.3331 23.38H23.4615V31.6842C23.4615 32.17 23.0403 32.5642 22.5214 32.5642C22.0025 32.5642 21.5813 32.17 21.5813 31.6842V23.38H12.7097C12.1908 23.38 11.7697 22.9858 11.7697 22.5C11.7697 22.0143 12.1908 21.6201 12.7097 21.6201H21.5813V13.3158C21.5813 12.8301 22.0025 12.4359 22.5214 12.4359C23.0403 12.4359 23.4615 12.8301 23.4615 13.3158V21.6201H32.3331C32.852 21.6201 33.2731 22.0143 33.2731 22.5C33.2731 22.9858 32.852 23.38 32.3331 23.38Z" fill="#D9D9D9"/>
</svg>
