<svg width="45" height="45" viewBox="0 0 45 45" fill="none" xmlns="http://www.w3.org/2000/svg">
<rect width="45" height="44.9856" rx="10" fill="#0057FF"/>
<path d="M32.841 19.1461V14.7711C32.841 13.4189 31.8069 12.3848 30.4546 12.3848H14.5455C13.1933 12.3848 12.1592 13.4189 12.1592 14.7711V30.6802C12.1592 32.0325 13.1933 33.0666 14.5455 33.0666H19.716" stroke="white" stroke-width="2" stroke-miterlimit="10" stroke-linecap="round" stroke-linejoin="round"/>
<path d="M17.7273 19.5437H27.2727" stroke="white" stroke-width="2" stroke-miterlimit="10" stroke-linecap="round"/>
<path d="M17.7273 24.3164H22.5" stroke="white" stroke-width="2" stroke-miterlimit="10" stroke-linecap="round"/>
<path d="M27.9887 34.1802L24.8864 34.8166C24.3296 34.8961 23.7728 34.4188 23.9319 33.862L24.5683 30.7597L31.8069 23.5211C32.1251 23.2029 32.6023 23.2029 32.9205 23.5211L35.3069 25.9075C35.6251 26.2257 35.6251 26.7029 35.3069 27.0211L27.9887 34.1802Z" stroke="white" stroke-width="2" stroke-miterlimit="10" stroke-linecap="round" stroke-linejoin="round"/>
</svg>
