<svg width="20" height="20" viewBox="0 0 20 20" fill="none" xmlns="http://www.w3.org/2000/svg">
<path d="M14.0443 8.80695L18.9024 3.46794C19.252 3.08379 19.8963 3.32835 19.8963 3.84517V17.3792C19.8963 18.3135 19.1306 19.0709 18.1859 19.0709H2.22213C1.27749 19.0709 0.511719 18.3135 0.511719 17.3792V11.1761C0.511719 10.7694 0.933694 10.4964 1.31038 10.6594L5.48121 12.4643L9.76792 7.42935C9.92962 7.23943 10.1979 7.17646 10.4286 7.27426L14.0443 8.80695ZM1.65199 12.0383V17.3792C1.65199 17.6906 1.90725 17.9431 2.22213 17.9431H18.1859C18.5008 17.9431 18.7561 17.6906 18.7561 17.3792V5.31471L14.6188 9.86157C14.4555 10.041 14.1948 10.0978 13.9704 10.0027L10.3679 8.47557L6.07904 13.513C5.91633 13.7041 5.64585 13.7666 5.41442 13.6664L1.65199 12.0383ZM13.4742 5.98737L18.3323 0.648355C18.5429 0.416861 18.9034 0.398089 19.1375 0.606433C19.3715 0.814776 19.3905 1.17134 19.1798 1.40283L14.0486 7.04199C13.8853 7.22146 13.6246 7.27818 13.4003 7.18307L9.79776 5.65599L5.50891 10.6934C5.34619 10.8846 5.07572 10.947 4.84428 10.8468L1.42347 9.36656C1.13499 9.24173 1.00345 8.90923 1.12966 8.6239C1.25587 8.33857 1.59203 8.20846 1.88051 8.33329L4.91108 9.6447L9.19779 4.60977C9.35948 4.41985 9.62775 4.35688 9.85848 4.45468L13.4742 5.98737Z" fill="#0057FF"/>
<path d="M1.65199 12.0383V17.3792C1.65199 17.6906 1.90725 17.9431 2.22213 17.9431H18.1859C18.5008 17.9431 18.7561 17.6906 18.7561 17.3792V5.31471L14.6188 9.86157C14.4555 10.041 14.1948 10.0978 13.9704 10.0027L10.3679 8.47557L6.07904 13.513C5.91633 13.7041 5.64585 13.7666 5.41442 13.6664L1.65199 12.0383Z" fill="#0057FF"/>
</svg>
