<svg width="16" height="20" viewBox="0 0 16 20" fill="none" xmlns="http://www.w3.org/2000/svg">
<path d="M0.800781 0.646484V1.27997V4.44739H4.6777V0.646484H0.800781ZM6.02554 0.646484V1.27997V4.44739H9.90246V0.646484H6.02554ZM11.1948 0.646484V1.27997V4.44739H15.0717V0.646484H11.1948ZM0.85631 5.71436V6.34784V9.51526H4.73323V5.71436H0.85631ZM6.02554 5.71436V6.34784V9.51526H9.90246V5.71436H6.02554ZM11.1948 5.71436V6.34784V9.51526H15.0717V5.71436H11.1948ZM0.85631 10.7822V11.4157V14.5831H4.73323V10.7822H0.85631ZM6.02554 10.7822V11.4157V14.5831H9.90246V10.7822H6.02554ZM11.1948 10.7822V11.4157V14.5831H15.0717V10.7822H11.1948ZM6.02554 15.8501V16.4836V19.651H9.90246V15.8501H6.02554Z" fill="#0057FF"/>
</svg>
