<svg width="19" height="19" viewBox="0 0 19 19" fill="none" xmlns="http://www.w3.org/2000/svg">
<path d="M18.5082 8.93978L12.5735 7.48499V18.0822C12.5727 18.1757 12.5557 18.2684 12.5232 18.3562H18.4411C18.5152 18.3562 18.5863 18.3274 18.6387 18.276C18.6911 18.2246 18.7205 18.1549 18.7205 18.0822V9.20553C18.7205 9.14435 18.6996 9.08494 18.6611 9.03677C18.6226 8.98861 18.5688 8.95446 18.5082 8.93978ZM17.3905 15.874H14.0376C13.9635 15.874 13.8924 15.8452 13.84 15.7938C13.7876 15.7424 13.7582 15.6727 13.7582 15.6001C13.7582 15.5274 13.7876 15.4577 13.84 15.4063C13.8924 15.3549 13.9635 15.3261 14.0376 15.3261H17.3905C17.4647 15.3261 17.5357 15.3549 17.5881 15.4063C17.6405 15.4577 17.67 15.5274 17.67 15.6001C17.67 15.6727 17.6405 15.7424 17.5881 15.7938C17.5357 15.8452 17.4647 15.874 17.3905 15.874ZM17.3905 13.3699H14.0376C13.9635 13.3699 13.8924 13.3411 13.84 13.2897C13.7876 13.2383 13.7582 13.1686 13.7582 13.0959C13.7582 13.0233 13.7876 12.9536 13.84 12.9022C13.8924 12.8508 13.9635 12.822 14.0376 12.822H17.3905C17.4647 12.822 17.5357 12.8508 17.5881 12.9022C17.6405 12.9536 17.67 13.0233 17.67 13.0959C17.67 13.1686 17.6405 13.2383 17.5881 13.2897C17.5357 13.3411 17.4647 13.3699 17.3905 13.3699ZM17.3905 10.8658H14.0376C13.9635 10.8658 13.8924 10.8369 13.84 10.7856C13.7876 10.7342 13.7582 10.6645 13.7582 10.5918C13.7582 10.5192 13.7876 10.4495 13.84 10.3981C13.8924 10.3467 13.9635 10.3179 14.0376 10.3179H17.3905C17.4647 10.3179 17.5357 10.3467 17.5881 10.3981C17.6405 10.4495 17.67 10.5192 17.67 10.5918C17.67 10.6645 17.6405 10.7342 17.5881 10.7856C17.5357 10.8369 17.4647 10.8658 17.3905 10.8658Z" fill="#0057FF"/>
<path d="M11.9085 0.331536C11.8757 0.304504 11.8369 0.285253 11.7952 0.275276C11.7536 0.265299 11.7101 0.264863 11.6682 0.274002L0.491768 3.01373C0.429774 3.02873 0.374889 3.0641 0.336252 3.11395C0.297614 3.16379 0.277556 3.22512 0.279415 3.2877V18.0822C0.279415 18.1549 0.308853 18.2246 0.361253 18.276C0.413653 18.3273 0.484723 18.3562 0.558827 18.3562H4.01795V13.1178C4.01795 13.0452 4.04738 12.9755 4.09978 12.9241C4.15218 12.8727 4.22325 12.8439 4.29736 12.8439H7.99677C8.07087 12.8439 8.14194 12.8727 8.19434 12.9241C8.24674 12.9755 8.27618 13.0452 8.27618 13.1178V18.3562H11.7353C11.8094 18.3562 11.8805 18.3273 11.9329 18.276C11.9853 18.2246 12.0147 18.1549 12.0147 18.0822V0.547975C12.0149 0.50636 12.0055 0.465241 11.9871 0.427739C11.9687 0.390237 11.9418 0.357337 11.9085 0.331536ZM5.2753 11.0165C5.2753 11.0891 5.24586 11.1588 5.19346 11.2102C5.14106 11.2616 5.06999 11.2904 4.99589 11.2904H3.17971C3.10561 11.2904 3.03454 11.2616 2.98214 11.2102C2.92974 11.1588 2.9003 11.0891 2.9003 11.0165V8.7151C2.9003 8.64244 2.92974 8.57275 2.98214 8.52137C3.03454 8.46999 3.10561 8.44113 3.17971 8.44113H4.99589C5.06999 8.44113 5.14106 8.46999 5.19346 8.52137C5.24586 8.57275 5.2753 8.64244 5.2753 8.7151V11.0165ZM5.2753 6.61373C5.2753 6.68639 5.24586 6.75608 5.19346 6.80746C5.14106 6.85884 5.06999 6.8877 4.99589 6.8877H3.17971C3.10561 6.8877 3.03454 6.85884 2.98214 6.80746C2.92974 6.75608 2.9003 6.68639 2.9003 6.61373V4.3151C2.9003 4.24244 2.92974 4.17275 2.98214 4.12137C3.03454 4.06999 3.10561 4.04113 3.17971 4.04113H4.99589C5.06999 4.04113 5.14106 4.06999 5.19346 4.12137C5.24586 4.17275 5.2753 4.24244 5.2753 4.3151V6.61373ZM9.39383 11.011C9.39383 11.0837 9.36439 11.1533 9.31199 11.2047C9.25959 11.2561 9.18852 11.285 9.11442 11.285H7.29824C7.22414 11.285 7.15307 11.2561 7.10067 11.2047C7.04827 11.1533 7.01883 11.0837 7.01883 11.011V8.7151C7.01883 8.64244 7.04827 8.57275 7.10067 8.52137C7.15307 8.46999 7.22414 8.44113 7.29824 8.44113H9.11442C9.18852 8.44113 9.25959 8.46999 9.31199 8.52137C9.36439 8.57275 9.39383 8.64244 9.39383 8.7151V11.011ZM9.39383 6.60825C9.39383 6.68091 9.36439 6.7506 9.31199 6.80198C9.25959 6.85336 9.18852 6.88222 9.11442 6.88222H7.29824C7.22414 6.88222 7.15307 6.85336 7.10067 6.80198C7.04827 6.7506 7.01883 6.68091 7.01883 6.60825V4.3151C7.01883 4.24244 7.04827 4.17275 7.10067 4.12137C7.15307 4.06999 7.22414 4.04113 7.29824 4.04113H9.11442C9.18852 4.04113 9.25959 4.06999 9.31199 4.12137C9.36439 4.17275 9.39383 4.24244 9.39383 4.3151V6.60825Z" fill="#0057FF"/>
</svg>
