<svg width="121" height="39" viewBox="0 0 121 39" fill="none" xmlns="http://www.w3.org/2000/svg">
<rect x="0.375" y="0.375" width="120.25" height="37.97" rx="4.625" fill="white"/>
<path fill-rule="evenodd" clip-rule="evenodd" d="M9.26367 18.9729V8.80894C9.26367 8.22814 9.73633 7.74414 10.209 7.74414C10.6816 7.74414 10.8707 7.84094 11.1543 8.03454L29.3988 18.2953C29.777 18.4889 29.966 18.7793 29.966 19.0697C29.966 19.3601 29.777 19.6505 29.3988 19.8441L11.1543 30.1049C10.9652 30.2017 10.6816 30.3953 10.209 30.3953C9.73633 30.3953 9.26367 29.9113 9.26367 29.3305V18.9729Z" fill="#2C3952" fill-opacity="0.75"/>
<path fill-rule="evenodd" clip-rule="evenodd" d="M21.0797 19.0697L10.0195 7.74414C10.1141 7.74414 10.1141 7.74414 10.2086 7.74414C10.6812 7.74414 10.8703 7.84094 11.1539 8.03454L24.5773 15.5849L21.0797 19.0697Z" fill="white" fill-opacity="0.5"/>
<path fill-rule="evenodd" clip-rule="evenodd" d="M24.4832 22.458L21.0801 18.9732L24.5777 15.3916L29.3988 18.102C29.777 18.2956 29.966 18.586 29.966 18.8764C29.966 19.1668 29.777 19.4572 29.3988 19.6508L24.4832 22.458Z" fill="url(#paint0_linear)"/>
<path fill-rule="evenodd" clip-rule="evenodd" d="M24.4832 22.458L21.0801 18.9732L24.5777 15.3916L29.3988 18.102C29.777 18.2956 29.966 18.586 29.966 18.8764C29.966 19.1668 29.777 19.4572 29.3988 19.6508L24.4832 22.458Z" fill="#2C3953"/>
<path opacity="0.2" fill-rule="evenodd" clip-rule="evenodd" d="M10.1152 30.2015L21.0809 18.9727L24.484 22.4575L11.1551 29.9111C10.8715 30.1047 10.6824 30.2015 10.1152 30.2015C10.2098 30.2015 10.2098 30.2015 10.1152 30.2015Z" fill="#2C3953"/>
<path fill-rule="evenodd" clip-rule="evenodd" d="M67.2126 32.815C66.74 32.4278 66.3618 31.7502 66.1728 31.363L67.6853 30.6854C67.7798 30.879 67.9689 31.1694 68.1579 31.4598C68.5361 31.847 69.1033 32.2342 69.6704 32.2342C70.2376 32.2342 70.8993 31.9438 71.2775 31.4598C71.5611 30.9758 71.7501 30.4918 71.7501 29.8142V29.2334C70.6157 30.6854 68.2525 30.4918 66.929 28.943C65.5111 27.3942 65.5111 24.7806 66.929 23.2318C68.347 21.7798 70.4267 21.5862 71.6556 22.9414V22.2638H73.2626V29.5238C73.2626 31.363 72.6009 32.4278 71.7501 33.1054C71.1829 33.5894 70.3322 33.783 69.5759 33.783C68.7251 33.6862 67.8743 33.3958 67.2126 32.815ZM106.821 33.2022L108.428 29.3302L105.592 22.651H107.199L109.184 27.3942L111.17 22.651H112.777L108.428 33.2022H106.821ZM99.1642 29.5238C98.6915 29.0398 98.5025 28.3622 98.5025 27.6846C98.5025 27.1038 98.6915 26.523 99.0696 26.1358C99.7314 25.4582 100.677 25.1678 101.717 25.1678C102.378 25.1678 102.945 25.2646 103.418 25.555C103.418 24.3934 102.473 23.9094 101.717 23.9094C101.055 23.9094 100.393 24.2966 100.109 24.9742L98.6915 24.3934C98.9751 23.7158 99.7314 22.4574 101.622 22.4574C102.567 22.4574 103.513 22.7478 104.08 23.4254C104.647 24.103 104.836 24.8774 104.836 25.9422V30.0078H103.229V29.3302C103.04 29.6206 102.662 29.8142 102.378 30.0078C102 30.2014 101.527 30.2982 101.055 30.2982C100.488 30.2014 99.6368 30.0078 99.1642 29.5238ZM48.779 26.039C48.779 24.103 50.197 21.9734 52.7493 21.9734C55.2072 21.9734 56.7197 24.103 56.7197 26.039C56.7197 27.975 55.3017 30.1046 52.7493 30.1046C50.197 30.1046 48.779 27.975 48.779 26.039ZM57.2868 26.039C57.2868 24.103 58.7048 21.9734 61.2572 21.9734C63.715 21.9734 65.2275 24.103 65.2275 26.039C65.2275 27.975 63.8095 30.1046 61.2572 30.1046C58.7993 30.1046 57.2868 27.975 57.2868 26.039ZM38.097 28.1686C35.7337 25.7486 35.8282 21.7798 38.1915 19.263C39.4204 18.0046 40.9329 17.4238 42.54 17.4238C44.0525 17.4238 45.565 18.0046 46.6993 19.1662L45.565 20.4246C43.8634 18.6822 41.122 18.779 39.515 20.5214C37.8134 22.3606 37.8134 25.1678 39.515 27.007C41.2165 28.8462 44.0525 28.943 45.754 27.1038C46.3212 26.523 46.5103 25.7486 46.6048 24.9742H42.6345V23.2318H48.2118C48.3064 23.619 48.3064 24.103 48.3064 24.587C48.3064 26.039 47.7392 27.491 46.7939 28.459C45.754 29.5238 44.2415 30.1046 42.729 30.1046C41.0275 30.0078 39.3259 29.427 38.097 28.1686ZM78.0837 28.8462C76.6658 27.2974 76.6658 24.6838 78.0837 23.0382C79.5017 21.4894 81.865 21.4894 83.1884 23.0382C83.6611 23.5222 83.9447 24.1998 84.2283 24.8774L79.029 27.1038C79.3126 27.7814 79.9743 28.3622 80.9197 28.3622C81.7704 28.3622 82.3376 28.0718 82.9048 27.2006L84.3228 28.1686C84.1337 28.3622 83.9447 28.5558 83.8501 28.7494C82.2431 30.395 79.5017 30.395 78.0837 28.8462ZM87.915 30.0078V19.263H91.3181C93.3033 19.263 94.9103 20.715 94.9103 22.4574C94.9103 24.1998 93.4923 25.6518 91.6962 25.6518H89.6165V29.911H87.915V30.0078ZM95.8556 30.0078V19.263H97.4626V30.0078H95.8556ZM74.4915 29.8142V17.811H76.1931V29.8142H74.4915ZM103.324 26.8134C102.945 26.523 102.378 26.4262 101.811 26.4262C100.677 26.4262 100.015 27.007 100.015 27.6846C100.015 28.3622 100.677 28.7494 101.338 28.7494C102.284 28.7494 103.324 27.975 103.324 26.8134ZM54.9236 26.039C54.9236 24.8774 54.1673 23.619 52.7493 23.619C51.3314 23.619 50.5751 24.8774 50.5751 26.039C50.5751 27.2006 51.3314 28.459 52.7493 28.459C54.0728 28.459 54.9236 27.2006 54.9236 26.039ZM63.4314 26.039C63.4314 24.8774 62.6751 23.619 61.2572 23.619C59.8392 23.619 59.0829 24.8774 59.0829 26.039C59.0829 27.2006 59.8392 28.459 61.2572 28.459C62.6751 28.459 63.4314 27.2006 63.4314 26.039ZM71.8447 26.7166C71.8447 26.6198 71.8447 26.523 71.9392 26.4262C71.9392 26.3294 71.9392 26.1358 71.9392 26.039C71.9392 25.9422 71.9392 25.7486 71.9392 25.6518V25.555C71.9392 25.4582 71.8447 25.2646 71.8447 25.1678C71.5611 24.1998 70.7103 23.5222 69.8595 23.5222C68.7251 23.5222 67.7798 24.6838 67.7798 25.9422C67.7798 27.2974 68.7251 28.3622 69.954 28.3622C70.7103 28.459 71.4665 27.7814 71.8447 26.7166ZM78.7454 25.8454L82.2431 24.2966C81.865 23.619 81.2978 23.4254 80.8251 23.4254C79.4072 23.5222 78.5564 25.071 78.7454 25.8454ZM93.2087 22.5542C93.2087 21.5862 92.4525 20.9086 91.4126 20.9086H89.522V24.2966H91.5071C92.4525 24.2966 93.2087 23.5222 93.2087 22.5542Z" fill="#2C3953"/>
<path fill-rule="evenodd" clip-rule="evenodd" d="M108.049 31.2659H107.955V31.1699H108.049H107.955V31.2659H108.049Z" fill="#2C3953"/>
<path fill-rule="evenodd" clip-rule="evenodd" d="M108.238 31.2659C108.238 31.1699 108.238 31.1699 108.238 31.2659C108.145 31.1699 108.145 31.1699 108.238 31.2659C108.145 31.2659 108.145 31.2659 108.238 31.2659ZM108.238 31.1699C108.238 31.2659 108.238 31.2659 108.238 31.1699C108.238 31.2659 108.145 31.2659 108.238 31.1699C108.145 31.1699 108.238 31.1699 108.238 31.1699Z" fill="#2C3953"/>
<path fill-rule="evenodd" clip-rule="evenodd" d="M108.332 31.1699H108.238H108.332V31.2659V31.1699Z" fill="#2C3953"/>
<path d="M36.7734 9.77693C36.7734 8.03453 38.0024 6.96973 39.5149 6.96973C40.5547 6.96973 41.2164 7.45373 41.6891 8.13133L40.9328 8.61533C40.6492 8.22813 40.1766 7.93773 39.5149 7.93773C38.475 7.93773 37.7187 8.71213 37.7187 9.87373C37.7187 11.0353 38.475 11.8097 39.5149 11.8097C40.082 11.8097 40.5547 11.5193 40.7438 11.3257V10.4545H39.2313V9.58333H41.7836V11.6161C41.3109 12.1969 40.5547 12.5841 39.6094 12.5841C38.0023 12.5841 36.7734 11.4225 36.7734 9.77693Z" fill="#2C3953"/>
<path d="M42.918 12.4872V7.06641H46.5102V7.93761H43.7688V9.29281H46.4156V10.164H43.7688V11.7128H46.5102V12.584L42.918 12.4872Z" fill="#2C3953"/>
<path d="M49.1578 12.4872V7.93761H47.5508V7.06641H51.7102V7.93761H50.1031V12.4872H49.1578Z" fill="#2C3953"/>
<path d="M54.9238 12.4872V7.06641H55.8691V12.4872H54.9238Z" fill="#2C3953"/>
<path d="M58.4215 12.4872V7.93761H56.8145V7.06641H60.9738V7.93761H59.3668V12.4872H58.4215Z" fill="#2C3953"/>
<path d="M63.998 9.77693C63.998 8.13133 65.1324 6.96973 66.7395 6.96973C68.3465 6.96973 69.4809 8.13133 69.4809 9.77693C69.4809 11.4225 68.3465 12.5841 66.7395 12.5841C65.1324 12.5841 63.998 11.3257 63.998 9.77693ZM68.441 9.77693C68.441 8.61533 67.7793 7.84093 66.6449 7.84093C65.6051 7.84093 64.8488 8.71213 64.8488 9.77693C64.8488 10.9385 65.5106 11.7129 66.6449 11.7129C67.7793 11.7129 68.441 10.8417 68.441 9.77693Z" fill="#2C3953"/>
<path d="M74.2082 12.4872L71.4668 8.61521V12.4872H70.5215V7.06641H71.4668L74.2082 10.8416V7.06641H75.1535V12.4872H74.2082Z" fill="#2C3953"/>
<rect x="0.375" y="0.375" width="120.25" height="37.97" rx="4.625" stroke="#2C3953" stroke-width="0.75"/>
<defs>
<linearGradient id="paint0_linear" x1="25.5178" y1="22.8647" x2="25.5178" y2="15.1706" gradientUnits="userSpaceOnUse">
<stop stop-color="#FCC072"/>
<stop offset="1" stop-color="#F58A5B"/>
</linearGradient>
</defs>
</svg>
