<svg class="google-play" width="100" height="32" viewBox="0 0 100 32" fill="none" xmlns="http://www.w3.org/2000/svg">
<path fill-rule="evenodd" clip-rule="evenodd" d="M7.65625 15.6799V7.2799C7.65625 6.7999 8.04688 6.3999 8.4375 6.3999C8.82813 6.3999 8.98438 6.4799 9.21875 6.6399L24.2969 15.1199C24.6094 15.2799 24.7656 15.5199 24.7656 15.7599C24.7656 15.9999 24.6094 16.2399 24.2969 16.3999L9.21875 24.8799C9.0625 24.9599 8.82813 25.1199 8.4375 25.1199C8.04688 25.1199 7.65625 24.7199 7.65625 24.2399V15.6799Z" fill="currentColor" fill-opacity="0.75"/>
<path fill-rule="evenodd" clip-rule="evenodd" d="M17.4219 15.7599L8.28125 6.3999C8.35938 6.3999 8.35937 6.3999 8.4375 6.3999C8.82812 6.3999 8.98437 6.4799 9.21875 6.6399L20.3125 12.8799L17.4219 15.7599Z" fill="white" fill-opacity="0.5"/>
<path fill-rule="evenodd" clip-rule="evenodd" d="M20.2344 18.56L17.4219 15.68L20.3125 12.72L24.2969 14.96C24.6094 15.12 24.7656 15.36 24.7656 15.6C24.7656 15.84 24.6094 16.08 24.2969 16.24L20.2344 18.56Z" fill="url(#paint0_linear)"/>
<path fill-rule="evenodd" clip-rule="evenodd" d="M20.2344 18.56L17.4219 15.68L20.3125 12.72L24.2969 14.96C24.6094 15.12 24.7656 15.36 24.7656 15.6C24.7656 15.84 24.6094 16.08 24.2969 16.24L20.2344 18.56Z" fill="currentColor"/>
<path opacity="0.2" fill-rule="evenodd" clip-rule="evenodd" d="M8.35938 24.9599L17.4219 15.6799L20.2344 18.5599L9.21875 24.7199C8.98438 24.8799 8.82813 24.9599 8.35938 24.9599C8.4375 24.9599 8.4375 24.9599 8.35938 24.9599Z" fill="currentColor"/>
<path fill-rule="evenodd" clip-rule="evenodd" d="M55.547 27.1199C55.1564 26.7999 54.8438 26.2399 54.6876 25.9199L55.9376 25.3599C56.0157 25.5199 56.172 25.7599 56.3282 25.9999C56.6407 26.3199 57.1095 26.6399 57.5782 26.6399C58.047 26.6399 58.5938 26.3999 58.9063 25.9999C59.1407 25.5999 59.297 25.1999 59.297 24.6399V24.1599C58.3595 25.3599 56.4063 25.1999 55.3126 23.9199C54.1407 22.6399 54.1407 20.4799 55.3126 19.1999C56.4845 17.9999 58.2032 17.8399 59.2188 18.9599V18.3999H60.547V24.3999C60.547 25.9199 60.0001 26.7999 59.297 27.3599C58.8282 27.7599 58.1251 27.9199 57.5001 27.9199C56.797 27.8399 56.0939 27.5999 55.547 27.1199ZM88.2813 27.4399L89.6095 24.2399L87.2657 18.7199H88.5938L90.2345 22.6399L91.8751 18.7199H93.2032L89.6095 27.4399H88.2813ZM81.9532 24.3999C81.5626 23.9999 81.4064 23.4399 81.4064 22.8799C81.4064 22.3999 81.5626 21.9199 81.8751 21.5999C82.422 21.0399 83.2032 20.7999 84.0626 20.7999C84.6095 20.7999 85.0782 20.8799 85.4688 21.1199C85.4688 20.1599 84.6876 19.7599 84.0626 19.7599C83.5157 19.7599 82.9688 20.0799 82.7345 20.6399L81.5626 20.1599C81.797 19.5999 82.422 18.5599 83.9845 18.5599C84.7657 18.5599 85.547 18.7999 86.0157 19.3599C86.4845 19.9199 86.6407 20.5599 86.6407 21.4399V24.7999H85.3126V24.2399C85.1564 24.4799 84.8438 24.6399 84.6095 24.7999C84.297 24.9599 83.9063 25.0399 83.5157 25.0399C83.047 24.9599 82.3438 24.7999 81.9532 24.3999ZM40.3126 21.5199C40.3126 19.9199 41.4845 18.1599 43.5939 18.1599C45.6251 18.1599 46.8751 19.9199 46.8751 21.5199C46.8751 23.1199 45.7032 24.8799 43.5939 24.8799C41.4845 24.8799 40.3126 23.1199 40.3126 21.5199ZM47.3439 21.5199C47.3439 19.9199 48.5157 18.1599 50.6251 18.1599C52.6564 18.1599 53.9063 19.9199 53.9063 21.5199C53.9063 23.1199 52.7345 24.8799 50.6251 24.8799C48.5939 24.8799 47.3439 23.1199 47.3439 21.5199ZM31.4845 23.2799C29.5314 21.2799 29.6095 17.9999 31.5626 15.9199C32.5782 14.8799 33.8282 14.3999 35.1563 14.3999C36.4063 14.3999 37.6563 14.8799 38.5938 15.8399L37.6563 16.8799C36.2501 15.4399 33.9845 15.5199 32.6564 16.9599C31.2501 18.4799 31.2501 20.7999 32.6564 22.3199C34.0626 23.8399 36.4063 23.9199 37.8126 22.3999C38.2813 21.9199 38.4376 21.2799 38.5157 20.6399H35.2345V19.1999H39.8438C39.922 19.5199 39.922 19.9199 39.922 20.3199C39.922 21.5199 39.4532 22.7199 38.672 23.5199C37.8126 24.3999 36.5626 24.8799 35.3126 24.8799C33.9063 24.7999 32.5001 24.3199 31.4845 23.2799ZM64.5314 23.8399C63.3595 22.5599 63.3595 20.3999 64.5314 19.0399C65.7032 17.7599 67.6563 17.7599 68.7501 19.0399C69.1407 19.4399 69.3751 19.9999 69.6095 20.5599L65.3126 22.3999C65.547 22.9599 66.0939 23.4399 66.8751 23.4399C67.5782 23.4399 68.047 23.1999 68.5157 22.4799L69.6876 23.2799C69.5314 23.4399 69.3751 23.5999 69.297 23.7599C67.9689 25.1199 65.7032 25.1199 64.5314 23.8399ZM72.6563 24.7999V15.9199H75.4689C77.1095 15.9199 78.4376 17.1199 78.4376 18.5599C78.4376 19.9999 77.2657 21.1999 75.7813 21.1999H74.0626V24.7199H72.6563V24.7999ZM79.2188 24.7999V15.9199H80.547V24.7999H79.2188ZM61.5626 24.6399V14.7199H62.9689V24.6399H61.5626ZM85.3907 22.1599C85.0782 21.9199 84.6095 21.8399 84.1407 21.8399C83.2032 21.8399 82.6563 22.3199 82.6563 22.8799C82.6563 23.4399 83.2032 23.7599 83.7501 23.7599C84.5314 23.7599 85.3907 23.1199 85.3907 22.1599ZM45.3907 21.5199C45.3907 20.5599 44.7657 19.5199 43.5939 19.5199C42.422 19.5199 41.797 20.5599 41.797 21.5199C41.797 22.4799 42.422 23.5199 43.5939 23.5199C44.6876 23.5199 45.3907 22.4799 45.3907 21.5199ZM52.422 21.5199C52.422 20.5599 51.797 19.5199 50.6251 19.5199C49.4532 19.5199 48.8282 20.5599 48.8282 21.5199C48.8282 22.4799 49.4532 23.5199 50.6251 23.5199C51.797 23.5199 52.422 22.4799 52.422 21.5199ZM59.3751 22.0799C59.3751 21.9999 59.3751 21.9199 59.4532 21.8399C59.4532 21.7599 59.4532 21.5999 59.4532 21.5199C59.4532 21.4399 59.4532 21.2799 59.4532 21.1999V21.1199C59.4532 21.0399 59.3751 20.8799 59.3751 20.7999C59.1407 19.9999 58.4376 19.4399 57.7345 19.4399C56.797 19.4399 56.0157 20.3999 56.0157 21.4399C56.0157 22.5599 56.797 23.4399 57.8126 23.4399C58.4376 23.5199 59.0626 22.9599 59.3751 22.0799ZM65.0782 21.3599L67.9688 20.0799C67.6563 19.5199 67.1876 19.3599 66.797 19.3599C65.6251 19.4399 64.922 20.7199 65.0782 21.3599ZM77.0314 18.6399C77.0314 17.8399 76.4064 17.2799 75.547 17.2799H73.9845V20.0799H75.6251C76.4063 20.0799 77.0314 19.4399 77.0314 18.6399Z" fill="currentColor"/>
<path fill-rule="evenodd" clip-rule="evenodd" d="M89.2969 25.84H89.2188V25.76H89.2969H89.2188V25.84H89.2969Z" fill="currentColor"/>
<path fill-rule="evenodd" clip-rule="evenodd" d="M89.4531 25.84C89.4531 25.76 89.4531 25.76 89.4531 25.84C89.375 25.76 89.375 25.76 89.4531 25.84C89.375 25.84 89.375 25.84 89.4531 25.84ZM89.4531 25.76C89.4531 25.84 89.4531 25.84 89.4531 25.76C89.4531 25.84 89.375 25.84 89.4531 25.76C89.375 25.76 89.4531 25.76 89.4531 25.76Z" fill="currentColor"/>
<path fill-rule="evenodd" clip-rule="evenodd" d="M89.5313 25.76H89.4531H89.5313V25.84V25.76Z" fill="currentColor"/>
<path d="M30.3906 8.08001C30.3906 6.64001 31.4063 5.76001 32.6563 5.76001C33.5156 5.76001 34.0625 6.16001 34.4531 6.72001L33.8281 7.12001C33.5938 6.80001 33.2031 6.56001 32.6563 6.56001C31.7969 6.56001 31.1719 7.20001 31.1719 8.16001C31.1719 9.12001 31.7969 9.76001 32.6563 9.76001C33.125 9.76001 33.5156 9.52001 33.6719 9.36001V8.64001H32.4219V7.92001H34.5313V9.60001C34.1406 10.08 33.5156 10.4 32.7344 10.4C31.4062 10.4 30.3906 9.44001 30.3906 8.08001Z" fill="currentColor"/>
<path d="M35.4688 10.3201V5.84009H38.4375V6.56009H36.1719V7.68009H38.3594V8.40009H36.1719V9.68009H38.4375V10.4001L35.4688 10.3201Z" fill="currentColor"/>
<path d="M40.625 10.3201V6.56009H39.2969V5.84009H42.7344V6.56009H41.4062V10.3201H40.625Z" fill="currentColor"/>
<path d="M45.3906 10.3201V5.84009H46.1719V10.3201H45.3906Z" fill="currentColor"/>
<path d="M48.2812 10.3201V6.56009H46.9531V5.84009H50.3906V6.56009H49.0625V10.3201H48.2812Z" fill="currentColor"/>
<path d="M52.8906 8.08001C52.8906 6.72001 53.8281 5.76001 55.1563 5.76001C56.4844 5.76001 57.4219 6.72001 57.4219 8.08001C57.4219 9.44001 56.4844 10.4 55.1563 10.4C53.8281 10.4 52.8906 9.36001 52.8906 8.08001ZM56.5625 8.08001C56.5625 7.12001 56.0156 6.48001 55.0781 6.48001C54.2188 6.48001 53.5938 7.20001 53.5938 8.08001C53.5938 9.04001 54.1406 9.68001 55.0781 9.68001C56.0156 9.68001 56.5625 8.96001 56.5625 8.08001Z" fill="currentColor"/>
<path d="M61.3281 10.3201L59.0625 7.12009V10.3201H58.2812V5.84009H59.0625L61.3281 8.96009V5.84009H62.1094V10.3201H61.3281Z" fill="currentColor"/>
<rect x="0.375" y="0.375" width="99.25" height="31.25" rx="4.625" stroke="currentColor" stroke-width="0.75"/>
<defs>
<linearGradient id="paint0_linear" x1="21.0894" y1="18.896" x2="21.0894" y2="12.5373" gradientUnits="userSpaceOnUse">
<stop stop-color="#FCC072"/>
<stop offset="1" stop-color="#F58A5B"/>
</linearGradient>
</defs>
</svg>
