<svg width="45" height="46" viewBox="0 0 45 46" fill="none" xmlns="http://www.w3.org/2000/svg">
<rect y="0.774414" width="45" height="44.9856" rx="10" fill="#0057FF"/>
<path d="M32.841 19.9205V15.5455C32.841 14.1933 31.8069 13.1592 30.4546 13.1592H14.5455C13.1933 13.1592 12.1592 14.1933 12.1592 15.5455V31.4546C12.1592 32.8069 13.1933 33.841 14.5455 33.841H19.716" stroke="white" stroke-width="2" stroke-miterlimit="10" stroke-linecap="round" stroke-linejoin="round"/>
<path d="M17.7273 20.3181H27.2727" stroke="white" stroke-width="2" stroke-miterlimit="10" stroke-linecap="round"/>
<path d="M17.7273 25.0908H22.5" stroke="white" stroke-width="2" stroke-miterlimit="10" stroke-linecap="round"/>
<path d="M27.9887 34.9546L24.8864 35.591C24.3296 35.6705 23.7728 35.1932 23.9319 34.6364L24.5683 31.5342L31.8069 24.2955C32.1251 23.9773 32.6023 23.9773 32.9205 24.2955L35.3069 26.6819C35.6251 27.0001 35.6251 27.4773 35.3069 27.7955L27.9887 34.9546Z" stroke="white" stroke-width="2" stroke-miterlimit="10" stroke-linecap="round" stroke-linejoin="round"/>
</svg>
