<svg width="12" height="14" viewBox="0 0 12 14" fill="none" xmlns="http://www.w3.org/2000/svg">
<path fill-rule="evenodd" clip-rule="evenodd" d="M2.83215 4.87894C3.07291 4.26019 4.03596 4.26019 4.66194 3.81822C4.85455 3.68563 5.04716 3.50885 5.04716 3.24367C4.95086 2.35973 4.61379 0.901241 4.27672 0.326684C4.18042 0.149897 4.03596 0.0173072 3.74705 0.0173072C2.8803 -0.115283 1.33942 0.547668 1.09866 0.857045C-2.70538 5.09993 4.13226 15.1326 9.95871 13.8951C10.3439 13.8067 11.6922 12.7902 11.9811 12.0388C12.0293 11.8178 11.9811 11.5968 11.8848 11.4643C11.4514 10.9339 10.1513 10.0058 9.33273 9.5638C9.09196 9.4312 8.8512 9.5196 8.61044 9.60799C7.88815 9.96157 7.50293 10.7571 6.78065 10.6687C5.43238 10.4919 2.39878 6.07226 2.83215 4.87894Z" fill="white"/>
</svg>
