<svg width="16" height="16" viewBox="0 0 16 16" fill="none" xmlns="http://www.w3.org/2000/svg">
<path opacity="0.5" d="M8 12C10.2091 12 12 10.2091 12 8C12 5.79086 10.2091 4 8 4C5.79086 4 4 5.79086 4 8C4 10.2091 5.79086 12 8 12Z" fill="white"/>
<path d="M8.00004 1.33325C6.6815 1.33325 5.39257 1.72425 4.29624 2.45679C3.19991 3.18933 2.34543 4.23052 1.84085 5.4487C1.33626 6.66687 1.20424 8.00731 1.46148 9.30052C1.71871 10.5937 2.35365 11.7816 3.286 12.714C4.21835 13.6463 5.40623 14.2813 6.69944 14.5385C7.99265 14.7957 9.33309 14.6637 10.5513 14.1591C11.7694 13.6545 12.8106 12.8 13.5432 11.7037C14.2757 10.6074 14.6667 9.31846 14.6667 7.99992C14.6648 6.23241 13.9618 4.53784 12.7119 3.28802C11.4621 2.0382 9.76756 1.33519 8.00004 1.33325ZM8.00004 11.9999C7.20892 11.9999 6.43556 11.7653 5.77776 11.3258C5.11997 10.8863 4.60728 10.2616 4.30452 9.53065C4.00177 8.79975 3.92256 7.99548 4.0769 7.21956C4.23124 6.44363 4.61221 5.7309 5.17162 5.17149C5.73103 4.61208 6.44376 4.23112 7.21968 4.07678C7.99561 3.92244 8.79987 4.00165 9.53078 4.3044C10.2617 4.60715 10.8864 5.11984 11.3259 5.77764C11.7654 6.43543 12 7.20879 12 7.99992C11.9988 9.06041 11.577 10.0771 10.8271 10.827C10.0772 11.5769 9.06053 11.9987 8.00004 11.9999Z" fill="white"/>
</svg>
