<svg width="18" height="18" viewBox="0 0 18 18" fill="none" xmlns="http://www.w3.org/2000/svg">
<path d="M7.5 4.5V3.75H10.5V4.5H12V3.75C11.9996 3.3523 11.8414 2.971 11.5602 2.68978C11.279 2.40856 10.8977 2.2504 10.5 2.25H7.5C7.1023 2.2504 6.721 2.40856 6.43978 2.68978C6.15856 2.971 6.0004 3.3523 6 3.75V4.5H7.5Z" fill="white"/>
<path opacity="0.25" d="M6.75 11.25C6.55109 11.25 6.36032 11.171 6.21967 11.0303C6.07902 10.8897 6 10.6989 6 10.5V9C6 8.80109 6.07902 8.61032 6.21967 8.46967C6.36032 8.32902 6.55109 8.25 6.75 8.25C6.94891 8.25 7.13968 8.32902 7.28033 8.46967C7.42098 8.61032 7.5 8.80109 7.5 9V10.5C7.5 10.6989 7.42098 10.8897 7.28033 11.0303C7.13968 11.171 6.94891 11.25 6.75 11.25ZM11.25 11.25C11.0511 11.25 10.8603 11.171 10.7197 11.0303C10.579 10.8897 10.5 10.6989 10.5 10.5V9C10.5 8.80109 10.579 8.61032 10.7197 8.46967C10.8603 8.32902 11.0511 8.25 11.25 8.25C11.4489 8.25 11.6397 8.32902 11.7803 8.46967C11.921 8.61032 12 8.80109 12 9V10.5C12 10.6989 11.921 10.8897 11.7803 11.0303C11.6397 11.171 11.4489 11.25 11.25 11.25Z" fill="white"/>
<path opacity="0.5" d="M15 4.5H3C2.60218 4.5 2.22064 4.65804 1.93934 4.93934C1.65804 5.22064 1.5 5.60218 1.5 6V8.25C1.5 8.64782 1.65804 9.02936 1.93934 9.31066C2.22064 9.59196 2.60218 9.75 3 9.75H6V9C6 8.80109 6.07902 8.61032 6.21967 8.46967C6.36032 8.32902 6.55109 8.25 6.75 8.25C6.94891 8.25 7.13968 8.32902 7.28033 8.46967C7.42098 8.61032 7.5 8.80109 7.5 9V9.75H10.5V9C10.5 8.80109 10.579 8.61032 10.7197 8.46967C10.8603 8.32902 11.0511 8.25 11.25 8.25C11.4489 8.25 11.6397 8.32902 11.7803 8.46967C11.921 8.61032 12 8.80109 12 9V9.75H15C15.3978 9.75 15.7794 9.59196 16.0607 9.31066C16.342 9.02936 16.5 8.64782 16.5 8.25V6C16.5 5.60218 16.342 5.22064 16.0607 4.93934C15.7794 4.65804 15.3978 4.5 15 4.5Z" fill="white"/>
<path d="M15 9.75H12V10.5C12 10.6989 11.921 10.8897 11.7803 11.0303C11.6397 11.171 11.4489 11.25 11.25 11.25C11.0511 11.25 10.8603 11.171 10.7197 11.0303C10.579 10.8897 10.5 10.6989 10.5 10.5V9.75H7.5V10.5C7.5 10.6989 7.42098 10.8897 7.28033 11.0303C7.13968 11.171 6.94891 11.25 6.75 11.25C6.55109 11.25 6.36032 11.171 6.21967 11.0303C6.07902 10.8897 6 10.6989 6 10.5V9.75H3C2.60218 9.75 2.22064 9.59196 1.93934 9.31066C1.65804 9.02936 1.5 8.64782 1.5 8.25V14.25C1.5 14.6478 1.65804 15.0294 1.93934 15.3107C2.22064 15.592 2.60218 15.75 3 15.75H15C15.3978 15.75 15.7794 15.592 16.0607 15.3107C16.342 15.0294 16.5 14.6478 16.5 14.25V8.25C16.5 8.64782 16.342 9.02936 16.0607 9.31066C15.7794 9.59196 15.3978 9.75 15 9.75Z" fill="white"/>
</svg>
