<svg width="10" height="5" viewBox="0 0 10 5" fill="none" xmlns="http://www.w3.org/2000/svg">
<path d="M5.0381 4.99777C5.11104 4.98973 5.18006 4.95823 5.23621 4.90734L9.86887 0.698274C9.90584 0.664872 9.93633 0.623923 9.9586 0.577779C9.98086 0.531636 9.99447 0.481207 9.99863 0.429378C10.0028 0.377549 9.99743 0.32534 9.98286 0.275751C9.96828 0.226162 9.94477 0.180169 9.91368 0.140404C9.88259 0.100639 9.84453 0.0678862 9.80168 0.044026C9.75883 0.0201657 9.71204 0.00566287 9.66399 0.00135621C9.61594 -0.00295045 9.56757 0.00302435 9.52166 0.0189299C9.47575 0.0348354 9.4332 0.0603641 9.39646 0.0940495L5 4.08938L0.603541 0.0940495C0.566796 0.0603641 0.524249 0.0348354 0.478339 0.0189299C0.43243 0.00302435 0.384063 -0.00295045 0.33601 0.00135621C0.287957 0.00566287 0.241166 0.0201657 0.198318 0.044026C0.155471 0.0678862 0.117411 0.100639 0.0863207 0.140404C0.0552307 0.180169 0.0317224 0.226162 0.0171443 0.275751C0.00256617 0.32534 -0.00279512 0.377549 0.001368 0.429378C0.00553113 0.481207 0.0191368 0.531636 0.0414045 0.577779C0.0636723 0.623923 0.094164 0.664872 0.131131 0.698274L4.7638 4.90734C4.80151 4.94158 4.84525 4.96723 4.89239 4.98277C4.93953 4.99831 4.98909 5.00342 5.0381 4.99777Z" fill="white"/>
</svg>
