<svg width="50" height="50" viewBox="0 0 50 50" fill="none" xmlns="http://www.w3.org/2000/svg">
<circle opacity="0.2" cx="25" cy="25" r="25" fill="#FF4F4F"/>
<circle cx="25" cy="25" r="16" fill="#FF4F4F"/>
<path d="M29.5876 23.4436L23.5501 20.0928C23.2234 19.9102 22.8526 19.8146 22.4754 19.8156C22.0981 19.8166 21.7279 19.9142 21.4022 20.0985C21.0766 20.2828 20.8071 20.5472 20.6212 20.8649C20.4353 21.1826 20.3397 21.5423 20.3439 21.9073V28.6331C20.3439 29.1818 20.5691 29.7079 20.9699 30.0958C21.3708 30.4838 21.9145 30.7017 22.4814 30.7017C22.8567 30.7011 23.2252 30.6051 23.5501 30.4235L29.5876 27.0727C29.912 26.891 30.1814 26.6299 30.3686 26.3157C30.5559 26.0014 30.6544 25.6451 30.6544 25.2823C30.6544 24.9196 30.5559 24.5632 30.3686 24.249C30.1814 23.9348 29.912 23.6737 29.5876 23.492V23.4436ZM28.9626 25.9779L22.9251 29.3771C22.7898 29.4513 22.6369 29.4903 22.4814 29.4903C22.3258 29.4903 22.173 29.4513 22.0376 29.3771C21.9027 29.3017 21.7906 29.1933 21.7127 29.0627C21.6349 28.9321 21.5939 28.7839 21.5939 28.6331V21.8831C21.5939 21.7323 21.6349 21.5842 21.7127 21.4536C21.7906 21.323 21.9027 21.2146 22.0376 21.1392C22.1735 21.0661 22.3259 21.0266 22.4814 21.0242C22.6367 21.0273 22.789 21.0668 22.9251 21.1392L28.9626 24.5142C29.0976 24.5895 29.2097 24.698 29.2877 24.8286C29.3656 24.9592 29.4066 25.1073 29.4066 25.2581C29.4066 25.4089 29.3656 25.5571 29.2877 25.6877C29.2097 25.8183 29.0976 25.9267 28.9626 26.0021V25.9779Z" fill="white"/>
</svg>
