<svg width="52" height="52" viewBox="0 0 52 52" fill="none" xmlns="http://www.w3.org/2000/svg">
<ellipse opacity="0.2" cx="26.0004" cy="25.9998" rx="25.4545" ry="25.1429" fill="#FF4F4F"/>
<ellipse cx="26.0002" cy="25.9997" rx="18.1818" ry="17.9592" fill="#FF4F4F"/>
<path d="M31.4841 23.8451L24.4586 19.8654C24.0784 19.6485 23.647 19.535 23.208 19.5361C22.769 19.5373 22.3382 19.6533 21.9592 19.8722C21.5803 20.091 21.2667 20.4051 21.0504 20.7824C20.8341 21.1597 20.7228 21.5869 20.7277 22.0205V30.0087C20.7277 30.6603 20.9897 31.2852 21.4562 31.746C21.9227 32.2067 22.5553 32.4655 23.215 32.4655C23.6516 32.4648 24.0805 32.3509 24.4586 32.1351L31.4841 28.1553C31.8616 27.9395 32.175 27.6295 32.3928 27.2563C32.6107 26.883 32.7254 26.4598 32.7254 26.029C32.7254 25.5981 32.6107 25.1749 32.3928 24.8017C32.175 24.4285 31.8616 24.1184 31.4841 23.9026V23.8451ZM30.7568 26.8551L23.7313 30.8923C23.5739 30.9805 23.396 31.0268 23.215 31.0268C23.034 31.0268 22.8561 30.9805 22.6986 30.8923C22.5416 30.8028 22.4112 30.674 22.3206 30.5189C22.2299 30.3638 22.1822 30.1878 22.1822 30.0087V21.9917C22.1822 21.8126 22.2299 21.6367 22.3206 21.4816C22.4112 21.3265 22.5416 21.1977 22.6986 21.1081C22.8567 21.0213 23.0341 20.9745 23.215 20.9717C23.3957 20.9753 23.5729 21.0222 23.7313 21.1081L30.7568 25.1166C30.9139 25.2061 31.0443 25.3349 31.135 25.49C31.2257 25.6451 31.2735 25.8211 31.2735 26.0002C31.2735 26.1794 31.2257 26.3553 31.135 26.5104C31.0443 26.6655 30.9139 26.7943 30.7568 26.8838V26.8551Z" fill="white"/>
</svg>
