<svg width="140" height="140" viewBox="0 0 140 140" fill="none" xmlns="http://www.w3.org/2000/svg">
<circle opacity="0.2" cx="70" cy="70" r="70" fill="#FF4F4F"/>
<circle cx="70" cy="70" r="50" fill="#FF4F4F"/>
<path d="M85.0804 64.0001L65.7604 52.9201C64.715 52.3164 63.5284 52.0001 62.3212 52.0034C61.114 52.0068 59.9292 52.3295 58.8871 52.9389C57.845 53.5483 56.9827 54.4227 56.3879 55.4732C55.7931 56.5237 55.4869 57.7129 55.5004 58.9201V81.1601C55.5004 82.9741 56.2211 84.7139 57.5038 85.9967C58.7866 87.2794 60.5263 88.0001 62.3404 88.0001C63.5413 87.998 64.7206 87.6808 65.7604 87.0801L85.0804 76.0001C86.1185 75.3992 86.9804 74.536 87.5796 73.4969C88.1788 72.4579 88.4942 71.2795 88.4942 70.0801C88.4942 68.8806 88.1788 67.7022 87.5796 66.6632C86.9804 65.6241 86.1185 64.7609 85.0804 64.1601V64.0001ZM83.0804 72.3801L63.7604 83.6201C63.3274 83.8655 62.8382 83.9945 62.3404 83.9945C61.8427 83.9945 61.3535 83.8655 60.9204 83.6201C60.4886 83.3707 60.1301 83.0122 59.8808 82.5803C59.6315 82.1485 59.5003 81.6587 59.5004 81.1601V58.8401C59.5003 58.3414 59.6315 57.8516 59.8808 57.4198C60.1301 56.9879 60.4886 56.6294 60.9204 56.3801C61.3552 56.1384 61.843 56.0078 62.3404 56.0001C62.8375 56.0103 63.3247 56.1406 63.7604 56.3801L83.0804 67.5401C83.5124 67.7892 83.8711 68.1478 84.1205 68.5796C84.37 69.0115 84.5013 69.5014 84.5013 70.0001C84.5013 70.4987 84.37 70.9886 84.1205 71.4205C83.8711 71.8523 83.5124 72.2109 83.0804 72.4601V72.3801Z" fill="white"/>
</svg>
