<svg width="73" height="74" viewBox="0 0 73 74" fill="none" xmlns="http://www.w3.org/2000/svg">
<ellipse opacity="0.2" cx="36.3272" cy="36.6359" rx="36.3277" ry="36.6359" fill="#FF4F4F"/>
<ellipse cx="36.3224" cy="36.6359" rx="25.9484" ry="26.1685" fill="#FF4F4F"/>
<path d="M44.155 33.4958L34.1285 27.6969C33.586 27.381 32.9702 27.2154 32.3437 27.2172C31.7172 27.2189 31.1023 27.3878 30.5615 27.7068C30.0207 28.0257 29.5732 28.4833 29.2645 29.0331C28.9558 29.5829 28.7969 30.2053 28.8039 30.8371V42.4769C28.8039 43.4263 29.1779 44.3369 29.8436 45.0082C30.5093 45.6796 31.4122 46.0567 32.3537 46.0567C32.9769 46.0557 33.5889 45.8896 34.1285 45.5752L44.155 39.7763C44.6937 39.4618 45.141 39.01 45.452 38.4662C45.7629 37.9224 45.9266 37.3057 45.9266 36.6779C45.9266 36.0502 45.7629 35.4335 45.452 34.8897C45.141 34.3458 44.6937 33.894 44.155 33.5796V33.4958ZM43.1171 37.8817L33.0906 43.7644C32.8659 43.8928 32.612 43.9603 32.3537 43.9603C32.0954 43.9603 31.8415 43.8928 31.6167 43.7644C31.3926 43.6339 31.2066 43.4462 31.0772 43.2202C30.9478 42.9942 30.8798 42.7378 30.8798 42.4769V30.7953C30.8798 30.5343 30.9478 30.2779 31.0772 30.0519C31.2066 29.8259 31.3926 29.6382 31.6167 29.5078C31.8424 29.3813 32.0955 29.313 32.3537 29.3089C32.6116 29.3142 32.8645 29.3825 33.0906 29.5078L43.1171 35.3486C43.3412 35.479 43.5274 35.6667 43.6568 35.8927C43.7863 36.1187 43.8544 36.3751 43.8544 36.6361C43.8544 36.8971 43.7863 37.1535 43.6568 37.3795C43.5274 37.6055 43.3412 37.7931 43.1171 37.9236V37.8817Z" fill="white"/>
</svg>
