<svg width="23" height="25" viewBox="0 0 23 25" fill="none" xmlns="http://www.w3.org/2000/svg">
<path d="M19.9473 8.62527L7.46979 1.46943C6.79461 1.07956 6.02828 0.875317 5.24863 0.877458C4.46897 0.8796 3.70377 1.08805 3.03075 1.48163C2.35773 1.87521 1.80086 2.4399 1.41671 3.11835C1.03256 3.79679 0.834804 4.56483 0.843539 5.34443V19.7078C0.843539 20.8794 1.30895 22.003 2.13739 22.8314C2.96584 23.6599 4.08945 24.1253 5.26104 24.1253C6.0366 24.124 6.79823 23.9191 7.46979 23.5311L19.9473 16.3753C20.6177 15.9872 21.1744 15.4297 21.5613 14.7587C21.9483 14.0876 22.152 13.3266 22.152 12.5519C22.152 11.7773 21.9483 11.0163 21.5613 10.3452C21.1744 9.67414 20.6177 9.11663 19.9473 8.7286V8.62527ZM18.6556 14.0374L6.17812 21.2965C5.89846 21.455 5.58249 21.5383 5.26104 21.5383C4.93959 21.5383 4.62362 21.455 4.34396 21.2965C4.06508 21.1355 3.83351 20.9039 3.67253 20.625C3.51154 20.3461 3.42682 20.0298 3.42687 19.7078V5.29277C3.42682 4.97075 3.51154 4.65439 3.67253 4.37551C3.83351 4.09662 4.06508 3.86503 4.34396 3.70402C4.62477 3.54793 4.9398 3.46362 5.26104 3.4586C5.58206 3.46519 5.89672 3.54939 6.17812 3.70402L18.6556 10.9115C18.9346 11.0725 19.1663 11.304 19.3274 11.5829C19.4884 11.8618 19.5732 12.1782 19.5732 12.5003C19.5732 12.8223 19.4884 13.1387 19.3274 13.4176C19.1663 13.6965 18.9346 13.9281 18.6556 14.089V14.0374Z" fill="white"/>
<path d="M18.6556 14.0374L6.17812 21.2965C5.89846 21.455 5.58249 21.5383 5.26104 21.5383C4.93959 21.5383 4.62362 21.455 4.34396 21.2965C4.06508 21.1355 3.83351 20.9039 3.67253 20.625C3.51154 20.3461 3.42682 20.0298 3.42687 19.7078V5.29277C3.42682 4.97075 3.51154 4.65439 3.67253 4.37551C3.83351 4.09662 4.06508 3.86503 4.34396 3.70402C4.62477 3.54793 4.9398 3.46362 5.26104 3.4586C5.58206 3.46519 5.89672 3.54939 6.17812 3.70402L18.6556 10.9115C18.9346 11.0725 19.1663 11.304 19.3274 11.5829C19.4884 11.8618 19.5732 12.1782 19.5732 12.5003C19.5732 12.8223 19.4884 13.1387 19.3274 13.4176C19.1663 13.6965 18.9346 13.9281 18.6556 14.089V14.0374Z" fill="white"/>
</svg>
