<svg width="44" height="21" viewBox="0 0 44 21" fill="none" xmlns="http://www.w3.org/2000/svg">
<path d="M10.3502 6.668H13.7492C14.5925 6.668 15.2488 6.87333 15.7182 7.284C16.1875 7.68733 16.4222 8.241 16.4222 8.945C16.4222 9.649 16.1838 10.2063 15.7072 10.617C15.2378 11.0277 14.5852 11.233 13.7492 11.233H11.7692V14.5H10.3502V6.668ZM13.5842 10.133C14.0755 10.133 14.4458 10.034 14.6952 9.836C14.9518 9.63067 15.0802 9.33733 15.0802 8.956C15.0802 8.56733 14.9555 8.274 14.7062 8.076C14.4568 7.87067 14.0828 7.768 13.5842 7.768H11.7692V10.133H13.5842ZM24.3423 14.5H22.8463L21.8453 11.893C21.7573 11.651 21.6217 11.4823 21.4383 11.387C21.255 11.2917 21.0167 11.244 20.7233 11.244H19.3043V14.5H17.8963V6.668H21.2513C22.1387 6.668 22.8133 6.86233 23.2753 7.251C23.7373 7.63967 23.9683 8.197 23.9683 8.923C23.9683 9.44367 23.829 9.88733 23.5503 10.254C23.279 10.6133 22.8903 10.87 22.3843 11.024C22.8463 11.1193 23.18 11.442 23.3853 11.992L24.3423 14.5ZM21.0533 10.144C21.5887 10.144 21.9847 10.045 22.2413 9.847C22.498 9.649 22.6263 9.34833 22.6263 8.945C22.6263 8.549 22.498 8.25567 22.2413 8.065C21.992 7.867 21.596 7.768 21.0533 7.768H19.2823V10.144H21.0533ZM29.2623 14.599C28.5069 14.599 27.8469 14.4377 27.2823 14.115C26.7249 13.785 26.2923 13.3193 25.9843 12.718C25.6836 12.1093 25.5333 11.3943 25.5333 10.573C25.5333 9.759 25.6836 9.05133 25.9843 8.45C26.2849 7.84133 26.7139 7.37567 27.2713 7.053C27.8359 6.73033 28.4996 6.569 29.2623 6.569C30.0249 6.569 30.6849 6.73033 31.2423 7.053C31.8069 7.37567 32.2359 7.84133 32.5293 8.45C32.8299 9.05133 32.9803 9.759 32.9803 10.573C32.9803 11.3943 32.8299 12.1093 32.5293 12.718C32.2286 13.3193 31.7996 13.785 31.2423 14.115C30.6849 14.4377 30.0249 14.599 29.2623 14.599ZM29.2623 13.466C29.9883 13.466 30.5529 13.2167 30.9563 12.718C31.3596 12.2193 31.5613 11.5043 31.5613 10.573C31.5613 9.649 31.3596 8.94133 30.9563 8.45C30.5529 7.95133 29.9883 7.702 29.2623 7.702C28.5363 7.702 27.9716 7.94767 27.5683 8.439C27.1649 8.93033 26.9633 9.64167 26.9633 10.573C26.9633 11.5043 27.1649 12.2193 27.5683 12.718C27.9716 13.2167 28.5363 13.466 29.2623 13.466Z" fill="#406AFF"/>
<rect x="1.00317" y="1" width="42" height="19" rx="4.5" stroke="#406AFF"/>
</svg>
