<svg width="80" height="80" viewBox="0 0 80 80" fill="none" xmlns="http://www.w3.org/2000/svg">
<rect x="1" y="1" width="78" height="78" rx="19" stroke="#0057FF" stroke-width="2"/>
<path d="M38.1663 33V31.6667H43.833V33H46.6663V31.6667C46.6656 30.9596 46.3668 30.2818 45.8356 29.7818C45.3045 29.2819 44.5842 29.0007 43.833 29H38.1663C37.4151 29.0007 36.6949 29.2819 36.1637 29.7818C35.6325 30.2818 35.3338 30.9596 35.333 31.6667V33H38.1663Z" fill="#0057FF"/>
<path d="M36.7497 44.9998C36.374 44.9998 36.0136 44.8594 35.7479 44.6093C35.4823 44.3593 35.333 44.0201 35.333 43.6665V40.9998C35.333 40.6462 35.4823 40.3071 35.7479 40.057C36.0136 39.807 36.374 39.6665 36.7497 39.6665C37.1254 39.6665 37.4857 39.807 37.7514 40.057C38.0171 40.3071 38.1663 40.6462 38.1663 40.9998V43.6665C38.1663 44.0201 38.0171 44.3593 37.7514 44.6093C37.4857 44.8594 37.1254 44.9998 36.7497 44.9998ZM45.2497 44.9998C44.874 44.9998 44.5136 44.8594 44.2479 44.6093C43.9823 44.3593 43.833 44.0201 43.833 43.6665V40.9998C43.833 40.6462 43.9823 40.3071 44.2479 40.057C44.5136 39.807 44.874 39.6665 45.2497 39.6665C45.6254 39.6665 45.9857 39.807 46.2514 40.057C46.5171 40.3071 46.6663 40.6462 46.6663 40.9998V43.6665C46.6663 44.0201 46.5171 44.3593 46.2514 44.6093C45.9857 44.8594 45.6254 44.9998 45.2497 44.9998Z" fill="#0057FF"/>
<path d="M52.333 33H29.6663C28.9149 33 28.1942 33.281 27.6629 33.781C27.1315 34.2811 26.833 34.9594 26.833 35.6667V39.6667C26.833 40.3739 27.1315 41.0522 27.6629 41.5523C28.1942 42.0524 28.9149 42.3333 29.6663 42.3333H35.333V41C35.333 40.6464 35.4823 40.3072 35.7479 40.0572C36.0136 39.8071 36.374 39.6667 36.7497 39.6667C37.1254 39.6667 37.4857 39.8071 37.7514 40.0572C38.0171 40.3072 38.1663 40.6464 38.1663 41V42.3333H43.833V41C43.833 40.6464 43.9823 40.3072 44.2479 40.0572C44.5136 39.8071 44.874 39.6667 45.2497 39.6667C45.6254 39.6667 45.9857 39.8071 46.2514 40.0572C46.5171 40.3072 46.6663 40.6464 46.6663 41V42.3333H52.333C53.0845 42.3333 53.8051 42.0524 54.3365 41.5523C54.8678 41.0522 55.1663 40.3739 55.1663 39.6667V35.6667C55.1663 34.9594 54.8678 34.2811 54.3365 33.781C53.8051 33.281 53.0845 33 52.333 33Z" fill="#0057FF"/>
<path d="M52.333 42.3332H46.6663V43.6665C46.6663 44.0201 46.5171 44.3593 46.2514 44.6093C45.9857 44.8594 45.6254 44.9998 45.2497 44.9998C44.874 44.9998 44.5136 44.8594 44.2479 44.6093C43.9823 44.3593 43.833 44.0201 43.833 43.6665V42.3332H38.1663V43.6665C38.1663 44.0201 38.0171 44.3593 37.7514 44.6093C37.4857 44.8594 37.1254 44.9998 36.7497 44.9998C36.374 44.9998 36.0136 44.8594 35.7479 44.6093C35.4823 44.3593 35.333 44.0201 35.333 43.6665V42.3332H29.6663C28.9149 42.3332 28.1942 42.0522 27.6629 41.5521C27.1315 41.052 26.833 40.3737 26.833 39.6665V50.3332C26.833 51.0404 27.1315 51.7187 27.6629 52.2188C28.1942 52.7189 28.9149 52.9998 29.6663 52.9998H52.333C53.0845 52.9998 53.8051 52.7189 54.3365 52.2188C54.8678 51.7187 55.1663 51.0404 55.1663 50.3332V39.6665C55.1663 40.3737 54.8678 41.052 54.3365 41.5521C53.8051 42.0522 53.0845 42.3332 52.333 42.3332Z" fill="#0057FF"/>
</svg>
