<svg width="80" height="80" viewBox="0 0 80 80" fill="none" xmlns="http://www.w3.org/2000/svg">
<rect x="1" y="1" width="78" height="78" rx="19" stroke="#0057FF" stroke-width="2"/>
<path d="M53.2476 43.0083L50.8156 41.1523C50.8476 40.8003 50.9116 40.4163 50.9116 40.0003C50.9116 39.5843 50.8796 39.2323 50.8156 38.8803L53.4396 37.0243C53.9836 36.6083 54.1436 35.8403 53.7916 35.2643L50.9436 30.4323C50.5596 29.7923 49.8556 29.6003 49.2476 29.9203L46.3676 31.2323C45.7276 30.7843 45.1196 30.4323 44.4156 30.1123L44.1276 26.9123V26.8483C43.9996 26.2083 43.4556 25.7603 42.8476 25.7603H37.2476C36.5756 25.7603 35.9676 26.3043 35.9676 26.9443L35.6796 30.1123C34.9116 30.4643 34.2716 30.8163 33.7276 31.2323L30.8156 29.8883H30.7836C30.1756 29.6323 29.4396 29.8883 29.1516 30.4323L26.3676 35.2323C26.0156 35.8083 26.1756 36.5763 26.7516 36.9923L29.3756 38.8483C29.3436 39.2003 29.2796 39.5843 29.2796 39.9683C29.2796 40.3843 29.3116 40.7363 29.3756 41.0883L26.5596 43.0083C26.0156 43.4243 25.8556 44.1923 26.2076 44.7683L29.0236 49.6003C29.4076 50.2403 30.1116 50.4323 30.7196 50.1123L33.5996 48.8003C34.2076 49.2483 34.8476 49.6003 35.5516 49.9203L35.8396 53.1203V53.1842C35.9676 53.8242 36.5116 54.2722 37.1196 54.2722H42.7196C43.3916 54.2722 43.9996 53.7283 43.9996 53.0883L44.2876 49.9203C45.0556 49.5683 45.6956 49.2163 46.2396 48.8003L49.1516 50.1443H49.1836C49.7916 50.4002 50.5276 50.1443 50.8156 49.6003L53.5996 44.8003C53.9516 44.1603 53.7916 43.4243 53.2476 43.0083ZM39.9996 45.7283C36.7676 45.7283 34.2716 43.2003 34.2716 40.0003C34.2716 36.7683 36.7996 34.2723 39.9996 34.2723C43.1996 34.2723 45.7276 36.7683 45.7276 40.0003C45.7276 43.2323 43.2316 45.7283 39.9996 45.7283Z" fill="#0057FF"/>
</svg>
