<svg width="96" height="36" viewBox="0 0 96 36" fill="none" xmlns="http://www.w3.org/2000/svg">
  <rect width="96" height="36" rx="10" fill="transparent"/>
  <path d="M29.5351 15.05H36.5979V16.3648H33.817V23.7767H32.2927V16.3648H29.5234L29.5351 15.05ZM36.2954 17.4586H37.5986V18.6803H37.6219C37.6684 18.5058 37.7499 18.3429 37.8662 18.18C37.9826 18.0171 38.1222 17.8658 38.2967 17.7378C38.4596 17.5982 38.6458 17.4935 38.8552 17.412C39.0531 17.3306 39.2625 17.284 39.4719 17.284C39.6348 17.284 39.7512 17.2957 39.8094 17.2957C39.8676 17.3073 39.9374 17.3189 39.9955 17.3189V18.657C39.9025 18.6338 39.7977 18.6221 39.693 18.6105C39.5883 18.5989 39.4952 18.5872 39.3905 18.5872C39.1578 18.5872 38.9367 18.6338 38.7273 18.7269C38.5178 18.8199 38.3433 18.9596 38.1804 19.1341C38.0291 19.3203 37.9011 19.5414 37.808 19.809C37.715 20.0766 37.6684 20.3908 37.6684 20.7398V23.7418H36.2721L36.2954 17.4586ZM46.3952 23.7767H45.0222V22.8924H44.9989C44.8244 23.2182 44.5684 23.4626 44.2309 23.6604C43.8935 23.8582 43.5444 23.9513 43.1954 23.9513C42.3692 23.9513 41.7642 23.7535 41.3918 23.3346C41.0195 22.9273 40.8333 22.299 40.8333 21.4729V17.4586H42.2296V21.3333C42.2296 21.8918 42.3343 22.2874 42.5554 22.5085C42.7648 22.7412 43.0674 22.8575 43.4513 22.8575C43.7422 22.8575 43.9866 22.811 44.1844 22.7179C44.3822 22.6248 44.5451 22.5085 44.6615 22.3572C44.7894 22.2059 44.8709 22.0198 44.9291 21.8103C44.9872 21.6009 45.0105 21.3682 45.0105 21.1238V17.4586L46.4068 17.4586V23.7767H46.3952ZM48.7688 21.7521C48.8154 22.1594 48.9667 22.4386 49.2343 22.6132C49.5019 22.7761 49.8277 22.8575 50.2 22.8575C50.328 22.8575 50.4793 22.8459 50.6422 22.8226C50.8051 22.7993 50.968 22.7644 51.1076 22.7063C51.2589 22.6481 51.3752 22.5666 51.4683 22.4503C51.5614 22.3339 51.6079 22.1943 51.5963 22.0198C51.5847 21.8452 51.5265 21.694 51.3985 21.5776C51.2705 21.4612 51.1193 21.3798 50.9331 21.2983C50.7469 21.2285 50.5258 21.1704 50.2815 21.1238C50.0371 21.0773 49.7928 21.0191 49.5368 20.9609C49.2808 20.9027 49.0248 20.8329 48.7805 20.7515C48.5361 20.67 48.3267 20.5653 48.1289 20.414C47.9427 20.2744 47.7798 20.0999 47.6751 19.8788C47.5587 19.6577 47.5006 19.4017 47.5006 19.0759C47.5006 18.7269 47.582 18.4476 47.7565 18.2149C47.9194 17.9822 48.1405 17.796 48.3965 17.6564C48.6525 17.5168 48.9434 17.412 49.2575 17.3539C49.5717 17.2957 49.8742 17.2724 50.1535 17.2724C50.4793 17.2724 50.7935 17.3073 51.0843 17.3771C51.3752 17.4469 51.6545 17.5517 51.8872 17.7146C52.1316 17.8658 52.3294 18.0753 52.4806 18.3196C52.6435 18.564 52.7366 18.8665 52.7832 19.2156H51.3287C51.2589 18.8781 51.1076 18.657 50.8749 18.5407C50.6306 18.4243 50.3629 18.3662 50.0488 18.3662C49.9557 18.3662 49.8277 18.3778 49.6997 18.3894C49.5601 18.4127 49.4437 18.436 49.3157 18.4825C49.1994 18.5291 49.0946 18.5989 49.0132 18.6803C48.9317 18.7618 48.8852 18.8781 48.8852 19.0178C48.8852 19.1923 48.9434 19.3203 49.0597 19.425C49.1761 19.5297 49.3274 19.6112 49.5252 19.6926C49.7113 19.7624 49.9324 19.8206 50.1768 19.8672C50.4211 19.9137 50.6771 19.9719 50.9331 20.0301C51.1891 20.0882 51.4334 20.158 51.6778 20.2395C51.9221 20.3209 52.1432 20.4257 52.3294 20.5769C52.5155 20.7166 52.6784 20.8911 52.7948 21.1005C52.9111 21.31 52.9693 21.5776 52.9693 21.8801C52.9693 22.2525 52.8879 22.5666 52.7133 22.8343C52.5388 23.0902 52.3177 23.3113 52.0501 23.4742C51.7825 23.6371 51.4683 23.7535 51.1425 23.8349C50.8051 23.9047 50.4793 23.9513 50.1535 23.9513C49.7579 23.9513 49.3855 23.9047 49.0481 23.8117C48.7107 23.7186 48.4081 23.5789 48.1638 23.4044C47.9194 23.2182 47.7216 22.9972 47.582 22.7179C47.4424 22.4503 47.3609 22.1245 47.3493 21.7405L48.7572 21.7405V21.7521H48.7688ZM53.3649 17.4586H54.4238V15.5503H55.8201V17.4469H57.0767V18.4825H55.8201V21.8569C55.8201 22.0081 55.8317 22.1245 55.8433 22.2408C55.855 22.3456 55.8899 22.4386 55.9248 22.5085C55.9713 22.5783 56.0411 22.6364 56.1226 22.6714C56.2157 22.7063 56.332 22.7295 56.4949 22.7295C56.588 22.7295 56.6927 22.7295 56.7858 22.7179C56.8789 22.7063 56.9836 22.6946 57.0767 22.6714V23.7535C56.9255 23.7767 56.7742 23.7884 56.6229 23.8C56.4717 23.8233 56.332 23.8233 56.1691 23.8233C55.7968 23.8233 55.5059 23.7884 55.2848 23.7186C55.0637 23.6488 54.8892 23.544 54.7612 23.416C54.6332 23.2764 54.5518 23.1135 54.5052 22.9157C54.4587 22.7179 54.4354 22.4735 54.4238 22.2176V18.4941H53.3649V17.4353V17.4586ZM58.0541 17.4586H59.3689V18.3196H59.3922C59.59 17.9473 59.8576 17.6913 60.2067 17.5284C60.5558 17.3655 60.9281 17.284 61.347 17.284C61.8473 17.284 62.2779 17.3655 62.6502 17.5517C63.0225 17.7262 63.3251 17.9589 63.5694 18.2731C63.8138 18.5756 63.9999 18.9363 64.1163 19.3436C64.2327 19.7508 64.3025 20.193 64.3025 20.6467C64.3025 21.0773 64.2443 21.4845 64.1396 21.8801C64.0232 22.2757 63.8603 22.6364 63.6392 22.939C63.4182 23.2415 63.1389 23.4859 62.7898 23.672C62.4408 23.8582 62.0452 23.9513 61.5797 23.9513C61.3819 23.9513 61.1725 23.928 60.9747 23.8931C60.7769 23.8582 60.5791 23.8 60.3929 23.7186C60.2067 23.6371 60.0322 23.5324 59.8809 23.4044C59.718 23.2764 59.59 23.1251 59.4853 22.9622H59.462V26.1155H58.0657V17.4586H58.0541ZM62.9295 20.6235C62.9295 20.3442 62.8946 20.065 62.8131 19.7973C62.7433 19.5297 62.6269 19.297 62.4757 19.0876C62.3244 18.8781 62.1382 18.7152 61.9288 18.5872C61.7077 18.4592 61.4517 18.4011 61.1725 18.4011C60.5907 18.4011 60.1485 18.5989 59.846 19.0061C59.5551 19.4134 59.4039 19.9602 59.4039 20.6351C59.4039 20.9609 59.4388 21.2518 59.5202 21.5194C59.6017 21.787 59.7064 22.0198 59.8693 22.2176C60.0205 22.4154 60.2067 22.5666 60.4278 22.683C60.6489 22.7993 60.8932 22.8575 61.1841 22.8575C61.5099 22.8575 61.7659 22.7877 61.987 22.6597C62.208 22.5317 62.3826 22.3572 62.5338 22.1594C62.6735 21.9499 62.7782 21.7172 62.8364 21.4496C62.8946 21.1704 62.9295 20.9027 62.9295 20.6235ZM65.3846 15.05L66.7809 15.05V16.3648H65.3846V15.05ZM65.3846 17.4586H66.7809V23.7767L65.3846 23.7767V17.4586ZM68.0259 15.05H69.4222V23.7767H68.0259V15.05ZM73.6808 23.9513C73.1805 23.9513 72.7267 23.8698 72.3311 23.6953C71.9355 23.5208 71.6097 23.2997 71.3304 23.0088C71.0628 22.7179 70.8534 22.3572 70.7137 21.9499C70.5741 21.5427 70.4926 21.0889 70.4926 20.6118C70.4926 20.1348 70.5625 19.6926 70.7137 19.2854C70.8534 18.8781 71.0628 18.5291 71.3304 18.2265C71.598 17.9356 71.9355 17.7029 72.3311 17.54C72.7267 17.3771 73.1805 17.284 73.6808 17.284C74.1812 17.284 74.635 17.3655 75.0306 17.54C75.4262 17.7029 75.752 17.9356 76.0312 18.2265C76.2989 18.5174 76.5083 18.8781 76.6479 19.2854C76.7875 19.6926 76.869 20.1348 76.869 20.6118C76.869 21.1005 76.7992 21.5427 76.6479 21.9499C76.4967 22.3572 76.2989 22.7063 76.0312 23.0088C75.7636 23.2997 75.4262 23.5324 75.0306 23.6953C74.635 23.8582 74.1928 23.9513 73.6808 23.9513ZM73.6808 22.8459C73.9833 22.8459 74.2626 22.7761 74.4837 22.6481C74.7164 22.5201 74.8909 22.3456 75.0422 22.1361C75.1935 21.9267 75.2982 21.6823 75.368 21.4263C75.4378 21.1587 75.4727 20.8911 75.4727 20.6118C75.4727 20.3442 75.4378 20.0766 75.368 19.809C75.2982 19.5414 75.1935 19.3086 75.0422 19.0992C74.8909 18.8898 74.7048 18.7269 74.4837 18.5989C74.251 18.4709 73.9833 18.4011 73.6808 18.4011C73.3783 18.4011 73.099 18.4709 72.878 18.5989C72.6453 18.7269 72.4707 18.9014 72.3195 19.0992C72.1682 19.3086 72.0635 19.5414 71.9936 19.809C71.9238 20.0766 71.8889 20.3442 71.8889 20.6118C71.8889 20.8911 71.9238 21.1587 71.9936 21.4263C72.0635 21.694 72.1682 21.9267 72.3195 22.1361C72.4707 22.3456 72.6569 22.5201 72.878 22.6481C73.1107 22.7877 73.3783 22.8459 73.6808 22.8459ZM77.2879 17.4586H78.3467V15.5503H79.743V17.4469H80.9997V18.4825H79.743V21.8569C79.743 22.0081 79.7547 22.1245 79.7663 22.2408C79.7779 22.3456 79.8128 22.4386 79.8477 22.5085C79.8943 22.5783 79.9641 22.6364 80.0455 22.6714C80.1386 22.7063 80.255 22.7295 80.4179 22.7295C80.511 22.7295 80.6157 22.7295 80.7088 22.7179C80.8019 22.7063 80.9066 22.6946 80.9997 22.6714V23.7535C80.8484 23.7767 80.6971 23.7884 80.5459 23.8C80.3946 23.8233 80.255 23.8233 80.0921 23.8233C79.7197 23.8233 79.4288 23.7884 79.2078 23.7186C78.9867 23.6488 78.8122 23.544 78.6842 23.416C78.5562 23.2764 78.4747 23.1135 78.4282 22.9157C78.3816 22.7179 78.3584 22.4735 78.3467 22.2176V18.4941H77.2879V17.4353V17.4586Z" fill="black"/>
  <path d="M11.0002 15.0738H17.3882L19.3547 9L21.3327 15.0738L27.7207 15.0622L22.5545 18.8205L24.5325 24.8943L19.3663 21.136L14.2001 24.8943L16.1665 18.8205L11.0002 15.0738Z" fill="#00B67A"/>
  <path d="M15.7242 20.1936L16.1663 18.8206L19.3545 21.1361L15.7242 20.1936Z" fill="#005128"/>
</svg>
