<svg width="120" height="40" viewBox="0 0 120 40" fill="none" xmlns="http://www.w3.org/2000/svg">
<path d="M110.57 0.50013H110.135H9.53468H110.57ZM110.57 0.50013C110.786 0.500323 111.002 0.500802 111.216 0.501992L111.219 0.002M110.57 0.50013H110.635V0.000196401C110.83 0.000425702 111.025 0.000922715 111.219 0.002M111.219 0.002C111.467 0.00359168 111.721 0.00778841 111.972 0.0119309C112.028 0.0128635 112.085 0.0137933 112.141 0.01469C112.811 0.0221378 113.48 0.0812328 114.141 0.19145M111.219 0.002L111.216 0.50199C111.462 0.503564 111.712 0.507708 111.963 0.511847C112.019 0.512784 112.076 0.51372 112.133 0.514632L112.135 0.514659C112.779 0.521819 113.422 0.578607 114.058 0.684519M114.141 0.19145L114.057 0.684367C114.057 0.684418 114.057 0.684469 114.058 0.684519M114.141 0.19145C114.804 0.30437 115.448 0.515697 116.049 0.81845L114.141 0.19145ZM114.058 0.684519C114.671 0.78903 115.266 0.984402 115.822 1.2642M114.058 0.684519L115.822 1.2642M115.822 1.2642C116.93 1.83384 117.832 2.73613 118.402 3.84445C118.68 4.39814 118.873 4.99094 118.973 5.60255L118.974 5.60465C119.081 6.24118 119.141 6.88481 119.152 7.5302C119.156 7.83305 119.156 8.1374 119.156 8.44447L119.156 8.45523C119.164 8.81125 119.164 9.16913 119.164 9.53626V30.4649C119.164 30.835 119.164 31.191 119.156 31.548L119.156 31.548V31.5587C119.156 31.8695 119.156 32.167 119.152 32.4738C119.141 33.1192 119.081 33.7629 118.974 34.3994L118.973 34.4018C118.873 35.0135 118.681 35.6064 118.402 36.1601C118.119 36.7095 117.752 37.211 117.314 37.6463L117.311 37.6492C116.876 38.0878 116.374 38.4538 115.824 38.7335C115.267 39.0144 114.672 39.2112 114.058 39.3176C113.422 39.4226 112.779 39.4794 112.134 39.4874L112.13 39.4876C111.828 39.4943 111.519 39.4981 111.219 39.4981L111.216 39.4981C110.858 39.5001 110.494 39.5001 110.135 39.5001H9.53468C9.16778 39.5001 8.80681 39.5001 8.44268 39.4981H8.43995C8.13807 39.4981 7.83808 39.4943 7.532 39.4875L7.52759 39.4875C6.88185 39.479 6.23765 39.4222 5.60039 39.3176C4.98864 39.2122 4.39619 39.0155 3.84285 38.7341L3.84229 38.7339C3.29087 38.4543 2.78791 38.0881 2.35262 37.6491L2.35264 37.6491L2.34872 37.6452C1.90982 37.2122 1.54397 36.7109 1.2654 36.1609L1.26517 36.1605C0.98402 35.6068 0.789245 35.0133 0.687609 34.4007L0.687419 34.3996C0.580367 33.7634 0.52276 33.1198 0.515115 32.4747H0.515196L0.514927 32.4657C0.508722 32.258 0.506349 32.0579 0.503897 31.8511C0.502749 31.7543 0.501584 31.656 0.5 31.5548V8.44844C0.501607 8.34704 0.502782 8.24764 0.503943 8.1494C0.506379 7.94341 0.508754 7.74249 0.514921 7.53874L0.515006 7.53874L0.515115 7.52953C0.522757 6.88439 0.580364 6.24082 0.68742 5.60457L0.687563 5.60371C0.7895 4.99135 0.984296 4.39814 1.26522 3.84456L1.26566 3.8437C1.54455 3.29151 1.91061 2.78786 2.34974 2.35213L2.35117 2.35071C2.78884 1.91292 3.29228 1.54627 3.84323 1.26403C4.39627 0.983685 4.98842 0.788365 5.59972 0.684667C6.23686 0.579183 6.88111 0.522395 7.52688 0.514795L7.52688 0.514799L7.52891 0.514767C7.59386 0.51374 7.65832 0.512677 7.72241 0.511619L115.822 1.2642ZM0.19435 34.4825C0.0830134 33.8209 0.0231008 33.1516 0.01515 32.4806C0.00880994 32.2684 0.00634396 32.0608 0.00385846 31.8515C0.00270592 31.7545 0.00154917 31.6571 0 31.5587L0.19435 34.4825ZM0.19435 34.4825C0.304336 35.1455 0.515108 35.7877 0.81935 36.3868L0.19435 34.4825Z" fill="white" stroke="#2C3953"/>
<g clip-path="url(#clip0)">
<path d="M115.307 38.5717H4.5418C2.51109 38.5717 0.849609 36.8746 0.849609 34.8003V4.62885C0.849609 2.55456 2.51109 0.857422 4.5418 0.857422H115.307C117.338 0.857422 119 2.55456 119 4.62885V34.8003C119 36.8746 117.338 38.5717 115.307 38.5717Z" fill="white"/>
<path d="M17.6492 28.483L9.3418 27.2573V20.0916H17.6492V28.483ZM17.6492 19.4316H9.3418V12.643L17.6492 11.4173V19.4316ZM29.0027 30.0859L18.2954 28.483V20.0916H29.0027V30.0859ZM29.0027 19.4316H18.2954V11.4173L29.0027 9.81445V19.4316Z" fill="#2C3952"/>
<path d="M43.3102 15.1885C42.941 15.3771 42.1103 15.5657 41.1873 15.5657C40.1719 15.5657 39.2489 15.2828 38.6027 14.6228C38.0489 14.0571 37.6797 13.1142 37.6797 11.9828C37.6797 9.90852 39.0643 8.30566 41.3719 8.30566C42.2026 8.30566 42.7564 8.49424 43.1257 8.58852L42.941 9.34281C42.5718 9.15424 42.1103 9.05995 41.4642 9.05995C39.8027 9.05995 38.695 10.0971 38.695 11.8885C38.695 13.68 39.7104 14.7171 41.3719 14.7171C41.9257 14.7171 42.3872 14.6228 42.5718 14.5285V12.4542H41.1873V11.7H43.4026V15.1885H43.3102Z" fill="#2C3952"/>
<path d="M45.1569 13.1137C45.1569 14.3394 45.9877 14.9052 46.8184 14.9052C47.4645 14.9052 47.8338 14.8109 48.203 14.6223L48.3876 15.2823C48.1107 15.4709 47.5568 15.5652 46.7261 15.5652C45.2492 15.5652 44.3262 14.528 44.3262 13.0194C44.3262 11.5109 45.1569 10.2852 46.6338 10.2852C48.203 10.2852 48.6645 11.6994 48.6645 12.6423C48.6645 12.8309 48.6645 13.0194 48.6645 13.1137H45.1569ZM47.8338 12.4537C47.8338 11.888 47.5568 10.9452 46.6338 10.9452C45.7107 10.9452 45.3415 11.7937 45.2492 12.4537H47.8338Z" fill="#2C3952"/>
<path d="M50.8802 8.96582V10.3801H52.1725V11.0401H50.8802V13.7744C50.8802 14.4344 51.0648 14.7173 51.5264 14.7173C51.8033 14.7173 51.8956 14.7172 52.0802 14.623V15.283C51.8956 15.3772 51.6187 15.3773 51.2494 15.3773C50.7879 15.3773 50.511 15.283 50.3264 15.0001C50.0495 14.7172 49.9572 14.2458 49.9572 13.6801V10.9458H49.2188V10.2858H49.9572V9.06011L50.8802 8.96582Z" fill="#2C3952"/>
<path d="M56.3264 8.96611C56.3264 9.24896 56.1418 9.53182 55.7725 9.53182C55.4956 9.53182 55.2188 9.24896 55.2188 8.96611C55.2188 8.68325 55.4956 8.40039 55.7725 8.40039C56.0495 8.40039 56.3264 8.68325 56.3264 8.96611ZM55.311 15.4718V10.3804H56.2341V15.4718H55.311Z" fill="#2C3952"/>
<path d="M58.7259 8.96582V10.3801H60.0182V11.0401H58.7259V13.7744C58.7259 14.4344 58.9105 14.7173 59.3721 14.7173C59.649 14.7173 59.7413 14.7172 59.9259 14.623V15.283C59.7413 15.3772 59.4644 15.3773 59.0951 15.3773C58.6336 15.3773 58.3567 15.283 58.1721 15.0001C57.8952 14.7172 57.8029 14.2458 57.8029 13.6801V10.9458H57.0645V10.2858H57.8029V9.06011L58.7259 8.96582Z" fill="#2C3952"/>
<path d="M67.5875 12.9252C67.5875 14.8109 66.2952 15.6594 65.0952 15.6594C63.803 15.6594 62.6953 14.6223 62.6953 13.0194C62.6953 11.3223 63.803 10.2852 65.0952 10.2852C66.6644 10.2852 67.5875 11.3223 67.5875 12.9252ZM63.7107 12.9252C63.7107 14.0566 64.3568 14.9052 65.1876 14.9052C66.0183 14.9052 66.6644 14.0566 66.6644 12.9252C66.6644 12.0766 66.2029 10.9452 65.1876 10.9452C64.1722 10.9452 63.7107 11.9823 63.7107 12.9252Z" fill="#2C3952"/>
<path d="M68.6953 11.7937C68.6953 11.228 68.6953 10.8509 68.6953 10.3794H69.5261L69.6184 11.228C69.8953 10.7566 70.4491 10.2852 71.2799 10.2852C71.926 10.2852 73.0336 10.6623 73.0336 12.4537V15.4709H72.1106V12.548C72.1106 11.6994 71.8337 11.0394 71.0029 11.0394C70.4491 11.0394 69.9876 11.5109 69.803 11.9823C69.803 12.0766 69.7107 12.2652 69.7107 12.4537V15.4709H68.7876V11.7937H68.6953Z" fill="#2C3952"/>
<path d="M40.0801 30.7455L37.5879 20.4683H38.9725L40.1724 25.654C40.4493 26.974 40.7263 28.1997 40.9109 29.2369C41.0955 28.1997 41.3724 26.974 41.7416 25.654L43.0339 20.4683H44.4184L45.6184 25.654C45.8953 26.8797 46.1722 28.1055 46.3568 29.1426C46.5414 28.0112 46.8183 26.8797 47.1876 25.5597L48.4798 20.374H49.7721L46.9107 30.6512H45.5261L44.2338 25.2769C43.9569 23.9569 43.68 22.9197 43.5877 21.8826C43.4031 22.9197 43.2185 23.8626 42.8492 25.2769L41.4647 30.6512H40.0801V30.7455Z" fill="#2C3952"/>
<path d="M52.0794 21.2226C52.0794 21.694 51.8025 22.0712 51.2487 22.0712C50.7872 22.0712 50.418 21.694 50.418 21.2226C50.418 20.7512 50.7872 20.374 51.2487 20.374C51.8025 20.4683 52.0794 20.7512 52.0794 21.2226ZM50.6026 30.7455V23.3912H51.8948V30.7455H50.6026Z" fill="#2C3952"/>
<path d="M53.5572 25.3717C53.5572 24.6174 53.5571 23.9574 53.4648 23.3917H54.6648L54.7571 24.6174C55.1263 23.9574 55.9571 23.2031 57.157 23.2031C58.1724 23.2031 59.6493 23.7688 59.6493 26.3146V30.746H58.357V26.5031C58.357 25.2774 57.8955 24.3346 56.6955 24.3346C55.8648 24.3346 55.1263 24.9946 54.9417 25.7488C54.8494 25.9374 54.8494 26.126 54.8494 26.4088V30.8403H53.5572V25.3717Z" fill="#2C3952"/>
<path d="M67.8647 19.9029V28.86C67.8647 29.52 67.8647 30.2743 67.957 30.7457H66.757L66.6647 29.4257C66.2955 30.2743 65.3724 30.84 64.2648 30.84C62.511 30.84 61.2188 29.3315 61.2188 27.0686C61.2188 24.6172 62.6956 23.1086 64.4494 23.1086C65.5571 23.1086 66.2955 23.6743 66.5724 24.24V19.8086H67.8647V19.9029ZM66.5724 26.3143C66.5724 26.1257 66.5724 25.9372 66.4801 25.7486C66.2955 24.9 65.557 24.24 64.634 24.24C63.2494 24.24 62.511 25.4657 62.511 27.0686C62.511 28.5772 63.2494 29.8029 64.634 29.8029C65.4647 29.8029 66.2955 29.2372 66.5724 28.2C66.5724 28.0115 66.6647 27.8229 66.6647 27.6343V26.3143H66.5724Z" fill="#2C3952"/>
<path d="M76.0796 26.9746C76.0796 29.7088 74.2335 30.9346 72.4797 30.9346C70.5413 30.9346 69.0645 29.426 69.0645 27.1631C69.0645 24.7117 70.6336 23.2031 72.6643 23.2031C74.695 23.2031 76.0796 24.7117 76.0796 26.9746ZM70.449 27.0688C70.449 28.6717 71.3721 29.8974 72.6643 29.8974C73.8643 29.8974 74.8796 28.6717 74.8796 27.0688C74.8796 25.8431 74.2335 24.2403 72.7566 24.2403C71.0952 24.146 70.449 25.6546 70.449 27.0688Z" fill="#2C3952"/>
<path d="M77.7395 23.2969L78.6626 27.0683C78.8472 27.9169 79.0318 28.6712 79.2164 29.4254C79.401 28.6712 79.5856 27.9169 79.8625 27.0683L81.0625 23.2969H82.1701L83.2778 26.974C83.5547 27.8226 83.7393 28.6712 83.9239 29.4254C84.0162 28.6712 84.2008 27.9169 84.4777 27.0683L85.4931 23.3912H86.7854L84.4777 30.7454H83.2778L82.1701 27.2569C81.8932 26.4083 81.7086 25.7483 81.524 24.8054C81.3394 25.654 81.1548 26.4083 80.8779 27.2569L79.6779 30.7454H78.5703L76.4473 23.3912H77.7395V23.2969Z" fill="#2C3952"/>
<path d="M87.8009 29.3317C88.1701 29.6146 88.9085 29.8974 89.5546 29.8974C90.4777 29.8974 90.9392 29.426 90.9392 28.766C90.9392 28.106 90.57 27.7288 89.6469 27.446C88.3547 26.9746 87.7085 26.2203 87.7085 25.3717C87.7085 24.146 88.6316 23.2031 90.2008 23.2031C90.9392 23.2031 91.5853 23.3917 91.9546 23.6746L91.5853 24.6174C91.3084 24.4288 90.7546 24.146 90.1085 24.146C89.37 24.146 88.9085 24.6174 88.9085 25.1831C88.9085 25.7488 89.37 26.0317 90.2931 26.4088C91.4931 26.8803 92.1392 27.5403 92.1392 28.6717C92.1392 29.9917 91.1238 30.8403 89.4623 30.8403C88.6316 30.8403 87.9855 30.6517 87.4316 30.3688L87.8009 29.3317Z" fill="#2C3952"/>
<path d="M98.2313 22.0714L96.5699 23.0143L96.293 21.9771L98.416 20.8457H99.5236V30.7457H98.2313V22.0714Z" fill="#2C3952"/>
<path d="M108.569 25.6539C108.569 29.0482 107.369 30.8396 105.246 30.8396C103.4 30.8396 102.108 29.0482 102.016 25.7482C102.016 22.4482 103.4 20.5625 105.339 20.5625C107.462 20.6568 108.569 22.5425 108.569 25.6539ZM103.308 25.8425C103.308 28.3882 104.046 29.8968 105.246 29.8968C106.539 29.8968 107.185 28.2939 107.185 25.7482C107.185 23.2968 106.539 21.6939 105.246 21.6939C104.139 21.6939 103.308 23.1082 103.308 25.8425Z" fill="#2C3952"/>
</g>
<defs>
<clipPath id="clip0">
<rect width="119" height="40" rx="10" fill="white"/>
</clipPath>
</defs>
</svg>
