<svg width="367" height="367" viewBox="0 0 367 367" fill="none" xmlns="http://www.w3.org/2000/svg">
<path d="M367 280.682H0V280.865H367V280.682Z" fill="#EBEBEB"/>
<path d="M62.8137 287.669H38.5037V287.853H62.8137V287.669Z" fill="#EBEBEB"/>
<path d="M166.294 285.68H125.615V285.864H166.294V285.68Z" fill="#EBEBEB"/>
<path d="M80.8804 292.029H66.7949V292.213H80.8804V292.029Z" fill="#EBEBEB"/>
<path d="M314.628 287.581H282.927V287.765H314.628V287.581Z" fill="#EBEBEB"/>
<path d="M325.814 287.581H321.168V287.765H325.814V287.581Z" fill="#EBEBEB"/>
<path d="M237.852 290.158H203.471V290.341H237.852V290.158Z" fill="#EBEBEB"/>
<path d="M173.956 247.945H32.2275C31.1172 247.943 30.0531 247.501 29.2687 246.715C28.4843 245.929 28.0437 244.865 28.0437 243.754V44.5246C28.0534 43.4206 28.4982 42.3651 29.2816 41.5872C30.0649 40.8094 31.1235 40.372 32.2275 40.3701H173.956C175.067 40.3701 176.133 40.8117 176.919 41.5977C177.705 42.3837 178.147 43.4497 178.147 44.5613V243.754C178.147 244.866 177.705 245.932 176.919 246.718C176.133 247.504 175.067 247.945 173.956 247.945ZM32.2275 40.5169C31.1659 40.5189 30.1484 40.942 29.3984 41.6933C28.6484 42.4447 28.2272 43.4629 28.2272 44.5246V243.754C28.2272 244.816 28.6484 245.834 29.3984 246.585C30.1484 247.337 31.1659 247.76 32.2275 247.762H173.956C175.018 247.76 176.036 247.337 176.787 246.586C177.538 245.835 177.961 244.817 177.963 243.754V44.5246C177.961 43.4623 177.538 42.444 176.787 41.6929C176.036 40.9417 175.018 40.5189 173.956 40.5169H32.2275Z" fill="#EBEBEB"/>
<path d="M332.729 247.945H190.994C189.883 247.943 188.818 247.501 188.032 246.716C187.247 245.93 186.805 244.865 186.803 243.754V44.5246C186.814 43.42 187.261 42.3645 188.045 41.5868C188.83 40.8091 189.889 40.372 190.994 40.3701H332.729C333.832 40.3739 334.889 40.8122 335.67 41.5898C336.452 42.3675 336.896 43.4219 336.906 44.5246V243.754C336.906 244.863 336.466 245.927 335.683 246.713C334.901 247.498 333.838 247.941 332.729 247.945ZM190.994 40.5169C189.932 40.5189 188.913 40.9417 188.162 41.6929C187.411 42.444 186.988 43.4623 186.986 44.5246V243.754C186.988 244.817 187.411 245.835 188.162 246.586C188.913 247.337 189.932 247.76 190.994 247.762H332.729C333.792 247.76 334.81 247.337 335.561 246.586C336.312 245.835 336.735 244.817 336.737 243.754V44.5246C336.735 43.4623 336.312 42.444 335.561 41.6929C334.81 40.9417 333.792 40.5189 332.729 40.5169H190.994Z" fill="#EBEBEB"/>
<path d="M319.238 182.664H304.558V280.763H319.238V182.664Z" fill="#E6E6E6"/>
<path d="M315.37 280.762H319.231V267.403H311.325L315.37 280.762Z" fill="#F0F0F0"/>
<path d="M183.91 182.664H169.23V280.763H183.91V182.664Z" fill="#E6E6E6"/>
<path d="M319.231 182.664H180.534V272.564H319.231V182.664Z" fill="#F0F0F0"/>
<path d="M316.605 211.671H183.163V186.282H316.605V211.671ZM183.897 210.937H315.871V187.016H183.897V210.937Z" fill="#E6E6E6"/>
<path d="M293.115 194.312H209.248C205.483 194.312 201.908 191.266 199.288 185.9H303.068C300.477 191.266 296.88 194.312 293.115 194.312Z" fill="#E6E6E6"/>
<path d="M184.395 280.762H180.534V267.403H188.439L184.395 280.762Z" fill="#F0F0F0"/>
<path d="M316.605 240.312H183.163V214.923H316.605V240.312ZM183.897 239.578H315.871V215.657H183.897V239.578Z" fill="#E6E6E6"/>
<path d="M293.115 222.953H209.248C205.483 222.953 201.908 219.907 199.288 214.541H303.068C300.477 219.907 296.88 222.953 293.115 222.953Z" fill="#E6E6E6"/>
<path d="M316.605 268.945H183.163V243.556H316.605V268.945ZM183.897 268.211H315.871V244.29H183.897V268.211Z" fill="#E6E6E6"/>
<path d="M293.115 251.586H209.248C205.483 251.586 201.908 248.547 199.288 243.174H303.068C300.477 248.547 296.88 251.586 293.115 251.586Z" fill="#E6E6E6"/>
<path d="M103.889 159.41L115.633 169.349C115.039 241.413 117.689 245.318 117.747 257.715H104.315C102.451 197.395 97.1733 174.89 103.889 159.41Z" fill="#E0E0E0"/>
<path d="M109.776 279.184C90.8752 279.184 74.9254 271.514 71.0499 261.143C70.0659 258.285 68.7085 255.57 67.0129 253.069L66.7119 252.65H152.839L152.546 253.069C150.85 255.57 149.493 258.285 148.509 261.143C144.597 271.514 128.684 279.184 109.776 279.184Z" fill="#E6E6E6"/>
<path d="M153.018 255.256H66.5382C65.3636 255.262 64.2205 254.877 63.2899 254.16C62.3592 253.443 61.6942 252.437 61.4002 251.3C61.1935 250.517 61.1702 249.697 61.3323 248.903C61.4943 248.11 61.8373 247.364 62.3344 246.725C62.8316 246.086 63.4696 245.57 64.1987 245.218C64.9278 244.865 65.7284 244.686 66.5382 244.694H153.018C153.825 244.692 154.621 244.875 155.346 245.23C156.07 245.585 156.703 246.101 157.196 246.74C157.689 247.378 158.029 248.122 158.189 248.912C158.349 249.703 158.325 250.52 158.119 251.3C157.829 252.432 157.17 253.435 156.247 254.152C155.323 254.868 154.187 255.257 153.018 255.256Z" fill="#F5F5F5"/>
<path d="M110.832 184.968C112.586 166.178 123.75 165.554 150.952 183.537C139.685 228.612 104.226 255.623 110.832 184.968Z" fill="#E0E0E0"/>
<path d="M106.781 156.746C103.581 140.473 119.472 118.115 146.88 126.49C148.678 169.451 118.826 218.064 106.781 156.746Z" fill="#E0E0E0"/>
<path d="M121.155 154.059C125.214 133.691 100.258 98.7597 74.95 103.332C56.2036 133.463 102.284 248.65 121.155 154.059Z" fill="#E0E0E0"/>
<path d="M111.084 185.122C101.637 156.724 72.8055 148.584 54.3674 180.821C82.7072 232.854 133.852 253.56 111.084 185.122Z" fill="#E0E0E0"/>
<path d="M206.343 55.6299V166.222H305.433V55.6299H206.343Z" fill="#EBEBEB"/>
<path d="M205.439 55.6299V166.222H206.334V55.6299H205.439Z" fill="#E0E0E0"/>
<path d="M298.086 62.9702H213.676V158.882H298.086V62.9702Z" fill="#F5F5F5"/>
<path d="M244.435 60.2764H220.661V93.5486H244.435V60.2764Z" fill="white"/>
<path d="M272.87 60.2837H249.104L247.393 93.5559H271.16L272.87 60.2837Z" fill="white"/>
<path d="M244.026 98.415H220.252L218.542 131.695H242.316L244.026 98.415Z" fill="white"/>
<path d="M300.649 60.8094L276.905 59.7686L275.447 93.0088L299.192 94.0497L300.649 60.8094Z" fill="white"/>
<path d="M275.282 105.363L251.525 106.051L252.489 139.31L276.246 138.621L275.282 105.363Z" fill="white"/>
<path d="M41.1985 64.9299H155.607C156.224 64.9299 156.816 64.6848 157.252 64.2484C157.689 63.8121 157.934 63.2202 157.934 62.6031C157.934 62.2979 157.874 61.9957 157.757 61.7138C157.64 61.4319 157.468 61.1759 157.252 60.9605C157.036 60.745 156.779 60.5743 156.497 60.4582C156.215 60.342 155.912 60.2827 155.607 60.2837H41.1985C40.5872 60.2895 40.0029 60.5364 39.5727 60.9708C39.1424 61.4051 38.9011 61.9918 38.9011 62.6031C38.9011 63.2152 39.1422 63.8026 39.5722 64.2381C40.0022 64.6736 40.5865 64.9222 41.1985 64.9299Z" fill="#E0E0E0"/>
<path d="M41.1985 74.78H155.607C156.224 74.78 156.816 74.5349 157.252 74.0985C157.689 73.6622 157.934 73.0703 157.934 72.4532C157.934 71.8361 157.689 71.2443 157.252 70.808C156.816 70.3716 156.224 70.1265 155.607 70.1265H41.1985C40.5865 70.1342 40.0022 70.3827 39.5722 70.8183C39.1422 71.2538 38.9011 71.8412 38.9011 72.4532C38.9011 73.0653 39.1422 73.6527 39.5722 74.0882C40.0022 74.5237 40.5865 74.7723 41.1985 74.78Z" fill="#E0E0E0"/>
<path d="M155.614 79.9766H41.1984C39.9133 79.9766 38.8716 81.0167 38.8716 82.2997C38.8716 83.5827 39.9133 84.6228 41.1984 84.6228H155.614C156.899 84.6228 157.941 83.5827 157.941 82.2997C157.941 81.0167 156.899 79.9766 155.614 79.9766Z" fill="#E0E0E0"/>
<path d="M50.58 64.9299H165.003C165.311 64.9338 165.616 64.8765 165.902 64.7612C166.187 64.6459 166.446 64.475 166.665 64.2585C166.884 64.0419 167.057 63.784 167.175 63.4999C167.293 63.2157 167.353 62.9108 167.352 62.6031C167.353 62.2983 167.294 61.9962 167.177 61.7144C167.061 61.4325 166.89 61.1765 166.675 60.9609C166.459 60.7453 166.203 60.5745 165.921 60.4583C165.639 60.3421 165.337 60.2827 165.033 60.2837H50.58C50.2747 60.2827 49.9723 60.342 49.6901 60.4582C49.4078 60.5743 49.1513 60.745 48.9351 60.9605C48.719 61.1759 48.5475 61.432 48.4304 61.7138C48.3134 61.9957 48.2532 62.2979 48.2532 62.6031C48.2532 63.2202 48.4983 63.8121 48.9347 64.2484C49.371 64.6848 49.9629 64.9299 50.58 64.9299Z" fill="#F5F5F5"/>
<path d="M50.58 74.78H165.003C165.311 74.7839 165.616 74.7266 165.902 74.6113C166.187 74.496 166.446 74.3251 166.665 74.1086C166.884 73.892 167.057 73.6341 167.175 73.3499C167.293 73.0658 167.353 72.7609 167.352 72.4532C167.353 72.148 167.294 71.8456 167.178 71.5634C167.061 71.2811 166.891 71.0246 166.675 70.8084C166.46 70.5922 166.204 70.4207 165.922 70.3037C165.64 70.1867 165.338 70.1265 165.033 70.1265H50.58C49.9629 70.1265 49.371 70.3716 48.9347 70.808C48.4983 71.2443 48.2532 71.8361 48.2532 72.4532C48.2532 73.0703 48.4983 73.6622 48.9347 74.0985C49.371 74.5349 49.9629 74.78 50.58 74.78Z" fill="#F5F5F5"/>
<path d="M164.996 79.9766H50.58C49.2949 79.9766 48.2532 81.0167 48.2532 82.2997C48.2532 83.5827 49.2949 84.6228 50.58 84.6228H164.996C166.281 84.6228 167.323 83.5827 167.323 82.2997C167.323 81.0167 166.281 79.9766 164.996 79.9766Z" fill="#F5F5F5"/>
<path d="M183.502 313.829C262.101 313.829 325.818 310.109 325.818 305.52C325.818 300.931 262.101 297.211 183.502 297.211C104.904 297.211 41.187 300.931 41.187 305.52C41.187 310.109 104.904 313.829 183.502 313.829Z" fill="#F5F5F5"/>
<path d="M286.826 96.4769C285.402 96.1759 283.575 94.1574 283.369 90.7297C283.119 86.3257 287.883 86.0761 290.188 87.1257C292.493 88.1753 291.216 94.0473 286.826 96.4769Z" fill="#263238"/>
<path d="M322.965 288.557L317.482 290.414L312.359 277.819L317.835 275.962L322.965 288.557Z" fill="#FFC3BD"/>
<path d="M316.617 289.996L323.289 287.735C323.393 287.695 323.509 287.696 323.613 287.739C323.716 287.781 323.8 287.861 323.847 287.963L326.122 292.697C326.175 292.818 326.202 292.949 326.202 293.082C326.202 293.214 326.174 293.345 326.121 293.466C326.068 293.588 325.991 293.697 325.894 293.787C325.796 293.876 325.682 293.945 325.557 293.989C323.399 294.679 321.799 295.083 319.098 296C317.431 296.565 314.106 297.776 311.809 298.554C309.512 299.332 308.653 297.086 309.541 296.521C313.541 294.121 314.752 292.381 315.809 290.649C315.994 290.344 316.28 290.113 316.617 289.996Z" fill="#263238"/>
<path opacity="0.2" d="M317.835 275.962L312.359 277.819L315.002 284.315L320.484 282.458L317.835 275.962Z" fill="black"/>
<path d="M288.263 117.682H292.667C291.199 118.93 291.331 152.488 292.572 168.6C289.056 168.82 282.611 167.594 282.611 167.594C282.611 167.594 281.995 142.477 288.263 117.682Z" fill="#407BFF"/>
<path opacity="0.4" d="M288.263 117.682H292.667C291.199 118.93 291.331 152.488 292.572 168.6C289.056 168.82 282.611 167.594 282.611 167.594C282.611 167.594 281.995 142.477 288.263 117.682Z" fill="black"/>
<path d="M285.922 299.575H280.094L279.221 286.084H285.041L285.922 299.575Z" fill="#FFC3BD"/>
<path opacity="0.2" d="M285.041 286.091H279.221L279.676 293.042H285.496L285.041 286.091Z" fill="black"/>
<path d="M276.378 290.664L286.772 290.576C286.772 290.576 285.025 252.606 286.126 234.527C286.463 229.022 286.397 221.396 287.946 213.19C289.913 202.848 292.431 191.654 294.508 182.898C296.71 173.664 295.55 167.132 295.55 167.132L275.079 165.92C275.079 165.92 269.787 214.364 269.78 232.113C269.765 250.617 276.378 290.664 276.378 290.664Z" fill="#263238"/>
<path d="M279.397 298.899H286.494C286.607 298.895 286.718 298.933 286.803 299.007C286.889 299.08 286.944 299.183 286.957 299.296L287.617 304.47C287.629 304.602 287.612 304.735 287.569 304.86C287.526 304.986 287.458 305.101 287.368 305.198C287.278 305.295 287.169 305.373 287.048 305.426C286.927 305.479 286.796 305.506 286.663 305.505C284.38 305.469 282.729 305.336 279.852 305.336C278.083 305.336 271.69 305.52 269.245 305.52C266.801 305.52 266.713 303.105 267.733 302.885C272.314 301.901 276.857 300.551 278.42 299.259C278.693 299.027 279.039 298.9 279.397 298.899Z" fill="#263238"/>
<path d="M275.548 291.927H288.922L288.841 288.176L274.844 287.934L275.548 291.927Z" fill="#407BFF"/>
<path d="M277.368 299.913C276.983 299.946 276.598 299.842 276.282 299.619C276.181 299.529 276.107 299.413 276.069 299.283C276.03 299.153 276.027 299.016 276.062 298.885C276.07 298.802 276.099 298.723 276.147 298.655C276.194 298.587 276.259 298.532 276.333 298.496C277.009 298.158 278.778 299.318 278.983 299.45C279.004 299.466 279.02 299.488 279.028 299.513C279.036 299.538 279.036 299.565 279.027 299.59C279.019 299.615 279.005 299.639 278.986 299.658C278.966 299.677 278.943 299.692 278.917 299.7C278.41 299.826 277.891 299.897 277.368 299.913ZM276.634 298.709C276.571 298.708 276.509 298.721 276.451 298.746C276.422 298.762 276.397 298.785 276.38 298.814C276.362 298.842 276.351 298.874 276.348 298.907C276.327 298.995 276.329 299.087 276.353 299.175C276.378 299.262 276.424 299.342 276.488 299.406C276.781 299.678 277.545 299.714 278.55 299.516C277.967 299.126 277.31 298.861 276.62 298.738L276.634 298.709Z" fill="#407BFF"/>
<path d="M278.918 299.714C278.899 299.722 278.878 299.722 278.859 299.714C278.286 299.391 277.237 298.114 277.428 297.461C277.458 297.359 277.52 297.27 277.605 297.205C277.689 297.141 277.791 297.104 277.897 297.101C278 297.089 278.104 297.098 278.202 297.128C278.301 297.159 278.392 297.209 278.47 297.277C279.094 297.835 279.072 299.479 279.072 299.582C279.072 299.608 279.066 299.633 279.053 299.655C279.04 299.677 279.021 299.695 278.998 299.707C278.973 299.718 278.945 299.721 278.918 299.714ZM277.971 297.351H277.905C277.721 297.351 277.699 297.461 277.692 297.49C277.582 297.879 278.235 298.841 278.786 299.296C278.813 298.648 278.633 298.007 278.272 297.468C278.227 297.426 278.174 297.393 278.116 297.373C278.057 297.353 277.996 297.345 277.934 297.351H277.971Z" fill="#407BFF"/>
<path opacity="0.2" d="M287.947 213.219C289.915 202.877 292.432 191.684 294.509 182.927L292.241 178.362C287.375 184.454 286.634 203.105 287.947 213.219Z" fill="black"/>
<path d="M286.128 166.618C286.128 166.618 292.83 216.449 295.847 233.309C299.157 251.769 311.877 283.955 311.877 283.955L321.911 280.55C321.911 280.55 314.006 253.847 311.231 235.776C308.068 215.224 306.218 167.793 306.218 167.793L286.128 166.618Z" fill="#263238"/>
<path d="M310.776 284.564L323.357 280.3L322.079 276.74L308.838 280.975L310.776 284.564Z" fill="#407BFF"/>
<path d="M315.04 291.611C314.686 291.769 314.287 291.792 313.917 291.677C313.794 291.623 313.687 291.537 313.609 291.427C313.532 291.317 313.486 291.187 313.477 291.053C313.459 290.971 313.462 290.886 313.485 290.805C313.508 290.725 313.551 290.651 313.609 290.591C314.137 290.062 316.171 290.591 316.405 290.664C316.432 290.669 316.456 290.684 316.472 290.706C316.488 290.728 316.496 290.755 316.494 290.782C316.496 290.809 316.49 290.837 316.477 290.862C316.464 290.887 316.444 290.907 316.42 290.921C315.989 291.205 315.526 291.436 315.04 291.611ZM313.947 290.701C313.885 290.717 313.829 290.75 313.785 290.796C313.762 290.82 313.746 290.85 313.739 290.882C313.731 290.914 313.732 290.948 313.741 290.98C313.747 291.071 313.778 291.16 313.83 291.236C313.881 291.312 313.952 291.373 314.035 291.413C314.394 291.574 315.121 291.369 316.002 290.855C315.334 290.663 314.635 290.611 313.947 290.701Z" fill="#407BFF"/>
<path d="M316.391 290.936H316.354C315.716 290.804 314.328 289.916 314.292 289.24C314.288 289.133 314.317 289.027 314.377 288.938C314.436 288.848 314.522 288.779 314.622 288.741C314.716 288.7 314.817 288.678 314.919 288.678C315.022 288.678 315.123 288.7 315.216 288.741C315.95 289.071 316.494 290.686 316.516 290.752C316.528 290.775 316.534 290.8 316.534 290.826C316.534 290.851 316.528 290.877 316.516 290.899C316.501 290.918 316.482 290.931 316.459 290.938C316.437 290.944 316.413 290.944 316.391 290.936ZM314.747 288.983H314.688C314.526 289.064 314.526 289.152 314.526 289.189C314.526 289.585 315.466 290.305 316.134 290.561C315.958 290.099 315.561 289.189 315.07 288.983C315.018 288.962 314.964 288.951 314.908 288.951C314.853 288.951 314.798 288.962 314.747 288.983Z" fill="#407BFF"/>
<path d="M280.791 124.574C278.208 127.863 275.551 130.923 272.717 133.948C269.872 136.999 266.855 139.886 263.682 142.594C262.845 143.269 262.03 143.952 261.128 144.598C260.088 145.418 258.945 146.099 257.729 146.624C255.243 147.59 252.541 147.864 249.912 147.416C247.613 147.046 245.385 146.323 243.306 145.273C242.319 144.789 241.363 144.245 240.443 143.644C239.527 143.038 238.65 142.376 237.816 141.662L240.209 137.992C243.57 139.372 247.38 140.473 250.558 140.451C251.943 140.492 253.314 140.171 254.536 139.519C255.121 139.152 255.67 138.729 256.173 138.256C256.87 137.676 257.553 137.016 258.236 136.384C259.608 135.071 260.966 133.72 262.287 132.289C263.608 130.857 264.937 129.433 266.236 127.965C268.827 125.029 271.426 122.013 273.892 119.04L280.791 124.574Z" fill="#FFC3BD"/>
<path d="M280.132 129.118C277.822 131.747 275.295 134.178 272.579 136.385L270.634 134.579L263.69 128.142C265.614 124.479 268.197 121.202 271.309 118.475C276.77 113.609 283.244 115.157 283.985 121.235C284.264 123.496 282.414 126.432 280.132 129.118Z" fill="#407BFF"/>
<path opacity="0.2" d="M280.131 129.118C277.821 131.747 275.294 134.178 272.578 136.385L270.633 134.579C272.468 130.762 278.919 124.046 280.131 129.118Z" fill="black"/>
<path d="M272.784 174.53C275.544 175.69 279.764 176.461 283.368 175.345C283.126 169.891 283.207 139.137 288.638 117.653H291.853C290.385 118.849 285.908 159.035 287.376 175.756C293.534 177.04 305.638 176.057 307.546 174.171C307.304 171.543 305.975 158.419 306.159 149.259C306.239 145.354 306.416 141.045 306.819 136.524C307.358 130.058 308.383 123.641 309.887 117.33C309.887 117.33 306.217 116.353 302.012 115.722C301.182 115.597 300.338 115.487 299.509 115.399C295.123 114.885 290.712 114.623 286.297 114.614C285.754 114.614 285.218 114.658 284.697 114.695C282.212 114.875 279.741 115.208 277.298 115.693C277.298 115.693 269.437 142.109 272.784 174.53Z" fill="#407BFF"/>
<path opacity="0.2" d="M305.506 126.438C303.972 131.085 304.038 137.522 306.24 140.553C306.328 140.678 306.423 140.795 306.511 140.898C306.599 139.474 306.71 138.026 306.842 136.553C307.04 134.3 307.297 131.988 307.612 129.646L305.506 126.438Z" fill="black"/>
<path d="M298.738 100.462C297.747 104.668 296.631 112.412 299.472 115.429C298.1 116.72 296.464 117.697 294.677 118.292C292.89 118.888 290.995 119.088 289.123 118.878C285.453 118.578 285.372 116.009 286.238 114.643C291.031 113.792 291.038 110.239 290.326 106.914L298.738 100.462Z" fill="#FFC3BD"/>
<path opacity="0.2" d="M295.317 103.098L290.363 106.907C290.537 107.687 290.646 108.48 290.686 109.278C292.506 109.124 295.09 107.281 295.332 105.395C295.468 104.635 295.463 103.856 295.317 103.098Z" fill="black"/>
<path d="M299.472 93.4529C298.98 99.2221 298.98 102.621 296.007 105.454C291.53 109.711 284.498 106.731 283.265 100.903C282.157 95.6475 283.148 87.1038 288.836 85.0706C290.11 84.6381 291.472 84.5308 292.798 84.7586C294.124 84.9864 295.372 85.542 296.429 86.3748C297.486 87.2077 298.318 88.2914 298.849 89.5275C299.38 90.7637 299.594 92.113 299.472 93.4529Z" fill="#FFC3BD"/>
<path d="M299.142 97.0936C297.718 96.8 295.883 94.7741 295.685 91.3464C295.428 86.9424 300.199 86.6928 302.497 87.7424C304.794 88.7921 303.524 94.6861 299.142 97.0936Z" fill="#263238"/>
<path d="M296.441 89.5036C293.799 90.5459 283.515 90.1715 281.901 87.5365C280.286 84.9014 301.675 87.4411 296.441 89.5036Z" fill="#263238"/>
<path d="M297.484 88.8141C294.768 89.6215 284.551 88.3737 283.171 85.6138C281.791 82.854 302.886 87.1626 297.484 88.8141Z" fill="#263238"/>
<path d="M298.854 88.388C296.079 88.9458 286.016 86.7805 284.908 83.9032C283.799 81.0259 304.381 87.2723 298.854 88.388Z" fill="#263238"/>
<path d="M300.647 88.667C297.835 89.0194 287.838 85.2539 286.928 82.3033C286.018 79.3526 306.24 87.9697 300.647 88.667Z" fill="#263238"/>
<path d="M301.741 88.0801C298.907 88.1462 289.38 84.2486 288.771 81.2245C288.162 78.2005 307.378 87.9186 301.741 88.0801Z" fill="#263238"/>
<path d="M302.063 88.0285C299.729 87.5808 291.376 82.5308 291.633 79.9545C291.919 77.0699 306.753 88.924 302.063 88.0285Z" fill="#263238"/>
<path d="M301.872 97.9741C301.7 98.6662 301.39 99.3167 300.961 99.8867C300.533 100.457 299.993 100.935 299.376 101.292C297.717 102.239 296.374 100.859 296.44 99.0457C296.44 97.4089 297.38 94.95 299.251 94.7445C299.66 94.7106 300.07 94.7769 300.447 94.9377C300.824 95.0985 301.156 95.349 301.414 95.6672C301.673 95.9855 301.849 96.362 301.929 96.764C302.009 97.166 301.989 97.5814 301.872 97.9741Z" fill="#FFC3BD"/>
<path d="M290.661 94.6859C290.661 95.1557 290.39 95.5227 290.081 95.5153C289.773 95.508 289.538 95.1043 289.553 94.6345C289.568 94.1648 289.817 93.7904 290.125 93.8051C290.434 93.8198 290.661 94.1941 290.661 94.6859Z" fill="#263238"/>
<path d="M285.394 94.4144C285.394 94.8842 285.122 95.2585 284.814 95.2438C284.506 95.2291 284.271 94.8328 284.285 94.363C284.3 93.8933 284.55 93.5263 284.858 93.541C285.166 93.5556 285.401 93.952 285.394 94.4144Z" fill="#263238"/>
<path d="M287.068 94.73C286.476 96.1388 285.69 97.4581 284.733 98.6495C285.041 98.8909 285.397 99.063 285.777 99.1542C286.157 99.2454 286.552 99.2536 286.935 99.178L287.068 94.73Z" fill="#FF5652"/>
<path d="M288.902 100.558C288.699 100.573 288.495 100.573 288.292 100.558C288.274 100.558 288.257 100.554 288.24 100.547C288.224 100.54 288.209 100.53 288.196 100.517C288.184 100.503 288.174 100.488 288.168 100.471C288.162 100.454 288.159 100.436 288.16 100.418C288.16 100.4 288.164 100.383 288.171 100.366C288.178 100.349 288.189 100.335 288.202 100.322C288.215 100.31 288.23 100.3 288.247 100.294C288.264 100.288 288.282 100.285 288.3 100.286C288.879 100.327 289.459 100.229 289.991 99.9991C290.524 99.7691 290.994 99.4145 291.361 98.965C291.387 98.9407 291.421 98.9272 291.456 98.9272C291.492 98.9272 291.526 98.9407 291.551 98.965C291.58 98.9881 291.6 99.0209 291.607 99.0573C291.613 99.0936 291.607 99.1312 291.588 99.1632C291.259 99.5662 290.851 99.8978 290.389 100.138C289.927 100.377 289.421 100.52 288.902 100.558Z" fill="#263238"/>
<path d="M292.359 93.0197C292.309 93.0248 292.26 93.0166 292.214 92.9959C292.169 92.9753 292.13 92.9429 292.102 92.9023C291.913 92.6087 291.656 92.3643 291.354 92.1895C291.051 92.0146 290.711 91.9143 290.362 91.8967C290.289 91.8968 290.218 91.8687 290.165 91.8181C290.112 91.7676 290.08 91.6985 290.076 91.6251C290.074 91.5892 290.079 91.5532 290.092 91.5195C290.104 91.4857 290.123 91.4548 290.148 91.4287C290.173 91.4026 290.203 91.3818 290.236 91.3676C290.269 91.3534 290.304 91.3461 290.34 91.3462C290.779 91.3644 291.208 91.4863 291.59 91.7019C291.973 91.9175 292.299 92.2207 292.542 92.5866C292.584 92.6467 292.601 92.7205 292.59 92.7928C292.58 92.8652 292.541 92.9306 292.484 92.9757C292.447 93.002 292.404 93.0173 292.359 93.0197Z" fill="#263238"/>
<path d="M283.152 92.4839C283.102 92.5012 283.048 92.5012 282.998 92.4839C282.965 92.4676 282.936 92.4449 282.912 92.417C282.889 92.3892 282.871 92.3568 282.86 92.3218C282.849 92.2868 282.845 92.25 282.849 92.2135C282.852 92.177 282.863 92.1417 282.881 92.1096C283.071 91.7196 283.354 91.382 283.704 91.1262C284.055 90.8704 284.463 90.704 284.892 90.6416C284.966 90.6374 285.038 90.6618 285.094 90.7097C285.15 90.7575 285.186 90.8251 285.193 90.8985C285.197 90.9342 285.194 90.9703 285.184 91.0048C285.174 91.0393 285.157 91.0715 285.135 91.0995C285.112 91.1275 285.084 91.1507 285.053 91.1679C285.021 91.185 284.986 91.1958 284.951 91.1994C284.61 91.249 284.287 91.3822 284.01 91.5872C283.734 91.7921 283.512 92.0623 283.365 92.3738C283.341 92.4072 283.309 92.4345 283.272 92.4536C283.235 92.4727 283.194 92.4831 283.152 92.4839Z" fill="#263238"/>
<path d="M313.198 121.228C314.101 123.261 314.806 125.198 315.533 127.202C316.259 129.206 316.883 131.225 317.47 133.28C318.698 137.467 319.512 141.764 319.9 146.11L319.981 147.828V148.319V148.995C319.981 149.435 319.885 149.809 319.826 150.206C319.553 151.509 319.119 152.774 318.535 153.971C317.548 156.004 316.371 157.938 315.019 159.748C312.487 163.171 309.641 166.351 306.519 169.246L303.194 166.398C305.33 163.029 307.466 159.557 309.286 156.122C310.169 154.496 310.931 152.808 311.569 151.072C311.809 150.39 311.974 149.683 312.061 148.965C312.061 148.855 312.061 148.723 312.061 148.65C312.057 148.621 312.057 148.591 312.061 148.562V148.452V148.283L311.892 146.94C311.256 143.155 310.328 139.425 309.117 135.783C308.53 133.911 307.877 132.039 307.216 130.175C306.556 128.311 305.822 126.424 305.139 124.685L313.198 121.228Z" fill="#FFC3BD"/>
<path d="M311.62 118.211C316.324 121.286 318.504 133.816 318.504 133.816L307.421 138.601C304.787 134.934 302.943 130.76 302.004 126.343C300.433 118.365 306.812 115.055 311.62 118.211Z" fill="#407BFF"/>
<path d="M306.005 165.546L299.172 165.282L302.768 171.888C302.768 171.888 307.723 170.522 307.231 167.814L306.005 165.546Z" fill="#FFC3BD"/>
<path d="M295.528 168.438L298.751 173.737L302.766 171.858L299.169 165.282L295.528 168.438Z" fill="#FFC3BD"/>
<path d="M240.449 138.212L235.385 135.041L234.541 142.381C234.541 142.381 239.429 144.135 240.589 141.647L240.449 138.212Z" fill="#FFC3BD"/>
<path d="M230.394 136.098L228.992 141.603L234.541 142.41L235.386 135.041L230.394 136.098Z" fill="#FFC3BD"/>
<path d="M192.177 98.635C187.949 103.105 181.614 114.71 186.473 118.783C188.166 119.513 189.987 119.899 191.83 119.921C193.673 119.942 195.503 119.598 197.212 118.908L196.074 102.151C196.074 102.151 195.48 95.699 192.177 98.635Z" fill="#263238"/>
<path d="M188.805 137.053C188.23 139.347 187.539 141.61 186.736 143.835C185.943 146.037 185.033 148.202 184.034 150.338C183.04 152.498 181.9 154.587 180.621 156.592C179.975 157.605 179.278 158.595 178.544 159.572C178.177 160.056 177.81 160.541 177.399 161.04C177.201 161.275 176.988 161.502 176.783 161.737L176.474 162.089C176.27 162.313 176.049 162.522 175.814 162.713C175.277 163.14 174.657 163.45 173.993 163.623C173.389 163.774 172.763 163.816 172.144 163.748C171.237 163.637 170.36 163.353 169.56 162.911C168.374 162.25 167.277 161.441 166.294 160.504C164.556 158.861 162.953 157.081 161.501 155.182C158.7 151.522 156.168 147.663 153.926 143.637L156.605 141.897C157.97 143.622 159.372 145.383 160.803 147.079C162.235 148.775 163.673 150.463 165.207 152.048C166.634 153.625 168.172 155.096 169.81 156.452C170.501 157.031 171.26 157.524 172.07 157.92C172.267 158.02 172.482 158.078 172.701 158.089C172.701 158.089 172.657 158.089 172.533 158.089C172.413 158.116 172.299 158.163 172.195 158.228C172.184 158.245 172.169 158.258 172.151 158.265L172.386 157.964C172.547 157.766 172.709 157.575 172.863 157.37C173.171 156.959 173.472 156.548 173.766 156.115C174.346 155.263 174.903 154.382 175.425 153.457C176.467 151.63 177.399 149.699 178.28 147.74C179.161 145.78 179.924 143.747 180.643 141.699C181.363 139.651 182.023 137.53 182.574 135.555L188.805 137.053Z" fill="#FF8B7B"/>
<path d="M193.408 138.682C192.725 140.598 190.406 144.033 188.585 146.572C187.257 148.407 186.2 149.773 186.2 149.773L185.15 149.039L176.459 143.13C178.096 138.161 180.269 132.854 186.332 131.386C190.149 130.476 194.626 135.261 193.408 138.682Z" fill="#407BFF"/>
<g opacity="0.5">
<path opacity="0.5" d="M193.408 138.682C192.725 140.598 190.406 144.033 188.585 146.572C187.257 148.407 186.2 149.773 186.2 149.773L185.15 149.039L176.459 143.13C178.096 138.161 180.269 132.854 186.332 131.386C190.149 130.476 194.626 135.261 193.408 138.682Z" fill="white"/>
</g>
<path opacity="0.3" d="M188.586 146.572C187.258 148.407 186.201 149.773 186.201 149.773L185.151 149.039C185.673 147.057 186.619 143.952 187.999 142.719C188.467 143.947 188.667 145.261 188.586 146.572Z" fill="black"/>
<path d="M157.185 143.248L157.471 137.787L150.938 138.697C150.938 138.697 152.781 142.888 154.726 144.642L157.185 143.248Z" fill="#FF8B7B"/>
<path d="M155.357 135.511L150.63 137.089L150.938 138.697L157.471 137.787L155.357 135.511Z" fill="#FF8B7B"/>
<path d="M209.702 299.414L203.515 300.015L199.397 285.504L205.585 284.91L209.702 299.414Z" fill="#FF8B7B"/>
<path d="M254.36 285.46L248.628 288.095L240.678 275.668L246.411 273.033L254.36 285.46Z" fill="#FF8B7B"/>
<path d="M246.917 286.165L253.23 282.884C253.338 282.827 253.463 282.812 253.581 282.84C253.7 282.868 253.805 282.939 253.876 283.038L257.186 287.633C257.265 287.752 257.318 287.887 257.341 288.028C257.365 288.169 257.358 288.313 257.322 288.452C257.286 288.59 257.221 288.719 257.132 288.831C257.043 288.943 256.931 289.035 256.804 289.101C254.602 290.202 253.472 290.627 250.705 292.037C249.009 292.925 245.376 295.141 243.027 296.36C240.678 297.578 239.357 295.332 240.209 294.613C244.106 291.383 245.347 288.976 246.183 286.965C246.334 286.625 246.592 286.344 246.917 286.165Z" fill="#263238"/>
<path d="M202.405 298.129H209.921C210.055 298.13 210.185 298.176 210.291 298.258C210.397 298.34 210.473 298.454 210.508 298.584L212.138 304.507C212.178 304.647 212.185 304.794 212.158 304.936C212.131 305.079 212.071 305.213 211.982 305.329C211.893 305.444 211.779 305.536 211.648 305.599C211.517 305.661 211.373 305.692 211.227 305.689C208.585 305.689 207.337 305.689 204.042 305.689H193.949C191.219 305.689 190.646 302.922 191.747 302.672C196.819 301.549 199.748 300 201.289 298.525C201.439 298.388 201.615 298.282 201.807 298.214C201.998 298.146 202.202 298.117 202.405 298.129Z" fill="#263238"/>
<path opacity="0.2" d="M199.397 285.504L201.526 292.984H207.882L205.592 284.91L199.397 285.504Z" fill="black"/>
<path opacity="0.2" d="M246.418 273.033L240.678 275.668L244.782 282.076L250.514 279.441L246.418 273.033Z" fill="black"/>
<path d="M218.071 165.979L192.653 169.231C181.966 133.265 184.652 131.958 184.652 131.958C184.652 131.958 188.895 130.49 193.225 129.36C193.879 129.191 194.539 129.03 195.185 128.883C198.994 128.123 202.853 127.632 206.731 127.415L208.441 127.305C211.531 127.169 214.627 127.218 217.712 127.452C217.242 132.083 216.904 136.003 216.691 139.43C216.405 143.893 216.317 147.504 216.383 150.631C216.538 155.784 217.103 160.916 218.071 165.979Z" fill="#407BFF"/>
<g opacity="0.5">
<path opacity="0.5" d="M218.071 165.979L192.653 169.231C181.966 133.265 184.652 131.958 184.652 131.958C184.652 131.958 188.895 130.49 193.225 129.36C193.879 129.191 194.539 129.03 195.185 128.883C198.994 128.123 202.853 127.632 206.731 127.415L208.441 127.305C211.531 127.169 214.627 127.218 217.712 127.452C217.242 132.083 216.904 136.003 216.691 139.43C216.405 143.893 216.317 147.504 216.383 150.631C216.538 155.784 217.103 160.916 218.071 165.979Z" fill="white"/>
</g>
<path opacity="0.3" d="M216.383 150.617C214.666 146.947 213.829 138.939 214.915 136.194L216.691 139.416C216.405 143.864 216.317 147.475 216.383 150.617Z" fill="black"/>
<path d="M203.932 119.715C204.167 122.857 204.908 126.057 206.729 127.4C203.879 128.253 201.234 129.679 198.956 131.591C195.836 129.947 195.19 128.883 195.19 128.883C199.205 127.363 198.926 124.604 197.223 120.17L200.358 118.482C200.628 118.183 200.98 117.97 201.37 117.87C201.76 117.77 202.171 117.786 202.552 117.918C202.933 118.049 203.267 118.289 203.512 118.609C203.758 118.929 203.904 119.313 203.932 119.715Z" fill="#FF8B7B"/>
<path d="M195.976 126.373C194.868 125.866 192.791 128.611 192.512 129.345C192.233 130.079 193.363 130.307 193.246 131.276C193.128 132.245 193.774 133.103 195.69 133.859C197.606 134.615 201.4 134.16 202.663 132.281C203.925 130.402 211.794 128.898 210.693 127.026C209.592 125.154 208.74 126.204 207.962 124.332C207.184 122.46 203.889 124.251 202.824 125.228C201.76 126.204 200.644 128.494 195.976 126.373Z" fill="#407BFF"/>
<path opacity="0.2" d="M200.381 118.475C200.634 118.195 200.96 117.99 201.323 117.884C201.685 117.777 202.07 117.773 202.435 117.872C202.799 117.971 203.13 118.168 203.389 118.443C203.648 118.718 203.826 119.059 203.904 119.429C202.715 121.833 200.795 123.798 198.421 125.044C198.337 123.358 197.938 121.703 197.246 120.163L200.381 118.475Z" fill="black"/>
<path d="M208.807 109.865C207.251 115.935 206.723 118.534 203.016 121.088C197.438 124.927 190.325 121.69 190.039 115.282C189.782 109.513 192.373 100.558 198.847 99.2735C200.274 98.9819 201.753 99.0601 203.142 99.5008C204.53 99.9415 205.783 100.73 206.781 101.791C207.779 102.853 208.489 104.152 208.844 105.565C209.199 106.978 209.186 108.458 208.807 109.865Z" fill="#FF8B7B"/>
<path d="M209.098 115.84C208.848 116.385 208.492 116.875 208.051 117.282C207.61 117.688 207.093 118.004 206.53 118.21C205.017 118.761 204.144 117.432 204.467 115.95C204.761 114.614 205.898 112.713 207.462 112.816C207.802 112.844 208.129 112.957 208.415 113.144C208.7 113.33 208.935 113.585 209.097 113.885C209.26 114.185 209.345 114.521 209.345 114.862C209.345 115.203 209.261 115.539 209.098 115.84Z" fill="#FF8B7B"/>
<path d="M193.489 102.899C196.469 102.29 203.626 102.797 204.25 105.725C201.703 108.103 202.929 115.766 200.279 118.012C204.147 121.682 211.817 121.719 211.817 121.719C211.817 121.719 219.4 101.116 210.144 100.11C208.199 94.8989 197.666 94.4291 192.176 98.6423" fill="#263238"/>
<path d="M207.722 106.012H204.052C203.924 106.012 203.8 105.961 203.71 105.87C203.619 105.779 203.568 105.656 203.568 105.527C203.57 105.4 203.621 105.277 203.712 105.187C203.802 105.097 203.924 105.045 204.052 105.043H207.722C207.851 105.043 207.974 105.094 208.065 105.185C208.155 105.276 208.206 105.399 208.206 105.527C208.207 105.591 208.196 105.655 208.172 105.714C208.148 105.773 208.112 105.827 208.067 105.872C208.022 105.917 207.968 105.953 207.909 105.977C207.849 106.001 207.786 106.013 207.722 106.012Z" fill="#407BFF"/>
<path d="M192.652 169.239C192.652 169.239 182.89 218.365 186.142 237.339C189.261 255.528 198.855 290.818 198.855 290.818L209.74 290.539C209.74 290.539 202.906 249.648 202.774 234.447C202.547 209.234 211.266 166.853 211.266 166.853L192.652 169.239Z" fill="#407BFF"/>
<path d="M198.172 291.383L210.767 291.038L209.989 286.906L196.344 287.603L198.172 291.383Z" fill="#263238"/>
<path opacity="0.3" d="M201.517 175.191L205.869 167.543L211.264 166.853C211.264 166.853 207.293 186.128 204.783 206.408C201.766 196.712 200.702 179.654 201.517 175.191Z" fill="black"/>
<path d="M198.18 168.6C198.18 168.6 205.895 210.159 212.772 233.889C218.321 253.054 241.618 279.17 241.618 279.17L249.854 275.037C249.854 275.037 234.22 246.103 230.344 233.082C217.947 191.42 227.643 176.278 218.042 165.979L198.18 168.6Z" fill="#407BFF"/>
<path d="M241.705 281.709L251.401 276.703L249.947 272.571L239.238 278.516L241.705 281.709Z" fill="#263238"/>
<path d="M218.258 164.416L219.726 166.545C219.836 166.706 219.653 166.919 219.359 166.956L192.693 170.376C192.465 170.376 192.26 170.317 192.231 170.171L191.709 167.925C191.709 167.77 191.856 167.609 192.106 167.58L217.847 164.277C217.922 164.264 217.998 164.271 218.07 164.295C218.142 164.319 218.206 164.361 218.258 164.416Z" fill="#407BFF"/>
<path opacity="0.4" d="M218.258 164.416L219.726 166.545C219.836 166.706 219.653 166.919 219.359 166.956L192.693 170.376C192.465 170.376 192.26 170.317 192.231 170.171L191.709 167.925C191.709 167.77 191.856 167.609 192.106 167.58L217.847 164.277C217.922 164.264 217.998 164.271 218.07 164.295C218.142 164.319 218.206 164.361 218.258 164.416Z" fill="white"/>
<path d="M215.172 167.763L215.862 167.668C216.002 167.668 216.097 167.572 216.075 167.484L215.341 164.548C215.341 164.46 215.194 164.409 215.055 164.423L214.365 164.511C214.233 164.511 214.137 164.614 214.152 164.702L214.886 167.638C214.908 167.719 215.062 167.778 215.172 167.763Z" fill="#263238"/>
<path d="M194.639 170.391L195.329 170.303C195.461 170.303 195.557 170.2 195.542 170.119L194.808 167.183C194.808 167.095 194.654 167.036 194.522 167.058L193.832 167.146C193.693 167.146 193.597 167.249 193.619 167.33L194.353 170.266C194.368 170.354 194.507 170.413 194.639 170.391Z" fill="#263238"/>
<path d="M204.902 169.077L205.592 168.989C205.731 168.989 205.827 168.886 205.805 168.798L205.107 165.862C205.107 165.781 204.953 165.722 204.821 165.737L204.131 165.825C203.992 165.825 203.896 165.928 203.918 166.016L204.615 168.952C204.638 169.04 204.784 169.092 204.902 169.077Z" fill="#263238"/>
<path d="M198.411 109.608C198.316 110.107 197.971 110.46 197.677 110.394C197.384 110.327 197.163 109.88 197.259 109.381C197.354 108.882 197.699 108.522 197.993 108.588C198.286 108.654 198.507 109.109 198.411 109.608Z" fill="#263238"/>
<path d="M192.761 108.522C192.666 109.021 192.328 109.374 192.027 109.308C191.726 109.242 191.513 108.794 191.609 108.295C191.704 107.796 192.049 107.436 192.379 107.502C192.71 107.568 192.864 108.016 192.761 108.522Z" fill="#263238"/>
<path d="M192.488 107.553L191.351 106.98C191.351 106.98 191.784 108.037 192.488 107.553Z" fill="#263238"/>
<path d="M194.259 109.638C193.595 110.692 192.79 111.65 191.866 112.486C192.086 112.717 192.354 112.898 192.65 113.016C192.947 113.134 193.265 113.186 193.584 113.168L194.259 109.638Z" fill="#FF5652"/>
<path d="M195.493 115.657C195.469 115.641 195.45 115.619 195.438 115.593C195.426 115.567 195.423 115.538 195.427 115.51C195.434 115.47 195.457 115.435 195.49 115.411C195.523 115.388 195.563 115.379 195.603 115.385C196.222 115.52 196.864 115.507 197.476 115.346C198.088 115.185 198.654 114.882 199.126 114.46C199.155 114.433 199.193 114.417 199.233 114.417C199.273 114.417 199.311 114.433 199.339 114.46C199.354 114.473 199.365 114.489 199.373 114.507C199.38 114.524 199.384 114.544 199.384 114.563C199.384 114.582 199.38 114.601 199.373 114.619C199.365 114.637 199.354 114.653 199.339 114.666C198.834 115.129 198.225 115.463 197.563 115.64C196.901 115.816 196.206 115.829 195.537 115.679C195.521 115.676 195.505 115.668 195.493 115.657Z" fill="#263238"/>
<path d="M200.382 108.067C200.337 108.039 200.301 107.998 200.279 107.95C200.124 107.608 199.89 107.309 199.596 107.075C199.303 106.842 198.958 106.681 198.591 106.606C198.552 106.603 198.513 106.591 198.479 106.572C198.444 106.554 198.413 106.528 198.389 106.497C198.364 106.467 198.346 106.431 198.335 106.393C198.324 106.355 198.322 106.315 198.327 106.276C198.338 106.198 198.378 106.127 198.439 106.078C198.501 106.029 198.579 106.005 198.657 106.012C199.125 106.095 199.566 106.291 199.942 106.582C200.318 106.874 200.618 107.252 200.815 107.685C200.851 107.756 200.857 107.839 200.832 107.914C200.808 107.99 200.754 108.053 200.683 108.089C200.635 108.111 200.582 108.12 200.53 108.116C200.477 108.112 200.426 108.095 200.382 108.067Z" fill="#263238"/>
<path d="M190.787 105.571V105.52C190.775 105.483 190.772 105.444 190.775 105.405C190.779 105.367 190.791 105.329 190.809 105.295C190.828 105.261 190.853 105.231 190.883 105.206C190.913 105.182 190.948 105.164 190.985 105.153C191.436 105.003 191.917 104.964 192.386 105.041C192.855 105.118 193.299 105.307 193.679 105.593C193.74 105.645 193.778 105.719 193.785 105.798C193.792 105.878 193.767 105.958 193.715 106.019C193.664 106.08 193.59 106.119 193.51 106.125C193.43 106.132 193.351 106.107 193.29 106.056C192.988 105.832 192.637 105.686 192.266 105.628C191.895 105.571 191.516 105.604 191.161 105.725C191.09 105.749 191.014 105.747 190.945 105.718C190.876 105.69 190.82 105.638 190.787 105.571Z" fill="#263238"/>
<path d="M220.323 133.859C221.159 134.762 221.857 135.584 222.569 136.48C223.281 137.375 223.963 138.249 224.631 139.152C225.945 140.972 227.186 142.822 228.301 144.796C229.462 146.75 230.499 148.775 231.406 150.859C231.648 151.38 231.846 151.923 232.067 152.452C232.287 152.98 232.492 153.516 232.676 154.066C232.859 154.617 233.05 155.131 233.241 155.74L233.505 156.723L233.696 157.7C234.024 160.143 233.937 162.625 233.439 165.04C232.981 167.293 232.33 169.503 231.494 171.646C230.675 173.729 229.751 175.77 228.727 177.76C227.699 179.732 226.567 181.648 225.336 183.5L222.576 181.87C223.442 180.006 224.294 178.032 225.02 176.072C225.779 174.13 226.438 172.15 226.995 170.141C227.55 168.198 227.955 166.215 228.206 164.21C228.317 163.258 228.371 162.299 228.367 161.34C228.35 160.45 228.254 159.564 228.081 158.691L227.934 158.089L227.751 157.516C227.604 157.105 227.384 156.599 227.2 156.151C227.017 155.703 226.811 155.226 226.591 154.764C226.371 154.301 226.18 153.846 225.938 153.398C225.035 151.578 223.971 149.824 222.899 148.07C221.827 146.315 220.624 144.635 219.383 142.983C218.774 142.146 218.143 141.324 217.497 140.517C216.851 139.709 216.176 138.895 215.566 138.197L220.323 133.859Z" fill="#FF8B7B"/>
<path d="M223.867 180.109L218.802 182.582L223.999 186.641C223.999 186.641 226.253 183.926 226.157 181.305L223.867 180.109Z" fill="#FF8B7B"/>
<path d="M216.396 187.603L220.815 189.893L223.964 186.642L218.767 182.583L216.396 187.603Z" fill="#FF8B7B"/>
<path d="M217.709 127.437C220.858 127.863 225.615 136.656 225.615 136.656L217.607 144.525C217.607 144.525 211.47 137.53 211.632 133.441C211.779 129.969 213.694 126.901 217.709 127.437Z" fill="#407BFF"/>
<g opacity="0.5">
<path opacity="0.5" d="M217.709 127.437C220.858 127.863 225.615 136.656 225.615 136.656L217.607 144.525C217.607 144.525 211.47 137.53 211.632 133.441C211.779 129.969 213.694 126.901 217.709 127.437Z" fill="white"/>
</g>
<path d="M244.421 288.462C244.386 288.466 244.352 288.466 244.318 288.462C244.178 288.423 244.05 288.348 243.947 288.246C243.844 288.143 243.77 288.015 243.731 287.875C243.696 287.792 243.684 287.702 243.695 287.613C243.707 287.524 243.742 287.439 243.797 287.368C244.296 286.73 246.571 286.943 246.828 286.965C246.858 286.968 246.885 286.981 246.908 287C246.93 287.02 246.946 287.046 246.953 287.075C246.96 287.102 246.96 287.131 246.953 287.158C246.945 287.185 246.93 287.21 246.909 287.229C246.278 287.728 245.155 288.535 244.421 288.462ZM246.432 287.214C245.522 287.155 244.296 287.214 244.032 287.53C244.012 287.563 244.002 287.601 244.002 287.64C244.002 287.679 244.012 287.717 244.032 287.75C244.054 287.845 244.102 287.932 244.169 288.003C244.236 288.074 244.32 288.126 244.413 288.154C244.788 288.227 245.544 287.882 246.41 287.177L246.432 287.214Z" fill="#407BFF"/>
<path d="M246.624 287.192C245.89 287.082 244.422 286.458 244.253 285.812C244.218 285.699 244.224 285.576 244.27 285.467C244.315 285.357 244.398 285.266 244.502 285.21C244.594 285.141 244.701 285.094 244.815 285.074C244.928 285.053 245.045 285.06 245.156 285.093C246.044 285.313 246.895 286.921 246.932 286.987C246.945 287.01 246.951 287.037 246.951 287.064C246.951 287.091 246.945 287.117 246.932 287.141C246.917 287.162 246.897 287.179 246.874 287.191C246.851 287.202 246.826 287.208 246.8 287.207L246.624 287.192ZM245.023 285.372C244.962 285.361 244.9 285.363 244.839 285.377C244.779 285.391 244.722 285.417 244.671 285.453C244.517 285.563 244.517 285.658 244.539 285.724C244.664 286.15 245.765 286.722 246.521 286.877C246.213 286.355 245.618 285.511 245.053 285.409L245.023 285.372Z" fill="#407BFF"/>
<path d="M199.082 299.362C198.569 299.399 198.057 299.279 197.614 299.017C197.5 298.931 197.407 298.82 197.342 298.693C197.277 298.566 197.242 298.426 197.24 298.283C197.229 298.204 197.24 298.124 197.273 298.051C197.305 297.979 197.357 297.917 197.423 297.872C198.106 297.417 200.653 298.606 201.159 298.812C201.187 298.824 201.21 298.845 201.224 298.871C201.239 298.898 201.244 298.928 201.24 298.958C201.238 298.99 201.225 299.02 201.203 299.044C201.182 299.068 201.154 299.084 201.123 299.09C200.453 299.25 199.77 299.341 199.082 299.362ZM197.893 298.07C197.791 298.063 197.689 298.086 197.599 298.136C197.578 298.152 197.561 298.173 197.551 298.198C197.54 298.222 197.537 298.249 197.541 298.276C197.543 298.374 197.568 298.47 197.614 298.556C197.66 298.643 197.725 298.718 197.805 298.775C198.245 299.105 199.273 299.149 200.616 298.907C199.758 298.488 198.839 298.205 197.893 298.07Z" fill="#407BFF"/>
<path d="M201.113 299.105H201.054C200.21 298.76 198.507 297.395 198.603 296.683C198.603 296.529 198.728 296.338 199.117 296.294C200.585 296.118 201.23 298.819 201.26 298.929C201.266 298.957 201.265 298.986 201.256 299.013C201.247 299.041 201.231 299.065 201.208 299.083C201.18 299.101 201.146 299.109 201.113 299.105ZM199.249 296.573H199.153C198.992 296.573 198.911 296.639 198.896 296.712C198.845 297.123 200.019 298.18 200.885 298.672C200.673 298.004 200.129 296.573 199.234 296.573H199.249Z" fill="#407BFF"/>
<path d="M198.135 108.632L197.004 108.06C197.004 108.06 197.445 109.124 198.135 108.632Z" fill="#263238"/>
<path d="M85.7617 299.479L91.6558 299.391L93.0063 285.724L87.1196 285.812L85.7617 299.479Z" fill="#B55B52"/>
<path d="M56.5886 299.501H62.4826L64.7947 285.856H58.9081L56.5886 299.501Z" fill="#B55B52"/>
<path d="M63.2982 298.818H56.1123C55.9956 298.819 55.8826 298.859 55.7919 298.933C55.7012 299.006 55.6382 299.108 55.6132 299.222L54.4461 304.463C54.4196 304.59 54.4222 304.722 54.4537 304.849C54.4851 304.975 54.5447 305.093 54.628 305.193C54.7112 305.293 54.8159 305.373 54.9344 305.427C55.0529 305.481 55.182 305.508 55.3122 305.505C57.6243 305.468 59.3052 305.329 62.2192 305.329C64.0101 305.329 69.4124 305.52 71.886 305.52C74.3595 305.52 74.6825 303.076 73.6696 302.848C69.1261 301.857 65.7057 300.492 64.2524 299.178C63.9875 298.948 63.649 298.82 63.2982 298.818Z" fill="#263238"/>
<path d="M91.6021 298.738L85.1649 298.841C85.0488 298.84 84.9361 298.88 84.8464 298.954C84.7566 299.028 84.6953 299.13 84.6731 299.244L83.5868 304.5C83.5586 304.627 83.56 304.759 83.5909 304.886C83.6218 305.012 83.6814 305.13 83.7651 305.23C83.8488 305.33 83.9544 305.41 84.0736 305.463C84.1929 305.515 84.3226 305.54 84.4529 305.535C86.7724 305.461 90.1268 305.27 93.0407 305.226C96.4538 305.175 99.4045 305.314 103.397 305.226C105.82 305.19 106.451 302.738 105.438 302.533C100.814 301.593 97.0484 301.542 93.026 299.149C92.5981 298.884 92.1055 298.742 91.6021 298.738Z" fill="#263238"/>
<path d="M96.0284 120.053C97.9221 123.598 99.9259 127.246 101.944 130.776C103.963 134.307 106.069 137.816 108.316 141.052C108.587 141.471 108.881 141.853 109.167 142.242L109.593 142.821L109.784 143.086L109.857 143.188C110.04 143.454 110.295 143.663 110.591 143.79C111.384 144.135 113.057 144.091 114.745 143.688C116.571 143.225 118.352 142.601 120.067 141.823C120.962 141.419 121.873 141.016 122.761 140.561C123.649 140.106 124.559 139.621 125.381 139.181L128.119 142.66C127.282 143.489 126.482 144.187 125.616 144.862C124.75 145.537 123.891 146.249 122.966 146.88C121.071 148.223 119.03 149.346 116.881 150.227C115.696 150.701 114.467 151.055 113.211 151.284C111.723 151.544 110.199 151.521 108.719 151.218C106.976 150.854 105.374 149.998 104.102 148.752C103.941 148.598 103.794 148.437 103.647 148.275L103.346 147.93L102.796 147.284C102.429 146.858 102.062 146.425 101.717 145.992C99.0227 142.584 96.542 139.012 94.2888 135.298C92.0868 131.628 89.9875 127.958 88.0571 124.06L96.0284 120.053Z" fill="#B65B52"/>
<path d="M85.5342 120.229C83.9414 125.631 95.1276 140.363 95.1276 140.363L106.431 133.111C104.309 128.439 101.691 124.01 98.6214 119.899C93.9532 113.975 87.2738 114.298 85.5342 120.229Z" fill="#407BFF"/>
<path opacity="0.2" d="M85.5342 120.229C83.9414 125.631 95.1276 140.363 95.1276 140.363L106.431 133.111C104.309 128.439 101.691 124.01 98.6214 119.899C93.9532 113.975 87.2738 114.298 85.5342 120.229Z" fill="white"/>
<path opacity="0.2" d="M92.4034 126.571C94.7228 127.562 98.1359 133.177 99.9122 137.287L95.1265 140.363C92.4529 136.788 90.0486 133.019 87.9333 129.088C89.4454 127.429 91.1776 126.05 92.4034 126.571Z" fill="black"/>
<path d="M124.898 139.46L129.008 137.016L132.531 143.137C132.531 143.137 127.958 145.816 125 142.704L124.898 139.46Z" fill="#B55B52"/>
<path d="M134.756 137.074L136.598 141.794L132.532 143.137L129.009 137.016L134.756 137.074Z" fill="#B55B52"/>
<path opacity="0.2" d="M93.0044 285.724L92.3071 292.77L86.4131 292.866L87.1104 285.819L93.0044 285.724Z" fill="black"/>
<path opacity="0.2" d="M58.902 285.863H64.796L63.5996 292.895H57.7056L58.902 285.863Z" fill="black"/>
<path d="M59.272 117.836C65.6137 140.194 64.5935 163.961 64.9751 168.82L96.4637 167.638C101.815 134.278 92.2065 115.708 92.2065 115.708C92.2065 115.708 90.188 115.319 87.4429 115.032C86.5768 114.944 85.6519 114.871 84.683 114.819C84.1472 114.819 83.6041 114.768 83.0536 114.761C78.5982 114.828 74.1503 115.149 69.7315 115.722C68.8874 115.825 68.0359 115.957 67.2138 116.089C66.3918 116.221 65.6945 116.361 65.0118 116.5C61.7456 117.139 59.272 117.836 59.272 117.836Z" fill="#407BFF"/>
<path opacity="0.2" d="M59.272 117.836C65.6137 140.194 64.5935 163.961 64.9751 168.82L96.4637 167.638C101.815 134.278 92.2065 115.708 92.2065 115.708C92.2065 115.708 90.188 115.319 87.4429 115.032C86.5768 114.944 85.6519 114.871 84.683 114.819C84.1472 114.819 83.6041 114.768 83.0536 114.761C78.5982 114.828 74.1503 115.149 69.7315 115.722C68.8874 115.825 68.0359 115.957 67.2138 116.089C66.3918 116.221 65.6945 116.361 65.0118 116.5C61.7456 117.139 59.272 117.836 59.272 117.836Z" fill="white"/>
<path opacity="0.2" d="M65.9721 127.437C66.5373 129.602 65.8914 139.482 63.6306 141.919C63.3224 138.755 62.8966 135.452 62.3682 132.076L65.9721 127.437Z" fill="black"/>
<path d="M84.9011 114.805H84.6736C84.1378 114.805 83.5946 114.753 83.0441 114.746C78.576 114.822 74.1158 115.153 69.6853 115.737C69.0394 115.818 68.3935 115.913 67.7549 116.016L68.7311 116.853C71.6231 119.326 74.9921 121.616 79.9833 121.616H80.6219C83.1689 121.514 84.7984 120.684 85.481 119.135C85.7368 118.42 85.8177 117.653 85.7168 116.9C85.616 116.146 85.3363 115.428 84.9011 114.805Z" fill="white"/>
<path d="M69.8972 100.558C71.0569 104.793 72.4809 112.61 69.6917 115.7C72.2019 117.851 75.4536 120.302 80.5695 120.104C85.6855 119.906 84.5331 116.434 83.0505 114.709C78.1694 113.916 78.0299 110.349 78.6465 106.951L69.8972 100.558Z" fill="#B55B52"/>
<path opacity="0.2" d="M73.4526 103.193L78.5906 106.973C78.4441 107.765 78.3655 108.568 78.3558 109.373C76.5061 109.241 73.8417 107.421 73.504 105.52C73.3445 104.754 73.3271 103.965 73.4526 103.193Z" fill="black"/>
<path d="M82.3407 96.4695C84.0142 98.1724 87.0897 88.8873 83.8087 86.6339C80.5277 84.3806 74.1345 88.0799 82.3407 96.4695Z" fill="#263238"/>
<path d="M68.8987 94.1499C69.6914 99.9412 69.8602 103.376 73.0238 106.143C77.7801 110.305 84.7678 107.105 85.722 101.196C86.5808 95.8748 85.1421 87.2944 79.2775 85.4006C77.9851 84.9768 76.6058 84.8904 75.2706 85.1497C73.9355 85.4089 72.6887 86.0052 71.6489 86.8818C70.609 87.7584 69.8104 88.8863 69.3291 90.1584C68.8477 91.4305 68.6996 92.8045 68.8987 94.1499Z" fill="#B55B52"/>
<path d="M69.6574 99.3978C71.5584 100.866 73.2246 91.199 69.6574 89.4595C66.0902 87.7199 60.2622 92.3294 69.6574 99.3978Z" fill="#263238"/>
<path d="M67.4249 90.7735C73.0107 92.6893 88.7109 90.9056 85.9364 79.4773C84.7547 74.5448 79.4112 78.7433 79.0442 81.4737C76.3137 79.2277 71.2417 79.7195 71.8363 83.3087C68.8929 82.45 57.7655 85.1437 67.4249 90.7735Z" fill="#263238"/>
<path d="M66.7519 100.763C67.1877 101.355 67.7364 101.854 68.3664 102.232C68.9963 102.61 69.695 102.859 70.4219 102.965C72.3523 103.244 73.0643 101.453 72.3156 99.765C71.6403 98.2456 69.8273 96.2711 67.9923 96.7703C66.1573 97.2694 65.6949 99.3026 66.7519 100.763Z" fill="#B55B52"/>
<path d="M94.496 291.397L84.521 291.552C84.521 291.552 87.846 252.143 86.9505 233.808C86.6789 228.229 85.5559 220.427 84.0806 212.067C82.2236 201.527 81.3281 197.328 78.9426 184.013C77.225 174.515 75.7864 168.408 75.7864 168.408L96.4852 167.63C96.4852 167.63 102.864 213.96 102.665 231.936C102.438 250.609 94.496 291.397 94.496 291.397Z" fill="#263238"/>
<path opacity="0.2" d="M82.9408 180.563C86.6548 189.812 86.7282 211.48 85.018 217.579C84.7244 215.773 84.4088 213.909 84.0785 212.045C82.2141 201.504 81.3186 197.306 78.9405 183.991C78.8964 183.727 78.8451 183.47 78.801 183.213C80.0178 182.098 81.4184 181.201 82.9408 180.563Z" fill="black"/>
<path d="M85.2998 168.027C85.2998 168.027 81.5417 216.86 78.7745 233.903C75.7505 252.562 66.3406 291.53 66.3406 291.53H55.5508C55.5508 291.53 59.1107 256.298 61.32 237.948C63.8303 217.102 64.99 168.768 64.99 168.768L85.2998 168.027Z" fill="#263238"/>
<path d="M67.6318 291.765H54.9263V287.97L69.1292 287.72L67.6318 291.765Z" fill="#407BFF"/>
<path opacity="0.5" d="M67.6318 291.765H54.9263V287.97L69.1292 287.72L67.6318 291.765Z" fill="white"/>
<path d="M95.7513 291.589L83.8678 291.772L83.8018 287.933L97.0872 287.522L95.7513 291.589Z" fill="#407BFF"/>
<path opacity="0.5" d="M95.7513 291.589L83.8678 291.772L83.8018 287.933L97.0872 287.522L95.7513 291.589Z" fill="white"/>
<path d="M77.8542 95.1186C77.8542 95.5957 78.1698 95.9627 78.4781 95.9333C78.7863 95.904 79.0065 95.5076 78.9698 95.0379C78.9331 94.5681 78.6616 94.2011 78.3459 94.2231C78.0303 94.2451 77.8028 94.6855 77.8542 95.1186Z" fill="#263238"/>
<path d="M83.2045 94.7226C83.2045 95.1997 83.5201 95.5593 83.8358 95.5373C84.1514 95.5153 84.3642 95.1116 84.3275 94.6418C84.2908 94.1721 84.0119 93.7978 83.7036 93.8198C83.3954 93.8418 83.1752 94.2455 83.2045 94.7226Z" fill="#263238"/>
<path d="M81.5251 95.082C82.1962 96.4903 83.0582 97.7993 84.0868 98.9722C83.784 99.2233 83.4303 99.4059 83.0502 99.5072C82.6701 99.6086 82.2725 99.6264 81.8848 99.5594L81.5251 95.082Z" fill="#A02724"/>
<path d="M79.9543 100.976C79.4206 100.954 78.897 100.823 78.416 100.591C77.935 100.358 77.5068 100.03 77.1578 99.6255C77.1354 99.5953 77.1259 99.5575 77.1314 99.5203C77.1369 99.4831 77.157 99.4497 77.1871 99.4273C77.2173 99.4049 77.2551 99.3954 77.2923 99.4009C77.3295 99.4065 77.3629 99.4265 77.3853 99.4567C77.7789 99.8984 78.2712 100.241 78.8222 100.457C79.3732 100.672 79.9673 100.755 80.5562 100.697C80.592 100.695 80.6273 100.707 80.6546 100.73C80.6819 100.753 80.6993 100.786 80.703 100.822C80.705 100.841 80.7031 100.86 80.6975 100.878C80.6919 100.896 80.6826 100.913 80.6702 100.927C80.6578 100.942 80.6426 100.954 80.6256 100.962C80.6085 100.97 80.5899 100.975 80.5709 100.976C80.3656 100.991 80.1596 100.991 79.9543 100.976Z" fill="#263238"/>
<path d="M76.0699 93.5111C76.0223 93.5111 75.9759 93.4956 75.9378 93.467C75.8759 93.4278 75.832 93.3657 75.8155 93.2943C75.799 93.2228 75.8113 93.1478 75.8497 93.0854C76.0836 92.7044 76.4059 92.3855 76.7892 92.1555C77.1725 91.9255 77.6055 91.7913 78.0517 91.7642C78.1257 91.7642 78.1967 91.7936 78.249 91.8459C78.3013 91.8982 78.3307 91.9691 78.3307 92.0431C78.3307 92.1171 78.3013 92.188 78.249 92.2403C78.1967 92.2926 78.1257 92.322 78.0517 92.322C77.7013 92.3494 77.3625 92.4604 77.0637 92.6455C76.7649 92.8307 76.5147 93.0847 76.3342 93.3863C76.3073 93.4308 76.2679 93.4664 76.2209 93.4886C76.1739 93.5107 76.1214 93.5186 76.0699 93.5111Z" fill="#263238"/>
<path d="M85.3772 92.7115C85.3319 92.7079 85.2882 92.6934 85.2498 92.669C85.2115 92.6447 85.1796 92.6114 85.157 92.572C84.9881 92.2642 84.7494 92.0003 84.46 91.8014C84.1707 91.6026 83.8387 91.4743 83.4908 91.427C83.4169 91.427 83.3459 91.3976 83.2936 91.3453C83.2413 91.293 83.2119 91.222 83.2119 91.1481C83.2119 91.0741 83.2413 91.0031 83.2936 90.9508C83.3459 90.8985 83.4169 90.8691 83.4908 90.8691C83.9305 90.9201 84.3516 91.0752 84.7193 91.3216C85.0869 91.5679 85.3905 91.8985 85.6048 92.2858C85.6242 92.3173 85.6369 92.3524 85.6423 92.3891C85.6476 92.4257 85.6454 92.463 85.6358 92.4988C85.6261 92.5345 85.6093 92.5679 85.5863 92.5969C85.5633 92.6259 85.5346 92.6499 85.502 92.6674C85.4644 92.6917 85.4217 92.7067 85.3772 92.7115Z" fill="#263238"/>
<path d="M65.2445 299.853C64.7245 299.838 64.2076 299.767 63.7031 299.64C63.6762 299.633 63.652 299.618 63.6337 299.597C63.6154 299.576 63.6038 299.551 63.6003 299.523C63.5964 299.496 63.6006 299.468 63.6123 299.443C63.6241 299.418 63.6429 299.398 63.6664 299.383C63.8792 299.251 65.7803 298.084 66.4336 298.415C66.5039 298.454 66.5627 298.512 66.6039 298.581C66.6451 298.651 66.6674 298.73 66.6684 298.811C66.6847 298.947 66.667 299.086 66.6171 299.214C66.5672 299.342 66.4865 299.456 66.3822 299.545C66.0474 299.771 65.6474 299.879 65.2445 299.853ZM64.1068 299.472C65.1124 299.67 65.8757 299.633 66.1987 299.361C66.2708 299.302 66.3263 299.224 66.3597 299.137C66.3932 299.05 66.4034 298.955 66.3895 298.862C66.3917 298.829 66.3846 298.795 66.3691 298.766C66.3536 298.736 66.3302 298.711 66.3014 298.694C65.9638 298.488 64.8848 298.994 64.1068 299.472Z" fill="#407BFF"/>
<path d="M63.7416 299.641C63.7152 299.648 63.6873 299.648 63.6609 299.641C63.6399 299.628 63.6232 299.609 63.6127 299.587C63.6023 299.565 63.5986 299.54 63.6022 299.516C63.6022 299.442 63.7489 297.74 64.4316 297.182C64.5118 297.111 64.6066 297.058 64.7093 297.028C64.812 296.997 64.9202 296.99 65.0261 297.006C65.1298 297.005 65.2304 297.041 65.3107 297.107C65.391 297.172 65.4461 297.264 65.4665 297.365C65.5913 298.026 64.4169 299.318 63.8077 299.648L63.7416 299.641ZM64.9307 297.27C64.8111 297.269 64.6956 297.313 64.6077 297.395C64.1826 297.92 63.9267 298.563 63.8737 299.237C64.4829 298.774 65.2316 297.769 65.1582 297.417C65.1582 297.38 65.1582 297.292 64.9527 297.27H64.894H64.9307Z" fill="#407BFF"/>
<path d="M92.1891 299.516C92.1654 299.505 92.1448 299.489 92.1293 299.469C92.1139 299.448 92.1041 299.424 92.101 299.398C92.0948 299.371 92.0979 299.342 92.1099 299.317C92.1219 299.292 92.142 299.271 92.1671 299.259C92.4387 299.112 94.7875 297.879 95.5068 298.26C95.5745 298.298 95.6316 298.352 95.6727 298.417C95.7138 298.483 95.7376 298.558 95.7417 298.635C95.7588 298.76 95.745 298.888 95.7015 299.007C95.658 299.126 95.5861 299.233 95.4921 299.317C94.8535 299.897 93.1653 299.692 92.2111 299.516H92.1891ZM95.3233 298.488C94.8756 298.341 93.5984 298.848 92.6735 299.31C93.9801 299.508 94.949 299.435 95.3013 299.112C95.3639 299.055 95.4115 298.984 95.4397 298.905C95.4679 298.825 95.4759 298.74 95.4628 298.657C95.4633 298.627 95.4553 298.597 95.4398 298.571C95.4242 298.545 95.4016 298.524 95.3747 298.51L95.3233 298.488Z" fill="#407BFF"/>
<path d="M92.1918 299.516C92.1712 299.502 92.1543 299.484 92.1428 299.462C92.1312 299.44 92.1254 299.416 92.1257 299.391C92.1257 299.325 92.2652 297.732 93.0066 297.108C93.1063 297.02 93.2225 296.953 93.3485 296.91C93.4745 296.867 93.6078 296.85 93.7406 296.859C94.1223 296.859 94.2397 297.079 94.2691 297.24C94.3865 297.901 92.9992 299.2 92.2872 299.53C92.2547 299.535 92.2214 299.53 92.1918 299.516ZM93.8653 297.138H93.7259C93.6236 297.128 93.5204 297.14 93.423 297.173C93.3257 297.206 93.2363 297.259 93.1607 297.329C92.7338 297.848 92.4775 298.486 92.4267 299.156C93.1607 298.708 94.0856 297.688 94.0122 297.292C93.9975 297.27 93.9534 297.174 93.8653 297.138Z" fill="#407BFF"/>
<path d="M65.788 125.403L60.2536 137.463C59.3508 139.482 58.4259 141.485 57.5672 143.511C57.1414 144.517 56.6864 145.522 56.2827 146.528L55.967 147.262C55.8643 147.519 55.8056 147.695 55.7248 147.908C55.556 148.319 55.4459 148.774 55.3064 149.207C54.8096 151.084 54.5386 153.013 54.499 154.954C54.4334 157.027 54.5168 159.103 54.7486 161.164C54.9761 163.263 55.3211 165.384 55.7615 167.498C56.2019 169.612 56.7304 171.77 57.3029 173.774L53.2439 175.536C52.6494 174.435 52.1576 173.414 51.6805 172.328C51.2034 171.242 50.763 170.177 50.3446 169.076C49.5093 166.863 48.8179 164.597 48.2747 162.294C47.0259 157.444 46.7985 152.388 47.6068 147.445C47.7536 146.799 47.8784 146.146 48.0839 145.493L48.3628 144.539L48.6344 143.709C48.9867 142.601 49.3684 141.507 49.7354 140.421C50.5134 138.219 51.3061 136.105 52.1649 133.991C53.8605 129.734 55.7028 125.609 57.758 121.513L65.788 125.403Z" fill="#B65B52"/>
<path d="M59.2702 117.836C53.8974 119.524 48.6125 137.75 48.6125 137.75L61.0465 143.189C61.0465 143.189 65.0688 134.381 67.381 127.481C69.9059 119.957 65.7808 115.796 59.2702 117.836Z" fill="#407BFF"/>
<path opacity="0.2" d="M59.2702 117.836C53.8974 119.524 48.6125 137.75 48.6125 137.75L61.0465 143.189C61.0465 143.189 65.0688 134.381 67.381 127.481C69.9059 119.957 65.7808 115.796 59.2702 117.836Z" fill="white"/>
<path d="M56.9725 172.776L59.8718 178.009L53.0383 179.786C53.0383 179.786 50.9684 174.714 53.4126 173.099L56.9725 172.776Z" fill="#B55B52"/>
<path d="M60.3798 183.947L54.1041 184.468L53.0398 179.786L59.8733 178.009L60.3798 183.947Z" fill="#B55B52"/>
<path d="M183.499 207.246C183.446 209.063 182.687 210.787 181.384 212.055C180.082 213.322 178.337 214.032 176.519 214.035H158.052C159.576 216.147 160.488 218.639 160.686 221.236C160.884 223.834 160.361 226.435 159.175 228.754C157.989 231.073 156.186 233.02 153.964 234.379C151.742 235.738 149.188 236.457 146.583 236.457C143.978 236.457 141.424 235.738 139.202 234.379C136.98 233.02 135.176 231.073 133.99 228.754C132.804 226.435 132.281 223.834 132.48 221.236C132.678 218.639 133.59 216.147 135.114 214.035H116.639C114.791 214.031 113.02 213.295 111.713 211.989C110.406 210.682 109.67 208.91 109.666 207.062V147.182C109.67 145.334 110.406 143.562 111.712 142.254C113.019 140.945 114.79 140.208 116.639 140.202H176.519C178.337 140.207 180.081 140.919 181.382 142.188C182.684 143.457 183.44 145.182 183.492 146.999V165.65C181.38 164.13 178.89 163.221 176.295 163.026C173.701 162.83 171.103 163.354 168.787 164.54C166.471 165.726 164.527 167.529 163.17 169.749C161.813 171.969 161.095 174.52 161.095 177.122C161.095 179.724 161.813 182.276 163.17 184.496C164.527 186.716 166.471 188.518 168.787 189.705C171.103 190.891 173.701 191.415 176.295 191.219C178.89 191.023 181.38 190.115 183.492 188.595V207.062C183.491 207.123 183.493 207.185 183.499 207.246Z" fill="#407BFF"/>
<path opacity="0.3" d="M146.577 234.3C144.364 234.305 142.192 233.699 140.302 232.547C138.412 231.395 136.877 229.743 135.868 227.773C134.858 225.803 134.413 223.592 134.581 221.385C134.75 219.178 135.525 217.061 136.822 215.267L139.23 211.928H116.637C115.349 211.924 114.114 211.409 113.203 210.497C112.293 209.585 111.78 208.35 111.778 207.061V147.181C111.778 145.891 112.29 144.654 113.201 143.74C114.111 142.827 115.347 142.312 116.637 142.308H176.517C177.784 142.316 178.998 142.815 179.905 143.699C180.812 144.583 181.342 145.783 181.384 147.049V161.942C181.382 161.957 181.378 161.971 181.37 161.984C181.363 161.997 181.352 162.008 181.34 162.016C181.326 162.023 181.311 162.026 181.295 162.026C181.28 162.026 181.265 162.023 181.251 162.016C179.345 161.251 177.309 160.859 175.255 160.863C173.092 160.817 170.942 161.203 168.93 161.999C166.919 162.795 165.087 163.985 163.541 165.498C161.995 167.011 160.767 168.818 159.929 170.812C159.09 172.806 158.659 174.947 158.659 177.11C158.659 179.273 159.09 181.415 159.929 183.409C160.767 185.403 161.995 187.209 163.541 188.723C165.087 190.236 166.919 191.425 168.93 192.221C170.942 193.017 173.092 193.403 175.255 193.357C177.309 193.363 179.345 192.972 181.251 192.205C181.265 192.198 181.28 192.194 181.295 192.194C181.311 192.194 181.326 192.198 181.34 192.205C181.352 192.213 181.363 192.224 181.37 192.236C181.378 192.249 181.382 192.264 181.384 192.278V207.252C181.315 208.5 180.773 209.676 179.87 210.54C178.966 211.404 177.767 211.893 176.517 211.906H153.947L156.332 215.238C156.349 215.256 156.359 215.279 156.359 215.304C156.359 215.329 156.349 215.352 156.332 215.37C156.324 215.378 156.314 215.385 156.304 215.389C156.293 215.394 156.281 215.396 156.27 215.396C156.258 215.396 156.247 215.394 156.236 215.389C156.225 215.385 156.216 215.378 156.207 215.37L153.712 211.883C153.703 211.869 153.698 211.853 153.698 211.836C153.698 211.819 153.703 211.802 153.712 211.788C153.72 211.775 153.732 211.763 153.746 211.756C153.761 211.748 153.776 211.744 153.792 211.744H176.546C177.748 211.729 178.899 211.26 179.768 210.431C180.637 209.601 181.159 208.473 181.229 207.274V192.432C179.335 193.173 177.318 193.551 175.284 193.548C172.867 193.552 170.48 193.023 168.291 191.998C166.102 190.973 164.167 189.479 162.622 187.621C161.077 185.762 159.96 183.586 159.353 181.247C158.745 178.908 158.66 176.464 159.105 174.089C159.55 171.713 160.513 169.465 161.926 167.505C163.339 165.544 165.167 163.92 167.28 162.746C169.393 161.573 171.738 160.88 174.149 160.717C176.56 160.554 178.978 160.925 181.229 161.803V147.057C181.19 145.838 180.68 144.682 179.807 143.831C178.934 142.98 177.766 142.5 176.546 142.491H116.637C116.022 142.492 115.414 142.614 114.846 142.85C114.278 143.087 113.762 143.432 113.328 143.868C112.894 144.303 112.55 144.82 112.315 145.389C112.081 145.957 111.961 146.566 111.962 147.181V207.061C111.962 208.302 112.454 209.492 113.331 210.37C114.207 211.248 115.397 211.742 116.637 211.744H139.391C139.408 211.742 139.424 211.746 139.439 211.753C139.453 211.761 139.465 211.773 139.472 211.788C139.481 211.802 139.486 211.819 139.486 211.836C139.486 211.853 139.481 211.869 139.472 211.883L136.962 215.377C135.504 217.382 134.717 219.798 134.716 222.277C134.716 225.419 135.964 228.432 138.186 230.654C140.407 232.876 143.421 234.124 146.563 234.124C149.705 234.124 152.718 232.876 154.94 230.654C157.161 228.432 158.409 225.419 158.409 222.277C158.409 222.254 158.419 222.231 158.435 222.215C158.452 222.198 158.474 222.189 158.497 222.189C158.51 222.188 158.522 222.189 158.533 222.193C158.545 222.197 158.556 222.204 158.565 222.212C158.573 222.22 158.581 222.23 158.586 222.241C158.59 222.253 158.593 222.265 158.593 222.277C158.587 225.463 157.319 228.516 155.068 230.769C152.816 233.023 149.763 234.292 146.577 234.3Z" fill="white"/>
<path d="M250.36 140.194H231.9C233.419 142.307 234.326 144.798 234.521 147.394C234.716 149.989 234.191 152.588 233.003 154.904C231.816 157.22 230.013 159.163 227.792 160.52C225.571 161.878 223.019 162.596 220.417 162.596C217.814 162.596 215.262 161.878 213.041 160.52C210.82 159.163 209.017 157.22 207.83 154.904C206.642 152.588 206.117 149.989 206.312 147.394C206.507 144.798 207.414 142.307 208.933 140.194H190.473C188.625 140.2 186.854 140.936 185.546 142.242C184.239 143.548 183.5 145.319 183.493 147.167V165.642C181.381 164.121 178.891 163.213 176.296 163.017C173.702 162.821 171.103 163.346 168.787 164.532C166.471 165.718 164.528 167.52 163.171 169.74C161.814 171.961 161.095 174.512 161.095 177.114C161.095 179.716 161.814 182.268 163.171 184.488C164.528 186.708 166.471 188.51 168.787 189.696C171.103 190.883 173.702 191.407 176.296 191.211C178.891 191.015 181.381 190.107 183.493 188.586V207.061C183.498 208.911 184.236 210.683 185.544 211.991C186.851 213.299 188.623 214.036 190.473 214.042H250.36C252.209 214.036 253.98 213.298 255.287 211.99C256.594 210.682 257.329 208.91 257.333 207.061V147.174C257.329 145.325 256.594 143.553 255.287 142.245C253.98 140.937 252.209 140.2 250.36 140.194Z" fill="#263238"/>
<path opacity="0.3" d="M250.359 211.928H190.471C189.181 211.928 187.943 211.415 187.03 210.502C186.118 209.59 185.605 208.352 185.605 207.061V184.469L182.265 186.876C180.471 188.17 178.354 188.944 176.148 189.111C173.942 189.278 171.733 188.832 169.764 187.823C167.795 186.814 166.143 185.281 164.991 183.392C163.838 181.504 163.23 179.334 163.233 177.121C163.232 177.109 163.233 177.097 163.237 177.085C163.241 177.074 163.247 177.063 163.256 177.054C163.264 177.045 163.274 177.038 163.285 177.033C163.297 177.028 163.309 177.026 163.321 177.026C163.346 177.026 163.37 177.036 163.388 177.054C163.406 177.072 163.416 177.096 163.416 177.121C163.413 179.3 164.012 181.436 165.147 183.296C166.281 185.155 167.908 186.665 169.846 187.659C171.784 188.653 173.959 189.092 176.132 188.928C178.304 188.764 180.388 188.003 182.155 186.729L185.642 184.219C185.656 184.21 185.672 184.205 185.688 184.204C185.705 184.203 185.721 184.207 185.736 184.214C185.751 184.221 185.763 184.232 185.773 184.246C185.782 184.26 185.787 184.276 185.789 184.292V207.046C185.789 208.288 186.282 209.48 187.16 210.358C188.038 211.236 189.229 211.729 190.471 211.729H250.359C251.601 211.729 252.792 211.236 253.67 210.358C254.548 209.48 255.041 208.288 255.041 207.046V147.174C255.04 145.933 254.546 144.743 253.668 143.865C252.79 142.987 251.6 142.493 250.359 142.491H235.737C236.703 144.981 237.047 147.67 236.74 150.323C236.433 152.976 235.484 155.515 233.975 157.719C232.466 159.923 230.442 161.725 228.08 162.971C225.717 164.217 223.086 164.868 220.415 164.868C217.744 164.868 215.113 164.217 212.75 162.971C210.388 161.725 208.364 159.923 206.855 157.719C205.346 155.515 204.397 152.976 204.09 150.323C203.783 147.67 204.127 144.981 205.093 142.491H190.471C189.23 142.493 188.04 142.987 187.162 143.865C186.284 144.743 185.79 145.933 185.789 147.174V169.928C185.788 169.946 185.783 169.963 185.774 169.978C185.765 169.994 185.752 170.007 185.737 170.016C185.722 170.023 185.706 170.027 185.689 170.027C185.673 170.027 185.657 170.023 185.642 170.016L182.155 167.506C180.149 166.05 177.734 165.267 175.256 165.267C175.232 165.267 175.21 165.258 175.193 165.241C175.177 165.225 175.168 165.202 175.168 165.179C175.167 165.167 175.168 165.155 175.172 165.143C175.176 165.132 175.182 165.121 175.191 165.112C175.199 165.103 175.209 165.096 175.22 165.091C175.231 165.086 175.243 165.084 175.256 165.084C177.773 165.082 180.226 165.876 182.265 167.352L185.605 169.759V147.174C185.607 145.884 186.12 144.647 187.033 143.735C187.945 142.823 189.181 142.31 190.471 142.308H205.225C205.241 142.308 205.256 142.312 205.27 142.32C205.284 142.328 205.296 142.339 205.306 142.352C205.311 142.364 205.314 142.378 205.314 142.392C205.314 142.406 205.311 142.42 205.306 142.432C204.543 144.345 204.154 146.385 204.161 148.444C204.251 152.693 206.002 156.738 209.039 159.711C212.076 162.684 216.158 164.349 220.408 164.349C224.658 164.349 228.739 162.684 231.776 159.711C234.813 156.738 236.564 152.693 236.655 148.444C236.661 146.385 236.272 144.345 235.51 142.432C235.503 142.42 235.499 142.406 235.499 142.392C235.499 142.378 235.503 142.364 235.51 142.352C235.518 142.338 235.53 142.327 235.544 142.319C235.559 142.312 235.574 142.308 235.59 142.308H250.344C251.634 142.31 252.871 142.823 253.783 143.735C254.695 144.647 255.208 145.884 255.21 147.174V207.061C255.208 208.349 254.697 209.583 253.788 210.495C252.879 211.407 251.646 211.922 250.359 211.928Z" fill="white"/>
</svg>
