<svg width="120" height="156" viewBox="0 0 120 156" fill="none" xmlns="http://www.w3.org/2000/svg">
<g opacity="0.15">
<path d="M120 155.34H100.882V146.856H110.431V138.389H120V155.34Z" fill="#0057FF"/>
<path d="M120 155.34H100.882V146.856H110.431V138.389H120V155.34Z" fill="#B4B4B4"/>
<path d="M69.5488 155.34H50.4308V146.856H59.9997V138.389H69.5488V155.34Z" fill="#0057FF"/>
<path d="M69.5488 155.34H50.4308V146.856H59.9997V138.389H69.5488V155.34Z" fill="#B4B4B4"/>
<path d="M19.1182 155.34H9.72748e-05V146.856H9.54918V138.389H19.1182V155.34Z" fill="#0057FF"/>
<path d="M19.1182 155.34H9.72748e-05V146.856H9.54918V138.389H19.1182V155.34Z" fill="#B4B4B4"/>
<path d="M120 109.205H100.882V100.738H110.431V92.2531H120V109.205Z" fill="#0057FF"/>
<path d="M120 109.205H100.882V100.738H110.431V92.2531H120V109.205Z" fill="#B4B4B4"/>
<path d="M69.5493 109.205H50.4312V100.738H60.0002V92.2531H69.5493V109.205Z" fill="#0057FF"/>
<path d="M69.5493 109.205H50.4312V100.738H60.0002V92.2531H69.5493V109.205Z" fill="#B4B4B4"/>
<path d="M19.1182 109.205H9.72748e-05V100.738H9.54918V92.2531H19.1182V109.205Z" fill="#0057FF"/>
<path d="M19.1182 109.205H9.72748e-05V100.738H9.54918V92.2531H19.1182V109.205Z" fill="#B4B4B4"/>
<path d="M120 63.0864H100.882V54.6018H110.431V46.1348H120V63.0864Z" fill="#0057FF"/>
<path d="M120 63.0864H100.882V54.6018H110.431V46.1348H120V63.0864Z" fill="#B4B4B4"/>
<path d="M69.5493 63.0864H50.4312V54.6018H60.0002V46.1348H69.5493V63.0864Z" fill="#0057FF"/>
<path d="M69.5493 63.0864H50.4312V54.6018H60.0002V46.1348H69.5493V63.0864Z" fill="#B4B4B4"/>
<path d="M19.1182 63.0864H9.72748e-05V54.6018H9.54918V46.1348H19.1182V63.0864Z" fill="#0057FF"/>
<path d="M19.1182 63.0864H9.72748e-05V54.6018H9.54918V46.1348H19.1182V63.0864Z" fill="#B4B4B4"/>
<path d="M120 16.9517H100.882V8.48468H110.431V4.76837e-05H120V16.9517Z" fill="#0057FF"/>
<path d="M120 16.9517H100.882V8.48468H110.431V4.76837e-05H120V16.9517Z" fill="#B4B4B4"/>
<path d="M69.5493 16.9517H50.4312V8.48468H60.0002V4.76837e-05H69.5493V16.9517Z" fill="#0057FF"/>
<path d="M69.5493 16.9517H50.4312V8.48468H60.0002V4.76837e-05H69.5493V16.9517Z" fill="#B4B4B4"/>
<path d="M19.1182 16.9517H9.72748e-05V8.48468H9.54918V4.76837e-05H19.1182V16.9517Z" fill="#0057FF"/>
<path d="M19.1182 16.9517H9.72748e-05V8.48468H9.54918V4.76837e-05H19.1182V16.9517Z" fill="#B4B4B4"/>
</g>
</svg>
