<svg width="519" height="519" viewBox="0 0 519 519" fill="none" xmlns="http://www.w3.org/2000/svg">
<path d="M427.563 421.283C334.143 472.591 182.595 472.601 89.1745 421.283C-4.24545 369.964 -4.24545 286.789 89.1745 235.481C182.595 184.172 334.143 184.162 427.563 235.481C520.983 286.799 521.014 369.974 427.563 421.283Z" fill="white"/>
<path d="M199.213 316.32L186.84 323.462C186.143 323.814 185.374 323.998 184.593 323.998C183.812 323.998 183.042 323.814 182.345 323.462L79.6457 264.171C79.3746 264.079 79.1391 263.904 78.9723 263.672C78.8055 263.439 78.7158 263.16 78.7158 262.873C78.7158 262.587 78.8055 262.308 78.9723 262.075C79.1391 261.843 79.3746 261.668 79.6457 261.576L92.0187 254.435C92.7152 254.082 93.4851 253.898 94.266 253.898C95.0468 253.898 95.8167 254.082 96.5132 254.435L199.213 313.725C199.484 313.817 199.72 313.992 199.886 314.224C200.053 314.457 200.143 314.736 200.143 315.023C200.143 315.309 200.053 315.588 199.886 315.821C199.72 316.054 199.484 316.228 199.213 316.32Z" fill="#E0E0E0"/>
<path d="M356.532 415.065L344.159 422.207C343.463 422.559 342.693 422.743 341.912 422.743C341.131 422.743 340.361 422.559 339.665 422.207L236.975 362.916C236.704 362.824 236.469 362.649 236.302 362.417C236.135 362.184 236.045 361.905 236.045 361.618C236.045 361.332 236.135 361.053 236.302 360.82C236.469 360.588 236.704 360.413 236.975 360.321L249.348 353.18C250.045 352.827 250.815 352.643 251.596 352.643C252.376 352.643 253.146 352.827 253.843 353.18L356.532 412.47C356.803 412.562 357.039 412.737 357.206 412.969C357.372 413.202 357.462 413.481 357.462 413.768C357.462 414.054 357.372 414.333 357.206 414.566C357.039 414.798 356.803 414.973 356.532 415.065Z" fill="#E0E0E0"/>
<path d="M476.276 329.461L463.903 336.603C463.206 336.956 462.437 337.139 461.656 337.139C460.875 337.139 460.105 336.956 459.408 336.603L356.709 277.312C356.438 277.22 356.202 277.045 356.035 276.813C355.868 276.58 355.779 276.301 355.779 276.015C355.779 275.728 355.868 275.449 356.035 275.216C356.202 274.984 356.438 274.809 356.709 274.717L369.082 267.576C369.778 267.223 370.548 267.039 371.329 267.039C372.11 267.039 372.88 267.223 373.576 267.576L476.276 326.866C476.547 326.958 476.783 327.133 476.949 327.366C477.116 327.598 477.206 327.877 477.206 328.164C477.206 328.45 477.116 328.729 476.949 328.962C476.783 329.195 476.547 329.369 476.276 329.461Z" fill="#E0E0E0"/>
<path d="M187.587 318.27L193.639 314.772C194.294 314.347 194.84 313.772 195.232 313.096C195.623 312.42 195.849 311.66 195.891 310.88V153.561C195.849 152.78 195.623 152.021 195.232 151.345C194.84 150.668 194.294 150.094 193.639 149.668L96.067 93.3566C95.3686 93.0036 94.5971 92.8197 93.8145 92.8197C93.032 92.8197 92.2604 93.0036 91.562 93.3566L85.5105 96.8547C84.8551 97.2803 84.3094 97.8547 83.918 98.5311C83.5265 99.2075 83.3004 99.9668 83.2581 100.747V258.066C83.3004 258.847 83.5265 259.606 83.918 260.283C84.3094 260.959 84.8551 261.533 85.5105 261.959L183.083 318.27C183.781 318.623 184.552 318.807 185.335 318.807C186.117 318.807 186.889 318.623 187.587 318.27Z" fill="#F0F0F0"/>
<path d="M195.57 152.068C195.574 152.044 195.574 152.019 195.57 151.994V152.068Z" fill="#407BFF"/>
<path d="M195.788 152.742C195.735 152.511 195.662 152.285 195.57 152.067C195.662 152.285 195.735 152.511 195.788 152.742Z" fill="#407BFF"/>
<path d="M83.2995 100.748C83.2995 99.3159 84.3375 98.7346 85.552 99.4508L183.124 155.762C183.793 156.175 184.344 156.755 184.722 157.444L195.269 151.34C195.388 151.552 195.496 151.77 195.59 151.994C195.213 151.036 194.545 150.219 193.68 149.659L96.1084 93.3474C95.4105 92.9992 94.6411 92.8179 93.8611 92.8179C93.0812 92.8179 92.3119 92.9992 91.6139 93.3474L85.5623 96.8558C84.9049 97.2802 84.3572 97.8541 83.964 98.5306C83.5707 99.2071 83.343 99.967 83.2995 100.748Z" fill="#FAFAFA"/>
<path d="M178.297 167.367V272.724C178.297 273.918 177.456 274.395 176.429 273.762L94.0013 226.17C93.4569 225.813 93.0042 225.333 92.6796 224.768C92.3551 224.204 92.1678 223.571 92.1329 222.921V117.605C92.1329 116.412 92.9737 115.924 94.0013 116.567L176.46 164.118C176.999 164.479 177.445 164.96 177.764 165.525C178.083 166.089 178.266 166.72 178.297 167.367Z" fill="#E5EEFF"/>
<path d="M183.612 318.51C183.736 318.563 183.865 318.604 183.996 318.635L184.432 318.739C185.033 318.842 185.647 318.842 186.248 318.739L186.819 318.604L187.089 318.51C187.261 318.443 187.428 318.364 187.587 318.272L193.639 314.773C194.294 314.348 194.84 313.774 195.231 313.097C195.623 312.421 195.849 311.661 195.891 310.881V153.562C195.893 153.285 195.858 153.009 195.788 152.742C195.67 152.25 195.481 151.778 195.227 151.34L184.681 157.444C185.084 158.113 185.31 158.874 185.335 159.655V316.974C185.335 318.209 184.608 318.811 183.612 318.51Z" fill="#E0E0E0"/>
<path d="M121.02 256.448L119.879 258.867C119.864 258.901 119.843 258.932 119.816 258.958C119.789 258.984 119.757 259.005 119.722 259.018C119.688 259.032 119.65 259.038 119.613 259.037C119.576 259.036 119.539 259.028 119.505 259.012L116.962 258.036C116.557 257.881 116.401 258.452 116.692 259.002L118.529 262.458C118.644 262.66 118.695 262.892 118.675 263.123L118.239 266.237C118.166 266.735 118.592 267.389 118.955 267.347L121.228 267.067C121.321 267.069 121.412 267.094 121.494 267.139C121.575 267.184 121.644 267.248 121.695 267.327L123.968 270.243C124.332 270.7 124.757 270.534 124.685 269.963L124.249 266.33C124.227 266.242 124.229 266.149 124.255 266.061C124.28 265.974 124.328 265.895 124.394 265.832L126.231 264.493C126.532 264.285 126.366 263.527 125.961 263.216L123.418 261.254C123.24 261.105 123.11 260.906 123.045 260.683L121.903 256.947C121.726 256.386 121.197 256.064 121.02 256.448Z" fill="#37474F"/>
<path d="M119.868 177.207C117.73 176.834 114.855 177.405 111.149 180.892C107.942 183.913 101.88 194.096 100.914 195.902C99.949 197.708 115.073 224.011 115.073 224.011L117.834 216.745L109.945 197.916L117.439 189.767L119.868 177.207Z" fill="#E39E8C"/>
<path d="M123.522 176.699C123.522 176.699 118.405 175.796 114.481 177.581C111.886 178.754 102.025 188.864 100.458 191.158C98.8903 193.452 99.347 194.137 100.063 196.13C100.561 197.521 101.35 198.85 104.672 205.399C106.81 209.614 111.232 217.212 111.232 217.212L115.934 212.717L110.371 198.185L117.439 189.757L123.522 176.699Z" fill="#407BFF"/>
<path opacity="0.1" d="M123.522 176.699C123.522 176.699 118.405 175.796 114.481 177.581C111.886 178.754 102.025 188.864 100.458 191.158C98.8903 193.452 99.347 194.137 100.063 196.13C100.561 197.521 101.35 198.85 104.672 205.399C106.81 209.614 111.232 217.212 111.232 217.212L115.934 212.717L110.371 198.185L117.439 189.757L123.522 176.699Z" fill="black"/>
<path d="M149.026 326.773L142.237 325.569V313.943L149.026 315.147V326.773Z" fill="#E3A392"/>
<path d="M121.238 313.071L114.45 312.106L114.107 299.733L121.238 300.761V313.071Z" fill="#E3A392"/>
<path d="M148.071 231.952C148.071 238.439 148.517 276.243 148.517 276.243C148.683 278.132 150.479 281.765 150.593 288.523C150.801 298.3 149.296 321.012 149.296 321.012C149.296 321.012 145.995 322.351 141.729 319.829C141.729 319.829 136.393 286.395 135.179 276.534C134.141 267.918 129.937 247.542 129.937 247.542L125.256 272.34C126.033 275.935 126.319 279.619 126.107 283.291C125.785 287.692 121.654 309.334 121.654 309.334C121.654 309.334 118.457 310.933 113.806 308.546C113.806 308.546 113.402 273.378 113.319 269.268C113.236 264.576 115.27 224.769 115.27 224.769L148.071 231.952Z" fill="#37474F"/>
<path d="M142.206 322.216V321.251C141.843 321.178 141.614 321.5 141.469 322.351C141.376 322.974 141.244 323.591 141.075 324.199C140.784 325.323 140.387 326.418 139.891 327.468C138.926 329.669 138.127 330.406 135.926 332.783C135.186 333.425 134.492 334.119 133.85 334.859C133.435 335.523 133.29 337.526 133.985 338.118C136.63 340.124 139.945 341.038 143.244 340.672C144.242 340.589 145.181 340.168 145.908 339.479C146.634 338.791 147.104 337.875 147.24 336.883C147.344 336.27 147.313 335.627 147.386 335.014C147.602 333.664 148.188 332.399 149.078 331.361C149.595 330.784 150.035 330.142 150.385 329.451C150.956 328.153 150.5 326.503 150.136 325.05C149.825 323.783 149.482 322.403 149.098 322.444V323.192C148.075 323.792 146.865 323.988 145.704 323.742C144.635 323.596 142.206 322.974 142.206 322.216Z" fill="#263238"/>
<path d="M114.377 309.999C114.024 309.999 113.744 310.393 112.966 311.099C111.791 312.07 110.442 312.806 108.99 313.268C106.447 314.088 101.496 315.178 99.2536 315.791C97.8627 316.175 97.925 317.867 99.3678 319.092C100.811 320.316 104.309 321.614 108.492 321.417C110.775 321.313 113.754 319.725 115.633 320.171C117.512 320.617 121.031 321.209 122.422 320.503C123.813 319.797 123.252 317.649 122.858 315.822C122.432 313.829 121.892 310.746 121.259 310.767V311.4C120.45 312.5 116.235 312.251 114.44 311.026L114.377 309.999Z" fill="#263238"/>
<path d="M130.477 244.781C126.905 243.032 123.694 240.627 121.01 237.692C121.01 237.692 122.837 241.428 128.276 245.57L125.598 270.43L130.477 244.781Z" fill="#263238"/>
<path d="M136.289 180.103C138.604 181.069 143.265 182.646 144.313 187.442C145.569 193.193 145.974 205.306 145.974 205.306L146.358 232.18C141.677 234.764 124.498 233.592 114.647 224.665C114.647 224.665 115.862 192.694 115.862 187.691C115.862 182.688 118.643 177.155 126.325 178.059L136.289 180.103Z" fill="#F5F5F5"/>
<path d="M126.47 177.56C124.341 178.985 122.785 181.118 122.079 183.581C121.145 187.473 121.041 232.699 121.041 232.699C121.041 232.699 116.235 230.955 113.983 228.796C113.983 228.796 114.273 193.13 114.73 187.276C115.426 178.443 115.353 175.858 126.511 176.896L126.47 177.56Z" fill="#407BFF"/>
<path d="M138.313 178.982C138.313 178.982 131.919 181.795 131.847 197.459C131.784 210.953 131.328 234.515 131.328 234.515C131.328 234.515 141.926 237.941 148.642 235.117C148.642 235.117 149.441 202.4 149.316 197.282C149.171 191.438 147.811 183.664 145.943 182.584C143.48 181.22 140.932 180.017 138.313 178.982Z" fill="#407BFF"/>
<path opacity="0.1" d="M139.04 187.681L136.103 190.795L137.566 195.186L133.715 204.382L138.365 195.32L136.736 191.137L139.04 187.681Z" fill="black"/>
<path opacity="0.1" d="M118.353 182.864L118.986 186.736L116.453 189.591L119.982 201.331L117.253 189.85L119.588 187.172L118.353 182.864Z" fill="black"/>
<path d="M118.989 161.607C115.187 157.456 114.93 151.504 118.413 148.314C121.897 145.124 127.803 145.903 131.605 150.055C135.407 154.207 135.665 160.159 132.181 163.349C128.697 166.539 122.791 165.759 118.989 161.607Z" fill="#263238"/>
<path d="M141.438 165.322C141.438 165.322 139.922 172.163 139.362 173.222C139.157 173.542 138.885 173.813 138.564 174.015C138.243 174.218 137.881 174.347 137.504 174.394L137.608 169.412L141.438 165.322Z" fill="#263238"/>
<path d="M139.538 154.807C140.101 154.851 140.649 155.009 141.149 155.271C141.648 155.533 142.089 155.895 142.445 156.333C143.69 157.828 142.995 161.689 141.407 165.322L138.563 165.146L139.538 154.807Z" fill="#263238"/>
<path d="M137.732 165.042C138.303 165.478 139.123 164.523 139.808 163.911C140.493 163.298 142.808 162.696 143.96 165.322C145.112 167.948 142.922 170.865 141.137 171.114C138.023 171.54 137.545 169.454 137.545 169.454L137.317 181.017C135.158 183.404 130.311 185.802 127.695 184.878C125.619 184.141 125.162 180.539 127.155 178.588V175.163C125.756 175.132 124.365 174.954 123.003 174.633C120.709 173.875 119.266 171.81 118.571 169.194C117.45 165.042 117.024 161.71 117.969 154.029C119.007 145.611 129.023 147.292 134.421 151.641C139.819 155.991 137.732 165.042 137.732 165.042Z" fill="#E3A392"/>
<path d="M137.732 165.955C138.023 166.018 139.113 164.398 139.808 163.879C140.846 163.163 139.518 154.818 139.518 154.818C139.866 154.085 139.988 153.265 139.868 152.462C139.747 151.66 139.391 150.911 138.843 150.313C137.494 148.579 135.604 146.441 129.501 146.078C125.131 145.829 120.377 146.348 116.536 143.784C116.216 145.101 116.259 146.48 116.661 147.774C117.063 149.069 117.809 150.229 118.82 151.133C120.356 152.17 122.064 152.925 123.865 153.365C127.185 154.206 130.577 154.741 133.995 154.963C135.033 154.963 135.283 156.063 135.853 158.98C136.352 161.523 136.767 165.769 137.732 165.955Z" fill="#263238"/>
<path d="M139.538 155.43L142.995 154.185C142.795 153.684 142.418 153.273 141.937 153.03C141.455 152.787 140.901 152.729 140.379 152.866C140.145 152.968 139.936 153.118 139.764 153.306C139.593 153.495 139.463 153.717 139.384 153.96C139.304 154.202 139.277 154.458 139.304 154.711C139.33 154.965 139.41 155.21 139.538 155.43Z" fill="#263238"/>
<path d="M127.176 175.121C127.176 175.121 132.304 174.986 134.099 174.353C135.136 173.998 136.013 173.283 136.57 172.339C136.313 173.315 135.833 174.217 135.168 174.976C133.85 176.419 127.176 176.481 127.176 176.481V175.121Z" fill="#E39E8C"/>
<path d="M128.411 162.073C128.417 162.368 128.523 162.652 128.712 162.878C128.9 163.105 129.16 163.26 129.449 163.319C129.579 163.346 129.713 163.343 129.841 163.31C129.969 163.278 130.088 163.216 130.189 163.129C130.289 163.043 130.368 162.935 130.42 162.813C130.472 162.691 130.495 162.558 130.487 162.426C130.481 162.132 130.375 161.848 130.187 161.621C129.998 161.395 129.738 161.24 129.449 161.181C129.319 161.153 129.185 161.156 129.057 161.189C128.929 161.222 128.81 161.284 128.709 161.37C128.609 161.457 128.53 161.565 128.478 161.687C128.426 161.809 128.403 161.941 128.411 162.073Z" fill="#263238"/>
<path d="M129.501 158.388L131.702 159.987C131.847 159.669 131.875 159.31 131.78 158.973C131.685 158.636 131.473 158.345 131.183 158.15C131.062 158.042 130.919 157.962 130.764 157.915C130.61 157.868 130.446 157.855 130.286 157.878C130.126 157.901 129.973 157.958 129.837 158.046C129.702 158.135 129.587 158.251 129.501 158.388Z" fill="#263238"/>
<path d="M127.674 169.028L125.328 169.495C125.432 169.827 125.649 170.112 125.941 170.302C126.232 170.491 126.581 170.573 126.927 170.533C127.081 170.493 127.225 170.421 127.349 170.32C127.473 170.22 127.574 170.094 127.645 169.951C127.715 169.809 127.755 169.652 127.76 169.493C127.765 169.334 127.736 169.175 127.674 169.028Z" fill="#E39E8C"/>
<path d="M119.256 157.433L121.259 156.25C121.098 155.949 120.827 155.721 120.503 155.613C120.179 155.505 119.825 155.525 119.515 155.669C119.382 155.767 119.269 155.891 119.184 156.033C119.099 156.175 119.042 156.333 119.018 156.497C118.994 156.661 119.002 156.828 119.043 156.989C119.084 157.15 119.156 157.301 119.256 157.433Z" fill="#263238"/>
<path d="M119.868 160.278C119.878 160.571 119.985 160.853 120.173 161.079C120.361 161.305 120.619 161.461 120.906 161.523C121.036 161.551 121.17 161.548 121.298 161.515C121.427 161.482 121.546 161.42 121.646 161.333C121.746 161.247 121.826 161.139 121.877 161.017C121.929 160.895 121.952 160.763 121.944 160.631C121.94 160.335 121.835 160.051 121.646 159.824C121.457 159.597 121.196 159.442 120.906 159.385C120.777 159.358 120.643 159.36 120.514 159.393C120.386 159.426 120.267 159.488 120.167 159.575C120.066 159.661 119.987 159.769 119.935 159.891C119.884 160.013 119.861 160.145 119.868 160.278Z" fill="#263238"/>
<path d="M125.1 160.226L124.768 166.34L121.539 164.668L125.1 160.226Z" fill="#E39E8C"/>
<path d="M123.989 183.466C124.622 185.075 125.785 185.885 127.882 186.497C128.87 186.768 129.906 186.816 130.915 186.636C131.925 186.457 132.881 186.055 133.715 185.459L131.089 182.345L127.767 184.266L127.487 181.422L123.989 183.466Z" fill="#407BFF"/>
<path opacity="0.1" d="M123.989 183.466C124.622 185.075 125.785 185.885 127.882 186.497C128.87 186.768 129.906 186.816 130.915 186.636C131.925 186.457 132.881 186.055 133.715 185.459L131.089 182.345L127.767 184.266L127.487 181.422L123.989 183.466Z" fill="black"/>
<path d="M125.598 182.937C125.286 183.818 125.17 184.757 125.256 185.688C125.364 186.584 125.684 187.441 126.19 188.189C126.501 188.45 126.863 188.641 127.253 188.752C127.642 188.863 128.051 188.891 128.453 188.833C129.139 188.348 129.695 187.701 130.072 186.95C130.449 186.198 130.634 185.366 130.612 184.525L127.726 184.349L125.598 182.937Z" fill="#407BFF"/>
<path d="M126.231 188.189C126.231 188.189 122.816 206.406 122.681 207.911C122.546 209.417 124.643 215.177 125.941 215.447C127.238 215.717 129.792 211.295 129.833 209.915C129.875 208.534 128.494 188.843 128.494 188.843L126.231 188.189Z" fill="#407BFF"/>
<path opacity="0.1" d="M128.494 188.833C128.093 188.928 127.675 188.919 127.279 188.806C126.883 188.694 126.522 188.481 126.231 188.189L126.179 188.47C126.482 188.779 126.849 189.018 127.255 189.171C127.66 189.323 128.094 189.385 128.525 189.352L128.494 188.833Z" fill="black"/>
<path d="M127.767 184.349L137.379 178.723V176.553C137.379 176.553 139.611 177.799 140.12 181.826C138.593 184.943 135.901 187.333 132.625 188.48L130.612 184.525L127.767 184.349Z" fill="#E0E0E0"/>
<path d="M127.176 175.744C126.589 175.726 126.005 175.839 125.466 176.074C124.928 176.309 124.448 176.661 124.062 177.104C123.096 178.526 123.314 184.619 123.314 184.619L125.598 182.937L127.674 184.349C127.477 182.273 127.082 178.546 127.082 178.546L127.176 175.744Z" fill="#E0E0E0"/>
<path d="M153.167 231.474C152.378 232.159 151.776 232.989 150.282 234.453C149.617 235.207 148.822 235.836 147.936 236.311C146.768 236.854 145.52 237.204 144.241 237.349C142.512 237.516 140.77 237.23 139.185 236.519C138.258 236.106 137.422 235.513 136.725 234.775C136.03 234.044 135.576 233.116 135.428 232.118C135.378 231.938 135.378 231.747 135.428 231.567C135.563 231.266 135.916 231.173 136.227 231.1C138.081 230.824 139.918 230.443 141.729 229.959C143.161 229.45 144.064 228.921 143.805 228.713C143.545 228.505 142.694 228.9 141.282 228.713C139.871 228.526 138.604 227.467 138.656 226.72C138.708 225.973 138.718 226.118 140.099 226.128C141.594 225.949 143.099 225.87 144.604 225.89C145.908 226.047 147.231 225.944 148.496 225.589C151.34 224.966 159.25 214.368 159.25 214.368L145.517 196.473C145.517 196.473 142.081 189.207 146.047 183.134C146.047 183.134 147.801 183.612 151.237 187.286C154.672 190.961 168.156 213.828 169.028 215.167C169.9 216.506 169.661 218.281 168.052 219.911C166.443 221.54 153.167 231.474 153.167 231.474Z" fill="#E39E8C"/>
<path d="M145.32 182.242C145.32 182.242 140.784 189.684 145.32 196.774C149.856 203.863 158.482 214.181 158.482 214.181L150.967 223.886L155.191 229.969C155.191 229.969 168.499 220.627 169.578 219.454C170.658 218.281 170.813 217.648 169.578 214.648C168.343 211.648 153.167 183.965 145.32 182.242Z" fill="#407BFF"/>
<path opacity="0.1" d="M145.32 182.242C145.32 182.242 140.784 189.684 145.32 196.774C149.856 203.863 158.482 214.181 158.482 214.181L150.967 223.886L155.191 229.969C155.191 229.969 168.499 220.627 169.578 219.454C170.658 218.281 170.813 217.648 169.578 214.648C168.343 211.648 153.167 183.965 145.32 182.242Z" fill="black"/>
<path d="M343.578 416.363L349.63 412.864C350.285 412.439 350.831 411.865 351.222 411.188C351.614 410.512 351.84 409.752 351.882 408.972V251.653C351.841 250.871 351.616 250.109 351.224 249.431C350.833 248.752 350.286 248.176 349.63 247.75L252.058 191.438C251.359 191.085 250.588 190.901 249.805 190.901C249.023 190.901 248.251 191.085 247.553 191.438L241.501 194.936C240.846 195.362 240.3 195.936 239.909 196.613C239.517 197.289 239.291 198.049 239.249 198.829V356.148C239.291 356.929 239.517 357.688 239.909 358.364C240.3 359.041 240.846 359.615 241.501 360.041L339.073 416.363C339.772 416.716 340.543 416.9 341.326 416.9C342.108 416.9 342.88 416.716 343.578 416.363Z" fill="#407BFF"/>
<path d="M351.602 250.16C351.597 250.139 351.597 250.117 351.602 250.096V250.16Z" fill="#407BFF"/>
<path d="M351.82 250.822C351.766 250.592 351.693 250.366 351.602 250.148C351.695 250.365 351.768 250.591 351.82 250.822Z" fill="#407BFF"/>
<path opacity="0.4" d="M239.332 198.839C239.332 197.396 240.37 196.815 241.584 197.531L339.156 253.843C339.821 254.261 340.37 254.839 340.755 255.524L351.259 249.431C351.379 249.643 351.486 249.861 351.581 250.085C351.206 249.125 350.538 248.308 349.671 247.75L252.099 191.438C251.403 191.085 250.633 190.901 249.852 190.901C249.071 190.901 248.301 191.085 247.605 191.438L241.553 194.936C240.902 195.366 240.362 195.944 239.976 196.622C239.59 197.3 239.369 198.06 239.332 198.839Z" fill="white"/>
<path d="M334.33 265.448V370.805C334.33 371.998 333.489 372.486 332.451 371.843L250.034 324.25C249.491 323.894 249.039 323.416 248.714 322.853C248.39 322.291 248.202 321.66 248.165 321.012V215.696C248.165 214.492 248.996 214.015 250.034 214.606L332.451 262.199C332.997 262.555 333.452 263.034 333.778 263.599C334.105 264.163 334.293 264.797 334.33 265.448Z" fill="#E6F1FF"/>
<path opacity="0.1" d="M339.644 416.591L340.028 416.726L340.454 416.819C341.058 416.923 341.676 416.923 342.281 416.819C342.473 416.784 342.664 416.739 342.851 416.684L343.121 416.591C343.293 416.527 343.459 416.451 343.62 416.363L349.671 412.864C350.318 412.434 350.855 411.857 351.239 411.181C351.623 410.505 351.844 409.748 351.882 408.972V251.642C351.883 251.366 351.848 251.09 351.778 250.822C351.658 250.335 351.469 249.866 351.218 249.431L340.672 255.524C341.075 256.197 341.3 256.962 341.326 257.746V415.055C341.367 416.29 340.641 416.892 339.644 416.591Z" fill="black"/>
<path d="M283.748 280.26C278.807 279.72 276.596 279.71 273.295 282.782C270.368 285.492 262.438 294.055 261.493 295.654C260.549 297.252 274.188 323.503 274.188 323.503L276.907 316.808L270.441 300.376L281.028 292.373L283.748 280.26Z" fill="#FFA8A7"/>
<path d="M304.321 257.31L307.944 256.012C307.736 255.479 307.337 255.041 306.825 254.784C306.313 254.527 305.724 254.469 305.172 254.621C304.929 254.73 304.712 254.889 304.535 255.088C304.358 255.287 304.225 255.521 304.144 255.775C304.064 256.029 304.038 256.297 304.068 256.561C304.099 256.826 304.185 257.081 304.321 257.31Z" fill="#263238"/>
<path d="M304.259 256.241L305.421 252.504C305.203 252.36 304.955 252.267 304.695 252.233C304.436 252.199 304.172 252.224 303.924 252.307C303.676 252.39 303.45 252.529 303.263 252.712C303.077 252.895 302.934 253.119 302.847 253.365C302.725 253.934 302.798 254.526 303.054 255.048C303.31 255.57 303.734 255.99 304.259 256.241Z" fill="#263238"/>
<path d="M275.444 277.52L293.754 280.748C301.134 282.056 307.124 277.125 307.124 269.735V266.486C307.362 257.777 300.418 249.265 291.668 247.48C282.917 245.695 275.631 251.31 275.392 260.029L275.444 277.52Z" fill="#263238"/>
<path d="M281.724 252.556C282.009 254.83 282.754 257.023 283.914 259C285.074 260.978 286.624 262.698 288.471 264.057C293.256 267.7 296.899 268.302 296.899 268.302C296.899 268.302 298.114 263.984 294.668 258.161C291.221 252.338 287.184 250.708 284.713 250.76C284.089 250.706 283.464 250.85 282.927 251.173C282.39 251.495 281.969 251.979 281.724 252.556Z" fill="#407BFF"/>
<path d="M301.996 426.628L294.782 425.538V416.342L301.996 417.432V426.628Z" fill="#FFA8A7"/>
<path d="M283.011 420.743C282.627 421.781 280.738 422.362 279.367 423.151C278.841 423.469 278.457 423.977 278.295 424.57C278.133 425.163 278.205 425.796 278.496 426.338C279.015 427.313 281.433 428.206 284.007 428.237C286.924 428.237 289.976 427.272 290.505 424.781C290.823 422.713 291.402 420.693 292.228 418.771C292.726 417.525 293.609 416.435 293.412 415.065C293.098 413.688 292.326 412.458 291.221 411.577C291.221 411.577 285.907 421.802 284.568 421.812C284.223 421.851 283.876 421.764 283.59 421.568C283.304 421.371 283.098 421.079 283.011 420.743Z" fill="#263238"/>
<path d="M282.793 406.232L284.142 411.235C284.352 414.149 284.096 417.079 283.384 419.913C283.144 420.787 282.57 421.532 281.786 421.989C281.786 421.989 279.855 423.328 282.097 424.065C283.041 424.417 284.063 424.507 285.054 424.324C286.045 424.141 286.967 423.693 287.723 423.027C289.208 421.584 289.395 416.799 290.391 414.94C291.035 413.778 291.502 413.062 291.668 412.678C291.834 412.294 291.221 411.951 290.63 410.031C290.136 408.189 289.769 406.317 289.529 404.426L282.793 406.232Z" fill="#FFA8A7"/>
<path d="M305.598 327.25C308.712 336.115 306.262 350.263 305.234 361.297C304.331 370.898 303.158 378.995 303.158 378.995C304.401 382.869 304.973 386.927 304.85 390.994C304.715 398.592 302.058 419.352 302.058 419.352C300.836 419.808 299.517 419.945 298.228 419.748C296.938 419.552 295.72 419.03 294.688 418.231C294.688 418.231 293.65 405.412 292.612 396.506C291.574 387.164 291.169 380.5 290.235 375.009C289.062 368.168 288.346 346.91 288.346 346.91L283.073 368.49C284.618 371.998 285.875 375.625 286.831 379.337C288.222 384.973 290.235 407.54 290.235 407.54C289.33 408.391 288.211 408.981 286.997 409.246C285.783 409.511 284.52 409.441 283.343 409.045C283.343 409.045 271.832 373.202 270.576 369.497C268.832 364.421 272.33 332.897 273.295 322.548L305.598 327.25Z" fill="#37474F"/>
<path d="M288.357 346.889L287.931 341.419C284.86 340.922 281.986 339.585 279.627 337.558C281.267 339.773 283.472 341.508 286.011 342.582L286.53 347.595L284.225 363.902L288.357 346.889Z" fill="#263238"/>
<path d="M296.961 284.319C298.729 284.864 300.462 285.516 302.151 286.27C299.401 292.259 303.106 301.248 303.106 301.248L299.37 313.912C302.535 317.751 304.678 322.329 305.598 327.219C303.252 329.513 288.865 333.374 273.305 322.548C273.305 322.548 274.728 312.583 275.381 306.656C273.046 296.484 273.627 294.491 274.292 292.031C276.17 285.107 278.163 284.246 283.81 280.291L287.246 280.893L296.961 284.319Z" fill="#407BFF"/>
<path d="M294.792 422.466V421.552C294.059 424.336 292.482 426.824 290.277 428.673C288.284 430.137 285.564 431.787 284.879 433.656C284.194 435.524 288.087 437.164 290.661 437.361C291.838 437.452 293.022 437.3 294.138 436.914C295.254 436.529 296.278 435.918 297.148 435.119C298.318 433.92 299.411 432.648 300.418 431.31C301.176 430.417 302.94 429.566 303.356 428.445C303.478 427.304 303.355 426.15 302.992 425.061C302.702 423.898 302.38 422.611 302.006 422.653V423.338C301.051 423.896 299.922 424.077 298.84 423.846C297.906 423.68 294.792 423.12 294.792 422.466Z" fill="#263238"/>
<path d="M301.996 423.296C301.041 423.854 299.912 424.035 298.83 423.805C297.906 423.68 294.782 423.12 294.782 422.424V421.521C294.046 424.3 292.469 426.784 290.266 428.632L288.751 429.67C287.713 430.708 287.993 431.746 290.484 432.4C291.836 432.651 293.229 432.556 294.534 432.124C295.839 431.692 297.013 430.937 297.948 429.929C299.837 427.988 301.996 423.296 301.996 423.296Z" fill="#FFA8A7"/>
<g opacity="0.1">
<path opacity="0.1" d="M301.518 306.636L293.889 315.438L299.37 313.912L301.518 306.636Z" fill="black"/>
</g>
<path d="M281.724 252.556C280.021 253.199 277.842 256.967 277.8 265.79C277.8 273.274 280.146 275.599 281.35 276.378C282.554 277.156 284.91 277.312 287.204 277.416V280.904C287.204 280.904 283.052 284.277 283.208 286.374C283.364 288.471 288.471 290.432 291.512 289.031C293.605 287.921 295.468 286.424 297.003 284.62L297.335 273.959C297.335 273.959 298.643 275.527 300.979 274.011C301.447 273.734 301.853 273.363 302.171 272.921C302.489 272.479 302.712 271.976 302.826 271.443C302.94 270.911 302.943 270.361 302.834 269.827C302.725 269.294 302.507 268.789 302.193 268.344C300.761 266.569 298.041 266.423 296.951 268.344C296.951 268.344 293.308 267.731 288.533 264.098C286.673 262.739 285.109 261.014 283.938 259.029C282.768 257.044 282.014 254.842 281.724 252.556Z" fill="#FFA8A7"/>
<path d="M287.121 266.039C287.107 266.307 287.185 266.571 287.341 266.788C287.498 267.005 287.725 267.162 287.983 267.233C288.1 267.272 288.224 267.283 288.346 267.265C288.468 267.248 288.584 267.202 288.685 267.131C288.786 267.06 288.868 266.967 288.927 266.859C288.985 266.75 289.017 266.63 289.021 266.506C289.035 266.239 288.957 265.975 288.801 265.758C288.644 265.54 288.418 265.384 288.159 265.313C288.042 265.274 287.918 265.263 287.796 265.281C287.674 265.298 287.558 265.344 287.457 265.415C287.357 265.486 287.274 265.579 287.215 265.687C287.157 265.796 287.125 265.916 287.121 266.039Z" fill="#263238"/>
<path d="M286.696 272.298L284.495 272.548C284.575 272.854 284.758 273.125 285.013 273.314C285.268 273.502 285.579 273.598 285.896 273.586C286.036 273.558 286.168 273.502 286.284 273.421C286.401 273.34 286.5 273.236 286.575 273.115C286.65 272.995 286.699 272.86 286.72 272.719C286.741 272.579 286.732 272.436 286.696 272.298Z" fill="#F28F8F"/>
<path d="M279.492 261.576L281.433 260.652C281.297 260.368 281.061 260.143 280.77 260.023C280.478 259.902 280.153 259.893 279.855 259.998C279.725 260.076 279.612 260.179 279.523 260.301C279.434 260.423 279.371 260.562 279.337 260.71C279.303 260.857 279.299 261.01 279.326 261.159C279.353 261.308 279.409 261.45 279.492 261.576Z" fill="#263238"/>
<path d="M288.896 262.438L290.329 264.036C290.565 263.828 290.714 263.538 290.747 263.225C290.78 262.911 290.693 262.597 290.505 262.344C290.396 262.24 290.266 262.159 290.124 262.106C289.982 262.054 289.831 262.032 289.68 262.04C289.529 262.049 289.382 262.089 289.247 262.157C289.112 262.226 288.993 262.321 288.896 262.438Z" fill="#263238"/>
<path d="M279.866 263.88C279.854 264.149 279.934 264.413 280.092 264.63C280.251 264.847 280.478 265.004 280.738 265.074C280.854 265.115 280.979 265.128 281.102 265.111C281.225 265.095 281.342 265.049 281.444 264.978C281.545 264.907 281.628 264.812 281.686 264.703C281.744 264.593 281.774 264.471 281.776 264.347C281.788 264.08 281.709 263.817 281.553 263.6C281.397 263.384 281.171 263.226 280.914 263.154C280.797 263.115 280.672 263.104 280.549 263.122C280.427 263.14 280.311 263.186 280.209 263.256C280.107 263.326 280.023 263.419 279.964 263.528C279.904 263.636 279.871 263.757 279.866 263.88Z" fill="#263238"/>
<path d="M284.132 263.745L284.018 269.849L281.059 268.323L284.132 263.745Z" fill="#F28F8F"/>
<path d="M287.204 277.405C289.612 277.582 294.605 277.167 295.425 275.381C295.101 276.286 294.459 277.042 293.619 277.509C292.114 278.475 287.184 278.911 287.184 278.911L287.204 277.405Z" fill="#F28F8F"/>
<path d="M308.577 331.734C307.84 332.233 307.29 332.907 305.909 334.018C305.288 334.604 304.553 335.056 303.75 335.347C302.638 335.645 301.483 335.754 300.335 335.668C298.677 335.521 297.078 334.976 295.674 334.08C294.809 333.541 294.041 332.861 293.401 332.067C292.771 331.299 292.356 330.379 292.197 329.399C292.154 329.236 292.154 329.064 292.197 328.901C292.322 328.652 292.643 328.62 292.944 328.6C294.638 328.644 296.333 328.589 298.02 328.434C299.328 328.205 300.169 327.821 299.889 327.614C299.608 327.406 298.851 327.614 297.564 327.167C296.276 326.721 295.093 325.579 295.145 324.904C295.197 324.23 295.197 324.354 296.474 324.593C297.867 324.676 299.254 324.849 300.626 325.112C301.789 325.46 303.008 325.58 304.217 325.465C306.843 325.351 313.725 316.455 313.725 316.455L303.096 301.248C303.096 301.248 298.477 291.19 302.141 286.27C305.344 287.342 308.088 289.468 309.926 292.301C313.123 296.993 323.057 314.68 323.887 316.029C324.313 316.712 324.458 317.534 324.292 318.322C324.126 319.109 323.661 319.802 322.995 320.254C321.521 321.51 308.577 331.734 308.577 331.734Z" fill="#FFA8A7"/>
<path d="M464.848 330.842L470.899 327.344C471.554 326.915 472.099 326.339 472.491 325.661C472.882 324.983 473.108 324.222 473.152 323.441V166.132C473.108 165.35 472.882 164.59 472.491 163.912C472.099 163.234 471.554 162.657 470.899 162.229L373.327 105.918C372.631 105.565 371.861 105.381 371.08 105.381C370.299 105.381 369.529 105.565 368.833 105.918L362.771 109.416C362.117 109.845 361.573 110.421 361.184 111.099C360.794 111.777 360.57 112.538 360.529 113.318V270.627C360.571 271.408 360.795 272.168 361.185 272.846C361.574 273.524 362.117 274.101 362.771 274.53L460.343 330.842C461.041 331.195 461.813 331.379 462.595 331.379C463.378 331.379 464.149 331.195 464.848 330.842Z" fill="#37474F"/>
<path d="M473.048 165.302C472.988 165.073 472.915 164.847 472.83 164.627C472.921 164.845 472.994 165.071 473.048 165.302Z" fill="#407BFF"/>
<path d="M360.56 113.318C360.56 111.876 361.598 111.242 362.812 112.021L460.384 168.322C461.023 168.749 461.547 169.326 461.91 170.004L472.466 163.911C472.587 164.12 472.691 164.339 472.778 164.565C472.407 163.605 471.742 162.787 470.878 162.229L373.306 105.918C372.608 105.569 371.839 105.388 371.059 105.388C370.279 105.388 369.51 105.569 368.812 105.918L362.76 109.416C362.112 109.847 361.575 110.425 361.192 111.103C360.81 111.781 360.593 112.541 360.56 113.318Z" fill="#455A64"/>
<path d="M455.557 179.927V285.284C455.557 286.478 454.717 286.965 453.679 286.322L371.261 238.74C370.715 238.384 370.26 237.904 369.934 237.34C369.608 236.775 369.419 236.142 369.383 235.491V130.176C369.383 128.982 370.223 128.494 371.261 129.138L453.679 176.719C454.22 177.071 454.671 177.544 454.997 178.101C455.323 178.658 455.515 179.283 455.557 179.927Z" fill="#F2F6FF"/>
<path d="M460.872 331.122C460.992 331.178 461.117 331.223 461.246 331.257L461.682 331.35C462.283 331.454 462.897 331.454 463.498 331.35C463.691 331.321 463.882 331.279 464.069 331.226L464.339 331.122C464.515 331.061 464.685 330.984 464.848 330.894L470.899 327.396C471.552 326.966 472.095 326.389 472.485 325.711C472.874 325.033 473.099 324.273 473.141 323.493V166.132C473.142 165.852 473.107 165.573 473.037 165.301C472.917 164.814 472.728 164.346 472.477 163.911L461.91 170.004C462.32 170.674 462.549 171.439 462.574 172.225V329.544C462.595 330.769 461.91 331.382 460.872 331.122Z" fill="#263238"/>
<path d="M404.291 191.667C400.803 191.241 398.177 190.629 395.499 194.386C392.821 198.144 382.638 208.482 381.641 210.361C380.645 212.24 394.44 239 394.44 239L397.326 231.401L390.267 213.236L401.685 204.704L404.291 191.667Z" fill="#E39E8C"/>
<path d="M404.291 191.667C402.415 190.93 400.354 190.81 398.405 191.324C395.561 192.258 385.752 203.78 384.07 206.188C382.389 208.596 381.185 209.52 381.299 210.984C381.413 212.447 382.929 215.728 385.586 221.52C387.662 225.973 391.451 233.353 391.451 233.353L395.094 225.869L390.766 213.527L401.706 204.704L404.291 191.667Z" fill="#E6E6E6"/>
<path d="M400.533 337.9L393.475 336.904L393.122 324.043L400.18 325.039L400.533 337.9Z" fill="#E39E8C"/>
<path d="M426.961 351.353L419.892 350.107V338.004L426.961 339.249V351.353Z" fill="#E39E8C"/>
<path d="M419.892 346.619V345.581C419.217 345.758 417.65 351.477 414.847 353.543C412.615 355.183 409.574 356.989 408.796 359.117C408.017 361.245 413.031 363.528 415.117 363.528C417.536 363.528 421.729 362.563 422.777 361.162C423.826 359.76 424.324 357.529 425.186 356.522C426.047 355.515 428.009 354.57 428.476 353.314C428.608 352.041 428.47 350.753 428.071 349.536C427.739 348.228 427.386 346.785 426.961 346.827V347.605C425.893 348.231 424.631 348.435 423.421 348.176C422.393 348.052 419.881 347.408 419.892 346.619Z" fill="#263238"/>
<path d="M393.402 334.714C393.039 334.714 392.738 335.118 391.928 335.855C390.701 336.868 389.292 337.636 387.776 338.118C385.129 338.969 379.991 340.101 377.666 340.744C376.213 341.139 376.275 342.903 377.78 344.17C379.285 345.436 382.908 346.796 387.267 346.588C389.644 346.474 392.738 344.834 394.689 345.291C396.641 345.747 400.305 346.329 401.748 345.633C403.19 344.938 402.619 342.665 402.215 340.765C401.768 338.689 401.177 335.575 400.471 335.575V336.208C399.62 337.34 395.281 337.101 393.423 335.824L393.402 334.714Z" fill="#263238"/>
<path d="M423.94 238.522C429.462 250.864 424.013 292.768 424.013 292.768C424.21 294.667 426.431 298.674 427.407 307.03C428.569 316.912 427.573 341.585 427.573 341.585C427.573 341.585 422.954 342.82 419.196 340.464C419.196 340.464 412.564 302.401 411.131 292.54C409.875 283.935 407.405 265.053 407.405 265.053L402.215 291.138C403.129 293.952 403.823 296.832 404.291 299.754C404.965 305.525 400.907 331.195 400.907 331.195C398.234 331.813 395.431 331.505 392.956 330.323C392.956 330.323 390.548 294.885 389.842 287.952C388.721 276.305 392.042 241.076 393.205 233.789L423.94 238.522Z" fill="#407BFF"/>
<path d="M416.56 194.033C418.335 194.552 422.456 196.006 422.456 196.006C425.196 197.49 424.895 199.12 425.653 201.87C426.577 205.285 425.974 210.973 424.864 213.973L419.58 228.36C421.553 233.488 423.452 235.221 424.407 239.02C415.761 243.909 397.17 240.245 393.174 234.142C393.008 232.958 394.533 220.056 395.167 214.316C392.468 208.949 391.44 205.264 392.852 201.766C395.27 195.777 401.893 190.95 405.038 191.76L416.56 194.033Z" fill="#F0F0F0"/>
<path d="M411.173 187.577L413.788 188.034C421.386 189.373 427.542 184.307 427.542 176.709C427.542 169.08 421.314 161.793 413.716 160.444L411.256 160.018C403.616 158.669 397.429 163.765 397.429 171.436C397.429 178.993 403.585 186.238 411.173 187.577Z" fill="#263238"/>
<path d="M398.753 177.137C394.479 172.469 394.188 165.779 398.103 162.194C402.018 158.609 408.657 159.487 412.931 164.154C417.205 168.822 417.496 175.512 413.581 179.097C409.666 182.682 403.027 181.804 398.753 177.137Z" fill="#263238"/>
<path d="M434.579 198.03C432.252 197.566 430.148 196.329 428.611 194.521C427.074 192.712 426.192 190.437 426.109 188.065V169.91C428.437 170.374 430.54 171.611 432.078 173.419C433.615 175.228 434.497 177.503 434.579 179.875V198.03Z" fill="#263238"/>
<path d="M401.934 163.392C400.274 164.077 398.218 167.886 398.426 176.678C398.592 184.12 401 186.383 402.204 187.12C403.408 187.857 405.744 187.951 408.007 187.971V192.424L404.291 202.95L417.276 195.237V184.484C417.701 185.123 418.344 185.586 419.085 185.786C419.826 185.986 420.614 185.911 421.303 185.574C423.805 184.359 423.898 180.259 422.445 178.536C420.992 176.813 417.868 176.72 417.255 178.65C417.255 178.65 415.179 178.027 410.446 174.353C403.969 169.194 402.183 166.89 401.934 163.392Z" fill="#E3A392"/>
<path d="M407.529 176.46C407.525 176.727 407.611 176.988 407.773 177.201C407.935 177.413 408.163 177.566 408.422 177.633C408.537 177.661 408.658 177.663 408.774 177.638C408.89 177.613 408.999 177.562 409.093 177.49C409.186 177.417 409.263 177.324 409.315 177.217C409.368 177.111 409.396 176.994 409.398 176.875C409.403 176.61 409.319 176.351 409.159 176.14C408.999 175.929 408.772 175.778 408.515 175.713C408.4 175.681 408.279 175.676 408.161 175.698C408.044 175.721 407.933 175.77 407.837 175.843C407.742 175.915 407.665 176.008 407.611 176.115C407.558 176.222 407.53 176.34 407.529 176.46Z" fill="#263238"/>
<path d="M406.45 182.522L404.291 182.823C404.366 183.135 404.549 183.41 404.807 183.6C405.065 183.79 405.382 183.882 405.702 183.861C405.843 183.828 405.975 183.766 406.09 183.679C406.205 183.592 406.301 183.482 406.371 183.356C406.442 183.23 406.485 183.091 406.499 182.947C406.512 182.804 406.495 182.659 406.45 182.522Z" fill="#E39E8C"/>
<path d="M399.89 172.204L401.779 171.228C401.638 170.953 401.399 170.739 401.109 170.63C400.82 170.52 400.499 170.523 400.211 170.637C400.084 170.716 399.974 170.82 399.888 170.942C399.802 171.065 399.743 171.204 399.713 171.351C399.682 171.498 399.683 171.649 399.713 171.796C399.743 171.943 399.804 172.081 399.89 172.204Z" fill="#263238"/>
<path d="M400.326 174.477C400.318 174.743 400.401 175.003 400.562 175.214C400.722 175.426 400.95 175.576 401.208 175.64C401.323 175.67 401.443 175.673 401.559 175.65C401.675 175.627 401.784 175.577 401.878 175.505C401.973 175.433 402.049 175.34 402.102 175.234C402.155 175.128 402.183 175.011 402.184 174.893C402.19 174.626 402.106 174.366 401.946 174.153C401.786 173.94 401.559 173.787 401.301 173.72C401.186 173.689 401.065 173.686 400.948 173.71C400.831 173.734 400.721 173.785 400.627 173.858C400.532 173.931 400.456 174.025 400.404 174.133C400.352 174.24 400.325 174.358 400.326 174.477Z" fill="#263238"/>
<path d="M404.882 174.747L404.727 180.332L401.779 178.899L404.882 174.747Z" fill="#E39E8C"/>
<path d="M408.007 187.971C410.394 188.086 415.273 187.535 416.062 185.729C415.764 186.635 415.153 187.404 414.338 187.899C412.875 188.937 408.007 189.456 408.007 189.456V187.971Z" fill="#E39E8C"/>
<path opacity="0.1" d="M407.405 265.053L404.716 251.487C404.716 251.487 399.08 249.546 396.09 246.888C397.782 249.235 399.959 251.189 402.474 252.618L405.588 265.51L404.82 278.184L407.405 265.053Z" fill="black"/>
<path d="M417.276 180.612V176.356L415.646 176.066V178.64C415.659 179.103 415.826 179.549 416.121 179.907C416.417 180.264 416.823 180.512 417.276 180.612Z" fill="#263238"/>
<path d="M426.41 170.606L427.895 167.699C427.729 167.571 427.539 167.479 427.335 167.43C427.132 167.38 426.92 167.375 426.714 167.413C426.508 167.451 426.313 167.532 426.141 167.652C425.968 167.771 425.823 167.925 425.715 168.104L425.622 168.291C425.453 168.707 425.44 169.17 425.585 169.595C425.73 170.02 426.023 170.379 426.41 170.606Z" fill="#263238"/>
<path d="M404.291 202.95L417.276 192.829V191.22C417.276 191.22 419.144 191.864 419.601 195.497C418.232 198.302 415.805 200.448 412.854 201.465L411.318 199.753L404.291 202.95Z" fill="#E0E0E0"/>
<path d="M408.007 189.954C407.005 190.234 406.098 190.779 405.381 191.532C404.343 192.632 402.267 197.656 402.267 197.656L403.678 198.383L404.301 202.929L408.017 192.404L408.007 189.954Z" fill="#E0E0E0"/>
<path d="M429.67 243.577C428.891 244.252 428.31 245.061 426.836 246.504C426.185 247.241 425.408 247.856 424.542 248.321C423.398 248.838 422.178 249.167 420.93 249.296C419.236 249.457 417.53 249.175 415.979 248.476C415.071 248.074 414.252 247.496 413.57 246.774C412.89 246.056 412.445 245.147 412.294 244.169C412.254 244.043 412.246 243.91 412.27 243.781C412.294 243.652 412.349 243.53 412.431 243.428C412.513 243.325 412.62 243.244 412.74 243.193C412.861 243.141 412.993 243.119 413.124 243.131C414.941 242.866 416.74 242.492 418.511 242.01C419.913 241.522 420.795 240.972 420.494 240.795C420.193 240.619 419.456 240.982 418.034 240.795C416.612 240.608 415.408 239.57 415.46 238.844C415.511 238.117 415.522 238.252 416.871 238.263C418.335 238.093 419.809 238.017 421.283 238.034C422.559 238.185 423.853 238.086 425.092 237.744C427.874 237.131 435.617 226.751 435.617 226.751L422.186 209.23C422.186 209.23 418.812 202.088 422.694 196.182C422.694 196.182 424.417 196.639 427.781 200.209C431.144 203.78 444.264 226.336 445.198 227.613C446.132 228.889 445.811 230.644 444.243 232.263C442.676 233.882 429.67 243.577 429.67 243.577Z" fill="#E39E8C"/>
<path d="M422.466 196.006C422.466 196.006 417.556 202.669 421.957 209.634C426.359 216.599 434.839 226.668 434.839 226.668L427.48 236.176L431.632 242.134C431.632 242.134 444.658 232.958 445.728 231.837C446.797 230.716 446.932 230.073 445.728 227.125C444.524 224.177 429.286 196.182 422.466 196.006Z" fill="#E6E6E6"/>
</svg>
