<svg width="120" height="40" viewBox="0 0 120 40" fill="none" xmlns="http://www.w3.org/2000/svg">
<path d="M110.444 7.92969e-06H9.56145C9.19372 7.92969e-06 8.8304 7.92975e-06 8.46364 0.00200793C8.15663 0.00400793 7.85207 0.00981793 7.54211 0.0147079C6.86874 0.0226097 6.19695 0.0816842 5.53259 0.191418C4.86915 0.303541 4.2265 0.514924 3.62637 0.818418C3.02697 1.12448 2.47929 1.52218 2.00318 1.99708C1.52457 2.47064 1.12561 3.01802 0.82165 3.61817C0.516847 4.21712 0.305496 4.85895 0.194896 5.52149C0.083244 6.18319 0.0231632 6.85253 0.0151925 7.52349C0.00588648 7.83009 0.00490373 8.13771 0 8.44435V31.5586C0.00490373 31.8691 0.00588648 32.1699 0.0151925 32.4805C0.0231657 33.1514 0.0832464 33.8207 0.194896 34.4824C0.30519 35.1453 0.516554 35.7875 0.82165 36.3867C1.12548 36.9849 1.52449 37.5301 2.00318 38.001C2.47748 38.478 3.02552 38.876 3.62637 39.1797C4.2265 39.484 4.86908 39.6967 5.53259 39.8105C6.19707 39.9194 6.86879 39.9785 7.54211 39.9873C7.85207 39.9941 8.15663 39.998 8.46364 39.998C8.83039 40 9.19374 40 9.56145 40H110.444C110.804 40 111.171 40 111.531 39.998C111.837 39.998 112.15 39.9941 112.455 39.9873C113.128 39.9789 113.798 39.9198 114.461 39.8105C115.127 39.6959 115.772 39.4833 116.375 39.1797C116.975 38.8758 117.522 38.4779 117.996 38.001C118.474 37.5282 118.874 36.9835 119.181 36.3867C119.484 35.7871 119.693 35.145 119.802 34.4824C119.914 33.8206 119.976 33.1515 119.988 32.4805C119.992 32.1699 119.992 31.8691 119.992 31.5586C120 31.1953 120 30.834 120 30.4648V9.53614C120 9.16993 120 8.80665 119.992 8.44435C119.992 8.13771 119.992 7.83009 119.988 7.52345C119.976 6.85243 119.914 6.18324 119.802 5.52145C119.693 4.85929 119.484 4.21751 119.181 3.61813C118.562 2.4152 117.581 1.43603 116.375 0.818328C115.772 0.515575 115.127 0.304248 114.461 0.191328C113.798 0.0811107 113.128 0.0220157 112.455 0.0145679C112.15 0.00968793 111.837 0.00382793 111.531 0.00187793C111.171 -0.00012207 110.804 -0.00012207 110.444 -0.00012207V7.92969e-06Z" fill="white"/>
<path d="M8.46856 39.125C8.16303 39.125 7.86487 39.1211 7.56174 39.1143C6.93376 39.1061 6.30725 39.0516 5.68735 38.9512C5.10932 38.8519 4.54937 38.6673 4.02596 38.4033C3.50735 38.1415 3.03433 37.7983 2.62504 37.3867C2.20981 36.98 1.86412 36.5082 1.60166 35.9902C1.33631 35.4688 1.15267 34.9099 1.05714 34.333C0.953972 33.7131 0.898156 33.0863 0.890169 32.458C0.883812 32.2471 0.875488 31.5449 0.875488 31.5449V8.44434C0.875488 8.44434 0.884353 7.75293 0.89022 7.5498C0.897867 6.92248 0.953358 6.29665 1.05621 5.67773C1.15192 5.09925 1.3357 4.53875 1.6012 4.01563C1.8627 3.49794 2.20647 3.02586 2.61919 2.61768C3.03145 2.20562 3.50597 1.8606 4.02547 1.59521C4.54767 1.33209 5.10657 1.14873 5.68343 1.05127C6.30537 0.949836 6.93405 0.894996 7.5642 0.88721L8.46906 0.875H111.526L112.442 0.8877C113.066 0.895099 113.689 0.94945 114.305 1.05029C114.888 1.14898 115.453 1.33362 115.981 1.59814C117.022 2.13299 117.869 2.97916 118.403 4.01807C118.664 4.53758 118.845 5.09351 118.939 5.66699C119.044 6.29099 119.102 6.92174 119.114 7.5542C119.117 7.8374 119.117 8.1416 119.117 8.44434C119.125 8.81934 119.125 9.17627 119.125 9.53613V30.4648C119.125 30.8281 119.125 31.1826 119.117 31.54C119.117 31.8652 119.117 32.1631 119.113 32.4697C119.101 33.0909 119.044 33.7104 118.941 34.3232C118.848 34.9043 118.665 35.4675 118.4 35.9932C118.136 36.5056 117.792 36.9733 117.381 37.3789C116.972 37.7927 116.498 38.1379 115.978 38.4014C115.451 38.6674 114.887 38.8527 114.305 38.9512C113.686 39.0522 113.059 39.1067 112.431 39.1143C112.137 39.1211 111.83 39.125 111.531 39.125L110.444 39.127L8.46856 39.125Z" fill="#0057FF"/>
<path d="M25.0671 19.8893C25.0783 19.0214 25.3095 18.1703 25.7392 17.4154C26.1688 16.6605 26.783 16.0262 27.5245 15.5716C27.0535 14.9007 26.432 14.3486 25.7095 13.9591C24.987 13.5696 24.1834 13.3535 23.3625 13.3279C21.6114 13.1446 19.9137 14.3728 19.0213 14.3728C18.1117 14.3728 16.7378 13.3461 15.2583 13.3764C14.3014 13.4072 13.3687 13.6847 12.5513 14.1819C11.7339 14.679 11.0595 15.3788 10.5939 16.2131C8.57716 19.6951 10.0815 24.8125 12.0134 27.6271C12.98 29.0053 14.1096 30.5448 15.5878 30.4903C17.0342 30.4304 17.5745 29.5705 19.3204 29.5705C21.0502 29.5705 21.557 30.4903 23.0652 30.4555C24.6173 30.4304 25.5952 29.0712 26.5279 27.6799C27.2224 26.6979 27.7568 25.6125 28.1113 24.464C27.2096 24.0837 26.4401 23.4471 25.8987 22.6336C25.3574 21.8201 25.0681 20.8657 25.0671 19.8893Z" fill="white"/>
<path d="M22.2186 11.4768C23.0648 10.4637 23.4818 9.1616 23.3808 7.84692C22.0879 7.98234 20.8936 8.59854 20.0359 9.57274C19.6165 10.0487 19.2953 10.6023 19.0907 11.2021C18.8861 11.8019 18.802 12.436 18.8432 13.0682C19.4899 13.0749 20.1297 12.9351 20.7143 12.6594C21.299 12.3838 21.8133 11.9794 22.2186 11.4768Z" fill="white"/>
<path d="M42.4205 27.1396H37.6739L36.5339 30.4961H34.5234L39.0194 18.0781H41.1083L45.6043 30.4961H43.5595L42.4205 27.1396ZM38.1655 25.5908H41.928L40.0732 20.1435H40.0212L38.1655 25.5908Z" fill="white"/>
<path d="M55.314 25.9697C55.314 28.7832 53.8039 30.5908 51.5251 30.5908C50.9478 30.6209 50.3737 30.4883 49.8685 30.2082C49.3633 29.928 48.9474 29.5117 48.6685 29.0068H48.6253V33.4912H46.7617V21.4423H48.5656V22.9482H48.5999C48.8916 22.4457 49.3146 22.0316 49.8236 21.7497C50.3327 21.4679 50.9088 21.3289 51.4908 21.3476C53.7951 21.3476 55.314 23.164 55.314 25.9697ZM53.3985 25.9697C53.3985 24.1367 52.4486 22.9316 50.9992 22.9316C49.5753 22.9316 48.6175 24.1621 48.6175 25.9697C48.6175 27.7939 49.5753 29.0156 50.9992 29.0156C52.4486 29.0156 53.3984 27.8193 53.3984 25.9697H53.3985Z" fill="white"/>
<path d="M65.3072 25.9697C65.3072 28.7832 63.7966 30.5908 61.5178 30.5908C60.9405 30.6209 60.3664 30.4883 59.8612 30.2082C59.356 29.928 58.9401 29.5117 58.6611 29.0068H58.618V33.4912H56.7544V21.4423H58.5583V22.9482H58.5925C58.8843 22.4457 59.3072 22.0316 59.8163 21.7497C60.3253 21.4679 60.9015 21.3289 61.4834 21.3476C63.7878 21.3476 65.3072 23.164 65.3072 25.9697ZM63.3912 25.9697C63.3912 24.1367 62.4412 22.9316 60.9919 22.9316C59.568 22.9316 58.6102 24.1621 58.6102 25.9697C58.6102 27.7939 59.568 29.0156 60.9919 29.0156C62.4412 29.0156 63.3912 27.8193 63.3912 25.9697Z" fill="white"/>
<path d="M71.9107 27.0361C72.0487 28.2676 73.2484 29.0761 74.8877 29.0761C76.4585 29.0761 77.5887 28.2675 77.5887 27.1572C77.5887 26.1933 76.9071 25.6162 75.2932 25.2207L73.6793 24.833C71.3926 24.2822 70.331 23.2158 70.331 21.4853C70.331 19.3427 72.2035 17.871 74.8613 17.871C77.4937 17.871 79.2976 19.3427 79.3583 21.4853H77.477C77.3644 20.246 76.3371 19.498 74.8358 19.498C73.3346 19.498 72.3073 20.2548 72.3073 21.3564C72.3073 22.2343 72.9634 22.7509 74.5685 23.1464L75.9405 23.4823C78.4955 24.0849 79.5561 25.1083 79.5561 26.9247C79.5561 29.248 77.7013 30.703 74.7496 30.703C71.988 30.703 70.1234 29.2821 70.0029 27.036L71.9107 27.0361Z" fill="white"/>
<path d="M83.5802 19.2998V21.4424H85.3067V22.9141H83.5802V27.9053C83.5802 28.6807 83.9259 29.042 84.6849 29.042C84.8898 29.0384 85.0945 29.0241 85.2979 28.999V30.4619C84.9567 30.5255 84.6099 30.5543 84.2628 30.5478C82.4246 30.5478 81.7078 29.8593 81.7078 28.1035V22.9141H80.3877V21.4424H81.7078V19.2998H83.5802Z" fill="white"/>
<path d="M86.3057 25.9697C86.3057 23.1211 87.9881 21.3311 90.6117 21.3311C93.244 21.3311 94.9186 23.1211 94.9186 25.9697C94.9186 28.8262 93.2528 30.6084 90.6117 30.6084C87.9714 30.6084 86.3057 28.8262 86.3057 25.9697ZM93.0198 25.9697C93.0198 24.0156 92.1217 22.8623 90.6117 22.8623C89.1016 22.8623 88.2035 24.0244 88.2035 25.9697C88.2035 27.9316 89.1016 29.0762 90.6117 29.0762C92.1217 29.0762 93.0198 27.9316 93.0198 25.9697H93.0198Z" fill="white"/>
<path d="M96.4551 21.4424H98.2325V22.9834H98.2757C98.3959 22.5021 98.6786 22.0768 99.0763 21.7789C99.474 21.481 99.9625 21.3287 100.459 21.3476C100.674 21.3469 100.888 21.3702 101.098 21.417V23.1553C100.827 23.0726 100.544 23.0347 100.261 23.043C99.9899 23.032 99.72 23.0796 99.4695 23.1825C99.2189 23.2854 98.9937 23.4411 98.8092 23.639C98.6247 23.8369 98.4853 24.0723 98.4007 24.3289C98.316 24.5856 98.288 24.8575 98.3187 25.126V30.4961H96.4551L96.4551 21.4424Z" fill="white"/>
<path d="M109.69 27.8369C109.44 29.4805 107.835 30.6084 105.781 30.6084C103.14 30.6084 101.5 28.8437 101.5 26.0127C101.5 23.1729 103.149 21.3311 105.703 21.3311C108.215 21.3311 109.794 23.0518 109.794 25.7969V26.4336H103.382V26.5459C103.352 26.8791 103.394 27.2148 103.504 27.5306C103.615 27.8464 103.792 28.1352 104.023 28.3778C104.254 28.6203 104.534 28.8111 104.844 28.9374C105.155 29.0637 105.489 29.1226 105.824 29.1103C106.265 29.1515 106.706 29.0498 107.084 28.8203C107.462 28.5909 107.755 28.246 107.921 27.8369L109.69 27.8369ZM103.391 25.1348H107.93C107.946 24.8352 107.901 24.5354 107.796 24.2541C107.691 23.9729 107.529 23.7164 107.32 23.5006C107.111 23.2849 106.859 23.1145 106.581 23.0003C106.302 22.8861 106.004 22.8305 105.703 22.8369C105.399 22.8351 105.098 22.8933 104.818 23.008C104.537 23.1227 104.281 23.2918 104.066 23.5054C103.852 23.7191 103.681 23.973 103.565 24.2527C103.449 24.5323 103.39 24.8321 103.391 25.1348V25.1348Z" fill="white"/>
<path d="M37.9323 8.73101C38.323 8.70305 38.7151 8.76191 39.0802 8.90335C39.4453 9.04478 39.7745 9.26526 40.0438 9.54889C40.3131 9.83251 40.516 10.1722 40.6377 10.5435C40.7595 10.9148 40.7971 11.3083 40.7478 11.6959C40.7478 13.6021 39.7147 14.6979 37.9323 14.6979H35.771V8.73101H37.9323ZM36.7003 13.854H37.8285C38.1077 13.8707 38.3871 13.825 38.6463 13.7204C38.9056 13.6158 39.1382 13.4548 39.3272 13.2493C39.5163 13.0437 39.6569 12.7987 39.739 12.5321C39.8211 12.2655 39.8426 11.9839 39.8018 11.708C39.8396 11.4332 39.816 11.1534 39.7326 10.8887C39.6493 10.6241 39.5083 10.3811 39.3197 10.1771C39.1311 9.97322 38.8996 9.81341 38.6418 9.70917C38.384 9.60494 38.1063 9.55885 37.8285 9.57422H36.7003V13.854Z" fill="white"/>
<path d="M41.7977 12.4443C41.7693 12.1484 41.8032 11.8499 41.8973 11.5678C41.9914 11.2857 42.1436 11.0264 42.3441 10.8064C42.5446 10.5864 42.789 10.4107 43.0616 10.2904C43.3343 10.1701 43.6291 10.108 43.9272 10.108C44.2253 10.108 44.5201 10.1701 44.7927 10.2904C45.0653 10.4107 45.3097 10.5864 45.5102 10.8064C45.7107 11.0264 45.8629 11.2857 45.957 11.5678C46.0511 11.8499 46.0851 12.1484 46.0567 12.4443C46.0856 12.7406 46.0521 13.0396 45.9582 13.3221C45.8643 13.6046 45.7122 13.8644 45.5117 14.0848C45.3111 14.3052 45.0666 14.4814 44.7937 14.6019C44.5208 14.7225 44.2256 14.7847 43.9272 14.7847C43.6287 14.7847 43.3336 14.7225 43.0607 14.6019C42.7878 14.4814 42.5432 14.3052 42.3426 14.0848C42.1421 13.8644 41.99 13.6046 41.8961 13.3221C41.8023 13.0396 41.7687 12.7406 41.7977 12.4443ZM45.14 12.4443C45.14 11.4683 44.7003 10.8975 43.9286 10.8975C43.154 10.8975 42.7182 11.4683 42.7182 12.4444C42.7182 13.4282 43.154 13.9946 43.9286 13.9946C44.7003 13.9946 45.14 13.4243 45.14 12.4443H45.14Z" fill="white"/>
<path d="M51.7181 14.6978H50.7937L49.8604 11.3813H49.7899L48.8605 14.6978H47.9449L46.7002 10.1948H47.6041L48.413 13.6308H48.4796L49.408 10.1948H50.2629L51.1913 13.6308H51.2618L52.0668 10.1948H52.9579L51.7181 14.6978Z" fill="white"/>
<path d="M54.0049 10.1948H54.8628V10.9101H54.9293C55.0423 10.6532 55.2329 10.4378 55.4744 10.294C55.716 10.1502 55.9965 10.0852 56.2769 10.1079C56.4966 10.0914 56.7172 10.1244 56.9224 10.2045C57.1275 10.2846 57.312 10.4097 57.4621 10.5706C57.6122 10.7314 57.7241 10.9239 57.7895 11.1337C57.8549 11.3435 57.8721 11.5653 57.8398 11.7827V14.6977H56.9487V12.0058C56.9487 11.2822 56.6333 10.9223 55.9743 10.9223C55.8251 10.9154 55.6762 10.9407 55.5377 10.9966C55.3993 11.0524 55.2746 11.1374 55.1722 11.2458C55.0698 11.3542 54.9921 11.4834 54.9444 11.6245C54.8967 11.7656 54.8802 11.9154 54.896 12.0635V14.6977H54.0049L54.0049 10.1948Z" fill="white"/>
<path d="M59.2598 8.43701H60.1509V14.6978H59.2598V8.43701Z" fill="white"/>
<path d="M61.3894 12.4444C61.3611 12.1484 61.395 11.8499 61.4892 11.5678C61.5833 11.2857 61.7355 11.0263 61.936 10.8064C62.1366 10.5864 62.381 10.4106 62.6536 10.2903C62.9262 10.17 63.2211 10.1079 63.5192 10.1079C63.8173 10.1079 64.1121 10.17 64.3848 10.2903C64.6574 10.4106 64.9018 10.5864 65.1023 10.8064C65.3029 11.0263 65.4551 11.2857 65.5492 11.5678C65.6433 11.8499 65.6773 12.1484 65.6489 12.4444C65.6778 12.7406 65.6442 13.0396 65.5504 13.3221C65.4565 13.6046 65.3044 13.8645 65.1038 14.0849C64.9032 14.3053 64.6586 14.4814 64.3857 14.6019C64.1128 14.7225 63.8177 14.7847 63.5192 14.7847C63.2207 14.7847 62.9255 14.7225 62.6527 14.6019C62.3798 14.4814 62.1352 14.3053 61.9346 14.0849C61.734 13.8645 61.5819 13.6046 61.488 13.3221C61.3941 13.0396 61.3606 12.7406 61.3894 12.4444ZM64.7318 12.4444C64.7318 11.4683 64.2921 10.8975 63.5204 10.8975C62.7458 10.8975 62.31 11.4683 62.31 12.4444C62.31 13.4283 62.7458 13.9947 63.5204 13.9947C64.2921 13.9947 64.7318 13.4244 64.7318 12.4444H64.7318Z" fill="white"/>
<path d="M66.5874 13.4243C66.5874 12.6138 67.1926 12.1465 68.2669 12.0801L69.4901 12.0098V11.6211C69.4901 11.1455 69.1747 10.877 68.5656 10.877C68.0681 10.877 67.7234 11.0591 67.6245 11.3774H66.7617C66.8528 10.604 67.5824 10.1079 68.6067 10.1079C69.7388 10.1079 70.3773 10.6699 70.3773 11.6211V14.6977H69.5194V14.0649H69.4489C69.3058 14.2919 69.1048 14.477 68.8666 14.6012C68.6283 14.7254 68.3612 14.7843 68.0926 14.7719C67.903 14.7916 67.7114 14.7714 67.5302 14.7127C67.3489 14.654 67.182 14.5581 67.0402 14.4311C66.8983 14.3042 66.7848 14.149 66.7068 13.9756C66.6288 13.8021 66.5881 13.6144 66.5874 13.4243ZM69.4901 13.0395V12.6631L68.3874 12.7334C67.7655 12.7749 67.4835 12.9858 67.4835 13.3828C67.4835 13.7881 67.836 14.0239 68.3208 14.0239C68.4628 14.0382 68.6063 14.0239 68.7427 13.9819C68.8791 13.9398 69.0056 13.8707 69.1147 13.7789C69.2238 13.6871 69.3132 13.5743 69.3777 13.4473C69.4422 13.3202 69.4804 13.1816 69.4901 13.0395Z" fill="white"/>
<path d="M71.5483 12.4444C71.5483 11.0215 72.2818 10.1201 73.4227 10.1201C73.7049 10.1072 73.985 10.1746 74.2302 10.3145C74.4754 10.4544 74.6756 10.661 74.8075 10.9101H74.8741V8.43701H75.7652V14.6978H74.9113V13.9863H74.8408C74.6988 14.2338 74.4916 14.4378 74.2416 14.5763C73.9917 14.7148 73.7085 14.7825 73.4227 14.772C72.274 14.772 71.5483 13.8706 71.5483 12.4444ZM72.4689 12.4444C72.4689 13.3994 72.9204 13.9741 73.6754 13.9741C74.4265 13.9741 74.8907 13.3911 74.8907 12.4483C74.8907 11.5098 74.4217 10.9185 73.6754 10.9185C72.9252 10.9185 72.4689 11.4971 72.4689 12.4444H72.4689Z" fill="white"/>
<path d="M79.4525 12.4443C79.4241 12.1484 79.458 11.8499 79.5521 11.5678C79.6462 11.2857 79.7984 11.0264 79.9989 10.8064C80.1994 10.5864 80.4438 10.4107 80.7164 10.2904C80.989 10.1701 81.2838 10.108 81.582 10.108C81.8801 10.108 82.1749 10.1701 82.4475 10.2904C82.7201 10.4107 82.9645 10.5864 83.165 10.8064C83.3655 11.0264 83.5177 11.2857 83.6118 11.5678C83.7059 11.8499 83.7398 12.1484 83.7114 12.4443C83.7404 12.7406 83.7068 13.0396 83.613 13.3221C83.5191 13.6046 83.367 13.8644 83.1665 14.0848C82.9659 14.3052 82.7213 14.4814 82.4485 14.6019C82.1756 14.7225 81.8804 14.7847 81.582 14.7847C81.2835 14.7847 80.9883 14.7225 80.7154 14.6019C80.4426 14.4814 80.198 14.3052 79.9974 14.0848C79.7969 13.8644 79.6448 13.6046 79.5509 13.3221C79.4571 13.0396 79.4235 12.7406 79.4525 12.4443ZM82.7948 12.4443C82.7948 11.4683 82.3551 10.8975 81.5834 10.8975C80.8088 10.8975 80.373 11.4683 80.373 12.4444C80.373 13.4282 80.8088 13.9946 81.5834 13.9946C82.3551 13.9946 82.7948 13.4243 82.7948 12.4443Z" fill="white"/>
<path d="M84.9072 10.1948H85.7651V10.9101H85.8317C85.9447 10.6532 86.1352 10.4378 86.3768 10.294C86.6183 10.1502 86.8988 10.0852 87.1792 10.1079C87.3989 10.0914 87.6196 10.1244 87.8247 10.2045C88.0299 10.2846 88.2144 10.4097 88.3645 10.5706C88.5146 10.7314 88.6265 10.9239 88.6919 11.1337C88.7572 11.3435 88.7744 11.5653 88.7422 11.7827V14.6977H87.851V12.0058C87.851 11.2822 87.5357 10.9223 86.8766 10.9223C86.7274 10.9154 86.5785 10.9407 86.4401 10.9966C86.3016 11.0524 86.1769 11.1374 86.0745 11.2458C85.9721 11.3542 85.8944 11.4834 85.8467 11.6245C85.7991 11.7656 85.7826 11.9154 85.7984 12.0635V14.6977H84.9072V10.1948Z" fill="white"/>
<path d="M93.7775 9.07373V10.2153H94.7558V10.9639H93.7775V13.2793C93.7775 13.751 93.9723 13.9575 94.416 13.9575C94.5295 13.9572 94.643 13.9503 94.7558 13.937V14.6772C94.5958 14.7058 94.4336 14.721 94.271 14.7226C93.28 14.7226 92.8853 14.375 92.8853 13.5068V10.9638H92.1685V10.2153H92.8853V9.07373H93.7775Z" fill="white"/>
<path d="M95.9731 8.43701H96.8565V10.9185H96.927C97.0454 10.6591 97.2412 10.4425 97.4876 10.2982C97.734 10.1539 98.019 10.0888 98.3038 10.1118C98.5224 10.1 98.7409 10.1364 98.9438 10.2184C99.1466 10.3004 99.3288 10.4261 99.4773 10.5864C99.6259 10.7468 99.7371 10.9378 99.803 11.146C99.869 11.3541 99.8881 11.5742 99.859 11.7905V14.6978H98.9669V12.0098C98.9669 11.2905 98.631 10.9263 98.0013 10.9263C97.8481 10.9137 97.6941 10.9347 97.5499 10.9878C97.4057 11.0408 97.2749 11.1247 97.1666 11.2334C97.0583 11.3421 96.9752 11.4732 96.9229 11.6173C96.8707 11.7614 96.8507 11.9152 96.8643 12.0679V14.6977H95.9732L95.9731 8.43701Z" fill="white"/>
<path d="M105.055 13.4819C104.934 13.8935 104.672 14.2495 104.314 14.4876C103.957 14.7258 103.526 14.8309 103.099 14.7847C102.801 14.7925 102.506 14.7357 102.232 14.6182C101.959 14.5006 101.715 14.3252 101.516 14.1041C101.318 13.8829 101.17 13.6214 101.083 13.3376C100.996 13.0537 100.972 12.7544 101.013 12.4605C100.973 12.1656 100.998 11.8656 101.084 11.581C101.171 11.2963 101.318 11.0335 101.516 10.8105C101.713 10.5874 101.956 10.4092 102.229 10.288C102.501 10.1668 102.797 10.1054 103.095 10.1079C104.351 10.1079 105.109 10.9639 105.109 12.3779V12.688H101.921V12.7378C101.907 12.9031 101.928 13.0694 101.982 13.2261C102.036 13.3829 102.123 13.5266 102.236 13.6481C102.349 13.7695 102.487 13.866 102.639 13.9314C102.792 13.9968 102.957 14.0297 103.123 14.0278C103.336 14.0533 103.552 14.0151 103.744 13.9178C103.935 13.8206 104.093 13.6689 104.198 13.4819L105.055 13.4819ZM101.921 12.0308H104.201C104.213 11.8796 104.192 11.7278 104.141 11.5851C104.09 11.4424 104.009 11.3119 103.905 11.2021C103.8 11.0922 103.674 11.0054 103.533 10.9472C103.393 10.8891 103.242 10.8608 103.09 10.8643C102.936 10.8623 102.783 10.8912 102.64 10.9491C102.497 11.0071 102.368 11.0929 102.259 11.2017C102.15 11.3104 102.064 11.4397 102.006 11.5821C101.948 11.7245 101.919 11.8771 101.921 12.0308H101.921Z" fill="white"/>
</svg>
