<svg width="121" height="39" viewBox="0 0 121 39" fill="none" xmlns="http://www.w3.org/2000/svg">
<rect x="0.375" y="0.375" width="120.25" height="37.97" rx="4.625" fill="white"/>
<path fill-rule="evenodd" clip-rule="evenodd" d="M9.26404 18.9728V8.80882C9.26404 8.22802 9.73669 7.74402 10.2094 7.74402C10.682 7.74402 10.8711 7.84082 11.1547 8.03442L29.3992 18.2952C29.7773 18.4888 29.9664 18.7792 29.9664 19.0696C29.9664 19.36 29.7773 19.6504 29.3992 19.844L11.1547 30.1048C10.9656 30.2016 10.682 30.3952 10.2094 30.3952C9.73669 30.3952 9.26404 29.9112 9.26404 29.3304V18.9728Z" fill="#2C3952"/>
<path fill-rule="evenodd" clip-rule="evenodd" d="M21.0804 19.0696L10.0203 7.74402C10.1148 7.74402 10.1148 7.74402 10.2093 7.74402C10.682 7.74402 10.871 7.84082 11.1546 8.03442L24.5781 15.5848L21.0804 19.0696Z" fill="white" fill-opacity="0.5"/>
<path fill-rule="evenodd" clip-rule="evenodd" d="M24.4836 22.4576L21.0804 18.9728L24.5781 15.3912L29.3992 18.1016C29.7773 18.2952 29.9664 18.5856 29.9664 18.876C29.9664 19.1664 29.7773 19.4568 29.3992 19.6504L24.4836 22.4576Z" fill="url(#paint0_linear)"/>
<path fill-rule="evenodd" clip-rule="evenodd" d="M24.4836 22.4576L21.0804 18.9728L24.5781 15.3912L29.3992 18.1016C29.7773 18.2952 29.9664 18.5856 29.9664 18.876C29.9664 19.1664 29.7773 19.4568 29.3992 19.6504L24.4836 22.4576Z" fill="#2C3952"/>
<path opacity="0.2" fill-rule="evenodd" clip-rule="evenodd" d="M10.1149 30.2016L21.0805 18.9728L24.4836 22.4576L11.1547 29.9112C10.8711 30.1048 10.6821 30.2016 10.1149 30.2016C10.2094 30.2016 10.2094 30.2016 10.1149 30.2016Z" fill="#2C3952"/>
<path fill-rule="evenodd" clip-rule="evenodd" d="M67.2118 32.8152C66.7391 32.428 66.361 31.7504 66.1719 31.3632L67.6844 30.6856C67.779 30.8792 67.968 31.1696 68.1571 31.46C68.5352 31.8472 69.1024 32.2344 69.6696 32.2344C70.2368 32.2344 70.8985 31.944 71.2766 31.46C71.5602 30.976 71.7493 30.492 71.7493 29.8144V29.2336C70.6149 30.6856 68.2516 30.492 66.9282 28.9432C65.5102 27.3944 65.5102 24.7808 66.9282 23.232C68.3461 21.78 70.4258 21.5864 71.6547 22.9416V22.264H73.2618V29.524C73.2618 31.3632 72.6 32.428 71.7493 33.1056C71.1821 33.5896 70.3313 33.7832 69.5751 33.7832C68.7243 33.6864 67.8735 33.396 67.2118 32.8152ZM106.82 33.2024L108.427 29.3304L105.591 22.6512H107.198L109.184 27.3944L111.169 22.6512H112.776L108.427 33.2024H106.82ZM99.1633 29.524C98.6907 29.04 98.5016 28.3624 98.5016 27.6848C98.5016 27.104 98.6907 26.5232 99.0688 26.136C99.7305 25.4584 100.676 25.168 101.716 25.168C102.377 25.168 102.945 25.2648 103.417 25.5552C103.417 24.3936 102.472 23.9096 101.716 23.9096C101.054 23.9096 100.392 24.2968 100.109 24.9744L98.6907 24.3936C98.9743 23.716 99.7305 22.4576 101.621 22.4576C102.566 22.4576 103.512 22.748 104.079 23.4256C104.646 24.1032 104.835 24.8776 104.835 25.9424V30.008H103.228V29.3304C103.039 29.6208 102.661 29.8144 102.377 30.008C101.999 30.2016 101.527 30.2984 101.054 30.2984C100.487 30.2016 99.636 30.008 99.1633 29.524ZM48.7782 26.0392C48.7782 24.1032 50.1961 21.9736 52.7485 21.9736C55.2063 21.9736 56.7188 24.1032 56.7188 26.0392C56.7188 27.9752 55.3008 30.1048 52.7485 30.1048C50.1961 30.1048 48.7782 27.9752 48.7782 26.0392ZM57.286 26.0392C57.286 24.1032 58.704 21.9736 61.2563 21.9736C63.7141 21.9736 65.2266 24.1032 65.2266 26.0392C65.2266 27.9752 63.8086 30.1048 61.2563 30.1048C58.7985 30.1048 57.286 27.9752 57.286 26.0392ZM38.0961 28.1688C35.7329 25.7488 35.8274 21.78 38.1907 19.2632C39.4196 18.0048 40.9321 17.424 42.5391 17.424C44.0516 17.424 45.5641 18.0048 46.6985 19.1664L45.5641 20.4248C43.8625 18.6824 41.1211 18.7792 39.5141 20.5216C37.8126 22.3608 37.8126 25.168 39.5141 27.0072C41.2157 28.8464 44.0516 28.9432 45.7532 27.104C46.3204 26.5232 46.5094 25.7488 46.604 24.9744H42.6337V23.232H48.211C48.3055 23.6192 48.3055 24.1032 48.3055 24.5872C48.3055 26.0392 47.7383 27.4912 46.793 28.4592C45.7532 29.524 44.2407 30.1048 42.7282 30.1048C41.0266 30.008 39.3251 29.4272 38.0961 28.1688ZM78.0829 28.8464C76.6649 27.2976 76.6649 24.684 78.0829 23.0384C79.5008 21.4896 81.8641 21.4896 83.1876 23.0384C83.6602 23.5224 83.9438 24.2 84.2274 24.8776L79.0282 27.104C79.3118 27.7816 79.9735 28.3624 80.9188 28.3624C81.7696 28.3624 82.3368 28.072 82.904 27.2008L84.3219 28.1688C84.1329 28.3624 83.9438 28.556 83.8493 28.7496C82.2423 30.3952 79.5008 30.3952 78.0829 28.8464ZM87.9141 30.008V19.2632H91.3172C93.3024 19.2632 94.9094 20.7152 94.9094 22.4576C94.9094 24.2 93.4915 25.652 91.6954 25.652H89.6157V29.9112H87.9141V30.008ZM95.8547 30.008V19.2632H97.4618V30.008H95.8547ZM74.4907 29.8144V17.8112H76.1922V29.8144H74.4907ZM103.323 26.8136C102.945 26.5232 102.377 26.4264 101.81 26.4264C100.676 26.4264 100.014 27.0072 100.014 27.6848C100.014 28.3624 100.676 28.7496 101.338 28.7496C102.283 28.7496 103.323 27.9752 103.323 26.8136ZM54.9227 26.0392C54.9227 24.8776 54.1665 23.6192 52.7485 23.6192C51.3305 23.6192 50.5743 24.8776 50.5743 26.0392C50.5743 27.2008 51.3305 28.4592 52.7485 28.4592C54.0719 28.4592 54.9227 27.2008 54.9227 26.0392ZM63.4305 26.0392C63.4305 24.8776 62.6743 23.6192 61.2563 23.6192C59.8383 23.6192 59.0821 24.8776 59.0821 26.0392C59.0821 27.2008 59.8383 28.4592 61.2563 28.4592C62.6743 28.4592 63.4305 27.2008 63.4305 26.0392ZM71.8438 26.7168C71.8438 26.62 71.8438 26.5232 71.9383 26.4264C71.9383 26.3296 71.9383 26.136 71.9383 26.0392C71.9383 25.9424 71.9383 25.7488 71.9383 25.652V25.5552C71.9383 25.4584 71.8438 25.2648 71.8438 25.168C71.5602 24.2 70.7094 23.5224 69.8586 23.5224C68.7243 23.5224 67.779 24.684 67.779 25.9424C67.779 27.2976 68.7243 28.3624 69.9532 28.3624C70.7094 28.4592 71.4657 27.7816 71.8438 26.7168ZM78.7446 25.8456L82.2422 24.2968C81.8641 23.6192 81.2969 23.4256 80.8243 23.4256C79.4063 23.5224 78.5555 25.0712 78.7446 25.8456ZM93.2079 22.5544C93.2079 21.5864 92.4516 20.9088 91.4118 20.9088H89.5212V24.2968H91.5063C92.4516 24.2968 93.2079 23.5224 93.2079 22.5544Z" fill="#2C3952"/>
<path fill-rule="evenodd" clip-rule="evenodd" d="M108.048 31.2656H107.955V31.1696H108.048H107.955V31.2656H108.048Z" fill="#2C3952"/>
<path fill-rule="evenodd" clip-rule="evenodd" d="M108.238 31.2656C108.238 31.1696 108.238 31.1696 108.238 31.2656C108.144 31.1696 108.144 31.1696 108.238 31.2656C108.144 31.2656 108.144 31.2656 108.238 31.2656ZM108.238 31.1696C108.238 31.2656 108.238 31.2656 108.238 31.1696C108.238 31.2656 108.144 31.2656 108.238 31.1696C108.238 31.1696 108.144 31.1696 108.238 31.1696Z" fill="#2C3952"/>
<path fill-rule="evenodd" clip-rule="evenodd" d="M108.332 31.1696H108.238H108.332V31.2656V31.1696Z" fill="#2C3952"/>
<path d="M36.7727 9.7768C36.7727 8.0344 38.0016 6.9696 39.5141 6.9696C40.554 6.9696 41.2157 7.4536 41.6883 8.1312L40.9321 8.6152C40.6485 8.228 40.1758 7.9376 39.5141 7.9376C38.4743 7.9376 37.718 8.712 37.718 9.8736C37.718 11.0352 38.4743 11.8096 39.5141 11.8096C40.0813 11.8096 40.554 11.5192 40.743 11.3256V10.4544H39.2305V9.5832H41.7829V11.616C41.3102 12.1968 40.554 12.584 39.6086 12.584C38.0016 12.584 36.7727 11.4224 36.7727 9.7768Z" fill="#2C3952"/>
<path d="M42.9172 12.4872V7.06641H46.5094V7.93761H43.768V9.29281H46.4149V10.164H43.768V11.7128H46.5094V12.584L42.9172 12.4872Z" fill="#2C3952"/>
<path d="M49.1563 12.4872V7.93761H47.5493V7.06641H51.7087V7.93761H50.1017V12.4872H49.1563Z" fill="#2C3952"/>
<path d="M54.9227 12.4872V7.06641H55.868V12.4872H54.9227Z" fill="#2C3952"/>
<path d="M58.4204 12.4872V7.93761H56.8134V7.06641H60.9727V7.93761H59.3657V12.4872H58.4204Z" fill="#2C3952"/>
<path d="M63.9977 9.7768C63.9977 8.1312 65.1321 6.9696 66.7391 6.9696C68.3461 6.9696 69.4805 8.1312 69.4805 9.7768C69.4805 11.4224 68.3461 12.584 66.7391 12.584C65.1321 12.584 63.9977 11.3256 63.9977 9.7768ZM68.4406 9.7768C68.4406 8.6152 67.7789 7.8408 66.6446 7.8408C65.6047 7.8408 64.8485 8.712 64.8485 9.7768C64.8485 10.9384 65.5102 11.7128 66.6446 11.7128C67.7789 11.7128 68.4406 10.8416 68.4406 9.7768Z" fill="#2C3952"/>
<path d="M74.2071 12.4872L71.4657 8.61521V12.4872H70.5204V7.06641H71.4657L74.2071 10.8416V7.06641H75.1524V12.4872H74.2071Z" fill="#2C3952"/>
<rect x="0.375" y="0.375" width="120.25" height="37.97" rx="4.625" stroke="#2C3952" stroke-width="0.75"/>
<defs>
<linearGradient id="paint0_linear" x1="25.5181" y1="22.8643" x2="25.5181" y2="15.1702" gradientUnits="userSpaceOnUse">
<stop stop-color="#FCC072"/>
<stop offset="1" stop-color="#F58A5B"/>
</linearGradient>
</defs>
</svg>
