<svg width="1385" height="738" viewBox="0 0 1385 738" fill="none" xmlns="http://www.w3.org/2000/svg">
<g clip-path="url(#clip0)">
<g opacity="0.15">
<path d="M82 649.773H91.61V654.573H86.81V659.363H82V649.773Z" fill="#0057FF"/>
<path d="M107.36 649.773H116.97V654.573H112.16V659.363H107.36V649.773Z" fill="#0057FF"/>
<path d="M132.71 649.773H142.32V654.573H137.52V659.363H132.71V649.773Z" fill="#0057FF"/>
<path d="M82 675.874H91.61V680.665H86.81V685.465H82V675.874Z" fill="#0057FF"/>
<path d="M107.36 675.874H116.97V680.665H112.16V685.465H107.36V675.874Z" fill="#0057FF"/>
<path d="M132.71 675.874H142.32V680.665H137.52V685.465H132.71V675.874Z" fill="#0057FF"/>
<path d="M82 701.966H91.61V706.766H86.81V711.556H82V701.966Z" fill="#0057FF"/>
<path d="M107.36 701.966H116.97V706.766H112.16V711.556H107.36V701.966Z" fill="#0057FF"/>
<path d="M132.71 701.966H142.32V706.766H137.52V711.556H132.71V701.966Z" fill="#0057FF"/>
<path d="M82 728.066H91.61V732.857H86.81V737.657H82V728.066Z" fill="#0057FF"/>
<path d="M107.36 728.066H116.97V732.857H112.16V737.657H107.36V728.066Z" fill="#0057FF"/>
<path d="M132.71 728.066H142.32V732.857H137.52V737.657H132.71V728.066Z" fill="#0057FF"/>
</g>
<g opacity="0.15">
<path d="M6 650H15.61V654.8H10.81V659.59H6V650Z" fill="#0057FF"/>
<path d="M31.36 650H40.97V654.8H36.16V659.59H31.36V650Z" fill="#0057FF"/>
<path d="M56.71 650H66.32V654.8H61.52V659.59H56.71V650Z" fill="#0057FF"/>
<path d="M6 676.101H15.61V680.891H10.81V685.692H6V676.101Z" fill="#0057FF"/>
<path d="M31.36 676.101H40.97V680.891H36.16V685.692H31.36V676.101Z" fill="#0057FF"/>
<path d="M56.71 676.101H66.32V680.891H61.52V685.692H56.71V676.101Z" fill="#0057FF"/>
<path d="M6 702.192H15.61V706.993H10.81V711.783H6V702.192Z" fill="#0057FF"/>
<path d="M31.36 702.192H40.97V706.993H36.16V711.783H31.36V702.192Z" fill="#0057FF"/>
<path d="M56.71 702.192H66.32V706.993H61.52V711.783H56.71V702.192Z" fill="#0057FF"/>
<path d="M6 728.293H15.61V733.083H10.81V737.884H6V728.293Z" fill="#0057FF"/>
<path d="M31.36 728.293H40.97V733.083H36.16V737.884H31.36V728.293Z" fill="#0057FF"/>
<path d="M56.71 728.293H66.32V733.083H61.52V737.884H56.71V728.293Z" fill="#0057FF"/>
</g>
</g>
<g clip-path="url(#clip1)">
<g opacity="0.15">
<path d="M726 139.773H735.61V144.573H730.81V149.363H726V139.773Z" fill="#0057FF"/>
<path d="M751.36 139.773H760.97V144.573H756.16V149.363H751.36V139.773Z" fill="#0057FF"/>
<path d="M776.71 139.773H786.32V144.573H781.52V149.363H776.71V139.773Z" fill="#0057FF"/>
<path d="M726 165.874H735.61V170.665H730.81V175.465H726V165.874Z" fill="#0057FF"/>
<path d="M751.36 165.874H760.97V170.665H756.16V175.465H751.36V165.874Z" fill="#0057FF"/>
<path d="M776.71 165.874H786.32V170.665H781.52V175.465H776.71V165.874Z" fill="#0057FF"/>
<path d="M726 191.966H735.61V196.766H730.81V201.556H726V191.966Z" fill="#0057FF"/>
<path d="M751.36 191.966H760.97V196.766H756.16V201.556H751.36V191.966Z" fill="#0057FF"/>
<path d="M776.71 191.966H786.32V196.766H781.52V201.556H776.71V191.966Z" fill="#0057FF"/>
<path d="M726 218.066H735.61V222.857H730.81V227.657H726V218.066Z" fill="#0057FF"/>
<path d="M751.36 218.066H760.97V222.857H756.16V227.657H751.36V218.066Z" fill="#0057FF"/>
<path d="M776.71 218.066H786.32V222.857H781.52V227.657H776.71V218.066Z" fill="#0057FF"/>
</g>
<g opacity="0.15">
<path d="M650 140H659.61V144.8H654.81V149.59H650V140Z" fill="#0057FF"/>
<path d="M675.36 140H684.97V144.8H680.16V149.59H675.36V140Z" fill="#0057FF"/>
<path d="M700.71 140H710.32V144.8H705.52V149.59H700.71V140Z" fill="#0057FF"/>
<path d="M650 166.101H659.61V170.891H654.81V175.692H650V166.101Z" fill="#0057FF"/>
<path d="M675.36 166.101H684.97V170.891H680.16V175.692H675.36V166.101Z" fill="#0057FF"/>
<path d="M700.71 166.101H710.32V170.891H705.52V175.692H700.71V166.101Z" fill="#0057FF"/>
<path d="M650 192.192H659.61V196.993H654.81V201.783H650V192.192Z" fill="#0057FF"/>
<path d="M675.36 192.192H684.97V196.993H680.16V201.783H675.36V192.192Z" fill="#0057FF"/>
<path d="M700.71 192.192H710.32V196.993H705.52V201.783H700.71V192.192Z" fill="#0057FF"/>
<path d="M650 218.293H659.61V223.083H654.81V227.884H650V218.293Z" fill="#0057FF"/>
<path d="M675.36 218.293H684.97V223.083H680.16V227.884H675.36V218.293Z" fill="#0057FF"/>
<path d="M700.71 218.293H710.32V223.083H705.52V227.884H700.71V218.293Z" fill="#0057FF"/>
</g>
</g>
<g opacity="0.15">
<path d="M4.77319 61.3201L4.77319 51.7101H9.57329V56.5101H14.3634V61.3201H4.77319Z" fill="#0057FF"/>
<path d="M4.77319 35.9601L4.77319 26.3501H9.57329V31.1601H14.3634V35.9601H4.77319Z" fill="#0057FF"/>
<path d="M4.77319 10.6101L4.77319 1.0001H9.57329V5.8001L14.3634 5.8001V10.6101H4.77319Z" fill="#0057FF"/>
<path d="M30.8744 61.3201V51.7101H35.6646V56.5101H40.4647V61.3201H30.8744Z" fill="#0057FF"/>
<path d="M30.8744 35.9601V26.3501H35.6646V31.1601H40.4647V35.9601H30.8744Z" fill="#0057FF"/>
<path d="M30.8744 10.6101V1.0001H35.6646V5.8001L40.4647 5.8001V10.6101H30.8744Z" fill="#0057FF"/>
<path d="M56.9656 61.3201V51.7101H61.7657V56.5101H66.5559V61.3201H56.9656Z" fill="#0057FF"/>
<path d="M56.9656 35.9601V26.3501H61.7657V31.1601H66.5559V35.9601H56.9656Z" fill="#0057FF"/>
<path d="M56.9656 10.6101V1.0001H61.7657V5.8001L66.5559 5.8001V10.6101H56.9656Z" fill="#0057FF"/>
<path d="M83.0664 61.3201V51.7101H87.8566V56.5101H92.6567V61.3201H83.0664Z" fill="#0057FF"/>
<path d="M83.0664 35.9601V26.3501H87.8566V31.1601H92.6567V35.9601H83.0664Z" fill="#0057FF"/>
<path d="M83.0664 10.6101V1.0001H87.8566V5.8001L92.6567 5.8001V10.6101H83.0664Z" fill="#0057FF"/>
</g>
<g opacity="0.15">
<path d="M5 137.32L5 127.71H9.80009V132.51H14.5902V137.32H5Z" fill="#0057FF"/>
<path d="M5 111.96L5 102.35H9.80009V107.16H14.5902V111.96H5Z" fill="#0057FF"/>
<path d="M5 86.6101L5 77.0001H9.80009V81.8001H14.5902V86.6101H5Z" fill="#0057FF"/>
<path d="M31.1012 137.32V127.71H35.8914V132.51H40.6915V137.32H31.1012Z" fill="#0057FF"/>
<path d="M31.1012 111.96V102.35H35.8914V107.16H40.6915V111.96H31.1012Z" fill="#0057FF"/>
<path d="M31.1012 86.6101V77.0001H35.8914V81.8001H40.6915V86.6101H31.1012Z" fill="#0057FF"/>
<path d="M57.1924 137.32V127.71H61.9925V132.51H66.7827V137.32H57.1924Z" fill="#0057FF"/>
<path d="M57.1924 111.96V102.35H61.9925V107.16H66.7827V111.96H57.1924Z" fill="#0057FF"/>
<path d="M57.1924 86.6101V77.0001H61.9925V81.8001H66.7827V86.6101H57.1924Z" fill="#0057FF"/>
<path d="M83.2932 137.32V127.71H88.0834V132.51H92.8835V137.32H83.2932Z" fill="#0057FF"/>
<path d="M83.2932 111.96V102.35H88.0834V107.16H92.8835V111.96H83.2932Z" fill="#0057FF"/>
<path d="M83.2932 86.6101V77.0001H88.0834V81.8001H92.8835V86.6101H83.2932Z" fill="#0057FF"/>
</g>
<g clip-path="url(#clip2)">
<g opacity="0.15">
<path d="M1296.77 426.32V416.71H1301.57V421.51H1306.36V426.32H1296.77Z" fill="#0057FF"/>
<path d="M1296.77 400.96V391.35H1301.57V396.16H1306.36V400.96H1296.77Z" fill="#0057FF"/>
<path d="M1296.77 375.61V366H1301.57V370.8H1306.36V375.61H1296.77Z" fill="#0057FF"/>
<path d="M1322.87 426.32V416.71H1327.66V421.51H1332.46V426.32H1322.87Z" fill="#0057FF"/>
<path d="M1322.87 400.96V391.35H1327.66V396.16H1332.46V400.96H1322.87Z" fill="#0057FF"/>
<path d="M1322.87 375.61V366H1327.66V370.8H1332.46V375.61H1322.87Z" fill="#0057FF"/>
<path d="M1348.97 426.32V416.71H1353.77V421.51H1358.56V426.32H1348.97Z" fill="#0057FF"/>
<path d="M1348.97 400.96V391.35H1353.77V396.16H1358.56V400.96H1348.97Z" fill="#0057FF"/>
<path d="M1348.97 375.61V366H1353.77V370.8H1358.56V375.61H1348.97Z" fill="#0057FF"/>
<path d="M1375.07 426.32V416.71H1379.86V421.51H1384.66V426.32H1375.07Z" fill="#0057FF"/>
<path d="M1375.07 400.96V391.35H1379.86V396.16H1384.66V400.96H1375.07Z" fill="#0057FF"/>
<path d="M1375.07 375.61V366H1379.86V370.8H1384.66V375.61H1375.07Z" fill="#0057FF"/>
</g>
<g opacity="0.15">
<path d="M1297 502.32V492.71H1301.8V497.51H1306.59V502.32H1297Z" fill="#0057FF"/>
<path d="M1297 476.96V467.35H1301.8V472.16H1306.59V476.96H1297Z" fill="#0057FF"/>
<path d="M1297 451.61V442H1301.8V446.8H1306.59V451.61H1297Z" fill="#0057FF"/>
<path d="M1323.1 502.32V492.71H1327.89V497.51H1332.69V502.32H1323.1Z" fill="#0057FF"/>
<path d="M1323.1 476.96V467.35H1327.89V472.16H1332.69V476.96H1323.1Z" fill="#0057FF"/>
<path d="M1323.1 451.61V442H1327.89V446.8H1332.69V451.61H1323.1Z" fill="#0057FF"/>
<path d="M1349.19 502.32V492.71H1353.99V497.51H1358.78V502.32H1349.19Z" fill="#0057FF"/>
<path d="M1349.19 476.96V467.35H1353.99V472.16H1358.78V476.96H1349.19Z" fill="#0057FF"/>
<path d="M1349.19 451.61V442H1353.99V446.8H1358.78V451.61H1349.19Z" fill="#0057FF"/>
<path d="M1375.29 502.32V492.71H1380.08V497.51H1384.88V502.32H1375.29Z" fill="#0057FF"/>
<path d="M1375.29 476.96V467.35H1380.08V472.16H1384.88V476.96H1375.29Z" fill="#0057FF"/>
<path d="M1375.29 451.61V442H1380.08V446.8H1384.88V451.61H1375.29Z" fill="#0057FF"/>
</g>
</g>
<defs>
<clipPath id="clip0">
<rect width="137" height="101" fill="white" transform="translate(6 637)"/>
</clipPath>
<clipPath id="clip1">
<rect width="137" height="101" fill="white" transform="translate(650 127)"/>
</clipPath>
<clipPath id="clip2">
<rect width="99" height="137" fill="white" transform="translate(1286 365)"/>
</clipPath>
</defs>
</svg>
