<svg width="320" height="190" viewBox="0 0 320 190" fill="none" xmlns="http://www.w3.org/2000/svg">
<g opacity="0.15">
<path d="M0 0.000976562H7.55122V3.31102H3.77954V6.61418H0V0.000976562Z" fill="#0057FF"/>
<path d="M19.9268 0H27.478V3.31004H23.6985V6.61321H19.9268V0Z" fill="#0057FF"/>
<path d="M39.8467 0H47.3979V3.31004H43.6262V6.61321H39.8467V0Z" fill="#0057FF"/>
<path d="M0 17.999H7.55122V21.3022H3.77954V24.6123H0V17.999Z" fill="#0057FF"/>
<path d="M19.9268 17.999H27.478V21.3022H23.6985V24.6123H19.9268V17.999Z" fill="#0057FF"/>
<path d="M39.8457 17.999H47.3969V21.3022H43.6253V24.6123H39.8457V17.999Z" fill="#0057FF"/>
<path d="M0 35.9907H7.55122V39.3008H3.77954V42.604H0V35.9907Z" fill="#0057FF"/>
<path d="M19.9268 35.9907H27.478V39.3008H23.6985V42.604H19.9268V35.9907Z" fill="#0057FF"/>
<path d="M39.8457 35.9907H47.3969V39.3008H43.6253V42.604H39.8457V35.9907Z" fill="#0057FF"/>
<path d="M0 53.9893H7.55122V57.2925H3.77954V60.6026H0V53.9893Z" fill="#0057FF"/>
<path d="M19.9268 53.9893H27.478V57.2925H23.6985V60.6026H19.9268V53.9893Z" fill="#0057FF"/>
<path d="M39.8457 53.9893H47.3969V57.2925H43.6253V60.6026H39.8457V53.9893Z" fill="#0057FF"/>
</g>
<g opacity="0.15">
<path d="M272.604 129.397H280.155V132.708H276.383V136.011H272.604V129.397Z" fill="#0057FF"/>
<path d="M292.529 129.397H300.081V132.708H296.301V136.011H292.529V129.397Z" fill="#0057FF"/>
<path d="M312.449 129.397H320.001V132.708H316.229V136.011H312.449V129.397Z" fill="#0057FF"/>
<path d="M272.603 147.396H280.154V150.7H276.382V154.01H272.603V147.396Z" fill="#0057FF"/>
<path d="M292.529 147.396H300.081V150.7H296.301V154.01H292.529V147.396Z" fill="#0057FF"/>
<path d="M312.449 147.396H320.001V150.7H316.229V154.01H312.449V147.396Z" fill="#0057FF"/>
<path d="M272.603 165.389H280.154V168.699H276.382V172.002H272.603V165.389Z" fill="#0057FF"/>
<path d="M292.529 165.389H300.081V168.699H296.301V172.002H292.529V165.389Z" fill="#0057FF"/>
<path d="M312.449 165.389H320.001V168.699H316.229V172.002H312.449V165.389Z" fill="#0057FF"/>
<path d="M272.603 183.387H280.154V186.69H276.382V190H272.603V183.387Z" fill="#0057FF"/>
<path d="M292.529 183.387H300.081V186.69H296.301V190H292.529V183.387Z" fill="#0057FF"/>
<path d="M312.449 183.387H320.001V186.69H316.229V190H312.449V183.387Z" fill="#0057FF"/>
</g>
</svg>
