<svg width="720" height="151" viewBox="0 0 720 151" fill="none" xmlns="http://www.w3.org/2000/svg">
<g opacity="0.2" clip-path="url(#clip0)">
<path d="M659 62H668.61V66.81H663.81V71.61H659V62Z" fill="#0057FF"/>
<path d="M684.36 62H693.97V66.81H689.16V71.61H684.36V62Z" fill="#0057FF"/>
<path d="M709.71 62H719.32V66.81H714.52V71.61H709.71V62Z" fill="#0057FF"/>
<path d="M659 88.1602H668.61V92.9602H663.81V97.7702H659V88.1602Z" fill="#0057FF"/>
<path d="M684.36 88.1602H693.97V92.9602H689.16V97.7702H684.36V88.1602Z" fill="#0057FF"/>
<path d="M709.71 88.1602H719.32V92.9602H714.52V97.7702H709.71V88.1602Z" fill="#0057FF"/>
<path d="M659 114.31H668.61V119.12H663.81V123.92H659V114.31Z" fill="#0057FF"/>
<path d="M684.36 114.31H693.97V119.12H689.16V123.92H684.36V114.31Z" fill="#0057FF"/>
<path d="M709.71 114.31H719.32V119.12H714.52V123.92H709.71V114.31Z" fill="#0057FF"/>
<path d="M659 140.47H668.61V145.27H663.81V150.08H659V140.47Z" fill="#0057FF"/>
<path d="M684.36 140.47H693.97V145.27H689.16V150.08H684.36V140.47Z" fill="#0057FF"/>
<path d="M709.71 140.47H719.32V145.27H714.52V150.08H709.71V140.47Z" fill="#0057FF"/>
</g>
<g opacity="0.2" clip-path="url(#clip1)">
<path d="M0 0H9.61V4.81H4.81V9.61H0V0Z" fill="#0057FF"/>
<path d="M25.3601 0H34.9701V4.81H30.1601V9.61H25.3601V0Z" fill="#0057FF"/>
<path d="M50.71 0H60.32V4.81H55.52V9.61H50.71V0Z" fill="#0057FF"/>
<path d="M0 26.1602H9.61V30.9602H4.81V35.7702H0V26.1602Z" fill="#0057FF"/>
<path d="M25.3601 26.1602H34.9701V30.9602H30.1601V35.7702H25.3601V26.1602Z" fill="#0057FF"/>
<path d="M50.71 26.1602H60.32V30.9602H55.52V35.7702H50.71V26.1602Z" fill="#0057FF"/>
<path d="M0 52.3096H9.61V57.1196H4.81V61.9196H0V52.3096Z" fill="#0057FF"/>
<path d="M25.3601 52.3096H34.9701V57.1196H30.1601V61.9196H25.3601V52.3096Z" fill="#0057FF"/>
<path d="M50.71 52.3096H60.32V57.1196H55.52V61.9196H50.71V52.3096Z" fill="#0057FF"/>
<path d="M0 78.4697H9.61V83.2697H4.81V88.0797H0V78.4697Z" fill="#0057FF"/>
<path d="M25.3601 78.4697H34.9701V83.2697H30.1601V88.0797H25.3601V78.4697Z" fill="#0057FF"/>
<path d="M50.71 78.4697H60.32V83.2697H55.52V88.0797H50.71V78.4697Z" fill="#0057FF"/>
</g>
<defs>
<clipPath id="clip0">
<rect width="60.32" height="88.08" fill="white" transform="translate(659 62)"/>
</clipPath>
<clipPath id="clip1">
<rect width="60.32" height="88.08" fill="white"/>
</clipPath>
</defs>
</svg>
