<svg width="1371" height="633" viewBox="0 0 1371 633" fill="none" xmlns="http://www.w3.org/2000/svg">
<g opacity="0.5">
<g opacity="0.15">
<path d="M0 0H8.87633V4.80022H4.44278V9.59045H0V0Z" fill="#0057FF"/>
<path d="M23.4238 0H32.3002V4.80022H27.8574V9.59045H23.4238V0Z" fill="#0057FF"/>
<path d="M46.8385 0H55.7148V4.80022H51.2813V9.59045H46.8385V0Z" fill="#0057FF"/>
<path d="M0 26.1013H8.87633V30.8909H4.44278V35.6906H0V26.1013Z" fill="#0057FF"/>
<path d="M23.4238 26.1013H32.3002V30.8909H27.8574V35.6906H23.4238V26.1013Z" fill="#0057FF"/>
<path d="M46.8385 26.1013H55.7148V30.8909H51.2813V35.6906H46.8385V26.1013Z" fill="#0057FF"/>
<path d="M0 52.1924H8.87633V56.9925H4.44278V61.7827H0V52.1924Z" fill="#0057FF"/>
<path d="M23.4238 52.1924H32.3002V56.9925H27.8574V61.7827H23.4238V52.1924Z" fill="#0057FF"/>
<path d="M46.8385 52.1924H55.7148V56.9925H51.2813V61.7827H46.8385V52.1924Z" fill="#0057FF"/>
<path d="M0 78.2937H8.87633V83.0839H4.44278V87.8842H0V78.2937Z" fill="#0057FF"/>
<path d="M23.4238 78.2937H32.3002V83.0839H27.8574V87.8842H23.4238V78.2937Z" fill="#0057FF"/>
<path d="M46.8385 78.2937H55.7148V83.0839H51.2813V87.8842H46.8385V78.2937Z" fill="#0057FF"/>
</g>
<g opacity="0.15">
<path d="M244.769 255.425H253.645V260.225H249.211V265.015H244.769V255.425Z" fill="#0057FF"/>
<path d="M268.193 255.425H277.069V260.225H272.626V265.015H268.193V255.425Z" fill="#0057FF"/>
<path d="M291.607 255.425H300.484V260.225H296.05V265.015H291.607V255.425Z" fill="#0057FF"/>
<path d="M244.769 281.526H253.645V286.316H249.211V291.115H244.769V281.526Z" fill="#0057FF"/>
<path d="M268.192 281.526H277.069V286.316H272.626V291.115H268.192V281.526Z" fill="#0057FF"/>
<path d="M291.607 281.526H300.484V286.316H296.05V291.115H291.607V281.526Z" fill="#0057FF"/>
<path d="M244.769 307.617H253.645V312.417H249.211V317.207H244.769V307.617Z" fill="#0057FF"/>
<path d="M268.192 307.617H277.069V312.417H272.626V317.207H268.192V307.617Z" fill="#0057FF"/>
<path d="M291.607 307.617H300.484V312.417H296.05V317.207H291.607V307.617Z" fill="#0057FF"/>
<path d="M244.769 333.719H253.645V338.509H249.211V343.309H244.769V333.719Z" fill="#0057FF"/>
<path d="M268.192 333.719H277.069V338.509H272.626V343.309H268.192V333.719Z" fill="#0057FF"/>
<path d="M291.607 333.719H300.484V338.509H296.05V343.309H291.607V333.719Z" fill="#0057FF"/>
</g>
<g opacity="0.15">
<path d="M3.6947 544.773H12.571V549.573H8.13748V554.363H3.6947V544.773Z" fill="#0057FF"/>
<path d="M27.1185 544.773H35.9949V549.573H31.5521V554.363H27.1185V544.773Z" fill="#0057FF"/>
<path d="M50.5331 544.773H59.4094V549.573H54.9759V554.363H50.5331V544.773Z" fill="#0057FF"/>
<path d="M3.6947 570.875H12.571V575.665H8.13748V580.465H3.6947V570.875Z" fill="#0057FF"/>
<path d="M27.1185 570.875H35.9949V575.665H31.5521V580.465H27.1185V570.875Z" fill="#0057FF"/>
<path d="M50.5331 570.875H59.4094V575.665H54.9759V580.465H50.5331V570.875Z" fill="#0057FF"/>
<path d="M3.6947 596.966H12.571V601.766H8.13748V606.556H3.6947V596.966Z" fill="#0057FF"/>
<path d="M27.1185 596.966H35.9949V601.766H31.5521V606.556H27.1185V596.966Z" fill="#0057FF"/>
<path d="M50.5331 596.966H59.4094V601.766H54.9759V606.556H50.5331V596.966Z" fill="#0057FF"/>
<path d="M3.6947 623.066H12.571V627.857H8.13748V632.657H3.6947V623.066Z" fill="#0057FF"/>
<path d="M27.1185 623.066H35.9949V627.857H31.5521V632.657H27.1185V623.066Z" fill="#0057FF"/>
<path d="M50.5331 623.066H59.4094V627.857H54.9759V632.657H50.5331V623.066Z" fill="#0057FF"/>
</g>
</g>
<g opacity="0.5">
<g opacity="0.15">
<path d="M1070.52 0H1079.39V4.80022H1074.96V9.59045H1070.52V0Z" fill="#0057FF"/>
<path d="M1093.94 0H1102.82V4.80022H1098.37V9.59045H1093.94V0Z" fill="#0057FF"/>
<path d="M1117.35 0H1126.23V4.80022H1121.8V9.59045H1117.35V0Z" fill="#0057FF"/>
<path d="M1070.52 26.1013H1079.39V30.8909H1074.96V35.6906H1070.52V26.1013Z" fill="#0057FF"/>
<path d="M1093.94 26.1013H1102.82V30.8909H1098.37V35.6906H1093.94V26.1013Z" fill="#0057FF"/>
<path d="M1117.35 26.1013H1126.23V30.8909H1121.8V35.6906H1117.35V26.1013Z" fill="#0057FF"/>
<path d="M1070.52 52.1924H1079.39V56.9925H1074.96V61.7827H1070.52V52.1924Z" fill="#0057FF"/>
<path d="M1093.94 52.1924H1102.82V56.9925H1098.37V61.7827H1093.94V52.1924Z" fill="#0057FF"/>
<path d="M1117.35 52.1924H1126.23V56.9925H1121.8V61.7827H1117.35V52.1924Z" fill="#0057FF"/>
<path d="M1070.52 78.2937H1079.39V83.0839H1074.96V87.8842H1070.52V78.2937Z" fill="#0057FF"/>
<path d="M1093.94 78.2937H1102.82V83.0839H1098.37V87.8842H1093.94V78.2937Z" fill="#0057FF"/>
<path d="M1117.35 78.2937H1126.23V83.0839H1121.8V87.8842H1117.35V78.2937Z" fill="#0057FF"/>
</g>
<g opacity="0.15">
<path d="M1315.28 255.425H1324.16V260.225H1319.73V265.015H1315.28V255.425Z" fill="#0057FF"/>
<path d="M1338.71 255.425H1347.59V260.225H1343.14V265.015H1338.71V255.425Z" fill="#0057FF"/>
<path d="M1362.12 255.425H1371V260.225H1366.57V265.015H1362.12V255.425Z" fill="#0057FF"/>
<path d="M1315.28 281.526H1324.16V286.316H1319.73V291.115H1315.28V281.526Z" fill="#0057FF"/>
<path d="M1338.71 281.526H1347.59V286.316H1343.14V291.115H1338.71V281.526Z" fill="#0057FF"/>
<path d="M1362.12 281.526H1371V286.316H1366.57V291.115H1362.12V281.526Z" fill="#0057FF"/>
<path d="M1315.28 307.617H1324.16V312.417H1319.73V317.207H1315.28V307.617Z" fill="#0057FF"/>
<path d="M1338.71 307.617H1347.59V312.417H1343.14V317.207H1338.71V307.617Z" fill="#0057FF"/>
<path d="M1362.12 307.617H1371V312.417H1366.57V317.207H1362.12V307.617Z" fill="#0057FF"/>
<path d="M1315.28 333.719H1324.16V338.509H1319.73V343.309H1315.28V333.719Z" fill="#0057FF"/>
<path d="M1338.71 333.719H1347.59V338.509H1343.14V343.309H1338.71V333.719Z" fill="#0057FF"/>
<path d="M1362.12 333.719H1371V338.509H1366.57V343.309H1362.12V333.719Z" fill="#0057FF"/>
</g>
<g opacity="0.15">
<path d="M1074.21 544.773H1083.09V549.573H1078.65V554.363H1074.21V544.773Z" fill="#0057FF"/>
<path d="M1097.64 544.773H1106.51V549.573H1102.07V554.363H1097.64V544.773Z" fill="#0057FF"/>
<path d="M1121.05 544.773H1129.93V549.573H1125.49V554.363H1121.05V544.773Z" fill="#0057FF"/>
<path d="M1074.21 570.875H1083.09V575.665H1078.65V580.465H1074.21V570.875Z" fill="#0057FF"/>
<path d="M1097.64 570.875H1106.51V575.665H1102.07V580.465H1097.64V570.875Z" fill="#0057FF"/>
<path d="M1121.05 570.875H1129.93V575.665H1125.49V580.465H1121.05V570.875Z" fill="#0057FF"/>
<path d="M1074.21 596.966H1083.09V601.766H1078.65V606.556H1074.21V596.966Z" fill="#0057FF"/>
<path d="M1097.64 596.966H1106.51V601.766H1102.07V606.556H1097.64V596.966Z" fill="#0057FF"/>
<path d="M1121.05 596.966H1129.93V601.766H1125.49V606.556H1121.05V596.966Z" fill="#0057FF"/>
<path d="M1074.21 623.066H1083.09V627.857H1078.65V632.657H1074.21V623.066Z" fill="#0057FF"/>
<path d="M1097.64 623.066H1106.51V627.857H1102.07V632.657H1097.64V623.066Z" fill="#0057FF"/>
<path d="M1121.05 623.066H1129.93V627.857H1125.49V632.657H1121.05V623.066Z" fill="#0057FF"/>
</g>
</g>
<g opacity="0.5">
<g opacity="0.15">
<path d="M534.796 0H543.673V4.80022H539.239V9.59045H534.796V0Z" fill="#0057FF"/>
<path d="M558.22 0H567.097V4.80022H562.654V9.59045H558.22V0Z" fill="#0057FF"/>
<path d="M581.635 0H590.511V4.80022H586.078V9.59045H581.635V0Z" fill="#0057FF"/>
<path d="M534.796 26.1013H543.673V30.8909H539.239V35.6906H534.796V26.1013Z" fill="#0057FF"/>
<path d="M558.22 26.1013H567.097V30.8909H562.654V35.6906H558.22V26.1013Z" fill="#0057FF"/>
<path d="M581.635 26.1013H590.511V30.8909H586.078V35.6906H581.635V26.1013Z" fill="#0057FF"/>
<path d="M534.796 52.1924H543.673V56.9925H539.239V61.7827H534.796V52.1924Z" fill="#0057FF"/>
<path d="M558.22 52.1924H567.097V56.9925H562.654V61.7827H558.22V52.1924Z" fill="#0057FF"/>
<path d="M581.635 52.1924H590.511V56.9925H586.078V61.7827H581.635V52.1924Z" fill="#0057FF"/>
<path d="M534.796 78.2937H543.673V83.0839H539.239V87.8842H534.796V78.2937Z" fill="#0057FF"/>
<path d="M558.22 78.2937H567.097V83.0839H562.654V87.8842H558.22V78.2937Z" fill="#0057FF"/>
<path d="M581.635 78.2937H590.511V83.0839H586.078V87.8842H581.635V78.2937Z" fill="#0057FF"/>
</g>
<g opacity="0.15">
<path d="M779.565 255.425H788.441V260.225H784.008V265.015H779.565V255.425Z" fill="#0057FF"/>
<path d="M802.989 255.425H811.866V260.225H807.423V265.015H802.989V255.425Z" fill="#0057FF"/>
<path d="M826.404 255.425H835.28V260.225H830.846V265.015H826.404V255.425Z" fill="#0057FF"/>
<path d="M779.565 281.526H788.441V286.316H784.008V291.115H779.565V281.526Z" fill="#0057FF"/>
<path d="M802.989 281.526H811.865V286.316H807.422V291.115H802.989V281.526Z" fill="#0057FF"/>
<path d="M826.404 281.526H835.28V286.316H830.846V291.115H826.404V281.526Z" fill="#0057FF"/>
<path d="M779.565 307.617H788.441V312.417H784.008V317.207H779.565V307.617Z" fill="#0057FF"/>
<path d="M802.989 307.617H811.865V312.417H807.422V317.207H802.989V307.617Z" fill="#0057FF"/>
<path d="M826.404 307.617H835.28V312.417H830.846V317.207H826.404V307.617Z" fill="#0057FF"/>
<path d="M779.565 333.719H788.441V338.509H784.008V343.309H779.565V333.719Z" fill="#0057FF"/>
<path d="M802.989 333.719H811.865V338.509H807.422V343.309H802.989V333.719Z" fill="#0057FF"/>
<path d="M826.404 333.719H835.28V338.509H830.846V343.309H826.404V333.719Z" fill="#0057FF"/>
</g>
<g opacity="0.15">
<path d="M538.491 544.773H547.367V549.573H542.934V554.363H538.491V544.773Z" fill="#0057FF"/>
<path d="M561.915 544.773H570.791V549.573H566.349V554.363H561.915V544.773Z" fill="#0057FF"/>
<path d="M585.33 544.773H594.206V549.573H589.772V554.363H585.33V544.773Z" fill="#0057FF"/>
<path d="M538.491 570.875H547.367V575.665H542.934V580.465H538.491V570.875Z" fill="#0057FF"/>
<path d="M561.915 570.875H570.791V575.665H566.349V580.465H561.915V570.875Z" fill="#0057FF"/>
<path d="M585.33 570.875H594.206V575.665H589.772V580.465H585.33V570.875Z" fill="#0057FF"/>
<path d="M538.491 596.966H547.367V601.766H542.934V606.556H538.491V596.966Z" fill="#0057FF"/>
<path d="M561.915 596.966H570.791V601.766H566.349V606.556H561.915V596.966Z" fill="#0057FF"/>
<path d="M585.33 596.966H594.206V601.766H589.772V606.556H585.33V596.966Z" fill="#0057FF"/>
<path d="M538.491 623.066H547.367V627.857H542.934V632.657H538.491V623.066Z" fill="#0057FF"/>
<path d="M561.915 623.066H570.791V627.857H566.349V632.657H561.915V623.066Z" fill="#0057FF"/>
<path d="M585.33 623.066H594.206V627.857H589.772V632.657H585.33V623.066Z" fill="#0057FF"/>
</g>
</g>
</svg>
