<svg width="878" height="879" viewBox="0 0 878 879" fill="none" xmlns="http://www.w3.org/2000/svg">
<path opacity="0.05" fill-rule="evenodd" clip-rule="evenodd" d="M528.901 742.254C467.062 767.564 474.261 811.255 359.402 811.254C293.033 800.244 235.934 731.754 192.402 680.454C148.22 628.387 130.235 592.473 112 526.666C90.5234 449.156 76.2604 363.286 112.089 291.284C149.404 216.294 221.739 151.656 304.62 139.572C383.742 128.036 443.512 207.507 519.677 231.858C588.888 253.985 672.096 228.391 727.922 274.908C787.385 324.456 800.938 410.1 800.5 487.5C800.076 562.578 779.772 628.449 725.631 680.454C678.261 725.955 621.259 704.454 528.901 742.254Z" fill="#0057FF"/>
</svg>
