<svg width="182" height="134" viewBox="0 0 182 134" fill="none" xmlns="http://www.w3.org/2000/svg">
<g clip-path="url(#clip0)">
<path d="M55.76 55.09V0L42.55 0V55.09H55.76Z" fill="#37CC96"/>
<path d="M113.79 76.95C113.79 45.52 88.32 20.05 56.9 20.05C25.48 20.05 4.57764e-05 45.52 4.57764e-05 76.95C4.57764e-05 108.37 25.48 133.84 56.9 133.84C88.32 133.84 113.79 108.37 113.79 76.95ZM13.43 76.95C13.43 52.98 32.93 33.48 56.9 33.48C80.87 33.48 100.37 52.98 100.37 76.95C100.37 100.91 80.87 120.42 56.9 120.42C32.93 120.42 13.43 100.91 13.43 76.95Z" fill="white" fill-opacity="0.1"/>
<path d="M83.73 55.09V0L70.52 0V55.09H83.73Z" fill="#37CC96"/>
<path d="M151.51 16.91V0C156.18 0 159.96 3.79 159.96 8.46C159.96 13.13 156.17 16.91 151.51 16.91Z" fill="#37CC96"/>
<path d="M172.59 16.91V0C177.25 0 181.04 3.79 181.04 8.46C181.04 13.13 177.25 16.91 172.59 16.91Z" fill="#37CC96"/>
<path d="M128.65 16.91V0C133.32 0 137.1 3.79 137.1 8.46C137.1 13.13 133.32 16.91 128.65 16.91Z" fill="#37CC96"/>
<path d="M105.79 16.91V0C110.46 0 114.24 3.79 114.24 8.46C114.25 13.13 110.46 16.91 105.79 16.91Z" fill="#37CC96"/>
</g>
<defs>
<clipPath id="clip0">
<rect width="133.84" height="181.04" fill="white" transform="translate(181.04) rotate(90)"/>
</clipPath>
</defs>
</svg>
