<svg width="134" height="16" viewBox="0 0 134 16" fill="none" xmlns="http://www.w3.org/2000/svg">
<mask id="path-1-inside-1" fill="white">
<path fill-rule="evenodd" clip-rule="evenodd" d="M9.74281 0.000645112C8.9772 -0.0242747 8.21829 0.341429 7.77122 1.03289L0.364505 12.4888C-0.315634 13.5407 -0.0164455 14.9483 1.03276 15.6327C2.08196 16.3171 3.48388 16.0191 4.16401 14.9671L9.74281 6.33847L15.3216 14.9671C16.0017 16.0191 17.4037 16.3171 18.4529 15.6327C19.5021 14.9483 19.8013 13.5407 19.1211 12.4888L11.7144 1.03289C11.2673 0.341429 10.5084 -0.0242747 9.74281 0.000645112Z"/>
</mask>
<path d="M7.77122 1.03289L1.89286 -2.76773L1.89285 -2.76773L7.77122 1.03289ZM9.74281 0.000645112L9.51509 6.99694L9.74281 7.00435L9.97053 6.99694L9.74281 0.000645112ZM0.364505 12.4888L6.24287 16.2894L6.24288 16.2894L0.364505 12.4888ZM1.03276 15.6327L-2.79157 21.4957L1.03276 15.6327ZM4.16401 14.9671L10.0424 18.7677L10.0424 18.7677L4.16401 14.9671ZM9.74281 6.33847L15.6212 2.53785L9.74281 -6.55414L3.86444 2.53785L9.74281 6.33847ZM15.3216 14.9671L9.44323 18.7677L9.44324 18.7677L15.3216 14.9671ZM18.4529 15.6327L14.6285 9.76969L14.6285 9.7697L18.4529 15.6327ZM19.1211 12.4888L13.2427 16.2894L13.2427 16.2894L19.1211 12.4888ZM11.7144 1.03289L17.5928 -2.76773L17.5928 -2.76773L11.7144 1.03289ZM13.6496 4.83352C12.7111 6.28501 11.1076 7.04878 9.51509 6.99694L9.97053 -6.99565C6.84678 -7.09732 3.72544 -5.60215 1.89286 -2.76773L13.6496 4.83352ZM6.24288 16.2894L13.6496 4.83352L1.89285 -2.76773L-5.51387 8.68813L6.24288 16.2894ZM4.85709 9.76969C7.03667 11.1914 7.65578 14.1041 6.24287 16.2894L-5.51386 8.68813C-8.28704 12.9774 -7.06956 18.7052 -2.79157 21.4957L4.85709 9.76969ZM-1.71435 11.1665C-0.289477 8.96265 2.659 8.33592 4.85709 9.76969L-2.79157 21.4957C1.50493 24.2982 7.25723 23.0755 10.0424 18.7677L-1.71435 11.1665ZM3.86444 2.53785L-1.71436 11.1665L10.0424 18.7677L15.6212 10.1391L3.86444 2.53785ZM3.86444 10.1391L9.44323 18.7677L21.2 11.1665L15.6212 2.53785L3.86444 10.1391ZM9.44324 18.7677C12.2284 23.0755 17.9807 24.2982 22.2772 21.4957L14.6285 9.7697C16.8266 8.33592 19.7751 8.96265 21.2 11.1665L9.44324 18.7677ZM22.2772 21.4957C26.5552 18.7052 27.7727 12.9774 24.9995 8.68812L13.2427 16.2894C11.8298 14.1041 12.4489 11.1914 14.6285 9.76969L22.2772 21.4957ZM24.9995 8.68813L17.5928 -2.76773L5.83602 4.83352L13.2427 16.2894L24.9995 8.68813ZM17.5928 -2.76773C15.7602 -5.60215 12.6388 -7.09732 9.51509 -6.99565L9.97053 6.99694C8.378 7.04878 6.77448 6.28501 5.83603 4.83352L17.5928 -2.76773Z" fill="#0057FF" mask="url(#path-1-inside-1)"/>
<path d="M29.4406 2.28571V0H36.8876V2.28571H34.3687V16H31.9594V2.28571H29.4406Z" fill="#2C3952"/>
<path d="M49.8201 16H47.367C47.2209 15.5429 47.1479 14.8876 47.1479 14.0343V11.52C47.1479 10.7886 47.0238 10.2705 46.7756 9.96571C46.5273 9.64571 46.1258 9.48571 45.5709 9.48571H44.7386V16H42.3293V0H45.9652C47.2063 0 48.1117 0.304762 48.6811 0.914286C49.2506 1.50857 49.5354 2.43048 49.5354 3.68V4.93714C49.5354 6.58286 49.0097 7.66476 47.9583 8.18286C49.0243 8.65524 49.5573 9.79048 49.5573 11.5886V14.0571C49.5573 14.9257 49.6449 15.5733 49.8201 16ZM45.8995 2.28571H44.7386V7.2H45.6804C46.1623 7.2 46.52 7.07048 46.7537 6.81143C47.0019 6.55238 47.126 6.11809 47.126 5.50857V3.93143C47.126 2.83429 46.7172 2.28571 45.8995 2.28571Z" fill="#2C3952"/>
<path d="M60.8667 0L63.3199 16H60.8886L60.4725 13.0971H57.5156L57.0994 16H54.8872L57.3403 0H60.8667ZM58.9831 2.83429L57.8222 10.9257H60.1439L58.9831 2.83429Z" fill="#2C3952"/>
<path d="M68.8225 16V0H72.6336C75.0283 0 76.2257 1.3181 76.2257 3.95429V12.0457C76.2257 14.6819 75.0283 16 72.6336 16H68.8225ZM72.5898 2.28571H71.2318V13.7143H72.5898C73.4075 13.7143 73.8164 13.1962 73.8164 12.16V3.84C73.8164 2.80381 73.4075 2.28571 72.5898 2.28571Z" fill="#2C3952"/>
<path d="M84.5533 2.28571V6.74286H87.8606V9.02857H84.5533V13.7143H88.7149V16H82.144V0H88.7149V2.28571H84.5533Z" fill="#2C3952"/>
<path d="M94.5884 16V0H96.9978V13.7143H100.962V16H94.5884Z" fill="#2C3952"/>
<path d="M106.391 16V0H108.801V16H106.391Z" fill="#2C3952"/>
<path d="M114.79 0H121.623V2.24L117.046 13.7143H121.623V16H114.57V13.76L119.148 2.28571H114.79V0Z" fill="#2C3952"/>
<path d="M129.839 2.28571V6.74286H133.147V9.02857H129.839V13.7143H134.001V16H127.43V0H134.001V2.28571H129.839Z" fill="#2C3952"/>
</svg>
