<svg width="237" height="227" viewBox="0 0 237 227" fill="none" xmlns="http://www.w3.org/2000/svg">
<path d="M118.5 192.663C169.257 192.663 210.404 190.261 210.404 187.298C210.404 184.334 169.257 181.932 118.5 181.932C67.7428 181.932 26.5961 184.334 26.5961 187.298C26.5961 190.261 67.7428 192.663 118.5 192.663Z" fill="#E6F1FF"/>
<g opacity="0.3">
<path opacity="0.3" d="M193.16 37.6797H44.5703C42.1226 37.6797 40.1384 39.6639 40.1384 42.1116V155.241C40.1384 157.689 42.1226 159.673 44.5703 159.673H193.16C195.607 159.673 197.592 157.689 197.592 155.241V42.1116C197.592 39.6639 195.607 37.6797 193.16 37.6797Z" fill="white"/>
<path opacity="0.4" d="M193.16 37.6797H44.5703C42.1226 37.6797 40.1384 39.6639 40.1384 42.1116V155.241C40.1384 157.689 42.1226 159.673 44.5703 159.673H193.16C195.607 159.673 197.592 157.689 197.592 155.241V42.1116C197.592 39.6639 195.607 37.6797 193.16 37.6797Z" fill="#407BFF"/>
</g>
<path opacity="0.1" d="M190.847 49.8521H46.8834C46.4541 49.8521 46.1061 50.2001 46.1061 50.6294V97.8967C46.1061 98.326 46.4541 98.674 46.8834 98.674H190.847C191.276 98.674 191.624 98.326 191.624 97.8967V50.6294C191.624 50.2001 191.276 49.8521 190.847 49.8521Z" fill="#407BFF"/>
<path d="M189.733 48.7903H47.997C47.5677 48.7903 47.2197 49.1383 47.2197 49.5676V96.7638C47.2197 97.1931 47.5677 97.5412 47.997 97.5412H189.733C190.162 97.5412 190.51 97.1931 190.51 96.7638V49.5676C190.51 49.1383 190.162 48.7903 189.733 48.7903Z" fill="white"/>
<path opacity="0.1" d="M58.7618 51.2835H57.8138V95.0527H58.7618V51.2835Z" fill="#407BFF"/>
<path opacity="0.1" d="M70.8774 51.2835H69.9294V95.0527H70.8774V51.2835Z" fill="#407BFF"/>
<path opacity="0.1" d="M82.9926 51.2835H82.0446V95.0527H82.9926V51.2835Z" fill="#407BFF"/>
<path opacity="0.1" d="M95.1083 51.2835H94.1603V95.0527H95.1083V51.2835Z" fill="#407BFF"/>
<path opacity="0.1" d="M107.224 51.2835H106.276V95.0527H107.224V51.2835Z" fill="#407BFF"/>
<path opacity="0.1" d="M119.339 51.2835H118.391V95.0527H119.339V51.2835Z" fill="#407BFF"/>
<path opacity="0.1" d="M131.454 51.2835H130.506V95.0527H131.454V51.2835Z" fill="#407BFF"/>
<path opacity="0.1" d="M143.57 51.2835H142.622V95.0527H143.57V51.2835Z" fill="#407BFF"/>
<path opacity="0.1" d="M155.686 51.2835H154.738V95.0527H155.686V51.2835Z" fill="#407BFF"/>
<path opacity="0.1" d="M167.801 51.2835H166.853V95.0527H167.801V51.2835Z" fill="#407BFF"/>
<path opacity="0.1" d="M179.916 51.2835H178.968V95.0527H179.916V51.2835Z" fill="#407BFF"/>
<path d="M135.199 84.7621C135.168 84.7631 135.138 84.7577 135.109 84.7463C135.081 84.7349 135.055 84.7176 135.033 84.6957L111.471 63.0339L86.7089 75.5949C86.6435 75.6211 86.5705 75.6211 86.5051 75.5949L77.3806 72.0589L51.3106 81.9513C51.2484 81.9743 51.1795 81.9718 51.1191 81.9443C51.0587 81.9168 51.0117 81.8664 50.9883 81.8043C50.9761 81.7739 50.9701 81.7413 50.9707 81.7085C50.9713 81.6757 50.9784 81.6433 50.9916 81.6133C51.0049 81.5833 51.024 81.5562 51.0478 81.5336C51.0717 81.5111 51.0998 81.4935 51.1305 81.482L77.3048 71.5565C77.3629 71.5351 77.4268 71.5351 77.4849 71.5565L86.5952 75.083L111.39 62.522C111.436 62.4985 111.487 62.4896 111.538 62.4964C111.589 62.5032 111.637 62.5253 111.675 62.5599L135.27 84.2502L163.914 77.3819L186.353 57.6872C186.404 57.6432 186.469 57.621 186.536 57.6254C186.603 57.6299 186.665 57.6606 186.709 57.7109C186.753 57.7612 186.775 57.8269 186.771 57.8936C186.766 57.9602 186.735 58.0224 186.685 58.0664L164.198 77.8038C164.166 77.8286 164.129 77.8464 164.089 77.8559L135.256 84.7716L135.199 84.7621Z" fill="#E0E0E0"/>
<path d="M51.1922 87.8858C51.1393 87.8868 51.0875 87.8701 51.0452 87.8384C51.0183 87.8191 50.9955 87.7947 50.9782 87.7664C50.961 87.7382 50.9496 87.7068 50.9447 87.6741C50.9398 87.6413 50.9416 87.608 50.9499 87.5759C50.9582 87.5439 50.9729 87.5139 50.9931 87.4876L62.5682 72.002C62.6006 71.9584 62.6464 71.9266 62.6985 71.9112C62.7506 71.8958 62.8064 71.8977 62.8573 71.9167L90.2971 82.1836L127.653 65.6647C127.689 65.646 127.729 65.6362 127.769 65.6362C127.81 65.6362 127.849 65.646 127.885 65.6647L141.797 74.2725L151.476 67.6744C151.51 67.6507 151.549 67.6374 151.59 67.6365L186.524 64.1763C186.59 64.171 186.656 64.1918 186.708 64.2342C186.759 64.2767 186.792 64.3376 186.799 64.4038C186.804 64.4702 186.783 64.5361 186.741 64.5875C186.698 64.6388 186.638 64.6715 186.571 64.6787L151.68 68.1437L141.92 74.7797C141.88 74.8054 141.833 74.8191 141.785 74.8191C141.738 74.8191 141.691 74.8054 141.65 74.7797L127.71 66.1529L90.3825 82.6623C90.3215 82.6861 90.2538 82.6861 90.1929 82.6623L62.8336 72.4239L51.4102 87.7625C51.3875 87.8 51.3555 87.8311 51.3173 87.8527C51.2791 87.8742 51.236 87.8856 51.1922 87.8858Z" fill="#407BFF"/>
<path opacity="0.2" d="M185.433 105.699H146.912C143.493 105.699 140.721 108.47 140.721 111.889V145.505C140.721 148.924 143.493 151.696 146.912 151.696H185.433C188.852 151.696 191.624 148.924 191.624 145.505V111.889C191.624 108.47 188.852 105.699 185.433 105.699Z" fill="#407BFF"/>
<path d="M170.768 183.785H166.99L167.033 175.035H170.811L170.768 183.785Z" fill="#E3A392"/>
<path d="M193.463 183.785H189.685L188.202 175.035H191.98L193.463 183.785Z" fill="#E3A392"/>
<path d="M189.434 183.349H193.7C193.774 183.347 193.846 183.372 193.903 183.419C193.959 183.466 193.997 183.533 194.008 183.605L194.596 186.966C194.608 187.05 194.603 187.135 194.579 187.216C194.555 187.297 194.514 187.372 194.459 187.436C194.404 187.5 194.335 187.551 194.258 187.586C194.181 187.621 194.098 187.639 194.013 187.639C192.53 187.611 191.814 187.525 189.946 187.525C188.799 187.525 185.68 187.644 184.111 187.644C182.542 187.644 182.395 186.075 183.05 185.933C185.993 185.298 187.856 184.421 188.828 183.563C188.999 183.423 189.213 183.348 189.434 183.349Z" fill="#263238"/>
<path d="M167.038 183.349H171.162C171.236 183.348 171.308 183.373 171.365 183.42C171.422 183.467 171.461 183.533 171.474 183.605L172.057 186.966C172.071 187.049 172.067 187.134 172.044 187.215C172.022 187.297 171.982 187.372 171.927 187.436C171.872 187.5 171.804 187.551 171.728 187.586C171.651 187.622 171.568 187.64 171.484 187.639C169.995 187.611 167.848 187.525 165.976 187.525C163.791 187.525 162.587 187.644 160.022 187.644C158.468 187.644 158.126 186.075 158.771 185.933C161.757 185.288 163.483 185.217 166.113 183.643C166.389 183.464 166.709 183.362 167.038 183.349Z" fill="#263238"/>
<path d="M170.403 66.0818L165.241 64.5697C165.241 64.5697 159.752 78.3157 158.397 79.7377C156.558 81.6669 154.709 85.7859 151.704 89.2177C151.912 89.8292 152.908 91.1943 153.439 91.4171C157.468 88.6584 162.445 84.0558 163.473 81.828C165.786 76.7657 170.403 66.0818 170.403 66.0818Z" fill="#E3A392"/>
<path d="M171.967 63.7212C173.437 66.9918 169.085 73.9359 169.085 73.9359L161.359 70.58C162.299 67.3454 163.57 64.2162 165.151 61.2422C167.531 56.962 170.356 60.152 171.967 63.7212Z" fill="#407BFF"/>
<path opacity="0.4" d="M171.967 63.7212C173.437 66.9918 169.085 73.9359 169.085 73.9359L161.359 70.58C162.299 67.3454 163.57 64.2162 165.151 61.2422C167.531 56.962 170.356 60.152 171.967 63.7212Z" fill="white"/>
<path d="M152.936 88.2175L149.03 90.1467L152.144 93.8771C152.144 93.8771 153.059 93.2751 154.102 90.7108L152.936 88.2175Z" fill="#E3A392"/>
<path d="M147.538 94.645L148.348 95.3181C148.614 95.5366 148.946 95.6588 149.29 95.6648C149.634 95.6709 149.971 95.5603 150.244 95.3512L152.14 93.8771L149.026 90.1467L147.272 92.5831C147.049 92.8971 146.952 93.2838 147.001 93.666C147.05 94.0482 147.242 94.3978 147.538 94.645Z" fill="#E3A392"/>
<path d="M140.746 81.1613L103.861 92.2696C100.587 93.2555 98.7323 96.7085 99.7181 99.9822L109.412 132.17C110.398 135.444 113.851 137.299 117.124 136.313L154.01 125.204C157.284 124.218 159.138 120.765 158.152 117.492L148.459 85.3036C147.473 82.03 144.02 80.1754 140.746 81.1613Z" fill="white"/>
<path opacity="0.5" d="M140.746 81.1613L103.861 92.2696C100.587 93.2555 98.7323 96.7085 99.7181 99.9822L109.412 132.17C110.398 135.444 113.851 137.299 117.124 136.313L154.01 125.204C157.284 124.218 159.138 120.765 158.152 117.492L148.459 85.3036C147.473 82.03 144.02 80.1754 140.746 81.1613Z" fill="#407BFF"/>
<path d="M128.952 108.746L113.784 115.819C112.23 112.481 111.82 108.724 112.618 105.13C113.415 101.536 115.376 98.3048 118.196 95.9381C121.017 93.5715 124.539 92.2011 128.217 92.0392C131.895 91.8774 135.524 92.9333 138.541 95.0432L128.952 108.746Z" fill="#407BFF"/>
<path d="M138.763 96.3893C139.234 96.7636 139.684 97.164 140.11 97.5885C141.708 99.1903 142.943 101.117 143.731 103.238C144.519 105.359 144.842 107.625 144.678 109.882C144.513 112.139 143.865 114.334 142.778 116.318C141.69 118.302 140.188 120.03 138.375 121.383C136.561 122.736 134.477 123.683 132.265 124.159C130.053 124.636 127.765 124.632 125.555 124.146C123.344 123.661 121.265 122.706 119.456 121.346C117.648 119.986 116.153 118.253 115.073 116.264L129.35 109.628L129.582 109.524L129.729 109.315L138.763 96.413V96.3893ZM138.545 95.0668L128.952 108.77L113.784 115.842C114.822 118.048 116.331 120 118.203 121.561C120.075 123.123 122.266 124.256 124.622 124.882C126.979 125.508 129.443 125.611 131.844 125.185C134.244 124.758 136.522 123.812 138.518 122.413C140.515 121.013 142.181 119.194 143.401 117.083C144.62 114.973 145.364 112.621 145.579 110.192C145.794 107.764 145.476 105.318 144.647 103.025C143.817 100.732 142.497 98.6489 140.778 96.9202C140.091 96.2234 139.344 95.5889 138.545 95.0242V95.0668Z" fill="white"/>
<path opacity="0.2" d="M167.033 175.035L167.009 179.548H170.792L170.815 175.035H167.033Z" fill="black"/>
<path opacity="0.2" d="M191.98 175.035H188.202L188.965 179.548H192.747L191.98 175.035Z" fill="black"/>
<path d="M167.166 59.2562C167.166 59.2562 162.122 72.2438 165.346 93.5027H185.562C185.851 90.398 184.656 73.6847 188.349 59.0618C186.128 58.6321 183.881 58.3471 181.623 58.2086C178.761 58.0426 175.891 58.0426 173.029 58.2086C171.051 58.4086 169.091 58.7588 167.166 59.2562Z" fill="#407BFF"/>
<path opacity="0.4" d="M167.166 59.2562C167.166 59.2562 162.122 72.2438 165.346 93.5027H185.562C185.851 90.398 184.656 73.6847 188.349 59.0618C186.128 58.6321 183.881 58.3471 181.623 58.2086C178.761 58.0426 175.891 58.0426 173.029 58.2086C171.051 58.4086 169.091 58.7588 167.166 59.2562Z" fill="white"/>
<path opacity="0.2" d="M183.784 62.6737C183.31 65.0816 183.817 70.836 185.794 77.4909C186.029 71.7793 186.767 66.0994 187.998 60.517V60.4886C186.675 60.3511 184.215 60.4175 183.784 62.6737Z" fill="black"/>
<path d="M180.883 50.198C180.21 52.9614 179.774 56.3884 181.623 58.256C181.623 58.256 180.376 61.0621 175.238 61.0621C170.545 61.0621 173.029 58.256 173.029 58.256C176.148 57.5213 176.167 53.7056 175.736 51.5584L180.883 50.198Z" fill="#E3A392"/>
<path d="M175.243 61.0147C178.271 61.6688 178.873 62.9107 178.873 62.9107C178.873 62.9107 182.642 61.3797 182.5 58.0569C182.5 58.0569 181.613 57.5118 181.078 57.071C181.068 57.0899 180.722 59.678 175.243 61.0147Z" fill="white"/>
<path d="M175.243 61.0147C172.792 61.1664 171.655 62.2992 171.655 62.2992C171.655 62.2992 171.038 61.4982 172.072 58.2086C172.613 57.9911 173.171 57.8168 173.74 57.6872C173.74 57.6872 173.247 60.3037 175.243 61.0147Z" fill="white"/>
<path opacity="0.2" d="M175.731 51.5157C175.992 52.7718 176.091 54.6015 175.494 56.0519C175.978 55.9796 176.449 55.8375 176.892 55.63C178.67 54.81 179.585 53.5207 180.571 51.6058C180.661 51.1318 180.765 50.6578 180.883 50.1838L175.731 51.5157Z" fill="black"/>
<path d="M171.432 48.4916C171.567 48.9284 171.792 49.3324 172.091 49.6783C172.391 50.0241 172.758 50.3044 173.171 50.5014C174.28 51.0228 175.067 50.0274 174.987 48.8708C174.897 47.809 174.214 46.2591 172.996 46.2354C172.727 46.2382 172.463 46.3054 172.225 46.4313C171.988 46.5573 171.784 46.7383 171.631 46.9592C171.478 47.1802 171.38 47.4346 171.345 47.7012C171.31 47.9678 171.34 48.2389 171.432 48.4916Z" fill="#E3A392"/>
<path opacity="0.2" d="M171.432 48.4916C171.567 48.9284 171.792 49.3324 172.091 49.6783C172.391 50.0241 172.758 50.3044 173.171 50.5014C174.28 51.0228 175.067 50.0274 174.987 48.8708C174.897 47.809 174.214 46.2591 172.996 46.2354C172.727 46.2382 172.463 46.3054 172.225 46.4313C171.988 46.5573 171.784 46.7383 171.631 46.9592C171.478 47.1802 171.38 47.4346 171.345 47.7012C171.31 47.9678 171.34 48.2389 171.432 48.4916Z" fill="black"/>
<path d="M175.413 40.718C173.887 40.1634 171.432 45.7661 174.835 46.0884C178.238 46.4108 177.708 41.5617 175.413 40.718Z" fill="#263238"/>
<path d="M183.286 46.8041C182.111 50.4255 181.599 52.6012 179.286 54.0848C175.807 56.3221 171.787 53.6677 171.877 49.8188C171.963 46.3491 173.873 41.0071 177.788 40.3388C181.703 39.6704 184.462 43.178 183.286 46.8041Z" fill="#E3A392"/>
<path d="M175.242 42.7088C172.28 40.462 173.972 35.9069 176.309 35.5988C179.485 35.2006 181.3 41.4954 184.983 41.7845C188.666 42.0736 187.073 47.9465 182.291 49.5629C180.532 50.1648 180.257 47.9323 182.011 44.8229C180.883 45.1215 176.953 44.0076 175.242 42.7088Z" fill="#263238"/>
<path d="M175.21 50.6388C175.563 50.6697 175.919 50.6299 176.257 50.5217C176.594 50.4134 176.907 50.2389 177.177 50.0084C177.185 50 177.192 49.9901 177.197 49.9791C177.201 49.9681 177.203 49.9563 177.203 49.9444C177.203 49.9325 177.201 49.9208 177.197 49.9098C177.192 49.8988 177.185 49.8888 177.177 49.8804C177.159 49.8645 177.136 49.8556 177.113 49.8556C177.089 49.8556 177.066 49.8645 177.049 49.8804C176.753 50.1258 176.405 50.3011 176.031 50.393C175.658 50.4849 175.268 50.4912 174.892 50.4113C174.869 50.4071 174.845 50.4122 174.825 50.4255C174.806 50.4388 174.792 50.4593 174.788 50.4824C174.785 50.4936 174.785 50.5053 174.786 50.5167C174.788 50.5281 174.792 50.539 174.799 50.5488C174.805 50.5585 174.813 50.5669 174.822 50.5734C174.832 50.58 174.843 50.5845 174.854 50.5867C174.972 50.6108 175.09 50.6283 175.21 50.6388Z" fill="#263238"/>
<path d="M183.865 51.2076C183.185 51.8785 182.274 52.2635 181.319 52.2836C180.073 52.2836 179.836 51.0891 180.504 50.0747C181.106 49.1647 182.476 48.065 183.575 48.5485C184.675 49.0319 184.699 50.3686 183.865 51.2076Z" fill="#E3A392"/>
<path d="M178.632 93.5027C178.632 93.5027 178.12 98.2427 177.461 104.694C176.707 111.993 175.769 121.469 175.176 128.692C175.174 128.726 175.174 128.759 175.176 128.792C175.063 130.162 174.958 131.446 174.878 132.622C174.029 144.401 172.034 178.676 172.034 178.676H165.635C165.635 178.676 163.222 143.699 163.364 131.712C163.502 120.184 165.336 93.5027 165.336 93.5027H178.632Z" fill="#407BFF"/>
<path d="M172.574 176.168C172.602 176.168 172.46 178.804 172.46 178.804H165.08L164.895 175.908L172.574 176.168Z" fill="#263238"/>
<path opacity="0.2" d="M177.461 104.708C176.707 112.008 175.769 121.483 175.176 128.707C175.174 128.74 175.174 128.773 175.176 128.806C173.754 121.962 173.333 113.444 173.878 99.4181L177.461 104.708Z" fill="black"/>
<path d="M172.536 93.5026C172.536 93.5026 175.484 120.81 177.323 131.631C179.333 143.481 187.277 178.676 187.277 178.676H194.203C194.203 178.676 189.534 144.439 188.624 132.698C187.633 119.961 185.595 93.4932 185.595 93.4932L172.536 93.5026Z" fill="#407BFF"/>
<path d="M194.269 176.325C194.297 176.325 194.506 178.804 194.506 178.804H186.898L186.344 176.04L194.269 176.325Z" fill="#263238"/>
<path d="M177.541 46.6335C177.466 46.9321 177.243 47.1407 177.067 47.1075C176.892 47.0743 176.783 46.7899 176.859 46.4913C176.935 46.1927 177.158 45.9794 177.333 46.0173C177.508 46.0552 177.617 46.3349 177.541 46.6335Z" fill="#263238"/>
<path d="M174.219 45.9036C174.143 46.2022 173.92 46.4108 173.745 46.3776C173.57 46.3444 173.461 46.0553 173.536 45.7566C173.612 45.458 173.835 45.2495 174.01 45.2826C174.186 45.3158 174.295 45.605 174.219 45.9036Z" fill="#263238"/>
<path d="M175.238 46.2828C174.649 47.1212 173.953 47.8783 173.166 48.5343C173.56 49.141 174.503 49.1125 174.503 49.1125L175.238 46.2828Z" fill="#E39E8A"/>
<path d="M178.698 46.2022C178.672 46.1935 178.648 46.1793 178.629 46.1604C178.609 46.1416 178.594 46.1186 178.584 46.0932C178.522 45.8816 178.409 45.6886 178.254 45.5315C178.099 45.3744 177.908 45.2579 177.698 45.1926C177.675 45.1876 177.653 45.1781 177.635 45.1645C177.616 45.1509 177.6 45.1336 177.588 45.1136C177.576 45.0936 177.568 45.0714 177.565 45.0483C177.562 45.0252 177.563 45.0017 177.57 44.9793C177.584 44.9333 177.614 44.894 177.655 44.8688C177.696 44.8435 177.745 44.8339 177.793 44.8418C178.06 44.9192 178.304 45.0626 178.502 45.2588C178.7 45.4551 178.846 45.698 178.925 45.9652C178.936 45.9973 178.938 46.0318 178.931 46.0649C178.924 46.098 178.907 46.1285 178.884 46.153C178.86 46.1775 178.831 46.195 178.798 46.2037C178.765 46.2124 178.73 46.2118 178.698 46.2022Z" fill="#263238"/>
<path d="M185.941 43.3629C185.95 43.3247 185.969 43.2894 185.995 43.2604C186.022 43.2314 186.055 43.2096 186.093 43.197C186.391 43.0997 186.661 42.9296 186.878 42.7021C187.095 42.4746 187.252 42.1967 187.334 41.8935C187.341 41.8613 187.354 41.8308 187.373 41.8039C187.392 41.7769 187.416 41.7541 187.444 41.7368C187.472 41.7195 187.503 41.7081 187.536 41.7033C187.568 41.6984 187.601 41.7003 187.633 41.7087C187.7 41.7246 187.758 41.7652 187.796 41.8224C187.834 41.8797 187.848 41.9491 187.837 42.0168C187.738 42.4009 187.544 42.7541 187.273 43.044C187.003 43.3338 186.663 43.551 186.287 43.6758C186.222 43.6991 186.151 43.6963 186.088 43.668C186.025 43.6397 185.976 43.5881 185.95 43.5241C185.931 43.4726 185.928 43.4164 185.941 43.3629Z" fill="#263238"/>
<path d="M188.121 44.2256C188.085 44.2371 188.046 44.2397 188.008 44.2331C187.97 44.2265 187.934 44.2109 187.903 44.1877C187.662 43.9871 187.374 43.8496 187.066 43.7875C186.759 43.7255 186.44 43.7408 186.14 43.8322C186.109 43.844 186.075 43.8494 186.042 43.8479C186.008 43.8464 185.975 43.838 185.945 43.8234C185.915 43.8088 185.888 43.7881 185.866 43.7627C185.844 43.7373 185.828 43.7077 185.818 43.6758C185.797 43.6115 185.801 43.5418 185.829 43.4804C185.857 43.419 185.907 43.3703 185.969 43.344C186.348 43.2208 186.751 43.1949 187.142 43.2686C187.533 43.3424 187.899 43.5133 188.207 43.7658C188.259 43.8094 188.293 43.8713 188.302 43.939C188.311 44.0067 188.294 44.0752 188.254 44.1308C188.222 44.1768 188.175 44.2103 188.121 44.2256Z" fill="#263238"/>
<path d="M173.039 44.5764C173.013 44.5675 172.989 44.5547 172.968 44.5384C172.951 44.5217 172.937 44.5018 172.928 44.4798C172.919 44.4578 172.914 44.4343 172.914 44.4105C172.914 44.3867 172.919 44.3631 172.928 44.3411C172.937 44.3192 172.951 44.2992 172.968 44.2825C173.157 44.0661 173.395 43.8971 173.662 43.7893C173.928 43.6815 174.217 43.6377 174.503 43.6615C174.526 43.6648 174.548 43.6729 174.568 43.6852C174.588 43.6975 174.604 43.7138 174.617 43.733C174.63 43.7522 174.639 43.7739 174.643 43.7967C174.647 43.8195 174.646 43.8429 174.641 43.8654C174.633 43.9128 174.606 43.9552 174.567 43.9836C174.528 44.0119 174.48 44.0239 174.432 44.017C174.205 44.0015 173.978 44.0393 173.768 44.1273C173.558 44.2154 173.372 44.3513 173.224 44.5242C173.201 44.549 173.171 44.567 173.138 44.5762C173.106 44.5854 173.071 44.5854 173.039 44.5764Z" fill="#263238"/>
<path d="M190.591 64.2237L185.808 67.1104C185.808 67.1104 191.771 78.785 191.112 80.6099C190.211 83.0936 188.846 88.5446 187.254 91.2844C187.405 91.8863 188.282 93.2846 188.804 93.5359C192.596 90.9289 196.781 82.5248 196.776 80.1501C196.772 74.737 190.591 64.2237 190.591 64.2237Z" fill="#E3A392"/>
<path d="M188.349 59.0618C191.899 59.5832 195.402 71.9735 195.402 71.9735L187.704 76.2158C187.704 76.2158 184.68 70.324 183.258 65.949C181.751 61.3607 184.538 58.5072 188.349 59.0618Z" fill="#407BFF"/>
<path opacity="0.4" d="M188.349 59.0618C191.899 59.5832 195.402 71.9735 195.402 71.9735L187.704 76.2158C187.704 76.2158 184.68 70.324 183.258 65.949C181.751 61.3607 184.538 58.5072 188.349 59.0618Z" fill="white"/>
<path d="M188.178 184.008C187.923 184.03 187.668 183.961 187.458 183.814C187.393 183.755 187.344 183.681 187.316 183.598C187.288 183.515 187.281 183.426 187.297 183.34C187.3 183.287 187.316 183.236 187.346 183.192C187.375 183.148 187.415 183.112 187.463 183.089C187.884 182.875 189.074 183.624 189.207 183.71C189.221 183.72 189.232 183.733 189.238 183.749C189.245 183.765 189.247 183.783 189.245 183.8C189.24 183.817 189.231 183.832 189.219 183.845C189.206 183.857 189.191 183.866 189.174 183.871C188.848 183.955 188.514 184.001 188.178 184.008ZM187.652 183.226C187.613 183.223 187.573 183.231 187.538 183.25C187.51 183.25 187.481 183.283 187.477 183.354C187.465 183.412 187.468 183.473 187.486 183.529C187.504 183.586 187.537 183.636 187.581 183.676C187.78 183.852 188.273 183.875 188.918 183.747C188.528 183.488 188.089 183.31 187.628 183.226H187.652Z" fill="#407BFF"/>
<path d="M189.126 183.866H189.088C188.704 183.653 187.988 182.823 188.088 182.401C188.105 182.335 188.143 182.276 188.197 182.234C188.252 182.192 188.318 182.169 188.387 182.169C188.454 182.16 188.522 182.166 188.586 182.185C188.651 182.205 188.71 182.238 188.761 182.283C189.183 182.643 189.235 183.733 189.235 183.781C189.235 183.797 189.231 183.812 189.224 183.826C189.216 183.84 189.205 183.852 189.192 183.861C189.172 183.871 189.148 183.873 189.126 183.866ZM188.439 182.335H188.396C188.282 182.335 188.268 182.406 188.263 182.425C188.202 182.676 188.657 183.302 189.031 183.596C189.023 183.183 188.891 182.782 188.652 182.444C188.625 182.414 188.592 182.39 188.555 182.373C188.519 182.356 188.479 182.346 188.439 182.344V182.335Z" fill="#407BFF"/>
<path d="M165.426 184.008C165.106 184.039 164.786 183.957 164.521 183.776C164.461 183.722 164.416 183.653 164.391 183.577C164.365 183.501 164.359 183.419 164.374 183.34C164.378 183.29 164.395 183.242 164.423 183.2C164.452 183.159 164.49 183.125 164.535 183.103C165.009 182.847 166.488 183.615 166.654 183.705C166.67 183.714 166.683 183.728 166.691 183.745C166.699 183.762 166.701 183.781 166.696 183.8C166.693 183.818 166.684 183.836 166.67 183.849C166.657 183.863 166.639 183.872 166.62 183.875C166.227 183.955 165.827 184 165.426 184.008ZM164.781 183.226C164.723 183.223 164.664 183.234 164.611 183.259C164.594 183.269 164.579 183.283 164.569 183.3C164.558 183.316 164.551 183.335 164.549 183.354C164.54 183.406 164.544 183.46 164.56 183.511C164.577 183.561 164.605 183.607 164.644 183.643C164.867 183.847 165.488 183.885 166.331 183.748C165.85 183.486 165.327 183.309 164.786 183.226H164.781Z" fill="#407BFF"/>
<path d="M166.611 183.866H166.573C166.128 183.662 165.26 182.847 165.35 182.416C165.374 182.316 165.45 182.193 165.696 182.169C165.781 182.16 165.868 182.169 165.949 182.195C166.031 182.221 166.106 182.264 166.17 182.321C166.644 182.714 166.687 183.743 166.687 183.776C166.688 183.792 166.685 183.807 166.679 183.821C166.672 183.835 166.662 183.848 166.649 183.857C166.637 183.863 166.624 183.866 166.611 183.866ZM165.763 182.335H165.706C165.544 182.335 165.53 182.416 165.526 182.435C165.473 182.695 166.056 183.335 166.507 183.615C166.488 183.189 166.334 182.78 166.066 182.449C165.98 182.38 165.873 182.343 165.763 182.344V182.335Z" fill="#407BFF"/>
<path d="M187.898 91.1137L184.315 90.8387L186.017 94.8109C186.017 94.8109 189.164 94.9483 189.809 92.5404L187.898 91.1137Z" fill="#E3A392"/>
<path d="M181.76 93.5785L182.547 95.1806C182.676 95.444 182.902 95.6467 183.179 95.7458C183.455 95.8449 183.758 95.8326 184.026 95.7115L186.016 94.8109L184.315 90.8387L182.191 92.1138C181.949 92.2595 181.77 92.4908 181.69 92.7621C181.61 93.0333 181.635 93.3247 181.76 93.5785Z" fill="#E3A392"/>
<path d="M150.315 89.502C149.1 89.9376 147.833 90.2148 146.547 90.3268C146.513 90.3282 146.48 90.3368 146.45 90.3523C146.42 90.3677 146.394 90.3895 146.373 90.4161C146.352 90.4427 146.337 90.4735 146.33 90.5064C146.322 90.5393 146.322 90.5734 146.329 90.6065C146.375 90.776 146.464 90.9306 146.588 91.0553C146.712 91.1799 146.866 91.2703 147.035 91.3175C147.433 91.4075 148.457 91.6019 148.68 91.6445C148.713 91.6509 148.744 91.6656 148.77 91.6872C149.395 92.1688 150.145 92.4615 150.931 92.5309C151.851 92.5309 150.931 90.3079 150.599 89.6158C150.576 89.5633 150.534 89.5219 150.481 89.5006C150.427 89.4793 150.368 89.4798 150.315 89.502Z" fill="#E3A392"/>
<path d="M71.209 56.6254C71.6213 59.1329 71.9768 63.707 70.1851 65.3139C71.5288 67.436 73.6479 68.9497 76.0911 69.5325C80.0159 67.5417 77.9208 65.5461 77.9208 65.5461C75.1621 64.8019 75.2948 62.7448 75.8399 60.8061L71.209 56.6254Z" fill="#FFC3BD"/>
<path d="M65.5541 71.6038C65.2603 74.0023 64.8811 76.3438 64.4118 78.7138C63.9425 81.0838 63.4306 83.4064 62.7481 85.748C62.402 86.9235 62.0039 88.118 61.5725 89.2082C61.1412 90.2984 60.7098 91.4265 60.2548 92.5262C59.3495 94.7208 58.392 96.8823 57.3539 99.0247L55.3536 98.309C55.8893 96.0054 56.4912 93.7207 57.1122 91.4502C57.7331 89.1798 58.4157 86.9235 58.9086 84.7479C59.4016 82.5722 59.8566 80.2449 60.2264 77.9554C60.5961 75.666 60.9611 73.3482 61.2976 71.0777L65.5541 71.6038Z" fill="#FFC3BD"/>
<path d="M62.9187 66.0533C61.2502 66.6885 59.6007 73.4335 59.6007 73.4335L66.2367 78.4769C66.2367 78.4769 68.6067 71.9072 67.7535 69.7553C66.8339 67.5132 64.8242 65.3281 62.9187 66.0533Z" fill="#407BFF"/>
<path d="M55.761 97.489L52.7369 100.869L57.0029 100.992C57.0029 100.992 58.3727 98.6692 57.4769 97.1998L55.761 97.489Z" fill="#FFC3BD"/>
<path opacity="0.2" d="M70.4198 100.581L32.2709 105.929C28.8851 106.403 26.5251 109.533 26.9998 112.919L31.6666 146.209C32.1413 149.595 35.2707 151.955 38.6565 151.48L76.8055 146.132C80.1912 145.658 82.5512 142.528 82.0766 139.142L77.4097 105.852C76.9351 102.466 73.8056 100.106 70.4198 100.581Z" fill="#407BFF"/>
<path d="M39.944 147.126C38.9584 147.125 38.0065 146.768 37.2629 146.121C36.5194 145.474 36.0341 144.58 35.896 143.604L31.7817 114.25C31.7068 113.718 31.7373 113.177 31.8716 112.657C32.006 112.137 32.2414 111.649 32.5645 111.22C32.8876 110.791 33.2921 110.431 33.7547 110.158C34.2174 109.886 34.7292 109.707 35.2609 109.633L68.5878 104.954C69.6618 104.806 70.7509 105.089 71.6163 105.742C72.4818 106.395 73.0529 107.365 73.2046 108.438L77.3236 137.793C77.4737 138.868 77.1911 139.958 76.5378 140.825C75.8846 141.691 74.9142 142.263 73.8397 142.415L40.5175 147.088C40.3273 147.113 40.1358 147.125 39.944 147.126ZM69.1566 105.182C68.9774 105.183 68.7985 105.196 68.621 105.22L35.2988 109.894C34.7989 109.963 34.3176 110.13 33.8825 110.386C33.4474 110.641 33.067 110.98 32.7631 111.383C32.4593 111.786 32.238 112.245 32.1118 112.734C31.9857 113.222 31.9573 113.731 32.0282 114.231L36.1472 143.576C36.2906 144.583 36.827 145.492 37.639 146.104C38.451 146.716 39.4724 146.981 40.4796 146.842L73.8065 142.154C74.8146 142.013 75.7255 141.477 76.3388 140.665C76.9521 139.853 77.2177 138.83 77.0771 137.822L72.9581 108.5C72.8302 107.582 72.3753 106.741 71.6769 106.131C70.9785 105.522 70.0836 105.185 69.1566 105.182Z" fill="white"/>
<path d="M52.5048 104.386L56.0788 104.3L57.0031 100.992L52.7371 100.869L52.5048 104.386Z" fill="#FFC3BD"/>
<path d="M85.3768 68.812C85.4716 71.4664 85.0119 77.6616 82.22 92.0901L65.1844 91.5829C65.6584 84.6578 65.8101 80.3823 62.9187 66.0533C65.32 65.6327 67.7484 65.3856 70.1851 65.3138C72.7659 65.2081 75.351 65.2857 77.9208 65.5461C79.8926 65.7831 82.0162 66.1955 83.4145 66.4941C83.9534 66.6059 84.4394 66.8948 84.795 67.3149C85.1507 67.735 85.3555 68.262 85.3768 68.812Z" fill="#407BFF"/>
<path d="M85.1304 69.5988C85.9267 71.8835 86.6377 74.154 87.3061 76.4623C87.9744 78.7707 88.6048 81.0791 89.1689 83.4159L89.3774 84.2928L89.4817 84.7336L89.5339 84.9517C89.5339 84.9517 89.5339 84.8995 89.5339 84.9043C89.5339 84.909 89.5339 84.9991 89.6666 85.1318C89.7962 85.3007 89.9388 85.4592 90.0932 85.6058C90.895 86.3262 91.7559 86.9779 92.667 87.5539C94.563 88.8006 96.6344 89.9761 98.6678 91.1184L97.862 93.0855C95.5079 92.3957 93.2153 91.511 91.008 90.4406C89.8375 89.8797 88.726 89.2033 87.69 88.4214C87.3892 88.1826 87.1042 87.9245 86.8368 87.6487C86.4862 87.2826 86.198 86.8615 85.9836 86.4021C85.9184 86.2478 85.863 86.0895 85.8177 85.9281L85.7514 85.7196L85.6281 85.2977L85.3722 84.4492C84.6864 82.2025 83.9849 79.9541 83.2676 77.7042L81.054 70.9782L85.1304 69.5988Z" fill="#FFC3BD"/>
<path d="M83.5282 66.5131C86.6661 67.1814 87.6804 73.7937 87.6804 73.7937L82.2911 78.7186C82.2911 78.7186 77.8781 71.2247 78.9256 69.1533C80.0158 66.9966 80.9781 65.9727 83.5282 66.5131Z" fill="#407BFF"/>
<path d="M97.6437 90.7013L101.91 92.3129L98.4495 94.6071C98.4495 94.6071 96.4018 93.3936 96.5535 91.6967L97.6437 90.7013Z" fill="#FFC3BD"/>
<path d="M103.578 94.5454L100.952 96.1997L98.4211 94.607L101.881 92.3129L103.578 94.5454Z" fill="#FFC3BD"/>
<path d="M80.6461 52.094C80.6745 52.4305 80.8784 52.6912 81.1201 52.6723C81.3618 52.6533 81.4993 52.3642 81.4709 52.0276C81.4424 51.6911 81.2433 51.4304 80.9969 51.4493C80.7504 51.4683 80.6224 51.7432 80.6461 52.094Z" fill="#263238"/>
<path d="M80.9021 51.4635L81.6937 51.1649C81.6937 51.1649 81.3287 51.8285 80.9021 51.4635Z" fill="#263238"/>
<path d="M80.9967 52.805C81.3601 53.5506 81.8242 54.2428 82.376 54.8622C82.2138 54.9987 82.0237 55.0983 81.8191 55.154C81.6144 55.2097 81.4001 55.2201 81.191 55.1845L80.9967 52.805Z" fill="#ED847E"/>
<path d="M79.338 51.2977C79.3799 51.3001 79.4214 51.2896 79.457 51.2675C79.4927 51.2455 79.5206 51.213 79.5371 51.1745C79.8831 50.3213 81.035 50.0463 81.0444 50.0416C81.0728 50.039 81.1002 50.0303 81.1249 50.0162C81.1497 50.0021 81.171 49.9828 81.1877 49.9597C81.2043 49.9366 81.2158 49.9102 81.2214 49.8823C81.2269 49.8544 81.2264 49.8256 81.22 49.7979C81.2135 49.7702 81.2011 49.7442 81.1837 49.7217C81.1663 49.6991 81.1443 49.6806 81.1191 49.6673C81.0939 49.654 81.0662 49.6463 81.0378 49.6446C81.0094 49.643 80.9809 49.6474 80.9544 49.6577C80.8975 49.6577 79.5893 49.9847 79.1674 51.0228C79.1573 51.047 79.1522 51.0731 79.1522 51.0993C79.1523 51.1256 79.1575 51.1516 79.1676 51.1758C79.1778 51.2001 79.1926 51.222 79.2113 51.2405C79.2299 51.259 79.2521 51.2736 79.2764 51.2835C79.2957 51.2926 79.3167 51.2975 79.338 51.2977Z" fill="#263238"/>
<path d="M69.1326 51.7812C69.7251 55.905 69.8863 57.6635 72.1567 59.6164C75.5648 62.5599 80.4991 60.9246 81.1627 56.7108C81.7458 52.9188 80.6888 46.8089 76.4844 45.4912C75.5611 45.1962 74.5777 45.1421 73.6276 45.334C72.6775 45.5258 71.7921 45.9573 71.0556 46.5874C70.3191 47.2176 69.7559 48.0255 69.4193 48.9345C69.0828 49.8434 68.9841 50.8233 69.1326 51.7812Z" fill="#FFC3BD"/>
<path d="M75.9963 44.3536C74.1525 42.0973 65.4783 42.2253 67.9383 48.0366C64.2838 48.539 64.3265 52.0893 64.6583 54.7674C64.9901 57.4455 61.8569 56.943 61.3165 60.2041C60.7762 63.4653 62.1603 63.7876 59.8661 66.3661C57.5719 68.9447 60.8805 74.2914 65.2318 72.9121C69.5831 71.5327 73.0433 74.244 78.4564 73.1681C83.8695 72.0921 84.3909 67.7313 83.1964 65.2807C82.0872 62.9913 80.5515 62.6547 80.8785 60.4696C81.3525 57.2511 79.248 54.1464 77.3662 53.1605C79.6319 51.0038 86.3485 44.4816 75.9963 44.3536Z" fill="#263238"/>
<path d="M77.5702 53.734C77.7054 54.0176 77.899 54.2693 78.1384 54.4727C78.3777 54.6761 78.6574 54.8266 78.959 54.9143C79.7316 55.1134 80.0919 54.2649 79.8549 53.4212C79.6463 52.6581 78.9874 51.639 78.2243 51.8238C77.4612 52.0087 77.2005 52.9899 77.5702 53.734Z" fill="#FFC3BD"/>
<path d="M47.6225 182.691C47.2625 182.686 46.9149 182.559 46.6366 182.33C46.5763 182.264 46.5332 182.184 46.5109 182.097C46.4885 182.011 46.4878 181.92 46.5086 181.833C46.5169 181.778 46.5391 181.727 46.5732 181.684C46.6072 181.64 46.652 181.607 46.7029 181.586C47.2433 181.359 48.8217 182.378 48.9971 182.491C49.0148 182.503 49.0285 182.519 49.0361 182.539C49.0438 182.559 49.0451 182.58 49.0397 182.6C49.0357 182.621 49.0252 182.639 49.0098 182.653C48.9944 182.666 48.975 182.675 48.9544 182.676C48.5118 182.722 48.066 182.727 47.6225 182.691ZM46.9684 181.743C46.9064 181.725 46.8407 181.725 46.7788 181.743C46.7578 181.75 46.7394 181.763 46.7259 181.781C46.7124 181.799 46.7045 181.82 46.7029 181.842C46.6887 181.899 46.6886 181.959 46.7026 182.016C46.7167 182.073 46.7444 182.125 46.7835 182.169C47.0158 182.42 47.6983 182.534 48.6368 182.472C48.1255 182.14 47.5613 181.896 46.9684 181.752V181.743Z" fill="#407BFF"/>
<path d="M48.9356 182.676C48.9217 182.68 48.9069 182.68 48.893 182.676C48.419 182.401 47.5279 181.401 47.6511 180.937C47.6795 180.828 47.7743 180.695 48.054 180.695C48.1527 180.694 48.2506 180.714 48.3412 180.753C48.4318 180.792 48.5132 180.85 48.5801 180.923C49.0541 181.397 49.0541 182.544 49.0541 182.591C49.0548 182.609 49.0503 182.626 49.041 182.642C49.0317 182.657 49.0181 182.669 49.002 182.676C48.9803 182.682 48.9574 182.682 48.9356 182.676ZM48.1109 180.88H48.054C47.8691 180.88 47.8502 180.951 47.8454 180.975C47.7696 181.254 48.3668 182.027 48.8408 182.397C48.8506 181.918 48.7097 181.449 48.4379 181.055C48.355 180.958 48.2381 180.895 48.1109 180.88Z" fill="#407BFF"/>
<path d="M48.6462 183.359H52.8411L55.0073 173.642H50.8124L48.6462 183.359Z" fill="#FFC3BD"/>
<path d="M48.6604 182.416L53.3293 181.766C53.3665 181.759 53.4049 181.759 53.4417 181.768C53.4786 181.777 53.5132 181.793 53.543 181.817C53.5728 181.84 53.5971 181.87 53.6142 181.904C53.6313 181.938 53.6409 181.975 53.6422 182.013L53.9503 185.734C53.9512 185.937 53.8804 186.134 53.7503 186.29C53.6203 186.446 53.4393 186.551 53.2393 186.587C51.6087 186.786 50.8314 186.795 48.7789 187.084C47.0824 187.389 45.3675 187.581 43.6455 187.658C41.9202 187.658 42.1382 185.918 42.9013 185.762C46.3331 185.056 46.7929 183.894 47.9494 182.795C48.1414 182.598 48.3899 182.465 48.6604 182.416Z" fill="#263238"/>
<g opacity="0.2">
<path opacity="0.2" d="M55.0073 173.642L53.8886 178.652H49.6937L50.8076 173.642H55.0073Z" fill="black"/>
</g>
<path d="M65.184 91.5829C60.5815 98.0814 57.9176 121.943 56.2633 134.717C54.5427 147.989 49.4946 177.694 49.4946 177.694H55.1826C55.1826 177.694 63.0178 147.6 65.9898 134.646C69.2746 120.35 76.105 91.5971 76.105 91.5971L65.184 91.5829Z" fill="#263238"/>
<path opacity="0.2" d="M69.9292 102.627C67.1563 111.008 67.0378 121.587 67.3554 128.697C69.0618 121.336 71.1853 112.325 72.9106 105.026L69.9292 102.627Z" fill="black"/>
<path d="M76.5555 183.165C76.9128 183.196 77.2703 183.106 77.5698 182.909C77.6354 182.85 77.6859 182.776 77.7173 182.693C77.7486 182.611 77.7598 182.522 77.75 182.435C77.7477 182.38 77.7312 182.328 77.7021 182.282C77.6729 182.236 77.6322 182.199 77.5841 182.174C77.0674 181.889 75.3942 182.747 75.2141 182.842C75.1964 182.853 75.1821 182.868 75.1729 182.887C75.1637 182.905 75.1599 182.926 75.1619 182.946C75.1648 182.967 75.1742 182.986 75.1888 183C75.2033 183.015 75.2222 183.024 75.2425 183.027C75.675 183.114 76.1145 183.16 76.5555 183.165ZM77.2997 182.297C77.3651 182.292 77.4306 182.306 77.4893 182.335C77.5087 182.344 77.5249 182.359 77.5359 182.378C77.5469 182.396 77.5521 182.418 77.5509 182.439C77.5611 182.498 77.5559 182.557 77.536 182.613C77.516 182.669 77.482 182.718 77.4371 182.757C77.1859 182.989 76.4891 183.027 75.5411 182.875C76.0891 182.581 76.6842 182.386 77.2997 182.297Z" fill="#407BFF"/>
<path d="M75.252 183.017H75.2946C75.7923 182.79 76.783 181.885 76.7166 181.411C76.7166 181.297 76.6171 181.159 76.3422 181.131C76.2437 181.121 76.1442 181.13 76.0497 181.16C75.9552 181.189 75.8676 181.237 75.7923 181.302C75.2614 181.742 75.1666 182.871 75.1619 182.918C75.1609 182.935 75.1643 182.953 75.1718 182.968C75.1792 182.984 75.1905 182.998 75.2046 183.008C75.2192 183.015 75.2356 183.019 75.252 183.017ZM76.2521 181.316H76.3137C76.4939 181.316 76.5033 181.406 76.5081 181.43C76.5555 181.714 75.8824 182.425 75.3752 182.733C75.4151 182.257 75.6023 181.804 75.9108 181.439C76.0059 181.358 76.1272 181.314 76.2521 181.316Z" fill="#407BFF"/>
<path d="M71.0712 183.359H75.2708L75.067 173.642H70.8674L71.0712 183.359Z" fill="#FFC3BD"/>
<path d="M75.6787 182.875H70.9624C70.8812 182.873 70.8021 182.901 70.7401 182.954C70.6781 183.006 70.6374 183.079 70.6258 183.16L70.0902 186.89C70.0795 186.985 70.089 187.08 70.1179 187.171C70.1469 187.262 70.1948 187.345 70.2584 187.416C70.322 187.487 70.3999 187.543 70.4869 187.582C70.574 187.62 70.6682 187.64 70.7633 187.639C72.4081 187.611 73.1997 187.511 75.271 187.511C76.5461 187.511 80.2101 187.644 81.9734 187.644C83.7367 187.644 83.8315 185.904 83.0968 185.748C79.8072 185.042 77.4846 184.065 76.3802 183.136C76.1838 182.97 75.9357 182.878 75.6787 182.875Z" fill="#263238"/>
<g opacity="0.2">
<path opacity="0.2" d="M75.0623 173.642L75.1713 178.652H70.9717L70.8674 173.642H75.0623Z" fill="black"/>
</g>
<path d="M82.2199 92.0901C82.2199 92.0901 80.4803 123.677 79.2811 136.423C78.0297 149.695 75.9631 177.661 75.9631 177.661H70.2751C70.2751 177.661 69.0332 149.155 69.9575 136.106C70.9624 121.886 67.2367 102.139 69.7157 91.7014C72.0478 91.7204 82.2199 92.0901 82.2199 92.0901Z" fill="#263238"/>
<path d="M69.8103 177.884H76.47L76.8018 175.268L69.5401 175.784L69.8103 177.884Z" fill="#407BFF"/>
<path d="M49.1015 177.884H55.7565L56.4248 175.102L49.0115 175.789L49.1015 177.884Z" fill="#407BFF"/>
<path d="M64.9376 90.578L64.4636 92.0901C64.402 92.2039 64.5347 92.3318 64.7338 92.3366L82.2718 92.858C82.4282 92.858 82.5562 92.7916 82.5704 92.6921L82.7695 91.1753C82.7695 91.0663 82.651 90.9762 82.4851 90.9715L65.2315 90.4548C65.1761 90.4486 65.12 90.4566 65.0685 90.4782C65.0171 90.4998 64.972 90.5341 64.9376 90.578Z" fill="#407BFF"/>
<path d="M67.218 92.5736H66.744C66.6492 92.5736 66.5828 92.5214 66.5876 92.4646L66.8672 90.488C66.8672 90.4311 66.9573 90.3884 67.0474 90.3884H67.5214C67.6162 90.3884 67.6825 90.4406 67.6778 90.4975L67.3981 92.474C67.3934 92.5309 67.3081 92.5783 67.218 92.5736Z" fill="#263238"/>
<path d="M80.978 92.986H80.504C80.4092 92.986 80.3428 92.9339 80.3523 92.8723L80.6272 90.9004C80.6272 90.8435 80.7173 90.7961 80.8073 90.8009H81.2813C81.3714 90.8009 81.4425 90.853 81.433 90.9099L81.1581 92.8817C81.1533 92.9434 81.0538 92.986 80.978 92.986Z" fill="#263238"/>
<path d="M74.1002 92.7774H73.6262C73.5361 92.7774 73.465 92.7205 73.4745 92.6637L73.7494 90.6918C73.7494 90.6302 73.8395 90.5875 73.9343 90.5923H74.4083C74.4983 90.5923 74.5694 90.6444 74.5599 90.706L74.285 92.6779C74.2708 92.7348 74.1902 92.7822 74.1002 92.7774Z" fill="#263238"/>
</svg>
