<svg width="232" height="232" viewBox="0 0 232 232" fill="none" xmlns="http://www.w3.org/2000/svg">
<path d="M116 198.388C165.686 198.388 205.965 196.036 205.965 193.135C205.965 190.234 165.686 187.883 116 187.883C66.3134 187.883 26.0347 190.234 26.0347 193.135C26.0347 196.036 66.3134 198.388 116 198.388Z" fill="#E6F1FF"/>
<path d="M184.695 193.135H130.5C129.745 193.144 128.996 192.994 128.302 192.697C127.608 192.4 126.983 191.962 126.468 191.41C125.952 190.859 125.557 190.205 125.308 189.493C125.059 188.78 124.961 188.023 125.02 187.27L132.583 72.6299C132.71 71.0504 133.42 69.5747 134.575 68.4904C135.731 67.4061 137.249 66.791 138.833 66.7649H193.024C193.778 66.7574 194.526 66.9071 195.22 67.2044C195.914 67.5017 196.538 67.9401 197.053 68.4918C197.568 69.0434 197.962 69.6962 198.211 70.4087C198.46 71.1211 198.558 71.8775 198.499 72.6299L190.945 187.27C190.818 188.85 190.108 190.326 188.953 191.41C187.797 192.494 186.279 193.109 184.695 193.135Z" fill="#263238"/>
<path d="M196.105 97.5931H189.544C189.362 97.595 189.181 97.5589 189.014 97.4872C188.846 97.4155 188.696 97.3097 188.571 97.1766C188.447 97.0435 188.352 96.886 188.291 96.714C188.231 96.5421 188.207 96.3595 188.222 96.1779L188.876 86.2483C188.912 85.8708 189.087 85.52 189.366 85.2631C189.645 85.0063 190.009 84.8614 190.388 84.8563H196.945C197.125 84.8547 197.303 84.8902 197.469 84.9605C197.635 85.0308 197.784 85.1344 197.908 85.265C198.032 85.3955 198.128 85.5502 198.19 85.7193C198.252 85.8885 198.278 86.0686 198.267 86.2483L197.613 96.1779C197.583 96.5592 197.412 96.9156 197.133 97.1774C196.854 97.4391 196.487 97.5874 196.105 97.5931Z" fill="#263238"/>
<path d="M153.018 65.1409H150.619V65.6049H153.018V65.1409Z" fill="#407BFF"/>
<path d="M147.663 65.1409H138.94V65.6049H147.663V65.1409Z" fill="#407BFF"/>
<path d="M183.869 193.135H129.674C128.919 193.143 128.171 192.993 127.477 192.696C126.783 192.399 126.159 191.96 125.643 191.409C125.128 190.857 124.733 190.204 124.484 189.492C124.234 188.779 124.135 188.023 124.194 187.27L131.776 72.6299C131.902 71.0504 132.613 69.5747 133.768 68.4904C134.924 67.4061 136.442 66.791 138.026 66.7649H192.221C192.973 66.762 193.717 66.915 194.407 67.2143C195.097 67.5136 195.717 67.9527 196.229 68.5038C196.74 69.055 197.132 69.7062 197.379 70.4164C197.626 71.1266 197.723 71.8803 197.664 72.6299L190.119 187.27C189.993 188.85 189.282 190.326 188.127 191.41C186.971 192.494 185.453 193.109 183.869 193.135Z" fill="#407BFF"/>
<path d="M186.328 179.781H128.992C128.563 179.786 128.138 179.701 127.743 179.532C127.349 179.364 126.994 179.115 126.701 178.801C126.408 178.488 126.184 178.117 126.042 177.712C125.901 177.307 125.845 176.878 125.878 176.45L132.462 76.6435C132.534 75.7486 132.935 74.9121 133.588 74.2964C134.242 73.6807 135.1 73.3299 135.998 73.312H193.349C193.777 73.3075 194.203 73.3923 194.597 73.561C194.991 73.7297 195.346 73.9787 195.639 74.2921C195.932 74.6055 196.156 74.9764 196.298 75.3812C196.44 75.786 196.495 76.2159 196.462 76.6435L189.878 176.45C189.806 177.347 189.403 178.186 188.747 178.802C188.091 179.418 187.228 179.767 186.328 179.781Z" fill="white"/>
<path d="M175.633 73.312H164.247L136.662 179.781H148.048L175.633 73.312Z" fill="#FAFAFA"/>
<path d="M185.665 73.312H179.972L152.387 179.781H158.08L185.665 73.312Z" fill="#FAFAFA"/>
<path d="M178.102 146.791L165.722 99.9687C165.391 98.7239 164.58 97.6611 163.467 97.0132C162.353 96.3653 161.029 96.185 159.783 96.5119L130.495 104.251L126.588 165.435L174.645 152.735C175.889 152.402 176.951 151.589 177.599 150.476C178.247 149.362 178.427 148.037 178.102 146.791Z" fill="#F0F0F0"/>
<path opacity="0.2" d="M159.733 187.708C161.221 186.269 161.335 183.973 159.988 182.58C158.641 181.188 156.343 181.226 154.855 182.666C153.367 184.106 153.252 186.401 154.599 187.794C155.946 189.186 158.244 189.148 159.733 187.708Z" fill="white"/>
<path opacity="0.2" d="M166.404 69.8505C166.372 70.2548 166.19 70.6325 165.894 70.9097C165.597 71.1869 165.209 71.3436 164.803 71.3493C164.611 71.3498 164.421 71.3106 164.245 71.2341C164.068 71.1575 163.91 71.0453 163.779 70.9046C163.648 70.7638 163.548 70.5975 163.485 70.4161C163.421 70.2347 163.396 70.0421 163.411 69.8505C163.442 69.4459 163.624 69.0676 163.92 68.7902C164.217 68.5128 164.606 68.3564 165.012 68.3518C165.204 68.3512 165.394 68.3905 165.57 68.467C165.747 68.5435 165.905 68.6557 166.036 68.7965C166.167 68.9373 166.267 69.1036 166.33 69.285C166.394 69.4664 166.419 69.659 166.404 69.8505Z" fill="white"/>
<path opacity="0.2" d="M165.727 69.8506C165.71 70.073 165.611 70.2813 165.449 70.4342C165.287 70.5871 165.073 70.6736 164.85 70.6765C164.743 70.6782 164.638 70.6575 164.54 70.6158C164.442 70.5742 164.354 70.5124 164.281 70.4346C164.209 70.3568 164.153 70.2646 164.118 70.164C164.084 70.0634 164.07 69.9566 164.079 69.8506C164.096 69.6281 164.195 69.4198 164.357 69.2669C164.52 69.114 164.733 69.0275 164.956 69.0246C165.063 69.0229 165.168 69.0436 165.266 69.0853C165.364 69.1269 165.452 69.1887 165.525 69.2665C165.598 69.3443 165.653 69.4365 165.688 69.5371C165.722 69.6377 165.736 69.7445 165.727 69.8506Z" fill="white"/>
<path d="M78.5644 64.0599C80.2951 59.805 79.6734 54.6221 74.7642 53.4621C73.6825 53.1834 72.5505 53.1621 71.459 53.3998C70.3675 53.6375 69.3468 54.1276 68.4789 54.8309C67.611 55.5341 66.9199 56.431 66.4611 57.4495C66.0023 58.468 65.7885 59.5798 65.8369 60.6959C66.0318 65.3359 69.0849 69.201 63.735 72.565C58.3851 75.929 58.9558 86.0674 69.303 84.1093C79.6502 82.1512 74.059 76.8291 74.059 76.8291C74.059 76.8291 71.5209 78.8986 70.7042 76.792C69.6695 74.0637 76.5599 69.0386 78.5644 64.0599Z" fill="#263238"/>
<path d="M60.3574 78.017L60.13 77.966C60.8214 74.8711 61.9071 74.073 63.0532 73.2285C64.1993 72.3841 65.2851 71.5813 66.162 68.5375C66.575 67.1037 66.3151 65.5169 66.0599 63.9857C65.7351 62.0322 65.4011 60.0092 66.4079 58.1996L66.6075 58.3156C65.6423 60.0509 65.9718 62.0276 66.2873 63.9485C66.5471 65.5076 66.8163 67.1177 66.3847 68.5885C65.4892 71.7066 64.3199 72.565 63.1924 73.4002C62.0649 74.2354 61.0302 75.0103 60.3574 78.017Z" fill="#263238"/>
<path d="M91.7423 87.4315C91.7747 87.5893 91.8304 87.8259 91.8815 88.0394L92.0439 88.6936C92.1552 89.1344 92.2805 89.5752 92.4104 90.016C92.6749 90.893 92.9579 91.7792 93.2642 92.6515C93.8766 94.4069 94.5766 96.1305 95.3615 97.8158L95.9461 99.0362C96.045 99.2543 96.1853 99.4513 96.3591 99.6162C96.8805 100.036 97.5029 100.311 98.164 100.414C99.8989 100.695 101.668 100.695 103.403 100.414L104.029 102.386C103.549 102.598 103.058 102.784 102.558 102.943C102.061 103.108 101.557 103.248 101.045 103.361C99.9811 103.606 98.8887 103.707 97.7975 103.662C96.5133 103.626 95.2648 103.232 94.1922 102.525C93.5887 102.107 93.0797 101.566 92.6981 100.939L92.6239 100.823L92.5775 100.744L92.4847 100.577L92.2944 100.252L91.9186 99.593C90.9476 97.8232 90.0951 95.991 89.3666 94.1085C89.0139 93.1805 88.6659 92.2107 88.3829 91.2317C88.2437 90.7677 88.1045 90.2526 87.9792 89.7515C87.8539 89.2504 87.7426 88.7771 87.6405 88.1832L91.7423 87.4315Z" fill="#FFC3BD"/>
<path d="M88.1601 80.9448C92.8419 83.0328 92.8001 90.0485 92.8001 90.0485L87.8678 93.0135C87.8678 93.0135 84.1558 87.5197 84.4342 85.0234C84.708 82.4204 85.5061 79.7709 88.1601 80.9448Z" fill="#407BFF"/>
<path opacity="0.2" d="M88.8979 86.9304C87.6173 85.6359 86.4898 87.13 85.4597 88.7864C86.1662 90.2511 86.9707 91.6665 87.8679 93.0227L89.8909 91.8071C90.2899 90.2619 90.1739 88.2296 88.8979 86.9304Z" fill="black"/>
<path d="M102.916 100.591L106.21 98.948L106.247 103.259C106.247 103.259 103.788 103.685 102.15 101.959L102.916 100.591Z" fill="#FFC3BD"/>
<path d="M109.75 99.7136L109.184 102.915L106.247 103.259L106.21 98.948L109.75 99.7136Z" fill="#FFC3BD"/>
<path d="M72.7601 189.711L76.8341 190.101L78.7318 180.621L74.6579 180.232L72.7601 189.711Z" fill="#FFC3BD"/>
<path d="M46.0477 178.598L49.3607 181.011L54.8869 173.169L51.5693 170.757L46.0477 178.598Z" fill="#FFC3BD"/>
<path d="M50.5762 179.503L47.8479 175.768C47.8025 175.702 47.7343 175.655 47.6563 175.636C47.5784 175.617 47.4962 175.628 47.4256 175.666L44.1544 177.401C44.0736 177.448 44.0036 177.511 43.9489 177.587C43.8943 177.663 43.8564 177.75 43.8375 177.841C43.8187 177.933 43.8194 178.027 43.8396 178.119C43.8599 178.21 43.8992 178.296 43.9549 178.371C44.9293 179.656 45.4629 180.227 46.6647 181.874C47.4071 182.886 48.8919 185.229 49.9127 186.625C50.9335 188.022 52.3672 187.089 52.0703 186.417C50.7247 183.396 50.6783 181.628 50.7804 180.213C50.7998 179.959 50.7273 179.707 50.5762 179.503Z" fill="#263238"/>
<path d="M77.3723 188.871H72.4817C72.3938 188.871 72.3083 188.9 72.2387 188.954C72.1691 189.008 72.1191 189.083 72.0966 189.168L71.034 193.024C71.008 193.115 71.0036 193.211 71.0213 193.305C71.039 193.398 71.0783 193.486 71.136 193.561C71.1938 193.636 71.2683 193.697 71.3537 193.738C71.4392 193.78 71.5331 193.8 71.628 193.799C73.354 193.799 74.1707 193.799 76.319 193.799H82.8939C84.6803 193.799 85.0515 191.994 84.3137 191.827C81.0007 191.094 79.0891 190.082 78.0636 189.117C77.8726 188.951 77.6255 188.863 77.3723 188.871Z" fill="#263238"/>
<path opacity="0.2" d="M78.7319 180.626L77.7529 185.512H73.6001L74.658 180.236L78.7319 180.626Z" fill="black"/>
<path opacity="0.2" d="M51.569 170.757L54.8866 173.174L52.0376 177.216L48.72 174.798L51.569 170.757Z" fill="black"/>
<path d="M90.0903 84.6429C89.8026 87.7749 88.7633 93.9229 85.7241 105.936L69.0479 104.493C69.8506 98.2335 70.2265 94.1781 68.6581 82.3276C68.6072 81.9359 68.6373 81.5378 68.7466 81.1583C68.8559 80.7787 69.0421 80.4256 69.2936 80.121C69.5451 79.8164 69.8565 79.5668 70.2086 79.3876C70.5606 79.2085 70.9458 79.1036 71.3401 79.0796C72.5418 79.0146 73.9709 78.9728 75.4047 79.0285C77.9412 79.0665 80.4718 79.2851 82.9772 79.6828C84.4481 79.9472 86.0164 80.3277 87.2924 80.6618C88.1541 80.8875 88.908 81.4113 89.4202 82.1401C89.9324 82.8689 90.1698 83.7557 90.0903 84.6429Z" fill="#407BFF"/>
<path opacity="0.2" d="M69.0851 85.7983C69.2985 87.6543 69.4563 89.3107 69.5491 90.7955C71.0849 90.661 72.2171 88.9767 72.3331 85.4549C71.7577 83.752 70.3889 84.3691 69.0851 85.7983Z" fill="black"/>
<path d="M85.7243 105.936C85.7243 105.936 91.3665 130.899 87.5803 148.499C85.0608 160.284 79.451 184.092 79.451 184.092L72.3379 183.911C72.3379 183.911 75.7344 158.925 77.1589 149.111C79.5949 132.305 73.4933 104.896 73.4933 104.896L85.7243 105.936Z" fill="#263238"/>
<path opacity="0.2" d="M79.2188 110.98L75.6599 116.589C76.7316 123.241 77.4117 129.949 77.6969 136.681C82.6988 127.725 80.3278 115.717 79.2188 110.98Z" fill="black"/>
<path d="M80.4719 184.463L71.6837 184.241L72.1941 181.54L81.1586 181.962L80.4719 184.463Z" fill="#407BFF"/>
<path d="M82.0774 105.671C82.0774 105.671 78.7691 132.143 71.591 146.596C65.7956 158.27 53.6713 176.826 53.6713 176.826L49.2401 173.276C49.2401 173.276 56.8219 152.753 61.1278 145C71.6931 125.976 63.058 111.476 69.0483 104.493L82.0774 105.671Z" fill="#263238"/>
<path d="M151.472 82.1141L72.6027 115.251C70.1268 116.292 68.9629 119.142 70.0032 121.618L88.7619 166.265C89.8022 168.741 92.6527 169.905 95.1286 168.865L173.998 135.727C176.474 134.687 177.637 131.836 176.597 129.361L157.838 84.7136C156.798 82.2376 153.948 81.0738 151.472 82.1141Z" fill="#407BFF"/>
<path opacity="0.1" d="M151.472 82.1141L72.6027 115.251C70.1268 116.292 68.9629 119.142 70.0032 121.618L88.7619 166.265C89.8022 168.741 92.6527 169.905 95.1286 168.865L173.998 135.727C176.474 134.687 177.637 131.836 176.597 129.361L157.838 84.7136C156.798 82.2376 153.948 81.0738 151.472 82.1141Z" fill="black"/>
<path opacity="0.2" d="M94.3576 113.264L78.9149 119.752C77.7242 120.252 77.1645 121.623 77.6648 122.814L80.9197 130.561C81.42 131.752 82.7908 132.311 83.9816 131.811L99.4243 125.323C100.615 124.822 101.175 123.452 100.674 122.261L97.4194 114.514C96.9191 113.323 95.5483 112.763 94.3576 113.264Z" fill="white"/>
<path opacity="0.4" d="M105.194 143.887L90.0635 150.244C89.617 150.432 89.4071 150.946 89.5947 151.392L90.7432 154.126C90.9308 154.572 91.4449 154.782 91.8914 154.595L107.022 148.238C107.468 148.05 107.678 147.536 107.491 147.089L106.342 144.356C106.155 143.909 105.64 143.7 105.194 143.887Z" fill="white"/>
<path opacity="0.4" d="M124.879 135.619L109.749 141.976C109.303 142.163 109.093 142.677 109.28 143.124L110.429 145.857C110.616 146.304 111.13 146.514 111.577 146.326L126.707 139.969C127.154 139.781 127.364 139.267 127.176 138.821L126.028 136.087C125.84 135.641 125.326 135.431 124.879 135.619Z" fill="white"/>
<path opacity="0.4" d="M144.56 127.35L129.43 133.707C128.983 133.895 128.773 134.409 128.961 134.855L130.11 137.589C130.297 138.035 130.811 138.245 131.258 138.057L146.388 131.7C146.835 131.513 147.045 130.999 146.857 130.552L145.708 127.819C145.521 127.372 145.007 127.162 144.56 127.35Z" fill="white"/>
<path opacity="0.4" d="M164.246 119.081L149.115 125.438C148.669 125.626 148.459 126.14 148.646 126.586L149.795 129.32C149.982 129.766 150.497 129.976 150.943 129.789L166.073 123.432C166.52 123.244 166.73 122.73 166.542 122.283L165.394 119.55C165.206 119.103 164.692 118.894 164.246 119.081Z" fill="white"/>
<g opacity="0.6">
<path opacity="0.6" d="M150.556 103.756C154.073 102.927 156.251 99.4035 155.422 95.8867C154.592 92.3699 151.069 90.1913 147.552 91.0207C144.035 91.8501 141.857 95.3734 142.686 98.8902C143.516 102.407 147.039 104.586 150.556 103.756Z" fill="#263238"/>
<path opacity="0.6" d="M146.36 104.629C148.527 101.738 147.941 97.6369 145.05 95.4694C142.159 93.302 138.058 93.8885 135.891 96.7795C133.723 99.6705 134.31 103.771 137.201 105.939C140.092 108.106 144.192 107.52 146.36 104.629Z" fill="white"/>
</g>
<path d="M54.135 177.318L48.451 173.016L49.8477 170.52L55.889 175.206L54.135 177.318Z" fill="#407BFF"/>
<path d="M68.8808 103.495L67.9992 104.924C67.9296 105.031 68.0596 105.166 68.2498 105.18L85.7426 106.692C85.8911 106.692 86.021 106.641 86.0395 106.548L86.318 105.068C86.3412 104.966 86.2159 104.869 86.0535 104.855L69.1639 103.393C69.1119 103.385 69.0587 103.39 69.0092 103.408C68.9597 103.426 68.9155 103.456 68.8808 103.495Z" fill="#407BFF"/>
<path opacity="0.5" d="M68.8808 103.495L67.9992 104.924C67.9296 105.031 68.0596 105.166 68.2498 105.18L85.7426 106.692C85.8911 106.692 86.021 106.641 86.0395 106.548L86.318 105.068C86.3412 104.966 86.2159 104.869 86.0535 104.855L69.1639 103.393C69.1119 103.385 69.0587 103.39 69.0092 103.408C68.9597 103.426 68.9155 103.456 68.8808 103.495Z" fill="black"/>
<path d="M70.9923 105.579L70.5283 105.541C70.4401 105.541 70.3751 105.481 70.3844 105.425L70.7649 103.504C70.7649 103.444 70.8577 103.407 70.9505 103.416L71.4145 103.453C71.5073 103.453 71.5723 103.514 71.5584 103.569L71.1779 105.49C71.1593 105.546 71.0758 105.588 70.9923 105.579Z" fill="#407BFF"/>
<path d="M84.4483 106.743L83.9843 106.706C83.8962 106.706 83.8312 106.646 83.8405 106.59L84.221 104.669C84.2377 104.636 84.265 104.609 84.2986 104.593C84.3322 104.577 84.3702 104.573 84.4066 104.581L84.8706 104.618C84.9634 104.618 85.0283 104.678 85.0144 104.734L84.6339 106.655C84.6293 106.72 84.5458 106.752 84.4483 106.743Z" fill="#407BFF"/>
<path d="M77.7203 106.163L77.2563 106.121C77.1635 106.121 77.0986 106.061 77.1125 106.005L77.493 104.085C77.493 104.029 77.5858 103.987 77.6739 103.996L78.1379 104.038C78.2261 104.038 78.291 104.098 78.2818 104.154L77.9013 106.075C77.892 106.131 77.8131 106.168 77.7203 106.163Z" fill="#407BFF"/>
<path d="M51.6153 181.568C51.5631 181.577 51.5098 181.577 51.4576 181.568C50.9518 181.466 50.5296 180.607 50.3069 180.106C50.2981 180.093 50.2934 180.078 50.2934 180.062C50.2934 180.047 50.2981 180.031 50.3069 180.018C50.3189 180.009 50.3336 180.004 50.3486 180.004C50.3637 180.004 50.3783 180.009 50.3904 180.018C50.5481 180.074 51.9309 180.607 52.0376 181.113C52.0504 181.168 52.0476 181.225 52.0296 181.279C52.0115 181.332 51.979 181.379 51.9355 181.415C51.8478 181.499 51.7356 181.552 51.6153 181.568ZM50.5342 180.213C50.8497 180.904 51.2024 181.345 51.4901 181.401C51.555 181.411 51.6214 181.404 51.6831 181.381C51.7447 181.359 51.7996 181.321 51.8427 181.271C51.8659 181.254 51.8835 181.23 51.8934 181.203C51.9033 181.176 51.905 181.146 51.8984 181.118C51.8334 180.807 51.0121 180.408 50.5342 180.213Z" fill="#407BFF"/>
<path d="M51.6574 180.278C51.2163 180.333 50.7686 180.285 50.3489 180.139C50.3361 180.133 50.325 180.124 50.3169 180.113C50.3087 180.101 50.3038 180.088 50.3025 180.074C50.3007 180.06 50.3028 180.045 50.3085 180.032C50.3142 180.019 50.3234 180.008 50.335 179.999C50.3768 179.972 51.3326 179.276 51.908 179.406C51.979 179.419 52.0462 179.448 52.1048 179.491C52.1633 179.533 52.2118 179.588 52.2467 179.651C52.2926 179.71 52.3176 179.782 52.3176 179.856C52.3176 179.93 52.2926 180.002 52.2467 180.06C52.0816 180.199 51.8732 180.276 51.6574 180.278ZM50.5763 180.032C51.0403 180.167 51.908 180.176 52.1214 179.939C52.1585 179.902 52.191 179.842 52.1214 179.721C52.0985 179.678 52.0662 179.641 52.0268 179.612C51.9874 179.583 51.9421 179.563 51.894 179.554C51.5043 179.475 50.8361 179.86 50.5763 180.032Z" fill="#407BFF"/>
<path d="M79.5438 189.66C79.0939 189.649 78.6463 189.593 78.2075 189.493C78.1926 189.487 78.1799 189.476 78.171 189.462C78.1621 189.449 78.1573 189.433 78.1573 189.416C78.1573 189.4 78.1621 189.384 78.171 189.371C78.1799 189.357 78.1926 189.346 78.2075 189.34C78.4116 189.242 80.1841 188.412 80.6296 188.727C80.6709 188.754 80.7038 188.791 80.7244 188.836C80.7449 188.88 80.7523 188.929 80.7456 188.978C80.7445 189.069 80.7221 189.158 80.6802 189.239C80.6383 189.319 80.578 189.389 80.5043 189.442C80.2156 189.615 79.879 189.692 79.5438 189.66ZM78.4859 189.382C79.0148 189.479 79.9892 189.609 80.3883 189.307C80.44 189.267 80.4825 189.215 80.5129 189.157C80.5433 189.099 80.5609 189.034 80.5646 188.969C80.5646 188.904 80.5646 188.876 80.5228 188.862C80.2723 188.69 79.2236 189.057 78.4859 189.382Z" fill="#407BFF"/>
<path d="M78.226 189.493C78.2096 189.499 78.1914 189.499 78.175 189.493C78.1629 189.484 78.1539 189.472 78.1489 189.458C78.1439 189.444 78.1433 189.428 78.1471 189.414C78.1471 189.335 78.5647 187.586 79.5391 187.697C79.7804 187.73 79.8454 187.846 79.8593 187.943C79.9196 188.407 78.8014 189.289 78.2631 189.507L78.226 189.493ZM79.4417 187.836C78.8246 187.836 78.4673 188.857 78.3467 189.266C78.9267 188.959 79.7387 188.231 79.6876 187.948C79.6876 187.925 79.6876 187.86 79.5067 187.841L79.4417 187.836Z" fill="#407BFF"/>
<path d="M70.895 85.8818L70.6491 86.2298L70.38 86.6242C70.199 86.8933 70.018 87.1671 69.8464 87.4501C69.4937 88.0069 69.1736 88.5869 68.8488 89.1669C68.2074 90.3336 67.6432 91.541 67.1598 92.7815C66.6725 94.0146 66.2648 95.2777 65.9395 96.5631L65.7214 97.4911C65.7214 97.4632 65.6936 97.5607 65.7446 97.737C65.9043 98.2329 66.1373 98.7021 66.436 99.129C67.1855 100.207 68.0269 101.217 68.9509 102.15C69.8789 103.133 70.9089 104.084 71.9344 105.031C72.9598 105.978 74.0363 106.887 75.1128 107.783C76.1893 108.678 77.2889 109.583 78.3608 110.455L77.2008 112.167C74.7153 110.693 72.3157 109.079 70.0134 107.333C68.8534 106.46 67.7166 105.541 66.6169 104.549C65.4638 103.538 64.4118 102.417 63.4757 101.203C62.9146 100.49 62.4756 99.6887 62.1764 98.832C61.9734 98.2357 61.9052 97.6018 61.9769 96.976V96.8461V96.7765L62.0001 96.6373L62.0465 96.3543L62.144 95.7928C62.417 94.2983 62.8016 92.8264 63.2947 91.3895C63.8046 89.9596 64.4076 88.5646 65.0997 87.2135C65.4477 86.536 65.8281 85.8818 66.2364 85.2368C66.436 84.912 66.6448 84.5919 66.8629 84.2717L67.2062 83.8077C67.3268 83.6453 67.4289 83.5015 67.5913 83.3019L70.895 85.8818Z" fill="#FFC3BD"/>
<path d="M70.4815 79.344C67.2985 80.1792 64.2268 87.8955 64.2268 87.8955L68.3471 91.6632C68.3471 91.6632 74.8199 85.7611 74.6018 83.0978C74.4209 80.8334 73.0382 78.6666 70.4815 79.344Z" fill="#407BFF"/>
<path opacity="0.2" d="M75.4047 78.8801C74.8216 78.9991 74.2272 79.0536 73.6322 79.0425C73.5069 81.3346 74.9778 83.5479 78.5924 86.5175C79.4601 83.8124 81.3764 83.2277 81.3764 83.2277L75.4047 78.8801Z" fill="black"/>
<path opacity="0.2" d="M82.9774 79.6085C82.9774 79.6085 83.3996 79.6688 84.4065 79.9008C85.0793 80.9356 85.9516 84.1232 83.9703 86.3968C83.2001 83.6128 81.3627 83.2602 81.3627 83.2602L82.9774 79.6085Z" fill="black"/>
<path d="M75.4048 78.8801C75.4048 78.8801 74.4768 78.8801 73.3447 78.8801C72.6719 79.9148 74.9872 82.7823 78.5971 85.7519C79.4648 83.0468 81.3811 83.2092 81.3811 83.2092L75.4048 78.8801Z" fill="white"/>
<path d="M82.9774 79.6085C82.9774 79.6085 83.3996 79.6688 84.4065 79.9008C85.0793 80.9356 86.5316 83.7381 84.5503 85.9932C83.7801 83.2092 81.3627 83.2463 81.3627 83.2463L82.9774 79.6085Z" fill="white"/>
<path d="M76.8941 70.5512C77.1632 73.029 77.2514 77.5112 75.4047 79.0146C75.4047 79.0146 76.3651 81.7986 81.3624 83.2462C84.3692 81.5109 82.9772 79.6688 82.9772 79.6688C80.3184 78.7872 80.5644 76.7781 81.2 74.9221L76.8941 70.5512Z" fill="#FFC3BD"/>
<path opacity="0.2" d="M78.6479 72.3376L81.1999 74.9221C81.0436 75.3517 80.9256 75.7942 80.8473 76.2445C79.8219 76.0079 78.337 74.9407 78.3231 73.8456C78.342 73.3278 78.4519 72.8173 78.6479 72.3376Z" fill="black"/>
<path d="M82.5367 60.6495C83.3487 59.754 84.9588 60.8954 85.5527 63.0901C86.4436 66.3381 84.0679 66.5701 82.8244 64.9461C81.5809 63.3221 81.8593 61.3965 82.5367 60.6495Z" fill="#263238"/>
<path d="M85.0513 66.352C85.866 66.6339 86.6363 67.0308 87.3388 67.5306C86.9351 66.5469 86.5732 65.9483 85.0513 66.352Z" fill="#263238"/>
<path d="M85.52 66.5052C86.1796 66.3739 86.8544 66.3364 87.5245 66.3938C86.8656 65.8881 86.3877 65.6375 85.52 66.5052Z" fill="#263238"/>
<path d="M74.7042 66.6815C75.739 70.6394 76.0962 72.3376 78.5183 73.9941C82.17 76.4904 86.8053 74.356 86.977 70.1661C87.1301 66.3984 85.4133 60.5613 81.177 59.7354C80.2435 59.5459 79.2769 59.599 78.3698 59.8898C77.4626 60.1806 76.6453 60.6992 75.9958 61.3961C75.3464 62.0931 74.8866 62.9449 74.6605 63.8703C74.4344 64.7957 74.4494 65.7636 74.7042 66.6815Z" fill="#FFC3BD"/>
<path d="M76.6156 61.4615L75.4695 62.7932C75.1256 63.1866 74.6406 63.4287 74.1194 63.4669C73.5983 63.5051 73.0831 63.3364 72.6855 62.9973C72.2914 62.6541 72.0484 62.1694 72.0094 61.6482C71.9703 61.127 72.1382 60.6115 72.4767 60.2133L73.6228 58.8863C73.9667 58.4932 74.4513 58.2511 74.972 58.212C75.4928 58.1729 76.0081 58.3401 76.4068 58.6775C76.7998 59.0214 77.042 59.506 77.0811 60.0267C77.1201 60.5475 76.953 61.0628 76.6156 61.4615Z" fill="white"/>
<path d="M77.6736 62.9463L76.2816 63.6423C75.7103 63.9221 75.0514 63.9645 74.449 63.7602C73.8465 63.5559 73.3493 63.1215 73.0661 62.5519C72.786 61.9799 72.7435 61.3204 72.9478 60.7171C73.152 60.1139 73.5865 59.6159 74.1565 59.3317L75.5485 58.6357C76.121 58.356 76.781 58.3142 77.3843 58.5193C77.9876 58.7245 78.4853 59.16 78.7686 59.7308C79.0481 60.3026 79.0898 60.9619 78.8846 61.5645C78.6794 62.167 78.244 62.6638 77.6736 62.9463Z" fill="#407BFF"/>
<path d="M75.892 69.6418C75.892 69.6418 78.7502 68.9876 77.5345 64.8069C77.4892 64.646 77.4812 64.4769 77.5113 64.3125C77.5414 64.148 77.6088 63.9927 77.7082 63.8583C77.8076 63.7239 77.9365 63.6141 78.085 63.5373C78.2334 63.4604 78.3975 63.4186 78.5646 63.4149C81.7848 63.3268 84.7961 62.654 84.3692 60.7887C83.8356 58.4316 75.8131 56.6127 74.3561 61.3316C71.5118 61.9951 71.4051 67.6002 75.892 69.6418Z" fill="#263238"/>
<path d="M75.9058 68.8159C76.7205 69.0978 77.4908 69.4947 78.1933 69.9944C77.7896 69.0201 77.4277 68.4215 75.9058 68.8159Z" fill="#263238"/>
<path d="M76.3745 68.9782C77.0341 68.8469 77.7089 68.8094 78.379 68.8669C77.7248 68.3704 77.2468 68.1152 76.3745 68.9782Z" fill="#263238"/>
<path d="M74.0549 69.7903C74.4255 70.4893 75.0578 71.0131 75.8135 71.2472C76.8204 71.5488 77.3401 70.658 77.0802 69.6975C76.8436 68.8345 76.0362 67.642 75.0201 67.758C74.799 67.7886 74.589 67.8736 74.4091 68.0056C74.2291 68.1375 74.0847 68.3121 73.989 68.5137C73.8933 68.7152 73.8492 68.9375 73.8607 69.1603C73.8722 69.3832 73.939 69.5997 74.0549 69.7903Z" fill="#FFC3BD"/>
<path d="M81.4135 66.5469C81.4784 66.8717 81.7058 67.1037 81.9146 67.0619C82.1234 67.0202 82.2487 66.7186 82.1883 66.3938C82.128 66.069 81.896 65.837 81.6826 65.8788C81.4691 65.9205 81.3485 66.2175 81.4135 66.5469Z" fill="#263238"/>
<path d="M85.1023 65.8185C85.1673 66.1479 85.39 66.3753 85.6034 66.3335C85.8169 66.2917 85.9375 65.9948 85.8726 65.67C85.8076 65.3452 85.5849 65.1132 85.3714 65.1549C85.158 65.1967 85.0373 65.4937 85.1023 65.8185Z" fill="#263238"/>
<path d="M85.2833 65.192L86.0211 64.8115C86.0211 64.8115 85.7381 65.5029 85.2833 65.192Z" fill="#263238"/>
<path d="M83.8357 66.6351C84.2724 67.323 84.8017 67.9475 85.4087 68.4911C85.2671 68.6462 85.0931 68.7682 84.899 68.8483C84.7049 68.9285 84.4955 68.965 84.2858 68.9551L83.8357 66.6351Z" fill="#ED847E"/>
<path d="M82.7775 70.4909C82.0909 70.4997 81.4269 70.2458 80.9215 69.781C80.9065 69.7655 80.8981 69.7447 80.8981 69.723C80.8981 69.7014 80.9065 69.6806 80.9215 69.665C80.9371 69.65 80.9579 69.6416 80.9795 69.6416C81.0011 69.6416 81.0219 69.65 81.0375 69.665C81.3498 69.9404 81.7227 70.1381 82.1258 70.2421C82.529 70.3461 82.951 70.3535 83.3575 70.2636C83.3784 70.2599 83.3999 70.2647 83.4174 70.2768C83.4348 70.289 83.4466 70.3076 83.4503 70.3285C83.454 70.3495 83.4492 70.371 83.437 70.3884C83.4249 70.4058 83.4063 70.4176 83.3853 70.4213C83.1858 70.4662 82.982 70.4896 82.7775 70.4909Z" fill="#263238"/>
<path d="M79.2003 65.2802C79.171 65.279 79.1424 65.271 79.1168 65.257C79.0798 65.2348 79.0533 65.1989 79.0428 65.1571C79.0324 65.1154 79.0389 65.0712 79.0611 65.0343C79.2145 64.7735 79.4281 64.5533 79.6839 64.3918C79.9398 64.2304 80.2306 64.1325 80.532 64.1063C80.5747 64.1062 80.6158 64.1225 80.6469 64.1519C80.678 64.1812 80.6966 64.2213 80.699 64.264C80.6996 64.2853 80.696 64.3066 80.6884 64.3265C80.6808 64.3465 80.6694 64.3647 80.6547 64.3802C80.6401 64.3957 80.6225 64.4082 80.603 64.4169C80.5836 64.4257 80.5626 64.4305 80.5412 64.4311C80.2923 64.4584 80.0535 64.5447 79.8445 64.6827C79.6356 64.8206 79.4624 65.0064 79.3395 65.2245C79.3225 65.2443 79.3009 65.2597 79.2767 65.2694C79.2525 65.279 79.2262 65.2828 79.2003 65.2802Z" fill="#263238"/>
<path d="M86.128 63.9717C86.1022 63.9786 86.075 63.9786 86.0491 63.9717C85.8327 63.8441 85.5894 63.7692 85.3387 63.7531C85.088 63.737 84.837 63.7801 84.6061 63.8789C84.5649 63.8998 84.517 63.9035 84.4731 63.8892C84.4291 63.8748 84.3927 63.8436 84.3718 63.8024C84.3509 63.7611 84.3472 63.7133 84.3615 63.6693C84.3759 63.6254 84.4071 63.589 84.4483 63.568C84.7262 63.4421 85.0303 63.3853 85.3349 63.4022C85.6395 63.4192 85.9355 63.5095 86.1976 63.6655C86.2161 63.6756 86.2324 63.6894 86.2455 63.7059C86.2586 63.7224 86.2682 63.7414 86.2738 63.7618C86.2795 63.7821 86.281 63.8034 86.2782 63.8243C86.2755 63.8452 86.2686 63.8653 86.2579 63.8836C86.2462 63.9086 86.228 63.93 86.2051 63.9456C86.1823 63.9611 86.1556 63.9701 86.128 63.9717Z" fill="#263238"/>
<path d="M76.8432 109.764L80.5552 110.024L78.8802 113.991C78.8802 113.991 75.7807 113.012 75.6554 110.743L76.8432 109.764Z" fill="#FFC3BD"/>
<path d="M81.9796 112.269L80.184 114.979L78.8848 113.991L80.5691 110.024L81.9796 112.269Z" fill="#FFC3BD"/>
<path d="M81.5945 65.9159L82.3322 65.5354C82.3322 65.5354 82.0492 66.2267 81.5945 65.9159Z" fill="#263238"/>
</svg>
