<svg width="237" height="222" viewBox="0 0 237 222" fill="none" xmlns="http://www.w3.org/2000/svg">
<path d="M100.897 125.435C123.961 120.025 149.015 138.968 172.895 135.242C195.926 131.668 214.843 113.417 205.609 88.6886C196.66 64.7174 170.559 49.049 146.284 49.1852C131.248 49.2669 123.385 49.0381 110.06 38.8775C99.7457 31.0433 91.6796 21.1443 79.0841 16.9058C54.6114 8.6684 43.0468 23.378 41.484 42.7129C39.7951 63.6441 23.2077 74.8071 19.3802 94.9102C16.1395 111.913 22.7306 134.648 45.2566 140.379C66.2967 145.729 83.0541 129.619 100.897 125.435Z" fill="#407BFF"/>
<path d="M100.897 125.435C123.961 120.025 149.015 138.968 172.895 135.242C195.926 131.668 214.843 113.417 205.609 88.6886C196.66 64.7174 170.559 49.049 146.284 49.1852C131.248 49.2669 123.385 49.0381 110.06 38.8775C99.7457 31.0433 91.6796 21.1443 79.0841 16.9058C54.6114 8.6684 43.0468 23.378 41.484 42.7129C39.7951 63.6441 23.2077 74.8071 19.3802 94.9102C16.1395 111.913 22.7306 134.648 45.2566 140.379C66.2967 145.729 83.0541 129.619 100.897 125.435Z" fill="white"/>
<path d="M117.292 201.735C176.01 201.735 223.611 198.974 223.611 195.568C223.611 192.162 176.01 189.401 117.292 189.401C58.5736 189.401 10.9731 192.162 10.9731 195.568C10.9731 198.974 58.5736 201.735 117.292 201.735Z" fill="#E6F1FF"/>
<path d="M71.0115 46.7663C71.1157 45.5623 76.3359 41.1222 81.7865 44.2221C87.237 47.322 83.2944 56.6926 89.222 57.6024C85.3836 61.416 72.8813 66.074 69.0374 61.6993C65.1935 57.3246 64.7 45.072 71.0115 46.7663Z" fill="#263238"/>
<path d="M92.9676 76.981C93.1102 78.9967 93.324 81.1323 93.6092 83.1699C93.8643 85.1778 94.275 87.1631 94.8375 89.1082C94.9033 89.3425 94.9855 89.5659 95.0623 89.7838L95.2707 90.3613C95.3135 90.4867 95.3765 90.6044 95.4571 90.7099C95.5832 90.8952 96.3125 91.0641 97.168 90.9551C99.1222 90.6244 101.019 90.0172 102.799 89.1518L104.192 91.1839C103.749 91.571 103.286 91.9347 102.805 92.2735C102.333 92.6113 101.851 92.9382 101.341 93.2324C100.283 93.8759 99.1433 94.3761 97.9521 94.7197C97.2626 94.9112 96.5513 95.0137 95.8355 95.0248C94.9475 95.0314 94.0716 94.8199 93.2857 94.4091C92.4365 93.9466 91.7397 93.2504 91.2787 92.4043L91.1307 92.1155L91.0374 91.9085L90.8455 91.4836C90.7139 91.2057 90.5878 90.9387 90.4891 90.6446C89.6695 88.4735 89.0689 86.227 88.696 83.9381C88.3133 81.7145 88.0734 79.469 87.9777 77.2152L92.9676 76.981Z" fill="#FFC3BD"/>
<path d="M90.2865 71.5657C94.7336 74.9434 94.5526 81.3176 94.5526 81.3176L86.5852 83.208C86.5852 83.208 84.1451 76.8012 85.1376 74.4531C86.1849 72.0069 87.7861 69.6589 90.2865 71.5657Z" fill="#407BFF"/>
<path d="M102.366 89.6257L105.289 86.7165L106.863 91.2656C106.863 91.2656 104.395 92.5894 102.032 91.3364L102.366 89.6257Z" fill="#FFC3BD"/>
<path d="M109.336 86.2698L109.873 89.8601L106.863 91.2602L105.289 86.7166L109.336 86.2698Z" fill="#FFC3BD"/>
<path d="M64.5195 191.787L68.994 192.217L73.6495 181.642L69.175 181.207L64.5195 191.787Z" fill="#FFC3BD"/>
<path d="M35.7147 176.151L39.0705 179.284L46.3251 171.368L42.9638 168.229L35.7147 176.151Z" fill="#FFC3BD"/>
<path d="M40.6225 177.78L38.1001 173.263C38.0579 173.185 37.9884 173.125 37.9046 173.094C37.8208 173.063 37.7285 173.063 37.6449 173.095L33.7572 174.566C33.661 174.606 33.5744 174.666 33.5031 174.742C33.4317 174.818 33.3773 174.908 33.3431 175.006C33.309 175.104 33.296 175.208 33.305 175.311C33.314 175.415 33.3447 175.515 33.3952 175.606C34.3055 177.164 34.8209 177.873 35.9341 179.861C36.614 181.081 37.9465 183.887 38.8897 185.576C39.8328 187.265 41.5601 186.426 41.3188 185.641C40.2222 182.111 40.447 180.15 40.7705 178.592C40.8204 178.312 40.7678 178.024 40.6225 177.78Z" fill="#263238"/>
<path d="M69.5861 190.844H64.1027C64.0037 190.845 63.9076 190.877 63.8293 190.937C63.751 190.997 63.6948 191.082 63.6695 191.177L62.4576 195.497C62.4284 195.599 62.4236 195.706 62.4437 195.81C62.4638 195.914 62.5082 196.011 62.5733 196.095C62.6384 196.179 62.7224 196.246 62.8185 196.292C62.9146 196.337 63.0201 196.36 63.1266 196.358C65.0623 196.358 65.978 196.358 68.3962 196.358H75.7769C77.7839 196.358 78.2061 194.342 77.3726 194.178C73.6494 193.361 71.5053 192.233 70.3538 191.155C70.1462 190.959 69.8722 190.848 69.5861 190.844Z" fill="#263238"/>
<path opacity="0.2" d="M73.6437 181.648L71.2474 187.096H66.5811L69.1692 181.212L73.6437 181.648Z" fill="black"/>
<path opacity="0.2" d="M42.9637 168.235L46.3195 171.368L42.5798 175.448L39.2239 172.316L42.9637 168.235Z" fill="black"/>
<path d="M88.9426 70.9064C88.9426 70.9064 90.9715 71.7672 84.2104 98.2989L65.4789 96.6918C66.4549 89.1408 66.8662 84.4719 64.5796 68.6128C67.2487 68.2994 69.9372 68.1792 72.6238 68.2532C75.4726 68.2971 78.3146 68.5411 81.1287 68.9833C83.7641 69.4938 86.372 70.1357 88.9426 70.9064Z" fill="#407BFF"/>
<path d="M75.9745 77.6619C75.9585 77.6673 75.9412 77.6673 75.9252 77.6619C71.8729 74.3495 69.345 69.2393 70.1566 68.0353C70.1669 68.018 70.1836 68.0055 70.2031 68.0004C70.2226 67.9953 70.2433 67.9981 70.2608 68.008C70.2785 68.0193 70.2912 68.0368 70.2963 68.0571C70.3014 68.0773 70.2985 68.0988 70.2882 68.117C69.5534 69.2447 72.0648 74.2623 75.9362 77.4657C76.9122 74.5402 78.5737 73.3688 78.5902 73.3579C78.6075 73.3503 78.627 73.3488 78.6453 73.3538C78.6637 73.3588 78.6797 73.37 78.6907 73.3854C78.7016 73.4008 78.7069 73.4195 78.7056 73.4383C78.7043 73.4572 78.6964 73.475 78.6834 73.4887C78.6834 73.4887 77.0054 74.6709 76.0458 77.6237C76.0421 77.6352 76.0357 77.6456 76.0271 77.6541C76.0185 77.6627 76.008 77.669 75.9965 77.6728L75.9745 77.6619Z" fill="white"/>
<path d="M82.4559 77.8417C82.4424 77.8389 82.4301 77.8322 82.4204 77.8225C82.4106 77.8129 82.4039 77.8006 82.4011 77.7872C81.5511 74.7472 79.8567 73.5378 79.8403 73.5269C79.8278 73.5114 79.821 73.4922 79.821 73.4724C79.821 73.4526 79.8278 73.4334 79.8403 73.4179C79.8554 73.4045 79.8749 73.3971 79.8951 73.3971C79.9154 73.3971 79.9349 73.4045 79.95 73.4179C79.95 73.4179 81.6553 74.6328 82.5327 77.6238C84.567 75.1449 83.41 70.4324 82.6204 69.223C82.6101 69.2048 82.6072 69.1833 82.6123 69.1631C82.6174 69.1428 82.6301 69.1252 82.6478 69.114C82.662 69.101 82.6806 69.0937 82.6999 69.0938C82.7192 69.0937 82.7378 69.101 82.752 69.114C83.569 70.3725 84.7699 75.3084 82.5546 77.8308C82.5412 77.8423 82.5246 77.8495 82.507 77.8515C82.4893 77.8534 82.4715 77.85 82.4559 77.8417Z" fill="white"/>
<path d="M74.2961 58.8118C74.5922 61.574 74.6964 66.6025 72.6237 68.2532C74.638 70.1093 76.8868 71.6971 79.3135 72.9766C82.5707 70.7429 81.1285 68.9832 81.1285 68.9832C78.14 67.9971 78.3868 65.758 79.1325 63.6878L74.2961 58.8118Z" fill="#FFC3BD"/>
<path opacity="0.2" d="M76.2652 60.8004L79.1276 63.6878C78.9545 64.1677 78.8242 64.6617 78.7383 65.1642C77.5867 64.8973 75.9198 63.7096 75.8978 62.4838C75.9222 61.9059 76.0465 61.3365 76.2652 60.8004Z" fill="black"/>
<path d="M71.8452 54.4916C73.0077 58.9099 73.4025 60.8004 76.1278 62.6636C80.2294 65.4475 85.4497 63.0667 85.6306 58.3924C85.8006 54.1865 83.8759 47.6707 79.1163 46.75C78.0693 46.543 76.9865 46.6051 75.9705 46.9305C74.9545 47.2558 74.039 47.8335 73.3107 48.6089C72.5824 49.3843 72.0655 50.3317 71.8091 51.3612C71.5526 52.3907 71.565 53.4682 71.8452 54.4916Z" fill="#FFC3BD"/>
<path d="M73.1119 57.7985C74.6198 59.9777 78.5515 46.9951 73.4573 47.4037C68.3632 47.8123 68.9773 53.3094 73.1119 57.7985Z" fill="#263238"/>
<path d="M73.7862 48.1447C76.7308 49.632 85.3014 51.4135 84.1279 49.0436C83.4877 47.8547 82.5341 46.8612 81.3692 46.1693C80.2043 45.4774 78.8721 45.1132 77.5149 45.1156C74.7184 45.072 71.187 46.8372 73.7862 48.1447Z" fill="#263238"/>
<path d="M71.4777 58.2344C71.6821 58.6227 71.9617 58.967 72.3005 59.2475C72.6392 59.528 73.0305 59.7391 73.4518 59.8688C74.5814 60.2066 75.1681 59.2096 74.872 58.1418C74.6088 57.1775 73.704 55.8428 72.5634 55.9626C72.314 55.9954 72.0767 56.0897 71.8734 56.2368C71.67 56.384 71.5069 56.5794 71.3989 56.8053C71.291 57.0311 71.2417 57.2802 71.2554 57.5298C71.2692 57.7794 71.3456 58.0217 71.4777 58.2344Z" fill="#FFC3BD"/>
<path d="M84.2103 98.299C84.2103 98.299 90.5492 126.155 86.3214 145.795C83.4865 158.946 73.2653 185.516 73.2653 185.516L65.2759 185.314C65.2759 185.314 73.013 157.432 74.5978 146.465C77.3395 127.707 70.4852 97.1222 70.4852 97.1222L84.2103 98.299Z" fill="#263238"/>
<path opacity="0.2" d="M76.9009 103.91L72.9089 110.176C74.1128 117.599 74.8764 125.087 75.1955 132.6C80.8106 122.613 78.1511 109.217 76.9009 103.91Z" fill="black"/>
<path d="M74.3898 185.93L64.5195 185.679L65.0953 182.667L75.1629 183.141L74.3898 185.93Z" fill="#407BFF"/>
<path d="M80.1142 98.0048C80.1142 98.0048 76.3964 127.544 68.3357 143.67C61.8269 156.702 44.4553 175.241 44.4553 175.241L40.0137 170.697C40.0137 170.697 51.7483 150.54 56.5847 141.888C68.4509 120.674 58.778 104.482 65.4788 96.67L80.1142 98.0048Z" fill="#263238"/>
<path d="M44.9051 175.851L39.1749 170.3L41.0777 167.728L47.1533 173.759L44.9051 175.851Z" fill="#407BFF"/>
<path d="M65.2921 95.575L64.3051 97.1658C64.2283 97.2911 64.3709 97.4327 64.5847 97.4545L84.232 99.1434C84.4019 99.1434 84.55 99.0835 84.5664 98.9799L84.879 97.3456C84.879 97.2311 84.7638 97.1222 84.5829 97.1058L65.6101 95.4714C65.5526 95.4605 65.4933 95.4643 65.4377 95.4824C65.382 95.5005 65.3319 95.5323 65.2921 95.575Z" fill="#407BFF"/>
<path opacity="0.3" d="M65.2921 95.575L64.3051 97.1658C64.2283 97.2911 64.3709 97.4327 64.5847 97.4545L84.232 99.1434C84.4019 99.1434 84.55 99.0835 84.5664 98.9799L84.879 97.3456C84.879 97.2311 84.7638 97.1222 84.5829 97.1058L65.6101 95.4714C65.5526 95.4605 65.4933 95.4643 65.4377 95.4824C65.382 95.5005 65.3319 95.5323 65.2921 95.575Z" fill="black"/>
<path d="M67.6559 97.9176L67.1515 97.8741C67.0473 97.8741 66.976 97.8032 66.987 97.7433L67.4147 95.5968C67.4147 95.5369 67.5188 95.4933 67.623 95.4988L68.1275 95.5423C68.2317 95.5423 68.303 95.6132 68.292 95.6731L67.8643 97.8196C67.8533 97.8632 67.7601 97.9176 67.6559 97.9176Z" fill="#263238"/>
<path d="M82.7902 99.1979L82.2803 99.1544C82.1816 99.1544 82.1048 99.089 82.1212 99.0236L82.5435 96.8826C82.5435 96.8172 82.6531 96.7736 82.7518 96.7845L83.2618 96.8281C83.3605 96.8281 83.4318 96.8935 83.4208 96.9588L82.9931 99.0999C82.9822 99.1653 82.8889 99.2088 82.7902 99.1979Z" fill="#263238"/>
<path d="M75.2232 98.5496L74.7132 98.5061C74.6145 98.5061 74.5432 98.4407 74.5542 98.3753L74.9819 96.2343C74.9819 96.1689 75.0861 96.1253 75.1848 96.1362L75.6948 96.1798C75.799 96.1798 75.8703 96.2451 75.8593 96.3051L75.4316 98.4516C75.4122 98.4881 75.3814 98.5175 75.3439 98.5352C75.3063 98.5528 75.2639 98.5579 75.2232 98.5496Z" fill="#263238"/>
<path d="M79.3742 54.3336C79.4455 54.6986 79.6977 54.9547 79.9225 54.9056C80.1473 54.8566 80.3009 54.5297 80.2296 54.1647C80.1583 53.7997 79.9061 53.5436 79.6812 53.5872C79.4564 53.6308 79.2974 53.974 79.3742 54.3336Z" fill="#263238"/>
<path d="M83.5144 53.5273C83.5857 53.8924 83.8379 54.1539 84.0627 54.1048C84.2875 54.0558 84.4356 53.7235 84.3643 53.3585C84.293 52.9934 84.0408 52.7374 83.816 52.7864C83.5911 52.8354 83.4431 53.1678 83.5144 53.5273Z" fill="#263238"/>
<path d="M83.7168 52.8245L84.5448 52.405C84.5448 52.405 84.2268 53.1732 83.7168 52.8245Z" fill="#263238"/>
<path d="M82.0886 54.4371C82.5762 55.2047 83.1665 55.903 83.8433 56.5128C83.6826 56.6808 83.4871 56.8121 83.2703 56.8977C83.0535 56.9833 82.8206 57.0211 82.5876 57.0086L82.0886 54.4371Z" fill="#ED847E"/>
<path d="M80.9035 58.7409C80.1314 58.751 79.3843 58.4686 78.8143 57.951C78.7969 57.9337 78.7871 57.9101 78.7871 57.8856C78.7871 57.8611 78.7969 57.8376 78.8143 57.8203C78.8225 57.8119 78.8323 57.8052 78.8431 57.8006C78.854 57.7961 78.8656 57.7937 78.8774 57.7937C78.8891 57.7937 78.9008 57.7961 78.9116 57.8006C78.9224 57.8052 78.9322 57.8119 78.9404 57.8203C79.2918 58.1261 79.7104 58.346 80.1627 58.4624C80.615 58.5787 81.0884 58.5883 81.5451 58.4903C81.5691 58.4855 81.594 58.4902 81.6145 58.5034C81.635 58.5167 81.6495 58.5374 81.6548 58.5612C81.6571 58.5726 81.6572 58.5845 81.6548 58.5959C81.6525 58.6074 81.6479 58.6183 81.6412 58.628C81.6346 58.6376 81.626 58.6458 81.6161 58.6522C81.6062 58.6585 81.5951 58.6627 81.5835 58.6647C81.36 58.7126 81.1322 58.7381 80.9035 58.7409Z" fill="#263238"/>
<path d="M76.8843 52.928C76.8538 52.9359 76.8217 52.9359 76.7911 52.928C76.7704 52.9157 76.7523 52.8994 76.7379 52.8801C76.7236 52.8607 76.7133 52.8387 76.7077 52.8154C76.7021 52.792 76.7012 52.7678 76.7052 52.7441C76.7092 52.7204 76.7179 52.6977 76.7308 52.6774C76.899 52.3826 77.1364 52.1325 77.4228 51.9485C77.7093 51.7645 78.0362 51.6519 78.3758 51.6205C78.3996 51.6198 78.4233 51.6237 78.4455 51.6321C78.4678 51.6404 78.4881 51.6531 78.5054 51.6693C78.5227 51.6855 78.5367 51.7049 78.5464 51.7264C78.5562 51.748 78.5616 51.7712 78.5623 51.7948C78.563 51.8185 78.5591 51.842 78.5506 51.8641C78.5422 51.8862 78.5295 51.9064 78.5132 51.9236C78.4969 51.9408 78.4773 51.9546 78.4557 51.9643C78.434 51.974 78.4106 51.9794 78.3868 51.9801C78.1062 52.0101 77.8368 52.1064 77.6012 52.2609C77.3656 52.4154 77.1706 52.6236 77.0324 52.8681C77.014 52.8887 76.9911 52.9048 76.9654 52.9152C76.9397 52.9256 76.912 52.93 76.8843 52.928Z" fill="#263238"/>
<path d="M84.6656 51.468C84.635 51.4756 84.603 51.4756 84.5724 51.468C84.3315 51.3241 84.0594 51.2396 83.779 51.2216C83.4985 51.2036 83.2178 51.2526 82.9603 51.3645C82.9172 51.3859 82.8674 51.3899 82.8214 51.3757C82.7754 51.3615 82.7367 51.3301 82.7135 51.2882C82.7021 51.2671 82.695 51.244 82.6927 51.2202C82.6904 51.1964 82.6929 51.1724 82.7001 51.1496C82.7072 51.1268 82.7189 51.1056 82.7344 51.0873C82.7499 51.069 82.7689 51.0539 82.7903 51.043C83.1022 50.903 83.4435 50.8397 83.7852 50.8587C84.127 50.8777 84.4591 50.9783 84.7533 51.152C84.7743 51.1634 84.7928 51.1788 84.8077 51.1973C84.8226 51.2158 84.8337 51.237 84.8403 51.2598C84.847 51.2826 84.849 51.3065 84.8463 51.33C84.8436 51.3536 84.8362 51.3764 84.8246 51.3971C84.8059 51.4209 84.7817 51.4398 84.7539 51.4521C84.7262 51.4645 84.6959 51.4699 84.6656 51.468Z" fill="#263238"/>
<path d="M67.2502 75.5808C66.5154 76.7903 65.7367 78.0324 65.0074 79.2745C64.2781 80.5167 63.5269 81.7479 62.8141 82.9955C62.1012 84.2431 61.4377 85.4907 60.8729 86.7329C60.7194 87.0434 60.5987 87.3485 60.4562 87.6536C60.3136 87.9587 60.2259 88.2474 60.1107 88.547C60.0583 88.6827 60.0198 88.8232 59.9956 88.9665C59.9956 89.0374 59.9956 89.0156 59.9627 89.0047C59.9298 88.9938 60.0559 89.2117 60.511 89.4024C61.0402 89.6114 61.5923 89.7577 62.156 89.8382C63.5067 90.0319 64.8716 90.1103 66.2357 90.0725C69.1182 89.9949 71.9941 89.7584 74.8503 89.3642L75.3986 91.7559C72.4852 92.6631 69.4957 93.3086 66.466 93.6845C64.8754 93.889 63.2688 93.9419 61.668 93.8425C60.7593 93.784 59.8618 93.6101 58.9976 93.3249C58.4697 93.1467 57.9682 92.8993 57.5061 92.5895C56.9072 92.1977 56.4141 91.6661 56.07 91.0411C55.7259 90.4162 55.5411 89.717 55.532 89.0047C55.5251 88.4131 55.6064 87.8238 55.7733 87.2559C55.8939 86.8582 56.0091 86.4441 56.1407 86.0628C56.2723 85.6814 56.4039 85.3 56.5519 84.9296C57.1332 83.4586 57.7748 82.0748 58.4712 80.7237C59.1676 79.3726 59.8859 78.0487 60.6316 76.7467C61.3774 75.4446 62.156 74.1752 63.0169 72.9004L67.2502 75.5808Z" fill="#FFC3BD"/>
<path d="M73.7314 89.92L77.3889 87.9968L77.526 92.0447C77.526 92.0447 74.9707 92.9599 73.4573 91.7832L73.7314 89.92Z" fill="#FFC3BD"/>
<path d="M79.6154 88.2856L79.0671 91.8703L77.5262 92.0447L77.3837 87.9968L79.6154 88.2856Z" fill="#FFC3BD"/>
<path d="M64.5796 68.6128C62.282 69.0432 59.0632 75.5808 59.0632 75.5808L66.1917 81.7098C66.1917 81.7098 69.4544 75.7933 69.2131 72.8187C69.0048 70.2745 67.5023 68.1007 64.5796 68.6128Z" fill="#407BFF"/>
<path d="M41.5108 180.21C41.4495 180.209 41.3887 180.199 41.3298 180.182C40.7815 179.997 40.4196 178.984 40.2331 178.401C40.2239 178.386 40.219 178.369 40.219 178.352C40.219 178.335 40.2239 178.318 40.2331 178.303C40.249 178.294 40.2669 178.289 40.2852 178.289C40.3035 178.289 40.3215 178.294 40.3373 178.303C40.5018 178.39 41.9824 179.169 42.0153 179.741C42.0223 179.804 42.0117 179.867 41.9845 179.924C41.9574 179.98 41.9149 180.028 41.8617 180.063C41.7623 180.145 41.64 180.197 41.5108 180.21ZM40.4909 178.575C40.7486 179.387 41.0776 179.921 41.3901 180.024C41.4609 180.046 41.536 180.048 41.6081 180.032C41.6801 180.016 41.7468 179.981 41.8014 179.932C41.8295 179.915 41.8521 179.891 41.8667 179.862C41.8813 179.833 41.8872 179.801 41.8837 179.768C41.8562 179.398 40.9953 178.842 40.4909 178.548V178.575Z" fill="#407BFF"/>
<path d="M41.7352 178.788C41.2355 178.786 40.7426 178.672 40.2931 178.455C40.2796 178.446 40.2685 178.434 40.2608 178.42C40.2532 178.406 40.2492 178.39 40.2492 178.374C40.2502 178.358 40.2552 178.343 40.2638 178.329C40.2725 178.316 40.2844 178.305 40.2986 178.297C40.3479 178.27 41.5104 177.633 42.1355 177.856C42.2126 177.881 42.2831 177.923 42.3418 177.979C42.4006 178.035 42.4463 178.102 42.4755 178.178C42.5146 178.25 42.5277 178.334 42.5128 178.415C42.4979 178.496 42.4557 178.57 42.3932 178.624C42.1985 178.751 41.9668 178.808 41.7352 178.788ZM40.5398 178.374C41.0388 178.586 42.0039 178.717 42.2781 178.488C42.3219 178.45 42.3658 178.385 42.2781 178.248C42.2579 178.197 42.227 178.151 42.1872 178.112C42.1475 178.073 42.1 178.044 42.0478 178.025C41.6475 177.878 40.8743 178.216 40.5234 178.374H40.5398Z" fill="#407BFF"/>
<path d="M72.0264 191.727C71.5205 191.716 71.0171 191.654 70.5239 191.542C70.5053 191.536 70.4886 191.526 70.4759 191.511C70.4632 191.497 70.4551 191.479 70.4526 191.46C70.4517 191.441 70.4564 191.422 70.4661 191.405C70.4759 191.389 70.4902 191.376 70.5075 191.367C70.7323 191.264 72.7009 190.348 73.2492 190.686C73.2952 190.717 73.3318 190.759 73.355 190.809C73.3783 190.859 73.3872 190.915 73.3808 190.969C73.3766 191.069 73.3498 191.166 73.3023 191.254C73.2548 191.342 73.1879 191.418 73.1066 191.476C72.7827 191.672 72.4042 191.76 72.0264 191.727ZM70.8365 191.416C71.4287 191.531 72.5254 191.672 72.975 191.334C73.0357 191.292 73.0852 191.236 73.1196 191.17C73.1539 191.105 73.172 191.032 73.1724 190.959C73.1724 190.882 73.1724 190.855 73.1231 190.839C72.8434 190.648 71.6645 191.078 70.8365 191.416Z" fill="#407BFF"/>
<path d="M70.5459 191.541C70.5265 191.549 70.5049 191.549 70.4856 191.541C70.4766 191.529 70.4718 191.513 70.4718 191.498C70.4718 191.482 70.4766 191.467 70.4856 191.454C70.4856 191.373 70.9571 189.417 72.0374 189.542C72.3061 189.575 72.3828 189.705 72.3938 189.814C72.4651 190.31 71.2094 191.313 70.6062 191.558L70.5459 191.541ZM71.9113 189.695C71.2204 189.695 70.8146 190.833 70.683 191.285C71.3355 190.948 72.2293 190.136 72.1854 189.814C72.1854 189.814 72.1854 189.722 71.988 189.7L71.9113 189.695Z" fill="#407BFF"/>
<path d="M79.5714 53.6363L80.4049 53.2114C80.4049 53.2114 80.0869 53.985 79.5714 53.6363Z" fill="#263238"/>
<path d="M175.762 71.3149C175.734 71.6908 175.701 71.9578 175.663 72.2683C175.625 72.5788 175.581 72.8567 175.531 73.1454C175.433 73.7284 175.318 74.3004 175.191 74.8725C174.935 76.0123 174.618 77.138 174.243 78.2448C173.478 80.4818 172.439 82.617 171.15 84.6026L170.646 85.3435L170.52 85.5233L170.443 85.6323L170.328 85.7848C170.161 85.9813 169.977 86.1636 169.779 86.3296C169.134 86.9054 168.365 87.3266 167.531 87.5608C166.251 87.9029 164.92 88.0191 163.599 87.9041C161.267 87.7127 158.973 87.1917 156.789 86.3568L157.381 84.0088C159.443 84.218 161.519 84.2599 163.588 84.1341C164.463 84.0847 165.325 83.9009 166.144 83.5893C166.356 83.5021 166.544 83.3657 166.692 83.1916C166.632 83.2733 166.999 82.6468 167.24 82.2545C168.2 80.4952 168.973 78.6421 169.549 76.7248C169.845 75.755 170.097 74.7744 170.317 73.7938C170.426 73.298 170.525 72.8022 170.613 72.3119L170.728 71.5764L170.827 70.9063L175.762 71.3149Z" fill="#E6A078"/>
<path d="M176.902 68.117C177.023 71.1678 175.833 76.6703 175.833 76.6703L168.233 75.7551C168.233 75.7551 167.954 67.7029 169.429 65.758C171.902 62.5055 176.793 65.2295 176.902 68.117Z" fill="#263238"/>
<path d="M158.418 84.3302L153.867 82.7231L154.815 86.1117C154.815 86.1117 156.943 87.3484 158.16 85.9429L158.418 84.3302Z" fill="#E6A078"/>
<path d="M152.304 83.5893L151.678 85.981L154.82 86.1117L153.872 82.7231L152.304 83.5893Z" fill="#E6A078"/>
<path d="M130.929 99.4212C134.097 99.4688 137.242 98.8902 140.183 97.7188C143.123 96.5475 145.799 94.8068 148.056 92.5982C150.313 90.3895 152.106 87.757 153.329 84.8537C154.553 81.9504 155.183 78.8344 155.183 75.687C155.183 72.5395 154.553 69.4235 153.329 66.5202C152.106 63.6169 150.313 60.9844 148.056 58.7757C145.799 56.5671 143.123 54.8264 140.183 53.6551C137.242 52.4837 134.097 51.9051 130.929 51.9527H127.831V99.4212H130.929Z" fill="#407BFF"/>
<path d="M127.831 99.4211C141.026 99.4211 151.723 88.7938 151.723 75.6842C151.723 62.5747 141.026 51.9473 127.831 51.9473C114.636 51.9473 103.94 62.5747 103.94 75.6842C103.94 88.7938 114.636 99.4211 127.831 99.4211Z" fill="#407BFF"/>
<path opacity="0.4" d="M127.831 99.4211C141.026 99.4211 151.723 88.7938 151.723 75.6842C151.723 62.5747 141.026 51.9473 127.831 51.9473C114.636 51.9473 103.94 62.5747 103.94 75.6842C103.94 88.7938 114.636 99.4211 127.831 99.4211Z" fill="black"/>
<path opacity="0.2" d="M142.81 90.5696C151.083 82.3508 151.083 69.0254 142.81 60.8066C134.538 52.5878 121.126 52.5878 112.854 60.8066C104.581 69.0254 104.581 82.3508 112.854 90.5696C121.126 98.7884 134.538 98.7884 142.81 90.5696Z" fill="#407BFF"/>
<path d="M138.721 77.0408C137.729 75.9352 136.393 75.1912 134.927 74.927C135.91 74.6281 136.798 74.0798 137.504 73.3362C138.384 72.3369 138.855 71.0463 138.825 69.7187C138.841 68.9254 138.683 68.1382 138.363 67.4112C138.043 66.6842 137.569 66.0347 136.972 65.5074C135.74 64.3706 133.971 63.8022 131.664 63.8022H130.244V59.8143H127.562V63.8022H124.239V59.8143H121.558V63.8022H115.729V68.6182H117.84V82.7558H115.745V87.5664H121.574V91.5543H124.256V87.5664H127.579V91.5543H130.26V87.5664H130.6C131.702 87.514 132.8 87.4048 133.89 87.2395C134.868 87.1644 135.823 86.9056 136.703 86.4768C137.688 85.9227 138.505 85.1178 139.072 84.145C139.654 83.134 139.951 81.9862 139.933 80.8218C139.989 79.4591 139.56 78.1205 138.721 77.0408ZM125.281 68.6182H128.544C129.668 68.6182 130.452 68.8144 130.902 69.2012C131.132 69.4051 131.312 69.658 131.43 69.941C131.548 70.2241 131.6 70.5299 131.582 70.8356C131.601 71.1527 131.55 71.4702 131.432 71.7657C131.315 72.0612 131.134 72.3276 130.902 72.5462C130.452 72.9385 129.652 73.1346 128.5 73.1346H125.281V68.6182ZM131.746 81.7915C131.198 82.2382 130.326 82.4616 129.054 82.4616H125.281V77.651H129.037C130.331 77.651 131.236 77.8635 131.752 78.2884C132.004 78.4922 132.206 78.7511 132.341 79.045C132.476 79.3389 132.541 79.6599 132.53 79.9828C132.545 80.3234 132.482 80.6628 132.346 80.976C132.21 81.2891 132.005 81.5678 131.746 81.7915Z" fill="white"/>
<path d="M154.13 52.4703C154.13 52.8244 153.927 53.1132 153.696 53.1186C153.466 53.1241 153.274 52.8353 153.28 52.4866C153.285 52.138 153.477 51.8438 153.713 51.8383C153.949 51.8329 154.135 52.1216 154.13 52.4703Z" fill="#263238"/>
<path d="M153.817 51.8601L152.934 51.6095C152.934 51.6095 153.39 52.2796 153.817 51.8601Z" fill="#263238"/>
<path d="M153.823 52.819C153.491 53.6315 153.05 54.3957 152.512 55.0908C152.696 55.2161 152.905 55.3004 153.125 55.338C153.344 55.3756 153.569 55.3656 153.785 55.3088L153.823 52.819Z" fill="#A02724"/>
<path d="M153.68 50.1277C153.712 50.1357 153.746 50.1357 153.779 50.1277C154.031 50.0375 154.301 50.0068 154.568 50.038C154.834 50.0692 155.089 50.1614 155.314 50.3075C155.358 50.3407 155.414 50.3551 155.469 50.3474C155.496 50.3436 155.523 50.3345 155.546 50.3207C155.57 50.3068 155.591 50.2884 155.607 50.2666C155.624 50.2448 155.636 50.2199 155.643 50.1935C155.65 50.167 155.651 50.1395 155.647 50.1124C155.644 50.0853 155.635 50.0593 155.621 50.0357C155.607 50.0122 155.588 49.9916 155.566 49.9751C155.286 49.7921 154.967 49.6753 154.635 49.6337C154.302 49.5922 153.964 49.627 153.647 49.7354C153.621 49.7434 153.596 49.7566 153.575 49.7743C153.554 49.7919 153.537 49.8136 153.525 49.8381C153.512 49.8626 153.505 49.8892 153.504 49.9166C153.502 49.9439 153.506 49.9712 153.515 49.9969C153.529 50.0313 153.551 50.0615 153.58 50.0845C153.609 50.1075 153.643 50.1224 153.68 50.1277Z" fill="#263238"/>
<path d="M164.641 56.2349C164.405 58.888 165.299 63.2301 167.317 64.7065C167.317 64.7065 165.798 67.4959 160.934 68.1442C155.582 68.8579 158.094 65.8669 158.094 65.8669C160.94 64.7773 160.638 62.669 159.914 60.7295L164.641 56.2349Z" fill="#E6A078"/>
<path d="M154.919 71.255C154.338 74.0166 153.606 76.7446 152.726 79.427C151.866 82.1287 150.837 84.7744 149.644 87.3484L149.419 87.8387C149.326 88.0294 149.206 88.2528 149.096 88.4543C148.881 88.8315 148.643 89.1953 148.383 89.5439C147.907 90.1651 147.389 90.7531 146.831 91.3036C145.788 92.328 144.678 93.2835 143.508 94.1638C141.243 95.8692 138.847 97.3957 136.341 98.7293L134.998 96.7026C137.076 94.981 139.154 93.1832 141.074 91.3418C142.02 90.4483 142.917 89.5044 143.761 88.5143C144.146 88.0582 144.501 87.5777 144.824 87.076C144.963 86.8577 145.089 86.6322 145.203 86.4004L145.334 86.0899L145.515 85.6268C145.998 84.3956 146.426 83.1316 146.859 81.8677C147.292 80.6038 147.67 79.3181 148.049 78.0541C148.789 75.4827 149.485 72.8404 150.094 70.2853L154.919 71.255Z" fill="#E6A078"/>
<path d="M136.588 98.5386L134.066 100.173L132.816 98.0428C132.816 98.0428 135.294 95.1009 136.791 97.1929L136.588 98.5386Z" fill="#E6A078"/>
<path d="M135.936 96.3431L134.51 96.1306L132.909 96.4684L132.497 96.9315L133.539 97.084L133.813 97.4926L134.164 97.716L135.936 96.3431Z" fill="#E6A078"/>
<path d="M131.56 100.385L130.172 99.2741L132.816 98.0537L134.066 100.184L131.56 100.385Z" fill="#E6A078"/>
<path d="M172.543 190.757L168.118 191.084L166.802 180.989L171.227 180.662L172.543 190.757Z" fill="#E6A078"/>
<path d="M200.876 177.932L197.043 180.248L190.672 172.337L194.505 170.022L200.876 177.932Z" fill="#E6A078"/>
<path d="M195.897 179.398L199.532 175.922C199.593 175.861 199.673 175.823 199.759 175.817C199.845 175.811 199.93 175.837 199.999 175.889L203.097 178.265C203.171 178.331 203.231 178.412 203.272 178.502C203.313 178.593 203.335 178.691 203.335 178.79C203.335 178.89 203.313 178.988 203.272 179.079C203.231 179.169 203.171 179.25 203.097 179.316C201.808 180.509 201.128 181.021 199.527 182.552C198.545 183.495 197.202 184.966 195.842 186.268C194.482 187.57 193.161 186.339 193.61 185.679C195.639 182.727 195.332 181.621 195.519 180.112C195.556 179.837 195.69 179.584 195.897 179.398Z" fill="#263238"/>
<path d="M167.844 190.457H172.818C172.903 190.456 172.987 190.486 173.052 190.541C173.118 190.596 173.161 190.673 173.174 190.757L173.843 194.663C173.857 194.761 173.85 194.86 173.822 194.955C173.794 195.049 173.746 195.137 173.681 195.211C173.616 195.286 173.536 195.345 173.445 195.386C173.355 195.427 173.257 195.448 173.158 195.448C171.419 195.448 170.58 195.317 168.393 195.317C167.049 195.317 164.269 195.453 162.41 195.453C160.551 195.453 160.409 193.628 161.176 193.465C164.625 192.724 165.969 191.699 167.109 190.741C167.312 190.562 167.573 190.462 167.844 190.457Z" fill="#263238"/>
<path opacity="0.2" d="M166.807 180.989L167.537 186.6L171.907 185.87L171.233 180.667L166.807 180.989Z" fill="black"/>
<path opacity="0.2" d="M194.505 170.022L190.672 172.343L193.309 175.612L197.224 173.394L194.505 170.022Z" fill="black"/>
<path d="M174.775 91.1948L156.855 93.5864C149.913 68.6128 151.964 67.9372 151.964 67.9372C153.305 67.3087 154.684 66.7628 156.093 66.3028L156.34 66.2265C157.497 65.8833 157.738 65.8343 159.279 65.4856C161.927 65.0225 164.384 64.663 167.416 64.396L167.965 64.3524C168.513 64.3143 169.061 64.2871 169.61 64.2707C169.966 64.2707 170.317 64.2707 170.652 64.2435H172.401C172.744 64.2513 173.081 64.3298 173.392 64.4739C173.703 64.618 173.98 64.8246 174.206 65.0806C174.432 65.3366 174.603 65.6365 174.706 65.9613C174.81 66.2861 174.845 66.6287 174.808 66.9675C173.284 80.1571 173.772 84.4719 174.775 91.1948Z" fill="#263238"/>
<path opacity="0.2" d="M155.128 75.5808C155.484 78.1633 155.152 80.7936 154.162 83.208C152.967 78.3374 152.325 75.036 152.002 72.7478C153.351 72.6879 154.777 73.2109 155.128 75.5808Z" fill="black"/>
<path d="M152.117 67.8664C149.052 69.6097 146.919 73.7666 146.277 76.18L152.808 82.1183C152.808 82.1183 157.03 74.0444 155.928 71.8598C154.776 69.5879 153.279 67.2072 152.117 67.8664Z" fill="#263238"/>
<path d="M166.155 51.3371C165.82 55.6955 165.776 57.5151 163.517 59.7706C160.123 63.1647 154.782 61.9498 153.789 57.6514C152.901 53.7724 153.587 47.3001 157.929 45.5459C158.859 45.1335 159.88 44.9688 160.892 45.0679C161.905 45.167 162.874 45.5265 163.704 46.1111C164.535 46.6956 165.197 47.485 165.627 48.4014C166.056 49.3178 166.238 50.3296 166.155 51.3371Z" fill="#E6A078"/>
<path d="M157.113 53.0859C157.562 51.5442 154.075 49.7899 153.702 47.4255C153.22 44.3582 155.61 41.8794 157.842 43.3231C158.747 41.2692 164.888 40.403 168.261 42.9472C172.055 45.802 167.405 48.8202 171.189 51.348C174.205 53.3638 174.616 54.6168 172.752 57.0303C171.337 58.8663 174.994 58.474 174.068 61.5794C173.141 64.6847 154.223 65.8234 156.734 58.8554C158.966 52.6991 156.225 56.2349 157.113 53.0859Z" fill="#263238"/>
<path d="M158.176 52.7427C158.15 53.5509 157.872 54.3311 157.381 54.9764C156.701 55.8917 155.906 55.6465 155.736 54.8021C155.561 54.0448 155.709 52.6556 156.57 52.0236C157.431 51.3916 158.171 51.8384 158.176 52.7427Z" fill="#E6A078"/>
<path d="M172.559 57.1937C172.543 57.1935 172.526 57.1879 172.513 57.1777C172.5 57.1675 172.491 57.1533 172.486 57.1373C172.482 57.1213 172.483 57.1043 172.489 57.0889C172.495 57.0736 172.507 57.0606 172.521 57.0521C173.711 56.3711 174.347 55.4177 174.319 54.4262C174.287 53.1513 173.223 51.8656 171.485 50.9885C169.412 49.9424 169.571 48.526 169.73 47.1749C169.889 45.8238 170.048 44.3746 168.025 43.2087C168.007 43.1975 167.994 43.1803 167.988 43.1603C167.982 43.1403 167.983 43.1188 167.992 43.0998C168.003 43.0822 168.021 43.0695 168.041 43.0645C168.061 43.0594 168.083 43.0623 168.101 43.0725C170.218 44.2929 170.048 45.7638 169.883 47.1912C169.719 48.6186 169.576 49.8771 171.528 50.8741C173.321 51.773 174.413 53.1077 174.451 54.4425C174.451 55.5321 173.815 56.5018 172.576 57.2046C172.57 57.2019 172.564 57.1982 172.559 57.1937Z" fill="#263238"/>
<path d="M161.587 92.9545C161.587 92.9545 168.546 122.167 171.797 138.952C175.225 156.658 191.686 175.105 191.686 175.105L197.274 172.01C197.274 172.01 186.915 155.176 183.565 138.641C176.743 105.082 181.371 98.3262 174.791 91.2002L161.587 92.9545Z" fill="#407BFF"/>
<path d="M191.132 175.622L198.107 171.76L197.087 169.711L189.262 173.291L191.132 175.622Z" fill="#263238"/>
<path opacity="0.2" d="M165.283 99.3013C170.695 103.97 170.109 120.549 169.544 127.99C167.274 117.378 164.543 105.566 162.964 98.7293C163.512 98.3043 164.291 98.4623 165.283 99.3013Z" fill="black"/>
<path d="M194.373 181.414C194.426 181.422 194.479 181.422 194.532 181.414C195.08 181.414 195.733 180.564 196.062 180.062C196.072 180.045 196.078 180.025 196.078 180.005C196.078 179.985 196.072 179.965 196.062 179.948C196.051 179.93 196.034 179.916 196.014 179.908C195.994 179.9 195.973 179.899 195.952 179.904C195.777 179.937 194.192 180.269 193.984 180.792C193.96 180.85 193.953 180.912 193.961 180.973C193.97 181.035 193.995 181.092 194.033 181.141C194.111 181.268 194.231 181.364 194.373 181.414ZM195.738 180.177C195.278 180.831 194.833 181.217 194.526 181.223C194.461 181.223 194.396 181.206 194.34 181.173C194.283 181.141 194.236 181.094 194.203 181.038C194.185 181.017 194.174 180.992 194.169 180.965C194.164 180.938 194.166 180.911 194.175 180.885C194.291 180.607 195.108 180.329 195.738 180.182V180.177Z" fill="#407BFF"/>
<path d="M157.124 93.5972C157.124 93.5972 153.993 128.285 155.676 141.502C157.453 155.263 166.495 185.2 166.495 185.2L172.872 184.383C172.872 184.383 167.69 154.713 166.769 141.093C165.765 126.236 170.224 91.8375 170.224 91.8375L157.124 93.5972Z" fill="#407BFF"/>
<path d="M165.157 185.576L174.254 184.41L174.112 181.74L164.247 182.688L165.157 185.576Z" fill="#263238"/>
<path d="M194.609 180.052C195.063 180.174 195.538 180.198 196.002 180.122C196.02 180.117 196.037 180.108 196.05 180.094C196.064 180.081 196.073 180.064 196.078 180.046C196.082 180.029 196.082 180.011 196.077 179.994C196.072 179.977 196.063 179.961 196.051 179.948C196.013 179.91 195.146 179.022 194.505 179.049C194.422 179.05 194.34 179.07 194.266 179.107C194.192 179.143 194.127 179.196 194.077 179.262C194.017 179.319 193.978 179.396 193.968 179.478C193.958 179.56 193.977 179.644 194.022 179.714C194.173 179.889 194.38 180.008 194.609 180.052ZM195.755 179.954C195.206 180.013 194.362 179.855 194.197 179.605C194.17 179.561 194.148 179.501 194.236 179.392C194.269 179.35 194.312 179.316 194.36 179.293C194.409 179.269 194.462 179.257 194.516 179.256C194.991 179.355 195.425 179.599 195.755 179.954Z" fill="#407BFF"/>
<path d="M166.199 191.225C166.666 191.217 167.13 191.164 167.586 191.067C167.607 191.063 167.627 191.052 167.641 191.037C167.656 191.021 167.666 191.001 167.669 190.98C167.672 190.959 167.669 190.936 167.659 190.917C167.649 190.897 167.633 190.881 167.614 190.871C167.411 190.768 165.618 189.869 165.086 190.174C165.036 190.201 164.994 190.24 164.964 190.288C164.935 190.335 164.918 190.39 164.916 190.446C164.906 190.541 164.919 190.636 164.955 190.724C164.99 190.813 165.046 190.891 165.119 190.953C165.438 191.162 165.818 191.258 166.199 191.225ZM167.235 190.92C166.259 191.078 165.53 191.04 165.256 190.8C165.21 190.758 165.174 190.705 165.151 190.647C165.128 190.588 165.119 190.525 165.124 190.463C165.125 190.44 165.131 190.418 165.142 190.399C165.154 190.38 165.17 190.364 165.19 190.354C165.481 190.19 166.501 190.572 167.235 190.92Z" fill="#407BFF"/>
<path d="M167.564 191.078C167.586 191.083 167.608 191.083 167.63 191.078C167.644 191.066 167.655 191.051 167.662 191.034C167.669 191.017 167.671 190.998 167.668 190.98C167.668 190.904 167.46 189.106 166.468 189.106H166.38C166.095 189.133 166.012 189.275 165.996 189.395C165.914 189.891 166.983 190.844 167.526 191.084L167.564 191.078ZM166.468 189.297C167.109 189.297 167.361 190.343 167.438 190.789C166.89 190.463 166.16 189.7 166.204 189.417C166.204 189.389 166.204 189.319 166.407 189.302L166.468 189.297Z" fill="#407BFF"/>
<path d="M174.928 90.1215L175.904 91.5979C175.981 91.7123 175.85 91.8539 175.641 91.8812L156.849 94.3872C156.69 94.3872 156.548 94.3491 156.526 94.251L156.197 92.6929C156.197 92.584 156.301 92.4696 156.482 92.4478L174.621 90.0289C174.676 90.017 174.733 90.0192 174.787 90.0355C174.841 90.0517 174.889 90.0813 174.928 90.1215Z" fill="#407BFF"/>
<path opacity="0.5" d="M174.928 90.1215L175.904 91.5979C175.981 91.7123 175.85 91.8539 175.641 91.8812L156.849 94.3872C156.69 94.3872 156.548 94.3491 156.526 94.251L156.197 92.6929C156.197 92.584 156.301 92.4696 156.482 92.4478L174.621 90.0289C174.676 90.017 174.733 90.0192 174.787 90.0355C174.841 90.0517 174.889 90.0813 174.928 90.1215Z" fill="white"/>
<path d="M172.708 92.4695L173.196 92.4042C173.289 92.4042 173.36 92.3333 173.344 92.2734L172.9 90.2468C172.9 90.1923 172.796 90.1542 172.697 90.1651L172.214 90.2304C172.116 90.2304 172.044 90.3013 172.061 90.3612L172.505 92.3878C172.521 92.4205 172.609 92.4695 172.708 92.4695Z" fill="#407BFF"/>
<path d="M160.435 94.1039L160.918 94.0386C161.017 94.0386 161.082 93.9677 161.072 93.9078L160.622 91.8812C160.622 91.8212 160.523 91.7831 160.424 91.7995L159.936 91.8594C159.843 91.8594 159.772 91.9357 159.788 91.9956L160.233 94.0168C160.249 94.1039 160.337 94.1039 160.435 94.1039Z" fill="#407BFF"/>
</svg>
