<svg width="649" height="530" viewBox="0 0 649 530" fill="none" xmlns="http://www.w3.org/2000/svg">
<path opacity="0.05" fill-rule="evenodd" clip-rule="evenodd" d="M99.8016 232.921C98.856 231.827 97.9282 230.713 97.0188 229.578C89.8423 220.621 80.8977 210.51 71.3636 199.734C27.9649 150.679 -27.6476 87.819 15.6995 57.0978C68.5694 19.6276 237.323 -28.4448 277.166 21.2838C278.408 22.8341 279.612 24.4753 280.778 26.2013C283.435 25.9415 286.098 25.8094 288.766 25.8094C415.4 25.8094 649 189.688 649 308.789C649 427.89 546.342 524.441 419.708 524.441C396.899 524.441 370.181 525.653 341.703 526.946C212.07 532.83 45.9555 540.37 45.9555 442.721C45.9555 392.599 66.5306 310.827 99.8016 232.921Z" fill="#0057FF"/>
</svg>
