<svg width="232" height="232" viewBox="0 0 232 232" fill="none" xmlns="http://www.w3.org/2000/svg">
<path d="M232 177.434H0V177.55H232V177.434Z" fill="#EBEBEB"/>
<path d="M39.7091 181.851H24.3414V181.967H39.7091V181.851Z" fill="#EBEBEB"/>
<path d="M105.124 180.594H79.4089V180.71H105.124V180.594Z" fill="#EBEBEB"/>
<path d="M51.1282 184.607H42.224V184.723H51.1282V184.607Z" fill="#EBEBEB"/>
<path d="M198.894 181.795H178.854V181.911H198.894V181.795Z" fill="#EBEBEB"/>
<path d="M205.965 181.795H203.028V181.911H205.965V181.795Z" fill="#EBEBEB"/>
<path d="M150.359 183.424H128.625V183.54H150.359V183.424Z" fill="#EBEBEB"/>
<path d="M109.968 156.739H20.3742C19.6723 156.738 18.9996 156.458 18.5037 155.962C18.0079 155.465 17.7294 154.792 17.7294 154.09V28.1463C17.7355 27.4484 18.0167 26.7812 18.5119 26.2894C19.0071 25.7977 19.6763 25.5212 20.3742 25.52H109.968C110.671 25.52 111.344 25.7992 111.841 26.296C112.338 26.7929 112.617 27.4668 112.617 28.1695V154.09C112.617 154.792 112.338 155.466 111.841 155.963C111.344 156.46 110.671 156.739 109.968 156.739ZM20.3742 25.6128C19.7031 25.614 19.0599 25.8815 18.5858 26.3565C18.1116 26.8315 17.8454 27.4752 17.8454 28.1463V154.09C17.8454 154.761 18.1116 155.405 18.5858 155.88C19.0599 156.355 19.7031 156.622 20.3742 156.623H109.968C110.639 156.622 111.283 156.355 111.758 155.88C112.233 155.405 112.5 154.761 112.501 154.09V28.1463C112.5 27.4747 112.233 26.831 111.758 26.3562C111.283 25.8814 110.639 25.614 109.968 25.6128H20.3742Z" fill="#EBEBEB"/>
<path d="M210.336 156.739H120.737C120.035 156.738 119.362 156.458 118.865 155.962C118.369 155.465 118.089 154.792 118.088 154.09V28.1463C118.095 27.448 118.378 26.7807 118.874 26.2891C119.369 25.7975 120.039 25.5212 120.737 25.52H210.336C211.033 25.5224 211.701 25.7995 212.195 26.2911C212.689 26.7827 212.97 27.4492 212.976 28.1463V154.09C212.976 154.791 212.698 155.463 212.203 155.96C211.708 156.457 211.037 156.737 210.336 156.739ZM120.737 25.6128C120.066 25.614 119.422 25.8814 118.947 26.3562C118.473 26.831 118.205 27.4747 118.204 28.1463V154.09C118.205 154.761 118.473 155.405 118.947 155.88C119.422 156.355 120.066 156.622 120.737 156.623H210.336C211.007 156.622 211.651 156.355 212.126 155.88C212.601 155.405 212.868 154.761 212.869 154.09V28.1463C212.868 27.4747 212.601 26.831 212.126 26.3562C211.651 25.8814 211.007 25.614 210.336 25.6128H120.737Z" fill="#EBEBEB"/>
<path d="M138.198 34.5171H48.6179V98.8228H138.198V34.5171Z" fill="#FAFAFA"/>
<path d="M133.098 98.8275L110.316 34.5171H93.2175L116 98.8275H133.098Z" fill="white"/>
<path d="M87.1206 98.8275L64.3382 34.5171H58.1021L80.8845 98.8275H87.1206Z" fill="white"/>
<path d="M44.3491 32.3083H142.471C142.523 32.3083 142.575 32.3187 142.623 32.3388C142.671 32.3589 142.715 32.3884 142.752 32.4255C142.788 32.4626 142.817 32.5066 142.837 32.555C142.856 32.6034 142.866 32.6552 142.866 32.7074C142.866 32.812 142.824 32.9123 142.75 32.9863C142.676 33.0602 142.576 33.1018 142.471 33.1018H44.3491C44.2441 33.1018 44.1433 33.0604 44.0686 32.9866C43.9939 32.9127 43.9513 32.8124 43.9501 32.7074C43.9501 32.6016 43.9921 32.5001 44.0669 32.4252C44.1418 32.3504 44.2433 32.3083 44.3491 32.3083Z" fill="#E0E0E0"/>
<path d="M93.9415 34.3823H92.8789V98.9665H93.9415V34.3823Z" fill="#F0F0F0"/>
<path d="M92.8742 34.3823H92.3452V98.9665H92.8742V34.3823Z" fill="#E0E0E0"/>
<path d="M48.0009 66.1386V67.2012H138.82V66.1386H48.0009Z" fill="#F0F0F0"/>
<path d="M48.0009 98.3681V33.8721H138.815V98.3681V99.4306H48.0009V98.3681ZM137.757 98.3681V34.9625H49.0634V98.3681H137.757Z" fill="#F0F0F0"/>
<path d="M47.9961 33.8999H47.4672V99.4445H47.9961V33.8999Z" fill="#E0E0E0"/>
<path opacity="0.5" d="M61.1691 31.334V106.855H41.9966L45.5137 31.334H61.1691Z" fill="#EBEBEB"/>
<path opacity="0.5" d="M125.118 31.334V106.855H144.29L140.773 31.334H125.118Z" fill="#EBEBEB"/>
<path d="M36.0435 115.903H28.7308V175.216H36.0435V115.903Z" fill="#F0F0F0"/>
<path d="M110.701 175.216H30.1368V177.433H110.701V175.216Z" fill="#F0F0F0"/>
<path d="M36.0482 175.216H112.107L112.107 115.902H36.0482L36.0482 175.216Z" fill="#F5F5F5"/>
<path d="M35.2872 113.968H27.8121V115.902H35.2872V113.968Z" fill="#F0F0F0"/>
<path d="M35.2826 115.903L113.021 115.903V113.968L35.2826 113.968V115.903Z" fill="#FAFAFA"/>
<path d="M109.476 149.283H38.6744V119.963H109.476V149.283ZM39.1663 148.791H108.984V120.454H39.1663V148.791Z" fill="#E0E0E0"/>
<path d="M109.476 171.151H38.6744V152.215H109.476V171.151ZM39.1663 170.659H108.984V152.707H39.1663V170.659Z" fill="#E0E0E0"/>
<path d="M99.2867 120.208H48.8638C48.5051 120.208 48.2142 120.499 48.2142 120.858V121.132C48.2142 121.491 48.5051 121.781 48.8638 121.781H99.2867C99.6455 121.781 99.9363 121.491 99.9363 121.132V120.858C99.9363 120.499 99.6455 120.208 99.2867 120.208Z" fill="#E0E0E0"/>
<path d="M99.2867 152.461H48.8638C48.5051 152.461 48.2142 152.752 48.2142 153.111V153.385C48.2142 153.743 48.5051 154.034 48.8638 154.034H99.2867C99.6455 154.034 99.9363 153.743 99.9363 153.385V153.111C99.9363 152.752 99.6455 152.461 99.2867 152.461Z" fill="#E0E0E0"/>
<path d="M161.407 174.585H203.947L203.947 44.7946H161.407V174.585Z" fill="#F0F0F0"/>
<path d="M161.407 44.7993H160.057V174.589H161.407V44.7993Z" fill="#E0E0E0"/>
<path d="M168.311 169.634H197.047L197.047 49.7455H168.311V169.634Z" fill="#FAFAFA"/>
<path d="M116 198.388C165.686 198.388 205.965 196.036 205.965 193.135C205.965 190.234 165.686 187.883 116 187.883C66.3137 187.883 26.035 190.234 26.035 193.135C26.035 196.036 66.3137 198.388 116 198.388Z" fill="#F5F5F5"/>
<path d="M66.5191 189.094L70.1522 187.716L67.925 178.937L64.2919 180.315L66.5191 189.094Z" fill="#FFC3BD"/>
<path d="M39.2219 189.168H43.1056L43.6903 180.167H39.8019L39.2219 189.168Z" fill="#FFC3BD"/>
<path d="M43.4954 188.718H38.758C38.6819 188.717 38.6079 188.743 38.5492 188.791C38.4905 188.84 38.451 188.908 38.4378 188.983L37.8439 192.435C37.8319 192.521 37.8386 192.609 37.8635 192.692C37.8883 192.775 37.9308 192.852 37.988 192.918C38.0451 192.983 38.1157 193.036 38.1949 193.072C38.2741 193.108 38.3601 193.126 38.4471 193.126C39.969 193.098 41.078 193.01 42.9989 193.01C44.1775 193.01 47.7457 193.135 49.3789 193.135C51.0122 193.135 51.1421 191.521 50.4647 191.372C47.4394 190.718 45.138 189.818 44.1357 188.955C43.957 188.803 43.7301 188.719 43.4954 188.718Z" fill="#263238"/>
<path d="M69.9666 187.308L65.9995 188.811C65.9271 188.839 65.8662 188.89 65.8266 188.956C65.787 189.023 65.7711 189.101 65.7814 189.178L66.2918 192.676C66.3007 192.762 66.3295 192.845 66.3759 192.919C66.4223 192.992 66.4851 193.054 66.5592 193.098C66.6334 193.143 66.717 193.171 66.8034 193.178C66.8898 193.185 66.9768 193.172 67.0574 193.14C68.4772 192.574 69.6882 191.855 71.4978 191.205C73.5652 190.533 75.5535 189.639 77.4278 188.537C78.7734 187.684 78.2073 186.06 77.5716 186.315C74.6855 187.475 73.9756 187.855 70.9457 187.271C70.6222 187.192 70.2832 187.205 69.9666 187.308Z" fill="#263238"/>
<path d="M59.7168 70.7554C60.9371 72.9176 62.227 75.1448 63.5262 77.2978C64.8254 79.4507 66.1571 81.6037 67.5723 83.6082C67.911 84.1139 68.2915 84.6011 68.6349 85.0698C68.711 85.2062 68.8135 85.3261 68.9365 85.4224C69.1537 85.5337 69.4008 85.5727 69.6418 85.5338C70.0852 85.4885 70.5207 85.384 70.9363 85.2229C71.9891 84.8098 72.9941 84.2839 73.9338 83.6546C74.4349 83.3251 74.9453 82.9864 75.4418 82.6245C75.9382 82.2626 76.4394 81.8728 76.8941 81.5248L79.0702 83.4643C78.6733 84.0378 78.2474 84.5907 77.7942 85.1208C77.3561 85.6556 76.8915 86.1682 76.4022 86.6566C75.9003 87.1624 75.3688 87.6381 74.8107 88.0811C74.2292 88.5567 73.6083 88.982 72.9547 89.3525C72.2171 89.7799 71.4239 90.1031 70.5976 90.313C69.5704 90.578 68.4928 90.578 67.4656 90.313C66.3555 90.0039 65.3602 89.3764 64.6027 88.508C64.1387 87.9698 63.6747 87.464 63.2571 86.9304C61.5769 84.8458 60.0139 82.6694 58.5754 80.4112C57.137 78.1747 55.7914 75.9336 54.5571 73.5486L59.7168 70.7554Z" fill="#FFC3BD"/>
<path d="M52.8218 70.9363C51.7778 74.4998 59.1508 84.216 59.1508 84.216L66.5748 79.4321C65.1745 76.342 63.4463 73.4112 61.4198 70.6904C58.3898 66.816 53.9726 67.0248 52.8218 70.9363Z" fill="#407BFF"/>
<path opacity="0.2" d="M52.8218 70.9363C51.7778 74.4998 59.1508 84.216 59.1508 84.216L66.5748 79.4321C65.1745 76.342 63.4463 73.4112 61.4198 70.6904C58.3898 66.816 53.9726 67.0248 52.8218 70.9363Z" fill="black"/>
<path opacity="0.2" d="M57.3551 75.117C58.8863 75.7713 61.1367 79.4554 62.3106 82.1884L59.1508 84.216C57.3893 81.8616 55.8043 79.3802 54.4087 76.7921C55.4063 75.6831 56.5477 74.7737 57.3551 75.117Z" fill="black"/>
<path d="M76.4348 82.7357L77.799 78.917L81.6641 80.773C81.6641 80.773 80.8614 84.1741 78.031 84.1695L76.4348 82.7357Z" fill="#FFC3BD"/>
<path d="M81.2372 76.407L82.8751 78.2119L81.6641 80.764L77.799 78.9172L81.2372 76.407Z" fill="#FFC3BD"/>
<path opacity="0.2" d="M67.925 178.942L69.0711 183.466L65.438 184.844L64.2919 180.32L67.925 178.942Z" fill="black"/>
<path opacity="0.2" d="M39.802 180.171H43.6903L43.3887 184.807H39.5004L39.802 180.171Z" fill="black"/>
<path d="M35.5052 69.3587C39.6812 84.1186 39.0038 99.7786 39.2637 102.962L60.0323 102.182C63.5633 80.1792 57.2483 67.9343 57.2483 67.9343C57.2483 67.9343 55.9166 67.6791 54.1024 67.4935C53.5363 67.4331 52.9238 67.3821 52.2835 67.3496C51.9309 67.3264 51.5736 67.3171 51.2117 67.3079C48.2628 67.3578 45.3192 67.5777 42.3957 67.9667C41.8435 68.0363 41.2821 68.1152 40.7345 68.208C40.187 68.3008 39.7369 68.3843 39.2683 68.4771C37.12 68.8994 35.5052 69.3587 35.5052 69.3587Z" fill="#407BFF"/>
<path opacity="0.2" d="M35.5052 69.3587C39.6812 84.1186 39.0038 99.7786 39.2637 102.962L60.0323 102.182C63.5633 80.1792 57.2483 67.9343 57.2483 67.9343C57.2483 67.9343 55.9166 67.6791 54.1024 67.4935C53.5363 67.4331 52.9238 67.3821 52.2835 67.3496C51.9309 67.3264 51.5736 67.3171 51.2117 67.3079C48.2628 67.3578 45.3192 67.5777 42.3957 67.9667C41.8435 68.0363 41.2821 68.1152 40.7345 68.208C40.187 68.3008 39.7369 68.3843 39.2683 68.4771C37.12 68.8994 35.5052 69.3587 35.5052 69.3587Z" fill="black"/>
<path opacity="0.2" d="M39.9273 75.6924C40.2985 77.1169 39.8716 83.6361 38.3822 85.2415C38.178 83.1535 37.9182 80.9773 37.547 78.7455L39.9273 75.6924Z" fill="black"/>
<path d="M42.5118 58C43.2774 60.784 44.2193 65.9437 42.3772 67.9806C44.0337 69.4005 46.1774 71.0198 49.5506 70.8853C52.9239 70.7507 52.1676 68.4818 51.1886 67.3264C47.9684 66.8067 47.8756 64.4589 48.2654 62.2224L42.5118 58Z" fill="#FFC3BD"/>
<path d="M49.6388 70.3889L50.2513 70.8019L48.0148 71.4561L48.5901 70.4168L49.6388 70.3889Z" fill="#407BFF"/>
<path d="M50.4832 70.1707L50.2512 70.8017L52.497 71.4559L52.3439 70.2542L50.4832 70.1707Z" fill="#407BFF"/>
<path d="M41.0362 67.7439L41.9178 67.3031C42.0588 67.2325 42.2165 67.202 42.3737 67.2151C42.5308 67.2282 42.6813 67.2844 42.8087 67.3774C44.848 68.8567 47.1798 69.8834 49.648 70.3887C47.8755 71.2332 48.3117 73.5068 48.3117 73.5068C48.3117 73.5068 42.6741 71.6508 40.8877 68.2822C40.8372 68.1909 40.8244 68.0834 40.8521 67.9828C40.8799 67.8821 40.946 67.7964 41.0362 67.7439Z" fill="white"/>
<path d="M52.1722 67.1641L50.8777 66.9692C50.8443 66.9638 50.81 66.9685 50.7792 66.9825C50.7484 66.9966 50.7224 67.0194 50.7046 67.0482C50.6867 67.0769 50.6778 67.1103 50.6789 67.1442C50.6799 67.178 50.691 67.2108 50.7106 67.2383C51.1746 67.8833 51.917 69.2985 50.4833 70.1708C52.2558 71.0153 52.8033 73.0894 52.8033 73.0894C52.8033 73.0894 55.1233 70.5977 52.4228 67.3079C52.3583 67.2326 52.2698 67.1818 52.1722 67.1641Z" fill="white"/>
<path opacity="0.2" d="M44.8549 59.6982L48.256 62.176C48.1577 62.6993 48.1064 63.2304 48.1029 63.7629C46.8826 63.6794 45.124 62.4776 44.9013 61.2202C44.7956 60.7196 44.7799 60.2043 44.8549 59.6982Z" fill="black"/>
<path d="M52.3717 52.2511C52.2139 53.6013 50.9194 54.7613 50.0842 55.0351L49.0402 49.1841C51.3834 47.5276 52.5898 50.358 52.3717 52.2511Z" fill="#263238"/>
<path d="M41.3378 53.8705C42.0153 57.666 42.2148 59.9257 44.3724 61.6657C47.6204 64.2826 52.1351 61.9858 52.6084 58.065C53.0353 54.534 51.8567 48.9196 47.9406 47.8292C47.0779 47.5851 46.1672 47.5654 45.2948 47.7721C44.4225 47.9788 43.6174 48.4049 42.9559 49.0101C42.2945 49.6153 41.7987 50.3795 41.5155 51.2301C41.2323 52.0807 41.1712 52.9896 41.3378 53.8705Z" fill="#FFC3BD"/>
<path d="M42.0617 56.4317C43.8202 57.3597 44.5905 55.267 44.609 54.4133C44.609 53.0584 44.043 51.569 43.3423 51.0261C46.7388 51.0261 53.4575 50.859 51.7593 47.625C50.061 44.3909 46.6553 44.7574 44.1172 46.5299C42.767 47.4579 38.3961 46.6506 39.4772 49.1701C37.199 50.3811 39.1756 54.8958 42.0617 56.4317Z" fill="#263238"/>
<path d="M39.8484 48.9613C39.2428 48.9583 38.6548 48.758 38.1733 48.3906C38.2522 48.7298 38.4402 49.0337 38.7084 49.2558C38.9766 49.4779 39.3102 49.6059 39.6581 49.6202L39.8484 48.9613Z" fill="#263238"/>
<path d="M39.9041 56.9931C40.3394 57.8665 41.1012 58.5332 42.0245 58.8491C43.2495 59.2435 43.5279 58.1206 43.2309 56.9421C42.9618 55.8749 42.3864 54.4318 41.1383 54.5478C39.8901 54.6638 39.3844 55.9259 39.9041 56.9931Z" fill="#FFC3BD"/>
<path d="M64.5563 143.26C62.9787 131.507 60.0323 102.182 60.0323 102.182L46.4 102.697C46.4 102.697 52.8403 131.999 55.1696 143.882C57.4989 155.765 63.9856 184.44 63.9856 184.44L70.1383 182.12C70.1383 182.12 66.2035 155.482 64.5563 143.26Z" fill="#263238"/>
<path opacity="0.2" d="M51.504 110.594C50.3814 110.862 49.3393 111.395 48.4648 112.149C49.7548 118.074 51.4391 125.874 52.8868 132.746C53.8519 126.792 53.8797 115.559 51.504 110.594Z" fill="black"/>
<path d="M52.6687 102.46C52.6687 102.46 49.7687 134.272 48.4417 145.575C46.9894 157.959 45.1937 183.911 45.1937 183.911H38.0481C38.0481 183.911 37.7558 160.957 38.6791 148.837C39.7324 135.033 39.2591 102.962 39.2591 102.962L52.6687 102.46Z" fill="#263238"/>
<path d="M46.1216 184.064H37.7417L37.5654 181.559L46.9197 181.396L46.1216 184.064Z" fill="#407BFF"/>
<path d="M70.941 181.962L63.6098 184.742L62.7142 182.371L70.8621 179.141L70.941 181.962Z" fill="#407BFF"/>
<path d="M47.2631 54.2879C47.2956 54.6034 47.4905 54.8354 47.6946 54.8122C47.8988 54.789 48.0334 54.5153 47.9962 54.2044C47.9591 53.8935 47.7689 53.6615 47.5647 53.6847C47.3606 53.7079 47.226 53.9585 47.2631 54.2879Z" fill="#263238"/>
<path d="M50.7802 53.8658C50.8173 54.1766 51.0122 54.4086 51.2117 54.3854C51.4112 54.3622 51.5551 54.0931 51.518 53.7822C51.4808 53.4714 51.286 53.2347 51.0818 53.2579C50.8776 53.2811 50.7431 53.5549 50.7802 53.8658Z" fill="#263238"/>
<path d="M49.6805 54.1489C50.1604 55.0578 50.763 55.8962 51.4716 56.6406C51.2786 56.82 51.0483 56.9547 50.7973 57.0349C50.5462 57.1151 50.2806 57.1389 50.0193 57.1046L49.6805 54.1489Z" fill="#FFC3BD"/>
<path d="M48.8036 58.0743C48.4512 58.0735 48.1028 58.0006 47.7796 57.8602C47.4565 57.7197 47.1654 57.5147 46.9244 57.2577C46.9154 57.2484 46.9084 57.2374 46.9039 57.2253C46.8994 57.2132 46.8975 57.2002 46.8982 57.1873C46.899 57.1744 46.9025 57.1619 46.9084 57.1504C46.9143 57.1389 46.9226 57.1288 46.9326 57.1207C46.9427 57.1126 46.9543 57.1066 46.9668 57.1033C46.9793 57.0999 46.9923 57.0992 47.0051 57.1012C47.0178 57.1032 47.03 57.1078 47.0409 57.1148C47.0518 57.1217 47.0611 57.1309 47.0682 57.1417C47.3395 57.4215 47.6728 57.6336 48.0411 57.7609C48.4094 57.8883 48.8025 57.9273 49.1887 57.8748C49.2007 57.8728 49.2129 57.8733 49.2246 57.8763C49.2363 57.8793 49.2473 57.8846 49.2569 57.892C49.2665 57.8994 49.2744 57.9087 49.2803 57.9193C49.2861 57.9299 49.2897 57.9416 49.2908 57.9537C49.2935 57.9776 49.2867 58.0016 49.272 58.0206C49.2573 58.0397 49.2357 58.0523 49.2119 58.0557C49.0766 58.0732 48.94 58.0794 48.8036 58.0743Z" fill="#263238"/>
<path d="M46.0473 53.2579C46.0171 53.2669 45.9848 53.2669 45.9545 53.2579C45.9336 53.2459 45.9153 53.2299 45.9007 53.2107C45.886 53.1915 45.8754 53.1696 45.8693 53.1463C45.8633 53.123 45.8619 53.0986 45.8654 53.0748C45.8689 53.0509 45.8771 53.028 45.8896 53.0073C46.031 52.753 46.2311 52.5362 46.4732 52.3748C46.7153 52.2134 46.9925 52.1121 47.2816 52.0793C47.306 52.0781 47.3303 52.0817 47.3533 52.0899C47.3763 52.098 47.3975 52.1107 47.4156 52.1271C47.4337 52.1435 47.4484 52.1632 47.4588 52.1853C47.4693 52.2074 47.4753 52.2313 47.4765 52.2557C47.4777 52.2798 47.4741 52.304 47.4659 52.3267C47.4576 52.3494 47.4449 52.3703 47.4285 52.388C47.412 52.4057 47.3922 52.42 47.3702 52.4299C47.3481 52.4399 47.3243 52.4453 47.3001 52.4459C47.0704 52.475 46.8506 52.5578 46.6588 52.6876C46.4669 52.8174 46.3083 52.9905 46.1958 53.1929C46.1786 53.2155 46.156 53.2333 46.13 53.2446C46.104 53.256 46.0756 53.2606 46.0473 53.2579Z" fill="#263238"/>
<path d="M52.1583 52.483C52.1275 52.4818 52.0975 52.4731 52.0708 52.4578C52.0442 52.4424 52.0216 52.4208 52.0051 52.3948C51.8872 52.1957 51.7233 52.0278 51.5272 51.9051C51.331 51.7823 51.1082 51.7085 50.8776 51.6896C50.8284 51.6896 50.7812 51.67 50.7464 51.6352C50.7116 51.6004 50.692 51.5532 50.692 51.504C50.692 51.4547 50.7116 51.4075 50.7464 51.3727C50.7812 51.3379 50.8284 51.3184 50.8776 51.3184C51.1692 51.3419 51.451 51.4341 51.7002 51.5873C51.9493 51.7405 52.1588 51.9504 52.3114 52.2C52.3242 52.22 52.333 52.2425 52.3372 52.266C52.3413 52.2895 52.3408 52.3135 52.3356 52.3368C52.3305 52.3601 52.3207 52.3821 52.307 52.4017C52.2933 52.4212 52.2759 52.4378 52.2557 52.4505C52.2272 52.4708 52.1932 52.4821 52.1583 52.483Z" fill="#263238"/>
<path d="M44.8132 189.395C44.4673 189.387 44.1234 189.34 43.7878 189.256C43.7702 189.252 43.7542 189.243 43.7419 189.229C43.7295 189.216 43.7213 189.2 43.7182 189.182C43.7135 189.165 43.7146 189.146 43.7213 189.129C43.728 189.113 43.7399 189.099 43.7553 189.089C43.8898 189.001 45.1055 188.231 45.5463 188.449C45.595 188.474 45.6364 188.511 45.6664 188.556C45.6965 188.602 45.7143 188.654 45.718 188.709C45.7344 188.797 45.7277 188.889 45.6984 188.974C45.6692 189.06 45.6184 189.136 45.551 189.196C45.3359 189.347 45.0749 189.417 44.8132 189.395ZM44.0522 189.126C44.7158 189.256 45.2215 189.233 45.4442 189.057C45.489 189.015 45.5226 188.962 45.5421 188.904C45.5615 188.845 45.5661 188.783 45.5556 188.723C45.5556 188.648 45.5138 188.625 45.4906 188.616C45.2447 188.5 44.5441 188.848 44.0522 189.126Z" fill="#407BFF"/>
<path d="M43.8109 189.256C43.7942 189.26 43.7767 189.26 43.7599 189.256C43.7459 189.247 43.7344 189.235 43.7263 189.22C43.7182 189.206 43.7138 189.189 43.7135 189.173C43.7135 189.126 43.7553 188.003 44.1775 187.637C44.2285 187.589 44.2896 187.553 44.3563 187.532C44.4229 187.512 44.4935 187.506 44.5626 187.516C44.6331 187.517 44.7013 187.541 44.7567 187.585C44.8121 187.628 44.8515 187.689 44.8689 187.757C44.9709 188.189 44.2378 189.043 43.8434 189.261C43.8324 189.262 43.8211 189.261 43.8109 189.256ZM44.5162 187.683C44.4409 187.684 44.3683 187.712 44.3121 187.762C44.0553 188.117 43.9158 188.544 43.913 188.982C44.2981 188.676 44.7575 188.054 44.6972 187.776C44.6972 187.753 44.6972 187.702 44.558 187.683H44.5162Z" fill="#407BFF"/>
<path d="M70.528 187.674C70.5106 187.675 70.4934 187.67 70.4785 187.661C70.4637 187.652 70.4518 187.639 70.4445 187.623C70.4345 187.608 70.4292 187.59 70.4292 187.572C70.4292 187.554 70.4345 187.536 70.4445 187.521C70.5791 187.372 71.7576 186.078 72.3005 186.157C72.3509 186.162 72.3988 186.181 72.4396 186.211C72.4803 186.242 72.5124 186.282 72.5325 186.328C72.5692 186.4 72.5883 186.48 72.5883 186.56C72.5883 186.641 72.5692 186.721 72.5325 186.792C72.268 187.294 71.173 187.549 70.5419 187.651L70.528 187.674ZM72.2402 186.338C71.9293 186.338 71.2519 186.946 70.7786 187.442C71.6323 187.27 72.217 187.006 72.3655 186.723C72.3907 186.674 72.4038 186.62 72.4038 186.565C72.4038 186.51 72.3907 186.456 72.3655 186.407C72.3583 186.389 72.3463 186.373 72.3308 186.361C72.3153 186.348 72.2968 186.34 72.2773 186.338H72.2402Z" fill="#407BFF"/>
<path d="M70.5281 187.674H70.5003C70.4847 187.67 70.4706 187.662 70.4592 187.65C70.4478 187.639 70.4396 187.625 70.4353 187.609C70.4353 187.567 70.1523 186.551 70.4678 185.994C70.5123 185.914 70.5728 185.844 70.6454 185.789C70.718 185.733 70.8012 185.692 70.89 185.67C71.1359 185.6 71.2473 185.698 71.303 185.786C71.5257 186.171 70.955 187.289 70.5884 187.642C70.5817 187.652 70.5727 187.66 70.5622 187.665C70.5517 187.671 70.54 187.674 70.5281 187.674ZM71.0339 185.818H70.9364C70.8709 185.834 70.8096 185.863 70.7567 185.905C70.7038 185.947 70.6607 185.999 70.6302 186.059C70.4766 186.478 70.4571 186.933 70.5745 187.363C70.9179 186.899 71.2751 186.083 71.1406 185.851C71.122 185.86 71.0988 185.823 71.0199 185.827L71.0339 185.818Z" fill="#407BFF"/>
<path d="M39.7741 74.8526C38.6095 77.2515 37.4216 79.7292 36.2709 82.1699C35.7002 83.3995 35.1248 84.6244 34.5866 85.854L33.7792 87.71L33.408 88.6241L33.3152 88.8561L33.2456 89.0278C33.1992 89.1345 33.1668 89.2505 33.125 89.3572C32.8371 90.2714 32.786 91.2437 32.9765 92.183C33.2039 93.2737 33.6166 94.3174 34.1968 95.2686C34.8355 96.3331 35.5752 97.3338 36.4055 98.2567C36.8277 98.7207 37.2732 99.2126 37.7372 99.6487C37.9692 99.8714 38.2012 100.113 38.4471 100.312C38.693 100.512 38.9389 100.776 39.1431 100.939L37.584 103.421C36.9135 103.08 36.2643 102.699 35.6399 102.28C35.0228 101.876 34.4196 101.449 33.8349 100.985C32.6308 100.031 31.5409 98.9412 30.5869 97.7371C29.5477 96.4443 28.7536 94.9724 28.2437 93.394C27.7009 91.6534 27.6225 89.8011 28.0164 88.0209C28.0767 87.8028 28.1231 87.5569 28.1927 87.362L28.3736 86.7867L28.6984 85.7612C28.9304 85.0884 29.1624 84.411 29.4037 83.7475C29.8909 82.4158 30.4013 81.098 30.9535 79.7988C32.016 77.2097 33.2085 74.7041 34.5356 72.166L39.7741 74.8526Z" fill="#FFC3BD"/>
<path d="M35.5053 69.3588C31.9603 70.4677 28.4757 82.4899 28.4757 82.4899L36.656 86.0813C36.656 86.0813 39.3101 80.272 40.832 75.7202C42.5163 70.76 39.7973 68.0132 35.5053 69.3588Z" fill="#407BFF"/>
<path opacity="0.2" d="M35.5053 69.3588C31.9603 70.4677 28.4757 82.4899 28.4757 82.4899L36.656 86.0813C36.656 86.0813 39.3101 80.272 40.832 75.7202C42.5163 70.76 39.7973 68.0132 35.5053 69.3588Z" fill="black"/>
<path d="M38.2615 100.187L41.6533 102.201L38.3543 105.486C38.3543 105.486 35.4914 103.282 36.3451 101.556L38.2615 100.187Z" fill="#FFC3BD"/>
<path d="M43.9222 105.416L40.5165 107.801L38.3542 105.486L41.6533 102.201L43.9222 105.416Z" fill="#FFC3BD"/>
<path d="M208.041 99.3148L207.88 101.55L208.342 101.584L208.504 99.3483L208.041 99.3148Z" fill="#407BFF"/>
<path d="M208.653 90.8508L208.184 97.3345L208.646 97.368L209.116 90.8843L208.653 90.8508Z" fill="#407BFF"/>
<path d="M195.957 163.792H82.3091C81.4974 163.801 80.6928 163.641 79.9469 163.321C79.201 163.001 78.5303 162.528 77.9779 161.933C77.4256 161.339 77.0038 160.635 76.7396 159.867C76.4754 159.1 76.3748 158.286 76.4441 157.477L82.4761 73.5857C82.6257 71.8871 83.3978 70.3037 84.6439 69.1398C85.8901 67.9758 87.5224 67.3135 89.2273 67.28H202.875C203.686 67.2699 204.491 67.4298 205.237 67.7493C205.983 68.0689 206.653 68.5411 207.206 69.1355C207.758 69.7298 208.18 70.4333 208.444 71.2006C208.708 71.9678 208.809 72.7819 208.74 73.5904L202.708 157.482C202.559 159.181 201.788 160.766 200.541 161.93C199.295 163.095 197.662 163.758 195.957 163.792Z" fill="#407BFF"/>
<path d="M169.522 193.135H132.63L126.055 147.552H162.948L169.522 193.135Z" fill="#407BFF"/>
<path d="M163.662 190.416H123.758L122.965 193.135H162.873L163.662 190.416Z" fill="#407BFF"/>
<path d="M164.892 169.495L128.936 167.532L126.055 147.552H161.727L164.892 169.495Z" fill="#263238"/>
<path d="M194.676 163.792H81.0238C80.211 163.801 79.4054 163.64 78.6588 163.318C77.9123 162.997 77.2415 162.522 76.6897 161.925C76.1379 161.329 75.7174 160.623 75.4553 159.853C75.1932 159.084 75.0954 158.268 75.1681 157.459L81.2001 73.5674C81.3538 71.8736 82.1264 70.296 83.3702 69.1361C84.614 67.9762 86.2417 67.3154 87.942 67.2802H201.594C202.405 67.2707 203.209 67.4311 203.955 67.7509C204.7 68.0708 205.37 68.5431 205.922 69.1374C206.474 69.7317 206.895 70.4349 207.159 71.2019C207.423 71.9688 207.524 72.7825 207.454 73.5906L201.422 157.482C201.275 159.181 200.504 160.765 199.259 161.93C198.013 163.095 196.381 163.758 194.676 163.792Z" fill="#263238"/>
<path d="M207.16 74.377L203.711 122.5L204.155 122.532L207.605 74.4088L207.16 74.377Z" fill="white"/>
<path d="M203.428 126.69L202.233 143.356L202.677 143.388L203.872 126.722L203.428 126.69Z" fill="white"/>
<path d="M194.416 162.205H81.4877C80.856 162.212 80.2299 162.087 79.6495 161.837C79.0692 161.588 78.5474 161.219 78.1179 160.756C77.6883 160.293 77.3604 159.745 77.1552 159.148C76.9501 158.55 76.8722 157.916 76.9266 157.287L82.9169 73.739C83.0325 72.414 83.6345 71.1787 84.607 70.2714C85.5795 69.364 86.8534 68.8488 88.1833 68.8252H201.13C201.761 68.8184 202.387 68.9436 202.967 69.1929C203.547 69.4422 204.069 69.81 204.498 70.2727C204.928 70.7354 205.256 71.2828 205.461 71.8797C205.667 72.4766 205.745 73.11 205.691 73.739L199.701 157.296C199.584 158.623 198.979 159.86 198.003 160.767C197.026 161.674 195.748 162.186 194.416 162.205Z" fill="white"/>
<path opacity="0.2" d="M194.416 162.205H81.4877C80.856 162.212 80.2299 162.087 79.6495 161.837C79.0692 161.588 78.5474 161.219 78.1179 160.756C77.6883 160.293 77.3604 159.745 77.1552 159.148C76.9501 158.55 76.8722 157.916 76.9266 157.287L82.9169 73.739C83.0325 72.414 83.6345 71.1787 84.607 70.2714C85.5795 69.364 86.8534 68.8488 88.1833 68.8252H201.13C201.761 68.8184 202.387 68.9436 202.967 69.1929C203.547 69.4422 204.069 69.81 204.498 70.2727C204.928 70.7354 205.256 71.2828 205.461 71.8797C205.667 72.4766 205.745 73.11 205.691 73.739L199.701 157.296C199.584 158.623 198.979 159.86 198.003 160.767C197.026 161.674 195.748 162.186 194.416 162.205Z" fill="#407BFF"/>
<path opacity="0.5" d="M110.46 158.502H84.0862C83.7809 158.506 83.4782 158.446 83.1977 158.325C82.9171 158.205 82.6648 158.027 82.4572 157.803C82.2496 157.58 82.0911 157.315 81.9921 157.026C81.893 156.737 81.8556 156.431 81.8822 156.127L87.7008 74.9267C87.7558 74.2856 88.0468 73.6877 88.5174 73.2488C88.988 72.8099 89.6047 72.5613 90.2481 72.551H116.622C116.927 72.5465 117.23 72.6063 117.511 72.7264C117.792 72.8466 118.045 73.0244 118.253 73.2484C118.46 73.4724 118.619 73.7375 118.718 74.0266C118.816 74.3157 118.853 74.6224 118.826 74.9267L113.007 156.127C112.951 156.767 112.66 157.365 112.19 157.803C111.719 158.242 111.103 158.491 110.46 158.502Z" fill="white"/>
<path opacity="0.4" d="M109.439 83.9841H95.7882C95.5134 83.987 95.241 83.9325 94.9885 83.824C94.736 83.7155 94.509 83.5554 94.322 83.354C94.135 83.1525 93.9922 82.9143 93.9027 82.6544C93.8132 82.3946 93.779 82.1189 93.8023 81.8451L93.9507 79.7524C94.0011 79.1757 94.2631 78.6381 94.6864 78.2431C95.1096 77.8481 95.6641 77.6238 96.2429 77.6134H109.898C110.173 77.6105 110.446 77.665 110.698 77.7735C110.951 77.882 111.178 78.0421 111.365 78.2435C111.552 78.445 111.694 78.6832 111.784 78.9431C111.873 79.2029 111.908 79.4786 111.884 79.7524L111.731 81.8451C111.686 82.4237 111.425 82.9644 111.001 83.3604C110.577 83.7564 110.019 83.9789 109.439 83.9841Z" fill="#407BFF"/>
<path d="M100.758 116.835H79.9194C79.4414 116.841 78.9673 116.748 78.5276 116.56C78.0879 116.372 77.6923 116.095 77.366 115.745C77.0397 115.396 76.79 114.982 76.6328 114.531C76.4757 114.079 76.4145 113.6 76.4533 113.123L77.9521 92.2618C78.0445 91.2591 78.5038 90.3257 79.2419 89.6407C79.98 88.9557 80.9449 88.5672 81.9517 88.5498H102.795C103.272 88.5443 103.746 88.6386 104.185 88.8266C104.624 89.0146 105.019 89.2921 105.345 89.6415C105.671 89.9908 105.92 90.4043 106.077 90.8555C106.234 91.3067 106.295 91.7857 106.256 92.2618L104.762 113.105C104.675 114.112 104.217 115.051 103.477 115.74C102.738 116.429 101.769 116.819 100.758 116.835Z" fill="#407BFF"/>
<path d="M103.746 99.7598C103.361 99.7676 102.993 99.9173 102.712 100.18C102.431 100.443 102.257 100.801 102.224 101.184L102.006 104.21C101.99 104.392 102.013 104.575 102.073 104.748C102.132 104.921 102.227 105.079 102.352 105.213C102.477 105.347 102.628 105.453 102.796 105.525C102.964 105.596 103.145 105.632 103.328 105.629H105.444C105.54 105.629 105.631 105.592 105.701 105.526C105.77 105.461 105.813 105.372 105.82 105.277L106.191 100.112C106.195 100.067 106.189 100.021 106.175 99.9785C106.16 99.9355 106.136 99.8961 106.105 99.8628C106.074 99.8296 106.036 99.8032 105.994 99.7855C105.952 99.7678 105.907 99.759 105.862 99.7598H103.746Z" fill="white"/>
<path d="M95.7047 93.8346H82.5921C82.5187 93.8355 82.446 93.8211 82.3786 93.7922C82.3112 93.7633 82.2507 93.7205 82.2008 93.6667C82.151 93.613 82.1129 93.5493 82.0892 93.4799C82.0655 93.4105 82.0566 93.3369 82.0631 93.2639C82.0758 93.1096 82.1456 92.9655 82.2589 92.86C82.3722 92.7544 82.5207 92.6949 82.6756 92.6932H95.8114C95.8847 92.6922 95.9575 92.7067 96.0248 92.7356C96.0922 92.7645 96.1528 92.8072 96.2027 92.861C96.2525 92.9148 96.2905 92.9785 96.3143 93.0478C96.338 93.1172 96.3469 93.1908 96.3404 93.2639C96.3263 93.4218 96.2529 93.5685 96.1349 93.6744C96.017 93.7803 95.8632 93.8376 95.7047 93.8346Z" fill="white"/>
<path d="M95.5006 96.7346H82.3601C82.2868 96.7355 82.2141 96.7211 82.1467 96.6921C82.0793 96.6632 82.0187 96.6205 81.9689 96.5667C81.919 96.5129 81.881 96.4493 81.8573 96.3799C81.8336 96.3105 81.8247 96.2369 81.8312 96.1639C81.845 96.0104 81.9152 95.8675 82.0284 95.7629C82.1416 95.6583 82.2895 95.5995 82.4436 95.5978H95.5841C95.6572 95.5962 95.7299 95.61 95.7972 95.6384C95.8646 95.6668 95.9253 95.7091 95.9752 95.7625C96.0251 95.816 96.0632 95.8793 96.087 95.9485C96.1107 96.0176 96.1196 96.091 96.1131 96.1639C96.1004 96.3182 96.0306 96.4622 95.9173 96.5677C95.804 96.6733 95.6554 96.7328 95.5006 96.7346Z" fill="white"/>
<path d="M90.7493 99.6395H82.1513C82.0782 99.6398 82.0058 99.6248 81.9388 99.5957C81.8717 99.5665 81.8114 99.5238 81.7617 99.4701C81.712 99.4165 81.674 99.3532 81.65 99.2841C81.626 99.215 81.6166 99.1417 81.6224 99.0688C81.6351 98.9145 81.7049 98.7705 81.8182 98.6649C81.9314 98.5594 82.08 98.4999 82.2349 98.4981H90.8328C90.9061 98.4972 90.9788 98.5116 91.0462 98.5405C91.1136 98.5694 91.1742 98.6122 91.224 98.666C91.2739 98.7197 91.3119 98.7834 91.3356 98.8528C91.3593 98.9222 91.3682 98.9958 91.3617 99.0688C91.348 99.2227 91.2779 99.3662 91.1648 99.4715C91.0518 99.5769 90.9038 99.6367 90.7493 99.6395Z" fill="white"/>
<path opacity="0.5" d="M95.7418 113.467H83.056C82.7424 113.47 82.4315 113.408 82.1433 113.285C81.855 113.161 81.5959 112.978 81.3826 112.748C81.1693 112.518 81.0065 112.246 80.9047 111.95C80.803 111.653 80.7644 111.338 80.7917 111.026L81.2557 104.349C81.3119 103.691 81.6103 103.078 82.093 102.628C82.5756 102.178 83.2082 101.923 83.868 101.913H96.577C96.8902 101.909 97.2007 101.971 97.4885 102.095C97.7764 102.218 98.0353 102.4 98.2485 102.63C98.4618 102.859 98.6247 103.131 98.7267 103.427C98.8288 103.723 98.8679 104.037 98.8413 104.349L98.3773 111.026C98.3197 111.687 98.0179 112.304 97.5307 112.755C97.0435 113.206 96.4058 113.46 95.7418 113.467Z" fill="white"/>
<path opacity="0.4" d="M107.606 124.64H91.7932C91.6571 124.641 91.5221 124.615 91.397 124.561C91.2719 124.508 91.1594 124.428 91.0667 124.329C90.974 124.229 90.9033 124.111 90.859 123.982C90.8147 123.854 90.7978 123.717 90.8095 123.582C90.8347 123.296 90.9648 123.03 91.1748 122.834C91.3847 122.639 91.6596 122.528 91.9463 122.524H107.759C107.895 122.523 108.03 122.55 108.154 122.604C108.279 122.657 108.391 122.737 108.483 122.836C108.575 122.936 108.645 123.054 108.689 123.182C108.733 123.31 108.75 123.446 108.738 123.582C108.714 123.867 108.585 124.133 108.376 124.329C108.167 124.524 107.893 124.635 107.606 124.64Z" fill="#407BFF"/>
<path opacity="0.8" d="M104.4 128.792H94.3869C94.2509 128.794 94.1159 128.768 93.9908 128.714C93.8657 128.66 93.7531 128.581 93.6605 128.482C93.5678 128.382 93.497 128.264 93.4527 128.135C93.4084 128.007 93.3916 127.87 93.4033 127.735C93.4274 127.449 93.5565 127.183 93.7657 126.988C93.9749 126.792 94.2492 126.681 94.5354 126.677H104.572C104.708 126.675 104.842 126.701 104.967 126.755C105.092 126.809 105.204 126.888 105.297 126.988C105.389 127.087 105.459 127.205 105.503 127.334C105.547 127.463 105.563 127.599 105.551 127.735C105.526 128.023 105.395 128.292 105.181 128.488C104.968 128.684 104.69 128.792 104.4 128.792Z" fill="white"/>
<path opacity="0.4" d="M106.785 136.096H90.9718C90.836 136.097 90.7014 136.07 90.5766 136.016C90.4518 135.962 90.3396 135.883 90.247 135.784C90.1545 135.684 90.0837 135.566 90.0391 135.438C89.9946 135.31 89.9772 135.173 89.9882 135.038C90.0134 134.752 90.1435 134.486 90.3534 134.291C90.5634 134.095 90.8382 133.985 91.125 133.98H106.938C107.074 133.979 107.208 134.006 107.333 134.06C107.457 134.114 107.569 134.193 107.661 134.293C107.754 134.392 107.824 134.51 107.868 134.638C107.912 134.767 107.929 134.903 107.917 135.038C107.893 135.323 107.764 135.589 107.555 135.785C107.346 135.98 107.071 136.091 106.785 136.096Z" fill="#407BFF"/>
<path opacity="0.8" d="M103.597 140.244H93.5657C93.4298 140.247 93.2949 140.22 93.1698 140.167C93.0447 140.114 92.9321 140.036 92.8394 139.936C92.7466 139.837 92.6758 139.719 92.6315 139.591C92.5871 139.463 92.5703 139.326 92.582 139.191C92.6063 138.903 92.7375 138.635 92.9496 138.439C93.1617 138.243 93.4394 138.134 93.7281 138.133H103.75C103.887 138.131 104.021 138.158 104.147 138.211C104.272 138.265 104.384 138.344 104.477 138.444C104.57 138.543 104.64 138.661 104.685 138.79C104.729 138.919 104.746 139.055 104.734 139.191C104.709 139.476 104.579 139.742 104.369 139.936C104.158 140.131 103.884 140.241 103.597 140.244Z" fill="white"/>
<path opacity="0.4" d="M105.964 147.552H90.1507C90.0148 147.553 89.8802 147.526 89.7554 147.472C89.6306 147.418 89.5184 147.339 89.4259 147.24C89.3333 147.14 89.2625 147.022 89.218 146.894C89.1734 146.766 89.1561 146.629 89.167 146.494C89.1912 146.208 89.321 145.941 89.5312 145.746C89.7413 145.55 90.0167 145.44 90.3038 145.436H106.117C106.253 145.434 106.388 145.461 106.513 145.515C106.637 145.568 106.75 145.647 106.842 145.747C106.934 145.847 107.005 145.965 107.048 146.094C107.092 146.222 107.108 146.359 107.096 146.494C107.072 146.779 106.943 147.045 106.734 147.241C106.524 147.436 106.25 147.547 105.964 147.552Z" fill="#407BFF"/>
<path opacity="0.8" d="M102.776 151.7H92.7444C92.6083 151.702 92.4733 151.675 92.3482 151.622C92.2231 151.568 92.1106 151.489 92.0179 151.389C91.9252 151.29 91.8545 151.172 91.8102 151.043C91.7659 150.914 91.749 150.778 91.7607 150.642C91.7858 150.357 91.9153 150.092 92.1242 149.896C92.3332 149.701 92.6069 149.59 92.8928 149.584H102.929C103.065 149.583 103.2 149.61 103.324 149.664C103.449 149.718 103.561 149.797 103.654 149.897C103.747 149.996 103.817 150.114 103.862 150.242C103.906 150.37 103.924 150.507 103.913 150.642C103.889 150.928 103.759 151.195 103.549 151.391C103.339 151.586 103.063 151.696 102.776 151.7Z" fill="white"/>
<path opacity="0.5" d="M195.66 134.685C196.346 133.637 197.919 134.077 197.831 135.288L196.309 156.521C196.23 157.611 195.404 158.502 194.453 158.502H117.981C117.053 158.502 116.348 157.611 116.427 156.521L117.355 143.905C117.386 143.504 117.505 143.114 117.704 142.765C117.903 142.415 118.176 142.113 118.505 141.881C118.834 141.65 119.21 141.493 119.606 141.424C120.003 141.354 120.41 141.373 120.798 141.478C125.108 142.819 128.802 142.03 132.235 140.327C139.576 136.685 145.719 128.862 154.159 128.862C154.484 128.862 154.804 128.862 155.115 128.89C167.671 129.646 171.494 145.246 181.22 145.246C184.097 145.246 186.718 144.002 189.006 142.235C191.781 140.068 194.068 137.112 195.66 134.685Z" fill="#407BFF"/>
<path opacity="0.5" d="M197.246 143.432L196.318 156.521C196.24 157.612 195.414 158.502 194.462 158.502H117.981C117.053 158.502 116.348 157.612 116.427 156.521L118.283 130.509C118.408 128.728 120.742 127.976 121.689 129.419C124.129 133.131 127.883 137.952 132.203 140.328C133.773 141.244 135.55 141.747 137.367 141.789C143.548 141.789 148.805 134.463 155.083 128.89C158.929 125.475 163.161 122.719 168.223 122.719C178.789 122.719 180.348 139.887 188.973 142.235C190.634 142.699 192.56 142.592 194.861 141.71C195.134 141.593 195.432 141.548 195.726 141.58C196.021 141.612 196.302 141.72 196.543 141.894C196.783 142.067 196.975 142.3 197.098 142.57C197.221 142.839 197.272 143.136 197.246 143.432Z" fill="#407BFF"/>
<g opacity="0.8">
<path opacity="0.8" d="M197.622 138.355C197.581 138.354 197.541 138.337 197.511 138.309C197.496 138.295 197.485 138.277 197.479 138.258C197.474 138.238 197.474 138.218 197.479 138.198C197.478 138.177 197.482 138.156 197.49 138.137C197.498 138.118 197.51 138.101 197.525 138.086C197.555 138.057 197.595 138.04 197.636 138.04C197.678 138.04 197.718 138.057 197.748 138.086C197.763 138.1 197.775 138.118 197.783 138.137C197.791 138.156 197.795 138.177 197.794 138.198C197.796 138.218 197.796 138.238 197.794 138.258C197.784 138.277 197.772 138.294 197.757 138.309C197.74 138.326 197.718 138.34 197.695 138.348C197.672 138.356 197.647 138.358 197.622 138.355Z" fill="white"/>
<path opacity="0.8" d="M123.257 149.227C123.215 149.227 123.175 149.21 123.146 149.181C123.116 149.151 123.099 149.111 123.099 149.069C123.101 149.028 123.118 148.989 123.147 148.961C123.177 148.932 123.216 148.916 123.257 148.916C123.299 148.916 123.339 148.933 123.369 148.962C123.398 148.992 123.415 149.032 123.415 149.074C123.415 149.116 123.398 149.157 123.369 149.187C123.339 149.217 123.299 149.235 123.257 149.236V149.227ZM121.666 149.139C121.645 149.138 121.624 149.132 121.605 149.123C121.586 149.113 121.57 149.1 121.556 149.084C121.543 149.068 121.533 149.049 121.527 149.029C121.521 149.009 121.519 148.988 121.522 148.967C121.524 148.946 121.53 148.926 121.541 148.908C121.551 148.89 121.564 148.874 121.581 148.861C121.597 148.848 121.616 148.838 121.636 148.832C121.656 148.827 121.677 148.825 121.698 148.828C121.739 148.833 121.777 148.853 121.803 148.885C121.829 148.917 121.841 148.958 121.837 149C121.833 149.039 121.814 149.075 121.785 149.101C121.756 149.128 121.719 149.143 121.679 149.143L121.666 149.139ZM124.668 149C124.665 148.979 124.667 148.958 124.672 148.938C124.678 148.918 124.687 148.899 124.7 148.882C124.713 148.866 124.729 148.852 124.748 148.842C124.766 148.832 124.786 148.826 124.807 148.823C124.828 148.821 124.849 148.822 124.869 148.828C124.889 148.833 124.908 148.843 124.924 148.856C124.94 148.869 124.954 148.885 124.964 148.903C124.974 148.922 124.981 148.942 124.983 148.962C124.986 148.983 124.984 149.004 124.979 149.024C124.973 149.045 124.963 149.063 124.95 149.08C124.937 149.096 124.921 149.11 124.903 149.12C124.885 149.13 124.865 149.136 124.844 149.139C124.823 149.141 124.802 149.14 124.782 149.134C124.762 149.129 124.743 149.119 124.727 149.106C124.71 149.093 124.697 149.077 124.686 149.059C124.676 149.04 124.67 149.02 124.668 149ZM120.097 148.897C120.056 148.888 120.02 148.862 119.997 148.827C119.974 148.792 119.965 148.749 119.972 148.707C119.982 148.666 120.007 148.63 120.042 148.607C120.078 148.584 120.121 148.575 120.162 148.582C120.203 148.592 120.239 148.617 120.262 148.652C120.286 148.688 120.295 148.731 120.287 148.772C120.279 148.808 120.259 148.84 120.23 148.862C120.202 148.885 120.166 148.897 120.13 148.897H120.097ZM126.217 148.74C126.212 148.719 126.21 148.698 126.213 148.677C126.216 148.656 126.223 148.636 126.234 148.618C126.245 148.6 126.259 148.584 126.276 148.571C126.293 148.559 126.313 148.55 126.333 148.545C126.374 148.536 126.416 148.544 126.452 148.565C126.487 148.587 126.513 148.621 126.524 148.661C126.534 148.702 126.527 148.745 126.505 148.782C126.484 148.818 126.449 148.845 126.408 148.856H126.371C126.334 148.859 126.298 148.849 126.268 148.828C126.238 148.807 126.217 148.775 126.208 148.74H126.217ZM176.965 148.805C176.923 148.805 176.883 148.788 176.854 148.758C176.824 148.729 176.807 148.689 176.807 148.647C176.807 148.605 176.824 148.565 176.854 148.535C176.883 148.506 176.923 148.489 176.965 148.489C177.007 148.489 177.047 148.506 177.077 148.535C177.106 148.565 177.123 148.605 177.123 148.647C177.123 148.689 177.106 148.729 177.077 148.758C177.047 148.788 177.007 148.805 176.965 148.805ZM178.38 148.582C178.378 148.561 178.379 148.541 178.385 148.521C178.391 148.501 178.4 148.482 178.413 148.466C178.426 148.45 178.442 148.437 178.461 148.428C178.479 148.418 178.499 148.412 178.519 148.41C178.54 148.407 178.562 148.408 178.582 148.413C178.602 148.419 178.621 148.428 178.638 148.441C178.655 148.454 178.668 148.471 178.678 148.489C178.688 148.508 178.694 148.528 178.696 148.549C178.7 148.592 178.687 148.634 178.66 148.667C178.633 148.7 178.594 148.721 178.552 148.726C178.51 148.728 178.469 148.715 178.437 148.688C178.405 148.661 178.385 148.623 178.38 148.582ZM175.378 148.707C175.358 148.705 175.338 148.699 175.32 148.688C175.302 148.678 175.286 148.664 175.273 148.648C175.261 148.631 175.251 148.613 175.246 148.592C175.241 148.572 175.24 148.551 175.244 148.531C175.246 148.51 175.252 148.49 175.262 148.472C175.273 148.453 175.286 148.437 175.303 148.424C175.319 148.412 175.338 148.402 175.358 148.396C175.378 148.391 175.399 148.389 175.42 148.392C175.461 148.398 175.499 148.419 175.525 148.452C175.551 148.485 175.563 148.526 175.559 148.568C175.555 148.607 175.536 148.643 175.507 148.67C175.478 148.696 175.441 148.711 175.401 148.712L175.378 148.707ZM118.557 148.517C118.537 148.512 118.518 148.502 118.501 148.49C118.485 148.477 118.471 148.461 118.46 148.443C118.45 148.425 118.443 148.405 118.441 148.384C118.438 148.363 118.44 148.342 118.445 148.322C118.458 148.282 118.486 148.248 118.523 148.227C118.56 148.206 118.604 148.201 118.645 148.211C118.685 148.224 118.719 148.252 118.739 148.289C118.759 148.326 118.763 148.37 118.752 148.41C118.742 148.443 118.722 148.472 118.694 148.492C118.667 148.513 118.633 148.523 118.599 148.522H118.557V148.517ZM179.939 148.364C179.935 148.343 179.934 148.322 179.938 148.302C179.942 148.281 179.95 148.261 179.962 148.244C179.973 148.226 179.989 148.212 180.006 148.2C180.024 148.189 180.044 148.182 180.065 148.178C180.085 148.174 180.106 148.174 180.126 148.178C180.147 148.183 180.166 148.191 180.183 148.202C180.201 148.214 180.216 148.229 180.227 148.246C180.238 148.264 180.246 148.283 180.25 148.304C180.254 148.324 180.254 148.345 180.25 148.365C180.246 148.386 180.238 148.405 180.226 148.422C180.215 148.44 180.2 148.454 180.182 148.466C180.165 148.477 180.145 148.485 180.125 148.489H180.097C180.061 148.489 180.025 148.477 179.996 148.454C179.968 148.431 179.948 148.399 179.939 148.364ZM173.819 148.42C173.798 148.416 173.779 148.408 173.761 148.396C173.744 148.384 173.729 148.369 173.718 148.351C173.707 148.333 173.7 148.313 173.698 148.292C173.695 148.271 173.697 148.249 173.703 148.229C173.713 148.189 173.739 148.154 173.774 148.132C173.81 148.11 173.853 148.104 173.893 148.113C173.934 148.123 173.969 148.149 173.991 148.184C174.012 148.22 174.019 148.263 174.009 148.304C174.001 148.338 173.981 148.369 173.954 148.39C173.926 148.412 173.892 148.424 173.856 148.424H173.819V148.42ZM127.721 148.29C127.713 148.27 127.709 148.249 127.709 148.228C127.709 148.207 127.714 148.187 127.723 148.167C127.731 148.148 127.744 148.131 127.76 148.117C127.775 148.103 127.794 148.092 127.814 148.085C127.852 148.07 127.896 148.071 127.934 148.087C127.972 148.104 128.002 148.135 128.018 148.174C128.025 148.193 128.029 148.214 128.028 148.235C128.027 148.256 128.023 148.276 128.014 148.295C128.005 148.314 127.993 148.331 127.978 148.345C127.962 148.36 127.944 148.371 127.925 148.378C127.907 148.382 127.888 148.382 127.869 148.378C127.839 148.379 127.809 148.371 127.782 148.355C127.756 148.34 127.735 148.317 127.721 148.29ZM181.475 148.016C181.469 147.995 181.467 147.974 181.469 147.953C181.471 147.932 181.478 147.911 181.488 147.892C181.498 147.874 181.513 147.857 181.53 147.844C181.546 147.831 181.566 147.822 181.587 147.816C181.607 147.811 181.628 147.809 181.648 147.812C181.669 147.814 181.689 147.821 181.707 147.831C181.725 147.842 181.741 147.856 181.754 147.872C181.767 147.889 181.776 147.908 181.781 147.928C181.787 147.948 181.789 147.969 181.786 147.99C181.783 148.01 181.777 148.03 181.766 148.048C181.756 148.067 181.742 148.082 181.726 148.095C181.709 148.108 181.69 148.117 181.67 148.123H181.628C181.595 148.123 181.562 148.114 181.534 148.094C181.507 148.075 181.486 148.048 181.475 148.016ZM172.297 147.96C172.258 147.947 172.226 147.918 172.207 147.88C172.189 147.843 172.186 147.8 172.2 147.761C172.214 147.721 172.244 147.689 172.282 147.671C172.32 147.652 172.364 147.65 172.404 147.663C172.444 147.678 172.476 147.707 172.494 147.746C172.512 147.784 172.515 147.827 172.501 147.867C172.489 147.898 172.468 147.924 172.441 147.942C172.413 147.96 172.381 147.97 172.348 147.969C172.331 147.971 172.313 147.968 172.297 147.96ZM129.145 147.663C129.136 147.645 129.13 147.624 129.128 147.604C129.126 147.583 129.129 147.562 129.135 147.542C129.142 147.522 129.152 147.504 129.166 147.488C129.18 147.472 129.196 147.459 129.215 147.45C129.253 147.432 129.297 147.43 129.337 147.444C129.376 147.458 129.409 147.486 129.428 147.524C129.438 147.542 129.443 147.562 129.445 147.583C129.447 147.603 129.444 147.624 129.438 147.643C129.431 147.663 129.421 147.681 129.407 147.696C129.394 147.711 129.377 147.724 129.359 147.733C129.334 147.74 129.309 147.74 129.284 147.733C129.26 147.731 129.237 147.724 129.216 147.712C129.195 147.7 129.177 147.683 129.164 147.663H129.145ZM182.969 147.552C182.962 147.533 182.958 147.512 182.959 147.492C182.96 147.471 182.965 147.451 182.973 147.432C182.982 147.414 182.994 147.397 183.01 147.383C183.025 147.37 183.043 147.359 183.062 147.352C183.101 147.34 183.144 147.344 183.181 147.362C183.218 147.38 183.247 147.411 183.262 147.45C183.275 147.49 183.272 147.534 183.254 147.572C183.236 147.61 183.204 147.639 183.164 147.654H183.113C183.084 147.651 183.057 147.639 183.034 147.621C183.011 147.603 182.993 147.579 182.983 147.552H182.969ZM170.817 147.357C170.798 147.348 170.781 147.336 170.767 147.321C170.753 147.306 170.742 147.288 170.734 147.269C170.727 147.25 170.724 147.229 170.724 147.208C170.725 147.188 170.73 147.167 170.738 147.148C170.756 147.111 170.788 147.082 170.827 147.067C170.866 147.053 170.909 147.053 170.947 147.069C170.966 147.078 170.984 147.09 170.999 147.106C171.013 147.121 171.025 147.139 171.032 147.159C171.039 147.179 171.043 147.2 171.041 147.222C171.04 147.243 171.035 147.264 171.026 147.283C171.013 147.31 170.993 147.333 170.967 147.35C170.942 147.366 170.912 147.375 170.882 147.376C170.864 147.374 170.846 147.367 170.831 147.357H170.817ZM184.44 146.995C184.432 146.976 184.428 146.955 184.428 146.935C184.428 146.914 184.432 146.893 184.44 146.874C184.449 146.855 184.461 146.838 184.476 146.823C184.491 146.809 184.509 146.798 184.528 146.791C184.547 146.782 184.567 146.777 184.588 146.776C184.609 146.776 184.63 146.779 184.649 146.787C184.668 146.795 184.686 146.807 184.7 146.822C184.714 146.837 184.725 146.855 184.732 146.874C184.741 146.894 184.745 146.914 184.746 146.935C184.746 146.956 184.742 146.977 184.734 146.996C184.727 147.016 184.715 147.033 184.7 147.048C184.686 147.063 184.668 147.075 184.649 147.083C184.629 147.088 184.608 147.088 184.589 147.083C184.56 147.082 184.533 147.072 184.51 147.057C184.486 147.042 184.467 147.02 184.454 146.995H184.44ZM130.523 146.902C130.501 146.866 130.493 146.822 130.503 146.78C130.513 146.739 130.538 146.702 130.574 146.68C130.592 146.669 130.612 146.661 130.632 146.658C130.653 146.654 130.674 146.655 130.694 146.66C130.714 146.664 130.733 146.673 130.75 146.685C130.767 146.697 130.782 146.713 130.792 146.731C130.803 146.748 130.811 146.768 130.814 146.788C130.818 146.809 130.817 146.83 130.812 146.85C130.808 146.871 130.799 146.89 130.787 146.907C130.775 146.923 130.759 146.938 130.741 146.949C130.717 146.967 130.688 146.977 130.658 146.977C130.634 146.974 130.61 146.966 130.589 146.953C130.568 146.94 130.551 146.923 130.537 146.902H130.523ZM169.402 146.647C169.365 146.627 169.337 146.592 169.325 146.551C169.313 146.511 169.317 146.467 169.337 146.429C169.358 146.393 169.393 146.366 169.434 146.355C169.474 146.343 169.518 146.348 169.555 146.369C169.591 146.389 169.618 146.423 169.629 146.463C169.64 146.503 169.635 146.546 169.615 146.582C169.601 146.607 169.581 146.628 169.557 146.643C169.532 146.657 169.505 146.665 169.476 146.666C169.455 146.662 169.435 146.656 169.416 146.647H169.402ZM185.883 146.359C185.866 146.322 185.864 146.279 185.877 146.24C185.891 146.201 185.92 146.169 185.957 146.151C185.996 146.133 186.039 146.131 186.079 146.145C186.119 146.158 186.152 146.187 186.171 146.225C186.179 146.244 186.184 146.264 186.185 146.285C186.185 146.306 186.182 146.326 186.175 146.346C186.167 146.365 186.156 146.383 186.142 146.398C186.128 146.413 186.111 146.425 186.092 146.434H186.022C185.997 146.432 185.972 146.425 185.951 146.412C185.929 146.399 185.91 146.381 185.897 146.359H185.883ZM131.832 146.03C131.808 145.995 131.798 145.953 131.805 145.911C131.812 145.87 131.835 145.832 131.869 145.807C131.903 145.783 131.945 145.773 131.987 145.779C132.028 145.785 132.066 145.807 132.092 145.84C132.116 145.874 132.125 145.917 132.118 145.959C132.111 146 132.088 146.037 132.055 146.062C132.027 146.082 131.995 146.093 131.962 146.095C131.939 146.093 131.917 146.086 131.897 146.075C131.877 146.064 131.859 146.048 131.846 146.03H131.832ZM168.024 145.854C168.006 145.843 167.991 145.829 167.979 145.813C167.967 145.796 167.958 145.778 167.953 145.758C167.948 145.738 167.948 145.717 167.951 145.697C167.954 145.677 167.962 145.658 167.973 145.64C167.982 145.622 167.996 145.606 168.012 145.593C168.028 145.58 168.047 145.57 168.067 145.565C168.087 145.56 168.108 145.559 168.129 145.562C168.149 145.565 168.169 145.573 168.186 145.585C168.204 145.595 168.22 145.609 168.233 145.626C168.245 145.643 168.255 145.662 168.26 145.682C168.265 145.702 168.266 145.723 168.263 145.744C168.26 145.765 168.253 145.785 168.242 145.803C168.228 145.826 168.208 145.845 168.185 145.859C168.161 145.873 168.135 145.881 168.107 145.881C168.086 145.876 168.065 145.867 168.047 145.854H168.024ZM187.284 145.654C187.265 145.617 187.261 145.574 187.273 145.534C187.285 145.494 187.312 145.46 187.349 145.441C187.387 145.422 187.429 145.419 187.469 145.431C187.509 145.443 187.542 145.47 187.563 145.506C187.583 145.543 187.587 145.587 187.575 145.628C187.563 145.669 187.535 145.703 187.498 145.724C187.473 145.728 187.448 145.728 187.424 145.724C187.4 145.721 187.378 145.714 187.358 145.702C187.338 145.69 187.321 145.674 187.308 145.654H187.284ZM133.085 145.079C133.071 145.063 133.062 145.044 133.056 145.024C133.05 145.004 133.048 144.983 133.05 144.963C133.052 144.942 133.058 144.922 133.068 144.904C133.078 144.885 133.092 144.869 133.108 144.856C133.141 144.831 133.182 144.819 133.224 144.823C133.265 144.827 133.303 144.848 133.331 144.879C133.359 144.91 133.375 144.951 133.375 144.993C133.375 145.035 133.359 145.076 133.331 145.107C133.301 145.128 133.265 145.14 133.228 145.139C133.205 145.14 133.181 145.135 133.16 145.125C133.139 145.114 133.121 145.098 133.108 145.079H133.085ZM166.687 145.009C166.652 144.986 166.628 144.951 166.619 144.91C166.61 144.869 166.618 144.826 166.641 144.791C166.665 144.756 166.701 144.731 166.743 144.722C166.785 144.714 166.828 144.722 166.864 144.745C166.898 144.768 166.922 144.804 166.93 144.845C166.939 144.885 166.932 144.927 166.91 144.963C166.896 144.986 166.876 145.004 166.853 145.017C166.829 145.03 166.803 145.037 166.776 145.037C166.752 145.032 166.73 145.022 166.711 145.009H166.687ZM188.663 144.893C188.652 144.875 188.644 144.855 188.641 144.835C188.638 144.814 188.639 144.793 188.645 144.772C188.65 144.752 188.659 144.733 188.672 144.716C188.684 144.7 188.7 144.686 188.718 144.675C188.755 144.654 188.798 144.649 188.838 144.659C188.879 144.669 188.914 144.695 188.936 144.731C188.957 144.767 188.963 144.81 188.952 144.851C188.942 144.892 188.916 144.927 188.881 144.949C188.855 144.963 188.826 144.971 188.797 144.972C188.774 144.968 188.752 144.959 188.732 144.945C188.713 144.932 188.697 144.914 188.686 144.893H188.663ZM165.374 144.132C165.34 144.108 165.316 144.071 165.308 144.029C165.3 143.988 165.309 143.945 165.333 143.909C165.358 143.876 165.395 143.853 165.436 143.845C165.477 143.837 165.52 143.845 165.555 143.868C165.589 143.893 165.612 143.93 165.62 143.971C165.627 144.012 165.619 144.055 165.597 144.09C165.582 144.112 165.562 144.13 165.538 144.142C165.515 144.154 165.489 144.16 165.463 144.16C165.439 144.156 165.417 144.146 165.398 144.132H165.374ZM190.008 144.077C189.987 144.04 189.98 143.996 189.99 143.955C189.999 143.914 190.024 143.878 190.059 143.854C190.077 143.843 190.096 143.835 190.117 143.832C190.138 143.828 190.159 143.829 190.179 143.834C190.199 143.839 190.218 143.847 190.235 143.86C190.252 143.872 190.266 143.887 190.277 143.905C190.288 143.923 190.296 143.942 190.299 143.963C190.303 143.983 190.302 144.004 190.297 144.025C190.292 144.045 190.284 144.064 190.271 144.081C190.259 144.098 190.244 144.112 190.226 144.123C190.202 144.142 190.173 144.152 190.143 144.151C190.12 144.147 190.098 144.138 190.079 144.125C190.06 144.113 190.044 144.096 190.031 144.077H190.008ZM134.328 144.077C134.3 144.046 134.284 144.007 134.284 143.965C134.284 143.924 134.3 143.884 134.328 143.854C134.359 143.825 134.4 143.809 134.442 143.809C134.484 143.809 134.525 143.825 134.555 143.854C134.585 143.883 134.601 143.923 134.601 143.965C134.601 144.007 134.585 144.047 134.555 144.077C134.542 144.089 134.526 144.099 134.508 144.105C134.491 144.112 134.472 144.115 134.453 144.114C134.432 144.118 134.409 144.117 134.388 144.113C134.366 144.108 134.346 144.099 134.328 144.086V144.077ZM191.354 143.204C191.33 143.17 191.32 143.127 191.327 143.085C191.334 143.044 191.357 143.007 191.391 142.981C191.408 142.969 191.428 142.961 191.448 142.956C191.469 142.952 191.49 142.951 191.511 142.955C191.532 142.959 191.552 142.967 191.569 142.979C191.587 142.991 191.602 143.006 191.614 143.023C191.637 143.058 191.645 143.1 191.638 143.141C191.63 143.182 191.606 143.218 191.572 143.241C191.546 143.259 191.515 143.269 191.484 143.269C191.459 143.271 191.435 143.266 191.412 143.257C191.39 143.247 191.37 143.232 191.354 143.213V143.204ZM164.094 143.241C164.076 143.23 164.061 143.215 164.05 143.198C164.038 143.181 164.03 143.162 164.026 143.141C164.022 143.121 164.022 143.1 164.027 143.08C164.031 143.059 164.04 143.04 164.052 143.023C164.075 142.988 164.111 142.964 164.151 142.955C164.192 142.946 164.235 142.954 164.27 142.977C164.288 142.989 164.303 143.004 164.314 143.021C164.326 143.039 164.334 143.059 164.338 143.079C164.342 143.1 164.342 143.121 164.337 143.142C164.333 143.163 164.324 143.182 164.312 143.2C164.298 143.221 164.279 143.239 164.256 143.252C164.233 143.264 164.208 143.27 164.182 143.269C164.151 143.271 164.121 143.265 164.094 143.251V143.241ZM135.539 143.065C135.524 143.051 135.512 143.033 135.504 143.014C135.495 142.995 135.491 142.975 135.491 142.954C135.491 142.933 135.495 142.912 135.504 142.893C135.512 142.874 135.524 142.857 135.539 142.842C135.569 142.814 135.609 142.798 135.651 142.798C135.692 142.798 135.732 142.814 135.762 142.842C135.791 142.872 135.808 142.912 135.808 142.954C135.808 142.995 135.791 143.035 135.762 143.065C135.734 143.09 135.697 143.103 135.66 143.102C135.639 143.106 135.617 143.106 135.596 143.101C135.576 143.097 135.556 143.087 135.539 143.074V143.065ZM162.785 142.369C162.767 142.358 162.752 142.344 162.74 142.327C162.728 142.31 162.719 142.29 162.715 142.27C162.711 142.25 162.71 142.228 162.715 142.208C162.719 142.188 162.727 142.168 162.739 142.151C162.75 142.133 162.764 142.118 162.781 142.106C162.798 142.093 162.817 142.085 162.838 142.081C162.858 142.076 162.879 142.076 162.9 142.08C162.92 142.084 162.94 142.093 162.957 142.105C162.992 142.127 163.017 142.163 163.025 142.204C163.034 142.245 163.026 142.288 163.003 142.323C162.99 142.345 162.97 142.362 162.948 142.375C162.925 142.387 162.899 142.393 162.873 142.392C162.843 142.397 162.812 142.392 162.785 142.378V142.369ZM192.644 142.295C192.631 142.278 192.622 142.26 192.617 142.24C192.612 142.22 192.61 142.199 192.614 142.179C192.617 142.158 192.624 142.139 192.634 142.121C192.645 142.104 192.659 142.089 192.676 142.077C192.71 142.052 192.752 142.042 192.794 142.048C192.836 142.054 192.873 142.076 192.899 142.109C192.923 142.144 192.932 142.186 192.925 142.228C192.918 142.27 192.896 142.307 192.862 142.332C192.834 142.35 192.802 142.36 192.769 142.36C192.745 142.362 192.721 142.358 192.699 142.348C192.677 142.338 192.658 142.323 192.644 142.304V142.295ZM136.75 142.058C136.721 142.029 136.704 141.989 136.704 141.947C136.704 141.905 136.721 141.865 136.75 141.835C136.783 141.81 136.825 141.798 136.866 141.802C136.908 141.807 136.946 141.827 136.973 141.859C136.986 141.875 136.996 141.893 137.002 141.913C137.008 141.933 137.01 141.954 137.008 141.975C137.006 141.996 136.999 142.016 136.989 142.034C136.979 142.052 136.966 142.068 136.95 142.081C136.936 142.094 136.92 142.104 136.902 142.11C136.885 142.117 136.866 142.119 136.848 142.118C136.81 142.114 136.775 142.096 136.75 142.067V142.058ZM161.472 141.52C161.454 141.509 161.439 141.495 161.427 141.478C161.415 141.461 161.406 141.442 161.401 141.421C161.396 141.401 161.396 141.38 161.399 141.36C161.403 141.339 161.41 141.319 161.421 141.302C161.432 141.284 161.446 141.269 161.463 141.257C161.48 141.244 161.499 141.236 161.519 141.231C161.54 141.226 161.561 141.225 161.581 141.229C161.602 141.232 161.622 141.24 161.639 141.251C161.657 141.262 161.672 141.276 161.684 141.293C161.697 141.31 161.705 141.329 161.71 141.349C161.715 141.369 161.716 141.39 161.712 141.411C161.709 141.432 161.701 141.451 161.69 141.469C161.676 141.492 161.657 141.512 161.633 141.526C161.609 141.539 161.583 141.547 161.556 141.548C161.526 141.548 161.496 141.538 161.472 141.52ZM193.915 141.353C193.902 141.336 193.893 141.318 193.887 141.298C193.881 141.277 193.88 141.256 193.882 141.236C193.885 141.215 193.892 141.195 193.902 141.177C193.912 141.159 193.926 141.143 193.943 141.13C193.959 141.117 193.978 141.108 193.998 141.102C194.018 141.096 194.039 141.095 194.06 141.098C194.081 141.1 194.101 141.107 194.119 141.117C194.137 141.128 194.153 141.141 194.166 141.158C194.189 141.192 194.2 141.234 194.195 141.275C194.189 141.316 194.169 141.354 194.138 141.381C194.112 141.402 194.079 141.414 194.045 141.413C194.019 141.417 193.993 141.414 193.969 141.405C193.945 141.396 193.923 141.381 193.906 141.362L193.915 141.353ZM137.994 141.084C137.969 141.05 137.959 141.007 137.965 140.966C137.971 140.924 137.993 140.887 138.026 140.861C138.06 140.837 138.103 140.826 138.144 140.832C138.186 140.838 138.223 140.86 138.249 140.893C138.273 140.928 138.284 140.97 138.278 141.011C138.271 141.053 138.25 141.09 138.216 141.116C138.189 141.136 138.157 141.147 138.124 141.149C138.098 141.151 138.071 141.148 138.047 141.138C138.023 141.128 138.001 141.113 137.984 141.093L137.994 141.084ZM160.122 140.717C160.104 140.707 160.088 140.693 160.075 140.676C160.063 140.659 160.053 140.64 160.048 140.62C160.043 140.6 160.042 140.578 160.045 140.558C160.048 140.537 160.055 140.517 160.066 140.499C160.076 140.481 160.09 140.465 160.106 140.453C160.122 140.44 160.141 140.431 160.161 140.426C160.181 140.421 160.202 140.42 160.222 140.423C160.243 140.426 160.262 140.433 160.28 140.443C160.298 140.453 160.314 140.466 160.327 140.483C160.34 140.499 160.35 140.517 160.356 140.537C160.361 140.557 160.363 140.578 160.36 140.599C160.357 140.619 160.351 140.639 160.34 140.657C160.326 140.682 160.306 140.703 160.282 140.717C160.257 140.732 160.229 140.74 160.201 140.74C160.171 140.743 160.14 140.738 160.113 140.726L160.122 140.717ZM195.145 140.369C195.131 140.353 195.122 140.335 195.116 140.315C195.11 140.295 195.108 140.274 195.11 140.253C195.112 140.232 195.118 140.212 195.128 140.194C195.138 140.176 195.152 140.16 195.168 140.146C195.184 140.133 195.202 140.123 195.222 140.117C195.242 140.111 195.263 140.11 195.284 140.112C195.305 140.114 195.325 140.12 195.343 140.13C195.361 140.14 195.377 140.153 195.391 140.17C195.419 140.2 195.435 140.24 195.435 140.281C195.435 140.322 195.419 140.362 195.391 140.392C195.361 140.415 195.325 140.428 195.288 140.429C195.261 140.436 195.232 140.434 195.205 140.425C195.178 140.416 195.154 140.4 195.135 140.378L195.145 140.369ZM139.274 140.165C139.262 140.148 139.254 140.128 139.249 140.108C139.244 140.087 139.244 140.066 139.248 140.045C139.252 140.024 139.26 140.004 139.272 139.987C139.283 139.969 139.298 139.954 139.316 139.942C139.352 139.919 139.395 139.911 139.437 139.92C139.479 139.929 139.515 139.953 139.539 139.989C139.562 140.024 139.569 140.066 139.561 140.107C139.552 140.148 139.527 140.184 139.492 140.207C139.467 140.225 139.436 140.235 139.404 140.235C139.378 140.237 139.351 140.232 139.327 140.222C139.303 140.211 139.282 140.195 139.265 140.174L139.274 140.165ZM158.762 139.97C158.725 139.95 158.698 139.917 158.686 139.877C158.673 139.837 158.678 139.794 158.697 139.757C158.707 139.738 158.72 139.721 158.736 139.708C158.751 139.694 158.77 139.684 158.79 139.677C158.809 139.671 158.83 139.668 158.851 139.67C158.872 139.672 158.892 139.678 158.911 139.687C158.947 139.709 158.974 139.743 158.987 139.783C159 139.823 158.998 139.867 158.98 139.905C158.966 139.93 158.944 139.951 158.919 139.966C158.894 139.98 158.866 139.988 158.837 139.989C158.803 139.998 158.766 139.995 158.735 139.979L158.762 139.97ZM196.346 139.353C196.317 139.323 196.3 139.283 196.3 139.242C196.3 139.2 196.317 139.16 196.346 139.13C196.376 139.102 196.416 139.086 196.458 139.086C196.499 139.086 196.539 139.102 196.569 139.13C196.597 139.16 196.613 139.2 196.613 139.242C196.613 139.283 196.597 139.323 196.569 139.353C196.556 139.366 196.54 139.377 196.522 139.384C196.505 139.391 196.486 139.395 196.467 139.395C196.445 139.399 196.422 139.398 196.401 139.392C196.379 139.386 196.359 139.376 196.342 139.362L196.346 139.353ZM140.592 139.334C140.581 139.316 140.575 139.296 140.572 139.275C140.569 139.254 140.571 139.233 140.576 139.213C140.582 139.192 140.591 139.173 140.605 139.157C140.618 139.14 140.634 139.127 140.652 139.116C140.689 139.096 140.732 139.091 140.772 139.103C140.811 139.114 140.845 139.141 140.866 139.177C140.877 139.195 140.883 139.215 140.886 139.236C140.889 139.257 140.887 139.278 140.882 139.298C140.876 139.319 140.867 139.338 140.853 139.354C140.84 139.371 140.824 139.385 140.806 139.395C140.78 139.401 140.753 139.401 140.727 139.395C140.701 139.396 140.675 139.392 140.652 139.381C140.628 139.371 140.608 139.355 140.592 139.334ZM157.319 139.307C157.3 139.298 157.283 139.286 157.269 139.271C157.255 139.256 157.244 139.238 157.237 139.219C157.229 139.199 157.226 139.179 157.227 139.158C157.227 139.137 157.232 139.117 157.24 139.098C157.249 139.079 157.261 139.062 157.276 139.048C157.291 139.034 157.309 139.022 157.328 139.015C157.348 139.008 157.369 139.004 157.389 139.005C157.41 139.006 157.43 139.01 157.449 139.019C157.469 139.027 157.486 139.039 157.501 139.054C157.515 139.069 157.526 139.087 157.534 139.106C157.541 139.126 157.545 139.147 157.544 139.168C157.543 139.188 157.537 139.209 157.528 139.228C157.516 139.255 157.495 139.279 157.47 139.295C157.444 139.312 157.415 139.321 157.384 139.321C157.363 139.32 157.343 139.315 157.324 139.307H157.319ZM155.876 138.736C155.856 138.729 155.838 138.719 155.822 138.704C155.807 138.69 155.794 138.673 155.785 138.654C155.777 138.635 155.772 138.614 155.772 138.593C155.771 138.572 155.775 138.551 155.783 138.532C155.799 138.493 155.829 138.462 155.867 138.444C155.905 138.427 155.948 138.425 155.988 138.439C156.026 138.455 156.058 138.484 156.075 138.522C156.092 138.56 156.094 138.604 156.08 138.643C156.07 138.674 156.049 138.7 156.023 138.718C155.996 138.737 155.964 138.746 155.932 138.745C155.913 138.747 155.894 138.744 155.876 138.736ZM141.984 138.606C141.968 138.568 141.967 138.525 141.982 138.486C141.997 138.447 142.026 138.415 142.063 138.397C142.082 138.388 142.103 138.383 142.124 138.382C142.145 138.381 142.167 138.384 142.187 138.391C142.206 138.399 142.225 138.41 142.24 138.424C142.256 138.439 142.268 138.457 142.276 138.476C142.285 138.495 142.289 138.516 142.29 138.537C142.29 138.558 142.286 138.579 142.278 138.598C142.271 138.617 142.259 138.635 142.244 138.65C142.23 138.665 142.212 138.677 142.193 138.685C142.172 138.69 142.149 138.69 142.128 138.685C142.099 138.686 142.07 138.679 142.045 138.666C142.02 138.652 141.999 138.631 141.984 138.606ZM154.387 138.23C154.347 138.217 154.313 138.189 154.293 138.152C154.273 138.115 154.268 138.071 154.28 138.031C154.293 137.99 154.321 137.957 154.358 137.937C154.395 137.917 154.439 137.912 154.48 137.924C154.52 137.937 154.554 137.965 154.573 138.002C154.593 138.039 154.598 138.083 154.586 138.123C154.576 138.156 154.555 138.184 154.528 138.204C154.5 138.224 154.467 138.235 154.433 138.235H154.387V138.23ZM143.441 138.012C143.435 137.992 143.432 137.971 143.434 137.951C143.435 137.93 143.441 137.91 143.451 137.891C143.46 137.872 143.473 137.856 143.489 137.843C143.505 137.829 143.523 137.819 143.543 137.813C143.563 137.806 143.584 137.804 143.605 137.805C143.625 137.807 143.646 137.813 143.664 137.822C143.683 137.831 143.699 137.845 143.713 137.86C143.726 137.876 143.736 137.895 143.743 137.915C143.749 137.934 143.752 137.955 143.75 137.976C143.748 137.997 143.743 138.017 143.733 138.036C143.724 138.054 143.711 138.071 143.695 138.084C143.679 138.098 143.66 138.108 143.641 138.114H143.59C143.558 138.113 143.528 138.103 143.502 138.085C143.476 138.067 143.457 138.041 143.446 138.012H143.441ZM152.874 137.845C152.834 137.836 152.798 137.812 152.776 137.777C152.753 137.742 152.745 137.7 152.754 137.659C152.757 137.639 152.765 137.619 152.777 137.601C152.789 137.584 152.804 137.569 152.822 137.557C152.84 137.546 152.86 137.539 152.881 137.535C152.902 137.532 152.923 137.533 152.944 137.539C152.964 137.543 152.983 137.551 153.001 137.562C153.018 137.574 153.033 137.588 153.044 137.606C153.055 137.623 153.063 137.643 153.066 137.663C153.07 137.683 153.069 137.704 153.064 137.724C153.057 137.76 153.037 137.793 153.008 137.815C152.979 137.838 152.943 137.85 152.907 137.85H152.874V137.845ZM144.949 137.581C144.944 137.56 144.944 137.538 144.948 137.517C144.951 137.496 144.959 137.476 144.971 137.459C144.983 137.441 144.998 137.426 145.016 137.414C145.033 137.402 145.053 137.394 145.074 137.39C145.115 137.382 145.157 137.39 145.192 137.413C145.227 137.435 145.251 137.47 145.26 137.511C145.265 137.531 145.265 137.553 145.262 137.573C145.258 137.594 145.251 137.614 145.24 137.631C145.228 137.649 145.214 137.664 145.196 137.676C145.179 137.688 145.16 137.697 145.139 137.701H145.107C145.072 137.7 145.038 137.688 145.01 137.666C144.983 137.645 144.963 137.615 144.954 137.581H144.949ZM151.338 137.581C151.297 137.574 151.26 137.551 151.235 137.517C151.209 137.483 151.198 137.441 151.204 137.4C151.206 137.379 151.212 137.359 151.223 137.341C151.233 137.323 151.247 137.307 151.263 137.295C151.28 137.282 151.298 137.273 151.319 137.268C151.339 137.263 151.36 137.262 151.38 137.265C151.422 137.272 151.459 137.295 151.484 137.328C151.509 137.362 151.52 137.404 151.515 137.446C151.508 137.483 151.489 137.517 151.46 137.542C151.431 137.566 151.395 137.58 151.357 137.581H151.334H151.338ZM146.499 137.316C146.495 137.275 146.507 137.234 146.533 137.202C146.559 137.17 146.597 137.149 146.638 137.144C146.659 137.141 146.68 137.142 146.701 137.148C146.721 137.153 146.74 137.162 146.757 137.175C146.773 137.189 146.787 137.205 146.797 137.223C146.807 137.242 146.813 137.263 146.814 137.284C146.818 137.326 146.805 137.368 146.778 137.401C146.752 137.434 146.713 137.455 146.671 137.46C146.629 137.461 146.588 137.447 146.557 137.419C146.526 137.391 146.507 137.353 146.503 137.311L146.499 137.316ZM149.784 137.418C149.763 137.418 149.742 137.413 149.723 137.404C149.704 137.395 149.687 137.382 149.674 137.367C149.66 137.351 149.649 137.333 149.642 137.313C149.636 137.293 149.634 137.272 149.635 137.251C149.637 137.23 149.642 137.21 149.651 137.191C149.66 137.173 149.673 137.156 149.688 137.142C149.704 137.128 149.722 137.118 149.741 137.111C149.761 137.104 149.782 137.101 149.803 137.103C149.845 137.106 149.884 137.126 149.912 137.158C149.939 137.19 149.954 137.232 149.951 137.274C149.949 137.315 149.931 137.352 149.902 137.38C149.872 137.408 149.834 137.423 149.793 137.423L149.784 137.418ZM148.067 137.214C148.067 137.193 148.07 137.172 148.078 137.153C148.086 137.133 148.097 137.116 148.112 137.101C148.127 137.086 148.144 137.075 148.164 137.067C148.183 137.059 148.204 137.056 148.225 137.056C148.267 137.056 148.307 137.073 148.336 137.102C148.366 137.132 148.383 137.172 148.383 137.214C148.383 137.256 148.366 137.296 148.336 137.326C148.307 137.355 148.267 137.372 148.225 137.372C148.204 137.371 148.184 137.366 148.165 137.358C148.146 137.349 148.129 137.337 148.115 137.322C148.1 137.307 148.089 137.289 148.082 137.27C148.075 137.251 148.071 137.23 148.072 137.209L148.067 137.214Z" fill="white"/>
<path opacity="0.8" d="M117.044 148.016C117.024 148.02 117.004 148.02 116.984 148.016C116.964 148.008 116.946 147.995 116.933 147.979C116.917 147.966 116.905 147.948 116.9 147.928C116.896 147.908 116.896 147.887 116.9 147.868C116.902 147.826 116.918 147.786 116.947 147.756C116.961 147.741 116.978 147.73 116.998 147.724C117.017 147.715 117.037 147.71 117.058 147.71C117.079 147.71 117.1 147.715 117.118 147.724C117.138 147.729 117.156 147.74 117.169 147.756C117.184 147.771 117.196 147.788 117.204 147.807C117.212 147.826 117.216 147.847 117.216 147.868C117.221 147.887 117.221 147.908 117.216 147.928C117.209 147.948 117.196 147.966 117.179 147.979C117.165 147.995 117.147 148.008 117.128 148.016C117.101 148.025 117.071 148.025 117.044 148.016Z" fill="white"/>
</g>
<path d="M142.485 100.507L141.404 99.3377C139.452 101.184 136.872 102.222 134.184 102.242C132.052 102.276 129.976 101.558 128.319 100.214C126.663 98.8702 125.533 96.9863 125.127 94.8926L123.503 95.3195L122.018 95.7092C122.44 97.9012 123.467 99.9313 124.983 101.57C129.693 106.646 138.04 106.646 143.478 101.57L142.485 100.507Z" fill="white"/>
<path d="M144.801 83.0791L143.376 84.4015L142.397 85.3295C143.261 86.2674 143.922 87.3742 144.337 88.58C144.752 89.7859 144.913 91.0647 144.81 92.3359C144.599 95.0187 143.383 97.5229 141.404 99.3469L142.253 100.275L143.478 101.593C146.088 99.1829 147.692 95.8771 147.97 92.3359C148.108 90.6578 147.898 88.9693 147.353 87.3763C146.807 85.7833 145.938 84.3202 144.801 83.0791Z" fill="#263238"/>
<path d="M144.801 83.0793C140.091 78.0078 131.744 78.0078 126.31 83.0793C124.591 84.6534 123.297 86.6366 122.549 88.8447C121.801 91.0528 121.623 93.4142 122.032 95.7094L123.888 95.2454L125.159 94.9113C124.997 94.0662 124.947 93.2035 125.011 92.3454C125.236 89.6689 126.449 87.1718 128.412 85.3393C130.376 83.5067 132.951 82.4697 135.637 82.4297C136.91 82.4157 138.172 82.6668 139.343 83.1668C140.514 83.6669 141.568 84.405 142.439 85.3343L143.692 84.1604L144.801 83.0793Z" fill="#407BFF"/>
<path d="M158.131 100.507L159.379 99.3377C158.518 98.3995 157.86 97.293 157.447 96.0879C157.034 94.8829 156.875 93.6054 156.981 92.3359C157.171 90.1058 158.045 87.9888 159.483 86.2739C160.922 84.559 162.854 83.3299 165.017 82.7543L164.702 81.1581L164.419 79.7012C162.135 80.3098 160.037 81.4733 158.312 83.0884C152.874 88.1599 152.28 96.5072 156.985 101.583L158.131 100.507Z" fill="white"/>
<path d="M175.48 101.574L174.251 100.247L173.406 99.3191C171.455 101.168 168.874 102.208 166.186 102.228C164.912 102.242 163.649 101.991 162.478 101.491C161.306 100.991 160.251 100.253 159.379 99.3237L158.4 100.252L156.985 101.574C158.136 102.796 159.528 103.767 161.072 104.426C162.616 105.085 164.28 105.417 165.959 105.402C169.502 105.372 172.902 104.005 175.48 101.574Z" fill="#263238"/>
<path d="M175.48 101.574C180.914 96.4982 181.512 88.1508 176.807 83.0793C175.244 81.4437 173.265 80.2644 171.083 79.6677C168.9 79.071 166.596 79.0794 164.418 79.6921L164.771 81.4971L165.017 82.7452C165.862 82.5235 166.732 82.4112 167.606 82.4111C168.882 82.3923 170.148 82.642 171.322 83.1438C172.495 83.6457 173.55 84.3886 174.418 85.3244C175.286 86.2602 175.948 87.368 176.36 88.5759C176.773 89.7838 176.926 91.0649 176.812 92.3361C176.6 95.0173 175.384 97.5196 173.406 99.3425L174.492 100.516L175.48 101.574Z" fill="#407BFF"/>
<path opacity="0.3" d="M197.395 80.4157C197.523 80.4154 197.649 80.4414 197.766 80.492C197.883 80.5427 197.988 80.6169 198.075 80.7101C198.162 80.8032 198.229 80.9134 198.272 81.0336C198.315 81.1538 198.332 81.2815 198.323 81.4087L197.748 89.4127C197.721 89.6956 197.591 89.9588 197.383 90.1528C197.176 90.3468 196.904 90.4582 196.62 90.466H188.612C188.484 90.4663 188.357 90.4402 188.24 90.3893C188.122 90.3384 188.017 90.2637 187.929 90.17C187.842 90.0763 187.775 89.9656 187.733 89.8449C187.691 89.7241 187.674 89.596 187.684 89.4684L188.254 81.4644C188.281 81.1819 188.411 80.9192 188.619 80.726C188.827 80.5327 189.098 80.4224 189.382 80.4157H197.386H197.395ZM197.386 80.0028H189.391C189.003 80.0104 188.632 80.161 188.349 80.4256C188.065 80.6902 187.889 81.0502 187.855 81.4365L187.284 89.4405C187.269 89.6237 187.292 89.8081 187.352 89.9819C187.411 90.1558 187.507 90.3153 187.632 90.4502C187.757 90.5851 187.908 90.6925 188.077 90.7655C188.246 90.8385 188.428 90.8756 188.612 90.8743H196.616C197.004 90.8677 197.375 90.7174 197.659 90.4526C197.943 90.1878 198.118 89.8272 198.151 89.4405L198.727 81.4365C198.742 81.2529 198.719 81.0682 198.659 80.894C198.599 80.7198 198.503 80.5601 198.378 80.4251C198.253 80.2901 198.1 80.1829 197.931 80.1101C197.762 80.0374 197.579 80.0008 197.395 80.0028H197.386Z" fill="#407BFF"/>
<path opacity="0.3" d="M196.407 94.1921C196.534 94.1918 196.661 94.2178 196.778 94.2684C196.895 94.319 197 94.3933 197.087 94.4864C197.174 94.5796 197.241 94.6897 197.284 94.8099C197.326 94.9301 197.344 95.0578 197.335 95.185L196.764 103.189C196.736 103.472 196.606 103.734 196.399 103.928C196.191 104.122 195.92 104.234 195.637 104.242H187.628C187.5 104.243 187.373 104.217 187.256 104.166C187.139 104.115 187.033 104.04 186.946 103.946C186.859 103.853 186.792 103.742 186.75 103.621C186.707 103.501 186.69 103.372 186.7 103.245L187.275 95.2407C187.302 94.9583 187.432 94.6956 187.64 94.5023C187.848 94.3091 188.119 94.1987 188.403 94.1921H196.402H196.407ZM196.402 93.7791H188.407C188.019 93.7857 187.648 93.936 187.364 94.2008C187.08 94.4656 186.905 94.8262 186.872 95.2129L186.296 103.217C186.281 103.4 186.304 103.585 186.364 103.759C186.424 103.934 186.52 104.093 186.645 104.228C186.77 104.363 186.923 104.471 187.092 104.543C187.261 104.616 187.444 104.653 187.628 104.651H195.632C196.02 104.643 196.391 104.492 196.674 104.228C196.958 103.963 197.133 103.603 197.168 103.217L197.738 95.2129C197.754 95.0293 197.731 94.8445 197.671 94.6704C197.611 94.4962 197.515 94.3365 197.39 94.2015C197.264 94.0665 197.112 93.9592 196.943 93.8865C196.774 93.8137 196.591 93.7772 196.407 93.7791H196.402Z" fill="#407BFF"/>
<path d="M184.672 138.471C184.78 138.469 184.886 138.489 184.986 138.53C185.085 138.572 185.174 138.634 185.247 138.713C185.32 138.792 185.376 138.886 185.41 138.989C185.444 139.091 185.457 139.199 185.447 139.307C185.426 139.548 185.317 139.772 185.141 139.938C184.964 140.103 184.733 140.197 184.491 140.202C184.383 140.205 184.276 140.186 184.176 140.144C184.077 140.102 183.987 140.04 183.914 139.961C183.841 139.881 183.785 139.788 183.751 139.685C183.717 139.583 183.705 139.474 183.716 139.367C183.736 139.126 183.845 138.9 184.021 138.735C184.198 138.569 184.43 138.475 184.672 138.471ZM184.672 138.063C184.328 138.069 183.998 138.202 183.746 138.437C183.494 138.671 183.338 138.991 183.308 139.335C183.293 139.498 183.312 139.663 183.365 139.818C183.418 139.974 183.503 140.116 183.615 140.236C183.726 140.357 183.862 140.452 184.013 140.517C184.164 140.581 184.327 140.613 184.491 140.611C184.836 140.605 185.167 140.471 185.419 140.235C185.671 140 185.827 139.678 185.855 139.335C185.87 139.171 185.849 139.007 185.796 138.852C185.743 138.697 185.658 138.556 185.546 138.436C185.435 138.316 185.299 138.221 185.149 138.157C184.998 138.092 184.836 138.061 184.672 138.063Z" fill="#407BFF"/>
<path d="M184.793 138.068L184.589 138.054L184.621 137.646L184.821 137.66L184.793 138.068Z" fill="#407BFF"/>
<path d="M184.881 136.824H184.677L184.737 135.989H184.941L184.881 136.824ZM185.002 135.145H184.797L184.858 134.309H185.062L185.002 135.145ZM185.122 133.47H184.918L184.978 132.63H185.183L185.122 133.47ZM185.243 131.795H185.039L185.099 130.955H185.303L185.243 131.795ZM185.363 130.12H185.159L185.22 129.28H185.424L185.363 130.12ZM185.484 128.445H185.28L185.34 127.605H185.544L185.484 128.445ZM185.605 126.765H185.401L185.461 125.93H185.665L185.605 126.765ZM185.725 125.09H185.521L185.582 124.25H185.786L185.725 125.09ZM185.846 123.415H185.642L185.702 122.575H185.906L185.846 123.415ZM185.962 121.74H185.758L185.818 120.9H186.022L185.962 121.74ZM186.083 120.065H185.879L185.939 119.225H186.143L186.083 120.065Z" fill="#407BFF"/>
<path d="M186.023 117.965L185.994 118.372L186.198 118.387L186.227 117.979L186.023 117.965Z" fill="#407BFF"/>
<path d="M194.778 118.195H121.308C121.107 118.197 120.908 118.156 120.723 118.076C120.538 117.997 120.373 117.879 120.236 117.731C120.099 117.583 119.993 117.408 119.927 117.217C119.861 117.026 119.835 116.823 119.851 116.622L120.218 111.564C120.252 111.15 120.44 110.764 120.743 110.481C121.047 110.198 121.445 110.038 121.86 110.033H195.344C195.545 110.032 195.743 110.072 195.928 110.152C196.112 110.231 196.278 110.348 196.414 110.495C196.551 110.642 196.655 110.816 196.721 111.006C196.787 111.195 196.812 111.397 196.796 111.597L196.434 116.654C196.401 117.072 196.212 117.461 195.906 117.746C195.599 118.031 195.197 118.191 194.778 118.195ZM121.86 110.478C121.556 110.483 121.265 110.601 121.043 110.808C120.821 111.016 120.684 111.298 120.659 111.601L120.297 116.659C120.285 116.799 120.302 116.941 120.348 117.074C120.393 117.207 120.466 117.33 120.561 117.434C120.657 117.535 120.773 117.616 120.902 117.67C121.03 117.724 121.169 117.751 121.308 117.749H194.778C195.082 117.746 195.374 117.628 195.596 117.421C195.819 117.213 195.955 116.93 195.98 116.626L196.346 111.569C196.357 111.43 196.339 111.291 196.294 111.16C196.249 111.028 196.177 110.908 196.083 110.805C195.989 110.703 195.874 110.621 195.747 110.565C195.62 110.509 195.483 110.479 195.344 110.478H121.86Z" fill="#407BFF"/>
<path opacity="0.8" fill-rule="evenodd" clip-rule="evenodd" d="M193.2 113.3H123.554C123.465 113.3 123.377 113.283 123.296 113.248C123.214 113.213 123.141 113.161 123.081 113.096C123.02 113.031 122.974 112.954 122.945 112.87C122.917 112.786 122.906 112.697 122.914 112.608C122.931 112.423 123.015 112.251 123.152 112.124C123.288 111.997 123.466 111.925 123.651 111.921H193.302C193.391 111.92 193.478 111.938 193.559 111.973C193.64 112.008 193.713 112.059 193.773 112.124C193.833 112.188 193.878 112.265 193.907 112.348C193.935 112.432 193.946 112.52 193.938 112.608C193.923 112.794 193.839 112.969 193.703 113.096C193.566 113.224 193.387 113.297 193.2 113.3Z" fill="white"/>
<path opacity="0.8" fill-rule="evenodd" clip-rule="evenodd" d="M181.596 116.2H123.345C123.257 116.2 123.17 116.183 123.089 116.148C123.008 116.113 122.935 116.062 122.875 115.997C122.815 115.932 122.769 115.856 122.741 115.773C122.712 115.689 122.702 115.601 122.709 115.513C122.724 115.326 122.808 115.152 122.945 115.025C123.081 114.897 123.26 114.824 123.447 114.821H181.693C181.786 114.817 181.878 114.833 181.963 114.869C182.049 114.904 182.126 114.958 182.189 115.026C182.251 115.094 182.299 115.175 182.327 115.263C182.355 115.351 182.364 115.444 182.352 115.536C182.329 115.72 182.24 115.889 182.1 116.012C181.961 116.134 181.781 116.201 181.596 116.2Z" fill="white"/>
</svg>
