<svg width="233" height="233" viewBox="0 0 233 233" fill="none" xmlns="http://www.w3.org/2000/svg">
<path d="M233 178.198H0V178.315H233V178.198Z" fill="#EBEBEB"/>
<path d="M53.7437 182.635H42.1543V182.751H53.7437V182.635Z" fill="#EBEBEB"/>
<path d="M83.8007 181.372H70.9857V181.488H83.8007V181.372Z" fill="#EBEBEB"/>
<path d="M49.2935 186.964H22.2142V187.08H49.2935V186.964Z" fill="#EBEBEB"/>
<path d="M209.653 186.181H199.588V186.297H209.653V186.181Z" fill="#EBEBEB"/>
<path d="M113.108 182.271H100.092V182.387H113.108V182.271Z" fill="#EBEBEB"/>
<path d="M172.835 184.214H140.112V184.331H172.835V184.214Z" fill="#EBEBEB"/>
<path d="M110.442 157.415H20.4621C19.7572 157.413 19.0816 157.133 18.5836 156.634C18.0856 156.135 17.8059 155.459 17.8059 154.754V28.2674C17.812 27.5666 18.0945 26.8965 18.5918 26.4026C19.0891 25.9088 19.7612 25.6311 20.4621 25.6299H110.442C111.148 25.6299 111.825 25.9102 112.324 26.4092C112.823 26.9082 113.103 27.585 113.103 28.2907V154.754C113.103 155.46 112.823 156.136 112.324 156.635C111.825 157.134 111.148 157.415 110.442 157.415ZM20.4621 25.7231C19.7881 25.7243 19.1421 25.9929 18.666 26.47C18.1898 26.947 17.9224 27.5934 17.9224 28.2674V154.754C17.9224 155.428 18.1898 156.074 18.666 156.551C19.1421 157.028 19.7881 157.297 20.4621 157.298H110.442C111.116 157.297 111.763 157.028 112.24 156.552C112.717 156.075 112.985 155.428 112.986 154.754V28.2674C112.985 27.593 112.717 26.9466 112.24 26.4697C111.763 25.9928 111.116 25.7243 110.442 25.7231H20.4621Z" fill="#EBEBEB"/>
<path d="M211.243 157.415H121.258C120.553 157.413 119.877 157.133 119.378 156.634C118.879 156.135 118.598 155.459 118.597 154.754V28.2674C118.604 27.5662 118.888 26.896 119.386 26.4023C119.884 25.9086 120.557 25.6311 121.258 25.6299H211.243C211.943 25.6323 212.613 25.9105 213.11 26.4042C213.606 26.898 213.888 27.5674 213.894 28.2674V154.754C213.894 155.458 213.615 156.133 213.118 156.632C212.621 157.131 211.947 157.412 211.243 157.415ZM121.258 25.7231C120.583 25.7243 119.937 25.9928 119.46 26.4697C118.983 26.9466 118.715 27.593 118.714 28.2674V154.754C118.715 155.428 118.983 156.075 119.46 156.552C119.937 157.028 120.583 157.297 121.258 157.298H211.243C211.917 157.297 212.563 157.028 213.04 156.552C213.517 156.075 213.786 155.428 213.787 154.754V28.2674C213.786 27.593 213.517 26.9466 213.04 26.4697C212.563 25.9928 211.917 25.7243 211.243 25.7231H121.258Z" fill="#EBEBEB"/>
<path d="M98.7919 38.9155H27.8015V127.334H98.7919V38.9155Z" fill="#E6E6E6"/>
<path d="M100.358 38.9155H28.5332V127.334H100.358V38.9155Z" fill="#F5F5F5"/>
<path d="M28.7802 37.7086H99.724C99.8896 37.7086 100.048 37.6428 100.166 37.5257C100.283 37.4086 100.348 37.2497 100.348 37.0841C100.347 36.9193 100.281 36.7617 100.164 36.6456C100.047 36.5295 99.8888 36.4644 99.724 36.4644H28.7802C28.6162 36.4656 28.4592 36.5313 28.3433 36.6472C28.2273 36.7632 28.1616 36.9201 28.1604 37.0841C28.1604 37.2489 28.2255 37.4071 28.3416 37.524C28.4577 37.641 28.6154 37.7073 28.7802 37.7086Z" fill="#E6E6E6"/>
<path d="M98.7919 127.334H27.8015V128.565H98.7919V127.334Z" fill="#E6E6E6"/>
<path d="M107.553 127.334H39.172V128.565H107.553V127.334Z" fill="#F5F5F5"/>
<path d="M98.1582 124.473V41.7769L30.7373 41.7769V124.473H98.1582Z" fill="#FAFAFA"/>
<path d="M54.1538 124.473L59.3544 41.7769H68.707L63.5064 124.473H54.1538Z" fill="white"/>
<path d="M66.1533 124.473L71.3539 41.7769H75.6923L70.4918 124.473H66.1533Z" fill="white"/>
<path d="M98.1582 97.0538V41.3901H97.8786V97.0538H98.1582Z" fill="#E6E6E6"/>
<g opacity="0.4">
<path opacity="0.4" d="M26.1472 41.6322V121.411C30.2806 121.411 34.0133 117.576 35.7049 111.625C39.2884 99.076 44.8105 78.5394 46.5161 41.1895C46.777 35.4204 45.5841 35.2061 44.009 35.2061H27.8761C26.9208 35.22 26.1472 38.0906 26.1472 41.6322Z" fill="#E6E6E6"/>
</g>
<g opacity="0.4">
<path opacity="0.4" d="M102.161 41.6322V121.411C98.0324 121.411 94.2997 117.576 92.6035 111.625C89.0246 99.076 83.5025 78.5394 81.7923 41.1895C81.5313 35.4204 82.7243 35.2061 84.2994 35.2061H100.432C101.388 35.22 102.161 38.0906 102.161 41.6322Z" fill="#E6E6E6"/>
</g>
<path d="M83.8007 142.186H75.5665V178.193H83.8007V142.186Z" fill="#E6E6E6"/>
<path d="M80.2359 178.198H83.8008V172.224H80.152L80.2359 178.198Z" fill="#F5F5F5"/>
<path d="M36.3387 142.186H28.1045V178.193H36.3387V142.186Z" fill="#E6E6E6"/>
<path d="M83.8008 142.186H33.2258V176.138H83.8008V142.186Z" fill="#F5F5F5"/>
<path d="M36.7907 178.198H33.2258V172.224H36.8793L36.7907 178.198Z" fill="#F5F5F5"/>
<path d="M81.0375 145.042H35.9939V157.564H81.0375V145.042Z" fill="#F0F0F0"/>
<path d="M58.5157 153.449C57.7918 153.45 57.0839 153.236 56.4816 152.834C55.8793 152.433 55.4097 151.862 55.1323 151.193C54.8548 150.524 54.782 149.788 54.923 149.078C55.064 148.368 55.4125 147.716 55.9243 147.204C56.4362 146.692 57.0885 146.344 57.7985 146.203C58.5085 146.062 59.2444 146.135 59.913 146.412C60.5817 146.69 61.1529 147.159 61.5545 147.761C61.9561 148.364 62.17 149.072 62.1691 149.796C62.1679 150.764 61.7826 151.693 61.0977 152.378C60.4128 153.062 59.4842 153.448 58.5157 153.449ZM58.5157 146.524C57.8705 146.524 57.2398 146.716 56.7034 147.074C56.167 147.432 55.7489 147.942 55.502 148.538C55.2551 149.134 55.1905 149.79 55.3163 150.423C55.4422 151.055 55.7529 151.637 56.2091 152.093C56.6653 152.549 57.2465 152.86 57.8793 152.986C58.512 153.111 59.1679 153.047 59.764 152.8C60.36 152.553 60.8695 152.135 61.2279 151.599C61.5864 151.062 61.7777 150.431 61.7777 149.786C61.7777 148.921 61.434 148.091 60.8222 147.48C60.2105 146.868 59.3808 146.524 58.5157 146.524Z" fill="white"/>
<path d="M81.0375 160.593H35.9939V173.114H81.0375V160.593Z" fill="#F0F0F0"/>
<path d="M58.5157 168.999C57.792 169 57.0843 168.786 56.4821 168.385C55.8799 167.984 55.4103 167.413 55.1327 166.744C54.8551 166.076 54.782 165.34 54.9226 164.63C55.0633 163.92 55.4113 163.268 55.9227 162.756C56.4341 162.244 57.0859 161.895 57.7956 161.754C58.5054 161.612 59.2411 161.684 59.9098 161.961C60.5785 162.238 61.1501 162.707 61.5523 163.308C61.9544 163.91 62.1691 164.618 62.1691 165.341C62.1679 166.31 61.7827 167.239 61.098 167.925C60.4132 168.61 59.4847 168.997 58.5157 168.999ZM58.5157 162.07C57.8705 162.07 57.2398 162.261 56.7034 162.62C56.167 162.978 55.7489 163.488 55.502 164.084C55.2551 164.68 55.1905 165.336 55.3163 165.968C55.4422 166.601 55.7529 167.182 56.2091 167.638C56.6653 168.095 57.2465 168.405 57.8793 168.531C58.512 168.657 59.1679 168.592 59.764 168.346C60.36 168.099 60.8695 167.681 61.2279 167.144C61.5864 166.608 61.7777 165.977 61.7777 165.332C61.7777 164.467 61.434 163.637 60.8222 163.025C60.2105 162.414 59.3808 162.07 58.5157 162.07Z" fill="white"/>
<path d="M138.896 178.198H166.996V136.552H138.896V178.198Z" fill="#E6E6E6"/>
<path d="M203.926 136.547H166.996V178.194H203.926V136.547Z" fill="#F0F0F0"/>
<g style="mix-blend-mode:multiply" opacity="0.7">
<path d="M138.901 137.316H203.926V133.001H138.901V137.316Z" fill="#E6E6E6"/>
</g>
<path d="M137.479 136.547H166.996V132.558H137.479V136.547Z" fill="#E6E6E6"/>
<path d="M205.343 132.563H166.996V136.552H205.343V132.563Z" fill="#F0F0F0"/>
<path d="M105.195 178.198H128.183V152.494H105.195V178.198Z" fill="#EBEBEB"/>
<path d="M158.393 152.489H128.183V178.194H158.393V152.489Z" fill="#F5F5F5"/>
<g style="mix-blend-mode:multiply" opacity="0.7">
<path d="M105.195 153.118H158.393V149.591H105.195V153.118Z" fill="#E6E6E6"/>
</g>
<path d="M104.034 152.489H128.183V149.227H104.034V152.489Z" fill="#EBEBEB"/>
<path d="M159.554 149.227H128.183V152.489H159.554V149.227Z" fill="#F5F5F5"/>
<path d="M192.276 45.5376H145.415V118.033H192.276V45.5376Z" fill="#E6E6E6"/>
<path d="M196.284 45.5376H146.096V118.033H196.284V45.5376Z" fill="#F5F5F5"/>
<path d="M193.087 112.32V51.2552C193.087 49.8654 191.961 48.7388 190.571 48.7388H151.814C150.424 48.7388 149.297 49.8654 149.297 51.2552V112.32C149.297 113.71 150.424 114.836 151.814 114.836H190.571C191.961 114.836 193.087 113.71 193.087 112.32Z" fill="white"/>
<path d="M180.541 75.0575L177.918 72.4346L161.841 88.5114L164.464 91.1343L180.541 75.0575Z" fill="#F5F5F5"/>
<path d="M173.928 68.4462L171.305 65.8232L155.228 81.9001L157.851 84.523L173.928 68.4462Z" fill="#F5F5F5"/>
<path d="M187.153 81.6737L184.53 79.0508L168.453 95.1277L171.076 97.7506L187.153 81.6737Z" fill="#F5F5F5"/>
<path d="M116.5 199.243C166.4 199.243 206.853 196.881 206.853 193.968C206.853 191.055 166.4 188.693 116.5 188.693C66.5995 188.693 26.1472 191.055 26.1472 193.968C26.1472 196.881 66.5995 199.243 116.5 199.243Z" fill="#F5F5F5"/>
<path d="M117.274 160.994L117.8 159.19H92.1702L82.51 192.104H87.17L91.83 176.26H98.0185L102.678 192.104H108.159L112.819 176.26H118.97L123.63 192.104H126.426L117.274 160.994ZM92.1935 175.02L94.9196 165.738L97.641 175.02H92.1935ZM104.454 188.73L100.801 176.279H108.112L104.454 188.73ZM108.48 175.02H100.428L96.3129 160.994L96.4714 160.449H112.772L108.48 175.02ZM113.14 175.02L115.866 165.738L118.588 175.02H113.14Z" fill="#407BFF"/>
<path opacity="0.2" d="M117.274 160.994L117.8 159.19H92.1702L82.51 192.104H87.17L91.83 176.26H98.0185L102.678 192.104H108.159L112.819 176.26H118.97L123.63 192.104H126.426L117.274 160.994ZM92.1935 175.02L94.9196 165.738L97.641 175.02H92.1935ZM104.454 188.73L100.801 176.279H108.112L104.454 188.73ZM108.48 175.02H100.428L96.3129 160.994L96.4714 160.449H112.772L108.48 175.02ZM113.14 175.02L115.866 165.738L118.588 175.02H113.14Z" fill="black"/>
<path d="M118.76 159.19H95.0175L104.678 192.104H107.474L102.814 176.26H120.988L125.648 192.104H128.444L118.76 159.19ZM102.45 175.034L98.1723 160.463H116.346L120.619 175.034H102.45Z" fill="#407BFF"/>
<path opacity="0.4" d="M118.76 159.19H95.0175L104.678 192.104H107.474L102.814 176.26H120.988L125.648 192.104H128.444L118.76 159.19ZM102.473 175.02L98.1956 160.449H116.37L120.643 175.02H102.473Z" fill="white"/>
<path d="M118.276 40.9707C118.276 40.9707 119.305 38.5242 124.916 39.1067C128.994 39.5308 131.473 43.9205 131.165 50.1323C130.858 56.3441 128.309 59.0236 128.309 59.0236L114.934 52.0709C114.934 52.0709 114.021 41.7862 118.276 40.9707Z" fill="#263238"/>
<path d="M130.326 47.5322V57.1644C132.423 48.4922 130.326 47.5322 130.326 47.5322Z" fill="#263238"/>
<path d="M129.646 43.6455L131.827 53.0261C131.342 42.5224 129.082 42.0378 129.646 43.6455Z" fill="#263238"/>
<path d="M129.296 67.1924C129.637 68.0964 129.995 69.0564 130.378 69.9884C130.76 70.9204 131.142 71.8524 131.557 72.7844C131.971 73.7164 132.414 74.5831 132.875 75.4406C133.113 75.8646 133.341 76.2794 133.602 76.6801C133.723 76.8945 133.859 77.0669 133.989 77.2673L134.161 77.519C134.186 77.5569 134.215 77.5927 134.245 77.6261C134.449 77.8176 134.692 77.9609 134.958 78.0455C135.341 78.1744 135.736 78.2603 136.137 78.3018C137.067 78.3922 138.004 78.3922 138.933 78.3018C139.927 78.2248 140.917 78.0957 141.897 77.915C142.89 77.7519 143.901 77.5329 144.865 77.3139L145.495 79.0707C143.522 79.9684 141.456 80.6436 139.334 81.0838C138.213 81.319 137.069 81.4315 135.923 81.4194C135.283 81.4044 134.647 81.3169 134.026 81.1584C133.283 80.9762 132.59 80.629 131.999 80.1425C131.833 79.9983 131.677 79.8426 131.533 79.6765C131.449 79.5833 131.417 79.5367 131.37 79.4808L131.235 79.313C131.063 79.0847 130.867 78.847 130.713 78.628L130.247 77.9337L129.781 77.23C129.204 76.3035 128.673 75.3485 128.192 74.3688C127.726 73.3948 127.26 72.4209 126.85 71.433C126.44 70.4451 126.058 69.4618 125.713 68.404L129.296 67.1924Z" fill="#FFC3BD"/>
<path d="M144.623 79.4251L146.953 80.0263L147.349 76.8668C147.349 76.8668 144.987 76.8388 143.859 77.878L144.623 79.4251Z" fill="#FFC3BD"/>
<path d="M149.838 80.2079L149.507 77.8779L147.326 76.8667L146.934 80.0262L149.838 80.2079Z" fill="#FFC3BD"/>
<path opacity="0.2" d="M149.838 80.2078L149.507 77.8778L148.514 77.4165L147.326 80.0494L149.838 80.2078Z" fill="black"/>
<path d="M122.814 64.6482C122.959 65.8598 123.84 68.1945 124.557 69.942C125.079 71.2002 125.489 72.1462 125.489 72.1462L126.183 71.8852L131.953 69.709C131.659 66.5774 131.109 63.157 127.81 61.4328C125.759 60.347 122.558 62.4813 122.814 64.6482Z" fill="#407BFF"/>
<path opacity="0.3" d="M124.557 69.9419C125.079 71.2001 125.489 72.1461 125.489 72.1461L126.183 71.8852C126.146 70.6549 125.992 68.707 125.377 67.7983C124.951 68.4448 124.671 69.1763 124.557 69.9419Z" fill="black"/>
<path d="M102.837 155.453L106.574 155.807L107.576 147.186L103.843 146.832L102.837 155.453Z" fill="#FFC3BD"/>
<path d="M72.0763 145.346L75.0867 147.615L81.0748 141.296L78.0644 139.031L72.0763 145.346Z" fill="#FFC3BD"/>
<path d="M75.6784 147.302L73.5209 143.654C73.4846 143.591 73.4264 143.544 73.3576 143.522C73.2888 143.499 73.2142 143.503 73.1481 143.532L70.0958 144.879C70.0193 144.918 69.9516 144.972 69.8968 145.037C69.842 145.103 69.8014 145.179 69.7773 145.262C69.7533 145.344 69.7464 145.43 69.7571 145.515C69.7678 145.6 69.7958 145.682 69.8395 145.755C70.6177 147.009 71.0511 147.577 72.0017 149.18C72.5842 150.168 73.7352 152.442 74.5414 153.798C75.3476 155.155 76.7036 154.409 76.4846 153.766C75.5107 150.891 75.6132 149.26 75.8043 147.964C75.8415 147.736 75.797 147.501 75.6784 147.302Z" fill="#263238"/>
<path d="M107.05 154.712H102.599C102.521 154.713 102.444 154.74 102.383 154.789C102.321 154.838 102.278 154.906 102.259 154.982L101.388 158.501C101.367 158.585 101.366 158.674 101.385 158.759C101.404 158.845 101.442 158.924 101.496 158.993C101.551 159.061 101.62 159.116 101.699 159.154C101.778 159.191 101.864 159.21 101.951 159.209C103.517 159.209 104.281 159.097 106.22 159.097C107.422 159.097 110.535 159.214 112.199 159.214C113.862 159.214 114.119 157.569 113.443 157.419C110.405 156.753 108.643 155.835 107.688 154.954C107.513 154.796 107.285 154.709 107.05 154.712Z" fill="#263238"/>
<path opacity="0.2" d="M107.576 147.186L107.059 151.632H103.28L103.839 146.832L107.576 147.186Z" fill="black"/>
<path opacity="0.2" d="M78.0643 139.031L81.07 141.301L77.9851 144.553L74.9747 142.284L78.0643 139.031Z" fill="black"/>
<path d="M105.083 76.9368L119.263 82.5288C130.093 63.1665 128.719 62.0248 128.719 62.0248C128.719 62.0248 126.482 60.5336 124.138 59.2614C123.784 59.0703 123.425 58.8839 123.071 58.7022C120.988 57.705 118.837 56.8563 116.635 56.1625C116.309 56.0506 115.987 55.9481 115.661 55.8456C113.908 55.3192 112.125 54.8991 110.321 54.5874C109.985 57.3461 109.668 59.6761 109.342 61.6986C108.923 64.3361 108.503 66.4424 108.056 68.2598C107.3 71.2274 106.306 74.1291 105.083 76.9368Z" fill="#407BFF"/>
<path opacity="0.3" d="M108.056 68.2459C109.529 66.3446 111.053 61.8244 110.782 60.0723L109.342 61.6846C108.923 64.3082 108.504 66.4285 108.056 68.2459Z" fill="black"/>
<path d="M125.904 59.648C125.312 56.4885 115.736 54.1445 115.736 54.1445L121.16 63.5577L122.018 63.9026C122.018 63.9026 126.286 61.7497 125.904 59.648Z" fill="#407BFF"/>
<path opacity="0.3" d="M125.904 59.648C125.312 56.4885 115.736 54.1445 115.736 54.1445L121.16 63.5577L122.018 63.9026C122.018 63.9026 126.286 61.7497 125.904 59.648Z" fill="black"/>
<path d="M119.245 52.0848C118.695 53.8789 117.847 55.631 116.631 56.1483C116.631 56.1483 115.973 60.8083 120.27 65.2679C125.13 62.3228 123.066 58.688 123.066 58.688C120.955 57.2201 121.472 55.6543 123.033 53.3197L121.449 51.8844C121.34 51.6726 121.171 51.4981 120.963 51.3833C120.754 51.2685 120.516 51.2187 120.279 51.2403C120.042 51.2618 119.817 51.3537 119.633 51.5042C119.448 51.6547 119.313 51.8569 119.245 52.0848Z" fill="#FFC3BD"/>
<path d="M115.47 55.7755L115.736 54.1445C115.736 54.1445 117.949 55.3375 118.867 57.2667C119.785 59.196 118.364 62.8308 118.364 62.8308L114.925 59.5455L115.47 55.7755Z" fill="#407BFF"/>
<path opacity="0.2" d="M121.454 51.8799C121.351 51.6813 121.195 51.5154 121.002 51.401C120.81 51.2866 120.59 51.2283 120.366 51.2327C120.143 51.237 119.925 51.3039 119.737 51.4257C119.55 51.5475 119.4 51.7194 119.305 51.9219C119.673 53.4934 120.518 54.9128 121.724 55.9854C121.991 55.0234 122.435 54.1195 123.033 53.3199L121.454 51.8799Z" fill="black"/>
<path d="M117.726 45.6679C117.828 49.4238 117.796 51.0129 119.59 53.0353C122.292 56.083 126.799 55.2348 127.801 51.5441C128.7 48.2262 128.378 42.6435 124.827 40.9519C124.053 40.5733 123.193 40.4038 122.333 40.4604C121.473 40.5169 120.643 40.7975 119.925 41.2743C119.207 41.7511 118.626 42.4075 118.24 43.1783C117.854 43.949 117.677 44.8073 117.726 45.6679Z" fill="#FFC3BD"/>
<path d="M118.084 42.3685C120.88 45.323 126.202 43.5335 126.202 43.5335L128.998 45.2251L127.516 41.8606L124.254 39.9453C124.254 39.9453 116.654 40.854 118.084 42.3685Z" fill="#263238"/>
<path d="M118.392 41.2036C119.395 42.1536 120.166 43.3226 120.643 44.6194C121.575 46.9494 117.847 48.7342 117.847 48.7342C117.847 48.7342 114.818 45.5514 118.392 41.2036Z" fill="#263238"/>
<path d="M116.78 49.0791C116.925 49.7926 117.343 50.4212 117.945 50.8313C118.742 51.3672 119.413 50.7241 119.422 49.8107C119.422 48.9906 119.026 47.723 118.117 47.5553C117.208 47.3875 116.603 48.203 116.78 49.0791Z" fill="#FFC3BD"/>
<path d="M119.263 82.5288C119.263 82.5288 116.752 101.458 114.916 116.016C113.457 127.586 108.112 149.889 108.112 149.889L102.655 149.349C102.655 149.349 104.934 124.04 107.026 115.918C105.735 99.2116 102.366 83.0367 107.87 77.9526L119.263 82.5288Z" fill="#263238"/>
<path d="M101.784 148.021L108.979 148.24L108.587 150.695L101.854 150.593L101.784 148.021Z" fill="#407BFF"/>
<path opacity="0.3" d="M110.312 92.3098L104.85 87.771C104.659 93.61 105.614 101.159 106.42 109.207C109.184 103.419 111.099 97.2261 110.312 92.3098Z" fill="black"/>
<path d="M116.151 81.3542C116.151 81.3542 106.048 102.413 102.003 116.458C96.9513 127.563 79.9796 143.486 79.9796 143.486L76.1118 140.033C76.1118 140.033 89.6771 117.287 94.2858 113.429C96.4947 97.1609 98.2235 81.5406 105.078 76.9458L116.151 81.3542Z" fill="#263238"/>
<path d="M79.7932 144.726L74.7744 140.564L76.0792 138.318L81.5827 143.151L79.7932 144.726Z" fill="#407BFF"/>
<path d="M105.176 76.014L104.072 77.0439C103.988 77.1231 104.072 77.2722 104.23 77.3328L119.1 83.1998C119.231 83.251 119.357 83.2324 119.394 83.1532L119.99 81.9229C120.028 81.8391 119.944 81.7179 119.804 81.662L105.446 75.9954C105.404 75.9745 105.356 75.9651 105.309 75.9684C105.261 75.9717 105.216 75.9874 105.176 76.014Z" fill="#407BFF"/>
<path opacity="0.2" d="M105.176 76.014L104.072 77.0439C103.988 77.1231 104.072 77.2722 104.23 77.3328L119.1 83.1998C119.231 83.251 119.357 83.2324 119.394 83.1532L119.99 81.9229C120.028 81.8391 119.944 81.7179 119.804 81.662L105.446 75.9954C105.404 75.9745 105.356 75.9651 105.309 75.9684C105.261 75.9717 105.216 75.9874 105.176 76.014Z" fill="white"/>
<path d="M106.518 78.3954L106.132 78.2416C106.057 78.2137 106.015 78.1484 106.034 78.1018L106.821 76.5128C106.845 76.4662 106.924 76.4522 106.998 76.4802L107.385 76.6339C107.46 76.6619 107.506 76.7271 107.483 76.7737L106.714 78.3675C106.677 78.4141 106.593 78.428 106.518 78.3954Z" fill="#263238"/>
<path d="M117.973 82.9155L117.586 82.7617C117.511 82.7337 117.465 82.6685 117.488 82.6219L118.271 81.0282C118.271 80.9816 118.378 80.9676 118.453 81.0002L118.839 81.1493C118.914 81.1819 118.961 81.2425 118.937 81.2891L118.15 82.8828C118.126 82.9481 118.047 82.9481 117.973 82.9155Z" fill="#263238"/>
<path d="M112.245 80.6552L111.859 80.5014C111.784 80.4735 111.737 80.4082 111.761 80.3616L112.544 78.7679C112.567 78.7213 112.651 78.7073 112.725 78.7399L113.112 78.8937C113.187 78.9217 113.233 78.9823 113.21 79.0335L112.427 80.6179C112.404 80.6692 112.306 80.6832 112.245 80.6552Z" fill="#263238"/>
<path d="M123.108 47.01C123.108 47.3176 123.252 47.5739 123.448 47.5832C123.644 47.5925 123.812 47.3549 123.821 47.052C123.83 46.7491 123.676 46.4881 123.481 46.4788C123.285 46.4695 123.122 46.7071 123.108 47.01Z" fill="#263238"/>
<path d="M126.496 47.2009C126.496 47.5038 126.64 47.7601 126.836 47.7741C127.032 47.7881 127.195 47.5458 127.209 47.2382C127.223 46.9307 127.064 46.679 126.869 46.6697C126.673 46.6604 126.51 46.898 126.496 47.2009Z" fill="#263238"/>
<path d="M126.785 46.679L127.512 46.5112C127.512 46.5112 127.12 47.0658 126.785 46.679Z" fill="#263238"/>
<path d="M126.114 47.6299C126.358 48.3396 126.697 49.0135 127.12 49.6337C126.963 49.7363 126.784 49.8026 126.598 49.8275C126.412 49.8525 126.223 49.8357 126.044 49.7781L126.114 47.6299Z" fill="#ED847E"/>
<path d="M124.622 50.9524C124.638 50.9438 124.651 50.9317 124.66 50.9171C124.67 50.9025 124.676 50.8859 124.678 50.8685C124.677 50.8449 124.668 50.8225 124.652 50.8053C124.635 50.7882 124.613 50.7775 124.59 50.7753C124.213 50.7599 123.845 50.6567 123.515 50.4739C123.184 50.291 122.902 50.0336 122.689 49.7222C122.676 49.7026 122.657 49.6884 122.634 49.6824C122.612 49.6764 122.588 49.6789 122.567 49.6895C122.547 49.7029 122.533 49.7231 122.527 49.7463C122.521 49.7694 122.524 49.794 122.535 49.8154C122.763 50.1533 123.067 50.4328 123.424 50.6312C123.78 50.8295 124.178 50.9412 124.585 50.9571L124.622 50.9524Z" fill="#263238"/>
<path d="M122.814 45.8266C122.845 45.8167 122.871 45.7971 122.889 45.7707C123.023 45.5966 123.198 45.4575 123.397 45.365C123.597 45.2726 123.816 45.2295 124.035 45.2394C124.082 45.2434 124.129 45.2291 124.165 45.1996C124.201 45.1701 124.225 45.1276 124.231 45.081C124.235 45.0337 124.221 44.9866 124.191 44.9494C124.162 44.9122 124.119 44.8876 124.073 44.8806C123.794 44.8623 123.515 44.913 123.26 45.0285C123.006 45.1439 122.784 45.3204 122.614 45.5423C122.585 45.5797 122.572 45.6269 122.577 45.6738C122.582 45.7208 122.605 45.7639 122.642 45.794C122.666 45.8135 122.694 45.8268 122.724 45.8325C122.754 45.8382 122.785 45.8362 122.814 45.8266Z" fill="#263238"/>
<path d="M76.2609 149.251L76.3168 149.274C76.3987 149.295 76.4847 149.295 76.5664 149.273C76.6481 149.25 76.7226 149.208 76.7828 149.148C76.8267 149.116 76.8611 149.073 76.8824 149.023C76.9037 148.973 76.9111 148.918 76.904 148.864C76.8434 148.398 75.6411 147.787 75.506 147.722C75.4924 147.712 75.4761 147.707 75.4594 147.707C75.4426 147.707 75.4263 147.712 75.4128 147.722C75.3995 147.733 75.3898 147.748 75.3848 147.765C75.3799 147.781 75.3799 147.799 75.3848 147.815C75.5339 148.291 75.8368 149.069 76.2609 149.251ZM75.6271 147.978C76.0931 148.235 76.7036 148.636 76.7316 148.887C76.7355 148.911 76.7323 148.936 76.7223 148.958C76.7124 148.981 76.6962 149 76.6756 149.013C76.6353 149.053 76.5855 149.082 76.5309 149.098C76.4763 149.113 76.4187 149.114 76.3634 149.102C76.1211 149.027 75.8508 148.612 75.6271 147.978Z" fill="#407BFF"/>
<path d="M75.52 147.922C75.9301 148.104 76.8388 148.221 77.1277 147.946C77.1796 147.897 77.2135 147.832 77.2236 147.762C77.2338 147.692 77.2197 147.62 77.1836 147.559C77.1572 147.496 77.1172 147.439 77.0664 147.393C77.0157 147.347 76.9555 147.313 76.89 147.293C76.3774 147.135 75.4641 147.699 75.4268 147.727C75.4134 147.735 75.4024 147.747 75.3951 147.76C75.3877 147.774 75.3842 147.79 75.3849 147.806C75.3855 147.821 75.3901 147.836 75.3982 147.849C75.4064 147.862 75.4179 147.873 75.4314 147.88L75.52 147.922ZM76.876 147.48C76.9431 147.511 76.9962 147.565 77.0252 147.633C77.0718 147.741 77.0252 147.787 77.0252 147.815C76.8341 147.997 76.0932 147.95 75.6831 147.792C76.0293 147.564 76.4384 147.449 76.8527 147.466L76.876 147.48Z" fill="#407BFF"/>
<path d="M109.044 155.425C109.346 155.447 109.648 155.373 109.906 155.215C109.972 155.165 110.026 155.101 110.063 155.026C110.101 154.952 110.12 154.87 110.121 154.787C110.124 154.74 110.116 154.692 110.095 154.65C110.075 154.607 110.043 154.571 110.004 154.544C109.589 154.274 108.093 154.959 107.8 155.104C107.783 155.111 107.769 155.123 107.761 155.14C107.752 155.156 107.75 155.174 107.753 155.192C107.756 155.211 107.763 155.228 107.776 155.243C107.788 155.257 107.805 155.267 107.823 155.271C108.224 155.363 108.633 155.415 109.044 155.425ZM109.729 154.656C109.791 154.65 109.852 154.663 109.906 154.694C109.919 154.703 109.93 154.715 109.937 154.73C109.943 154.745 109.946 154.761 109.943 154.777C109.944 154.835 109.931 154.893 109.905 154.944C109.879 154.996 109.841 155.041 109.794 155.076C109.538 155.271 108.928 155.299 108.126 155.15C108.631 154.903 109.172 154.737 109.729 154.656Z" fill="#407BFF"/>
<path d="M107.842 155.271H107.874C108.373 155.062 109.361 154.251 109.272 153.831C109.272 153.738 109.193 153.626 108.965 153.598C108.075 153.491 107.749 155.099 107.735 155.169C107.73 155.184 107.731 155.201 107.737 155.216C107.743 155.231 107.753 155.244 107.767 155.253C107.777 155.262 107.789 155.268 107.802 155.271C107.815 155.274 107.829 155.274 107.842 155.271ZM108.904 153.78H108.965C109.058 153.78 109.109 153.817 109.119 153.859C109.156 154.106 108.475 154.745 107.972 155.024C108.079 154.628 108.373 153.78 108.904 153.78Z" fill="#407BFF"/>
<path d="M123.397 46.4927L124.124 46.3203C124.124 46.3203 123.732 46.8702 123.397 46.4927Z" fill="#263238"/>
<path d="M110.326 60.6779C108.82 62.0759 107.301 63.5252 105.847 64.9791C105.12 65.7107 104.417 66.4563 103.746 67.2066C103.089 67.9167 102.484 68.6719 101.933 69.4667C101.743 69.7357 101.587 70.0267 101.467 70.3334C101.467 70.3334 101.467 70.2729 101.467 70.3334C101.462 70.3908 101.462 70.4485 101.467 70.5059C101.479 70.6338 101.504 70.7602 101.541 70.8833C101.852 71.5894 102.344 72.2005 102.967 72.6541C104.542 73.8347 106.274 74.7899 108.112 75.4921L107.646 77.3048C107.063 77.2209 106.542 77.1091 105.996 76.9786C105.451 76.8504 104.913 76.6949 104.384 76.5126C103.282 76.1561 102.225 75.6729 101.234 75.0727C100.693 74.7429 100.19 74.3554 99.7333 73.917C99.2138 73.4171 98.7877 72.8284 98.4751 72.1788C98.3033 71.8142 98.1796 71.4289 98.107 71.0324C98.0696 70.8292 98.0463 70.6237 98.0371 70.4173C98.028 70.2823 98.028 70.1469 98.0371 70.0119C98.0371 69.8814 98.0697 69.737 98.093 69.6251C98.1755 69.231 98.3038 68.8478 98.4751 68.4834C98.6196 68.1665 98.7734 67.8869 98.9411 67.6167C99.5462 66.6366 100.222 65.7021 100.964 64.8207C101.672 63.9679 102.408 63.1617 103.154 62.3742C104.645 60.7898 106.178 59.3125 107.814 57.8633L110.326 60.6779Z" fill="#FFC3BD"/>
<path d="M106.64 76.9462L108.504 79.388L110.368 76.8203C110.368 76.8203 108.62 75.2359 107.106 75.2686L106.64 76.9462Z" fill="#FFC3BD"/>
<path d="M110.027 80.9817L111.323 79.0198L110.358 76.8203L108.49 79.388L110.027 80.9817Z" fill="#FFC3BD"/>
<path d="M110.321 54.5735C108.457 54.3591 104.575 58.7675 104.575 58.7675L108.056 64.914C108.056 64.914 113.215 61.2652 113.024 58.9306C112.856 56.8802 112.693 54.8438 110.321 54.5735Z" fill="#407BFF"/>
<path d="M153.22 112.453L152.101 114.39L152.505 114.623L153.624 112.687L153.22 112.453Z" fill="#407BFF"/>
<path d="M158.423 103.466L154.371 110.479L154.774 110.712L158.826 103.7L158.423 103.466Z" fill="#407BFF"/>
<path d="M171.493 58.8789L139.082 73.6185H151.632L108.699 147.927H131.389L174.321 73.6185H186.871L171.493 58.8789Z" fill="#407BFF"/>
<path d="M131.389 147.927H108.699L93.2653 121.207H115.95L131.389 147.927Z" fill="#407BFF"/>
<path opacity="0.3" d="M131.389 147.927H108.699L93.2653 121.207H115.95L131.389 147.927Z" fill="black"/>
<path d="M115.955 121.207H93.2606L50.328 195.52H73.0175L115.955 121.207Z" fill="#407BFF"/>
</svg>
