<svg width="554" height="380" viewBox="0 0 554 380" fill="none" xmlns="http://www.w3.org/2000/svg">
<path opacity="0.5" d="M359.894 0H219.411C212.761 0 207.37 5.39357 207.37 12.0469V108.397C207.37 115.05 212.761 120.444 219.411 120.444H359.894C366.544 120.444 371.935 115.05 371.935 108.397V12.0469C371.935 5.39357 366.544 0 359.894 0Z" fill="#0057FF"/>
<path opacity="0.18" d="M71.6032 182.961C102.065 150.264 146.699 134.231 179.203 103.565C204.672 79.5218 222.311 46.7997 252.105 28.4203C292.351 3.5445 350.45 13.6361 379.992 50.6345C397.934 73.1388 405.019 102.127 416.745 128.416C435.733 171.015 467.179 206.84 489.622 247.711C512.065 288.582 527.939 330.854 507.273 372.595C503.705 379.811 376.146 375.206 361.647 374.777C312.188 373.331 262.709 372.721 213.208 372.948C164.641 373.175 116.086 374.218 67.5433 376.077C45.5038 376.934 30.7268 383.645 23.477 362.012C18.3328 346.66 24.1326 318.403 25.6961 302.408C29.882 259.38 41.3809 215.431 71.6032 182.961Z" fill="#0057FF"/>
<path d="M222.362 235.791C230.721 237.569 238.866 232.296 245.334 226.708C252.573 220.46 259.148 213.481 264.953 205.881C271.749 197.051 278.217 186.72 288.745 182.999C294.759 180.867 301.668 181.107 307.002 177.612C307.506 174.951 305.489 172.327 303.018 171.204C300.457 170.276 297.723 169.927 295.011 170.182L283.437 170.409C280.625 170.472 277.687 170.498 275.178 169.249C272.669 168 270.765 165.023 271.686 162.374C268.08 161.895 265.583 165.767 263.894 168.997C256.297 183.514 245.438 196.071 232.171 205.68C231.123 206.567 229.863 207.167 228.515 207.42C226.548 207.622 224.732 206.424 222.992 205.541C215.427 201.757 201.482 205.326 203.134 215.885C204.306 223.756 214.759 234.176 222.362 235.791Z" fill="url(#paint0_linear)"/>
<path d="M460.874 318.239L476.937 370.627C436.591 366.755 395.664 380.618 355.809 373.415C353.287 372.961 350.324 372.002 349.693 369.53C349.482 368.07 349.742 366.58 350.437 365.279C356.023 351.644 362.628 338.45 370.195 325.808C382.4 329.214 392.562 329.151 404.931 326.426C425.205 321.948 440.436 314.531 460.874 318.239Z" fill="#3E3E54"/>
<path d="M365.164 167.306C352.694 174.434 347.273 189.331 343.011 203.069C328.015 251.367 315.517 300.405 305.564 349.99C314.466 353.131 325.044 356.083 332.76 350.633C338.245 346.761 340.439 339.797 342.28 333.326L350.488 304.615C358.948 274.997 367.408 245.327 376.638 215.973C381.24 201.328 388.313 186.253 391.44 171.255C392.978 163.888 392.423 162.652 384.367 162.336C377.643 162.293 371.023 164.006 365.164 167.306Z" fill="#0057FF"/>
<path d="M324.338 347.253C324.338 347.253 330.327 343.985 333.643 333.301C336.959 322.616 364.206 202.942 364.206 202.942L366.413 253.035C366.413 253.035 344.89 324.546 343.591 328.911C342.293 333.276 339.166 350.646 327.755 352.122L324.338 347.253Z" fill="url(#paint1_linear)"/>
<path d="M429.164 152.863C421.486 152.863 413.694 153.153 406.369 155.487C394.92 159.132 368.443 160.747 361.987 170.902C355.532 181.056 368.896 199.675 366.614 211.483C363.664 226.62 362.832 242.212 362 257.677C360.915 277.936 359.831 298.233 360.524 318.504C360.726 324.509 361.117 330.652 363.475 336.165C365.694 341.337 444.169 350.154 457.206 329.933C467.141 314.581 470.634 295.874 471.743 277.646C472.701 261.941 472.058 246.185 471.403 230.455C470.923 218.862 470.444 207.219 468.162 195.853C465.716 183.705 476.37 177.272 470.961 166.108C466.523 156.95 438.028 152.838 429.164 152.863Z" fill="#0057FF"/>
<path d="M369.602 299.444L418.775 296.757C420.926 296.765 423.061 296.39 425.079 295.647C426.295 295.103 427.376 294.3 428.248 293.293C429.119 292.286 429.759 291.1 430.123 289.819C440.725 294.126 451.878 296.929 463.257 298.144C464.846 298.308 466.687 298.384 467.834 297.249C468.565 296.361 468.982 295.257 469.019 294.108C469.625 289.062 473.281 266.709 471.251 262.041C457.18 261.915 445.82 260.074 435.506 250.499C433.741 248.859 424.714 260.376 422.305 260.591C420.439 260.73 418.926 262.092 417.59 263.404C413.416 267.541 409.47 271.982 404.616 275.299C398.312 279.601 390.936 281.796 383.648 283.94C377.974 285.605 366.765 286.627 362.731 291.32C357.587 297.148 363.714 299.771 369.602 299.444Z" fill="url(#paint2_linear)"/>
<path d="M413.479 222.773C415.038 222.707 416.588 223.028 417.993 223.706C420.755 225.333 421.12 229.105 421.183 232.309L422.204 286.274L356.994 294.549C356.631 294.676 356.242 294.709 355.863 294.646C355.483 294.582 355.126 294.425 354.824 294.187C354.521 293.95 354.283 293.641 354.132 293.287C353.98 292.934 353.919 292.548 353.955 292.165C350.294 274.583 349.409 256.536 351.333 238.68C352.051 232.069 353.312 225.043 353.312 225.043C360.739 223.996 375.894 223.391 383.408 223.012C393.432 222.508 403.468 222.432 413.479 222.773Z" fill="white"/>
<path d="M428.282 253.237C426.718 252.265 424.955 251.657 423.125 251.458C422.207 251.377 421.288 251.595 420.504 252.079C419.72 252.563 419.114 253.288 418.775 254.145C418.384 255.558 418.926 257.324 417.88 258.345C417.211 258.865 416.381 259.133 415.535 259.102L392.386 260.843C391.194 260.83 390.02 261.13 388.981 261.714C388.325 262.241 387.82 262.934 387.518 263.721C387.217 264.507 387.13 265.36 387.267 266.192C387.54 267.76 388.19 269.238 389.161 270.5C390.131 271.761 391.394 272.767 392.839 273.432C395.751 274.717 398.887 275.416 402.069 275.489C410.55 276.066 419.071 275.493 427.399 273.786C429.783 273.481 432.035 272.52 433.905 271.01C434.789 270.08 435.469 268.977 435.904 267.769C436.338 266.562 436.516 265.277 436.427 263.997C436.187 257.425 433.678 256.037 428.282 253.237Z" fill="url(#paint3_linear)"/>
<path d="M427.324 161.226C427.957 164.3 427.927 167.474 427.235 170.536C426.509 172.829 425.316 174.947 423.73 176.755C420.394 180.875 415.787 183.772 410.63 184.992C408.751 185.496 406.762 185.412 404.931 184.752C403.845 184.249 402.865 183.543 402.044 182.671C400.226 180.853 398.794 178.688 397.832 176.304C396.87 173.919 396.398 171.366 396.445 168.795C396.492 166.224 397.057 163.69 398.106 161.342C399.154 158.995 400.665 156.883 402.548 155.133C406.621 151.349 414.337 147.855 420.036 148.586C426.416 149.419 426.517 155.815 427.324 161.226Z" fill="url(#paint4_linear)"/>
<path d="M407.428 172.125C409.659 174.724 412.471 177.07 415.926 177.499C417.306 177.664 418.706 177.51 420.017 177.048C421.329 176.587 422.517 175.83 423.491 174.838C426.315 171.911 426.807 167.496 426.908 163.485C427.056 161.945 426.853 160.393 426.315 158.943C425.654 157.684 424.719 156.589 423.579 155.739C421.326 153.859 418.848 152.266 416.203 150.996C413.893 149.721 411.272 149.123 408.638 149.268C396.156 150.618 402.586 166.449 407.428 172.125Z" fill="url(#paint5_linear)"/>
<path d="M210.812 330.097C213.119 341.601 214.469 353.497 212.552 365.077C212.492 366.134 212.043 367.132 211.291 367.878C210.437 368.397 209.434 368.615 208.442 368.496L100.829 367.436C98.7054 342.715 101.64 317.82 109.453 294.272C111.433 288.343 113.727 282.401 114.156 276.157C114.471 271.49 113.828 266.394 116.426 262.508C119.527 257.854 125.857 256.945 131.43 256.453L156.962 254.221C163.556 253.653 173.756 252.253 179.758 256.075C185.759 259.897 189.466 270.342 192.53 276.523C200.952 293.499 207.099 311.512 210.812 330.097Z" fill="#3E3E54"/>
<path d="M195.606 74.2996C198.148 76.3381 200.115 79.0039 201.313 82.0343C202.511 85.0647 202.9 88.3552 202.44 91.5816C201.583 97.9519 197.762 103.767 192.656 107.98C189.226 110.869 184.561 113.203 180.148 111.979C178.389 111.402 176.746 110.518 175.294 109.368C170.912 106.441 167.004 102.859 163.707 98.7466C158.664 92.0231 156.747 82.7514 160.58 75.0565C163.858 68.4717 175.256 69.216 181.737 69.7332C186.654 70.0864 191.672 71.2848 195.606 74.2996Z" fill="#3E3E54"/>
<path d="M185.52 194.201C191.219 217.247 185.457 232.044 177.791 254.574C176.353 258.787 174.601 263.063 171.323 266.078C168.522 268.655 165.06 270.402 161.324 271.124C154.5 272.481 147.522 272.906 140.583 272.385C123.524 271.01 116.489 263.114 116.388 262.357C115.127 252.265 111.168 243.158 106.553 234.378C97.1098 216.364 84.804 199.751 86.38 178.874C87.0735 170.649 82.2066 156.773 88.8134 151.727C92.7977 148.624 118.027 137.7 123.058 137.246C131.115 136.527 181.599 151.942 188.231 157.694C195.316 163.787 183.414 185.522 185.52 194.201Z" fill="#0057FF"/>
<path d="M140.622 272.474C123.562 271.099 116.527 263.202 116.426 262.445C115.165 252.354 111.206 243.246 106.591 234.466C106.465 231.767 106.503 229.067 106.591 226.355C106.907 214.245 107.714 202.148 108.521 190.063C108.572 188.17 108.847 186.29 109.34 184.462C111.647 184.967 113.362 186.859 114.812 188.714C122.118 198.078 127.042 209.078 129.161 220.767C131.884 235.904 129.892 252.127 136.234 266.179C136.858 267.591 137.619 268.939 138.503 270.203C138.869 270.721 140.042 271.654 140.622 272.474Z" fill="url(#paint6_linear)"/>
<path d="M160.051 145.193C159.903 147.034 160.022 148.887 160.404 150.693C161.068 152.979 161.876 155.221 162.825 157.404C164.174 161.439 165.049 165.618 165.435 169.855C165.832 172.311 165.832 174.816 165.435 177.272C165.246 178.502 164.79 179.676 164.1 180.711C163.409 181.746 162.501 182.618 161.438 183.264C159.903 183.992 158.193 184.268 156.508 184.059C153.201 183.753 150.093 182.345 147.682 180.06C146.603 178.982 145.624 177.808 144.757 176.553C139.948 169.942 136.019 162.733 133.069 155.108C131.902 152.401 131.166 149.528 130.888 146.594C130.823 145.957 130.887 145.313 131.077 144.701C131.597 143.682 132.37 142.814 133.321 142.178C135.631 139.93 137.632 137.385 139.272 134.61C140.917 131.846 143.094 129.436 145.677 127.52C146.98 126.578 148.504 125.989 150.102 125.812C151.7 125.635 153.316 125.876 154.793 126.511C157.252 127.773 161.791 131.797 162.232 134.66C162.749 137.852 160.303 141.876 160.051 145.193Z" fill="url(#paint7_linear)"/>
<path d="M225.287 53.2208C226.725 46.543 229.915 40.3688 234.528 35.3326C239.14 30.2963 245.01 26.5796 251.534 24.5644C258.058 22.5491 265.001 22.308 271.649 23.8658C278.297 25.4236 284.41 28.7241 289.361 33.4283C294.312 38.1324 297.922 44.0705 299.819 50.6324C301.717 57.1943 301.835 64.1435 300.159 70.7658C298.484 77.3881 295.077 83.4448 290.288 88.3135C285.499 93.1823 279.5 96.6876 272.909 98.4691H272.644L262.62 61.332L225.287 53.2208Z" fill="url(#paint8_linear)"/>
<path d="M225.766 71.3604C224.151 65.4403 223.987 59.2179 225.287 53.2207L262.62 61.3949L272.644 98.5321C262.827 101.115 252.388 99.7071 243.605 94.6163C234.822 89.5256 228.409 81.1652 225.766 71.3604Z" fill="url(#paint9_linear)"/>
<path d="M184.701 119.144C184.701 124.455 184.511 129.98 182.065 134.698C181.497 135.931 180.63 137.002 179.544 137.814C177.64 138.827 175.461 139.203 173.328 138.886C167.039 138.707 160.829 137.427 154.983 135.102C149.107 132.745 144.198 128.474 141.05 122.979C139.222 119.332 138.138 115.357 137.86 111.286C137.091 102.922 139.02 93.6252 145.69 88.4659C148.792 86.2984 152.314 84.8071 156.029 84.0886C165.359 81.8559 175.005 84.0886 181.372 91.7709C183.591 94.4325 183.717 97.7249 183.894 101.055C184.347 107.098 184.65 113.115 184.701 119.144Z" fill="url(#paint10_linear)"/>
<path d="M178.156 90.4965C181.674 86.2832 182.96 80.6697 183.792 75.2329C184.311 72.6642 184.358 70.0226 183.931 67.4371C183.296 64.5993 181.634 62.0966 179.266 60.4108C176.429 58.4051 172.886 57.7744 169.457 57.1941C164.413 56.3237 159.017 55.4785 154.163 57.1941C150.065 58.6574 146.825 61.811 143.849 64.9773C142.26 62.9085 139.285 62.5301 136.687 62.7697C128.82 63.4761 121.646 68.3706 117.271 74.9427C113.032 81.6835 110.98 89.5701 111.395 97.5227C111.584 103.628 112.845 110.137 110.134 115.549C105.91 123.862 94.1594 126.019 89.7717 134.256C86.9852 139.479 87.8804 145.811 88.8639 151.639C93.1885 147.136 100.136 146.429 106.352 146.984C112.568 147.539 118.834 149.078 124.974 147.981C131.656 146.577 137.537 142.645 141.39 137.006C145.183 131.334 147.497 124.804 148.123 118.009C148.439 113.339 149.255 108.717 150.557 104.221C151.729 100.689 152.965 100.21 156.672 99.5537C164.363 98.2039 172.911 96.8037 178.156 90.4965Z" fill="#3E3E54"/>
<path d="M86.8591 263.997C85.3209 275.602 88.473 287.258 89.696 298.901C91.0671 312.063 89.9638 325.365 86.443 338.12C85.1822 342.775 83.354 347.619 79.5463 350.583C73.8725 354.973 64.5423 354.657 61.2137 361.015C60.8824 361.54 60.6881 362.139 60.6485 362.759C60.6088 363.378 60.7251 363.997 60.9867 364.56C61.718 365.746 63.294 366.011 64.681 366.149C76.3762 367.229 88.1577 366.928 99.7827 365.254C101.07 365.206 102.306 364.736 103.3 363.917C104.103 362.879 104.546 361.608 104.561 360.296C105.759 348.375 106.339 336.329 109.05 324.673C110.992 316.309 114.018 308.173 115.039 299.646C116.3 289.415 114.598 279.084 112.908 268.917C111.799 262.168 113.929 214.51 105.759 213.261C97.5889 212.012 87.7543 257.235 86.8591 263.997Z" fill="url(#paint11_linear)"/>
<path d="M203.172 169.161C211.367 178.912 215.667 191.299 219.449 203.472C219.964 204.734 220.112 206.116 219.878 207.459C219.399 208.736 218.552 209.842 217.444 210.637C212.181 215.218 206.499 219.294 200.474 222.81L183.654 209.389C182.285 208.474 181.184 207.212 180.464 205.73C180.103 204.434 180.004 203.079 180.174 201.744C180.38 193.76 179.203 185.8 176.694 178.218C175.181 173.298 168.587 163.144 171.235 158.237C177.451 146.757 198.658 163.762 203.172 169.161Z" fill="#0057FF"/>
<path d="M464.518 104.776C463.964 108.346 461.694 111.361 459.576 114.287C457.458 117.214 455.352 120.418 455.239 124.013C455.327 125.198 455.264 126.389 455.049 127.558C454.394 129.74 452.036 130.775 449.716 130.611C448.642 130.563 447.6 130.237 446.69 129.665C443.891 127.873 442.491 124.619 441.243 121.49C437.145 124.669 432.896 127.924 427.878 129.261C422.86 130.598 416.846 129.576 413.732 125.477C412.332 123.61 411.639 121.289 410.214 119.434C408.789 117.58 406.116 116.281 404.137 117.492C401.754 118.955 402.258 122.537 403.078 125.186C400.657 123.471 397.479 130.497 395.689 135.694C394.496 135.257 393.397 134.598 392.449 133.752C390.026 131.523 388.301 128.64 387.481 125.451C386.094 120.406 386.283 114.918 384.959 109.784C383.635 104.65 380.887 99.6168 381.656 94.3565C382.677 87.4438 389.624 82.3601 390.104 75.4348C390.267 72.9118 389.549 70.3889 389.826 67.866C390.646 60.4613 399.093 56.8031 406.305 54.9992C414.16 53.044 423.251 51.7573 429.656 56.7148C431.963 58.4808 434.056 61.0794 436.956 61.0794C438.923 61.0794 440.739 59.818 442.693 59.818C445.064 59.818 447.068 61.5083 448.67 63.2491C452.691 67.7252 455.741 72.9862 457.629 78.7006C459.517 84.4149 460.202 90.4585 459.639 96.4506C463.207 96.9804 465.086 101.269 464.518 104.776Z" fill="#3E3E54"/>
<path d="M449.716 130.611V130.737C448.861 142.565 443.493 153.612 434.725 161.592C429.757 166.146 423.377 169.779 416.607 169.161C409.836 168.543 404.376 164.014 400.392 158.729C396.282 153.254 393.18 147.186 394.302 140.387C394.395 139.885 394.513 139.388 394.655 138.898L392.815 140.488C392.503 138.227 392.381 135.944 392.449 133.663C393.397 134.509 394.496 135.168 395.689 135.606C397.48 130.409 400.657 123.383 403.078 125.098C402.258 122.424 401.754 118.867 404.137 117.403C406.116 116.142 408.802 117.492 410.214 119.346C411.626 121.2 412.332 123.521 413.732 125.388C416.846 129.538 422.873 130.573 427.878 129.173C432.884 127.772 437.146 124.581 441.243 121.402C442.504 124.493 443.891 127.785 446.69 129.576C447.591 130.18 448.634 130.537 449.716 130.611Z" fill="url(#paint12_linear)"/>
<path d="M273.854 362.39C273.333 362.705 272.944 363.198 272.757 363.778C272.455 365.354 274.699 365.998 276.288 365.947L322.523 364.459C324.039 364.558 325.551 364.212 326.873 363.462C331.512 360.157 327.453 350.116 324.351 347.265C319.459 342.774 315.702 344.276 310.179 346.698C303.698 349.523 298.327 353.396 291.493 355.528C285.429 357.483 279.049 358.454 273.854 362.39Z" fill="url(#paint13_linear)"/>
<path d="M476.471 169.653C483.859 177.108 488.688 186.67 493.391 196.055L516.086 241.215C521.369 251.773 526.791 263.845 522.832 274.984C519.957 283.057 512.455 288.86 504.298 291.521C496.14 294.183 487.377 294.12 478.829 293.439C460.723 291.988 442.924 287.917 425.987 281.354L431.118 257.828C431.761 254.939 432.72 251.622 435.456 250.499C437.284 249.978 439.228 250.026 441.029 250.638L474.479 258.434C472.033 237.292 468.578 216.305 464.115 195.474C463.251 190.483 461.747 185.624 459.639 181.018C457.117 176.111 445.341 163.169 452.969 158.691C459.122 155.058 472.638 165.793 476.471 169.653Z" fill="#0057FF"/>
<path d="M89.6205 151.854C82.4589 155.84 78.9664 164.166 77.0121 172.113C70.2288 198.818 74.4904 226.936 78.8529 254.107C78.9245 255.229 79.3682 256.294 80.1137 257.135C80.9757 257.767 82.0208 258.099 83.0893 258.081C89.0095 258.566 94.9595 258.566 100.88 258.081C104.929 257.745 108.724 255.973 111.582 253.084C114.439 250.195 116.171 246.379 116.464 242.325C116.829 236.8 114.837 213.148 115.808 207.698C117.636 196.913 100.716 145.685 89.6205 151.854Z" fill="#0057FF"/>
<path d="M554 366.263H0V380H554V366.263Z" fill="#3E3E54"/>
<path d="M390.696 130.283C389.84 131.564 389.444 133.099 389.574 134.635C389.551 136.662 390.149 138.648 391.289 140.324C391.531 140.708 391.865 141.025 392.262 141.246C392.659 141.466 393.104 141.583 393.558 141.586C394.027 141.515 394.466 141.309 394.819 140.993C396.42 139.731 396.849 137.637 397.177 135.707C397.616 134.246 397.94 132.753 398.148 131.242C398.135 130.47 397.887 129.72 397.436 129.093C396.985 128.466 396.354 127.992 395.626 127.735C394.075 127.356 391.604 129.022 390.696 130.283Z" fill="url(#paint14_linear)"/>
<path d="M394.996 133.537C395.179 132.924 395.179 132.271 394.996 131.658C394.795 131.317 394.472 131.066 394.092 130.956C393.713 130.846 393.305 130.885 392.953 131.065C392.607 131.261 392.309 131.531 392.08 131.856C391.851 132.181 391.697 132.553 391.63 132.945C391.386 134.663 391.752 136.413 392.663 137.889C392.979 138.482 393.382 139.151 394.038 139.239C394.367 139.268 394.696 139.194 394.981 139.026C395.266 138.859 395.491 138.607 395.626 138.306C395.879 137.7 395.983 137.043 395.929 136.388C395.942 135.215 394.819 134.761 394.996 133.537Z" fill="url(#paint15_linear)"/>
<path d="M213.258 212.896L186.39 188.587L186.932 212.341L200.499 222.811C200.499 222.811 211.241 217.677 213.258 212.896Z" fill="url(#paint16_linear)"/>
<path d="M470.785 237.014L471.604 214.094C471.604 214.094 492.32 255.255 487.907 260.767C483.494 266.28 474.429 258.421 474.429 258.421L470.785 237.014Z" fill="url(#paint17_linear)"/>
<path d="M360.07 34.2612H316.71C315.491 34.2612 314.503 35.2496 314.503 36.4688C314.503 37.688 315.491 38.6763 316.71 38.6763H360.07C361.289 38.6763 362.277 37.688 362.277 36.4688C362.277 35.2496 361.289 34.2612 360.07 34.2612Z" fill="#0057FF"/>
<path d="M360.07 45.6772H316.71C315.491 45.6772 314.503 46.6656 314.503 47.8848C314.503 49.104 315.491 50.0923 316.71 50.0923H360.07C361.289 50.0923 362.277 49.104 362.277 47.8848C362.277 46.6656 361.289 45.6772 360.07 45.6772Z" fill="#0057FF"/>
<path d="M360.07 57.0933H316.71C315.491 57.0933 314.503 58.0816 314.503 59.3008C314.503 60.52 315.491 61.5083 316.71 61.5083H360.07C361.289 61.5083 362.277 60.52 362.277 59.3008C362.277 58.0816 361.289 57.0933 360.07 57.0933Z" fill="#0057FF"/>
<defs>
<linearGradient id="paint0_linear" x1="202.945" y1="199.234" x2="307.09" y2="199.234" gradientUnits="userSpaceOnUse">
<stop stop-color="#E5C5D5"/>
<stop offset="0.42" stop-color="#EAD4D1"/>
<stop offset="1" stop-color="#F0E9CB"/>
</linearGradient>
<linearGradient id="paint1_linear" x1="379.135" y1="454.741" x2="245.474" y2="-233.244" gradientUnits="userSpaceOnUse">
<stop stop-opacity="0"/>
<stop offset="0.99"/>
</linearGradient>
<linearGradient id="paint2_linear" x1="37054.1" y1="14458.2" x2="37516.3" y2="8405.82" gradientUnits="userSpaceOnUse">
<stop stop-opacity="0"/>
<stop offset="0.99"/>
</linearGradient>
<linearGradient id="paint3_linear" x1="15800" y1="6042.67" x2="17720.5" y2="6042.67" gradientUnits="userSpaceOnUse">
<stop stop-color="#E5C5D5"/>
<stop offset="0.42" stop-color="#EAD4D1"/>
<stop offset="1" stop-color="#F0E9CB"/>
</linearGradient>
<linearGradient id="paint4_linear" x1="10432.7" y1="6115.78" x2="11211.4" y2="6115.78" gradientUnits="userSpaceOnUse">
<stop stop-color="#E5C5D5"/>
<stop offset="0.42" stop-color="#EAD4D1"/>
<stop offset="1" stop-color="#F0E9CB"/>
</linearGradient>
<linearGradient id="paint5_linear" x1="8672.72" y1="5980.76" x2="9553.48" y2="2375.87" gradientUnits="userSpaceOnUse">
<stop stop-opacity="0"/>
<stop offset="0.99"/>
</linearGradient>
<linearGradient id="paint6_linear" x1="4793.37" y1="22104.6" x2="-497.782" y2="20020.4" gradientUnits="userSpaceOnUse">
<stop stop-opacity="0"/>
<stop offset="0.99"/>
</linearGradient>
<linearGradient id="paint7_linear" x1="3955.32" y1="9026.13" x2="4919.46" y2="9026.13" gradientUnits="userSpaceOnUse">
<stop stop-color="#E5C5D5"/>
<stop offset="0.42" stop-color="#EAD4D1"/>
<stop offset="1" stop-color="#F0E9CB"/>
</linearGradient>
<linearGradient id="paint8_linear" x1="323.749" y1="15.3395" x2="246.847" y2="73.3613" gradientUnits="userSpaceOnUse">
<stop offset="0.02" stop-color="white" stop-opacity="0"/>
<stop offset="0.32" stop-color="white" stop-opacity="0.39"/>
<stop offset="0.68" stop-color="white" stop-opacity="0.68"/>
<stop offset="1" stop-color="white"/>
</linearGradient>
<linearGradient id="paint9_linear" x1="-222032" y1="436609" x2="-220042" y2="436006" gradientUnits="userSpaceOnUse">
<stop offset="0.02" stop-color="white" stop-opacity="0"/>
<stop offset="0.32" stop-color="white" stop-opacity="0.39"/>
<stop offset="0.68" stop-color="white" stop-opacity="0.68"/>
<stop offset="1" stop-color="white"/>
</linearGradient>
<linearGradient id="paint10_linear" x1="5545.42" y1="6648.18" x2="7298.01" y2="6648.18" gradientUnits="userSpaceOnUse">
<stop stop-color="#E5C5D5"/>
<stop offset="0.42" stop-color="#EAD4D1"/>
<stop offset="1" stop-color="#F0E9CB"/>
</linearGradient>
<linearGradient id="paint11_linear" x1="3018.44" y1="40075.7" x2="5403.76" y2="40075.7" gradientUnits="userSpaceOnUse">
<stop stop-color="#E5C5D5"/>
<stop offset="0.42" stop-color="#EAD4D1"/>
<stop offset="1" stop-color="#F0E9CB"/>
</linearGradient>
<linearGradient id="paint12_linear" x1="64802.9" y1="10602.7" x2="67395.3" y2="10198.8" gradientUnits="userSpaceOnUse">
<stop stop-color="#E5C5D5"/>
<stop offset="0.42" stop-color="#EAD4D1"/>
<stop offset="1" stop-color="#F0E9CB"/>
</linearGradient>
<linearGradient id="paint13_linear" x1="12767.9" y1="7059.71" x2="15276.3" y2="7059.71" gradientUnits="userSpaceOnUse">
<stop stop-color="#E5C5D5"/>
<stop offset="0.42" stop-color="#EAD4D1"/>
<stop offset="1" stop-color="#F0E9CB"/>
</linearGradient>
<linearGradient id="paint14_linear" x1="3141.07" y1="2035.09" x2="3054.64" y2="2007.7" gradientUnits="userSpaceOnUse">
<stop stop-color="#E5C5D5"/>
<stop offset="0.42" stop-color="#EAD4D1"/>
<stop offset="1" stop-color="#F0E9CB"/>
</linearGradient>
<linearGradient id="paint15_linear" x1="1761.41" y1="1261.01" x2="1844.46" y2="1271.52" gradientUnits="userSpaceOnUse">
<stop stop-opacity="0"/>
<stop offset="0.99"/>
</linearGradient>
<linearGradient id="paint16_linear" x1="4802.13" y1="6670.13" x2="3823.06" y2="6878.76" gradientUnits="userSpaceOnUse">
<stop stop-opacity="0"/>
<stop offset="0.99"/>
</linearGradient>
<linearGradient id="paint17_linear" x1="7470.02" y1="13308.1" x2="3362.26" y2="5591.93" gradientUnits="userSpaceOnUse">
<stop stop-opacity="0"/>
<stop offset="0.99"/>
</linearGradient>
</defs>
</svg>
