<svg width="151" height="151" viewBox="0 0 151 151" fill="none" xmlns="http://www.w3.org/2000/svg">
<path d="M151 115.485H0V115.56H151V115.485Z" fill="#EBEBEB"/>
<path d="M132.309 120.344H118.48V120.419H132.309V120.344Z" fill="#EBEBEB"/>
<path d="M112.513 121.166H97.4041V121.241H112.513V121.166Z" fill="#EBEBEB"/>
<path d="M139.85 117.542H134.055V117.617H139.85V117.542Z" fill="#EBEBEB"/>
<path d="M28.8864 118.048H15.843V118.124H28.8864V118.048Z" fill="#EBEBEB"/>
<path d="M39.26 118.048H31.5771V118.124H39.26V118.048Z" fill="#EBEBEB"/>
<path d="M52.2459 119.323H39.7039V119.399H52.2459V119.323Z" fill="#EBEBEB"/>
<path d="M71.5739 102.015H13.2607C12.8039 102.015 12.366 101.833 12.0433 101.509C11.7206 101.186 11.5393 100.748 11.5393 100.291V18.3192C11.5433 17.865 11.7263 17.4307 12.0486 17.1106C12.3709 16.7906 12.8065 16.6106 13.2607 16.6099H71.5739C72.0312 16.6099 72.4699 16.7915 72.7932 17.1149C73.1166 17.4383 73.2983 17.8769 73.2983 18.3343V100.291C73.2983 100.748 73.1166 101.187 72.7932 101.51C72.4699 101.834 72.0312 102.015 71.5739 102.015ZM13.2607 16.6703C12.8239 16.6711 12.4053 16.8451 12.0967 17.1543C11.7881 17.4634 11.6148 17.8824 11.6148 18.3192V100.291C11.6148 100.728 11.7881 101.147 12.0967 101.456C12.4053 101.765 12.8239 101.939 13.2607 101.94H71.5739C72.011 101.939 72.4299 101.765 72.739 101.456C73.048 101.147 73.222 100.728 73.2228 100.291V18.3192C73.222 17.8821 73.048 17.4632 72.739 17.1541C72.4299 16.845 72.011 16.6711 71.5739 16.6703H13.2607Z" fill="#EBEBEB"/>
<path d="M136.9 102.015H78.5833C78.1262 102.015 77.6881 101.833 77.3648 101.51C77.0416 101.186 76.8597 100.748 76.8589 100.291V18.3192C76.8637 17.8647 77.0473 17.4304 77.3701 17.1105C77.6929 16.7905 78.1288 16.6106 78.5833 16.6099H136.9C137.353 16.6114 137.788 16.7917 138.11 17.1117C138.431 17.4317 138.614 17.8655 138.618 18.3192V100.291C138.618 100.747 138.437 101.185 138.115 101.508C137.793 101.831 137.356 102.014 136.9 102.015ZM78.5833 16.6703C78.1462 16.6711 77.7273 16.845 77.4182 17.1541C77.1092 17.4632 76.9352 17.8821 76.9344 18.3192V100.291C76.9352 100.728 77.1092 101.147 77.4182 101.456C77.7273 101.765 78.1462 101.939 78.5833 101.94H136.9C137.337 101.939 137.756 101.765 138.065 101.456C138.374 101.147 138.548 100.728 138.548 100.291V18.3192C138.548 17.8821 138.374 17.4632 138.065 17.1541C137.756 16.845 137.337 16.6711 136.9 16.6703H78.5833Z" fill="#EBEBEB"/>
<path d="M47.1602 50.3917C54.961 50.3917 61.2847 44.0679 61.2847 36.2671C61.2847 28.4663 54.961 22.1426 47.1602 22.1426C39.3594 22.1426 33.0356 28.4663 33.0356 36.2671C33.0356 44.0679 39.3594 50.3917 47.1602 50.3917Z" fill="#FAFAFA"/>
<path d="M18.561 29.2699C20.8592 26.3254 23.8581 24.2295 26.0899 24.2295C27.4851 24.2295 28.3156 25.054 28.5361 26.3979C29.5598 25.6308 30.5987 25.1899 31.4594 25.1899C32.9694 25.1899 33.5221 26.6062 32.9694 28.6055C33.7558 28.182 34.6197 27.9221 35.5092 27.8414C37.0615 27.7538 37.9252 28.5662 38.0158 29.892C38.3446 29.6819 38.718 29.5516 39.1061 29.5115C40.0121 29.4601 40.2355 30.2816 39.6376 31.3446L39.5198 31.5409H14.9702C15.3326 30.4839 17.4557 29.3212 18.561 29.2699Z" fill="#E6E6E6"/>
<path d="M87.5437 75.8287C90.0866 72.5732 93.4116 70.2568 95.8699 70.2568C97.4131 70.2568 98.3312 71.1628 98.5879 72.6547C99.7204 71.8091 100.868 71.3018 101.819 71.3018C103.498 71.3018 104.102 72.8691 103.504 75.0798C104.375 74.6124 105.332 74.3258 106.316 74.2372C108.031 74.1375 108.995 75.0375 109.088 76.5022C109.453 76.2708 109.867 76.1261 110.296 76.0794C111.284 76.022 111.544 76.931 110.882 78.1088C110.84 78.1843 110.798 78.2538 110.755 78.3263H83.5754C83.9741 77.1726 86.3206 75.8861 87.5437 75.8287Z" fill="#FAFAFA"/>
<path d="M88.2173 30.1818C92.0286 25.3045 97.0116 21.8315 100.699 21.8315C103.012 21.8315 104.389 23.1966 104.755 25.4223C106.452 24.1539 108.17 23.3929 109.587 23.3929C112.103 23.3929 113.009 25.7424 112.115 29.0584C113.424 28.3562 114.862 27.9267 116.343 27.796C118.913 27.645 120.356 29.004 120.498 31.1905C121.045 30.843 121.665 30.6269 122.31 30.5593C123.793 30.4748 124.183 31.8368 123.192 33.6005C123.132 33.7122 123.065 33.8179 123.002 33.9266H82.2649C82.8629 32.1962 86.3721 30.2694 88.2173 30.1818Z" fill="#E6E6E6"/>
<path d="M42.3011 47.6009C42.4353 47.5825 42.5704 47.5724 42.7058 47.5707C44.6869 45.647 46.6952 44.4178 48.1176 44.4178C49.1444 44.4178 49.7062 45.0581 49.8058 46.1453C53.5114 42.4095 57.3347 39.9814 60.0013 39.9814C62.1486 39.9814 63.1482 41.5609 63.0213 44.137C64.8575 42.6723 66.6061 41.7934 67.9379 41.7934C70.2754 41.7934 70.6378 44.5114 69.1248 48.3378C70.6348 47.4831 72.0723 46.9546 73.3014 46.8701C75.7174 46.6979 76.7774 48.2562 76.4573 50.7961C76.9924 50.4079 77.6146 50.1569 78.2693 50.0652C79.5891 49.9716 79.737 51.3729 78.668 53.2483H34.1833C36.24 50.4095 39.7794 47.921 42.3011 47.6009Z" fill="#F0F0F0"/>
<path d="M108.892 58.7659C108.964 58.7551 109.037 58.75 109.11 58.7508C110.176 57.7149 111.257 57.0536 112.024 57.0536C112.577 57.0536 112.879 57.3978 112.93 57.9807C114.926 55.9694 116.986 54.6587 118.42 54.6587C119.577 54.6587 120.115 55.5073 120.048 56.8935C121.036 56.1053 121.978 55.6342 122.694 55.6342C123.953 55.6342 124.149 57.0928 123.334 59.1555C124.017 58.7335 124.784 58.4646 125.581 58.3673C126.879 58.2736 127.453 59.1132 127.281 60.4813C127.568 60.2727 127.902 60.1379 128.253 60.0887C128.963 60.0373 129.045 60.7923 128.468 61.801H104.519C105.628 60.2789 107.533 58.938 108.892 58.7659Z" fill="#F5F5F5"/>
<path d="M51.5846 22.8763H51.6964C52.2521 22.3357 52.8168 21.9914 53.2064 21.9914C53.4933 21.9914 53.6503 22.1726 53.6805 22.4776C54.7194 21.4267 55.7945 20.7441 56.5435 20.7441C57.1475 20.7441 57.4283 21.1881 57.3951 21.9129C57.7748 21.5542 58.2576 21.3239 58.7753 21.2545C59.4306 21.2545 59.5333 22.0156 59.1075 23.0907C59.4642 22.8715 59.8638 22.7315 60.2792 22.68C60.9587 22.6316 61.2577 23.0695 61.1671 23.7853C61.3165 23.6757 61.4909 23.6051 61.6745 23.5799C62.0459 23.5527 62.0882 23.9453 61.7862 24.4859H49.3015C49.8783 23.6645 50.8749 22.9669 51.5846 22.8763Z" fill="#F5F5F5"/>
<path d="M18.2983 58.9295H18.41C18.9687 58.3889 19.5304 58.0446 19.92 58.0446C20.222 58.0446 20.364 58.2228 20.3942 58.5278C21.433 57.4799 22.5082 56.7974 23.2571 56.7974C23.8611 56.7974 24.142 57.2413 24.1088 57.9661C24.6222 57.5524 25.1144 57.3047 25.4889 57.3047C26.1442 57.3047 26.2469 58.0688 25.8211 59.1439C26.1778 58.9248 26.5774 58.7847 26.9929 58.7332C27.6724 58.6849 27.9713 59.1228 27.8807 59.8355C28.0309 59.7272 28.2049 59.6568 28.3881 59.6301C28.7596 59.606 28.8018 59.9986 28.4998 60.5361H16.0061C16.592 59.7177 17.5886 59.0201 18.2983 58.9295Z" fill="#FAFAFA"/>
<path d="M108.219 41.6243C106.5 41.1955 105.428 40.3106 104.214 41.8055C105.905 40.6488 108.155 42.34 108.155 42.34C108.155 42.34 110.665 41.0596 112.133 42.491C111.193 40.8089 109.985 41.4975 108.219 41.6243Z" fill="#E0E0E0"/>
<path d="M116.14 46.5503C115.047 46.2755 114.367 45.7138 113.597 46.6651C114.669 45.9282 116.101 47.0033 116.101 47.0033C116.101 47.0033 117.692 46.191 118.625 47.1C118.028 46.0309 117.26 46.4688 116.14 46.5503Z" fill="#E0E0E0"/>
<path d="M25.7123 40.1659C24.2778 39.8066 23.3839 39.0667 22.3691 40.3169C23.7825 39.3566 25.67 40.7699 25.67 40.7699C25.67 40.7699 27.7659 39.7009 28.992 40.8968C28.1977 39.4925 27.18 40.0663 25.7123 40.1659Z" fill="#E0E0E0"/>
<path d="M75.5001 129.123C107.839 129.123 134.055 127.593 134.055 125.705C134.055 123.817 107.839 122.286 75.5001 122.286C43.1612 122.286 16.9453 123.817 16.9453 125.705C16.9453 127.593 43.1612 129.123 75.5001 129.123Z" fill="#F5F5F5"/>
<path d="M82.8417 39.2753C79.6559 38.948 76.4582 39.7718 73.827 41.5977C68.9799 44.9559 62.7074 50.6003 55.0124 59.4791C44.5632 71.5379 26.2983 62.2575 16.9604 71.6255C23.9789 71.8128 31.6467 76.8562 33.3711 84.4786C35.0955 92.1011 46.6591 96.0936 54.1004 95.5288C61.5417 94.9641 79.7523 105.434 85.6654 94.5654C90.0595 86.4869 96.5586 65.0691 95.1633 51.0775C94.8698 48.0754 93.5463 45.2674 91.4175 43.1303C89.2888 40.9933 86.4859 39.6589 83.485 39.3538L82.8417 39.2753Z" fill="#407BFF"/>
<path opacity="0.4" d="M82.8417 39.2753C79.6559 38.948 76.4582 39.7718 73.827 41.5977C68.9799 44.9559 62.7074 50.6003 55.0124 59.4791C44.5632 71.5379 26.2983 62.2575 16.9604 71.6255C23.9789 71.8128 31.6467 76.8562 33.3711 84.4786C35.0955 92.1011 46.6591 96.0936 54.1004 95.5288C61.5417 94.9641 79.7523 105.434 85.6654 94.5654C90.0595 86.4869 96.5586 65.0691 95.1633 51.0775C94.8698 48.0754 93.5463 45.2674 91.4175 43.1303C89.2888 40.9933 86.4859 39.6589 83.485 39.3538L82.8417 39.2753Z" fill="white"/>
<path opacity="0.2" d="M53.8799 95.541H54.0852C55.0238 95.4923 55.9649 95.549 56.8908 95.7101C62.4416 87.1786 66.4974 76.8865 70.1214 67.8325C65.5157 77.5192 60.0816 86.7898 53.8799 95.541Z" fill="#407BFF"/>
<path opacity="0.2" d="M34.7603 87.6738C35.2105 88.3426 35.7275 88.9639 36.3035 89.5281C48.4258 84.228 61.3453 67.4821 66.4521 56.1934C57.7183 70.0401 43.6089 81.3983 34.7603 87.6738Z" fill="#407BFF"/>
<path d="M74.3525 59.0322C74.3525 59.0322 70.2543 77.1371 68.998 83.458C67.6209 90.3798 72.9391 109.563 72.9391 109.563L77.1671 108.313C77.1671 108.313 73.7485 92.3066 75.787 85.5931C77.9976 78.3149 83.0017 59.3191 83.0017 59.3191L74.3525 59.0322Z" fill="#407BFF"/>
<g opacity="0.5">
<path opacity="0.5" d="M74.3525 59.0322C74.3525 59.0322 70.2543 77.1371 68.998 83.458C67.6209 90.3798 72.9391 109.563 72.9391 109.563L77.1671 108.313C77.1671 108.313 73.7485 92.3066 75.787 85.5931C77.9976 78.3149 83.0017 59.3191 83.0017 59.3191L74.3525 59.0322Z" fill="black"/>
</g>
<path d="M69.4934 94.934C69.7621 97.1386 72.3775 109.043 72.7006 110.034C73.0237 111.025 71.5923 113.93 70.345 115.325C69.4601 116.313 71.4201 116.835 72.761 115.857C74.9898 114.214 76.6175 112.024 77.9826 111.103C78.8221 110.535 78.5232 109.019 77.5296 107.899C77.0313 107.337 75.4337 94.0068 75.2616 93.0706C75.0894 92.1344 71.1453 94.1035 70.2212 96.0061C69.8014 94.5263 69.2246 92.7143 69.4934 94.934Z" fill="#407BFF"/>
<path d="M70.4054 97.6852C70.3783 97.685 70.3517 97.6776 70.3284 97.6638C70.3051 97.65 70.2858 97.6303 70.2725 97.6067C69.9081 96.9588 69.6261 96.2679 69.433 95.5501C69.4295 95.5304 69.43 95.5103 69.4343 95.4908C69.4387 95.4714 69.4468 95.453 69.4584 95.4367C69.4699 95.4204 69.4845 95.4066 69.5014 95.3959C69.5183 95.3853 69.5371 95.3782 69.5568 95.3749C69.5762 95.3715 69.5962 95.372 69.6155 95.3763C69.6347 95.3807 69.6529 95.389 69.669 95.4005C69.685 95.412 69.6986 95.4267 69.7089 95.4435C69.7192 95.4604 69.726 95.4792 69.7289 95.4987C69.8839 96.0693 70.0985 96.622 70.3692 97.1476C71.0487 95.544 73.7969 94.2243 74.9988 94.2394C75.482 94.2394 75.6028 94.484 75.6209 94.6229C75.6282 94.663 75.6192 94.7043 75.5959 94.7377C75.5727 94.7711 75.5372 94.7939 75.4971 94.8011C75.4571 94.8083 75.4158 94.7993 75.3824 94.7761C75.349 94.7529 75.3262 94.7173 75.3189 94.6773C75.2978 94.5625 75.1015 94.5414 74.9867 94.5414H74.9626C73.7546 94.5414 70.8795 96.0363 70.5443 97.5614C70.5383 97.591 70.523 97.6181 70.5008 97.6387C70.4786 97.6592 70.4505 97.6723 70.4205 97.6761L70.4054 97.6852Z" fill="white"/>
<path opacity="0.2" d="M80.0633 65.4315C76.243 69.9615 76.3366 77.8135 76.9799 81.5462C78.4899 76.2552 80.4227 69.0525 81.6911 64.293C81.2743 64.29 80.7398 64.6282 80.0633 65.4315Z" fill="black"/>
<path d="M76.8532 44.4934L76.3156 45.2997C76.1344 45.5806 75.9441 45.8584 75.7629 46.1453C75.3945 46.7131 75.0412 47.2929 74.6939 47.8758C74.3466 48.4587 74.0083 49.0445 73.6942 49.6425L73.2261 50.5485L73.0027 51.0015L72.9 51.2099C72.9 51.231 72.8758 51.2491 72.8637 51.2733C72.7356 51.6765 72.7117 52.1056 72.7943 52.5206C72.8823 53.1264 73.0259 53.7228 73.2231 54.3024C73.6663 55.5824 74.1877 56.8341 74.7845 58.0502L73.0993 59.2914C72.5636 58.7412 72.0661 58.1549 71.6104 57.5368C71.145 56.9148 70.7222 56.262 70.3451 55.5828C69.9381 54.8584 69.611 54.0918 69.3696 53.2967C69.2376 52.8462 69.1497 52.384 69.1069 51.9166C69.0499 51.3669 69.0856 50.8115 69.2126 50.2737C69.2488 50.1257 69.2971 49.9717 69.3454 49.8267L69.4481 49.5247L69.6414 48.9811C69.7773 48.6248 69.9132 48.2654 70.0672 47.9181C70.3692 47.2144 70.6863 46.5259 71.0336 45.8494C71.3809 45.1729 71.7584 44.5145 72.1571 43.8652C72.3594 43.5421 72.5648 43.219 72.7822 42.9049C72.8939 42.7448 72.9996 42.5878 73.1174 42.4307L73.4889 41.9385L76.8532 44.4934Z" fill="#407BFF"/>
<path d="M74.1593 41.0387C73.0962 42.1018 72.314 43.6389 71.6829 44.7896L75.2314 47.8096C76.681 46.1788 79.0486 42.9776 79.0396 41.4676C79.0215 39.2358 76.4061 38.813 74.1593 41.0387Z" fill="#407BFF"/>
<path d="M79.0908 59.0684C79.0908 59.0684 78.0881 76.1555 78.1848 82.573C78.2965 89.6006 80.9028 112.272 80.9028 112.272L85.2848 111.571C85.2848 111.571 84.717 90.3737 85.2848 83.4398C85.916 75.9109 87.4199 59.3341 87.4199 59.3341L79.0908 59.0684Z" fill="#407BFF"/>
<g opacity="0.5">
<path opacity="0.5" d="M79.0908 59.0684C79.0908 59.0684 78.0881 76.1555 78.1848 82.573C78.2965 89.6006 80.9028 112.272 80.9028 112.272L85.2848 111.571C85.2848 111.571 84.717 90.3737 85.2848 83.4398C85.916 75.9109 87.4199 59.3341 87.4199 59.3341L79.0908 59.0684Z" fill="black"/>
</g>
<path d="M78.9883 96.6642C79.2389 98.8718 80.4348 111.423 80.607 112.462C80.7791 113.501 79.3778 116.198 78.5443 117.23C77.7108 118.263 80.1389 118.215 81.7214 117.735C83.3038 117.255 84.4393 114.346 85.3212 113.845C86.203 113.344 86.2664 111.68 85.7742 111.127C85.2819 110.574 85.442 96.7366 85.4118 95.7793C85.3816 94.822 81.8422 96.1447 80.6553 97.8933C79.5621 96.4618 78.7406 94.4535 78.9883 96.6642Z" fill="#407BFF"/>
<path d="M80.5314 99.4394C80.5094 99.4394 80.4877 99.4346 80.4679 99.4252C80.448 99.4158 80.4305 99.4021 80.4166 99.3851C79.8423 98.6842 79.3367 97.9297 78.9066 97.1322C78.8886 97.0961 78.8854 97.0543 78.8979 97.0159C78.9103 96.9775 78.9373 96.9455 78.9731 96.9268C79.0087 96.9089 79.05 96.9058 79.0879 96.9183C79.1259 96.9307 79.1573 96.9577 79.1754 96.9932C79.566 97.7126 80.0197 98.3958 80.5314 99.0347C81.6095 97.5248 83.8534 96.6037 84.9104 96.7245C85.3483 96.7758 85.5144 96.9812 85.5657 97.1442C85.5784 97.1823 85.5756 97.2238 85.5582 97.2599C85.5407 97.296 85.5098 97.3238 85.4721 97.3375C85.4345 97.35 85.3934 97.3472 85.3578 97.3297C85.3222 97.3122 85.2949 97.2814 85.2819 97.2439C85.2275 97.0959 85.0312 97.0416 84.8772 97.0234C83.8775 96.9087 81.6216 97.866 80.6703 99.37C80.6572 99.3897 80.6398 99.4062 80.6194 99.4182C80.599 99.4302 80.5761 99.4375 80.5525 99.4394H80.5314Z" fill="white"/>
<path d="M74.6243 59.041L76.9407 59.4879C77.2265 59.544 77.4969 59.661 77.7334 59.8309C77.97 60.0007 78.1673 60.2196 78.3118 60.4724L78.949 61.5898L80.5707 60.2248C80.9208 59.932 81.3562 59.7604 81.8119 59.7356L87.5862 59.4517C87.7251 58.3886 87.6164 54.9036 88.015 50.4823C88.2892 47.1982 88.8685 43.9467 89.7455 40.77C89.7725 40.6796 89.7803 40.5847 89.7683 40.4911C89.7562 40.3976 89.7247 40.3077 89.6758 40.2271C89.6268 40.1466 89.5615 40.0772 89.484 40.0235C89.4065 39.9698 89.3187 39.9329 89.226 39.9153C88.9844 39.867 88.6945 39.8156 88.3683 39.7613C87.5922 39.6284 86.6167 39.4895 85.6504 39.417C83.8185 39.262 81.9798 39.2035 80.1419 39.2418C79.2933 39.2871 78.4597 39.3898 77.7953 39.4865C77.2548 39.568 77.0252 39.5499 76.7867 39.6073C76.5764 39.671 76.3888 39.7936 76.2461 39.9606C75.4216 41.0176 72.2929 46.0429 74.6243 59.041Z" fill="#407BFF"/>
<path opacity="0.2" d="M83.2291 47.0689C83.5745 44.4385 82.5266 42.1318 80.8886 41.9167C79.2506 41.7016 77.6427 43.6596 77.2973 46.29C76.9519 48.9204 77.9997 51.2271 79.6378 51.4422C81.2758 51.6573 82.8837 49.6993 83.2291 47.0689Z" fill="white"/>
<path d="M73.8483 57.4163L75.5365 57.0298L74.6878 59.3491C74.6878 59.3491 73.2986 59.7599 73.0359 58.8508L73.8483 57.4163Z" fill="#FFC3BD"/>
<path d="M76.7474 57.8905L75.5515 60.0891L74.6877 59.3492L75.5364 57.0298L76.7474 57.8905Z" fill="#FFC3BD"/>
<path d="M89.208 39.9C86.9641 39.5013 85.9252 40.957 86.7195 43.6991C87.3062 45.6046 88.1258 47.4303 89.1596 49.1351L92.9709 48.0177C92.3095 45.3631 90.7119 40.1657 89.208 39.9Z" fill="#407BFF"/>
<path d="M84.8018 33.0601L82.9052 34.3345L80.3322 36.074C80.4162 36.3938 80.4798 36.7186 80.5224 37.0465C80.6946 38.3481 80.3563 39.4866 78.2665 39.7645C78.2665 39.7645 76.8531 41.2926 80.0483 41.8332C84.1766 42.5308 85.4269 40.4379 85.4269 40.4379C83.8112 38.8826 84.3186 35.1137 84.8018 33.0601Z" fill="#FFC3BD"/>
<path d="M78.1911 37.448C77.572 37.146 77.0314 38.354 77.1794 38.8765C77.3274 39.399 76.7536 38.8765 76.1254 39.6768C75.4973 40.4771 77.6354 43.7417 80.5829 45.4812C83.1711 44.6236 85.2247 43.331 86.1095 42.5247C86.8917 41.8119 88.9604 39.4745 88.1238 39.2027C87.2873 38.9309 87.7614 37.9101 86.9581 37.4541C86.1548 36.9981 81.6762 39.1725 78.1911 37.448Z" fill="#407BFF"/>
<path opacity="0.7" d="M78.1911 37.448C77.572 37.146 77.0314 38.354 77.1794 38.8765C77.3274 39.399 76.7536 38.8765 76.1254 39.6768C75.4973 40.4771 77.6354 43.7417 80.5829 45.4812C83.1711 44.6236 85.2247 43.331 86.1095 42.5247C86.8917 41.8119 88.9604 39.4745 88.1238 39.2027C87.2873 38.9309 87.7614 37.9101 86.9581 37.4541C86.1548 36.9981 81.6762 39.1725 78.1911 37.448Z" fill="white"/>
<path opacity="0.4" d="M77.7681 39.2598C78.3056 39.8245 81.7152 40.3711 84.6295 39.7279C81.987 40.5584 78.6469 40.5946 77.7681 39.2598Z" fill="#407BFF"/>
<path opacity="0.4" d="M81.1355 42.727C81.1355 42.727 83.2857 42.425 84.7595 41.374C84.0166 42.0747 83.1287 42.9474 81.1355 42.727Z" fill="#407BFF"/>
<path opacity="0.2" d="M80.332 36.0737C80.4161 36.3935 80.4796 36.7183 80.5223 37.0461C81.4978 36.9555 82.7873 36.1401 82.9021 35.2341C82.9381 34.9332 82.9381 34.629 82.9021 34.3281L80.332 36.0737Z" fill="black"/>
<path d="M79.9214 27.7596C78.7949 28.2126 78.0127 31.293 79.3808 32.0178C80.7488 32.7426 82.0625 26.8989 79.9214 27.7596Z" fill="#263238"/>
<path d="M84.7745 31.3204C84.1856 33.4767 83.95 34.7632 82.6122 35.7024C82.188 36.0159 81.6856 36.2063 81.1602 36.2526C80.6348 36.2989 80.1069 36.1993 79.6344 35.9648C79.162 35.7303 78.7635 35.37 78.4827 34.9235C78.2019 34.4771 78.0497 33.9618 78.0429 33.4344C77.9825 31.4019 78.9489 28.2189 81.2774 27.6964C81.7732 27.5683 82.2942 27.5742 82.7871 27.7134C83.28 27.8526 83.727 28.1201 84.0827 28.4886C84.4383 28.8572 84.6897 29.3135 84.8113 29.811C84.9328 30.3085 84.9201 30.8294 84.7745 31.3204Z" fill="#FFC3BD"/>
<path d="M80.0695 30.6527C80.0695 30.6527 79.1635 29.934 78.3541 30.239C78.3541 30.239 77.0012 32.5433 79.7403 31.8215C82.6244 33.265 82.9083 30.7735 82.9083 30.7735C81.1839 30.0578 80.0695 30.6527 80.0695 30.6527Z" fill="#407BFF"/>
<path d="M87.701 29.1762C88.7308 29.6896 87.701 31.9697 86.7467 32.6523C85.4511 33.5794 84.8441 33.8844 84.1555 33.2563C83.5273 32.9059 82.4854 30.7315 83.6179 29.436C82.6576 28.7444 79.4111 30.1245 78.4688 27.3854C78.046 26.1593 78.3873 23.6104 81.6247 25.063C81.8029 26.3707 83.6663 26.7331 85.0947 26.6847C87.2419 26.6183 88.6976 27.6813 87.701 29.1762Z" fill="#263238"/>
<path d="M79.846 28.3609C79.0608 28.5813 78.179 28.0196 78.3119 28.9649C78.3397 29.081 78.3414 29.2018 78.3168 29.3187C78.2922 29.4355 78.242 29.5454 78.1697 29.6405C78.0975 29.7356 78.005 29.8134 77.8991 29.8684C77.7931 29.9234 77.6762 29.9541 77.5569 29.9585C77.5569 29.9585 78.6833 29.9343 78.5867 29.1974C78.4901 28.4605 79.4112 28.9528 80.1933 29.0434C80.9755 29.134 80.287 28.2371 79.846 28.3609Z" fill="#263238"/>
<path d="M85.164 33.6094C84.7901 34.02 84.2872 34.2907 83.7386 34.3765C83.047 34.4641 82.9262 33.8238 83.3067 33.2228C83.651 32.6823 84.4241 31.9877 85.0281 32.1719C85.6321 32.3561 85.6261 33.093 85.164 33.6094Z" fill="#FFC3BD"/>
<path d="M81.3377 31.2784C81.3015 31.4566 81.1746 31.5804 81.0599 31.5804C80.9451 31.5804 80.8787 31.4022 80.9149 31.2271C80.9512 31.0519 81.078 30.9251 81.1928 30.9402C81.3075 30.9553 81.3739 31.1063 81.3377 31.2784Z" fill="white"/>
<path d="M79.2933 31.0063C79.254 31.1814 79.1302 31.3083 79.0155 31.3083C78.9007 31.3083 78.8343 31.1301 78.8705 30.9519C78.9067 30.7737 79.0306 30.6499 79.1483 30.6499C79.2661 30.6499 79.3295 30.8281 79.2933 31.0063Z" fill="white"/>
<path d="M79.8912 31.2661C79.5638 31.7754 79.1709 32.2395 78.7224 32.6463C78.828 32.7539 78.9562 32.8369 79.0977 32.8891C79.2392 32.9413 79.3906 32.9615 79.5408 32.9483L79.8912 31.2661Z" fill="#ED847E"/>
<path d="M80.2174 33.5374C80.4275 33.5477 80.6375 33.5159 80.8351 33.4438C81.0327 33.3717 81.2139 33.2608 81.368 33.1176C81.3778 33.1075 81.3833 33.0939 81.3833 33.0799C81.3833 33.0658 81.3778 33.0522 81.368 33.0421C81.3579 33.0323 81.3443 33.0269 81.3303 33.0269C81.3162 33.0269 81.3026 33.0323 81.2925 33.0421C81.1229 33.1946 80.9209 33.3068 80.7018 33.37C80.4826 33.4333 80.252 33.4461 80.0271 33.4075C80.0202 33.4062 80.013 33.4064 80.0061 33.408C79.9992 33.4096 79.9927 33.4127 79.987 33.4169C79.9813 33.4212 79.9766 33.4266 79.9731 33.4327C79.9696 33.4389 79.9675 33.4458 79.9667 33.4528C79.9654 33.4596 79.9655 33.4665 79.967 33.4732C79.9684 33.48 79.9712 33.4863 79.9751 33.492C79.979 33.4976 79.9841 33.5024 79.9899 33.506C79.9957 33.5097 80.0022 33.5121 80.009 33.5132C80.0779 33.5255 80.1475 33.5335 80.2174 33.5374Z" fill="#263238"/>
<path d="M82.1923 30.2422C82.2095 30.2357 82.225 30.2254 82.2376 30.212C82.2572 30.1917 82.2681 30.1647 82.2681 30.1365C82.2681 30.1083 82.2572 30.0813 82.2376 30.061C82.1138 29.9495 81.9646 29.87 81.803 29.8295C81.6413 29.789 81.4723 29.7886 81.3105 29.8285C81.2972 29.8326 81.2848 29.8393 81.2741 29.8482C81.2634 29.8571 81.2546 29.8681 81.2481 29.8804C81.2417 29.8928 81.2377 29.9063 81.2365 29.9202C81.2353 29.9341 81.2368 29.9481 81.241 29.9613C81.2444 29.9748 81.2506 29.9873 81.2591 29.9983C81.2677 30.0092 81.2784 30.0182 81.2906 30.0247C81.3028 30.0313 81.3163 30.0352 81.3301 30.0362C81.3439 30.0373 81.3578 30.0354 81.3709 30.0308C81.4981 30.0015 81.6305 30.0035 81.7567 30.0366C81.883 30.0698 81.9993 30.133 82.0957 30.2211C82.1088 30.2322 82.1245 30.2399 82.1414 30.2436C82.1582 30.2473 82.1757 30.2468 82.1923 30.2422Z" fill="#263238"/>
<path d="M79.5893 29.9706C79.5815 29.9552 79.5699 29.9422 79.5557 29.9327C79.5414 29.9231 79.5249 29.9175 79.5077 29.9162C79.3728 29.9058 79.2422 29.8645 79.1259 29.7953C79.0096 29.7262 78.9108 29.6311 78.8373 29.5176C78.8309 29.5053 78.8222 29.4944 78.8116 29.4856C78.8009 29.4767 78.7886 29.4701 78.7753 29.4662C78.7621 29.4622 78.7482 29.461 78.7344 29.4626C78.7207 29.4641 78.7074 29.4685 78.6953 29.4753C78.6706 29.4882 78.6519 29.5103 78.6434 29.5369C78.6349 29.5635 78.6373 29.5924 78.65 29.6172C78.7383 29.7619 78.8596 29.8835 79.0039 29.9723C79.1483 30.061 79.3116 30.1142 79.4806 30.1276C79.4947 30.1293 79.509 30.1281 79.5227 30.1241C79.5363 30.1201 79.549 30.1134 79.56 30.1044C79.571 30.0953 79.5801 30.0842 79.5867 30.0716C79.5933 30.059 79.5972 30.0451 79.5983 30.031C79.6015 30.0104 79.5984 29.9893 79.5893 29.9706Z" fill="#263238"/>
<path d="M87.3596 57.549L85.1248 57.2168L86.2995 59.7657C86.2995 59.7657 88.335 59.7023 88.2293 58.6573L87.3596 57.549Z" fill="#FFC3BD"/>
<path d="M90.2439 41.374C90.6395 42.0958 90.9596 42.7723 91.2827 43.488C91.6059 44.2038 91.8867 44.9104 92.1676 45.6413C92.4485 46.3721 92.6991 47.112 92.9196 47.8731C93.1546 48.6415 93.3491 49.4217 93.5024 50.2105L93.5598 50.5125C93.581 50.6273 93.6051 50.7874 93.6232 50.9202C93.6414 51.0531 93.6474 51.2011 93.6565 51.34C93.6655 51.4778 93.6655 51.616 93.6565 51.7538C93.6394 52.2785 93.552 52.7985 93.3967 53.3C93.1226 54.1854 92.6998 55.0177 92.1465 55.7613C91.6465 56.4356 91.0799 57.0579 90.4553 57.6186C90.1533 57.8934 89.8513 58.1471 89.5191 58.3947C89.1869 58.6424 88.8758 58.8568 88.4953 59.0893L87.1786 57.4616C87.3719 57.2169 87.6044 56.927 87.8067 56.6522C88.0091 56.3774 88.2175 56.0875 88.4107 55.8066C88.7853 55.2605 89.1165 54.686 89.4013 54.0882C89.6564 53.5753 89.8316 53.0263 89.9207 52.4604C89.9538 52.2392 89.9538 52.0143 89.9207 51.793C89.9186 51.7441 89.9115 51.6956 89.8996 51.6481C89.8917 51.602 89.8806 51.5566 89.8664 51.5122L89.7516 51.1286C89.3239 49.795 88.8269 48.4845 88.2628 47.2026C87.9789 46.5503 87.6859 45.895 87.387 45.2457L86.481 43.3249L90.2439 41.374Z" fill="#407BFF"/>
<path d="M83.4761 58.5577L84.5512 60.6113L86.2998 59.7657L85.125 57.2168L83.4761 58.5577Z" fill="#FFC3BD"/>
</svg>
