<svg width="152" height="152" viewBox="0 0 152 152" fill="none" xmlns="http://www.w3.org/2000/svg">
<path d="M152 116.25H0V116.326H152V116.25Z" fill="#EBEBEB"/>
<path d="M26.0164 119.144H15.9479V119.22H26.0164V119.144Z" fill="#EBEBEB"/>
<path d="M54.6683 118.32H46.6458V118.396H54.6683V118.32Z" fill="#EBEBEB"/>
<path d="M41.3105 120.938H27.3508V121.013H41.3105V120.938Z" fill="#EBEBEB"/>
<path d="M136.77 121.458H130.203V121.534H136.77V121.458Z" fill="#EBEBEB"/>
<path d="M128.726 121.458H119.007V121.534H128.726V121.458Z" fill="#EBEBEB"/>
<path d="M101.028 120.174H84.272V120.25H101.028V120.174Z" fill="#EBEBEB"/>
<path d="M72.048 102.691H13.3486C12.8888 102.691 12.4481 102.507 12.1232 102.182C11.7983 101.856 11.6158 101.415 11.6158 100.956V18.4409C11.6198 17.9836 11.8041 17.5465 12.1285 17.2243C12.453 16.9021 12.8914 16.721 13.3486 16.7202H72.048C72.5084 16.7202 72.9499 16.9031 73.2754 17.2286C73.601 17.5542 73.7838 17.9957 73.7838 18.4561V100.956C73.7838 101.416 73.601 101.857 73.2754 102.183C72.9499 102.509 72.5084 102.691 72.048 102.691ZM13.3486 16.781C12.909 16.7818 12.4875 16.9571 12.1769 17.2682C11.8663 17.5794 11.6918 18.0012 11.6918 18.4409V100.956C11.6918 101.395 11.8663 101.817 12.1769 102.128C12.4875 102.439 12.909 102.615 13.3486 102.615H72.048C72.488 102.615 72.9097 102.439 73.2208 102.128C73.5319 101.817 73.707 101.396 73.7078 100.956V18.4409C73.707 18.0009 73.5319 17.5792 73.2208 17.2681C72.9097 16.957 72.488 16.7818 72.048 16.781H13.3486Z" fill="#EBEBEB"/>
<path d="M137.806 102.691H79.1038C78.6436 102.691 78.2026 102.507 77.8772 102.182C77.5519 101.857 77.3687 101.416 77.3679 100.956V18.4409C77.3727 17.9834 77.5576 17.5462 77.8826 17.2241C78.2075 16.902 78.6462 16.721 79.1038 16.7202H137.806C138.263 16.7218 138.701 16.9033 139.024 17.2254C139.348 17.5475 139.532 17.9842 139.536 18.4409V100.956C139.536 101.415 139.354 101.856 139.03 102.181C138.705 102.506 138.265 102.69 137.806 102.691ZM79.1038 16.781C78.6638 16.7818 78.2421 16.957 77.931 17.2681C77.6199 17.5792 77.4447 18.0009 77.4439 18.4409V100.956C77.4447 101.396 77.6199 101.817 77.931 102.128C78.2421 102.439 78.6638 102.615 79.1038 102.615H137.806C138.246 102.615 138.668 102.439 138.979 102.128C139.29 101.817 139.465 101.396 139.466 100.956V18.4409C139.465 18.0009 139.29 17.5792 138.979 17.2681C138.668 16.957 138.246 16.7818 137.806 16.781H79.1038Z" fill="#EBEBEB"/>
<path d="M119.563 81.0588C118.742 78.7058 112.267 81.907 109.659 85.8042C107.911 88.4004 106.844 91.1729 106.348 94.8969C106.406 90.6409 106.476 86.0809 106.54 81.7762C107.072 80.7031 108.282 78.2255 109.154 76.2647C112.06 69.7166 118.97 67.2815 121.357 63.1471C124.485 57.7298 124.467 49.607 121.804 46.6764C119.49 44.1289 111.826 61.3535 110.963 63.2778C107.996 69.899 107.133 74.8116 106.576 79.5692C106.637 75.523 106.698 71.8111 106.75 68.9292C106.911 59.5812 107.114 56.5746 107.206 55.6505C107.528 55.1975 107.905 54.6716 108.118 54.3889C109.972 52.0025 114.088 49.1601 116.143 45.6884C119.147 40.6207 118.66 34.5559 116.554 32.3124C114.353 29.9503 110.458 35.5318 108.394 41.0615C106.33 46.5913 107.209 51.8839 106.631 56.4774C106.509 57.3894 106.385 60.8002 106.266 65.5457C105.64 60.4385 104.391 57.0185 102.077 53.8295C99.2287 49.9079 96.7723 45.1351 94.4255 45.7522C92.0786 46.3694 93.3432 52.6865 95.2007 57.1218C96.8514 61.0738 105.005 65.0106 106.205 68.1844C106.066 74.617 105.938 82.7764 105.847 90.3551C105.205 86.4366 105.646 86.0991 103.013 80.1073C101.448 76.5383 95.0274 72.1394 94.2643 74.5927C93.5104 76.9974 94.6626 81.6759 97.0855 84.9287C99.0402 87.5462 103.378 87.5431 104.381 89.1665C104.616 89.5465 105.388 90.9905 105.832 91.8326C105.725 101.095 105.68 109.273 105.731 112.061L106.151 112.088C106.132 111.371 106.184 106.659 106.266 100.421C107.318 97.1039 114.41 95.1674 116.602 91.717C118.897 88.0964 120.545 83.883 119.563 81.0588Z" fill="#E6E6E6"/>
<path d="M112.893 116.25H99.2863C98.9275 116.248 98.5804 116.122 98.3035 115.894C98.0267 115.666 97.8369 115.349 97.7663 114.998L96.7996 110.234H115.404L114.438 114.998C114.366 115.353 114.173 115.673 113.891 115.902C113.609 116.13 113.256 116.254 112.893 116.25Z" fill="#E6E6E6"/>
<path d="M115.781 112.079H96.3984C96.1734 112.081 95.9558 111.999 95.7875 111.85C95.6191 111.7 95.5119 111.494 95.4864 111.271L95.0882 107.75C95.0735 107.622 95.0863 107.492 95.1255 107.369C95.1647 107.247 95.2296 107.133 95.3158 107.037C95.402 106.941 95.5075 106.865 95.6255 106.813C95.7435 106.761 95.8712 106.734 96.0002 106.735H116.18C116.309 106.734 116.436 106.761 116.554 106.813C116.672 106.865 116.778 106.941 116.864 107.037C116.95 107.133 117.015 107.247 117.054 107.369C117.094 107.492 117.106 107.622 117.092 107.75L116.69 111.264C116.666 111.489 116.56 111.696 116.392 111.846C116.224 111.997 116.007 112.08 115.781 112.079Z" fill="#F0F0F0"/>
<path d="M66.2719 83.6821C66.1139 83.6821 65.9679 83.6821 65.8007 83.6973C62.4567 83.9648 59.7724 87.1386 59.5596 91.048C59.5111 91.9093 59.5848 92.7731 59.7785 93.6138C60.5131 96.9855 60.8659 100.429 60.8303 103.88V113.964C60.8303 114.693 61.338 115.286 61.9612 115.286H97.131V83.6699L66.2719 83.6821Z" fill="#F0F0F0"/>
<path d="M103.855 91.5649C103.855 87.0292 100.584 83.3873 96.6567 83.7004C93.3127 83.9679 90.6314 87.1417 90.4186 91.0512C90.3706 91.9123 90.4433 92.7759 90.6345 93.6169C91.3715 96.9883 91.7254 100.432 91.6893 103.883V113.967C91.6893 114.696 92.197 115.289 92.8202 115.289H101.442C102.065 115.289 102.57 114.696 102.57 113.967V103.293C102.543 100.056 102.893 96.8276 103.612 93.6716C103.774 92.9811 103.856 92.2742 103.855 91.5649Z" fill="#FAFAFA"/>
<path d="M87.8651 97.417H51.4551V115.289H87.8651V97.417Z" fill="#F5F5F5"/>
<path d="M36.7079 76H75.4436C76.9054 76 78.3072 76.5807 79.3409 77.6143C80.3745 78.6479 80.9551 80.0498 80.9551 81.5115V100.439H31.1995V81.5115C31.1995 80.0503 31.7797 78.6489 32.8127 77.6154C33.8456 76.5818 35.2467 76.0008 36.7079 76Z" fill="#E6E6E6"/>
<path d="M40.7179 76H76.8787C77.5921 76 78.2985 76.1405 78.9576 76.4135C79.6167 76.6865 80.2156 77.0867 80.72 77.5911C81.2245 78.0956 81.6246 78.6945 81.8976 79.3536C82.1706 80.0127 82.3112 80.7191 82.3112 81.4325V100.439H35.2854V81.4325C35.2854 80.7191 35.4259 80.0127 35.6989 79.3536C35.9719 78.6945 36.3721 78.0956 36.8765 77.5911C37.381 77.0867 37.9799 76.6865 38.639 76.4135C39.2981 76.1405 40.0045 76 40.7179 76Z" fill="#F5F5F5"/>
<path d="M52.9689 96.7725H87.8559C88.1695 96.7725 88.4703 96.8971 88.6921 97.1188C88.9138 97.3406 89.0384 97.6414 89.0384 97.955V99.8581C89.0384 100.172 88.9138 100.472 88.6921 100.694C88.4703 100.916 88.1695 101.041 87.8559 101.041H52.9689C52.8753 101.041 52.7856 101.003 52.7195 100.937C52.6534 100.871 52.6162 100.782 52.6162 100.688V97.1251C52.6162 97.0316 52.6534 96.9419 52.7195 96.8758C52.7856 96.8096 52.8753 96.7725 52.9689 96.7725Z" fill="#EBEBEB"/>
<path d="M28.4423 115.289H97.4685V115.362C97.4685 115.597 97.375 115.823 97.2085 115.99C97.042 116.156 96.8163 116.25 96.5808 116.25H29.3299C29.0945 116.25 28.8687 116.156 28.7023 115.99C28.5358 115.823 28.4423 115.597 28.4423 115.362V115.289Z" fill="#E6E6E6"/>
<path d="M28.7827 83.6821C28.6246 83.6821 28.4787 83.6821 28.3115 83.6973C24.9675 83.9648 22.2832 87.1386 22.0704 91.048C22.0219 91.9093 22.0955 92.7731 22.2892 93.6138C23.0238 96.9855 23.3767 100.429 23.3411 103.88V113.964C23.3411 114.693 23.8488 115.286 24.472 115.286H51.7742V83.6699L28.7827 83.6821Z" fill="#F0F0F0"/>
<path d="M58.4988 91.5649C58.4988 87.0292 55.2308 83.3873 51.3031 83.7004C47.9591 83.9679 45.2748 87.1417 45.0651 91.0512C45.0191 91.9181 45.0969 92.7871 45.2961 93.6321C46.0317 97.0037 46.3855 100.447 46.351 103.898V113.982C46.351 114.711 46.8556 115.304 47.4788 115.304H56.1002C56.7082 115.304 57.2281 114.711 57.2281 113.982V103.293C57.2031 100.057 57.553 96.8278 58.2708 93.6716C58.4278 92.9805 58.5043 92.2736 58.4988 91.5649Z" fill="#FAFAFA"/>
<path d="M65.1928 46.7705H50.7498V63.071H65.1928V46.7705Z" fill="#E6E6E6"/>
<path d="M67.2812 46.7705H51.1023V63.071H67.2812V46.7705Z" fill="#F5F5F5"/>
<path d="M65.6155 61.4056V48.4399H52.7745V61.4056H65.6155Z" fill="white"/>
<path d="M60.3516 57.5556L61.8241 56.0831C62.4652 55.4421 62.4652 54.4027 61.8241 53.7616L60.3516 52.2891C59.7105 51.648 58.6711 51.648 58.03 52.2891L56.5575 53.7616C55.9165 54.4027 55.9165 55.4421 56.5576 56.0831L58.03 57.5556C58.6711 58.1967 59.7105 58.1967 60.3516 57.5556Z" fill="#F5F5F5"/>
<path d="M76.0001 129.978C108.553 129.978 134.943 128.438 134.943 126.537C134.943 124.636 108.553 123.096 76.0001 123.096C43.447 123.096 17.0575 124.636 17.0575 126.537C17.0575 128.438 43.447 129.978 76.0001 129.978Z" fill="#F5F5F5"/>
<path d="M73.6211 122.01L75.8616 122.81L78.3118 117.836L76.0713 117.034L73.6211 122.01Z" fill="#FFB573"/>
<path opacity="0.2" d="M78.3118 117.837L77.0502 120.402L74.8066 119.6L76.0713 117.037L78.3118 117.837Z" fill="black"/>
<path d="M75.9406 122.546L73.4934 121.673C73.4488 121.657 73.4 121.656 73.3551 121.672C73.3103 121.687 73.2722 121.718 73.2471 121.758L72.0919 123.582C72.0644 123.627 72.0473 123.677 72.0418 123.729C72.0362 123.781 72.0424 123.834 72.0599 123.883C72.0774 123.932 72.1058 123.977 72.1429 124.014C72.18 124.051 72.2249 124.079 72.2743 124.096C73.162 124.4 74.457 124.798 75.5666 125.196C76.8617 125.659 77.2386 126.528 78.8529 126.528C80.1844 126.528 80.3182 125.835 79.9291 125.689C78.1446 125.014 77.5974 124.379 76.4178 122.904C76.2945 122.743 76.1294 122.619 75.9406 122.546Z" fill="#263238"/>
<path d="M86.7266 96.2679C87.0123 89.0114 81.9173 69.7773 81.9173 69.7773L73.6272 70.893C76.649 79.478 79.005 86.4913 80.0112 95.3285C81.1573 99.7001 74.2717 118.828 74.2717 118.828L78.0656 120.184C78.0656 120.184 86.4317 103.813 86.7266 96.2679Z" fill="#407BFF"/>
<path opacity="0.3" d="M86.7266 96.2679C87.0123 89.0114 81.9173 69.7773 81.9173 69.7773L73.6272 70.893C76.649 79.478 79.005 86.4913 80.0112 95.3285C81.1573 99.7001 74.2717 118.828 74.2717 118.828L78.0656 120.184C78.0656 120.184 86.4317 103.813 86.7266 96.2679Z" fill="black"/>
<path opacity="0.2" d="M76.6399 74.7417L75.4634 76.1523C75.588 76.5049 75.6914 76.8575 75.7826 77.2102C77.1346 81.1787 78.2333 85.229 79.0718 89.3367C79.2026 84.9835 79.6798 77.1737 76.6399 74.7417Z" fill="black"/>
<path d="M78.5185 120.442L73.998 118.827L74.5179 117.365L79.0931 118.922L78.5185 120.442Z" fill="#263238"/>
<path d="M76.0502 122.935C76.3846 123.138 76.9956 123.455 77.3209 123.324C77.3689 123.306 77.4117 123.276 77.4452 123.237C77.4787 123.199 77.5018 123.152 77.5124 123.102C77.5213 123.072 77.5226 123.041 77.5162 123.011C77.5098 122.98 77.496 122.952 77.4759 122.929C77.2571 122.679 76.1931 122.816 76.0715 122.831C76.0597 122.833 76.0486 122.838 76.0399 122.846C76.0312 122.855 76.0252 122.865 76.0228 122.877C76.0216 122.888 76.0235 122.899 76.0283 122.91C76.0331 122.92 76.0407 122.929 76.0502 122.935ZM77.3787 122.992L77.3969 123.008C77.4031 123.018 77.4064 123.029 77.4064 123.041C77.4064 123.053 77.4031 123.064 77.3969 123.075C77.3897 123.108 77.3746 123.138 77.3529 123.164C77.3312 123.19 77.3035 123.211 77.2723 123.223C77.0899 123.296 76.7129 123.187 76.2478 122.919C76.6764 122.883 77.2479 122.874 77.3787 122.992Z" fill="#407BFF"/>
<path d="M76.0502 122.934C76.063 122.939 76.0769 122.939 76.0897 122.934C76.3937 122.91 77.1142 122.615 77.1628 122.348C77.1628 122.287 77.1628 122.196 77.0169 122.129C76.9656 122.106 76.9102 122.095 76.8542 122.095C76.7983 122.095 76.7429 122.106 76.6916 122.129C76.3207 122.26 76.0471 122.843 76.035 122.868C76.0304 122.876 76.0281 122.885 76.0281 122.895C76.0281 122.905 76.0304 122.914 76.035 122.922L76.0502 122.934ZM77.0199 122.275C77.0595 122.305 77.0534 122.33 77.0503 122.342C77.023 122.5 76.5214 122.752 76.187 122.819C76.3023 122.573 76.4914 122.369 76.7281 122.235C76.766 122.219 76.8069 122.211 76.8482 122.211C76.8895 122.211 76.9303 122.219 76.9682 122.235C76.9876 122.245 77.0051 122.259 77.0199 122.275Z" fill="#407BFF"/>
<path d="M70.9521 124.108H73.3325L73.524 118.596H71.1437L70.9521 124.108Z" fill="#FFB573"/>
<path d="M73.5422 123.832H70.639C70.5922 123.831 70.5466 123.847 70.51 123.876C70.4735 123.906 70.4482 123.947 70.4384 123.993L69.9672 126.121C69.9562 126.172 69.957 126.226 69.9695 126.277C69.9821 126.328 70.0061 126.376 70.0397 126.417C70.0733 126.457 70.1157 126.49 70.1637 126.512C70.2117 126.534 70.264 126.544 70.3168 126.543C71.2501 126.528 71.931 126.473 73.1045 126.473C73.828 126.473 76.0107 126.549 77.0078 126.549C78.005 126.549 78.1387 125.561 77.7283 125.473C75.9043 125.072 74.515 124.519 73.9283 123.99C73.8233 123.891 73.6859 123.835 73.5422 123.832Z" fill="#263238"/>
<path d="M80.7409 51.1968L83.1121 55.8115C83.9085 57.3315 84.7233 58.8728 85.5805 60.259L85.9058 60.7545C85.9561 60.8332 86.0131 60.9075 86.0761 60.9765C86.1794 61.0768 86.2007 61.1133 86.3223 61.1497C86.5376 61.1763 86.7562 61.1481 86.9577 61.0677C87.2773 60.9595 87.5833 60.8146 87.8697 60.636C88.5445 60.218 89.1785 59.7376 89.7636 59.2011C90.0676 58.9245 90.3716 58.6448 90.6756 58.3469C90.9796 58.0489 91.2836 57.7389 91.5481 57.4531L93.0133 58.4745C92.7793 58.9032 92.5452 59.2801 92.2868 59.6662C92.0284 60.0523 91.7639 60.4323 91.4751 60.7971C90.8847 61.5655 90.2107 62.266 89.4657 62.8856C89.0434 63.2264 88.5858 63.521 88.1007 63.7641C87.5041 64.0622 86.8463 64.2173 86.1794 64.2171C85.3948 64.2055 84.6364 63.9327 84.0241 63.4419C83.7539 63.224 83.5082 62.9773 83.2914 62.7062L82.8537 62.1317C81.8013 60.6517 80.834 59.113 79.9565 57.523C79.081 55.9635 78.2633 54.4009 77.4941 52.7806L80.7409 51.1968Z" fill="#FFB573"/>
<path d="M76.4482 51.4032C76.0682 53.6468 79.9229 59.9335 79.9229 59.9335L83.9753 55.5072C83.9753 55.5072 82.9903 52.0781 81.0386 50.4517C79.1569 48.8861 76.886 48.8192 76.4482 51.4032Z" fill="#263238"/>
<path opacity="0.2" d="M81.2606 56.5985C80.3638 54.583 78.4881 53.443 76.7644 53.4855C77.649 56.2215 79.923 59.9334 79.923 59.9334L81.7318 57.9604C81.6109 57.4947 81.4533 57.0393 81.2606 56.5985Z" fill="black"/>
<path d="M91.1284 57.9666L92.1985 56.3706L94.7095 58.1551C94.7095 58.1551 92.6454 59.8879 91.3655 59.1461L91.1284 57.9666Z" fill="#FFB573"/>
<path d="M95.1868 56.0698L97.0595 56.8055L94.7095 58.1553L92.1985 56.3708L95.1868 56.0698Z" fill="#FFB573"/>
<path opacity="0.2" d="M71.1435 118.596H73.5238L73.4235 121.439H71.0432L71.1435 118.596Z" fill="black"/>
<path d="M65.8022 51.0721C66.6674 53.59 67.3431 56.169 67.8238 58.7876C68.1674 60.6116 68.4136 62.3596 68.6021 63.9556C69.0398 67.6766 69.1402 70.5281 69.3134 71.4857L81.9264 69.7864C81.7227 55.9088 79.0384 49.4184 79.0384 49.4184C78.0248 49.2945 77.0044 49.2346 75.9832 49.239C75.7674 49.239 75.5485 49.239 75.3266 49.2542C73.5227 49.3888 71.7282 49.6273 69.9518 49.9686C69.6144 50.0324 69.2739 50.1024 68.9456 50.1784C67.2706 50.5644 65.8022 51.0721 65.8022 51.0721Z" fill="#263238"/>
<path opacity="0.2" d="M68.6113 54.0024L66.8906 54.6652C67.2585 56.0605 67.5625 57.4437 67.8026 58.7874C67.8452 59.0093 67.8847 59.2282 67.9242 59.4471C68.7785 57.8328 68.9396 55.9997 68.6113 54.0024Z" fill="black"/>
<path d="M69.6721 43.8613C70.2436 45.5394 71.0067 48.6554 69.9548 49.9687C70.5592 50.4545 71.2611 50.8045 72.0128 50.9949C72.7645 51.1854 73.5484 51.2117 74.3112 51.0722C75.7886 50.8412 75.7248 49.7924 75.3174 49.2634C73.3292 49.0628 73.1894 47.6279 73.3414 46.2416L69.6721 43.8613Z" fill="#FFB573"/>
<path d="M73.1621 51.2636L73.2655 51.4278L74.1653 51.0782L73.7428 50.8076L73.1621 51.2636Z" fill="#407BFF"/>
<path d="M74.9587 50.9899L74.1653 51.0781L74.2109 50.6677L74.6669 50.5947L74.9587 50.9899Z" fill="#407BFF"/>
<path d="M70.1222 49.4121C71.1092 50.3183 72.4029 50.8169 73.7428 50.8075C73.2382 51.1115 73.1622 52.364 73.1622 52.364C73.1622 52.364 70.4262 51.756 69.5142 49.9563C69.6941 49.751 69.8982 49.5682 70.1222 49.4121Z" fill="white"/>
<path d="M74.8158 49.0654C74.8158 49.0654 75.4937 50.1629 74.2078 50.6675C75.214 50.8469 75.5636 52.1267 75.5636 52.1267C75.5636 52.1267 76.6033 51.0779 75.8098 49.1962C75.4821 49.1287 75.1498 49.085 74.8158 49.0654Z" fill="white"/>
<path opacity="0.2" d="M71.1679 44.8276L73.3415 46.226C73.2992 46.5485 73.287 46.8741 73.305 47.1988C72.5541 47.1988 71.4354 46.5209 71.253 45.764C71.1704 45.4592 71.1416 45.1423 71.1679 44.8276Z" fill="black"/>
<path d="M69.1159 41.2919C69.575 43.6084 69.7239 44.9886 71.0676 46.0283C73.0862 47.5908 75.8252 46.1347 76.0684 43.727C76.2873 41.5595 75.4999 38.1364 73.0892 37.5132C72.5578 37.3735 71.9996 37.3719 71.4674 37.5086C70.9353 37.6454 70.447 37.916 70.0488 38.2946C69.6507 38.6732 69.356 39.1474 69.1927 39.672C69.0294 40.1966 69.003 40.7542 69.1159 41.2919Z" fill="#FFB573"/>
<path d="M70.2771 43.642C70.4664 42.7067 70.3602 41.7357 69.9731 40.8635C70.2345 40.3801 70.8425 39.1976 70.6905 38.4315C69.6934 38.1275 67.5836 38.4315 67.5836 38.4315C67.5836 38.4315 66.2582 41.9001 70.2771 43.642Z" fill="#263238"/>
<path d="M68.8908 39.2674C69.9883 39.4346 74.3993 38.9452 75.3295 37.0026C75.6639 36.3004 74.5027 36.954 73.8582 37.0695C73.2137 37.185 69.2404 36.951 68.1673 37.0878C67.5198 37.1729 65.8447 38.7962 68.8908 39.2674Z" fill="#263238"/>
<path d="M67.7417 37.2703C67.1702 35.6622 71.5813 37.0727 72.8611 36.3583C74.7945 35.2548 75.4816 35.65 75.0225 36.407C74.5635 37.1639 74.2808 37.4163 72.1193 37.4193C69.9579 37.4223 68.0792 38.2158 67.7417 37.2703Z" fill="#263238"/>
<path d="M68.2738 43.6545C68.6561 44.109 69.2024 44.3942 69.7939 44.448C70.5782 44.5149 70.8214 43.7761 70.4779 43.1134C70.1739 42.5054 69.3926 41.7637 68.6538 42.0099C67.9151 42.2561 67.8239 43.0891 68.2738 43.6545Z" fill="#FFB573"/>
<path d="M77.4456 70.3789C77.4456 70.3789 77.2115 90.8959 76.64 97.8362C76.032 105.436 74.512 120.889 74.512 120.889H70.1587C70.1587 120.889 70.0675 106.737 70.4961 99.3045C70.9856 90.8381 69.3044 71.4733 69.3044 71.4733L77.4456 70.3789Z" fill="#407BFF"/>
<path opacity="0.3" d="M77.4456 70.3789C77.4456 70.3789 77.2115 90.8959 76.64 97.8362C76.032 105.436 74.512 120.889 74.512 120.889H70.1587C70.1587 120.889 70.0675 106.737 70.4961 99.3045C70.9856 90.8381 69.3044 71.4733 69.3044 71.4733L77.4456 70.3789Z" fill="black"/>
<path d="M75.0378 120.983H69.9062L69.7786 119.35H75.3235L75.0378 120.983Z" fill="#263238"/>
<path d="M72.7488 41.4686C72.7731 41.6571 72.8947 41.7969 73.0193 41.7726C73.144 41.7483 73.223 41.5872 73.1987 41.3987C73.1744 41.2102 73.0497 41.0673 72.9281 41.0947C72.8065 41.122 72.7214 41.2771 72.7488 41.4686Z" fill="#263238"/>
<path d="M74.8979 41.1768C74.9223 41.3683 75.0439 41.5081 75.1685 41.4808C75.2931 41.4534 75.3752 41.2953 75.3479 41.1038C75.3205 40.9123 75.2019 40.7725 75.0773 40.7998C74.9527 40.8272 74.8736 40.9883 74.8979 41.1768Z" fill="#263238"/>
<path d="M74.2261 41.3652C74.5301 41.9215 74.9097 42.433 75.3539 42.8852C75.2377 42.9976 75.0983 43.0831 74.9454 43.1356C74.7925 43.1881 74.63 43.2064 74.4693 43.1892L74.2261 41.3652Z" fill="#ED893E"/>
<path d="M73.7367 43.7759C73.8201 43.7756 73.9033 43.7695 73.9859 43.7577C73.9934 43.757 74.0007 43.7547 74.0073 43.751C74.0139 43.7474 74.0196 43.7424 74.0242 43.7364C74.0288 43.7304 74.032 43.7235 74.0338 43.7162C74.0356 43.7089 74.0359 43.7013 74.0346 43.6939C74.0335 43.6866 74.0309 43.6797 74.0271 43.6735C74.0233 43.6672 74.0182 43.6618 74.0123 43.6576C74.0063 43.6533 73.9996 43.6503 73.9924 43.6487C73.9853 43.6471 73.9779 43.647 73.9707 43.6483C73.7347 43.685 73.4934 43.6656 73.2663 43.5917C73.0392 43.5177 72.8327 43.3913 72.6635 43.2227C72.6528 43.2126 72.6387 43.207 72.624 43.207C72.6093 43.207 72.5952 43.2126 72.5845 43.2227C72.5792 43.2278 72.5749 43.2339 72.572 43.2407C72.5691 43.2475 72.5676 43.2548 72.5676 43.2622C72.5676 43.2696 72.5691 43.2769 72.572 43.2837C72.5749 43.2905 72.5792 43.2966 72.5845 43.3017C72.734 43.4553 72.9133 43.5766 73.1115 43.6581C73.3096 43.7397 73.5224 43.7798 73.7367 43.7759Z" fill="#263238"/>
<path d="M71.9918 40.8634C72.0116 40.8632 72.0311 40.8577 72.0482 40.8476C72.0653 40.8375 72.0794 40.823 72.089 40.8056C72.1558 40.6808 72.2508 40.5732 72.3663 40.4914C72.4819 40.4096 72.6149 40.3559 72.7548 40.3344C72.7696 40.3336 72.7841 40.3299 72.7974 40.3235C72.8108 40.3172 72.8227 40.3082 72.8326 40.2972C72.8425 40.2862 72.8501 40.2733 72.855 40.2594C72.8599 40.2454 72.862 40.2306 72.8612 40.2158C72.8581 40.186 72.8439 40.1585 72.8213 40.1387C72.7988 40.119 72.7696 40.1085 72.7396 40.1094C72.5627 40.1331 72.3939 40.1983 72.247 40.2998C72.1001 40.4012 71.9793 40.536 71.8945 40.6931C71.8869 40.706 71.882 40.7204 71.8801 40.7352C71.8782 40.7501 71.8792 40.7651 71.8832 40.7796C71.8871 40.794 71.8939 40.8075 71.9032 40.8193C71.9124 40.8311 71.924 40.8409 71.937 40.8482C71.9539 40.8574 71.9726 40.8626 71.9918 40.8634Z" fill="#263238"/>
<path d="M75.728 40.3133C75.7496 40.3134 75.7707 40.3071 75.7888 40.2951C75.8139 40.2784 75.8315 40.2524 75.8377 40.2229C75.844 40.1933 75.8384 40.1625 75.8222 40.137C75.7262 39.986 75.5957 39.8601 75.4413 39.7697C75.2869 39.6793 75.1132 39.627 74.9345 39.6172C74.9047 39.6172 74.8761 39.629 74.855 39.6501C74.8339 39.6712 74.822 39.6998 74.822 39.7297C74.822 39.7595 74.8339 39.7881 74.855 39.8092C74.8761 39.8303 74.9047 39.8421 74.9345 39.8421C75.0762 39.8509 75.2136 39.8935 75.3353 39.9665C75.457 40.0396 75.5594 40.1408 75.6337 40.2617C75.6439 40.2775 75.6578 40.2905 75.6743 40.2995C75.6907 40.3085 75.7092 40.3133 75.728 40.3133Z" fill="#263238"/>
<path d="M74.3264 124.248C74.4888 124.261 74.6508 124.218 74.7855 124.126C74.8285 124.089 74.8617 124.042 74.8824 123.989C74.903 123.936 74.9105 123.879 74.904 123.822C74.9037 123.789 74.8944 123.757 74.8773 123.728C74.8602 123.7 74.8359 123.677 74.8067 123.661C74.5423 123.527 73.7762 123.998 73.688 124.053C73.6789 124.059 73.6717 124.068 73.6674 124.078C73.6631 124.089 73.6618 124.1 73.6637 124.111C73.6653 124.122 73.6703 124.132 73.6779 124.14C73.6855 124.149 73.6954 124.154 73.7063 124.157C73.9089 124.21 74.117 124.241 74.3264 124.248ZM74.6821 123.755C74.7061 123.75 74.731 123.75 74.7551 123.755C74.7667 123.762 74.7763 123.772 74.7827 123.784C74.7892 123.795 74.7922 123.809 74.7915 123.822C74.7962 123.86 74.7914 123.898 74.7776 123.934C74.7638 123.969 74.7415 124.001 74.7125 124.026C74.5848 124.135 74.2717 124.15 73.8674 124.071C74.1157 123.914 74.3925 123.806 74.6821 123.755Z" fill="#407BFF"/>
<path d="M73.7184 124.162H73.7457C73.992 124.029 74.4662 123.506 74.4175 123.25C74.4091 123.209 74.3866 123.172 74.3539 123.145C74.3212 123.119 74.2803 123.104 74.2382 123.105C74.1955 123.099 74.152 123.102 74.1106 123.114C74.0692 123.126 74.0308 123.146 73.998 123.174C73.7214 123.402 73.6636 124.086 73.6636 124.117C73.6622 124.127 73.6637 124.137 73.668 124.146C73.6723 124.156 73.6793 124.163 73.688 124.169C73.6985 124.169 73.709 124.167 73.7184 124.162ZM74.1987 123.199H74.223C74.2959 123.199 74.3051 123.241 74.3051 123.257C74.3355 123.415 74.0345 123.807 73.7883 123.992C73.8051 123.722 73.9025 123.462 74.0679 123.247C74.107 123.215 74.1568 123.197 74.2078 123.199H74.1987Z" fill="#407BFF"/>
<path d="M67.7327 54.7385L67.1247 55.6262C66.921 55.9302 66.7203 56.2342 66.5167 56.5534C66.1275 57.1766 65.7354 57.7967 65.3736 58.4321C64.6373 59.6662 63.9902 60.9513 63.4371 62.2777L63.2547 62.761L63.1757 62.9738C63.1776 62.9648 63.1776 62.9555 63.1757 62.9465C63.1514 62.9282 63.1423 63.0833 63.2152 63.293C63.4538 63.8448 63.7746 64.3573 64.1667 64.813C64.6199 65.367 65.1019 65.8966 65.6107 66.3999C65.8722 66.6583 66.1306 66.9228 66.4011 67.1782L67.2128 67.929L66.24 69.4278C64.7653 68.7215 63.3938 67.8173 62.1634 66.7404C61.4521 66.131 60.856 65.3989 60.4032 64.579C60.0904 64.0045 59.9362 63.3571 59.9563 62.7033C59.9656 62.4982 59.9951 62.2945 60.0445 62.0953L60.0719 61.9858L60.0931 61.9098L60.1357 61.7578L60.309 61.1498C60.8167 59.5964 61.4649 58.0925 62.2455 56.6567C62.6285 55.9514 63.0267 55.2583 63.4615 54.5834C63.6743 54.246 63.8931 53.9116 64.1151 53.5802C64.337 53.2489 64.5619 52.9297 64.8264 52.5801L67.7327 54.7385Z" fill="#FFB573"/>
<path d="M65.8023 51.072C63.6743 51.832 61.2666 57.6627 61.2666 57.6627L66.5228 60.0947C67.4744 58.5586 68.1446 56.8652 68.5018 55.0939C69.1159 51.9475 68.4015 50.16 65.8023 51.072Z" fill="#263238"/>
<path d="M67.5199 68.1538L68.1279 69.7528L65.5105 70.1207C65.5105 70.1207 64.7839 68.1447 65.7902 67.6431H66.6353C66.8133 67.6491 66.9872 67.6988 67.1414 67.7878C67.2957 67.8769 67.4257 68.0026 67.5199 68.1538Z" fill="#FFB573"/>
<path d="M67.83 71.6104L65.8235 71.9113L65.4922 70.1208L68.1096 69.7529L67.83 71.6104Z" fill="#FFB573"/>
<path d="M105.568 45.6395C105.499 45.0191 105.346 44.4107 105.115 43.8307L105.395 43.7183C105.638 44.3212 105.798 44.9542 105.872 45.6L105.568 45.6395Z" fill="#407BFF"/>
<path d="M104.319 42.3871C103.541 41.2968 102.467 40.4527 101.224 39.9551L101.339 39.6724C102.637 40.1934 103.757 41.078 104.565 42.2199L104.319 42.3871Z" fill="#407BFF"/>
<path d="M98.6277 53.7018C96.6953 53.6977 94.8435 52.9273 93.4785 51.5595C92.1135 50.1916 91.3469 48.3382 91.3469 46.4058H91.6509C91.6509 48.2575 92.3855 50.0337 93.6935 51.3445C95.0014 52.6553 96.776 53.3937 98.6277 53.3978V53.7018Z" fill="#407BFF"/>
<path d="M103.024 50.8168C105.452 48.389 105.452 44.4528 103.024 42.025C100.596 39.5971 96.6597 39.5971 94.2319 42.025C91.8041 44.4528 91.8041 48.389 94.2319 50.8168C96.6597 53.2447 100.596 53.2447 103.024 50.8168Z" fill="#407BFF"/>
<path d="M100.066 44.2743L99.2723 44.5479C99.4699 44.177 99.482 43.4322 99.0473 42.6722C98.9959 42.5926 98.9228 42.5294 98.8366 42.49C98.7504 42.4507 98.6547 42.4369 98.5609 42.4503C98.4365 42.4604 98.3208 42.5182 98.238 42.6118C98.1553 42.7053 98.1119 42.8271 98.117 42.9519C98.1322 43.6541 97.9833 45.0799 96.5545 45.3535L96.2505 45.7396L97.4513 49.1869L98.0593 49.0714C98.2934 49.044 99.6188 48.8677 100.473 48.7674C100.972 48.7004 101.428 48.4499 101.751 48.0648C102.075 47.6798 102.244 47.1878 102.224 46.685L102.054 45.1072C102.037 44.957 101.99 44.8118 101.914 44.6809C101.839 44.5499 101.737 44.436 101.615 44.3463C101.494 44.2566 101.355 44.1931 101.207 44.1598C101.06 44.1265 100.907 44.1241 100.759 44.1527L100.066 44.2743Z" fill="white"/>
<path d="M96.3415 50.4186L97.4621 50.0917C97.633 50.0419 97.7311 49.863 97.6813 49.6921L96.5909 45.9536C96.541 45.7828 96.3621 45.6847 96.1913 45.7345L95.0706 46.0614C94.8998 46.1112 94.8017 46.2901 94.8515 46.461L95.9419 50.1994C95.9917 50.3703 96.1706 50.4684 96.3415 50.4186Z" fill="#263238"/>
</svg>
