<svg width="120" height="40" viewBox="0 0 120 40" fill="none" xmlns="http://www.w3.org/2000/svg">
<path d="M110.444 -0.000114141H9.56145C9.19372 -0.000114141 8.8304 -0.000114141 8.46364 0.00188586C8.15663 0.00388586 7.85207 0.00969586 7.54211 0.0145859C6.86874 0.0224877 6.19695 0.0815621 5.53259 0.191296C4.86915 0.303418 4.2265 0.514802 3.62637 0.818296C3.02697 1.12436 2.47929 1.52205 2.00318 1.99696C1.52457 2.47052 1.12561 3.0179 0.82165 3.61805C0.516847 4.21699 0.305496 4.85882 0.194896 5.52137C0.083244 6.18307 0.0231632 6.85241 0.0151925 7.52337C0.00588648 7.82997 0.00490373 8.13759 0 8.44423V31.5585C0.00490373 31.869 0.00588648 32.1698 0.0151925 32.4804C0.0231657 33.1513 0.0832464 33.8206 0.194896 34.4823C0.30519 35.1452 0.516554 35.7874 0.82165 36.3866C1.12548 36.9848 1.52449 37.53 2.00318 38.0009C2.47748 38.4779 3.02552 38.8759 3.62637 39.1796C4.2265 39.4839 4.86908 39.6965 5.53259 39.8104C6.19707 39.9192 6.86879 39.9783 7.54211 39.9872C7.85207 39.994 8.15663 39.9979 8.46364 39.9979C8.83039 39.9999 9.19374 39.9999 9.56145 39.9999H110.444C110.804 39.9999 111.171 39.9999 111.531 39.9979C111.837 39.9979 112.15 39.994 112.455 39.9872C113.128 39.9788 113.798 39.9197 114.461 39.8104C115.127 39.6957 115.772 39.4831 116.375 39.1796C116.975 38.8757 117.522 38.4777 117.996 38.0009C118.474 37.5281 118.874 36.9833 119.181 36.3866C119.484 35.787 119.693 35.1448 119.802 34.4823C119.914 33.8205 119.976 33.1514 119.988 32.4804C119.992 32.1698 119.992 31.869 119.992 31.5585C120 31.1952 120 30.8339 120 30.4647V9.53602C120 9.16981 120 8.80653 119.992 8.44423C119.992 8.13759 119.992 7.82997 119.988 7.52333C119.976 6.85231 119.914 6.18312 119.802 5.52133C119.693 4.85917 119.484 4.21739 119.181 3.61801C118.562 2.41508 117.581 1.43591 116.375 0.818206C115.772 0.515453 115.127 0.304126 114.461 0.191206C113.798 0.0809886 113.128 0.0218936 112.455 0.0144459C112.15 0.00956586 111.837 0.00370586 111.531 0.00175586C111.171 -0.000244141 110.804 -0.000244141 110.444 -0.000244141V-0.000114141Z" fill="white"/>
<path d="M8.46808 39.125C8.16254 39.125 7.86439 39.1211 7.56125 39.1143C6.93327 39.1061 6.30676 39.0516 5.68686 38.9512C5.10883 38.8519 4.54888 38.6673 4.02547 38.4033C3.50686 38.1415 3.03385 37.7983 2.62455 37.3867C2.20933 36.98 1.86363 36.5082 1.60117 35.9902C1.33582 35.4688 1.15218 34.9099 1.05665 34.333C0.953484 33.7131 0.897668 33.0863 0.889681 32.458C0.883323 32.2471 0.875 31.5449 0.875 31.5449V8.44434C0.875 8.44434 0.883865 7.75293 0.889731 7.5498C0.897379 6.92248 0.95287 6.29665 1.05573 5.67773C1.15143 5.09925 1.33522 4.53875 1.60071 4.01563C1.86221 3.49794 2.20598 3.02586 2.6187 2.61768C3.03096 2.20562 3.50549 1.8606 4.02498 1.59521C4.54718 1.33209 5.10608 1.14873 5.68294 1.05127C6.30488 0.949836 6.93356 0.894996 7.56371 0.88721L8.46857 0.875H111.526L112.441 0.8877C113.066 0.895099 113.689 0.94945 114.305 1.05029C114.888 1.14898 115.452 1.33362 115.98 1.59814C117.021 2.13299 117.868 2.97916 118.402 4.01807C118.664 4.53758 118.844 5.09351 118.939 5.66699C119.043 6.29099 119.101 6.92174 119.113 7.5542C119.116 7.8374 119.116 8.1416 119.116 8.44434C119.124 8.81934 119.124 9.17627 119.124 9.53613V30.4648C119.124 30.8281 119.124 31.1826 119.116 31.54C119.116 31.8652 119.116 32.1631 119.112 32.4697C119.101 33.0909 119.043 33.7104 118.941 34.3232C118.847 34.9043 118.665 35.4675 118.399 35.9932C118.135 36.5056 117.791 36.9733 117.381 37.3789C116.971 37.7927 116.497 38.1379 115.978 38.4014C115.451 38.6674 114.887 38.8527 114.305 38.9512C113.685 39.0522 113.058 39.1067 112.43 39.1143C112.137 39.1211 111.829 39.125 111.531 39.125L110.443 39.127L8.46808 39.125Z" fill="#0057FF"/>
<path d="M106.875 36H13.125C11.4062 36 10 34.56 10 32.8V7.2C10 5.44 11.4062 4 13.125 4H106.875C108.594 4 110 5.44 110 7.2V32.8C110 34.56 108.594 36 106.875 36Z" fill="#0057FF"/>
<path fill-rule="evenodd" clip-rule="evenodd" d="M17.6562 19.6799V11.2799C17.6562 10.7999 18.0469 10.3999 18.4375 10.3999C18.8281 10.3999 18.9844 10.4799 19.2188 10.6399L34.2969 19.1199C34.6094 19.2799 34.7656 19.5199 34.7656 19.7599C34.7656 19.9999 34.6094 20.2399 34.2969 20.3999L19.2188 28.8799C19.0625 28.9599 18.8281 29.1199 18.4375 29.1199C18.0469 29.1199 17.6562 28.7199 17.6562 28.2399V19.6799Z" fill="white" fill-opacity="0.75"/>
<path fill-rule="evenodd" clip-rule="evenodd" d="M27.4219 19.7599L18.2812 10.3999C18.3594 10.3999 18.3594 10.3999 18.4375 10.3999C18.8281 10.3999 18.9844 10.4799 19.2187 10.6399L30.3125 16.8799L27.4219 19.7599Z" fill="white" fill-opacity="0.5"/>
<path fill-rule="evenodd" clip-rule="evenodd" d="M30.2344 22.56L27.4219 19.68L30.3125 16.72L34.2969 18.96C34.6094 19.12 34.7656 19.36 34.7656 19.6C34.7656 19.84 34.6094 20.08 34.2969 20.24L30.2344 22.56Z" fill="url(#paint0_linear)"/>
<path fill-rule="evenodd" clip-rule="evenodd" d="M30.2344 22.56L27.4219 19.68L30.3125 16.72L34.2969 18.96C34.6094 19.12 34.7656 19.36 34.7656 19.6C34.7656 19.84 34.6094 20.08 34.2969 20.24L30.2344 22.56Z" fill="white"/>
<path opacity="0.2" fill-rule="evenodd" clip-rule="evenodd" d="M18.3594 28.9599L27.4219 19.6799L30.2344 22.5599L19.2188 28.7199C18.9844 28.8799 18.8281 28.9599 18.3594 28.9599C18.4375 28.9599 18.4375 28.9599 18.3594 28.9599Z" fill="white"/>
<path fill-rule="evenodd" clip-rule="evenodd" d="M65.5475 31.1199C65.1568 30.7999 64.8443 30.2399 64.6881 29.9199L65.9381 29.3599C66.0162 29.5199 66.1725 29.7599 66.3287 29.9999C66.6412 30.3199 67.11 30.6399 67.5787 30.6399C68.0475 30.6399 68.5943 30.3999 68.9068 29.9999C69.1412 29.5999 69.2975 29.1999 69.2975 28.6399V28.1599C68.36 29.3599 66.4068 29.1999 65.3131 27.9199C64.1412 26.6399 64.1412 24.4799 65.3131 23.1999C66.485 21.9999 68.2037 21.8399 69.2193 22.9599V22.3999H70.5475V28.3999C70.5475 29.9199 70.0006 30.7999 69.2975 31.3599C68.8287 31.7599 68.1256 31.9199 67.5006 31.9199C66.7975 31.8399 66.0943 31.5999 65.5475 31.1199ZM98.2818 31.4399L99.61 28.2399L97.2662 22.7199H98.5943L100.235 26.6399L101.876 22.7199H103.204L99.61 31.4399H98.2818ZM91.9537 28.3999C91.5631 27.9999 91.4068 27.4399 91.4068 26.8799C91.4068 26.3999 91.5631 25.9199 91.8756 25.5999C92.4225 25.0399 93.2037 24.7999 94.0631 24.7999C94.61 24.7999 95.0787 24.8799 95.4693 25.1199C95.4693 24.1599 94.6881 23.7599 94.0631 23.7599C93.5162 23.7599 92.9693 24.0799 92.735 24.6399L91.5631 24.1599C91.7975 23.5999 92.4225 22.5599 93.985 22.5599C94.7662 22.5599 95.5475 22.7999 96.0162 23.3599C96.485 23.9199 96.6412 24.5599 96.6412 25.4399V28.7999H95.3131V28.2399C95.1568 28.4799 94.8443 28.6399 94.61 28.7999C94.2975 28.9599 93.9068 29.0399 93.5162 29.0399C93.0475 28.9599 92.3443 28.7999 91.9537 28.3999ZM50.3131 25.5199C50.3131 23.9199 51.485 22.1599 53.5943 22.1599C55.6256 22.1599 56.8756 23.9199 56.8756 25.5199C56.8756 27.1199 55.7037 28.8799 53.5943 28.8799C51.485 28.8799 50.3131 27.1199 50.3131 25.5199ZM57.3443 25.5199C57.3443 23.9199 58.5162 22.1599 60.6256 22.1599C62.6568 22.1599 63.9068 23.9199 63.9068 25.5199C63.9068 27.1199 62.735 28.8799 60.6256 28.8799C58.5943 28.8799 57.3443 27.1199 57.3443 25.5199ZM41.485 27.2799C39.5318 25.2799 39.61 21.9999 41.5631 19.9199C42.5787 18.8799 43.8287 18.3999 45.1568 18.3999C46.4068 18.3999 47.6568 18.8799 48.5943 19.8399L47.6568 20.8799C46.2506 19.4399 43.985 19.5199 42.6568 20.9599C41.2506 22.4799 41.2506 24.7999 42.6568 26.3199C44.0631 27.8399 46.4068 27.9199 47.8131 26.3999C48.2818 25.9199 48.4381 25.2799 48.5162 24.6399H45.235V23.1999H49.8443C49.9225 23.5199 49.9225 23.9199 49.9225 24.3199C49.9225 25.5199 49.4537 26.7199 48.6725 27.5199C47.8131 28.3999 46.5631 28.8799 45.3131 28.8799C43.9068 28.7999 42.5006 28.3199 41.485 27.2799ZM74.5318 27.8399C73.36 26.5599 73.36 24.3999 74.5318 23.0399C75.7037 21.7599 77.6568 21.7599 78.7506 23.0399C79.1412 23.4399 79.3756 23.9999 79.61 24.5599L75.3131 26.3999C75.5475 26.9599 76.0943 27.4399 76.8756 27.4399C77.5787 27.4399 78.0475 27.1999 78.5162 26.4799L79.6881 27.2799C79.5318 27.4399 79.3756 27.5999 79.2975 27.7599C77.9693 29.1199 75.7037 29.1199 74.5318 27.8399ZM82.6568 28.7999V19.9199H85.4693C87.11 19.9199 88.4381 21.1199 88.4381 22.5599C88.4381 23.9999 87.2662 25.1999 85.7818 25.1999H84.0631V28.7199H82.6568V28.7999ZM89.2193 28.7999V19.9199H90.5475V28.7999H89.2193ZM71.5631 28.6399V18.7199H72.9693V28.6399H71.5631ZM95.3912 26.1599C95.0787 25.9199 94.61 25.8399 94.1412 25.8399C93.2037 25.8399 92.6568 26.3199 92.6568 26.8799C92.6568 27.4399 93.2037 27.7599 93.7506 27.7599C94.5318 27.7599 95.3912 27.1199 95.3912 26.1599ZM55.3912 25.5199C55.3912 24.5599 54.7662 23.5199 53.5943 23.5199C52.4225 23.5199 51.7975 24.5599 51.7975 25.5199C51.7975 26.4799 52.4225 27.5199 53.5943 27.5199C54.6881 27.5199 55.3912 26.4799 55.3912 25.5199ZM62.4225 25.5199C62.4225 24.5599 61.7975 23.5199 60.6256 23.5199C59.4537 23.5199 58.8287 24.5599 58.8287 25.5199C58.8287 26.4799 59.4537 27.5199 60.6256 27.5199C61.7975 27.5199 62.4225 26.4799 62.4225 25.5199ZM69.3756 26.0799C69.3756 25.9999 69.3756 25.9199 69.4537 25.8399C69.4537 25.7599 69.4537 25.5999 69.4537 25.5199C69.4537 25.4399 69.4537 25.2799 69.4537 25.1999V25.1199C69.4537 25.0399 69.3756 24.8799 69.3756 24.7999C69.1412 23.9999 68.4381 23.4399 67.735 23.4399C66.7975 23.4399 66.0162 24.3999 66.0162 25.4399C66.0162 26.5599 66.7975 27.4399 67.8131 27.4399C68.4381 27.5199 69.0631 26.9599 69.3756 26.0799ZM75.0787 25.3599L77.9693 24.0799C77.6568 23.5199 77.1881 23.3599 76.7975 23.3599C75.6256 23.4399 74.9225 24.7199 75.0787 25.3599ZM87.0318 22.6399C87.0318 21.8399 86.4068 21.2799 85.5475 21.2799H83.985V24.0799H85.6256C86.4068 24.0799 87.0318 23.4399 87.0318 22.6399Z" fill="white"/>
<path fill-rule="evenodd" clip-rule="evenodd" d="M99.2969 29.84H99.2188V29.76H99.2969H99.2188V29.84H99.2969Z" fill="white"/>
<path fill-rule="evenodd" clip-rule="evenodd" d="M99.4531 29.84C99.4531 29.76 99.4531 29.76 99.4531 29.84C99.375 29.76 99.375 29.76 99.4531 29.84C99.375 29.84 99.375 29.84 99.4531 29.84ZM99.4531 29.76C99.4531 29.84 99.4531 29.84 99.4531 29.76C99.4531 29.84 99.375 29.84 99.4531 29.76C99.375 29.76 99.4531 29.76 99.4531 29.76Z" fill="white"/>
<path fill-rule="evenodd" clip-rule="evenodd" d="M99.5313 29.76H99.4531H99.5313V29.84V29.76Z" fill="white"/>
<path d="M40.3906 12.08C40.3906 10.64 41.4063 9.76001 42.6563 9.76001C43.5156 9.76001 44.0625 10.16 44.4531 10.72L43.8281 11.12C43.5938 10.8 43.2031 10.56 42.6563 10.56C41.7969 10.56 41.1719 11.2 41.1719 12.16C41.1719 13.12 41.7969 13.76 42.6563 13.76C43.125 13.76 43.5156 13.52 43.6719 13.36V12.64H42.4219V11.92H44.5313V13.6C44.1406 14.08 43.5156 14.4 42.7344 14.4C41.4062 14.4 40.3906 13.44 40.3906 12.08Z" fill="white"/>
<path d="M45.4688 14.3201V9.84009H48.4375V10.5601H46.1719V11.6801H48.3594V12.4001H46.1719V13.6801H48.4375V14.4001L45.4688 14.3201Z" fill="white"/>
<path d="M50.625 14.3201V10.5601H49.2969V9.84009H52.7344V10.5601H51.4062V14.3201H50.625Z" fill="white"/>
<path d="M55.3906 14.3201V9.84009H56.1719V14.3201H55.3906Z" fill="white"/>
<path d="M58.2812 14.3201V10.5601H56.9531V9.84009H60.3906V10.5601H59.0625V14.3201H58.2812Z" fill="white"/>
<path d="M62.8906 12.08C62.8906 10.72 63.8281 9.76001 65.1563 9.76001C66.4844 9.76001 67.4219 10.72 67.4219 12.08C67.4219 13.44 66.4844 14.4 65.1563 14.4C63.8281 14.4 62.8906 13.36 62.8906 12.08ZM66.5625 12.08C66.5625 11.12 66.0156 10.48 65.0781 10.48C64.2188 10.48 63.5938 11.2 63.5938 12.08C63.5938 13.04 64.1406 13.68 65.0781 13.68C66.0156 13.68 66.5625 12.96 66.5625 12.08Z" fill="white"/>
<path d="M71.3281 14.3201L69.0625 11.1201V14.3201H68.2812V9.84009H69.0625L71.3281 12.9601V9.84009H72.1094V14.3201H71.3281Z" fill="white"/>
<defs>
<linearGradient id="paint0_linear" x1="31.0894" y1="22.896" x2="31.0894" y2="16.5373" gradientUnits="userSpaceOnUse">
<stop stop-color="#FCC072"/>
<stop offset="1" stop-color="#F58A5B"/>
</linearGradient>
</defs>
</svg>
