<svg width="720" height="181" viewBox="0 0 720 181" fill="none" xmlns="http://www.w3.org/2000/svg">
<g opacity="0.2" clip-path="url(#clip0)">
<path d="M659 92H668.61V96.81H663.81V101.61H659V92Z" fill="#0057FF"/>
<path d="M684.36 92H693.97V96.81H689.16V101.61H684.36V92Z" fill="#0057FF"/>
<path d="M709.71 92H719.32V96.81H714.52V101.61H709.71V92Z" fill="#0057FF"/>
<path d="M659 118.16H668.61V122.96H663.81V127.77H659V118.16Z" fill="#0057FF"/>
<path d="M684.36 118.16H693.97V122.96H689.16V127.77H684.36V118.16Z" fill="#0057FF"/>
<path d="M709.71 118.16H719.32V122.96H714.52V127.77H709.71V118.16Z" fill="#0057FF"/>
<path d="M659 144.31H668.61V149.12H663.81V153.92H659V144.31Z" fill="#0057FF"/>
<path d="M684.36 144.31H693.97V149.12H689.16V153.92H684.36V144.31Z" fill="#0057FF"/>
<path d="M709.71 144.31H719.32V149.12H714.52V153.92H709.71V144.31Z" fill="#0057FF"/>
<path d="M659 170.47H668.61V175.27H663.81V180.08H659V170.47Z" fill="#0057FF"/>
<path d="M684.36 170.47H693.97V175.27H689.16V180.08H684.36V170.47Z" fill="#0057FF"/>
<path d="M709.71 170.47H719.32V175.27H714.52V180.08H709.71V170.47Z" fill="#0057FF"/>
</g>
<g opacity="0.2" clip-path="url(#clip1)">
<path d="M0 0H9.61V4.81H4.81V9.61H0V0Z" fill="#0057FF"/>
<path d="M25.3601 0H34.9701V4.81H30.1601V9.61H25.3601V0Z" fill="#0057FF"/>
<path d="M50.71 0H60.32V4.81H55.52V9.61H50.71V0Z" fill="#0057FF"/>
<path d="M0 26.1599H9.61V30.9599H4.81V35.7699H0V26.1599Z" fill="#0057FF"/>
<path d="M25.3601 26.1599H34.9701V30.9599H30.1601V35.7699H25.3601V26.1599Z" fill="#0057FF"/>
<path d="M50.71 26.1599H60.32V30.9599H55.52V35.7699H50.71V26.1599Z" fill="#0057FF"/>
<path d="M0 52.3101H9.61V57.1201H4.81V61.9201H0V52.3101Z" fill="#0057FF"/>
<path d="M25.3601 52.3101H34.9701V57.1201H30.1601V61.9201H25.3601V52.3101Z" fill="#0057FF"/>
<path d="M50.71 52.3101H60.32V57.1201H55.52V61.9201H50.71V52.3101Z" fill="#0057FF"/>
<path d="M0 78.47H9.61V83.27H4.81V88.08H0V78.47Z" fill="#0057FF"/>
<path d="M25.3601 78.47H34.9701V83.27H30.1601V88.08H25.3601V78.47Z" fill="#0057FF"/>
<path d="M50.71 78.47H60.32V83.27H55.52V88.08H50.71V78.47Z" fill="#0057FF"/>
</g>
<defs>
<clipPath id="clip0">
<rect width="60.32" height="88.08" fill="white" transform="translate(659 92)"/>
</clipPath>
<clipPath id="clip1">
<rect width="60.32" height="88.08" fill="white"/>
</clipPath>
</defs>
</svg>
