<svg width="663" height="688" viewBox="0 0 663 688" fill="none" xmlns="http://www.w3.org/2000/svg">
<path d="M302.857 395.614C360.732 381.95 423.601 429.794 483.526 420.382C541.318 411.355 588.79 365.259 565.618 302.803C543.162 242.259 477.664 202.685 416.749 203.029C379.019 203.235 359.287 202.657 325.85 176.995C299.968 157.208 279.727 132.206 248.12 121.501C186.709 100.696 157.689 137.848 153.768 186.682C149.53 239.548 107.906 267.742 98.3011 318.516C90.1689 361.461 106.708 418.882 163.235 433.357C216.032 446.87 258.082 406.181 302.857 395.614Z" fill="#407BFF"/>
<path d="M302.857 395.614C360.732 381.95 423.601 429.794 483.526 420.382C541.318 411.355 588.79 365.259 565.618 302.803C543.162 242.259 477.664 202.685 416.749 203.029C379.019 203.235 359.287 202.657 325.85 176.995C299.968 157.208 279.727 132.206 248.12 121.501C186.709 100.696 157.689 137.848 153.768 186.682C149.53 239.548 107.906 267.742 98.3011 318.516C90.1689 361.461 106.708 418.882 163.235 433.357C216.032 446.87 258.082 406.181 302.857 395.614Z" fill="white"/>
<path d="M344 588.323C491.345 588.323 610.792 581.349 610.792 572.746C610.792 564.144 491.345 557.17 344 557.17C196.654 557.17 77.207 564.144 77.207 572.746C77.207 581.349 196.654 588.323 344 588.323Z" fill="#E1EAFA"/>
<path d="M227.866 196.919C228.127 193.878 241.227 182.664 254.904 190.493C268.581 198.323 258.688 221.99 273.563 224.288C263.931 233.92 232.558 245.685 222.912 234.636C213.266 223.586 212.028 192.64 227.866 196.919Z" fill="#263238"/>
<path d="M282.96 273.232C283.318 278.324 283.854 283.717 284.57 288.864C285.21 293.935 286.241 298.949 287.652 303.862C287.817 304.454 288.024 305.018 288.216 305.568L288.739 307.027C288.847 307.344 289.005 307.641 289.207 307.908C289.524 308.375 291.354 308.802 293.5 308.527C298.404 307.692 303.163 306.158 307.632 303.972L311.127 309.105C310.015 310.082 308.853 311.001 307.646 311.857C306.462 312.71 305.251 313.535 303.972 314.278C301.317 315.904 298.457 317.167 295.468 318.035C293.738 318.519 291.953 318.778 290.157 318.805C287.928 318.822 285.73 318.288 283.758 317.251C281.627 316.082 279.879 314.324 278.722 312.187L278.35 311.458L278.117 310.935L277.635 309.861C277.305 309.16 276.988 308.485 276.741 307.742C274.684 302.259 273.177 296.585 272.241 290.804C271.281 285.188 270.679 279.516 270.438 273.824L282.96 273.232Z" fill="#FFC3BD"/>
<path d="M276.231 259.555C287.391 268.086 286.937 284.185 286.937 284.185L266.943 288.96C266.943 288.96 260.82 272.778 263.311 266.848C265.939 260.669 269.957 254.739 276.231 259.555Z" fill="#407BFF"/>
<path d="M306.544 305.169L313.879 297.821L317.828 309.311C317.828 309.311 311.636 312.655 305.705 309.49L306.544 305.169Z" fill="#FFC3BD"/>
<path d="M324.034 296.693L325.382 305.761L317.828 309.297L313.879 297.821L324.034 296.693Z" fill="#FFC3BD"/>
<path d="M211.573 563.197L222.801 564.284L234.484 537.576L223.255 536.475L211.573 563.197Z" fill="#FFC3BD"/>
<path d="M139.292 523.706L147.713 531.618L165.918 511.624L157.483 503.699L139.292 523.706Z" fill="#FFC3BD"/>
<path d="M151.607 527.82L145.278 516.413C145.172 516.215 144.998 516.062 144.787 515.984C144.577 515.905 144.345 515.906 144.136 515.986L134.38 519.701C134.138 519.804 133.921 519.955 133.742 520.147C133.563 520.339 133.427 520.566 133.341 520.813C133.255 521.061 133.223 521.324 133.245 521.585C133.268 521.847 133.345 522.1 133.472 522.33C135.756 526.265 137.049 528.054 139.843 533.076C141.549 536.158 144.892 543.245 147.259 547.51C149.626 551.776 153.96 549.657 153.355 547.676C150.603 538.759 151.167 533.805 151.979 529.87C152.104 529.164 151.972 528.437 151.607 527.82Z" fill="#263238"/>
<path d="M224.287 560.816H210.528C210.279 560.817 210.038 560.9 209.842 561.052C209.645 561.203 209.504 561.416 209.44 561.656L206.4 572.567C206.326 572.824 206.314 573.095 206.365 573.357C206.415 573.62 206.526 573.867 206.69 574.078C206.853 574.29 207.064 574.46 207.305 574.575C207.546 574.691 207.811 574.747 208.078 574.741C212.936 574.741 215.233 574.741 221.302 574.741H239.823C244.859 574.741 245.918 569.65 243.827 569.237C234.484 567.173 229.103 564.325 226.214 561.601C225.693 561.107 225.005 560.827 224.287 560.816Z" fill="#263238"/>
<path opacity="0.2" d="M234.47 537.589L228.457 551.349H216.747L223.242 536.489L234.47 537.589Z" fill="black"/>
<path opacity="0.2" d="M157.483 503.712L165.904 511.624L156.52 521.931L148.099 514.019L157.483 503.712Z" fill="black"/>
<path d="M272.86 257.89C272.86 257.89 277.951 260.064 260.985 327.075L213.981 323.016C216.431 303.945 217.463 292.152 211.725 252.097C218.422 251.305 225.169 251.002 231.911 251.189C239.059 251.3 246.191 251.916 253.252 253.033C259.866 254.322 266.41 255.943 272.86 257.89Z" fill="#407BFF"/>
<path d="M240.318 274.952C240.278 274.966 240.234 274.966 240.194 274.952C230.026 266.586 223.682 253.679 225.719 250.638C225.744 250.595 225.786 250.563 225.835 250.55C225.884 250.538 225.936 250.544 225.98 250.57C226.025 250.598 226.056 250.642 226.069 250.694C226.082 250.745 226.075 250.799 226.049 250.845C224.205 253.693 230.507 266.366 240.222 274.457C242.671 267.068 246.84 264.109 246.882 264.082C246.925 264.063 246.974 264.059 247.02 264.072C247.066 264.084 247.106 264.112 247.134 264.151C247.161 264.19 247.175 264.237 247.171 264.285C247.168 264.333 247.148 264.377 247.115 264.412C247.115 264.412 242.905 267.398 240.497 274.856C240.488 274.885 240.471 274.911 240.45 274.933C240.428 274.954 240.402 274.97 240.373 274.98L240.318 274.952Z" fill="white"/>
<path d="M256.583 275.406C256.549 275.399 256.518 275.382 256.493 275.358C256.469 275.334 256.452 275.303 256.445 275.269C254.312 267.591 250.06 264.536 250.019 264.508C249.988 264.469 249.971 264.421 249.971 264.371C249.971 264.321 249.988 264.272 250.019 264.233C250.057 264.199 250.106 264.181 250.157 264.181C250.207 264.181 250.256 264.199 250.294 264.233C250.294 264.233 254.574 267.302 256.775 274.856C261.88 268.595 258.977 256.693 256.995 253.638C256.969 253.592 256.962 253.538 256.975 253.487C256.988 253.436 257.02 253.391 257.064 253.363C257.1 253.33 257.146 253.312 257.195 253.312C257.243 253.312 257.29 253.33 257.326 253.363C259.376 256.541 262.389 269.008 256.83 275.379C256.797 275.408 256.755 275.426 256.711 275.431C256.666 275.436 256.622 275.427 256.583 275.406Z" fill="white"/>
<path d="M236.108 227.343C236.851 234.319 237.112 247.02 231.911 251.189C236.966 255.877 242.609 259.887 248.698 263.119C256.872 257.477 253.253 253.033 253.253 253.033C245.754 250.542 246.373 244.887 248.244 239.658L236.108 227.343Z" fill="#FFC3BD"/>
<path opacity="0.2" d="M241.047 232.365L248.23 239.658C247.795 240.87 247.468 242.118 247.253 243.387C244.363 242.713 240.18 239.713 240.125 236.617C240.186 235.157 240.498 233.719 241.047 232.365Z" fill="black"/>
<path d="M229.957 216.431C232.874 227.59 233.864 232.365 240.703 237.071C250.996 244.102 264.095 238.089 264.549 226.283C264.976 215.66 260.146 199.204 248.202 196.878C245.575 196.355 242.858 196.512 240.309 197.334C237.759 198.156 235.462 199.615 233.634 201.573C231.807 203.532 230.51 205.924 229.866 208.525C229.222 211.125 229.254 213.846 229.957 216.431Z" fill="#FFC3BD"/>
<path d="M233.135 224.783C236.919 230.287 246.785 197.497 234.002 198.529C221.219 199.561 222.76 213.445 233.135 224.783Z" fill="#263238"/>
<path d="M234.828 200.401C242.217 204.157 263.724 208.657 260.779 202.671C259.172 199.668 256.779 197.159 253.856 195.411C250.933 193.664 247.59 192.744 244.185 192.75C237.167 192.64 228.306 197.098 234.828 200.401Z" fill="#263238"/>
<path d="M229.035 225.884C229.548 226.865 230.25 227.734 231.1 228.443C231.95 229.151 232.932 229.685 233.989 230.012C236.823 230.865 238.296 228.347 237.553 225.65C236.892 223.215 234.622 219.844 231.76 220.146C231.134 220.229 230.538 220.467 230.028 220.839C229.518 221.211 229.108 221.704 228.837 222.275C228.567 222.845 228.443 223.474 228.477 224.104C228.512 224.735 228.704 225.347 229.035 225.884Z" fill="#FFC3BD"/>
<path d="M260.986 327.075C260.986 327.075 276.893 397.43 266.284 447.035C259.17 480.251 233.521 547.359 233.521 547.359L213.473 546.85C213.473 546.85 232.888 476.426 236.865 448.727C243.745 401.352 226.545 324.103 226.545 324.103L260.986 327.075Z" fill="#263238"/>
<path opacity="0.2" d="M242.643 341.248L232.626 357.072C235.647 375.822 237.563 394.733 238.364 413.708C252.454 388.486 245.781 354.65 242.643 341.248Z" fill="black"/>
<path d="M236.341 548.405L211.573 547.772L213.018 540.163L238.281 541.36L236.341 548.405Z" fill="#407BFF"/>
<path d="M250.707 326.332C250.707 326.332 241.378 400.939 221.15 441.668C204.817 474.582 161.226 521.408 161.226 521.408L150.08 509.932C150.08 509.932 179.526 459.02 191.663 437.169C221.439 383.588 197.167 342.693 213.982 322.961L250.707 326.332Z" fill="#263238"/>
<path d="M162.354 522.949L147.975 508.927L152.749 502.433L167.995 517.665L162.354 522.949Z" fill="#407BFF"/>
<path d="M213.514 320.195L211.037 324.213C210.844 324.53 211.202 324.887 211.739 324.942L261.041 329.208C261.468 329.208 261.839 329.057 261.88 328.795L262.665 324.667C262.665 324.378 262.376 324.103 261.922 324.062L214.312 319.934C214.168 319.906 214.019 319.916 213.879 319.961C213.74 320.007 213.614 320.088 213.514 320.195Z" fill="#407BFF"/>
<path opacity="0.3" d="M213.514 320.195L211.037 324.213C210.844 324.53 211.202 324.887 211.739 324.942L261.041 329.208C261.468 329.208 261.839 329.057 261.88 328.795L262.665 324.667C262.665 324.378 262.376 324.103 261.922 324.062L214.312 319.934C214.168 319.906 214.019 319.916 213.879 319.961C213.74 320.007 213.614 320.088 213.514 320.195Z" fill="black"/>
<path d="M219.444 326.112L218.178 326.002C217.917 326.002 217.738 325.823 217.765 325.672L218.839 320.25C218.839 320.099 219.1 319.989 219.362 320.003L220.628 320.113C220.889 320.113 221.068 320.292 221.04 320.443L219.967 325.864C219.94 325.974 219.706 326.112 219.444 326.112Z" fill="#263238"/>
<path d="M257.422 329.346L256.142 329.236C255.894 329.236 255.702 329.07 255.743 328.905L256.802 323.498C256.802 323.332 257.078 323.222 257.325 323.25L258.605 323.36C258.853 323.36 259.032 323.525 259.004 323.69L257.931 329.098C257.903 329.263 257.669 329.373 257.422 329.346Z" fill="#263238"/>
<path d="M238.432 327.708L237.153 327.598C236.905 327.598 236.726 327.433 236.754 327.268L237.827 321.86C237.827 321.695 238.088 321.585 238.336 321.612L239.616 321.723C239.877 321.723 240.056 321.888 240.029 322.039L238.955 327.46C238.907 327.553 238.83 327.627 238.735 327.672C238.641 327.716 238.535 327.729 238.432 327.708Z" fill="#263238"/>
<path d="M248.849 216.032C249.028 216.954 249.661 217.601 250.225 217.477C250.789 217.353 251.174 216.527 250.995 215.605C250.817 214.684 250.184 214.037 249.619 214.147C249.055 214.257 248.656 215.124 248.849 216.032Z" fill="#263238"/>
<path d="M259.238 213.996C259.417 214.917 260.049 215.578 260.614 215.454C261.178 215.33 261.549 214.491 261.37 213.569C261.192 212.647 260.559 212 259.994 212.124C259.43 212.248 259.059 213.087 259.238 213.996Z" fill="#263238"/>
<path d="M259.747 212.22L261.825 211.161C261.825 211.161 261.027 213.101 259.747 212.22Z" fill="#263238"/>
<path d="M255.66 216.293C256.884 218.232 258.365 219.996 260.063 221.536C259.66 221.96 259.169 222.292 258.625 222.508C258.081 222.724 257.497 222.82 256.912 222.788L255.66 216.293Z" fill="#ED847E"/>
<path d="M252.689 227.164C250.751 227.189 248.877 226.476 247.446 225.169C247.402 225.125 247.378 225.065 247.378 225.004C247.378 224.942 247.402 224.882 247.446 224.838C247.467 224.817 247.491 224.8 247.518 224.789C247.546 224.777 247.575 224.771 247.604 224.771C247.634 224.771 247.663 224.777 247.69 224.789C247.718 224.8 247.742 224.817 247.763 224.838C248.644 225.611 249.695 226.166 250.83 226.46C251.965 226.754 253.153 226.778 254.299 226.531C254.359 226.519 254.421 226.53 254.473 226.564C254.524 226.597 254.561 226.65 254.574 226.71C254.58 226.739 254.58 226.769 254.574 226.798C254.568 226.827 254.557 226.854 254.54 226.878C254.523 226.903 254.502 226.924 254.477 226.94C254.452 226.956 254.424 226.966 254.395 226.971C253.834 227.092 253.262 227.157 252.689 227.164Z" fill="#263238"/>
<path d="M242.602 212.482C242.525 212.502 242.445 212.502 242.368 212.482C242.316 212.451 242.271 212.41 242.235 212.361C242.199 212.312 242.173 212.256 242.159 212.197C242.145 212.138 242.143 212.077 242.153 212.017C242.163 211.957 242.184 211.9 242.217 211.849C242.639 211.104 243.235 210.473 243.953 210.008C244.672 209.543 245.493 209.259 246.345 209.18C246.404 209.178 246.464 209.188 246.52 209.209C246.576 209.23 246.627 209.262 246.67 209.303C246.713 209.344 246.748 209.393 246.773 209.447C246.797 209.502 246.811 209.56 246.813 209.62C246.815 209.679 246.805 209.739 246.783 209.795C246.762 209.85 246.73 209.902 246.689 209.945C246.649 209.988 246.6 210.023 246.545 210.048C246.491 210.072 246.432 210.086 246.372 210.088C245.668 210.164 244.992 210.407 244.401 210.797C243.81 211.187 243.32 211.713 242.974 212.331C242.927 212.383 242.87 212.423 242.806 212.45C242.741 212.476 242.672 212.487 242.602 212.482Z" fill="#263238"/>
<path d="M262.128 208.794C262.051 208.813 261.97 208.813 261.894 208.794C261.289 208.431 260.607 208.217 259.903 208.172C259.199 208.127 258.494 208.25 257.848 208.533C257.74 208.587 257.615 208.597 257.5 208.561C257.384 208.525 257.287 208.446 257.229 208.34C257.2 208.287 257.183 208.229 257.177 208.169C257.171 208.108 257.177 208.048 257.195 207.99C257.213 207.932 257.243 207.879 257.281 207.833C257.32 207.787 257.368 207.749 257.422 207.721C258.204 207.367 259.061 207.207 259.918 207.255C260.776 207.303 261.609 207.557 262.348 207.996C262.4 208.025 262.447 208.064 262.484 208.111C262.522 208.157 262.549 208.211 262.566 208.269C262.583 208.326 262.588 208.386 262.581 208.446C262.574 208.505 262.556 208.563 262.527 208.615C262.48 208.675 262.419 208.723 262.349 208.754C262.28 208.785 262.204 208.799 262.128 208.794Z" fill="#263238"/>
<path d="M218.426 269.696C216.582 272.751 214.628 275.888 212.798 279.025C210.968 282.163 209.083 285.272 207.294 288.423C205.505 291.574 203.84 294.725 202.423 297.863C202.038 298.647 201.735 299.418 201.377 300.188C201.019 300.959 200.799 301.688 200.51 302.445C200.379 302.787 200.282 303.142 200.221 303.504C200.221 303.683 200.221 303.628 200.139 303.601C200.056 303.573 200.373 304.124 201.515 304.605C202.843 305.133 204.228 305.503 205.643 305.706C209.032 306.195 212.457 306.393 215.88 306.298C223.113 306.102 230.33 305.504 237.497 304.509L238.873 310.549C231.562 312.841 224.06 314.471 216.458 315.42C212.467 315.937 208.435 316.071 204.418 315.82C202.138 315.672 199.886 315.233 197.717 314.512C196.392 314.062 195.134 313.437 193.974 312.655C192.471 311.665 191.234 310.323 190.371 308.744C189.507 307.166 189.043 305.4 189.021 303.601C189.003 302.107 189.207 300.618 189.626 299.184C189.929 298.179 190.218 297.133 190.548 296.17C190.878 295.207 191.208 294.244 191.58 293.308C193.038 289.593 194.648 286.098 196.396 282.685C198.143 279.273 199.946 275.929 201.817 272.641C203.689 269.352 205.643 266.146 207.803 262.926L218.426 269.696Z" fill="#FFC3BD"/>
<path d="M234.69 305.912L243.868 301.055L244.212 311.279C244.212 311.279 237.8 313.59 234.002 310.618L234.69 305.912Z" fill="#FFC3BD"/>
<path d="M249.455 301.784L248.079 310.838L244.212 311.279L243.854 301.055L249.455 301.784Z" fill="#FFC3BD"/>
<path d="M211.724 252.097C205.959 253.184 197.882 269.696 197.882 269.696L215.77 285.176C215.77 285.176 223.957 270.233 223.352 262.72C222.829 256.294 219.058 250.804 211.724 252.097Z" fill="#407BFF"/>
<path d="M153.836 533.957C153.683 533.954 153.53 533.931 153.382 533.888C152.006 533.42 151.098 530.861 150.63 529.389C150.607 529.351 150.595 529.308 150.595 529.265C150.595 529.221 150.607 529.178 150.63 529.141C150.67 529.118 150.715 529.106 150.761 529.106C150.807 529.106 150.852 529.118 150.892 529.141C151.304 529.361 155.02 531.329 155.102 532.773C155.12 532.931 155.093 533.091 155.025 533.234C154.957 533.378 154.85 533.499 154.717 533.585C154.467 533.795 154.16 533.924 153.836 533.957ZM151.277 529.829C151.924 531.879 152.749 533.228 153.534 533.489C153.711 533.542 153.9 533.549 154.08 533.508C154.261 533.467 154.428 533.38 154.566 533.255C154.636 533.213 154.693 533.152 154.729 533.079C154.766 533.006 154.781 532.924 154.772 532.842C154.703 531.907 152.543 530.503 151.277 529.76V529.829Z" fill="#407BFF"/>
<path d="M154.401 530.365C153.147 530.361 151.91 530.074 150.782 529.526C150.748 529.503 150.72 529.473 150.701 529.437C150.682 529.401 150.672 529.36 150.672 529.32C150.674 529.28 150.687 529.241 150.709 529.207C150.73 529.173 150.76 529.146 150.796 529.127C150.92 529.058 153.837 527.448 155.405 528.012C155.599 528.076 155.776 528.182 155.923 528.323C156.071 528.463 156.185 528.634 156.258 528.824C156.357 529.008 156.39 529.22 156.352 529.424C156.315 529.629 156.209 529.816 156.052 529.953C155.564 530.272 154.982 530.417 154.401 530.365ZM151.401 529.32C152.653 529.856 155.075 530.187 155.763 529.609C155.873 529.512 155.983 529.347 155.763 529.003C155.713 528.873 155.635 528.756 155.535 528.659C155.435 528.561 155.316 528.486 155.185 528.439C154.181 528.068 152.241 528.921 151.36 529.32H151.401Z" fill="#407BFF"/>
<path d="M230.41 563.045C229.141 563.018 227.878 562.861 226.64 562.578C226.593 562.564 226.551 562.538 226.52 562.501C226.488 562.465 226.468 562.419 226.461 562.371C226.459 562.323 226.471 562.275 226.495 562.234C226.52 562.192 226.556 562.159 226.599 562.137C227.163 561.876 232.103 559.564 233.479 560.417C233.594 560.495 233.686 560.602 233.744 560.729C233.803 560.855 233.825 560.995 233.809 561.133C233.799 561.384 233.731 561.63 233.612 561.852C233.493 562.073 233.325 562.265 233.121 562.412C232.308 562.907 231.358 563.129 230.41 563.045ZM227.424 562.261C228.911 562.55 231.662 562.908 232.791 562.055C232.943 561.947 233.067 561.805 233.154 561.64C233.24 561.475 233.285 561.292 233.286 561.105C233.286 560.913 233.286 560.844 233.162 560.803C232.461 560.321 229.502 561.408 227.424 562.261Z" fill="#407BFF"/>
<path d="M226.696 562.578C226.647 562.597 226.593 562.597 226.544 562.578C226.522 562.545 226.51 562.507 226.51 562.468C226.51 562.428 226.522 562.39 226.544 562.357C226.544 562.151 227.728 557.211 230.438 557.528C231.113 557.61 231.305 557.94 231.333 558.216C231.512 559.468 228.361 562 226.847 562.619L226.696 562.578ZM230.122 557.913C228.388 557.913 227.37 560.789 227.04 561.931C228.677 561.078 230.92 559.027 230.81 558.216C230.81 558.216 230.81 557.982 230.315 557.927L230.122 557.913Z" fill="#407BFF"/>
<path d="M249.345 214.271L251.436 213.197C251.436 213.197 250.638 215.151 249.345 214.271Z" fill="#263238"/>
<path d="M490.723 258.922C490.654 259.871 490.572 260.546 490.475 261.33C490.379 262.114 490.269 262.816 490.145 263.545C489.897 265.018 489.608 266.462 489.292 267.907C488.648 270.786 487.854 273.629 486.911 276.425C484.991 282.075 482.385 287.468 479.151 292.483L477.885 294.354L477.568 294.808L477.376 295.083L477.087 295.468C476.667 295.965 476.207 296.425 475.711 296.844C474.093 298.299 472.163 299.363 470.069 299.954C466.857 300.818 463.517 301.112 460.203 300.821C454.35 300.338 448.595 299.022 443.113 296.913L444.599 290.983C449.774 291.511 454.984 291.617 460.176 291.299C462.371 291.174 464.534 290.71 466.588 289.923C467.12 289.703 467.592 289.359 467.964 288.919C467.812 289.125 468.734 287.543 469.34 286.552C471.747 282.108 473.688 277.428 475.133 272.586C475.876 270.136 476.509 267.66 477.059 265.183C477.334 263.931 477.582 262.678 477.802 261.44L478.091 259.582L478.339 257.89L490.723 258.922Z" fill="#E6A078"/>
<path d="M493.585 250.845C493.888 258.55 490.902 272.448 490.902 272.448L471.83 270.136C471.83 270.136 471.129 249.799 474.83 244.887C481.036 236.672 493.31 243.552 493.585 250.845Z" fill="#263238"/>
<path d="M447.2 291.795L435.779 287.735L438.16 296.294C438.16 296.294 443.499 299.418 446.553 295.868L447.2 291.795Z" fill="#E6A078"/>
<path d="M431.858 289.923L430.289 295.964L438.174 296.294L435.793 287.735L431.858 289.923Z" fill="#E6A078"/>
<path d="M378.221 329.91C386.169 330.03 394.062 328.569 401.441 325.61C408.819 322.652 415.536 318.255 421.199 312.677C426.863 307.099 431.36 300.449 434.43 293.117C437.5 285.784 439.081 277.914 439.081 269.964C439.081 262.015 437.5 254.145 434.43 246.812C431.36 239.479 426.863 232.83 421.199 227.252C415.536 221.673 408.819 217.277 401.441 214.318C394.062 211.36 386.169 209.898 378.221 210.019H370.446V329.91H378.221Z" fill="#407BFF"/>
<path d="M370.446 329.91C403.557 329.91 430.399 303.068 430.399 269.957C430.399 236.847 403.557 210.005 370.446 210.005C337.336 210.005 310.494 236.847 310.494 269.957C310.494 303.068 337.336 329.91 370.446 329.91Z" fill="#407BFF"/>
<path opacity="0.4" d="M370.446 329.91C403.557 329.91 430.399 303.068 430.399 269.957C430.399 236.847 403.557 210.005 370.446 210.005C337.336 210.005 310.494 236.847 310.494 269.957C310.494 303.068 337.336 329.91 370.446 329.91Z" fill="black"/>
<path opacity="0.2" d="M408.035 307.553C428.793 286.795 428.793 253.139 408.035 232.381C387.277 211.623 353.621 211.623 332.863 232.381C312.104 253.139 312.104 286.795 332.863 307.553C353.621 328.312 387.277 328.312 408.035 307.553Z" fill="#407BFF"/>
<path d="M397.774 273.384C395.285 270.591 391.933 268.712 388.252 268.045C390.72 267.29 392.949 265.905 394.719 264.027C396.928 261.503 398.111 258.243 398.035 254.89C398.074 252.887 397.679 250.898 396.876 249.062C396.073 247.226 394.882 245.585 393.384 244.254C390.293 241.383 385.853 239.947 380.065 239.947H376.501V229.875H369.772V239.947H361.434V229.875H354.705V239.947H340.078V252.111H345.376V287.818H340.119V299.968H354.746V310.04H361.475V299.968H369.814V310.04H376.542V299.968H377.395C380.16 299.836 382.915 299.56 385.651 299.142C388.105 298.953 390.5 298.299 392.71 297.216C395.18 295.816 397.232 293.784 398.654 291.327C400.114 288.773 400.86 285.874 400.815 282.933C400.955 279.492 399.878 276.111 397.774 273.384ZM364.048 252.111H372.235C375.056 252.111 377.024 252.606 378.152 253.583C378.729 254.098 379.182 254.737 379.478 255.452C379.773 256.167 379.903 256.939 379.858 257.711C379.906 258.512 379.778 259.314 379.483 260.06C379.189 260.807 378.734 261.479 378.152 262.032C377.024 263.022 375.015 263.518 372.125 263.518H364.048V252.111ZM380.271 285.382C378.895 286.511 376.707 287.075 373.515 287.075H364.048V274.925H373.474C376.721 274.925 378.991 275.461 380.285 276.535C380.918 277.049 381.424 277.703 381.763 278.446C382.102 279.188 382.265 279.999 382.239 280.814C382.275 281.674 382.116 282.532 381.776 283.323C381.435 284.113 380.921 284.817 380.271 285.382Z" fill="white"/>
<path d="M436.44 211.326C436.44 212.22 435.931 212.95 435.353 212.964C434.775 212.977 434.293 212.248 434.307 211.367C434.321 210.487 434.802 209.744 435.394 209.73C435.986 209.716 436.453 210.445 436.44 211.326Z" fill="#263238"/>
<path d="M435.655 209.785L433.439 209.152C433.439 209.152 434.582 210.845 435.655 209.785Z" fill="#263238"/>
<path d="M435.668 212.207C434.836 214.259 433.73 216.189 432.38 217.945C432.841 218.261 433.365 218.474 433.916 218.569C434.467 218.664 435.032 218.639 435.572 218.495L435.668 212.207Z" fill="#A02724"/>
<path d="M435.311 205.409C435.393 205.43 435.478 205.43 435.559 205.409C436.193 205.182 436.87 205.104 437.539 205.183C438.208 205.262 438.849 205.495 439.412 205.863C439.523 205.947 439.663 205.984 439.801 205.964C439.87 205.955 439.935 205.932 439.995 205.897C440.054 205.862 440.106 205.815 440.148 205.76C440.19 205.705 440.22 205.642 440.237 205.575C440.255 205.509 440.258 205.439 440.249 205.371C440.239 205.302 440.216 205.237 440.181 205.177C440.146 205.118 440.1 205.066 440.045 205.024C439.342 204.562 438.542 204.267 437.707 204.162C436.872 204.057 436.024 204.145 435.229 204.419C435.163 204.439 435.101 204.472 435.049 204.517C434.996 204.561 434.953 204.616 434.922 204.678C434.891 204.74 434.873 204.807 434.869 204.876C434.865 204.945 434.875 205.014 434.899 205.079C434.932 205.166 434.988 205.242 435.06 205.3C435.133 205.358 435.219 205.396 435.311 205.409Z" fill="#263238"/>
<path d="M462.818 220.834C462.226 227.535 464.469 238.502 469.533 242.231C469.533 242.231 465.721 249.276 453.516 250.914C440.086 252.716 446.388 245.162 446.388 245.162C453.53 242.41 452.773 237.085 450.957 232.186L462.818 220.834Z" fill="#E6A078"/>
<path d="M438.421 258.771C436.962 265.745 435.125 272.636 432.917 279.411C430.759 286.234 428.176 292.916 425.184 299.418L424.619 300.656C424.386 301.138 424.083 301.702 423.808 302.211C423.267 303.163 422.67 304.082 422.019 304.963C420.824 306.532 419.523 308.017 418.125 309.407C415.506 311.995 412.72 314.408 409.786 316.631C404.102 320.939 398.088 324.794 391.802 328.162L388.431 323.044C393.646 318.695 398.861 314.155 403.677 309.504C406.052 307.247 408.303 304.863 410.419 302.362C411.386 301.21 412.278 299.997 413.089 298.73C413.435 298.178 413.752 297.609 414.038 297.023L414.368 296.239L414.822 295.069C416.033 291.96 417.107 288.767 418.194 285.575C419.281 282.383 420.23 279.135 421.179 275.943C423.037 269.448 424.785 262.775 426.312 256.321L438.421 258.771Z" fill="#E6A078"/>
<path d="M392.421 327.681L386.091 331.809L382.954 326.428C382.954 326.428 389.174 318.998 392.93 324.282L392.421 327.681Z" fill="#E6A078"/>
<path d="M390.784 322.135L387.206 321.599L383.188 322.452L382.156 323.621L384.771 324.007L385.459 325.039L386.339 325.603L390.784 322.135Z" fill="#E6A078"/>
<path d="M379.804 332.345L376.322 329.538L382.955 326.456L386.092 331.836L379.804 332.345Z" fill="#E6A078"/>
<path d="M482.646 560.596L471.542 561.422L468.239 535.924L479.344 535.099L482.646 560.596Z" fill="#E6A078"/>
<path d="M553.743 528.205L544.125 534.053L528.136 514.074L537.754 508.226L553.743 528.205Z" fill="#E6A078"/>
<path d="M541.25 531.907L550.373 523.128C550.523 522.973 550.726 522.879 550.942 522.863C551.157 522.848 551.371 522.913 551.542 523.045L559.317 529.045C559.504 529.211 559.655 529.415 559.758 529.644C559.86 529.873 559.914 530.121 559.914 530.372C559.914 530.623 559.86 530.871 559.758 531.1C559.655 531.329 559.504 531.534 559.317 531.7C556.083 534.714 554.377 536.007 550.359 539.874C547.896 542.254 544.525 545.969 541.112 549.258C537.7 552.547 534.383 549.437 535.512 547.772C540.603 540.314 539.832 537.521 540.3 533.709C540.395 533.015 540.731 532.377 541.25 531.907Z" fill="#263238"/>
<path d="M470.853 559.839H483.333C483.548 559.837 483.757 559.912 483.921 560.051C484.086 560.19 484.194 560.384 484.227 560.596L485.906 570.462C485.942 570.708 485.924 570.96 485.854 571.198C485.783 571.437 485.663 571.658 485.5 571.846C485.336 572.034 485.135 572.185 484.908 572.288C484.681 572.391 484.435 572.444 484.186 572.444C479.824 572.444 477.719 572.113 472.229 572.113C468.858 572.113 461.881 572.457 457.217 572.457C452.552 572.457 452.194 567.848 454.121 567.435C462.776 565.564 466.147 562.977 469.009 560.555C469.518 560.104 470.172 559.85 470.853 559.839Z" fill="#263238"/>
<path opacity="0.2" d="M468.253 535.925L470.083 550.097L481.05 548.253L479.357 535.113L468.253 535.925Z" fill="black"/>
<path opacity="0.2" d="M537.754 508.226L528.136 514.087L534.754 522.343L544.579 516.743L537.754 508.226Z" fill="black"/>
<path d="M488.245 309.132L443.278 315.173C425.858 252.097 431.004 250.391 431.004 250.391C434.37 248.803 437.83 247.425 441.365 246.263L441.984 246.07C444.888 245.203 445.493 245.079 449.36 244.199C456.006 243.029 462.17 242.121 469.779 241.447L471.155 241.337C472.531 241.24 473.907 241.172 475.283 241.13C476.178 241.13 477.059 241.13 477.898 241.061H482.287C483.148 241.081 483.994 241.279 484.774 241.643C485.554 242.007 486.25 242.529 486.817 243.176C487.385 243.822 487.813 244.58 488.073 245.4C488.333 246.22 488.42 247.086 488.328 247.941C484.503 281.254 485.727 292.152 488.245 309.132Z" fill="#263238"/>
<path opacity="0.2" d="M438.944 269.696C439.839 276.219 439.004 282.862 436.522 288.96C433.522 276.659 431.912 268.32 431.101 262.541C434.486 262.389 438.063 263.71 438.944 269.696Z" fill="black"/>
<path d="M431.39 250.212C423.698 254.615 418.345 265.114 416.735 271.21L433.123 286.208C433.123 286.208 443.719 265.816 440.953 260.298C438.063 254.56 434.307 248.547 431.39 250.212Z" fill="#263238"/>
<path d="M466.616 208.464C465.776 219.472 465.666 224.068 459.997 229.764C451.48 238.337 438.077 235.268 435.587 224.412C433.358 214.615 435.078 198.268 445.976 193.837C448.307 192.796 450.869 192.38 453.41 192.63C455.951 192.88 458.383 193.788 460.467 195.265C462.55 196.741 464.213 198.735 465.291 201.049C466.369 203.364 466.826 205.919 466.616 208.464Z" fill="#E6A078"/>
<path d="M443.925 212.881C445.053 208.987 436.302 204.556 435.366 198.584C434.155 190.837 440.155 184.577 445.755 188.223C448.026 183.035 463.437 180.848 471.899 187.274C481.421 194.484 469.753 202.107 479.247 208.492C486.815 213.583 487.847 216.747 483.169 222.843C479.618 227.48 488.796 226.49 486.471 234.333C484.146 242.176 436.674 245.052 442.976 227.453C448.576 211.904 441.696 220.834 443.925 212.881Z" fill="#263238"/>
<path d="M446.594 212.014C446.526 214.055 445.83 216.026 444.599 217.656C442.893 219.967 440.897 219.348 440.471 217.215C440.031 215.303 440.402 211.794 442.562 210.198C444.723 208.602 446.58 209.73 446.594 212.014Z" fill="#E6A078"/>
<path d="M482.687 223.256C482.645 223.255 482.605 223.241 482.572 223.215C482.539 223.19 482.515 223.154 482.504 223.113C482.493 223.073 482.496 223.03 482.511 222.991C482.527 222.952 482.555 222.92 482.591 222.898C485.577 221.178 487.173 218.77 487.104 216.266C487.022 213.046 484.352 209.799 479.99 207.583C474.789 204.941 475.188 201.364 475.587 197.951C475.986 194.539 476.385 190.879 471.308 187.934C471.263 187.906 471.23 187.862 471.215 187.812C471.2 187.761 471.204 187.707 471.225 187.659C471.254 187.614 471.298 187.582 471.349 187.57C471.4 187.557 471.454 187.564 471.5 187.59C476.812 190.672 476.385 194.388 475.972 197.993C475.56 201.598 475.202 204.776 480.1 207.294C484.6 209.565 487.338 212.936 487.434 216.307C487.434 219.059 485.838 221.508 482.728 223.284C482.713 223.276 482.7 223.267 482.687 223.256Z" fill="#263238"/>
<path d="M455.153 313.577C455.153 313.577 472.615 387.358 480.774 429.752C489.374 474.472 530.682 521.064 530.682 521.064L544.703 513.248C544.703 513.248 518.711 470.73 510.303 428.968C493.186 344.206 504.799 327.144 488.287 309.146L455.153 313.577Z" fill="#407BFF"/>
<path d="M529.292 522.371L546.794 512.615L544.235 507.441L524.6 516.482L529.292 522.371Z" fill="#263238"/>
<path opacity="0.2" d="M464.427 329.607C478.008 341.399 476.536 383.271 475.118 402.067C469.422 375.263 462.569 345.431 458.606 328.162C459.982 327.089 461.936 327.488 464.427 329.607Z" fill="black"/>
<path d="M537.424 536.998C537.556 537.019 537.691 537.019 537.823 536.998C539.199 536.998 540.836 534.851 541.662 533.585C541.689 533.542 541.703 533.492 541.703 533.441C541.703 533.39 541.689 533.34 541.662 533.296C541.634 533.251 541.592 533.215 541.543 533.196C541.493 533.176 541.438 533.172 541.387 533.186C540.946 533.269 536.97 534.108 536.447 535.429C536.389 535.574 536.37 535.731 536.392 535.886C536.413 536.04 536.475 536.187 536.571 536.31C536.768 536.63 537.069 536.873 537.424 536.998ZM540.85 533.874C539.694 535.525 538.58 536.502 537.809 536.516C537.645 536.516 537.483 536.473 537.34 536.391C537.198 536.309 537.079 536.191 536.997 536.048C536.954 535.995 536.924 535.932 536.912 535.865C536.9 535.797 536.906 535.728 536.928 535.663C537.217 534.961 539.268 534.26 540.85 533.888V533.874Z" fill="#407BFF"/>
<path d="M443.953 315.2C443.953 315.2 436.096 402.81 440.32 436.192C444.778 470.95 467.468 546.561 467.468 546.561L483.471 544.497C483.471 544.497 470.468 469.56 468.156 435.16C465.638 397.636 476.825 310.756 476.825 310.756L443.953 315.2Z" fill="#407BFF"/>
<path d="M464.11 547.51L486.938 544.566L486.58 537.823L461.826 540.218L464.11 547.51Z" fill="#263238"/>
<path d="M538.015 533.558C539.154 533.866 540.346 533.927 541.51 533.737C541.556 533.724 541.598 533.7 541.632 533.666C541.666 533.632 541.69 533.59 541.703 533.544C541.713 533.5 541.711 533.455 541.699 533.412C541.687 533.368 541.665 533.329 541.634 533.296C541.538 533.2 539.364 530.957 537.754 531.026C537.546 531.029 537.342 531.078 537.156 531.171C536.97 531.264 536.807 531.398 536.681 531.563C536.529 531.708 536.433 531.901 536.408 532.109C536.383 532.317 536.431 532.528 536.543 532.705C536.923 533.148 537.442 533.449 538.015 533.558ZM540.891 533.31C539.515 533.461 537.396 533.062 536.983 532.429C536.915 532.319 536.859 532.168 537.08 531.893C537.164 531.787 537.27 531.701 537.392 531.641C537.513 531.582 537.646 531.55 537.781 531.549C538.976 531.799 540.063 532.414 540.891 533.31Z" fill="#407BFF"/>
<path d="M466.725 561.779C467.895 561.759 469.061 561.625 470.206 561.38C470.259 561.37 470.307 561.343 470.344 561.303C470.381 561.264 470.405 561.214 470.412 561.16C470.422 561.106 470.413 561.05 470.388 561C470.364 560.951 470.324 560.911 470.275 560.885C469.766 560.624 465.266 558.353 463.932 559.124C463.806 559.191 463.701 559.29 463.626 559.411C463.552 559.532 463.51 559.67 463.505 559.812C463.48 560.05 463.514 560.291 463.602 560.514C463.691 560.737 463.832 560.935 464.014 561.091C464.815 561.619 465.77 561.861 466.725 561.779ZM469.325 561.009C466.876 561.408 465.046 561.312 464.358 560.706C464.242 560.598 464.152 560.466 464.095 560.318C464.037 560.17 464.015 560.011 464.028 559.853C464.028 559.797 464.044 559.741 464.073 559.693C464.102 559.645 464.143 559.605 464.193 559.578C464.922 559.165 467.482 560.128 469.325 561.009Z" fill="#407BFF"/>
<path d="M470.152 561.408C470.206 561.42 470.262 561.42 470.317 561.408C470.352 561.378 470.38 561.34 470.397 561.297C470.414 561.253 470.419 561.206 470.413 561.16C470.413 560.968 469.89 556.427 467.4 556.427H467.18C466.464 556.496 466.258 556.853 466.216 557.156C466.01 558.408 468.693 560.816 470.055 561.422L470.152 561.408ZM467.4 556.908C469.01 556.908 469.643 559.55 469.835 560.679C468.459 559.853 466.629 557.927 466.739 557.211C466.739 557.142 466.739 556.963 467.248 556.922L467.4 556.908Z" fill="#407BFF"/>
<path d="M488.631 306.421L491.08 310.15C491.273 310.439 490.943 310.797 490.42 310.866L443.264 317.196C442.865 317.196 442.508 317.099 442.453 316.852L441.627 312.916C441.627 312.641 441.888 312.352 442.342 312.297L487.861 306.188C487.998 306.158 488.141 306.163 488.276 306.204C488.411 306.245 488.533 306.32 488.631 306.421Z" fill="#407BFF"/>
<path opacity="0.5" d="M488.631 306.421L491.08 310.15C491.273 310.439 490.943 310.797 490.42 310.866L443.264 317.196C442.865 317.196 442.508 317.099 442.453 316.852L441.627 312.916C441.627 312.641 441.888 312.352 442.342 312.297L487.861 306.188C487.998 306.158 488.141 306.163 488.276 306.204C488.411 306.245 488.533 306.32 488.631 306.421Z" fill="white"/>
<path d="M483.058 312.352L484.283 312.187C484.517 312.187 484.696 312.008 484.655 311.857L483.54 306.738C483.54 306.6 483.279 306.504 483.031 306.532L481.82 306.697C481.572 306.697 481.393 306.876 481.435 307.027L482.549 312.146C482.59 312.228 482.811 312.352 483.058 312.352Z" fill="#407BFF"/>
<path d="M452.263 316.48L453.474 316.315C453.722 316.315 453.887 316.136 453.86 315.985L452.731 310.866C452.731 310.715 452.484 310.618 452.236 310.66L451.011 310.811C450.777 310.811 450.598 311.004 450.64 311.155L451.754 316.26C451.796 316.48 452.016 316.48 452.263 316.48Z" fill="#407BFF"/>
</svg>
