<svg width="520" height="439" viewBox="0 0 520 439" fill="none" xmlns="http://www.w3.org/2000/svg">
<g clip-path="url(#clip0)">
<path opacity="0.18" d="M509.817 269.996C500.626 287.31 483.989 300.832 479.38 319.89C477.384 328.114 477.848 336.739 476.869 345.151C473.253 374.63 451.153 399.2 424.797 413.124C423.692 413.727 422.575 414.279 421.457 414.831C404.167 423.281 385.433 427.889 366.335 430.764C354.72 432.496 342.967 433.576 331.315 434.53C282.872 438.364 234.32 439.762 185.66 438.724C162.167 438.247 138.209 437.129 116.11 429.333C114.98 428.943 113.862 428.529 112.745 428.077C94.8141 421.109 78.9051 409.697 64.8167 396.614L64.1764 396.011C43.1569 376.375 25.7913 352.659 14.5533 326.18C-1.50566 288.369 -4.31973 246.242 6.5674 206.631C13.2098 183.09 24.8119 160.642 26.6577 136.323C28.0013 117.992 23.6944 99.436 26.5698 81.2814C32.2579 45.2484 65.7585 18.7196 101.13 9.79294C136.501 0.866302 173.731 5.9511 209.856 11.0485C227.511 13.5595 248.166 20.3015 265.632 14.9029C287.066 8.26123 305.147 0.0502202 328.276 0C337.731 0 347.374 0.991851 356.038 4.78348C366.536 9.36607 374.873 17.6775 383.374 25.3235C407.168 46.6671 434.29 63.9178 458.612 84.6336C482.934 105.349 504.958 130.56 513.86 161.219C518.243 176.21 519.322 191.967 519.787 207.573C520.465 228.891 519.774 251.176 509.817 269.996Z" fill="#0057FF"/>
<path d="M286.461 108.561L93.0497 221.354L89.0144 224.612L282.989 111.681L286.461 108.561Z" fill="#0057FF"/>
<path d="M386.726 141.998H140.13C129.541 141.998 120.956 150.581 120.956 161.169V325.741C120.956 336.329 129.541 344.912 140.13 344.912H386.726C397.315 344.912 405.9 336.329 405.9 325.741V161.169C405.9 150.581 397.315 141.998 386.726 141.998Z" fill="#0057FF"/>
<path d="M388.509 156.486H138.347V326.281H388.509V156.486Z" fill="white"/>
<path d="M260.534 235.508H253.075V303.694H260.534V235.508Z" fill="#0057FF"/>
<path d="M273.504 246.657H266.046V303.694H273.504V246.657Z" fill="#0057FF"/>
<path d="M286.212 256.839H278.753V303.694H286.212V256.839Z" fill="#0057FF"/>
<path d="M299.182 246.657H291.724V303.694H299.182V246.657Z" fill="#0057FF"/>
<path d="M311.89 269.595H304.431V303.694H311.89V269.595Z" fill="#0057FF"/>
<path d="M324.86 246.657H317.402V303.694H324.86V246.657Z" fill="#0057FF"/>
<path d="M337.567 263.782H330.109V303.694H337.567V263.782Z" fill="#0057FF"/>
<path d="M350.538 256.098H343.08V303.694H350.538V256.098Z" fill="#0057FF"/>
<path d="M208.336 277.002H165.682V279.488H208.336V277.002Z" fill="#AAC7FF"/>
<path d="M208.336 283.895H165.682V286.381H208.336V283.895Z" fill="#AAC7FF"/>
<path d="M208.336 290.8H165.682V293.286H208.336V290.8Z" fill="#AAC7FF"/>
<path d="M208.336 297.705H165.682V300.191H208.336V297.705Z" fill="#AAC7FF"/>
<path d="M208.336 304.611H165.682V307.097H208.336V304.611Z" fill="#AAC7FF"/>
<path d="M209.215 189.682C201.856 189.66 194.789 192.563 189.57 197.751C184.35 202.939 181.406 209.988 181.384 217.347C181.362 224.706 184.265 231.772 189.454 236.991C194.643 242.209 201.693 245.153 209.052 245.175V235.508H208.939C205.308 235.508 201.759 234.431 198.74 232.414C195.721 230.397 193.369 227.531 191.979 224.177C190.59 220.823 190.226 217.132 190.934 213.571C191.643 210.011 193.391 206.74 195.958 204.173C198.526 201.606 201.797 199.858 205.358 199.149C208.919 198.441 212.61 198.805 215.964 200.194C219.319 201.583 222.186 203.936 224.203 206.954C226.22 209.973 227.297 213.522 227.297 217.152C227.3 218.031 227.232 218.908 227.096 219.776H236.852C236.934 218.996 236.971 218.213 236.965 217.428C236.967 213.784 236.25 210.175 234.856 206.808C233.462 203.441 231.418 200.382 228.841 197.805C226.264 195.228 223.204 193.184 219.837 191.79C216.469 190.397 212.86 189.68 209.215 189.682Z" fill="#AAC7FF"/>
<path d="M281 101.733L152.02 69L149 69.0231L278.286 102L281 101.733Z" fill="#0057FF"/>
<path d="M169.588 237.316L146.408 211.477H123.681V210.46H146.86L170.353 236.638L169.588 237.316Z" fill="#0057FF"/>
<path d="M87.5473 162L106 118.279L105.517 118L87 161.866L87.5473 162Z" fill="#0057FF"/>
<path d="M347.927 264.02L346.947 263.769L363.396 200.567H393.055V201.584H364.187L347.927 264.02Z" fill="#0057FF"/>
<path d="M471.281 166.806H401.681C396.5 166.806 392.301 171.005 392.301 176.185V244.12C392.301 249.3 396.5 253.499 401.681 253.499H471.281C476.461 253.499 480.661 249.3 480.661 244.12V176.185C480.661 171.005 476.461 166.806 471.281 166.806Z" fill="#EFF5FF"/>
<path d="M357.545 41.507H287.944C282.764 41.507 278.565 45.706 278.565 50.8856V118.821C278.565 124.001 282.764 128.2 287.944 128.2H357.545C362.725 128.2 366.924 124.001 366.924 118.821V50.8856C366.924 45.706 362.725 41.507 357.545 41.507Z" fill="url(#paint0_linear)"/>
<path d="M141.674 31.8396H72.074C66.8937 31.8396 62.6943 36.0386 62.6943 41.2182V109.154C62.6943 114.333 66.8937 118.532 72.074 118.532H141.674C146.855 118.532 151.054 114.333 151.054 109.154V41.2182C151.054 36.0386 146.855 31.8396 141.674 31.8396Z" fill="#E0EBFF"/>
<path d="M115.971 161.81H46.3709C41.1907 161.81 36.9913 166.009 36.9913 171.188V239.124C36.9913 244.303 41.1907 248.502 46.3709 248.502H115.971C121.152 248.502 125.351 244.303 125.351 239.124V171.188C125.351 166.009 121.152 161.81 115.971 161.81Z" fill="#E9F1FF"/>
<path d="M236.852 220.115C236.273 227.041 233.111 233.497 227.994 238.202C222.877 242.906 216.179 245.516 209.228 245.514H209.065V235.859C213.46 235.831 217.699 234.227 221.01 231.337C224.322 228.448 226.486 224.465 227.108 220.115H236.852Z" fill="#0057FF"/>
<path d="M236.852 219.776C236.273 226.702 233.111 233.158 227.994 237.863C222.877 242.567 216.179 245.177 209.228 245.175H209.065V235.508C213.459 235.483 217.697 233.881 221.009 230.993C224.321 228.106 226.485 224.125 227.108 219.776H236.852Z" fill="url(#paint1_linear)"/>
<path d="M140.544 248.716L153.465 221.584L183.312 239.023L162.769 281.397L146.747 272.482L140.544 248.716Z" fill="#0057FF"/>
<path d="M142.993 246.004L153.854 224.949L178.402 239.287L159.793 276.625L147.136 266.933L142.993 246.004Z" fill="white"/>
<path d="M142.126 312.759L150.702 365.817L142.126 418.811L146.961 422.578L139.025 422.239L139.716 367.461L124.899 328.88L126.695 368.943L118.056 420.594L121.823 422.653L113.209 422.314L116.9 368.754L110.183 336.726C110.183 336.726 104.256 313.449 110.183 309.658C116.109 305.866 142.126 312.759 142.126 312.759Z" fill="#3E3E54"/>
<path d="M110.773 233.172C110.773 233.172 131.629 235.508 136.79 239.274C141.951 243.041 147.3 249.017 147.3 253.838C147.3 258.659 149.371 282.426 149.371 282.426L157.985 262.451L162.807 265.2C162.807 265.2 157.295 299.827 154.193 300.857C151.092 301.886 142.654 299.601 142.654 299.601L142.126 312.696C142.126 312.696 113.874 315.446 110.095 309.595C106.315 303.744 97.3878 242.739 110.773 233.172Z" fill="#0057FF"/>
<path d="M128.678 226.631C128.678 226.631 126.167 231.942 127.511 236.286C127.511 236.286 119.763 235.232 119.537 234.315C119.311 233.399 120.504 225.275 119.613 222.777C118.721 220.278 128.678 226.631 128.678 226.631Z" fill="#EEA886"/>
<path d="M120.354 205.012C123.405 203.756 131.755 201.873 134.844 214.34C137.933 226.807 133.236 227.41 128.377 227.46C123.518 227.51 115.331 219.613 114.565 217.064C113.799 214.516 111.677 208.753 120.354 205.012Z" fill="#EEA886"/>
<path d="M158.425 256.676C158.416 256.336 158.458 255.998 158.55 255.671C158.839 254.755 159.806 254.252 160.333 253.436C160.608 252.913 160.778 252.342 160.835 251.754C160.877 251.234 161.017 250.727 161.25 250.26C161.366 250.029 161.546 249.836 161.768 249.704C161.991 249.573 162.247 249.509 162.505 249.519C163.209 249.62 163.573 250.398 163.761 251.076C165 255.2 164.823 259.619 163.259 263.631C163.033 264.221 162.618 264.887 162.003 264.887C161.789 264.859 161.584 264.787 161.401 264.673C160.145 263.995 158.362 263.418 158.299 261.949C158.236 260.153 158.387 258.396 158.425 256.676Z" fill="#EEA886"/>
<path d="M161.338 252.294L155.486 246.807L154.972 247.837L160.333 253.461C160.333 253.461 161.426 253.085 161.338 252.294Z" fill="#0057FF"/>
<path d="M142.654 299.664C142.654 299.664 139.628 298.408 138.598 289.62C137.568 280.831 136.275 271.792 136.275 271.792V313.098H143.169L142.654 299.664Z" fill="url(#paint2_linear)"/>
<path d="M129.683 202.287C129.156 200.915 128.147 199.781 126.845 199.098C126.372 198.8 125.831 198.628 125.273 198.597C124.715 198.566 124.159 198.678 123.656 198.922C123.353 198.511 122.958 198.178 122.502 197.949C122.046 197.72 121.542 197.601 121.032 197.604C120.174 197.478 119.299 197.614 118.52 197.993C118.13 198.2 117.816 198.526 117.624 198.923C117.432 199.321 117.372 199.769 117.453 200.203C116.204 200.023 114.935 200.023 113.686 200.203C113.297 200.241 112.921 200.361 112.581 200.554C112.173 200.88 111.868 201.316 111.702 201.81C111.012 203.395 110.649 205.103 110.635 206.832C109.984 207.295 109.446 207.899 109.062 208.599C108.677 209.299 108.455 210.077 108.412 210.875C108.38 211.675 108.527 212.472 108.842 213.208C109.157 213.945 109.632 214.601 110.233 215.131C109.996 215.951 109.934 216.812 110.051 217.657C110.168 218.503 110.461 219.315 110.911 220.04C111.378 220.756 112.053 221.313 112.845 221.636C113.637 221.959 114.508 222.033 115.343 221.848C115.343 222.601 115.444 223.518 116.135 223.857C116.377 223.956 116.639 223.999 116.9 223.982C117.639 223.97 118.367 223.817 119.048 223.53C118.916 224.109 118.916 224.709 119.048 225.288C119.118 225.572 119.278 225.826 119.504 226.011C119.731 226.197 120.011 226.304 120.303 226.317C120.731 226.23 121.119 226.005 121.408 225.677C122.229 225.046 122.862 224.204 123.241 223.241C123.368 222.338 123.443 221.429 123.468 220.517C123.668 219.45 124.346 218.408 124.07 217.366C123.794 216.324 122.928 215.859 122.262 215.169C121.597 214.478 121.195 213.248 121.923 212.658C122.651 212.067 123.719 212.595 124.372 213.248C124.698 213.561 125.163 213.926 125.539 213.687C125.916 213.448 125.803 212.946 125.665 212.57C125.306 211.758 125.016 210.918 124.798 210.059C124.687 209.615 124.693 209.15 124.816 208.71C124.939 208.269 125.176 207.869 125.502 207.548C126.582 206.631 128.327 207.146 129.382 206.292C130.436 205.438 130.085 203.379 129.683 202.287Z" fill="#3E3E54"/>
<path d="M325.584 84.9251C327.108 84.2495 328.402 83.1424 329.305 81.7403C330.207 80.3383 330.68 78.7026 330.664 77.0351C330.668 75.9845 330.466 74.9433 330.068 73.9709C329.67 72.9986 329.085 72.1141 328.345 71.368C327.606 70.6219 326.726 70.0287 325.758 69.6224C324.789 69.2162 323.749 69.0047 322.699 69.0001C321.648 68.9955 320.607 69.1979 319.635 69.5957C318.662 69.9934 317.778 70.5789 317.032 71.3185C316.285 72.0581 315.692 72.9374 315.286 73.9063C314.88 74.8751 314.668 75.9145 314.664 76.9651C314.621 78.6533 315.083 80.3159 315.99 81.7408C316.896 83.1656 318.207 84.2881 319.754 84.9651C307.454 86.8151 308.004 100.185 308.004 100.185L337.104 100.325C337.104 100.325 337.774 86.7651 325.584 84.9251Z" fill="#A3C4FF" fill-opacity="0.75"/>
<path d="M108.584 74.9251C110.108 74.2495 111.402 73.1424 112.305 71.7403C113.207 70.3383 113.68 68.7026 113.664 67.0351C113.668 65.9845 113.466 64.9433 113.068 63.9709C112.67 62.9986 112.085 62.1141 111.345 61.368C110.606 60.6219 109.726 60.0287 108.758 59.6224C107.789 59.2162 106.749 59.0047 105.699 59.0001C104.648 58.9955 103.607 59.1979 102.635 59.5957C101.662 59.9934 100.778 60.5789 100.032 61.3185C99.2855 62.0581 98.6923 62.9374 98.2861 63.9063C97.8798 64.8751 97.6683 65.9145 97.6637 66.9651C97.6214 68.6533 98.083 70.3159 98.9895 71.7408C99.8961 73.1656 101.207 74.2881 102.754 74.9651C90.4537 76.8151 91.0037 90.1851 91.0037 90.1851L120.104 90.3251C120.104 90.3251 120.774 76.7651 108.584 74.9251Z" fill="#A3C4FF"/>
<path d="M81.5837 206.925C83.1083 206.25 84.4018 205.142 85.3045 203.74C86.2072 202.338 86.6797 200.703 86.6637 199.035C86.6683 197.985 86.4659 196.943 86.0681 195.971C85.6703 194.999 85.0849 194.114 84.3453 193.368C83.6057 192.622 82.7264 192.029 81.7575 191.622C80.7887 191.216 79.7493 191.005 78.6987 191C77.6481 190.995 76.6069 191.198 75.6346 191.596C74.6622 191.993 73.7777 192.579 73.0316 193.318C72.2855 194.058 71.6923 194.937 71.2861 195.906C70.8798 196.875 70.6683 197.915 70.6637 198.965C70.6214 200.653 71.083 202.316 71.9895 203.741C72.8961 205.166 74.2065 206.288 75.7537 206.965C63.4537 208.815 64.0037 222.185 64.0037 222.185L93.1037 222.325C93.1037 222.325 93.7737 208.765 81.5837 206.925Z" fill="#A3C4FF"/>
<path d="M425.388 217.972C422.303 217.972 419.876 217.001 418.108 215.06C416.34 213.084 415.456 210.259 415.456 206.584C415.456 202.979 416.34 200.205 418.108 198.264C419.876 196.323 422.303 195.352 425.388 195.352C428.473 195.352 430.9 196.34 432.668 198.316C434.436 200.257 435.32 203.031 435.32 206.636C435.32 210.311 434.436 213.119 432.668 215.06C430.9 217.001 428.473 217.972 425.388 217.972ZM424.608 233L446.136 195.976H453.988L432.512 233H424.608ZM425.388 212.2C426.22 212.2 426.809 211.801 427.156 211.004C427.503 210.172 427.676 208.716 427.676 206.636C427.676 204.66 427.485 203.256 427.104 202.424C426.723 201.557 426.151 201.124 425.388 201.124C424.625 201.124 424.053 201.557 423.672 202.424C423.325 203.256 423.152 204.66 423.152 206.636C423.152 208.681 423.325 210.12 423.672 210.952C424.053 211.784 424.625 212.2 425.388 212.2ZM453.208 233.364C450.123 233.364 447.713 232.393 445.98 230.452C444.247 228.476 443.38 225.651 443.38 221.976C443.38 218.371 444.247 215.597 445.98 213.656C447.713 211.715 450.123 210.744 453.208 210.744C456.328 210.744 458.755 211.715 460.488 213.656C462.221 215.597 463.088 218.388 463.088 222.028C463.088 225.703 462.221 228.511 460.488 230.452C458.755 232.393 456.328 233.364 453.208 233.364ZM453.208 227.592C454.005 227.592 454.577 227.176 454.924 226.344C455.305 225.512 455.496 224.073 455.496 222.028C455.496 220.052 455.305 218.648 454.924 217.816C454.543 216.949 453.971 216.516 453.208 216.516C452.445 216.516 451.873 216.949 451.492 217.816C451.145 218.648 450.972 220.052 450.972 222.028C450.972 224.073 451.145 225.512 451.492 226.344C451.873 227.176 452.445 227.592 453.208 227.592Z" fill="#99BEFF"/>
<path d="M425.388 217.972C422.303 217.972 419.876 217.001 418.108 215.06C416.34 213.084 415.456 210.259 415.456 206.584C415.456 202.979 416.34 200.205 418.108 198.264C419.876 196.323 422.303 195.352 425.388 195.352C428.473 195.352 430.9 196.34 432.668 198.316C434.436 200.257 435.32 203.031 435.32 206.636C435.32 210.311 434.436 213.119 432.668 215.06C430.9 217.001 428.473 217.972 425.388 217.972ZM424.608 233L446.136 195.976H453.988L432.512 233H424.608ZM425.388 212.2C426.22 212.2 426.809 211.801 427.156 211.004C427.503 210.172 427.676 208.716 427.676 206.636C427.676 204.66 427.485 203.256 427.104 202.424C426.723 201.557 426.151 201.124 425.388 201.124C424.625 201.124 424.053 201.557 423.672 202.424C423.325 203.256 423.152 204.66 423.152 206.636C423.152 208.681 423.325 210.12 423.672 210.952C424.053 211.784 424.625 212.2 425.388 212.2ZM453.208 233.364C450.123 233.364 447.713 232.393 445.98 230.452C444.247 228.476 443.38 225.651 443.38 221.976C443.38 218.371 444.247 215.597 445.98 213.656C447.713 211.715 450.123 210.744 453.208 210.744C456.328 210.744 458.755 211.715 460.488 213.656C462.221 215.597 463.088 218.388 463.088 222.028C463.088 225.703 462.221 228.511 460.488 230.452C458.755 232.393 456.328 233.364 453.208 233.364ZM453.208 227.592C454.005 227.592 454.577 227.176 454.924 226.344C455.305 225.512 455.496 224.073 455.496 222.028C455.496 220.052 455.305 218.648 454.924 217.816C454.543 216.949 453.971 216.516 453.208 216.516C452.445 216.516 451.873 216.949 451.492 217.816C451.145 218.648 450.972 220.052 450.972 222.028C450.972 224.073 451.145 225.512 451.492 226.344C451.873 227.176 452.445 227.592 453.208 227.592Z" fill="url(#paint3_linear)"/>
</g>
<defs>
<linearGradient id="paint0_linear" x1="347.462" y1="-366.482" x2="321.639" y2="105.149" gradientUnits="userSpaceOnUse">
<stop offset="0.02" stop-color="white" stop-opacity="0"/>
<stop offset="0.32" stop-color="white" stop-opacity="0.39"/>
<stop offset="0.68" stop-color="white" stop-opacity="0.68"/>
<stop offset="1" stop-color="white"/>
</linearGradient>
<linearGradient id="paint1_linear" x1="4988.22" y1="5250.78" x2="5910.22" y2="6645.25" gradientUnits="userSpaceOnUse">
<stop offset="0.02" stop-color="white" stop-opacity="0"/>
<stop offset="0.32" stop-color="white" stop-opacity="0.39"/>
<stop offset="0.68" stop-color="white" stop-opacity="0.68"/>
<stop offset="1" stop-color="white"/>
</linearGradient>
<linearGradient id="paint2_linear" x1="159.14" y1="275.596" x2="101.788" y2="325.458" gradientUnits="userSpaceOnUse">
<stop stop-opacity="0"/>
<stop offset="0.99"/>
</linearGradient>
<linearGradient id="paint3_linear" x1="439" y1="181" x2="439" y2="236" gradientUnits="userSpaceOnUse">
<stop stop-color="#0057FF"/>
<stop offset="0.4375" stop-color="#407BFF"/>
</linearGradient>
<clipPath id="clip0">
<rect width="520" height="439" fill="white"/>
</clipPath>
</defs>
</svg>
