<svg width="96" height="36" viewBox="0 0 96 36" fill="none" xmlns="http://www.w3.org/2000/svg">
<rect width="96" height="36" rx="10" fill="white"/>
<path d="M29.5353 15.05H36.5982V16.3648H33.8172V23.7767H32.293V16.3648H29.5237L29.5353 15.05ZM36.2956 17.4586H37.5988V18.6803H37.6221C37.6687 18.5058 37.7501 18.3429 37.8665 18.18C37.9828 18.0171 38.1224 17.8658 38.297 17.7378C38.4599 17.5982 38.646 17.4935 38.8555 17.412C39.0533 17.3306 39.2627 17.284 39.4722 17.284C39.6351 17.284 39.7514 17.2957 39.8096 17.2957C39.8678 17.3073 39.9376 17.3189 39.9958 17.3189V18.657C39.9027 18.6338 39.798 18.6221 39.6933 18.6105C39.5885 18.5989 39.4955 18.5872 39.3907 18.5872C39.158 18.5872 38.9369 18.6338 38.7275 18.7269C38.5181 18.8199 38.3435 18.9596 38.1806 19.1341C38.0294 19.3203 37.9014 19.5414 37.8083 19.809C37.7152 20.0766 37.6687 20.3908 37.6687 20.7398V23.7418H36.2724L36.2956 17.4586ZM46.3954 23.7767H45.0224V22.8924H44.9991C44.8246 23.2182 44.5686 23.4626 44.2312 23.6604C43.8937 23.8582 43.5447 23.9513 43.1956 23.9513C42.3695 23.9513 41.7644 23.7535 41.3921 23.3346C41.0197 22.9273 40.8336 22.299 40.8336 21.4729V17.4586H42.2298V21.3333C42.2298 21.8918 42.3346 22.2874 42.5556 22.5085C42.7651 22.7412 43.0676 22.8575 43.4516 22.8575C43.7425 22.8575 43.9868 22.811 44.1846 22.7179C44.3824 22.6248 44.5453 22.5085 44.6617 22.3572C44.7897 22.2059 44.8711 22.0198 44.9293 21.8103C44.9875 21.6009 45.0108 21.3682 45.0108 21.1238V17.4586L46.407 17.4586V23.7767H46.3954ZM48.7691 21.7521C48.8156 22.1594 48.9669 22.4386 49.2345 22.6132C49.5021 22.7761 49.8279 22.8575 50.2003 22.8575C50.3283 22.8575 50.4795 22.8459 50.6424 22.8226C50.8053 22.7993 50.9682 22.7644 51.1079 22.7063C51.2591 22.6481 51.3755 22.5666 51.4686 22.4503C51.5617 22.3339 51.6082 22.1943 51.5966 22.0198C51.5849 21.8452 51.5267 21.694 51.3988 21.5776C51.2708 21.4612 51.1195 21.3798 50.9333 21.2983C50.7472 21.2285 50.5261 21.1704 50.2817 21.1238C50.0374 21.0773 49.793 21.0191 49.537 20.9609C49.2811 20.9027 49.0251 20.8329 48.7807 20.7515C48.5364 20.67 48.3269 20.5653 48.1291 20.414C47.943 20.2744 47.7801 20.0999 47.6753 19.8788C47.559 19.6577 47.5008 19.4017 47.5008 19.0759C47.5008 18.7269 47.5822 18.4476 47.7568 18.2149C47.9197 17.9822 48.1408 17.796 48.3967 17.6564C48.6527 17.5168 48.9436 17.412 49.2578 17.3539C49.572 17.2957 49.8745 17.2724 50.1537 17.2724C50.4795 17.2724 50.7937 17.3073 51.0846 17.3771C51.3755 17.4469 51.6547 17.5517 51.8874 17.7146C52.1318 17.8658 52.3296 18.0753 52.4809 18.3196C52.6438 18.564 52.7369 18.8665 52.7834 19.2156H51.3289C51.2591 18.8781 51.1079 18.657 50.8751 18.5407C50.6308 18.4243 50.3632 18.3662 50.049 18.3662C49.9559 18.3662 49.8279 18.3778 49.6999 18.3894C49.5603 18.4127 49.444 18.436 49.316 18.4825C49.1996 18.5291 49.0949 18.5989 49.0134 18.6803C48.932 18.7618 48.8854 18.8781 48.8854 19.0178C48.8854 19.1923 48.9436 19.3203 49.06 19.425C49.1763 19.5297 49.3276 19.6112 49.5254 19.6926C49.7116 19.7624 49.9327 19.8206 50.177 19.8672C50.4214 19.9137 50.6773 19.9719 50.9333 20.0301C51.1893 20.0882 51.4337 20.158 51.678 20.2395C51.9224 20.3209 52.1434 20.4257 52.3296 20.5769C52.5158 20.7166 52.6787 20.8911 52.795 21.1005C52.9114 21.31 52.9696 21.5776 52.9696 21.8801C52.9696 22.2525 52.8881 22.5666 52.7136 22.8343C52.539 23.0902 52.318 23.3113 52.0504 23.4742C51.7827 23.6371 51.4686 23.7535 51.1428 23.8349C50.8053 23.9047 50.4795 23.9513 50.1537 23.9513C49.7581 23.9513 49.3858 23.9047 49.0483 23.8117C48.7109 23.7186 48.4084 23.5789 48.164 23.4044C47.9197 23.2182 47.7219 22.9972 47.5822 22.7179C47.4426 22.4503 47.3612 22.1245 47.3495 21.7405L48.7575 21.7405V21.7521H48.7691ZM53.3652 17.4586H54.424V15.5503H55.8203V17.4469H57.077V18.4825H55.8203V21.8569C55.8203 22.0081 55.8319 22.1245 55.8436 22.2408C55.8552 22.3456 55.8901 22.4386 55.925 22.5085C55.9716 22.5783 56.0414 22.6364 56.1228 22.6714C56.2159 22.7063 56.3323 22.7295 56.4952 22.7295C56.5883 22.7295 56.693 22.7295 56.7861 22.7179C56.8792 22.7063 56.9839 22.6946 57.077 22.6714V23.7535C56.9257 23.7767 56.7744 23.7884 56.6232 23.8C56.4719 23.8233 56.3323 23.8233 56.1694 23.8233C55.797 23.8233 55.5061 23.7884 55.2851 23.7186C55.064 23.6488 54.8895 23.544 54.7615 23.416C54.6335 23.2764 54.552 23.1135 54.5055 22.9157C54.4589 22.7179 54.4357 22.4735 54.424 22.2176V18.4941H53.3652V17.4353V17.4586ZM58.0544 17.4586H59.3692V18.3196H59.3925C59.5903 17.9473 59.8579 17.6913 60.207 17.5284C60.556 17.3655 60.9284 17.284 61.3473 17.284C61.8476 17.284 62.2781 17.3655 62.6504 17.5517C63.0228 17.7262 63.3253 17.9589 63.5697 18.2731C63.814 18.5756 64.0002 18.9363 64.1165 19.3436C64.2329 19.7508 64.3027 20.193 64.3027 20.6467C64.3027 21.0773 64.2445 21.4845 64.1398 21.8801C64.0235 22.2757 63.8606 22.6364 63.6395 22.939C63.4184 23.2415 63.1391 23.4859 62.7901 23.672C62.441 23.8582 62.0454 23.9513 61.58 23.9513C61.3822 23.9513 61.1727 23.928 60.9749 23.8931C60.7771 23.8582 60.5793 23.8 60.3931 23.7186C60.207 23.6371 60.0324 23.5324 59.8812 23.4044C59.7183 23.2764 59.5903 23.1251 59.4855 22.9622H59.4623V26.1155H58.066V17.4586H58.0544ZM62.9297 20.6235C62.9297 20.3442 62.8948 20.065 62.8134 19.7973C62.7435 19.5297 62.6272 19.297 62.4759 19.0876C62.3246 18.8781 62.1385 18.7152 61.929 18.5872C61.708 18.4592 61.452 18.4011 61.1727 18.4011C60.5909 18.4011 60.1488 18.5989 59.8463 19.0061C59.5554 19.4134 59.4041 19.9602 59.4041 20.6351C59.4041 20.9609 59.439 21.2518 59.5205 21.5194C59.6019 21.787 59.7066 22.0198 59.8695 22.2176C60.0208 22.4154 60.207 22.5666 60.428 22.683C60.6491 22.7993 60.8935 22.8575 61.1844 22.8575C61.5102 22.8575 61.7661 22.7877 61.9872 22.6597C62.2083 22.5317 62.3828 22.3572 62.5341 22.1594C62.6737 21.9499 62.7784 21.7172 62.8366 21.4496C62.8948 21.1704 62.9297 20.9027 62.9297 20.6235ZM65.3848 15.05L66.7811 15.05V16.3648H65.3848V15.05ZM65.3848 17.4586H66.7811V23.7767L65.3848 23.7767V17.4586ZM68.0261 15.05H69.4224V23.7767H68.0261V15.05ZM73.6811 23.9513C73.1807 23.9513 72.7269 23.8698 72.3313 23.6953C71.9357 23.5208 71.6099 23.2997 71.3307 23.0088C71.063 22.7179 70.8536 22.3572 70.714 21.9499C70.5743 21.5427 70.4929 21.0889 70.4929 20.6118C70.4929 20.1348 70.5627 19.6926 70.714 19.2854C70.8536 18.8781 71.063 18.5291 71.3307 18.2265C71.5983 17.9356 71.9357 17.7029 72.3313 17.54C72.7269 17.3771 73.1807 17.284 73.6811 17.284C74.1814 17.284 74.6352 17.3655 75.0308 17.54C75.4264 17.7029 75.7522 17.9356 76.0315 18.2265C76.2991 18.5174 76.5085 18.8781 76.6482 19.2854C76.7878 19.6926 76.8692 20.1348 76.8692 20.6118C76.8692 21.1005 76.7994 21.5427 76.6482 21.9499C76.4969 22.3572 76.2991 22.7063 76.0315 23.0088C75.7639 23.2997 75.4264 23.5324 75.0308 23.6953C74.6352 23.8582 74.193 23.9513 73.6811 23.9513ZM73.6811 22.8459C73.9836 22.8459 74.2629 22.7761 74.4839 22.6481C74.7166 22.5201 74.8912 22.3456 75.0424 22.1361C75.1937 21.9267 75.2984 21.6823 75.3682 21.4263C75.4381 21.1587 75.473 20.8911 75.473 20.6118C75.473 20.3442 75.4381 20.0766 75.3682 19.809C75.2984 19.5414 75.1937 19.3086 75.0424 19.0992C74.8912 18.8898 74.705 18.7269 74.4839 18.5989C74.2512 18.4709 73.9836 18.4011 73.6811 18.4011C73.3785 18.4011 73.0993 18.4709 72.8782 18.5989C72.6455 18.7269 72.471 18.9014 72.3197 19.0992C72.1684 19.3086 72.0637 19.5414 71.9939 19.809C71.9241 20.0766 71.8892 20.3442 71.8892 20.6118C71.8892 20.8911 71.9241 21.1587 71.9939 21.4263C72.0637 21.694 72.1684 21.9267 72.3197 22.1361C72.471 22.3456 72.6571 22.5201 72.8782 22.6481C73.1109 22.7877 73.3785 22.8459 73.6811 22.8459ZM77.2881 17.4586H78.347V15.5503H79.7433V17.4469H80.9999V18.4825H79.7433V21.8569C79.7433 22.0081 79.7549 22.1245 79.7665 22.2408C79.7782 22.3456 79.8131 22.4386 79.848 22.5085C79.8945 22.5783 79.9643 22.6364 80.0458 22.6714C80.1389 22.7063 80.2552 22.7295 80.4181 22.7295C80.5112 22.7295 80.6159 22.7295 80.709 22.7179C80.8021 22.7063 80.9068 22.6946 80.9999 22.6714V23.7535C80.8486 23.7767 80.6974 23.7884 80.5461 23.8C80.3949 23.8233 80.2552 23.8233 80.0923 23.8233C79.72 23.8233 79.4291 23.7884 79.208 23.7186C78.9869 23.6488 78.8124 23.544 78.6844 23.416C78.5564 23.2764 78.475 23.1135 78.4284 22.9157C78.3819 22.7179 78.3586 22.4735 78.347 22.2176V18.4941H77.2881V17.4353V17.4586Z" fill="black"/>
<path d="M11 15.0738H17.388L19.3544 9L21.3325 15.0738L27.7205 15.0622L22.5542 18.8205L24.5323 24.8943L19.366 21.136L14.1998 24.8943L16.1662 18.8205L11 15.0738Z" fill="#00B67A"/>
<path d="M15.7242 20.1935L16.1663 18.8205L19.3545 21.136L15.7242 20.1935Z" fill="#005128"/>
</svg>
